<?xml version="1.0" encoding="UTF-8" standalone="no"?>
<!-- Generator: Adobe Illustrator 16.0.0, SVG Export Plug-In . SVG Version: 6.00 Build 0)  -->

<svg
   xmlns:dc="http://purl.org/dc/elements/1.1/"
   xmlns:cc="http://creativecommons.org/ns#"
   xmlns:rdf="http://www.w3.org/1999/02/22-rdf-syntax-ns#"
   xmlns:svg="http://www.w3.org/2000/svg"
   xmlns="http://www.w3.org/2000/svg"
   xmlns:sodipodi="http://sodipodi.sourceforge.net/DTD/sodipodi-0.dtd"
   xmlns:inkscape="http://www.inkscape.org/namespaces/inkscape"
   version="1.0"
   id="Layer_1"
   x="0px"
   y="0px"
   viewBox="0 0 586.18421 443.53126"
   enable-background="new 0 0 437 54"
   xml:space="preserve"
   inkscape:version="0.48.4 r9939"
   width="100%"
   height="100%"
   sodipodi:docname="2008-15.svg"><metadata
   id="metadata3203"><rdf:RDF><cc:Work
       rdf:about=""><dc:format>image/svg+xml</dc:format><dc:type
         rdf:resource="http://purl.org/dc/dcmitype/StillImage" /><dc:title /></cc:Work></rdf:RDF></metadata><defs
   id="defs3201" /><sodipodi:namedview
   pagecolor="#ffffff"
   bordercolor="#666666"
   borderopacity="1"
   objecttolerance="10"
   gridtolerance="10"
   guidetolerance="10"
   inkscape:pageopacity="0"
   inkscape:pageshadow="2"
   inkscape:window-width="914"
   inkscape:window-height="571"
   id="namedview3199"
   showgrid="false"
   inkscape:zoom="1"
   inkscape:cx="293.0921"
   inkscape:cy="221.76544"
   inkscape:window-x="256"
   inkscape:window-y="209"
   inkscape:window-maximized="0"
   inkscape:current-layer="Layer_1"
   fit-margin-top="0"
   fit-margin-left="0"
   fit-margin-right="0"
   fit-margin-bottom="0"
   showborder="false"
   inkscape:showpageshadow="false" />
<g
   id="Intel_Skoool_Logo"
   transform="translate(74.592101,194.76582)">
	<g
   id="g3097">
		<g
   id="g3099">
			<g
   id="g3101">
				<g
   id="g3103">
					<path
   d="M 38.236,43.095 C 25.511,44.276 12.238,42.43 10.381,32.489 9.472,27.559 11.706,22.373 14.675,19.144 V 17.415 C 9.329,22.082 6.431,28.021 8.103,35.025 10.235,43.988 21.619,49.088 39,47.39 45.889,46.725 54.882,44.506 61.15,41.077 v -4.871 c -5.692,3.369 -15.076,6.169 -22.914,6.889 z M 71.771,17.297 C 68.758,2.539 40.137,1.619 21.676,12.86 v 1.238 C 40.11,4.616 66.251,4.674 68.63,18.25 c 0.808,4.493 -1.73,9.192 -6.241,11.873 v 3.517 c 5.434,-1.99 11.009,-8.445 9.382,-16.343 z"
   id="path3105"
   inkscape:connector-curvature="0"
   style="fill:#ffffff" />
					<path
   d="m 60.114,15.165 h -3.346 v 14.843 c 0,1.758 0.851,3.258 3.346,3.516 V 15.165 z"
   id="path3107"
   inkscape:connector-curvature="0"
   style="fill:#ffffff" />
					<path
   d="m 20.365,20.584 h -3.343 v 9.713 c 0,1.73 0.852,3.258 3.343,3.487 v -13.2 z"
   id="path3109"
   inkscape:connector-curvature="0"
   style="fill:#ffffff" />
					<rect
   x="17.021999"
   y="15.597"
   width="3.3310001"
   height="3.1700001"
   id="rect3111"
   style="fill:#ffffff" />
					<path
   d="m 40.354,33.64 c -2.694,0 -3.833,-1.874 -3.833,-3.718 V 17.009 h 3.3 v 3.575 h 2.494 v 2.681 h -2.494 v 6.456 c 0,0.748 0.346,1.151 1.138,1.151 h 1.356 v 2.768 h -1.961"
   id="path3113"
   inkscape:connector-curvature="0"
   style="fill:#ffffff" />
					<path
   d="m 46.45,28.136 c 0,1.7 1.066,2.941 2.926,2.941 1.469,0 2.192,-0.406 3.039,-1.241 l 2.049,1.959 c -1.312,1.268 -2.683,2.076 -5.118,2.076 -3.156,0 -6.196,-1.729 -6.196,-6.773 0,-4.295 2.666,-6.745 6.141,-6.745 3.531,0 5.563,2.852 5.563,6.6 v 1.183 H 46.45 m 2.679,-5.046 c -1.122,0 -2.001,0.579 -2.362,1.384 -0.215,0.463 -0.301,0.835 -0.316,1.412 h 5.101 C 51.48,24.474 50.845,23.09 49.129,23.09 z"
   id="path3115"
   inkscape:connector-curvature="0"
   style="fill:#ffffff" />
					<path
   d="m 29.359,23.265 c 0.966,0 1.367,0.459 1.367,1.239 v 9.165 h 3.315 v -9.195 c 0,-1.844 -0.993,-3.89 -3.904,-3.89 h -6.832 v 13.085 h 3.314 V 23.265 h 2.74 z"
   id="path3117"
   inkscape:connector-curvature="0"
   style="fill:#ffffff" />
				</g>
			</g>
			<g
   id="g3119">
				<path
   d="m 64.003,19.056 c -1.08,0 -1.944,-0.866 -1.944,-1.961 0,-1.066 0.864,-1.93 1.944,-1.93 1.082,0 1.96,0.864 1.96,1.93 0,1.095 -0.879,1.961 -1.96,1.961 z m 0,-3.574 c -0.894,0 -1.614,0.719 -1.614,1.612 0,0.925 0.72,1.645 1.614,1.645 0.894,0 1.643,-0.719 1.643,-1.645 0,-0.892 -0.75,-1.612 -1.643,-1.612 z m 0.865,2.794 h -0.36 c -0.043,0 -0.057,0 -0.073,-0.058 l -0.504,-0.834 c -0.014,0 -0.058,-0.028 -0.07,-0.028 0,0 -0.074,0 -0.144,0 -0.03,0 -0.06,0 -0.073,0 v 0.834 c 0,0.028 -0.028,0.085 -0.086,0.085 h -0.332 c -0.043,0 -0.086,-0.058 -0.086,-0.085 v -2.104 c 0,-0.144 0.043,-0.174 0.159,-0.201 0.114,-0.028 0.418,-0.028 0.59,-0.028 0.62,0 0.98,0.171 0.98,0.748 v 0.03 c 0,0.374 -0.187,0.547 -0.445,0.633 l 0.517,0.893 c 0,0 0.014,0.029 0.014,0.057 -0.001,0.032 -0.016,0.058 -0.087,0.058 z m -0.475,-1.671 c 0,-0.23 -0.144,-0.316 -0.462,-0.316 -0.042,0 -0.145,0 -0.214,0 -0.043,0 -0.073,0 -0.101,0 v 0.69 c 0.057,0 0.272,0 0.315,0 0.319,0 0.462,-0.115 0.462,-0.344 v -0.03 z"
   id="path3121"
   inkscape:connector-curvature="0"
   style="fill:#ffffff" />
			</g>
		</g>
		<path
   d="m 148.08,16.8 v 2.097 h -0.41 V 16.8 h -0.753 v -0.325 h 1.92 V 16.8 h -0.757 z m 3.509,2.097 v -2.015 h -0.017 l -0.791,2.015 h -0.252 l -0.796,-2.015 h -0.011 v 2.015 h -0.396 v -2.422 h 0.617 l 0.722,1.841 0.712,-1.841 h 0.611 v 2.422 h -0.399 z"
   id="path3123"
   inkscape:connector-curvature="0"
   style="fill:#ffffff" />
		<g
   id="g3125">
			<path
   d="m 84.086,31.344 c 0.709,0 1.178,-0.1 1.414,-0.275 0.236,-0.186 0.352,-0.43 0.352,-0.746 0,-0.267 -0.076,-0.488 -0.228,-0.663 -0.151,-0.181 -0.418,-0.385 -0.802,-0.618 l -3.167,-1.949 c -0.601,-0.369 -1.069,-0.826 -1.43,-1.38 -0.351,-0.551 -0.523,-1.153 -0.523,-1.809 0,-2.317 1.471,-3.477 4.407,-3.477 1.522,0 2.874,0.254 4.053,0.759 0.173,0.069 0.299,0.145 0.373,0.23 0.074,0.088 0.113,0.211 0.113,0.37 v 1.415 c 0,0.34 -0.163,0.463 -0.486,0.374 -1.353,-0.432 -2.595,-0.645 -3.724,-0.645 -0.591,0 -1.016,0.063 -1.282,0.191 -0.266,0.129 -0.395,0.352 -0.395,0.668 0,0.176 0.036,0.314 0.104,0.427 0.074,0.109 0.174,0.207 0.291,0.299 0.12,0.091 0.299,0.202 0.535,0.34 l 3.035,1.856 c 0.878,0.535 1.473,1.072 1.775,1.613 0.302,0.536 0.451,1.121 0.451,1.75 0,0.729 -0.166,1.383 -0.507,1.961 -0.339,0.566 -0.857,1.018 -1.549,1.335 -0.688,0.315 -1.514,0.471 -2.482,0.471 -1.534,0 -2.895,-0.251 -4.083,-0.753 -0.2,-0.104 -0.329,-0.194 -0.391,-0.282 -0.073,-0.083 -0.106,-0.198 -0.106,-0.323 v -1.412 c 0,-0.34 0.168,-0.468 0.497,-0.373 1.364,0.425 2.615,0.646 3.755,0.646 z"
   id="path3127"
   inkscape:connector-curvature="0"
   style="fill:#ffffff" />
			<path
   d="m 101.676,33.38 c 0,0.075 -0.032,0.146 -0.091,0.2 -0.058,0.047 -0.134,0.073 -0.225,0.073 h -2.829 c -0.113,0 -0.235,-0.044 -0.362,-0.144 -0.13,-0.092 -0.23,-0.207 -0.307,-0.315 l -3.644,-5.286 v 5.262 c 0,0.133 -0.045,0.258 -0.132,0.346 -0.087,0.098 -0.198,0.138 -0.336,0.138 h -2.125 c -0.135,0 -0.247,-0.046 -0.334,-0.149 -0.086,-0.096 -0.127,-0.217 -0.127,-0.334 V 16.475 c 0,-0.111 0.043,-0.218 0.132,-0.317 0.091,-0.097 0.203,-0.146 0.33,-0.146 h 2.125 c 0.13,0 0.238,0.046 0.331,0.135 0.091,0.091 0.137,0.201 0.137,0.329 v 9.666 l 3.96,-5.272 c 0.151,-0.188 0.331,-0.284 0.534,-0.284 h 2.602 c 0.227,0 0.337,0.083 0.337,0.249 0,0.077 -0.028,0.155 -0.088,0.238 l -4.652,5.725 4.696,6.398 c 0.043,0.068 0.068,0.13 0.068,0.184 z"
   id="path3129"
   inkscape:connector-curvature="0"
   style="fill:#ffffff" />
			<path
   d="m 113.632,28.067 c 0,1.1 -0.216,2.095 -0.641,2.979 -0.425,0.877 -1.053,1.561 -1.883,2.061 -0.83,0.488 -1.838,0.731 -3.023,0.731 -1.168,0 -2.173,-0.243 -3.012,-0.731 -0.837,-0.5 -1.468,-1.184 -1.889,-2.061 -0.423,-0.885 -0.634,-1.88 -0.634,-2.979 v -1.869 c 0,-1.102 0.211,-2.095 0.634,-2.976 0.421,-0.883 1.052,-1.57 1.889,-2.06 0.839,-0.491 1.844,-0.737 3.012,-0.737 1.185,0 2.193,0.246 3.023,0.737 0.831,0.49 1.458,1.177 1.883,2.06 0.425,0.88 0.641,1.874 0.641,2.976 v 1.869 z m -3.058,0 v -1.869 c 0,-0.964 -0.211,-1.73 -0.64,-2.29 -0.426,-0.563 -1.043,-0.846 -1.85,-0.846 -0.801,0 -1.416,0.282 -1.838,0.846 -0.429,0.56 -0.641,1.326 -0.641,2.29 v 1.869 c 0,0.968 0.214,1.731 0.646,2.294 0.426,0.558 1.039,0.841 1.833,0.841 0.8,0 1.413,-0.283 1.844,-0.841 0.433,-0.562 0.646,-1.326 0.646,-2.294 z"
   id="path3131"
   inkscape:connector-curvature="0"
   style="fill:#ffffff" />
			<path
   d="m 126.617,28.067 c 0,1.1 -0.215,2.095 -0.643,2.979 -0.425,0.877 -1.055,1.561 -1.881,2.061 -0.833,0.488 -1.839,0.731 -3.027,0.731 -1.167,0 -2.172,-0.243 -3.009,-0.731 -0.838,-0.5 -1.468,-1.184 -1.889,-2.061 -0.423,-0.885 -0.635,-1.88 -0.635,-2.979 v -1.869 c 0,-1.102 0.211,-2.095 0.635,-2.976 0.421,-0.883 1.051,-1.57 1.889,-2.06 0.837,-0.491 1.842,-0.737 3.009,-0.737 1.188,0 2.193,0.246 3.027,0.737 0.827,0.49 1.456,1.177 1.881,2.06 0.428,0.88 0.643,1.874 0.643,2.976 v 1.869 z m -3.058,0 v -1.869 c 0,-0.964 -0.213,-1.73 -0.64,-2.29 -0.428,-0.563 -1.044,-0.846 -1.853,-0.846 -0.797,0 -1.41,0.282 -1.838,0.846 -0.427,0.56 -0.64,1.326 -0.64,2.29 v 1.869 c 0,0.968 0.218,1.731 0.647,2.294 0.43,0.558 1.042,0.841 1.832,0.841 0.803,0 1.417,-0.283 1.848,-0.841 0.428,-0.562 0.644,-1.326 0.644,-2.294 z"
   id="path3133"
   inkscape:connector-curvature="0"
   style="fill:#ffffff" />
			<path
   d="m 139.599,28.067 c 0,1.1 -0.213,2.095 -0.64,2.979 -0.424,0.877 -1.054,1.561 -1.884,2.061 -0.83,0.488 -1.838,0.731 -3.024,0.731 -1.167,0 -2.172,-0.243 -3.009,-0.731 -0.839,-0.5 -1.469,-1.184 -1.892,-2.061 -0.422,-0.885 -0.634,-1.88 -0.634,-2.979 v -1.869 c 0,-1.102 0.212,-2.095 0.634,-2.976 0.423,-0.883 1.053,-1.57 1.892,-2.06 0.837,-0.491 1.842,-0.737 3.009,-0.737 1.186,0 2.194,0.246 3.024,0.737 0.83,0.49 1.46,1.177 1.884,2.06 0.426,0.88 0.64,1.874 0.64,2.976 v 1.869 z m -3.056,0 v -1.869 c 0,-0.964 -0.211,-1.73 -0.638,-2.29 -0.428,-0.563 -1.044,-0.846 -1.854,-0.846 -0.798,0 -1.411,0.282 -1.838,0.846 -0.429,0.56 -0.642,1.326 -0.642,2.29 v 1.869 c 0,0.968 0.216,1.731 0.649,2.294 0.428,0.558 1.039,0.841 1.831,0.841 0.801,0 1.416,-0.283 1.846,-0.841 0.432,-0.562 0.646,-1.326 0.646,-2.294 z"
   id="path3135"
   inkscape:connector-curvature="0"
   style="fill:#ffffff" />
			<path
   d="m 144.999,33.17 c 0,0.124 -0.039,0.248 -0.123,0.34 -0.083,0.1 -0.188,0.144 -0.318,0.144 h -2.151 c -0.135,0 -0.244,-0.046 -0.333,-0.149 -0.086,-0.096 -0.13,-0.217 -0.13,-0.334 V 16.475 c 0,-0.111 0.045,-0.218 0.135,-0.317 0.093,-0.097 0.202,-0.146 0.329,-0.146 h 2.151 c 0.12,0 0.223,0.048 0.313,0.141 0.085,0.096 0.128,0.205 0.128,0.323 V 33.17 z"
   id="path3137"
   inkscape:connector-curvature="0"
   style="fill:#ffffff" />
		</g>
	</g>
	<g
   id="g3139">
		<g
   id="g3141">
			<path
   d="m 171.54,32.131 c 0,0.342 -0.17,0.51 -0.51,0.51 h -6.269 c -0.342,0 -0.513,-0.168 -0.513,-0.51 V 18.784 c 0,-0.341 0.171,-0.511 0.513,-0.511 h 1.238 c 0.34,0 0.51,0.17 0.51,0.511 v 11.812 h 4.521 c 0.34,0 0.51,0.17 0.51,0.51 v 1.025 z"
   id="path3143"
   inkscape:connector-curvature="0"
   style="fill:#ffffff" />
			<path
   d="m 180.389,27.523 c 0,0.342 -0.164,0.513 -0.489,0.513 h -5.16 c 0.041,0.954 0.233,1.641 0.575,2.069 0.382,0.499 1.015,0.746 1.897,0.746 0.538,0 1.215,-0.129 2.025,-0.385 0.056,-0.014 0.114,-0.021 0.17,-0.021 0.185,0 0.319,0.113 0.407,0.341 l 0.297,0.854 c 0.102,0.269 0,0.469 -0.297,0.598 -0.81,0.354 -1.758,0.531 -2.837,0.531 -1.451,0 -2.568,-0.451 -3.349,-1.354 -0.781,-0.901 -1.17,-2.228 -1.17,-3.975 0,-1.58 0.361,-2.847 1.087,-3.807 0.726,-0.96 1.697,-1.439 2.919,-1.439 2.617,0 3.925,1.778 3.925,5.329 z m -2.217,-1.043 c -0.058,-1.706 -0.612,-2.56 -1.663,-2.56 -1.024,0 -1.614,0.854 -1.77,2.56 h 3.433 z"
   id="path3145"
   inkscape:connector-curvature="0"
   style="fill:#ffffff" />
			<path
   d="m 189.793,32.15 c 0.069,0.329 -0.075,0.49 -0.428,0.49 h -1.11 c -0.298,0 -0.474,-0.161 -0.531,-0.49 l -0.129,-0.788 c -0.611,0.937 -1.578,1.407 -2.901,1.407 -0.88,0 -1.563,-0.277 -2.045,-0.832 -0.484,-0.554 -0.726,-1.327 -0.726,-2.323 0,-2.047 1.108,-3.147 3.326,-3.306 l 2.131,-0.148 c 0,-0.299 -0.014,-0.455 -0.042,-0.47 -0.028,-0.583 -0.156,-0.993 -0.382,-1.236 -0.225,-0.241 -0.659,-0.362 -1.295,-0.362 -0.551,0 -1.239,0.121 -2.057,0.362 -0.34,0.1 -0.544,-0.008 -0.616,-0.319 l -0.213,-0.94 c -0.069,-0.299 0.036,-0.489 0.321,-0.575 0.966,-0.284 1.862,-0.426 2.685,-0.426 1.578,0 2.653,0.447 3.22,1.343 0.372,0.583 0.555,1.479 0.555,2.687 v 3.584 c 0,0.779 0.035,1.348 0.107,1.704 l 0.13,0.638 z m -2.412,-2.962 v -1.492 l -1.214,0.044 c -1.351,0.041 -2.026,0.667 -2.026,1.875 0,0.909 0.396,1.364 1.194,1.364 0.567,0 1.059,-0.206 1.472,-0.617 0.384,-0.372 0.574,-0.761 0.574,-1.174 z"
   id="path3147"
   inkscape:connector-curvature="0"
   style="fill:#ffffff" />
			<path
   d="m 198.147,23.068 -0.319,1.195 c -0.084,0.325 -0.295,0.46 -0.635,0.404 -0.127,-0.015 -0.335,-0.08 -0.625,-0.192 -0.291,-0.113 -0.512,-0.171 -0.667,-0.171 -0.381,0 -0.692,0.221 -0.932,0.661 -0.284,0.499 -0.424,1.224 -0.424,2.177 v 5.008 c 0,0.329 -0.172,0.49 -0.518,0.49 h -1.183 c -0.345,0 -0.519,-0.161 -0.519,-0.49 v -9.338 c 0,-0.325 0.174,-0.489 0.513,-0.489 h 0.788 c 0.314,0 0.508,0.142 0.576,0.425 l 0.237,0.918 c 0.625,-0.98 1.419,-1.472 2.387,-1.472 1.038,0 1.478,0.293 1.321,0.874 z"
   id="path3149"
   inkscape:connector-curvature="0"
   style="fill:#ffffff" />
			<path
   d="m 207.081,32.15 c 0,0.329 -0.174,0.49 -0.519,0.49 h -1.203 c -0.331,0 -0.498,-0.161 -0.498,-0.49 v -6.843 c 0,-0.837 -0.365,-1.258 -1.092,-1.258 -0.576,0 -1.059,0.227 -1.451,0.683 -0.393,0.454 -0.59,1.023 -0.59,1.706 v 5.713 c 0,0.329 -0.165,0.49 -0.497,0.49 h -1.202 c -0.344,0 -0.518,-0.161 -0.518,-0.49 v -9.338 c 0,-0.325 0.168,-0.489 0.51,-0.489 h 0.833 c 0.297,0 0.474,0.136 0.533,0.405 l 0.192,0.875 c 0.839,-0.939 1.795,-1.408 2.876,-1.408 0.797,0 1.432,0.245 1.908,0.737 0.476,0.489 0.715,1.132 0.715,1.928 v 7.289 z"
   id="path3151"
   inkscape:connector-curvature="0"
   style="fill:#ffffff" />
			<path
   d="m 212.56,18.825 c 0,0.398 -0.138,0.736 -0.405,1.013 -0.27,0.277 -0.606,0.417 -1.001,0.417 -0.4,0 -0.729,-0.139 -0.993,-0.417 -0.263,-0.277 -0.394,-0.615 -0.394,-1.013 0,-0.397 0.13,-0.735 0.394,-1.01 0.264,-0.278 0.593,-0.417 0.993,-0.417 0.395,0 0.731,0.139 1.001,0.417 0.267,0.275 0.405,0.613 0.405,1.01 z m -0.254,13.325 c 0,0.329 -0.174,0.49 -0.517,0.49 h -1.185 c -0.346,0 -0.517,-0.161 -0.517,-0.49 v -9.338 c 0,-0.325 0.171,-0.489 0.517,-0.489 h 1.185 c 0.343,0 0.517,0.164 0.517,0.489 v 9.338 z"
   id="path3153"
   inkscape:connector-curvature="0"
   style="fill:#ffffff" />
			<path
   d="m 222.859,32.15 c 0,0.329 -0.174,0.49 -0.518,0.49 h -1.207 c -0.331,0 -0.494,-0.161 -0.494,-0.49 v -6.843 c 0,-0.837 -0.365,-1.258 -1.094,-1.258 -0.575,0 -1.061,0.227 -1.454,0.683 -0.391,0.454 -0.586,1.023 -0.586,1.706 v 5.713 c 0,0.329 -0.166,0.49 -0.496,0.49 h -1.205 c -0.344,0 -0.517,-0.161 -0.517,-0.49 v -9.338 c 0,-0.325 0.172,-0.489 0.513,-0.489 h 0.829 c 0.301,0 0.479,0.136 0.534,0.405 l 0.191,0.875 c 0.84,-0.939 1.798,-1.408 2.88,-1.408 0.794,0 1.43,0.245 1.908,0.737 0.475,0.489 0.715,1.132 0.715,1.928 v 7.289 z"
   id="path3155"
   inkscape:connector-curvature="0"
   style="fill:#ffffff" />
			<path
   d="m 233.561,33.558 c 0,1.165 -0.477,2.054 -1.43,2.665 -0.781,0.498 -1.748,0.747 -2.898,0.747 -1.222,0 -2.203,-0.212 -2.941,-0.64 -0.91,-0.527 -1.373,-1.33 -1.388,-2.41 0,-0.143 0.052,-0.262 0.149,-0.362 0.098,-0.099 0.221,-0.149 0.363,-0.149 l 1.193,0.044 c 0.271,0.014 0.435,0.17 0.49,0.468 0.142,0.84 0.875,1.259 2.196,1.259 0.669,0 1.204,-0.127 1.609,-0.384 0.406,-0.256 0.608,-0.598 0.608,-1.023 0,-0.825 -0.505,-1.236 -1.514,-1.236 h -2.111 c -1.605,0 -2.409,-0.582 -2.409,-1.749 0,-0.569 0.306,-1.143 0.917,-1.726 -0.994,-0.699 -1.493,-1.72 -1.493,-3.071 0,-1.18 0.356,-2.103 1.068,-2.771 0.71,-0.668 1.662,-1.003 2.854,-1.003 0.158,0 0.377,0.02 0.662,0.053 0.284,0.037 0.496,0.055 0.641,0.055 h 2.471 c 0.355,0 0.534,0.17 0.534,0.512 v 0.596 c 0,0.313 -0.137,0.482 -0.404,0.51 l -0.663,0.086 c 0.469,0.695 0.706,1.35 0.706,1.961 0,1.167 -0.356,2.085 -1.058,2.761 -0.702,0.678 -1.66,1.015 -2.867,1.015 -0.428,0 -0.771,-0.036 -1.043,-0.106 -0.199,0.195 -0.299,0.389 -0.299,0.574 0,0.355 0.318,0.533 0.957,0.533 h 1.834 c 1.01,0 1.807,0.24 2.389,0.723 0.584,0.484 0.877,1.172 0.877,2.068 z m -2.965,-7.61 c 0,-1.394 -0.583,-2.092 -1.748,-2.092 -0.553,0 -0.959,0.122 -1.214,0.364 -0.343,0.327 -0.513,0.903 -0.513,1.728 0,0.851 0.17,1.44 0.513,1.769 0.255,0.256 0.661,0.385 1.214,0.385 1.165,0 1.748,-0.719 1.748,-2.154 z"
   id="path3157"
   inkscape:connector-curvature="0"
   style="fill:#ffffff" />
			<path
   d="m 246.607,32.15 c 0.071,0.329 -0.071,0.49 -0.428,0.49 h -1.107 c -0.297,0 -0.475,-0.161 -0.533,-0.49 l -0.129,-0.788 c -0.609,0.937 -1.574,1.407 -2.898,1.407 -0.881,0 -1.564,-0.277 -2.045,-0.832 -0.484,-0.554 -0.727,-1.327 -0.727,-2.323 0,-2.047 1.108,-3.147 3.327,-3.306 l 2.132,-0.148 c 0,-0.299 -0.014,-0.455 -0.044,-0.47 -0.028,-0.583 -0.153,-0.993 -0.382,-1.236 -0.228,-0.241 -0.657,-0.362 -1.293,-0.362 -0.552,0 -1.238,0.121 -2.061,0.362 -0.338,0.1 -0.545,-0.008 -0.615,-0.319 l -0.211,-0.94 c -0.072,-0.299 0.035,-0.489 0.319,-0.575 0.968,-0.284 1.863,-0.426 2.687,-0.426 1.579,0 2.651,0.447 3.22,1.343 0.366,0.583 0.554,1.479 0.554,2.687 v 3.584 c 0,0.779 0.036,1.348 0.105,1.704 l 0.129,0.638 z m -2.408,-2.962 v -1.492 l -1.215,0.044 c -1.352,0.041 -2.027,0.667 -2.027,1.875 0,0.909 0.397,1.364 1.194,1.364 0.568,0 1.06,-0.206 1.472,-0.617 0.384,-0.372 0.576,-0.761 0.576,-1.174 z"
   id="path3159"
   inkscape:connector-curvature="0"
   style="fill:#ffffff" />
			<path
   d="m 256.712,32.15 c 0,0.329 -0.172,0.49 -0.517,0.49 h -1.205 c -0.328,0 -0.496,-0.161 -0.496,-0.49 v -6.843 c 0,-0.837 -0.364,-1.258 -1.093,-1.258 -0.575,0 -1.06,0.227 -1.451,0.683 -0.394,0.454 -0.59,1.023 -0.59,1.706 v 5.713 c 0,0.329 -0.165,0.49 -0.495,0.49 h -1.205 c -0.343,0 -0.517,-0.161 -0.517,-0.49 v -9.338 c 0,-0.325 0.17,-0.489 0.513,-0.489 h 0.83 c 0.299,0 0.476,0.136 0.533,0.405 l 0.191,0.875 c 0.84,-0.939 1.799,-1.408 2.879,-1.408 0.798,0 1.433,0.245 1.908,0.737 0.477,0.489 0.714,1.132 0.714,1.928 v 7.289 z"
   id="path3161"
   inkscape:connector-curvature="0"
   style="fill:#ffffff" />
			<path
   d="m 266.883,32.15 c 0,0.329 -0.17,0.49 -0.513,0.49 h -0.745 c -0.356,0 -0.568,-0.161 -0.641,-0.49 l -0.17,-0.852 c -0.525,0.98 -1.344,1.471 -2.45,1.471 -2.29,0 -3.435,-1.775 -3.435,-5.329 0,-1.906 0.385,-3.305 1.151,-4.201 0.599,-0.697 1.35,-1.045 2.26,-1.045 1.022,0 1.813,0.435 2.366,1.3 v -5.479 c 0,-0.327 0.164,-0.49 0.49,-0.49 h 1.173 c 0.343,0 0.513,0.163 0.513,0.49 V 32.15 z m -2.111,-4.627 c 0,-2.315 -0.583,-3.474 -1.748,-3.474 -0.583,0 -1.018,0.242 -1.302,0.726 -0.313,0.539 -0.467,1.45 -0.467,2.729 0,1.221 0.142,2.086 0.424,2.591 0.286,0.502 0.734,0.757 1.345,0.757 1.165,0 1.748,-1.11 1.748,-3.329 z"
   id="path3163"
   inkscape:connector-curvature="0"
   style="fill:#ffffff" />
			<path
   d="m 282.105,19.829 c 0,0.325 -0.164,0.49 -0.49,0.49 h -3.027 v 11.812 c 0,0.342 -0.171,0.51 -0.514,0.51 h -1.235 c -0.341,0 -0.511,-0.168 -0.511,-0.51 V 20.319 h -3.029 c -0.354,0 -0.531,-0.165 -0.531,-0.49 v -1.045 c 0,-0.341 0.177,-0.511 0.531,-0.511 h 8.316 c 0.326,0 0.49,0.17 0.49,0.511 v 1.045 z"
   id="path3165"
   inkscape:connector-curvature="0"
   style="fill:#ffffff" />
			<path
   d="m 290.803,27.523 c 0,0.342 -0.164,0.513 -0.49,0.513 h -5.16 c 0.045,0.954 0.236,1.641 0.576,2.069 0.385,0.499 1.016,0.746 1.898,0.746 0.541,0 1.215,-0.129 2.025,-0.385 0.057,-0.014 0.114,-0.021 0.171,-0.021 0.183,0 0.319,0.113 0.404,0.341 l 0.299,0.854 c 0.099,0.269 0,0.469 -0.299,0.598 -0.81,0.354 -1.755,0.531 -2.837,0.531 -1.447,0 -2.564,-0.451 -3.346,-1.354 -0.781,-0.901 -1.172,-2.228 -1.172,-3.975 0,-1.58 0.362,-2.847 1.086,-3.807 0.726,-0.959 1.7,-1.439 2.923,-1.439 2.613,0 3.922,1.778 3.922,5.329 z m -2.216,-1.043 c -0.058,-1.706 -0.613,-2.56 -1.665,-2.56 -1.021,0 -1.614,0.854 -1.77,2.56 h 3.435 z"
   id="path3167"
   inkscape:connector-curvature="0"
   style="fill:#ffffff" />
			<path
   d="m 300.206,32.15 c 0.068,0.329 -0.073,0.49 -0.428,0.49 h -1.108 c -0.299,0 -0.477,-0.161 -0.533,-0.49 l -0.128,-0.788 c -0.61,0.937 -1.577,1.407 -2.899,1.407 -0.883,0 -1.563,-0.277 -2.045,-0.832 -0.486,-0.554 -0.726,-1.327 -0.726,-2.323 0,-2.047 1.105,-3.147 3.323,-3.306 l 2.134,-0.148 c 0,-0.299 -0.015,-0.455 -0.045,-0.47 -0.026,-0.583 -0.153,-0.993 -0.381,-1.236 -0.226,-0.241 -0.658,-0.362 -1.294,-0.362 -0.551,0 -1.237,0.121 -2.059,0.362 -0.34,0.1 -0.545,-0.008 -0.615,-0.319 l -0.213,-0.94 c -0.07,-0.299 0.038,-0.489 0.322,-0.575 0.965,-0.284 1.859,-0.426 2.686,-0.426 1.577,0 2.65,0.447 3.219,1.343 0.369,0.583 0.553,1.479 0.553,2.687 v 3.584 c 0,0.779 0.037,1.348 0.107,1.704 l 0.13,0.638 z m -2.41,-2.962 v -1.492 l -1.216,0.044 c -1.352,0.041 -2.025,0.667 -2.025,1.875 0,0.909 0.396,1.364 1.195,1.364 0.567,0 1.059,-0.206 1.471,-0.617 0.382,-0.372 0.575,-0.761 0.575,-1.174 z"
   id="path3169"
   inkscape:connector-curvature="0"
   style="fill:#ffffff" />
			<path
   d="m 308.796,31.874 c 0.057,0.3 -0.056,0.498 -0.342,0.599 -0.583,0.196 -1.278,0.297 -2.089,0.297 -1.352,0 -2.402,-0.447 -3.155,-1.344 -0.796,-0.938 -1.192,-2.286 -1.192,-4.05 0,-1.507 0.398,-2.747 1.204,-3.719 0.804,-0.975 1.878,-1.462 3.229,-1.462 0.44,0 0.895,0.065 1.363,0.192 0.683,0.172 0.969,0.426 0.854,0.768 l -0.299,0.895 c -0.071,0.227 -0.198,0.343 -0.386,0.343 -0.142,0 -0.371,-0.052 -0.69,-0.149 -0.32,-0.103 -0.581,-0.15 -0.779,-0.15 -0.683,0 -1.22,0.284 -1.609,0.856 -0.392,0.568 -0.587,1.383 -0.587,2.436 0,2.282 0.773,3.424 2.325,3.424 0.452,0 0.923,-0.072 1.405,-0.213 0.329,-0.086 0.52,0.028 0.577,0.34 l 0.171,0.937 z"
   id="path3171"
   inkscape:connector-curvature="0"
   style="fill:#ffffff" />
			<path
   d="m 318.369,32.15 c 0,0.329 -0.173,0.49 -0.512,0.49 h -1.172 c -0.329,0 -0.492,-0.161 -0.492,-0.49 v -6.843 c 0,-0.837 -0.384,-1.258 -1.15,-1.258 -0.584,0 -1.074,0.227 -1.473,0.683 -0.398,0.454 -0.596,1.023 -0.596,1.706 v 5.713 c 0,0.329 -0.173,0.49 -0.513,0.49 h -1.151 c -0.338,0 -0.512,-0.161 -0.512,-0.49 V 18.015 c 0,-0.327 0.174,-0.49 0.512,-0.49 h 1.151 c 0.34,0 0.513,0.163 0.513,0.49 v 5.479 c 0.781,-0.866 1.707,-1.3 2.772,-1.3 0.796,0 1.431,0.245 1.908,0.737 0.474,0.489 0.714,1.132 0.714,1.928 v 7.291 z"
   id="path3173"
   inkscape:connector-curvature="0"
   style="fill:#ffffff" />
			<path
   d="m 323.849,18.825 c 0,0.398 -0.135,0.736 -0.405,1.013 -0.27,0.277 -0.604,0.417 -1.002,0.417 -0.396,0 -0.729,-0.139 -0.991,-0.417 -0.262,-0.278 -0.394,-0.615 -0.394,-1.013 0,-0.397 0.131,-0.735 0.394,-1.01 0.263,-0.278 0.595,-0.417 0.991,-0.417 0.398,0 0.732,0.139 1.002,0.417 0.27,0.275 0.405,0.613 0.405,1.01 z m -0.256,13.325 c 0,0.329 -0.172,0.49 -0.516,0.49 h -1.187 c -0.344,0 -0.516,-0.161 -0.516,-0.49 v -9.338 c 0,-0.325 0.172,-0.489 0.516,-0.489 h 1.187 c 0.344,0 0.516,0.164 0.516,0.489 v 9.338 z"
   id="path3175"
   inkscape:connector-curvature="0"
   style="fill:#ffffff" />
			<path
   d="m 334.145,32.15 c 0,0.329 -0.17,0.49 -0.516,0.49 h -1.207 c -0.329,0 -0.494,-0.161 -0.494,-0.49 v -6.843 c 0,-0.837 -0.363,-1.258 -1.093,-1.258 -0.576,0 -1.061,0.227 -1.452,0.683 -0.393,0.454 -0.588,1.023 -0.588,1.706 v 5.713 c 0,0.329 -0.168,0.49 -0.495,0.49 h -1.207 c -0.343,0 -0.517,-0.161 -0.517,-0.49 v -9.338 c 0,-0.325 0.172,-0.489 0.511,-0.489 h 0.833 c 0.299,0 0.476,0.136 0.533,0.405 l 0.193,0.875 c 0.838,-0.939 1.797,-1.408 2.877,-1.408 0.795,0 1.432,0.245 1.905,0.737 0.479,0.489 0.716,1.132 0.716,1.928 v 7.289 z"
   id="path3177"
   inkscape:connector-curvature="0"
   style="fill:#ffffff" />
			<path
   d="m 344.85,33.558 c 0,1.165 -0.478,2.054 -1.43,2.665 -0.781,0.498 -1.748,0.747 -2.9,0.747 -1.224,0 -2.203,-0.212 -2.941,-0.64 -0.91,-0.527 -1.371,-1.33 -1.385,-2.41 0,-0.143 0.049,-0.262 0.148,-0.362 0.1,-0.099 0.22,-0.149 0.363,-0.149 l 1.193,0.044 c 0.27,0.014 0.432,0.17 0.488,0.468 0.144,0.84 0.875,1.259 2.197,1.259 0.667,0 1.204,-0.127 1.609,-0.384 0.405,-0.256 0.609,-0.598 0.609,-1.023 0,-0.825 -0.508,-1.236 -1.516,-1.236 h -2.109 c -1.607,0 -2.411,-0.582 -2.411,-1.749 0,-0.569 0.306,-1.143 0.919,-1.726 -0.996,-0.699 -1.492,-1.72 -1.492,-3.071 0,-1.18 0.354,-2.103 1.065,-2.771 0.711,-0.668 1.663,-1.003 2.857,-1.003 0.155,0 0.376,0.02 0.661,0.053 0.281,0.037 0.496,0.055 0.637,0.055 h 2.475 c 0.354,0 0.535,0.17 0.535,0.512 v 0.596 c 0,0.313 -0.138,0.482 -0.408,0.51 l -0.662,0.086 c 0.472,0.695 0.706,1.35 0.706,1.961 0,1.167 -0.352,2.085 -1.056,2.761 -0.703,0.678 -1.66,1.015 -2.868,1.015 -0.426,0 -0.774,-0.036 -1.044,-0.106 -0.2,0.195 -0.298,0.389 -0.298,0.574 0,0.355 0.319,0.533 0.958,0.533 h 1.834 c 1.01,0 1.807,0.24 2.389,0.723 0.584,0.484 0.877,1.172 0.877,2.068 z m -2.965,-7.61 c 0,-1.394 -0.583,-2.092 -1.749,-2.092 -0.556,0 -0.958,0.122 -1.214,0.364 -0.341,0.327 -0.511,0.903 -0.511,1.728 0,0.851 0.17,1.44 0.511,1.769 0.256,0.256 0.658,0.385 1.214,0.385 1.166,0 1.749,-0.719 1.749,-2.154 z"
   id="path3179"
   inkscape:connector-curvature="0"
   style="fill:#ffffff" />
			<path
   d="m 360.667,31.98 c 0.043,0.129 0.064,0.234 0.064,0.318 0,0.23 -0.144,0.342 -0.429,0.342 h -1.555 c -0.326,0 -0.539,-0.148 -0.639,-0.446 -0.227,-0.726 -0.455,-1.458 -0.683,-2.196 -0.269,-0.811 -0.526,-1.447 -0.768,-1.921 -0.627,-1.192 -1.428,-1.789 -2.409,-1.789 h -0.874 v 5.862 c 0,0.329 -0.171,0.49 -0.513,0.49 h -1.235 c -0.343,0 -0.512,-0.161 -0.512,-0.49 V 18.784 c 0,-0.341 0.169,-0.511 0.512,-0.511 h 3.754 c 1.604,0 2.776,0.426 3.516,1.278 0.556,0.641 0.833,1.427 0.833,2.366 0,0.896 -0.242,1.651 -0.727,2.262 -0.523,0.667 -1.271,1.079 -2.238,1.234 -0.043,0.017 -0.1,0.023 -0.172,0.023 0.967,0.199 1.729,0.883 2.282,2.046 0.415,0.867 1.011,2.367 1.793,4.498 z m -3.24,-9.773 c 0,-0.559 -0.17,-1.017 -0.512,-1.374 -0.384,-0.399 -0.919,-0.602 -1.599,-0.602 h -1.94 v 4.223 h 1.705 c 0.726,0 1.296,-0.203 1.717,-0.612 0.418,-0.405 0.629,-0.952 0.629,-1.635 z"
   id="path3181"
   inkscape:connector-curvature="0"
   style="fill:#ffffff" />
			<path
   d="m 369.878,27.523 c 0,0.342 -0.163,0.513 -0.491,0.513 h -5.159 c 0.043,0.954 0.234,1.641 0.577,2.069 0.383,0.499 1.016,0.746 1.896,0.746 0.539,0 1.215,-0.129 2.023,-0.385 0.059,-0.014 0.114,-0.021 0.172,-0.021 0.186,0 0.322,0.113 0.404,0.341 l 0.301,0.854 c 0.098,0.269 0,0.469 -0.301,0.598 -0.808,0.354 -1.754,0.531 -2.834,0.531 -1.45,0 -2.564,-0.451 -3.348,-1.354 -0.78,-0.901 -1.176,-2.228 -1.176,-3.975 0,-1.58 0.364,-2.847 1.09,-3.807 0.725,-0.959 1.7,-1.439 2.922,-1.439 2.615,0 3.924,1.778 3.924,5.329 z M 367.66,26.48 c -0.058,-1.706 -0.612,-2.56 -1.664,-2.56 -1.021,0 -1.611,0.854 -1.769,2.56 h 3.433 z"
   id="path3183"
   inkscape:connector-curvature="0"
   style="fill:#ffffff" />
			<path
   d="m 378.152,29.699 c 0,0.867 -0.286,1.578 -0.854,2.133 -0.627,0.625 -1.492,0.938 -2.602,0.938 -1.11,0 -2.112,-0.207 -3.007,-0.619 -0.285,-0.125 -0.377,-0.34 -0.275,-0.638 l 0.275,-0.896 c 0.086,-0.255 0.227,-0.384 0.427,-0.384 0.071,0 0.136,0.017 0.194,0.043 0.935,0.396 1.717,0.598 2.342,0.598 0.854,0 1.28,-0.363 1.28,-1.089 0,-0.469 -0.364,-0.923 -1.089,-1.364 -1.348,-0.809 -2.031,-1.221 -2.045,-1.238 -0.725,-0.581 -1.088,-1.276 -1.088,-2.087 0,-0.868 0.292,-1.566 0.873,-2.1 0.583,-0.534 1.395,-0.8 2.432,-0.8 0.896,0 1.691,0.15 2.386,0.447 0.315,0.129 0.415,0.343 0.301,0.642 l -0.276,0.724 c -0.113,0.313 -0.306,0.419 -0.571,0.32 -0.722,-0.27 -1.302,-0.406 -1.737,-0.406 -0.792,0 -1.189,0.342 -1.189,1.024 0,0.383 0.367,0.796 1.104,1.235 1.131,0.669 1.803,1.097 2.016,1.279 0.734,0.627 1.103,1.373 1.103,2.238 z"
   id="path3185"
   inkscape:connector-curvature="0"
   style="fill:#ffffff" />
			<path
   d="m 387.976,27.46 c 0,1.649 -0.365,2.947 -1.097,3.892 -0.734,0.944 -1.758,1.418 -3.08,1.418 -1.324,0 -2.357,-0.471 -3.104,-1.407 -0.746,-0.938 -1.117,-2.239 -1.117,-3.902 0,-1.634 0.371,-2.919 1.117,-3.857 0.746,-0.939 1.779,-1.408 3.104,-1.408 1.307,0 2.33,0.469 3.068,1.408 0.738,0.937 1.109,2.222 1.109,3.856 z m -2.259,0 c 0,-2.288 -0.658,-3.432 -1.973,-3.432 -1.299,0 -1.949,1.144 -1.949,3.432 0,2.29 0.65,3.433 1.949,3.433 1.315,0 1.973,-1.143 1.973,-3.433 z"
   id="path3187"
   inkscape:connector-curvature="0"
   style="fill:#ffffff" />
			<path
   d="m 397.74,32.15 c 0,0.329 -0.162,0.49 -0.489,0.49 h -0.853 c -0.271,0 -0.441,-0.142 -0.513,-0.426 l -0.213,-0.896 c -0.91,0.967 -1.92,1.451 -3.028,1.451 -0.796,0 -1.431,-0.237 -1.905,-0.713 -0.478,-0.477 -0.716,-1.134 -0.716,-1.975 v -7.27 c 0,-0.325 0.17,-0.489 0.513,-0.489 h 1.193 c 0.342,0 0.512,0.164 0.512,0.489 v 6.887 c 0,0.811 0.38,1.217 1.144,1.217 0.634,0 1.149,-0.248 1.545,-0.736 0.396,-0.492 0.593,-1.17 0.593,-2.036 v -5.332 c 0,-0.325 0.173,-0.489 0.518,-0.489 h 1.206 c 0.33,0 0.494,0.164 0.494,0.489 v 9.339 z"
   id="path3189"
   inkscape:connector-curvature="0"
   style="fill:#ffffff" />
			<path
   d="m 406.332,23.068 -0.316,1.195 c -0.086,0.325 -0.297,0.46 -0.635,0.404 -0.129,-0.015 -0.337,-0.08 -0.627,-0.192 -0.291,-0.113 -0.512,-0.171 -0.668,-0.171 -0.383,0 -0.692,0.221 -0.932,0.661 -0.283,0.499 -0.426,1.224 -0.426,2.177 v 5.008 c 0,0.329 -0.174,0.49 -0.515,0.49 h -1.187 c -0.342,0 -0.514,-0.161 -0.514,-0.49 v -9.338 c 0,-0.325 0.17,-0.489 0.509,-0.489 h 0.79 c 0.312,0 0.506,0.142 0.576,0.425 l 0.234,0.918 c 0.624,-0.98 1.421,-1.472 2.388,-1.472 1.04,0 1.479,0.293 1.323,0.874 z"
   id="path3191"
   inkscape:connector-curvature="0"
   style="fill:#ffffff" />
			<path
   d="m 413.752,31.874 c 0.057,0.3 -0.056,0.498 -0.342,0.599 -0.582,0.196 -1.279,0.297 -2.088,0.297 -1.353,0 -2.404,-0.447 -3.156,-1.344 -0.795,-0.938 -1.193,-2.286 -1.193,-4.05 0,-1.507 0.4,-2.747 1.203,-3.719 0.803,-0.975 1.881,-1.462 3.23,-1.462 0.442,0 0.895,0.065 1.365,0.192 0.682,0.172 0.965,0.426 0.854,0.768 l -0.299,0.895 c -0.072,0.227 -0.2,0.343 -0.385,0.343 -0.143,0 -0.374,-0.052 -0.692,-0.149 -0.319,-0.103 -0.58,-0.15 -0.778,-0.15 -0.682,0 -1.221,0.284 -1.609,0.856 -0.392,0.568 -0.586,1.383 -0.586,2.436 0,2.282 0.772,3.424 2.323,3.424 0.452,0 0.925,-0.072 1.407,-0.213 0.328,-0.086 0.519,0.028 0.577,0.34 l 0.169,0.937 z"
   id="path3193"
   inkscape:connector-curvature="0"
   style="fill:#ffffff" />
			<path
   d="m 423.027,27.523 c 0,0.342 -0.167,0.513 -0.491,0.513 h -5.161 c 0.045,0.954 0.235,1.641 0.576,2.069 0.384,0.499 1.018,0.746 1.898,0.746 0.54,0 1.215,-0.129 2.025,-0.385 0.057,-0.014 0.111,-0.021 0.172,-0.021 0.182,0 0.318,0.113 0.404,0.341 l 0.297,0.854 c 0.102,0.269 0,0.469 -0.297,0.598 -0.812,0.354 -1.757,0.531 -2.837,0.531 -1.45,0 -2.563,-0.451 -3.348,-1.354 -0.781,-0.901 -1.173,-2.228 -1.173,-3.975 0,-1.58 0.361,-2.847 1.088,-3.807 0.727,-0.96 1.699,-1.439 2.922,-1.439 2.615,0 3.925,1.778 3.925,5.329 z m -2.218,-1.043 c -0.056,-1.706 -0.612,-2.56 -1.664,-2.56 -1.022,0 -1.612,0.854 -1.77,2.56 h 3.434 z"
   id="path3195"
   inkscape:connector-curvature="0"
   style="fill:#ffffff" />
			<path
   d="m 431.299,29.699 c 0,0.867 -0.285,1.578 -0.854,2.133 -0.627,0.625 -1.492,0.938 -2.6,0.938 -1.109,0 -2.112,-0.207 -3.007,-0.619 -0.285,-0.125 -0.378,-0.34 -0.276,-0.638 l 0.276,-0.896 c 0.085,-0.255 0.228,-0.384 0.425,-0.384 0.074,0 0.137,0.017 0.193,0.043 0.938,0.396 1.719,0.598 2.345,0.598 0.853,0 1.281,-0.363 1.281,-1.089 0,-0.469 -0.364,-0.923 -1.089,-1.364 -1.351,-0.809 -2.035,-1.221 -2.047,-1.238 -0.727,-0.581 -1.086,-1.276 -1.086,-2.087 0,-0.868 0.289,-1.566 0.872,-2.1 0.582,-0.534 1.394,-0.8 2.431,-0.8 0.895,0 1.691,0.15 2.387,0.447 0.314,0.129 0.413,0.343 0.3,0.642 l -0.276,0.724 c -0.113,0.313 -0.305,0.419 -0.57,0.32 -0.723,-0.27 -1.303,-0.406 -1.739,-0.406 -0.791,0 -1.188,0.342 -1.188,1.024 0,0.383 0.367,0.796 1.102,1.235 1.132,0.669 1.805,1.097 2.017,1.279 0.736,0.627 1.103,1.373 1.103,2.238 z"
   id="path3197"
   inkscape:connector-curvature="0"
   style="fill:#ffffff" />
		</g>
	</g>
</g>


<g
   transform="translate(-13.104839,-187.92337)"
   id="g6"><polyline
     style="fill:none;stroke:#000000;stroke-width:3;stroke-miterlimit:10"
     stroke-miterlimit="10"
     points="89.63,278.956 89.63,408.955    136.63,408.955 136.63,277.956  "
     id="polyline8" /><polyline
     style="fill:none;stroke:#000000;stroke-width:2;stroke-miterlimit:10"
     stroke-miterlimit="10"
     points="71.63,234.956 105.63,302.956    105.63,327.956  "
     id="polyline10" /><polyline
     style="fill:none;stroke:#000000;stroke-width:2;stroke-miterlimit:10"
     stroke-miterlimit="10"
     points="154.13,234.956 120.13,302.956    120.13,327.956  "
     id="polyline12" /><line
     style="fill:none;stroke:#000000;stroke-width:2;stroke-miterlimit:10"
     stroke-miterlimit="10"
     x1="80.879997"
     y1="252.95599"
     x2="145.13"
     y2="252.95599"
     id="line14" /><path
     style="fill:#070404"
     inkscape:connector-curvature="0"
     d="m 99.63,289.456 c 2.297,-1.66 2.823,-6.007 6.244,-5.763 1.2,0.085 2.326,1.411 3.243,1.539 1.657,0.23 3.229,-0.995 4.762,-1.281 2.383,-0.444 5.705,0.553 7.75,1.498 1.029,0.475 1.614,1.211 2.569,1.694 1.15,0.581 2.549,0.62 3.466,1.563 -1.851,1.353 -3.132,4.138 -4.202,6.05 -1.086,1.94 -1.588,6.451 -3.265,7.773 -1.326,1.046 -6.384,1.521 -8.069,1.677 -2.067,0.188 -5.688,0.82 -7.456,-0.293 -0.17,-2.93 -0.907,-5.073 -1.781,-7.719 -0.647,-1.963 -3.235,-4.698 -3.013,-6.737"
     id="path16" /><path
     style="fill:none;stroke:#000000;stroke-miterlimit:10"
     inkscape:connector-curvature="0"
     stroke-miterlimit="10"
     d="m 83.88,258.206 c 1.563,-0.156 2.943,-1.011 4.5,-1"
     id="path18" /><path
     style="fill:none;stroke:#000000;stroke-miterlimit:10"
     inkscape:connector-curvature="0"
     stroke-miterlimit="10"
     d="m 92.38,258.706 c 0.348,-0.946 4.094,-0.5 5.5,-0.5"
     id="path20" /><path
     style="fill:none;stroke:#000000;stroke-miterlimit:10"
     inkscape:connector-curvature="0"
     stroke-miterlimit="10"
     d="m 106.63,257.956 c 2.272,-0.008 4.587,-0.015 6.75,-0.5"
     id="path22" /><path
     style="fill:none;stroke:#000000;stroke-miterlimit:10"
     inkscape:connector-curvature="0"
     stroke-miterlimit="10"
     d="m 136.13,257.956 c -1.307,0.487 -3.055,0.25 -4.5,0.25"
     id="path24" /><path
     style="fill:none;stroke:#000000;stroke-miterlimit:10"
     inkscape:connector-curvature="0"
     stroke-miterlimit="10"
     d="m 128.38,265.456 c 1.62,-0.011 3.16,-0.215 4.75,-0.25"
     id="path26" /><path
     style="fill:none;stroke:#000000;stroke-miterlimit:10"
     inkscape:connector-curvature="0"
     stroke-miterlimit="10"
     d="m 115.38,264.456 c 2.25,-0.676 5.396,-0.309 7.25,-0.25"
     id="path28" /><path
     style="fill:none;stroke:#000000;stroke-miterlimit:10"
     inkscape:connector-curvature="0"
     stroke-miterlimit="10"
     d="m 97.63,264.206 c 5.5,-0.544 9.315,-0.75 13,-0.75"
     id="path30" /><path
     style="fill:none;stroke:#000000;stroke-miterlimit:10"
     inkscape:connector-curvature="0"
     stroke-miterlimit="10"
     d="m 104.38,267.618 c 5.5,-0.544 9.315,-0.75 13,-0.75"
     id="path32" /><path
     style="fill:none;stroke:#000000;stroke-miterlimit:10"
     inkscape:connector-curvature="0"
     stroke-miterlimit="10"
     d="m 87.63,264.706 c 1.209,-0.377 2.485,-0.242 3.75,-0.25"
     id="path34" /><path
     style="fill:none;stroke:#000000;stroke-miterlimit:10"
     inkscape:connector-curvature="0"
     stroke-miterlimit="10"
     d="m 89.239,270.779 c 5.125,0.377 10.136,0.296 15.282,0.121"
     id="path36" /><path
     style="fill:none;stroke:#000000;stroke-miterlimit:10"
     inkscape:connector-curvature="0"
     stroke-miterlimit="10"
     d="m 106.006,270.913 c 2.395,0.176 4.753,-0.099 7.179,-0.475"
     id="path38" /><path
     style="fill:none;stroke:#000000;stroke-miterlimit:10"
     inkscape:connector-curvature="0"
     stroke-miterlimit="10"
     d="m 113.291,270.989 c 7.238,0.532 14.3,0.603 21.55,0.582"
     id="path40" /><path
     style="fill:none;stroke:#000000;stroke-miterlimit:10"
     inkscape:connector-curvature="0"
     stroke-miterlimit="10"
     d="m 119.13,257.706 c 2.656,-0.306 6.134,0.5 9,0.5"
     id="path42" /><path
     style="fill:none;stroke:#000000;stroke-width:2;stroke-miterlimit:10"
     inkscape:connector-curvature="0"
     stroke-miterlimit="10"
     d="m 97.13,276.456 c 0.25,-0.469 0.708,-0.625 1.25,-0.5"
     id="path44" /><path
     style="fill:none;stroke:#000000;stroke-width:2;stroke-miterlimit:10"
     inkscape:connector-curvature="0"
     stroke-miterlimit="10"
     d="m 113.88,280.956 c 0.617,0.002 1.179,-0.079 1.75,-0.25"
     id="path46" /><path
     style="fill:none;stroke:#000000;stroke-width:2;stroke-miterlimit:10"
     inkscape:connector-curvature="0"
     stroke-miterlimit="10"
     d="m 108.88,279.956 c 0.663,0.146 1.314,0.229 2,0.25"
     id="path48" /><path
     style="fill:none;stroke:#000000;stroke-width:2;stroke-miterlimit:10"
     inkscape:connector-curvature="0"
     stroke-miterlimit="10"
     d="m 103.13,280.206 c 0.436,0.047 0.878,0.229 1.25,0.5"
     id="path50" /><path
     style="fill:none;stroke:#000000;stroke-width:2;stroke-miterlimit:10"
     inkscape:connector-curvature="0"
     stroke-miterlimit="10"
     d="m 99.13,281.206 c 0.52,0.033 1.009,0.115 1.5,0.25"
     id="path52" /><path
     style="fill:none;stroke:#000000;stroke-width:2;stroke-miterlimit:10"
     inkscape:connector-curvature="0"
     stroke-miterlimit="10"
     d="m 105.38,275.956 c 0.741,-0.275 1.646,-0.362 2.5,-0.25"
     id="path54" /><path
     style="fill:none;stroke:#000000;stroke-width:2;stroke-miterlimit:10"
     inkscape:connector-curvature="0"
     stroke-miterlimit="10"
     d="m 116.88,273.456 c 0.749,-0.097 1.34,0.14 1.5,0.75"
     id="path56" /><path
     style="fill:none;stroke:#000000;stroke-width:2;stroke-miterlimit:10"
     inkscape:connector-curvature="0"
     stroke-miterlimit="10"
     d="m 121.13,275.956 c 0.417,0 0.833,0 1.25,0"
     id="path58" /><path
     style="fill:none;stroke:#000000;stroke-width:2;stroke-miterlimit:10"
     inkscape:connector-curvature="0"
     stroke-miterlimit="10"
     d="m 125.38,277.456 c 0.57,-0.255 1.648,-0.365 2.5,-0.25"
     id="path60" /><path
     style="fill:none;stroke:#000000;stroke-width:2;stroke-miterlimit:10"
     inkscape:connector-curvature="0"
     stroke-miterlimit="10"
     d="m 127.38,273.206 c 0.611,0.118 1.209,0.29 1.75,0.5"
     id="path62" /><path
     style="fill:none;stroke:#000000;stroke-width:2;stroke-miterlimit:10"
     inkscape:connector-curvature="0"
     stroke-miterlimit="10"
     d="m 125.38,280.706 c 0.153,0.76 1.236,1.054 2,1.5"
     id="path64" /><path
     style="fill:none;stroke:#000000;stroke-width:2;stroke-miterlimit:10"
     inkscape:connector-curvature="0"
     stroke-miterlimit="10"
     d="m 112.88,277.206 c 0.785,-0.042 1.525,0.041 2.25,0.25"
     id="path66" /><path
     style="fill:none;stroke:#000000;stroke-width:2;stroke-miterlimit:10"
     inkscape:connector-curvature="0"
     stroke-miterlimit="10"
     d="m 100.38,276.706 c 0.678,0.163 1.261,0.237 2,0.25"
     id="path68" /><path
     style="fill:none;stroke:#000000;stroke-width:2;stroke-miterlimit:10"
     inkscape:connector-curvature="0"
     stroke-miterlimit="10"
     d="m 117.88,279.206 c 0.716,0.258 1.475,0.341 2.25,0.25"
     id="path70" /><path
     style="fill:none;stroke:#000000;stroke-width:2;stroke-miterlimit:10"
     inkscape:connector-curvature="0"
     stroke-miterlimit="10"
     d="m 109.13,274.206 c 0.867,-0.057 1.696,0.027 2.5,0.25"
     id="path72" /><path
     style="fill:none;stroke:#000000;stroke-width:2;stroke-miterlimit:10"
     inkscape:connector-curvature="0"
     stroke-miterlimit="10"
     d="m 94.38,273.956 c 0.609,-0.096 1.203,-0.014 1.75,0.25"
     id="path74" /><path
     style="fill:none;stroke:#000000;stroke-width:2;stroke-miterlimit:10"
     inkscape:connector-curvature="0"
     stroke-miterlimit="10"
     d="m 122.38,282.456 c 0.84,0.339 1.782,0.899 2.75,1"
     id="path76" /><path
     style="fill:none;stroke:#000000;stroke-width:2;stroke-miterlimit:10"
     inkscape:connector-curvature="0"
     stroke-miterlimit="10"
     d="m 130.13,275.456 c 0.578,0.012 0.66,0.429 0.5,1"
     id="path78" /><path
     style="fill:none;stroke:#000000;stroke-width:2;stroke-miterlimit:10"
     inkscape:connector-curvature="0"
     stroke-miterlimit="10"
     d="m 101.38,273.706 c 0.417,0 0.833,0 1.25,0"
     id="path80" /><path
     style="fill:none;stroke:#000000;stroke-width:2;stroke-miterlimit:10"
     inkscape:connector-curvature="0"
     stroke-miterlimit="10"
     d="m 98.13,284.706 c 0.612,0.074 1.194,-0.009 1.75,-0.25"
     id="path82" /><path
     style="fill:none;stroke:#000000;stroke-width:2;stroke-miterlimit:10"
     inkscape:connector-curvature="0"
     stroke-miterlimit="10"
     d="m 96.13,278.706 c 0.5,0 1,0 1.5,0"
     id="path84" /><path
     style="fill:none;stroke:#000000;stroke-miterlimit:10"
     inkscape:connector-curvature="0"
     stroke-miterlimit="10"
     d="m 94.755,260.956 c 2.708,0 5.417,0 8.125,0"
     id="path86" /><path
     style="fill:none;stroke:#000000;stroke-miterlimit:10"
     inkscape:connector-curvature="0"
     stroke-miterlimit="10"
     d="m 108.63,261.081 c 1.132,0.96 5.58,0.25 7.125,0.25"
     id="path88" /><path
     style="fill:none;stroke:#000000;stroke-miterlimit:10"
     inkscape:connector-curvature="0"
     stroke-miterlimit="10"
     d="m 120.38,269.331 c 2.079,-0.008 4.139,-0.25 6.25,-0.25"
     id="path90" /><path
     style="fill:none;stroke:#000000;stroke-miterlimit:10"
     inkscape:connector-curvature="0"
     stroke-miterlimit="10"
     d="m 122.255,261.831 c 2.295,-0.221 4.91,0.125 7.25,0.125"
     id="path92" /><path
     style="fill:none;stroke:#000000;stroke-miterlimit:10"
     inkscape:connector-curvature="0"
     stroke-miterlimit="10"
     d="m 130.38,255.581 c 3,-0.092 6.439,-0.173 9.375,0.25"
     id="path94" /><path
     style="fill:none;stroke:#000000;stroke-miterlimit:10"
     inkscape:connector-curvature="0"
     stroke-miterlimit="10"
     d="m 98.38,255.581 c 0.988,-0.157 2.265,0.25 3.347,0.25 1.259,0 2.519,0 3.778,0"
     id="path96" /><path
     style="fill:none;stroke:#000000;stroke-miterlimit:10"
     inkscape:connector-curvature="0"
     stroke-miterlimit="10"
     d="m 92.88,268.331 c 1.941,0.015 3.758,0.375 5.75,0.375"
     id="path98" /><path
     style="fill:none;stroke:#000000;stroke-miterlimit:10"
     inkscape:connector-curvature="0"
     stroke-miterlimit="10"
     d="m 95.755,266.581 c 1.083,0 2.167,0 3.25,0"
     id="path100" /><path
     style="fill:none;stroke:#000000;stroke-miterlimit:10"
     inkscape:connector-curvature="0"
     stroke-miterlimit="10"
     d="m 89.755,260.706 c 0.248,-0.462 1.384,-0.25 2,-0.25"
     id="path102" /><path
     style="fill:none;stroke:#000000;stroke-miterlimit:10"
     inkscape:connector-curvature="0"
     stroke-miterlimit="10"
     d="m 110.88,259.331 c 0.614,0.937 4.779,0.375 6.125,0.375"
     id="path104" /><path
     style="fill:none;stroke:#000000;stroke-miterlimit:10"
     inkscape:connector-curvature="0"
     stroke-miterlimit="10"
     d="m 113.63,254.956 c 2.541,-0.11 5.25,-0.109 7.75,-0.125"
     id="path106" /><path
     style="fill:none;stroke:#000000;stroke-miterlimit:10"
     inkscape:connector-curvature="0"
     stroke-miterlimit="10"
     d="m 110.791,331.448 c 0.298,2.882 -1.948,4.729 -2.284,7.25 -0.366,2.75 0.814,5.648 3.176,4.499 2.026,-0.987 1.829,-4.15 1.213,-6.511 -0.398,-1.526 -1.118,-4.644 -2.284,-5.488"
     id="path108" /><path
     style="fill:none;stroke:#000000;stroke-miterlimit:10"
     inkscape:connector-curvature="0"
     stroke-miterlimit="10"
     d="m 111.54,355.444 c 0.298,2.882 -1.948,4.729 -2.284,7.25 -0.366,2.75 0.814,5.648 3.176,4.499 2.026,-0.987 1.829,-4.15 1.213,-6.513 -0.398,-1.524 -1.118,-4.642 -2.284,-5.486"
     id="path110" /></g><g
   transform="translate(-13.104839,-187.92337)"
   id="g112"><polyline
     style="fill:none;stroke:#000000;stroke-width:3;stroke-miterlimit:10"
     stroke-miterlimit="10"
     points="222.13,278.956 222.13,408.955    269.13,408.955 269.13,277.956  "
     id="polyline114" /><polyline
     style="fill:none;stroke:#000000;stroke-width:2;stroke-miterlimit:10"
     stroke-miterlimit="10"
     points="204.13,234.956 238.13,302.956    238.13,327.956  "
     id="polyline116" /><polyline
     style="fill:none;stroke:#000000;stroke-width:2;stroke-miterlimit:10"
     stroke-miterlimit="10"
     points="286.63,234.956 252.63,302.956    252.63,327.956  "
     id="polyline118" /><line
     style="fill:none;stroke:#000000;stroke-width:2;stroke-miterlimit:10"
     stroke-miterlimit="10"
     x1="213.38"
     y1="252.95599"
     x2="277.63"
     y2="252.95599"
     id="line120" /><path
     style="fill:#070404"
     inkscape:connector-curvature="0"
     d="m 232.13,289.456 c 2.297,-1.66 2.823,-6.007 6.244,-5.763 1.2,0.085 2.326,1.411 3.243,1.539 1.657,0.23 3.229,-0.995 4.762,-1.281 2.383,-0.444 5.705,0.553 7.75,1.498 1.029,0.475 1.614,1.211 2.569,1.694 1.15,0.581 2.549,0.62 3.466,1.563 -1.851,1.353 -3.132,4.138 -4.202,6.05 -1.086,1.94 -1.588,6.451 -3.265,7.773 -1.326,1.046 -6.384,1.521 -8.069,1.677 -2.067,0.188 -5.688,0.82 -7.456,-0.293 -0.17,-2.93 -0.907,-5.073 -1.781,-7.719 -0.647,-1.963 -3.235,-4.698 -3.013,-6.737"
     id="path122" /><path
     style="fill:none;stroke:#000000;stroke-miterlimit:10"
     inkscape:connector-curvature="0"
     stroke-miterlimit="10"
     d="m 216.38,258.206 c 1.563,-0.156 2.943,-1.011 4.5,-1"
     id="path124" /><path
     style="fill:none;stroke:#000000;stroke-miterlimit:10"
     inkscape:connector-curvature="0"
     stroke-miterlimit="10"
     d="m 224.88,258.706 c 0.348,-0.946 4.094,-0.5 5.5,-0.5"
     id="path126" /><path
     style="fill:none;stroke:#000000;stroke-miterlimit:10"
     inkscape:connector-curvature="0"
     stroke-miterlimit="10"
     d="m 239.13,257.956 c 2.272,-0.008 4.587,-0.015 6.75,-0.5"
     id="path128" /><path
     style="fill:none;stroke:#000000;stroke-miterlimit:10"
     inkscape:connector-curvature="0"
     stroke-miterlimit="10"
     d="m 268.63,257.956 c -1.307,0.487 -3.055,0.25 -4.5,0.25"
     id="path130" /><path
     style="fill:none;stroke:#000000;stroke-miterlimit:10"
     inkscape:connector-curvature="0"
     stroke-miterlimit="10"
     d="m 260.88,265.456 c 1.62,-0.011 3.16,-0.215 4.75,-0.25"
     id="path132" /><path
     style="fill:none;stroke:#000000;stroke-miterlimit:10"
     inkscape:connector-curvature="0"
     stroke-miterlimit="10"
     d="m 247.88,264.456 c 2.25,-0.676 5.396,-0.309 7.25,-0.25"
     id="path134" /><path
     style="fill:none;stroke:#000000;stroke-miterlimit:10"
     inkscape:connector-curvature="0"
     stroke-miterlimit="10"
     d="m 230.13,264.206 c 5.5,-0.544 9.315,-0.75 13,-0.75"
     id="path136" /><path
     style="fill:none;stroke:#000000;stroke-miterlimit:10"
     inkscape:connector-curvature="0"
     stroke-miterlimit="10"
     d="m 236.88,267.618 c 5.5,-0.544 9.315,-0.75 13,-0.75"
     id="path138" /><path
     style="fill:none;stroke:#000000;stroke-miterlimit:10"
     inkscape:connector-curvature="0"
     stroke-miterlimit="10"
     d="m 220.13,264.706 c 1.209,-0.377 2.485,-0.242 3.75,-0.25"
     id="path140" /><path
     style="fill:none;stroke:#000000;stroke-miterlimit:10"
     inkscape:connector-curvature="0"
     stroke-miterlimit="10"
     d="m 221.739,270.779 c 5.125,0.377 10.136,0.296 15.282,0.121"
     id="path142" /><path
     style="fill:none;stroke:#000000;stroke-miterlimit:10"
     inkscape:connector-curvature="0"
     stroke-miterlimit="10"
     d="m 238.506,270.913 c 2.395,0.176 4.753,-0.099 7.179,-0.475"
     id="path144" /><path
     style="fill:none;stroke:#000000;stroke-miterlimit:10"
     inkscape:connector-curvature="0"
     stroke-miterlimit="10"
     d="m 245.791,270.989 c 7.238,0.532 14.3,0.603 21.55,0.582"
     id="path146" /><path
     style="fill:none;stroke:#000000;stroke-miterlimit:10"
     inkscape:connector-curvature="0"
     stroke-miterlimit="10"
     d="m 251.63,257.706 c 2.656,-0.306 6.134,0.5 9,0.5"
     id="path148" /><path
     style="fill:none;stroke:#000000;stroke-width:2;stroke-miterlimit:10"
     inkscape:connector-curvature="0"
     stroke-miterlimit="10"
     d="m 229.63,276.456 c 0.25,-0.469 0.708,-0.625 1.25,-0.5"
     id="path150" /><path
     style="fill:none;stroke:#000000;stroke-width:2;stroke-miterlimit:10"
     inkscape:connector-curvature="0"
     stroke-miterlimit="10"
     d="m 246.38,280.956 c 0.617,0.002 1.179,-0.079 1.75,-0.25"
     id="path152" /><path
     style="fill:none;stroke:#000000;stroke-width:2;stroke-miterlimit:10"
     inkscape:connector-curvature="0"
     stroke-miterlimit="10"
     d="m 241.38,279.956 c 0.663,0.146 1.314,0.229 2,0.25"
     id="path154" /><path
     style="fill:none;stroke:#000000;stroke-width:2;stroke-miterlimit:10"
     inkscape:connector-curvature="0"
     stroke-miterlimit="10"
     d="m 235.63,280.206 c 0.436,0.047 0.878,0.229 1.25,0.5"
     id="path156" /><path
     style="fill:none;stroke:#000000;stroke-width:2;stroke-miterlimit:10"
     inkscape:connector-curvature="0"
     stroke-miterlimit="10"
     d="m 231.63,281.206 c 0.52,0.033 1.009,0.115 1.5,0.25"
     id="path158" /><path
     style="fill:none;stroke:#000000;stroke-width:2;stroke-miterlimit:10"
     inkscape:connector-curvature="0"
     stroke-miterlimit="10"
     d="m 237.88,275.956 c 0.741,-0.275 1.646,-0.362 2.5,-0.25"
     id="path160" /><path
     style="fill:none;stroke:#000000;stroke-width:2;stroke-miterlimit:10"
     inkscape:connector-curvature="0"
     stroke-miterlimit="10"
     d="m 249.38,273.456 c 0.749,-0.097 1.34,0.14 1.5,0.75"
     id="path162" /><path
     style="fill:none;stroke:#000000;stroke-width:2;stroke-miterlimit:10"
     inkscape:connector-curvature="0"
     stroke-miterlimit="10"
     d="m 253.63,275.956 c 0.417,0 0.833,0 1.25,0"
     id="path164" /><path
     style="fill:none;stroke:#000000;stroke-width:2;stroke-miterlimit:10"
     inkscape:connector-curvature="0"
     stroke-miterlimit="10"
     d="m 257.88,277.456 c 0.57,-0.255 1.648,-0.365 2.5,-0.25"
     id="path166" /><path
     style="fill:none;stroke:#000000;stroke-width:2;stroke-miterlimit:10"
     inkscape:connector-curvature="0"
     stroke-miterlimit="10"
     d="m 259.88,273.206 c 0.611,0.118 1.209,0.29 1.75,0.5"
     id="path168" /><path
     style="fill:none;stroke:#000000;stroke-width:2;stroke-miterlimit:10"
     inkscape:connector-curvature="0"
     stroke-miterlimit="10"
     d="m 257.88,280.706 c 0.153,0.76 1.236,1.054 2,1.5"
     id="path170" /><path
     style="fill:none;stroke:#000000;stroke-width:2;stroke-miterlimit:10"
     inkscape:connector-curvature="0"
     stroke-miterlimit="10"
     d="m 245.38,277.206 c 0.785,-0.042 1.525,0.041 2.25,0.25"
     id="path172" /><path
     style="fill:none;stroke:#000000;stroke-width:2;stroke-miterlimit:10"
     inkscape:connector-curvature="0"
     stroke-miterlimit="10"
     d="m 232.88,276.706 c 0.678,0.163 1.261,0.237 2,0.25"
     id="path174" /><path
     style="fill:none;stroke:#000000;stroke-width:2;stroke-miterlimit:10"
     inkscape:connector-curvature="0"
     stroke-miterlimit="10"
     d="m 250.38,279.206 c 0.716,0.258 1.475,0.341 2.25,0.25"
     id="path176" /><path
     style="fill:none;stroke:#000000;stroke-width:2;stroke-miterlimit:10"
     inkscape:connector-curvature="0"
     stroke-miterlimit="10"
     d="m 241.63,274.206 c 0.867,-0.057 1.696,0.027 2.5,0.25"
     id="path178" /><path
     style="fill:none;stroke:#000000;stroke-width:2;stroke-miterlimit:10"
     inkscape:connector-curvature="0"
     stroke-miterlimit="10"
     d="m 226.88,273.956 c 0.609,-0.096 1.203,-0.014 1.75,0.25"
     id="path180" /><path
     style="fill:none;stroke:#000000;stroke-width:2;stroke-miterlimit:10"
     inkscape:connector-curvature="0"
     stroke-miterlimit="10"
     d="m 254.88,282.456 c 0.84,0.339 1.782,0.899 2.75,1"
     id="path182" /><path
     style="fill:none;stroke:#000000;stroke-width:2;stroke-miterlimit:10"
     inkscape:connector-curvature="0"
     stroke-miterlimit="10"
     d="m 262.63,275.456 c 0.578,0.012 0.66,0.429 0.5,1"
     id="path184" /><path
     style="fill:none;stroke:#000000;stroke-width:2;stroke-miterlimit:10"
     inkscape:connector-curvature="0"
     stroke-miterlimit="10"
     d="m 233.88,273.706 c 0.417,0 0.833,0 1.25,0"
     id="path186" /><path
     style="fill:none;stroke:#000000;stroke-width:2;stroke-miterlimit:10"
     inkscape:connector-curvature="0"
     stroke-miterlimit="10"
     d="m 230.63,284.706 c 0.612,0.074 1.194,-0.009 1.75,-0.25"
     id="path188" /><path
     style="fill:none;stroke:#000000;stroke-width:2;stroke-miterlimit:10"
     inkscape:connector-curvature="0"
     stroke-miterlimit="10"
     d="m 228.63,278.706 c 0.5,0 1,0 1.5,0"
     id="path190" /><path
     style="fill:none;stroke:#000000;stroke-miterlimit:10"
     inkscape:connector-curvature="0"
     stroke-miterlimit="10"
     d="m 227.255,260.956 c 2.708,0 5.417,0 8.125,0"
     id="path192" /><path
     style="fill:none;stroke:#000000;stroke-miterlimit:10"
     inkscape:connector-curvature="0"
     stroke-miterlimit="10"
     d="m 241.13,261.081 c 1.132,0.96 5.58,0.25 7.125,0.25"
     id="path194" /><path
     style="fill:none;stroke:#000000;stroke-miterlimit:10"
     inkscape:connector-curvature="0"
     stroke-miterlimit="10"
     d="m 252.88,269.331 c 2.079,-0.008 4.139,-0.25 6.25,-0.25"
     id="path196" /><path
     style="fill:none;stroke:#000000;stroke-miterlimit:10"
     inkscape:connector-curvature="0"
     stroke-miterlimit="10"
     d="m 254.755,261.831 c 2.295,-0.221 4.91,0.125 7.25,0.125"
     id="path198" /><path
     style="fill:none;stroke:#000000;stroke-miterlimit:10"
     inkscape:connector-curvature="0"
     stroke-miterlimit="10"
     d="m 262.88,255.581 c 3,-0.092 6.439,-0.173 9.375,0.25"
     id="path200" /><path
     style="fill:none;stroke:#000000;stroke-miterlimit:10"
     inkscape:connector-curvature="0"
     stroke-miterlimit="10"
     d="m 230.88,255.581 c 0.988,-0.157 2.265,0.25 3.347,0.25 1.259,0 2.519,0 3.778,0"
     id="path202" /><path
     style="fill:none;stroke:#000000;stroke-miterlimit:10"
     inkscape:connector-curvature="0"
     stroke-miterlimit="10"
     d="m 225.38,268.331 c 1.941,0.015 3.758,0.375 5.75,0.375"
     id="path204" /><path
     style="fill:none;stroke:#000000;stroke-miterlimit:10"
     inkscape:connector-curvature="0"
     stroke-miterlimit="10"
     d="m 228.255,266.581 c 1.083,0 2.167,0 3.25,0"
     id="path206" /><path
     style="fill:none;stroke:#000000;stroke-miterlimit:10"
     inkscape:connector-curvature="0"
     stroke-miterlimit="10"
     d="m 222.255,260.706 c 0.248,-0.462 1.384,-0.25 2,-0.25"
     id="path208" /><path
     style="fill:none;stroke:#000000;stroke-miterlimit:10"
     inkscape:connector-curvature="0"
     stroke-miterlimit="10"
     d="m 243.38,259.331 c 0.614,0.937 4.779,0.375 6.125,0.375"
     id="path210" /><path
     style="fill:none;stroke:#000000;stroke-miterlimit:10"
     inkscape:connector-curvature="0"
     stroke-miterlimit="10"
     d="m 246.13,254.956 c 2.541,-0.11 5.25,-0.109 7.75,-0.125"
     id="path212" /><path
     style="fill:none;stroke:#000000;stroke-miterlimit:10"
     inkscape:connector-curvature="0"
     stroke-miterlimit="10"
     d="m 243.291,331.448 c 0.298,2.882 -1.948,4.729 -2.284,7.25 -0.366,2.75 0.814,5.648 3.176,4.499 2.026,-0.987 1.829,-4.15 1.213,-6.511 -0.398,-1.526 -1.118,-4.644 -2.284,-5.488"
     id="path214" /><path
     style="fill:none;stroke:#000000;stroke-miterlimit:10"
     inkscape:connector-curvature="0"
     stroke-miterlimit="10"
     d="m 244.04,355.444 c 0.298,2.882 -1.948,4.729 -2.284,7.25 -0.366,2.75 0.814,5.648 3.176,4.499 2.026,-0.987 1.829,-4.15 1.213,-6.513 -0.398,-1.524 -1.118,-4.642 -2.284,-5.486"
     id="path216" /></g><g
   transform="translate(-13.104839,-187.92337)"
   id="g218"><polyline
     style="fill:none;stroke:#000000;stroke-width:3;stroke-miterlimit:10"
     stroke-miterlimit="10"
     points="365.129,278.956 365.129,408.955    412.129,408.955 412.129,277.956  "
     id="polyline220" /><polyline
     style="fill:none;stroke:#000000;stroke-width:2;stroke-miterlimit:10"
     stroke-miterlimit="10"
     points="347.129,234.956 381.129,302.956    381.129,327.956  "
     id="polyline222" /><polyline
     style="fill:none;stroke:#000000;stroke-width:2;stroke-miterlimit:10"
     stroke-miterlimit="10"
     points="429.629,234.956 395.629,302.956    395.629,327.956  "
     id="polyline224" /><line
     style="fill:none;stroke:#000000;stroke-width:2;stroke-miterlimit:10"
     stroke-miterlimit="10"
     x1="356.379"
     y1="252.95599"
     x2="420.629"
     y2="252.95599"
     id="line226" /><path
     style="fill:#070404"
     inkscape:connector-curvature="0"
     d="m 375.129,289.456 c 2.297,-1.66 2.824,-6.007 6.244,-5.763 1.199,0.085 2.326,1.411 3.242,1.539 1.658,0.23 3.229,-0.995 4.764,-1.281 2.383,-0.444 5.703,0.553 7.75,1.498 1.029,0.475 1.613,1.211 2.568,1.694 1.148,0.581 2.549,0.62 3.467,1.563 -1.854,1.353 -3.133,4.138 -4.203,6.05 -1.086,1.94 -1.588,6.451 -3.264,7.773 -1.326,1.046 -6.385,1.521 -8.068,1.677 -2.068,0.188 -5.689,0.82 -7.457,-0.293 -0.17,-2.93 -0.906,-5.073 -1.779,-7.719 -0.646,-1.963 -3.236,-4.698 -3.014,-6.737"
     id="path228" /><path
     style="fill:none;stroke:#000000;stroke-miterlimit:10"
     inkscape:connector-curvature="0"
     stroke-miterlimit="10"
     d="m 359.379,258.206 c 1.563,-0.156 2.943,-1.011 4.5,-1"
     id="path230" /><path
     style="fill:none;stroke:#000000;stroke-miterlimit:10"
     inkscape:connector-curvature="0"
     stroke-miterlimit="10"
     d="m 367.879,258.706 c 0.348,-0.946 4.094,-0.5 5.5,-0.5"
     id="path232" /><path
     style="fill:none;stroke:#000000;stroke-miterlimit:10"
     inkscape:connector-curvature="0"
     stroke-miterlimit="10"
     d="m 388.879,257.456 c -2.162,0.485 -4.479,0.492 -6.75,0.5 l -2.109,-61.333 h 85.609"
     id="path234" /><path
     style="fill:none;stroke:#000000;stroke-miterlimit:10"
     inkscape:connector-curvature="0"
     stroke-miterlimit="10"
     d="m 411.629,257.956 c -1.307,0.487 -3.055,0.25 -4.5,0.25"
     id="path236" /><path
     style="fill:none;stroke:#000000;stroke-miterlimit:10"
     inkscape:connector-curvature="0"
     stroke-miterlimit="10"
     d="m 403.879,265.456 c 1.621,-0.011 3.16,-0.215 4.75,-0.25"
     id="path238" /><path
     style="fill:none;stroke:#000000;stroke-miterlimit:10"
     inkscape:connector-curvature="0"
     stroke-miterlimit="10"
     d="m 390.879,264.456 c 2.25,-0.676 5.396,-0.309 7.25,-0.25"
     id="path240" /><path
     style="fill:none;stroke:#000000;stroke-miterlimit:10"
     inkscape:connector-curvature="0"
     stroke-miterlimit="10"
     d="m 373.129,264.206 c 5.5,-0.544 9.314,-0.75 13,-0.75"
     id="path242" /><path
     style="fill:none;stroke:#000000;stroke-miterlimit:10"
     inkscape:connector-curvature="0"
     stroke-miterlimit="10"
     d="m 379.879,267.618 c 5.5,-0.544 9.314,-0.75 13,-0.75"
     id="path244" /><path
     style="fill:none;stroke:#000000;stroke-miterlimit:10"
     inkscape:connector-curvature="0"
     stroke-miterlimit="10"
     d="m 363.129,264.706 c 1.209,-0.377 2.484,-0.242 3.75,-0.25"
     id="path246" /><path
     style="fill:none;stroke:#000000;stroke-miterlimit:10"
     inkscape:connector-curvature="0"
     stroke-miterlimit="10"
     d="m 364.738,270.779 c 5.125,0.377 10.135,0.296 15.281,0.121"
     id="path248" /><path
     style="fill:none;stroke:#000000;stroke-miterlimit:10"
     inkscape:connector-curvature="0"
     stroke-miterlimit="10"
     d="m 381.506,270.913 c 2.395,0.176 4.752,-0.099 7.178,-0.475"
     id="path250" /><path
     style="fill:none;stroke:#000000;stroke-miterlimit:10"
     inkscape:connector-curvature="0"
     stroke-miterlimit="10"
     d="m 388.789,270.989 c 7.238,0.532 14.301,0.603 21.551,0.582"
     id="path252" /><path
     style="fill:none;stroke:#000000;stroke-miterlimit:10"
     inkscape:connector-curvature="0"
     stroke-miterlimit="10"
     d="m 394.629,257.706 c 2.656,-0.306 6.135,0.5 9,0.5"
     id="path254" /><path
     style="fill:none;stroke:#000000;stroke-width:2;stroke-miterlimit:10"
     inkscape:connector-curvature="0"
     stroke-miterlimit="10"
     d="m 372.629,276.456 c 0.25,-0.469 0.709,-0.625 1.25,-0.5"
     id="path256" /><path
     style="fill:none;stroke:#000000;stroke-width:2;stroke-miterlimit:10"
     inkscape:connector-curvature="0"
     stroke-miterlimit="10"
     d="m 389.379,280.956 c 0.617,0.002 1.18,-0.079 1.75,-0.25"
     id="path258" /><path
     style="fill:none;stroke:#000000;stroke-width:2;stroke-miterlimit:10"
     inkscape:connector-curvature="0"
     stroke-miterlimit="10"
     d="m 384.379,279.956 c 0.662,0.146 1.314,0.229 2,0.25"
     id="path260" /><path
     style="fill:none;stroke:#000000;stroke-width:2;stroke-miterlimit:10"
     inkscape:connector-curvature="0"
     stroke-miterlimit="10"
     d="m 378.629,280.206 c 0.436,0.047 0.879,0.229 1.25,0.5"
     id="path262" /><path
     style="fill:none;stroke:#000000;stroke-width:2;stroke-miterlimit:10"
     inkscape:connector-curvature="0"
     stroke-miterlimit="10"
     d="m 374.629,281.206 c 0.52,0.033 1.01,0.115 1.5,0.25"
     id="path264" /><path
     style="fill:none;stroke:#000000;stroke-width:2;stroke-miterlimit:10"
     inkscape:connector-curvature="0"
     stroke-miterlimit="10"
     d="m 380.879,275.956 c 0.74,-0.275 1.646,-0.362 2.5,-0.25"
     id="path266" /><path
     style="fill:none;stroke:#000000;stroke-width:2;stroke-miterlimit:10"
     inkscape:connector-curvature="0"
     stroke-miterlimit="10"
     d="m 392.379,273.456 c 0.748,-0.097 1.34,0.14 1.5,0.75"
     id="path268" /><path
     style="fill:none;stroke:#000000;stroke-width:2;stroke-miterlimit:10"
     inkscape:connector-curvature="0"
     stroke-miterlimit="10"
     d="m 396.629,275.956 c 0.416,0 0.834,0 1.25,0"
     id="path270" /><path
     style="fill:none;stroke:#000000;stroke-width:2;stroke-miterlimit:10"
     inkscape:connector-curvature="0"
     stroke-miterlimit="10"
     d="m 400.879,277.456 c 0.57,-0.255 1.648,-0.365 2.5,-0.25"
     id="path272" /><path
     style="fill:none;stroke:#000000;stroke-width:2;stroke-miterlimit:10"
     inkscape:connector-curvature="0"
     stroke-miterlimit="10"
     d="m 402.879,273.206 c 0.611,0.118 1.209,0.29 1.75,0.5"
     id="path274" /><path
     style="fill:none;stroke:#000000;stroke-width:2;stroke-miterlimit:10"
     inkscape:connector-curvature="0"
     stroke-miterlimit="10"
     d="m 400.879,280.706 c 0.152,0.76 1.236,1.054 2,1.5"
     id="path276" /><path
     style="fill:none;stroke:#000000;stroke-width:2;stroke-miterlimit:10"
     inkscape:connector-curvature="0"
     stroke-miterlimit="10"
     d="m 388.379,277.206 c 0.785,-0.042 1.525,0.041 2.25,0.25"
     id="path278" /><path
     style="fill:none;stroke:#000000;stroke-width:2;stroke-miterlimit:10"
     inkscape:connector-curvature="0"
     stroke-miterlimit="10"
     d="m 375.879,276.706 c 0.678,0.163 1.262,0.237 2,0.25"
     id="path280" /><path
     style="fill:none;stroke:#000000;stroke-width:2;stroke-miterlimit:10"
     inkscape:connector-curvature="0"
     stroke-miterlimit="10"
     d="m 393.379,279.206 c 0.717,0.258 1.475,0.341 2.25,0.25"
     id="path282" /><path
     style="fill:none;stroke:#000000;stroke-width:2;stroke-miterlimit:10"
     inkscape:connector-curvature="0"
     stroke-miterlimit="10"
     d="m 384.629,274.206 c 0.867,-0.057 1.695,0.027 2.5,0.25"
     id="path284" /><path
     style="fill:none;stroke:#000000;stroke-width:2;stroke-miterlimit:10"
     inkscape:connector-curvature="0"
     stroke-miterlimit="10"
     d="m 369.879,273.956 c 0.609,-0.096 1.203,-0.014 1.75,0.25"
     id="path286" /><path
     style="fill:none;stroke:#000000;stroke-width:2;stroke-miterlimit:10"
     inkscape:connector-curvature="0"
     stroke-miterlimit="10"
     d="m 397.879,282.456 c 0.84,0.339 1.781,0.899 2.75,1"
     id="path288" /><path
     style="fill:none;stroke:#000000;stroke-width:2;stroke-miterlimit:10"
     inkscape:connector-curvature="0"
     stroke-miterlimit="10"
     d="m 405.629,275.456 c 0.578,0.012 0.66,0.429 0.5,1"
     id="path290" /><path
     style="fill:none;stroke:#000000;stroke-width:2;stroke-miterlimit:10"
     inkscape:connector-curvature="0"
     stroke-miterlimit="10"
     d="m 376.879,273.706 c 0.416,0 0.834,0 1.25,0"
     id="path292" /><path
     style="fill:none;stroke:#000000;stroke-width:2;stroke-miterlimit:10"
     inkscape:connector-curvature="0"
     stroke-miterlimit="10"
     d="m 373.629,284.706 c 0.611,0.074 1.193,-0.009 1.75,-0.25"
     id="path294" /><path
     style="fill:none;stroke:#000000;stroke-width:2;stroke-miterlimit:10"
     inkscape:connector-curvature="0"
     stroke-miterlimit="10"
     d="m 371.629,278.706 c 0.5,0 1,0 1.5,0"
     id="path296" /><path
     style="fill:none;stroke:#000000;stroke-miterlimit:10"
     inkscape:connector-curvature="0"
     stroke-miterlimit="10"
     d="m 370.254,260.956 c 2.709,0 5.416,0 8.125,0"
     id="path298" /><path
     style="fill:none;stroke:#000000;stroke-miterlimit:10"
     inkscape:connector-curvature="0"
     stroke-miterlimit="10"
     d="m 384.129,261.081 c 1.133,0.96 5.58,0.25 7.125,0.25"
     id="path300" /><path
     style="fill:none;stroke:#000000;stroke-miterlimit:10"
     inkscape:connector-curvature="0"
     stroke-miterlimit="10"
     d="m 395.879,269.331 c 2.08,-0.008 4.139,-0.25 6.25,-0.25"
     id="path302" /><path
     style="fill:none;stroke:#000000;stroke-miterlimit:10"
     inkscape:connector-curvature="0"
     stroke-miterlimit="10"
     d="m 397.754,261.831 c 2.295,-0.221 4.91,0.125 7.25,0.125"
     id="path304" /><path
     style="fill:none;stroke:#000000;stroke-miterlimit:10"
     inkscape:connector-curvature="0"
     stroke-miterlimit="10"
     d="m 405.879,255.581 c 3,-0.092 6.439,-0.173 9.375,0.25"
     id="path306" /><path
     style="fill:none;stroke:#000000;stroke-miterlimit:10"
     inkscape:connector-curvature="0"
     stroke-miterlimit="10"
     d="m 373.879,255.581 c 0.988,-0.157 2.266,0.25 3.348,0.25 1.26,0 2.52,0 3.777,0"
     id="path308" /><path
     style="fill:none;stroke:#000000;stroke-miterlimit:10"
     inkscape:connector-curvature="0"
     stroke-miterlimit="10"
     d="m 368.379,268.331 c 1.941,0.015 3.758,0.375 5.75,0.375"
     id="path310" /><path
     style="fill:none;stroke:#000000;stroke-miterlimit:10"
     inkscape:connector-curvature="0"
     stroke-miterlimit="10"
     d="m 371.254,266.581 c 1.084,0 2.166,0 3.25,0"
     id="path312" /><path
     style="fill:none;stroke:#000000;stroke-miterlimit:10"
     inkscape:connector-curvature="0"
     stroke-miterlimit="10"
     d="m 365.254,260.706 c 0.248,-0.462 1.385,-0.25 2,-0.25"
     id="path314" /><path
     style="fill:none;stroke:#000000;stroke-miterlimit:10"
     inkscape:connector-curvature="0"
     stroke-miterlimit="10"
     d="m 386.379,259.331 c 0.615,0.937 4.779,0.375 6.125,0.375"
     id="path316" /><path
     style="fill:none;stroke:#000000;stroke-miterlimit:10"
     inkscape:connector-curvature="0"
     stroke-miterlimit="10"
     d="m 389.129,254.956 c 2.541,-0.11 5.25,-0.109 7.75,-0.125"
     id="path318" /><path
     style="fill:none;stroke:#000000;stroke-miterlimit:10"
     inkscape:connector-curvature="0"
     stroke-miterlimit="10"
     d="m 386.289,331.448 c 0.299,2.882 -1.947,4.729 -2.283,7.25 -0.365,2.75 0.814,5.648 3.176,4.499 2.027,-0.987 1.83,-4.15 1.213,-6.511 -0.396,-1.526 -1.117,-4.644 -2.283,-5.488"
     id="path320" /><path
     style="fill:none;stroke:#000000;stroke-miterlimit:10"
     inkscape:connector-curvature="0"
     stroke-miterlimit="10"
     d="m 387.039,355.444 c 0.299,2.882 -1.947,4.729 -2.283,7.25 -0.365,2.75 0.813,5.648 3.176,4.499 2.025,-0.987 1.83,-4.15 1.213,-6.513 -0.396,-1.524 -1.117,-4.642 -2.283,-5.486"
     id="path322" /></g><line
   style="fill:none;stroke:#000000;stroke-width:2;stroke-miterlimit:10"
   stroke-miterlimit="10"
   x1="19.025166"
   y1="72.657623"
   x2="86.525162"
   y2="89.157623"
   id="line324" /><line
   style="fill:none;stroke:#000000;stroke-width:2;stroke-miterlimit:10"
   stroke-miterlimit="10"
   x1="160.77516"
   y1="74.605621"
   x2="228.27516"
   y2="91.105621"
   id="line326" /><line
   style="fill:none;stroke:#000000;stroke-width:2;stroke-miterlimit:10"
   stroke-miterlimit="10"
   x1="300.27417"
   y1="72.157623"
   x2="367.77417"
   y2="88.657623"
   id="line328" /><line
   style="fill:none;stroke:#000000;stroke-width:1;stroke-miterlimit:10"
   stroke-miterlimit="10"
   x1="375.71118"
   y1="106.19562"
   x2="439.52417"
   y2="106.19562"
   id="line330" /><line
   style="fill:none;stroke:#000000;stroke-width:1;stroke-miterlimit:10"
   stroke-miterlimit="10"
   x1="409.71918"
   y1="65.032623"
   x2="486.53217"
   y2="65.032623"
   id="line332" /><line
   style="fill:none;stroke:#000000;stroke-width:1;stroke-miterlimit:10"
   stroke-miterlimit="10"
   x1="376.46118"
   y1="149.40363"
   x2="449.08618"
   y2="158.23663"
   id="line334" /><line
   style="fill:none;stroke:#000000;stroke-width:1;stroke-miterlimit:10"
   stroke-miterlimit="10"
   x1="454.56717"
   y1="184.69962"
   x2="399.52417"
   y2="180.69962"
   id="line336" /><text
   y="77.282227"
   x="10.085058"
   style="font-size:24px;font-family:MyriadPro-Regular"
   font-size="24"
   id="text338">J</text>

<text
   y="87.532227"
   x="143.02116"
   style="font-size:24px;font-family:MyriadPro-Regular"
   font-size="24"
   id="text340">K</text>

<text
   y="79.694321"
   x="291.36096"
   style="font-size:24px;font-family:MyriadPro-Regular"
   font-size="24"
   id="text342">L</text>

<text
   y="15.032227"
   x="460.41855"
   style="font-size:21px;font-family:MyriadPro-Regular"
   font-size="21"
   id="text344">Water</text>

<text
   y="71.949226"
   x="487.23987"
   style="font-size:21px;font-family:MyriadPro-Regular"
   font-size="21"
   id="text346">Funnel</text>

<text
   y="111.19533"
   x="441.17346"
   style="font-size:21px;font-family:MyriadPro-Regular"
   font-size="21"
   id="text348">Cotton wool</text>

<text
   y="164.36522"
   x="449.29456"
   style="font-size:21px;font-family:MyriadPro-Regular"
   font-size="21"
   id="text350">Drops of water</text>

<text
   y="192.69823"
   x="452.81317"
   style="font-size:21px;font-family:MyriadPro-Regular"
   font-size="21"
   id="text352">Jar</text>

<text
   y="269.52582"
   x="0.025061568"
   style="font-size:17.10899925px;font-family:MyriadPro-Regular"
   font-size="17.109"
   id="text354">After 10 minutes the pupils measured the amount of water that had drained</text>

<text
   y="290.05713"
   x="0.025061568"
   style="font-size:17.10899925px;font-family:MyriadPro-Regular"
   font-size="17.109"
   id="text356">through each soil sample</text>

<rect
   style="fill:none;stroke:#000000;stroke-width:1;stroke-miterlimit:10"
   x="19.025166"
   y="314.03162"
   stroke-miterlimit="10"
   width="472.49899"
   height="129"
   id="rect358" /><line
   style="fill:none;stroke:#000000;stroke-width:1;stroke-miterlimit:10"
   stroke-miterlimit="10"
   x1="19.025166"
   y1="372.03165"
   x2="491.52417"
   y2="372.03165"
   id="line360" /><line
   style="fill:none;stroke:#000000;stroke-width:1;stroke-miterlimit:10"
   stroke-miterlimit="10"
   x1="194.52516"
   y1="314.03162"
   x2="194.52516"
   y2="443.03165"
   id="line362" /><line
   style="fill:none;stroke:#000000;stroke-width:1;stroke-miterlimit:10"
   stroke-miterlimit="10"
   x1="292.02417"
   y1="314.03162"
   x2="292.02417"
   y2="443.03165"
   id="line364" /><line
   style="fill:none;stroke:#000000;stroke-width:1;stroke-miterlimit:10"
   stroke-miterlimit="10"
   x1="392.52417"
   y1="314.03162"
   x2="392.52417"
   y2="443.03165"
   id="line366" /><text
   y="347.03174"
   x="34.525059"
   style="font-size:18px;font-family:MyriadPro-Regular"
   font-size="18"
   id="text368">Soil sample</text>

<g
   transform="translate(-13.104839,-187.92337)"
   id="g370"><text
   style="font-size:18px;font-family:MyriadPro-Regular"
   transform="translate(46.9541,589.9551)"
   font-size="18"
   id="text372">Amount of water</text>

<text
   style="font-size:18px;font-family:MyriadPro-Regular"
   transform="translate(46.9541,611.5547)"
   font-size="18"
   id="text374">collected (cm )</text>

<text
   style="font-size:11.85369968px;font-family:MyriadPro-Regular"
   transform="translate(146.8057,604.4922)"
   font-size="11.8537"
   id="text376">3</text>

</g><text
   y="358.03174"
   x="233.46255"
   style="font-size:36px;font-family:MyriadPro-Regular"
   font-size="36"
   id="text378">J</text>

<text
   y="358.03174"
   x="326.46255"
   style="font-size:36px;font-family:MyriadPro-Regular"
   font-size="36"
   id="text380">K</text>

<text
   y="423.63132"
   x="321.02505"
   style="font-size:36px;font-family:MyriadPro-Regular"
   font-size="36"
   id="text382">19</text>

<text
   y="423.63132"
   x="418.52505"
   style="font-size:36px;font-family:MyriadPro-Regular"
   font-size="36"
   id="text384">23</text>

<text
   y="423.63132"
   x="219.27505"
   style="font-size:36px;font-family:MyriadPro-Regular"
   font-size="36"
   id="text386">28</text>

<text
   y="358.03174"
   x="430.46255"
   style="font-size:36px;font-family:MyriadPro-Regular"
   font-size="36"
   id="text388">L</text>

</svg>