<?xml version="1.0" encoding="UTF-8" standalone="no"?>
<!-- Generator: Adobe Illustrator 16.0.0, SVG Export Plug-In . SVG Version: 6.00 Build 0)  -->

<svg
   xmlns:dc="http://purl.org/dc/elements/1.1/"
   xmlns:cc="http://creativecommons.org/ns#"
   xmlns:rdf="http://www.w3.org/1999/02/22-rdf-syntax-ns#"
   xmlns:svg="http://www.w3.org/2000/svg"
   xmlns="http://www.w3.org/2000/svg"
   xmlns:sodipodi="http://sodipodi.sourceforge.net/DTD/sodipodi-0.dtd"
   xmlns:inkscape="http://www.inkscape.org/namespaces/inkscape"
   version="1.0"
   id="Layer_1"
   x="0px"
   y="0px"
   viewBox="0 0 464.39062 170.21973"
   enable-background="new 0 0 437 54"
   xml:space="preserve"
   inkscape:version="0.48.4 r9939"
   width="100%"
   height="100%"
   sodipodi:docname="canvas.svg"><metadata
   id="metadata110"><rdf:RDF><cc:Work
       rdf:about=""><dc:format>image/svg+xml</dc:format><dc:type
         rdf:resource="http://purl.org/dc/dcmitype/StillImage" /><dc:title></dc:title></cc:Work></rdf:RDF></metadata><defs
   id="defs108" /><sodipodi:namedview
   pagecolor="#ffffff"
   bordercolor="#666666"
   borderopacity="1"
   objecttolerance="10"
   gridtolerance="10"
   guidetolerance="10"
   inkscape:pageopacity="0"
   inkscape:pageshadow="2"
   inkscape:window-width="640"
   inkscape:window-height="480"
   id="namedview106"
   showgrid="false"
   inkscape:zoom="0.65446224"
   inkscape:cx="313.17783"
   inkscape:cy="69.243646"
   inkscape:window-x="0"
   inkscape:window-y="0"
   inkscape:window-maximized="0"
   inkscape:current-layer="Layer_1"
   fit-margin-top="0"
   fit-margin-left="0"
   fit-margin-right="0"
   fit-margin-bottom="0"
   showborder="false"
   inkscape:showpageshadow="false" />

<g
   transform="translate(-82.396484,-329.5)"
   id="Layer_2"><polygon
     style="fill:none;stroke:#000000;stroke-width:3;stroke-miterlimit:10"
     stroke-miterlimit="10"
     points="157.166,447.832 225.166,455.832 229.833,338.499 161.166,331.166 "
     id="polygon14" /><polygon
     style="fill:none;stroke:#000000;stroke-width:3;stroke-miterlimit:10"
     stroke-miterlimit="10"
     points="285.839,454.545 353.839,462.545 358.506,345.211 289.839,337.878 "
     id="polygon16" /><polygon
     style="fill:none;stroke:#000000;stroke-width:3;stroke-miterlimit:10"
     stroke-miterlimit="10"
     points="416.506,460.545 484.506,468.545 489.173,351.211 420.506,343.878 "
     id="polygon18" /><ellipse
     d="m 195.833,401.246 c 0,4.02947 -2.10605,7.296 -4.704,7.296 -2.59795,0 -4.704,-3.26653 -4.704,-7.296 0,-4.02947 2.10605,-7.296 4.704,-7.296 2.59795,0 4.704,3.26653 4.704,7.296 z"
     style="fill:none;stroke:#000000;stroke-width:3;stroke-miterlimit:10"
     sodipodi:ry="7.296"
     sodipodi:rx="4.704"
     sodipodi:cy="401.246"
     sodipodi:cx="191.129"
     stroke-miterlimit="10"
     cx="191.129"
     cy="401.246"
     rx="4.704"
     ry="7.296"
     id="ellipse20" /><ellipse
     d="m 325.14801,403.56299 c 0,3.13753 -2.15978,5.681 -4.824,5.681 -2.66423,0 -4.824,-2.54347 -4.824,-5.681 0,-3.13753 2.15977,-5.681 4.824,-5.681 2.66422,0 4.824,2.54347 4.824,5.681 z"
     style="fill:none;stroke:#000000;stroke-width:3;stroke-miterlimit:10"
     sodipodi:ry="5.6810002"
     sodipodi:rx="4.8239999"
     sodipodi:cy="403.56299"
     sodipodi:cx="320.32401"
     stroke-miterlimit="10"
     cx="320.32401"
     cy="403.56299"
     rx="4.8239999"
     ry="5.6810002"
     id="ellipse22" /><ellipse
     d="m 454.77099,410.659 c 0,3.15686 -2.17321,5.716 -4.854,5.716 -2.68079,0 -4.854,-2.55914 -4.854,-5.716 0,-3.15686 2.17321,-5.716 4.854,-5.716 2.68079,0 4.854,2.55914 4.854,5.716 z"
     style="fill:none;stroke:#000000;stroke-width:3;stroke-miterlimit:10"
     sodipodi:ry="5.7160001"
     sodipodi:rx="4.8540001"
     sodipodi:cy="410.659"
     sodipodi:cx="449.91699"
     stroke-miterlimit="10"
     cx="449.91699"
     cy="410.659"
     rx="4.8540001"
     ry="5.7160001"
     id="ellipse24" /><rect
     style="fill:none;stroke:#000000;stroke-width:3;stroke-miterlimit:10"
     x="99.166"
     y="385.16599"
     stroke-miterlimit="10"
     width="15.333"
     height="56.667"
     id="rect26" /><path
     style="fill:none;stroke:#000000;stroke-width:3;stroke-miterlimit:10"
     inkscape:connector-curvature="0"
     stroke-miterlimit="10"
     d="m 102.204,362.543 c 0,0 -8.789,13.177 6.593,21.49 0,0 21.888,-12.809 -4.116,-33.748 0,10e-4 2.789,8.247 -2.477,12.258 z"
     id="path28" /><line
     style="fill:none;stroke:#000000;stroke-width:3;stroke-miterlimit:10"
     stroke-miterlimit="10"
     x1="229.83299"
     y1="455.832"
     x2="281.16599"
     y2="487.16501"
     id="line30" /><line
     style="fill:none;stroke:#000000;stroke-width:3;stroke-miterlimit:10"
     stroke-miterlimit="10"
     x1="333.16599"
     y1="462.54501"
     x2="325.14801"
     y2="478.49899"
     id="line32" /><line
     style="fill:none;stroke:#000000;stroke-width:3;stroke-miterlimit:10"
     stroke-miterlimit="10"
     x1="419.83301"
     y1="462.54501"
     x2="373.16599"
     y2="491.16501"
     id="line34" /><path
     style="fill:none;stroke:#000000;stroke-width:3;stroke-miterlimit:10"
     inkscape:connector-curvature="0"
     stroke-miterlimit="10"
     d="m 516.5,397.881 c 0,0 10.667,15.62 22,18.119 0,0 -22,6.498 -22,13.165"
     id="path36" /><ellipse
     d="m 522.209,415.25 c 0,4.48731 -1.21286,8.125 -2.709,8.125 -1.49614,0 -2.709,-3.63769 -2.709,-8.125 0,-4.48731 1.21286,-8.125 2.709,-8.125 1.49614,0 2.709,3.63769 2.709,8.125 z"
     style="fill:#190a0f;stroke:#000000;stroke-width:3;stroke-miterlimit:10"
     sodipodi:ry="8.125"
     sodipodi:rx="2.7090001"
     sodipodi:cy="415.25"
     sodipodi:cx="519.5"
     stroke-miterlimit="10"
     cx="519.5"
     cy="415.25"
     rx="2.7090001"
     ry="8.125"
     id="ellipse38" /><line
     style="fill:#190a0f;stroke:#000000;stroke-width:3;stroke-miterlimit:10"
     stroke-miterlimit="10"
     x1="235.5"
     y1="379.5"
     x2="195.83299"
     y2="397.88101"
     id="line40" /><text
     style="font-size:18px;font-family:MyriadPro-Regular"
     transform="translate(285.8389,499.5)"
     font-size="18"
     id="text42">Cardboard</text>
<text
     style="font-size:18px;font-family:MyriadPro-Regular"
     transform="translate(235.5,381.5)"
     font-size="18"
     id="text44">Hole</text>
<text
     style="font-size:18px;font-family:MyriadPro-Regular"
     transform="translate(81.5,459.5449)"
     font-size="18"
     id="text46">Candle</text>
<text
     style="font-size:18px;font-family:MyriadPro-Regular"
     transform="translate(516.5,452.5)"
     font-size="18"
     id="text48">Eye</text>
</g></svg>