<?xml version="1.0" encoding="UTF-8" standalone="no"?>
<!-- Generator: Adobe Illustrator 16.0.0, SVG Export Plug-In . SVG Version: 6.00 Build 0)  -->

<svg
   xmlns:dc="http://purl.org/dc/elements/1.1/"
   xmlns:cc="http://creativecommons.org/ns#"
   xmlns:rdf="http://www.w3.org/1999/02/22-rdf-syntax-ns#"
   xmlns:svg="http://www.w3.org/2000/svg"
   xmlns="http://www.w3.org/2000/svg"
   xmlns:sodipodi="http://sodipodi.sourceforge.net/DTD/sodipodi-0.dtd"
   xmlns:inkscape="http://www.inkscape.org/namespaces/inkscape"
   version="1.0"
   id="Layer_1"
   x="0px"
   y="0px"
   viewBox="0 0 334.69308 303.87984"
   enable-background="new 0 0 437 54"
   xml:space="preserve"
   inkscape:version="0.48.4 r9939"
   width="100%"
   height="100%"
   sodipodi:docname="canvas.svg"><metadata
   id="metadata110"><rdf:RDF><cc:Work
       rdf:about=""><dc:format>image/svg+xml</dc:format><dc:type
         rdf:resource="http://purl.org/dc/dcmitype/StillImage" /><dc:title></dc:title></cc:Work></rdf:RDF></metadata><defs
   id="defs108" /><sodipodi:namedview
   pagecolor="#ffffff"
   bordercolor="#666666"
   borderopacity="1"
   objecttolerance="10"
   gridtolerance="10"
   guidetolerance="10"
   inkscape:pageopacity="0"
   inkscape:pageshadow="2"
   inkscape:window-width="640"
   inkscape:window-height="480"
   id="namedview106"
   showgrid="false"
   inkscape:zoom="0.65446224"
   inkscape:cx="168.87217"
   inkscape:cy="105.11289"
   inkscape:window-x="0"
   inkscape:window-y="0"
   inkscape:window-maximized="0"
   inkscape:current-layer="Layer_1"
   fit-margin-top="0"
   fit-margin-left="0"
   fit-margin-right="0"
   fit-margin-bottom="0"
   showborder="false"
   inkscape:showpageshadow="false" />

<g
   transform="translate(-120.08007,-154.65141)"
   id="Layer_2_1_"><path
     style="fill:none;stroke:#000000;stroke-width:2;stroke-miterlimit:10"
     inkscape:connector-curvature="0"
     stroke-miterlimit="10"
     d="M 189.142,230.394 188,225 c 0,0 -6.5,-1.5 -4.5,12.5 2,14 41,127.5 106.5,147.5 0,0 -56,6 -75,-14 0,0 27,33.5 77.5,28 0,0 -4.5,22 13.5,33.5 v 26"
     id="path11" /><path
     style="fill:none;stroke:#000000;stroke-width:2;stroke-miterlimit:10"
     inkscape:connector-curvature="0"
     stroke-miterlimit="10"
     d="M 319,458.5 318.5,432 c 0,0 26,-0.5 21.5,-40 0,0 66,11 81,-28 0,0 -33,22.5 -67.5,13 0,0 72,-42 86,-104 0,0 16.5,-16.5 9.5,-20 0,0 9.461,-16.5 1.73,-19 -7.731,-2.5 -8.73,0 -13.23,-3 -4.5,-3 -8.5,-1 -14,-4 -5.5,-3 -5,-14.5 -14.5,-6.5 -9.5,8 -17.73,17 -24.115,45 C 378.5,293.5 369,315 369,315 c 0,0 -16.5,44.5 -32.5,46 l -12.5,5.5 -8,3 -8,-3 h -12 c 0,0 -43.608,-32.415 -51.441,-150.5 0,0 -4.559,-7.5 -14.559,-6.5 -10,1 -13.5,2.816 -18,-0.092 -4.5,-2.908 -15,2.092 -15,2.092 0,0 -14,8 -6.5,22 7.5,14 27.5,54 27.5,54"
     id="path13" /><path
     style="fill:none;stroke:#000000;stroke-miterlimit:10"
     inkscape:connector-curvature="0"
     stroke-miterlimit="10"
     d="m 331.636,244.384 c 2.721,8.506 3.99,16.269 4,25.5 0.009,8.563 -2.545,15.68 -3.475,24.026 -0.954,8.577 -3.883,16.455 -6.441,24.861 -1.381,4.534 -2.977,9.064 -4.961,13.588 -0.525,1.196 -2.989,4.53 -2.645,6.01 0.637,2.735 4.748,3.555 6.039,1.015 0.54,-1.061 -1.133,-4.028 -1.018,-5.502 0.211,-2.711 1.542,-4.111 2.889,-6.496 2.237,-3.963 4.318,-9.002 6.024,-13.528 3.127,-8.294 4.744,-18.811 5.601,-27.462 0.821,-8.299 1.986,-16.049 1.986,-24.512 0,-7.312 3.064,-19.406 -7.5,-18"
     id="path15" /><path
     style="fill:none;stroke:#000000;stroke-miterlimit:10"
     inkscape:connector-curvature="0"
     stroke-miterlimit="10"
     d="m 355.004,239 c 2.759,10.482 0.158,23.742 -0.828,34.5 -0.785,8.572 -1.446,16.448 -3.325,24.461 -2.093,8.935 -4.147,18.07 -6.945,27.09 -2.382,7.68 -6.096,18.655 -10.923,24.837 -3.073,3.937 -19.335,12.463 -18.935,17.526 5.279,3.007 8.038,0.305 11.555,-3.926 2.554,-3.074 6.188,-4.947 8.8,-7.988 6.337,-7.379 8.808,-16.053 12.631,-24.998 6.793,-15.893 8.763,-31.535 10.87,-49.002 0.96,-7.958 1.268,-16.808 1.979,-25.111 0.72,-8.402 4.666,-19.35 -5.706,-18.889"
     id="path17" /><path
     style="fill:none;stroke:#000000;stroke-miterlimit:10"
     inkscape:connector-curvature="0"
     stroke-miterlimit="10"
     d="m 269.162,237.935 c -2.759,10.482 -0.158,23.742 0.828,34.5 0.785,8.572 1.446,16.448 3.325,24.461 2.093,8.935 4.147,18.07 6.945,27.09 2.382,7.68 6.096,18.655 10.923,24.837 3.073,3.937 19.335,12.463 18.935,17.526 -5.279,3.007 -8.038,0.305 -11.555,-3.926 -2.554,-3.074 -6.188,-4.947 -8.8,-7.988 -6.337,-7.379 -8.808,-16.053 -12.631,-24.998 -6.793,-15.893 -8.763,-31.535 -10.87,-49.002 -0.96,-7.958 -1.268,-16.808 -1.979,-25.111 -0.72,-8.402 -4.666,-19.35 5.706,-18.889"
     id="path19" /><path
     style="fill:#ffffff;stroke:#000000;stroke-width:2;stroke-miterlimit:10"
     inkscape:connector-curvature="0"
     stroke-miterlimit="10"
     d="m 265,228.851 c -0.627,-0.021 -1.192,-0.045 -1.813,0.076 -0.648,5.12 -0.146,7.081 3.827,10.075 3.189,2.403 7.764,7.158 10.081,3.333 3.405,-5.621 -3.439,-4.898 -5.744,-7.863 -2.035,-2.617 -2.37,-10.479 -7.852,-6.121"
     id="path21" /><path
     style="fill:#ffffff;stroke:#000000;stroke-width:2;stroke-miterlimit:10"
     inkscape:connector-curvature="0"
     stroke-miterlimit="10"
     d="m 362.498,232.184 c 0.627,-0.021 1.191,-0.045 1.813,0.076 0.648,5.12 0.146,7.081 -3.827,10.075 -3.188,2.403 -7.765,7.158 -10.081,3.333 -3.405,-5.621 3.439,-4.898 5.744,-7.863 2.034,-2.617 2.369,-10.479 7.852,-6.121"
     id="path23" /><path
     style="fill:#ffffff;stroke:#000000;stroke-width:2;stroke-miterlimit:10"
     inkscape:connector-curvature="0"
     stroke-miterlimit="10"
     d="m 335.311,235.416 c 0.44,6.564 -7.319,9.216 -10.376,13.973 8.81,8.976 25.604,-11.345 9.876,-13.473"
     id="path25" /><path
     style="fill:#ffffff;stroke:#000000;stroke-width:2;stroke-miterlimit:10"
     inkscape:connector-curvature="0"
     stroke-miterlimit="10"
     d="m 308.5,333.5 c -9.093,2.785 -15.007,13.752 -12.538,23.524 1.271,5.027 4.853,6.636 9.33,7.574 6.795,1.424 8.643,-0.44 14.084,-4.349 4.857,-3.489 9.127,-4.076 9.623,-10.872 0.441,-6.048 -3.842,-9.159 -6.137,-14.249 -2.916,-6.467 -6.674,-15.667 -6.363,-22.653 0.876,-19.703 1,-39.964 1,-60 0,-4.414 -1.066,-10.52 1.125,-14.375 2.594,-4.561 11.375,-5.475 10.383,-11.611 -1.408,-8.708 -18.258,-10.363 -20.617,-3.609 -1.513,4.331 -4.266,9.621 1.196,12.608 2.954,1.615 2.361,1.511 2.913,5.013 0.313,1.985 -0.305,4.051 -0.5,6 -0.958,9.577 -0.5,19.621 -0.5,29.376 0,10.626 0.042,21.428 1.025,31.624 0.793,8.207 -0.103,18.584 -3.525,25.5"
     id="path27" /><g
     id="g29"><path
       style="fill:none;stroke:#000000;stroke-miterlimit:10"
       inkscape:connector-curvature="0"
       stroke-miterlimit="10"
       d="m 310.621,357.692 c -1.057,0.136 -1.348,-1.868 -0.935,-2.467 0.6,-0.869 2.711,-0.793 3.533,-0.136 2.45,1.958 -2.177,3.958 -2.682,2.603"
       id="path31" /><path
       style="fill:none;stroke:#000000;stroke-miterlimit:10"
       inkscape:connector-curvature="0"
       stroke-miterlimit="10"
       d="m 315.046,357.692 c -1.057,0.136 -1.348,-1.868 -0.935,-2.467 0.6,-0.869 2.711,-0.793 3.533,-0.136 2.45,1.958 -2.177,3.958 -2.682,2.603"
       id="path33" /><path
       style="fill:none;stroke:#000000;stroke-miterlimit:10"
       inkscape:connector-curvature="0"
       stroke-miterlimit="10"
       d="m 308.972,353.808 c -1.057,0.136 -1.348,-1.868 -0.935,-2.467 0.6,-0.869 2.711,-0.793 3.533,-0.136 2.45,1.958 -2.177,3.958 -2.682,2.603"
       id="path35" /><path
       style="fill:none;stroke:#000000;stroke-miterlimit:10"
       inkscape:connector-curvature="0"
       stroke-miterlimit="10"
       d="m 312.834,354.141 c -1.057,0.136 -1.348,-1.868 -0.935,-2.467 0.6,-0.869 2.711,-0.793 3.533,-0.136 2.45,1.958 -2.177,3.958 -2.682,2.603"
       id="path37" /><path
       style="fill:none;stroke:#000000;stroke-miterlimit:10"
       inkscape:connector-curvature="0"
       stroke-miterlimit="10"
       d="m 307.435,360.841 c -1.056,0.136 -1.348,-1.868 -0.935,-2.468 0.6,-0.869 2.711,-0.793 3.533,-0.136 2.45,1.959 -2.177,3.958 -2.683,2.604"
       id="path39" /><path
       style="fill:none;stroke:#000000;stroke-miterlimit:10"
       inkscape:connector-curvature="0"
       stroke-miterlimit="10"
       d="m 306.196,356.851 c -1.056,0.136 -1.348,-1.868 -0.935,-2.467 0.6,-0.869 2.711,-0.793 3.533,-0.136 2.45,1.958 -2.177,3.958 -2.683,2.603"
       id="path41" /><path
       style="fill:none;stroke:#000000;stroke-miterlimit:10"
       inkscape:connector-curvature="0"
       stroke-miterlimit="10"
       d="m 303.011,359.468 c -1.056,0.136 -1.348,-1.868 -0.935,-2.467 0.6,-0.869 2.711,-0.793 3.533,-0.136 2.45,1.958 -2.177,3.958 -2.683,2.603"
       id="path43" /><path
       style="fill:none;stroke:#000000;stroke-miterlimit:10"
       inkscape:connector-curvature="0"
       stroke-miterlimit="10"
       d="m 312.304,361.244 c -1.056,0.136 -1.348,-1.868 -0.935,-2.468 0.6,-0.869 2.711,-0.793 3.533,-0.135 2.45,1.958 -2.177,3.958 -2.683,2.603"
       id="path45" /></g><line
     style="fill:#ffffff;stroke:#000000;stroke-width:2;stroke-miterlimit:10"
     stroke-miterlimit="10"
     x1="224.50101"
     y1="269.16501"
     x2="142.099"
     y2="265.83099"
     id="line47" /><line
     style="fill:#ffffff;stroke:#000000;stroke-width:2;stroke-miterlimit:10"
     stroke-miterlimit="10"
     x1="313.401"
     y1="357.73199"
     x2="148.50101"
     y2="350.70001"
     id="line49" /><text
     style="font-size:24px;font-family:MyriadPro-Regular"
     transform="translate(346.168,171.8311)"
     font-size="24"
     id="text51">W</text>
<text
     style="font-size:24px;font-family:MyriadPro-Regular"
     transform="translate(419.168,197.3853)"
     font-size="24"
     id="text53">X</text>
<text
     style="font-size:24px;font-family:MyriadPro-Regular"
     transform="translate(119.5996,277.3848)"
     font-size="24"
     id="text55">Z</text>
<text
     style="font-size:24px;font-family:MyriadPro-Regular"
     transform="translate(131.8345,358.1367)"
     font-size="24"
     id="text57">Y</text>
<line
     style="fill:#ffffff;stroke:#000000;stroke-width:2;stroke-miterlimit:10"
     stroke-miterlimit="10"
     x1="323.16699"
     y1="223.16701"
     x2="353.5"
     y2="178.5"
     id="line59" /><line
     style="fill:none;stroke:#000000;stroke-width:2;stroke-miterlimit:10"
     stroke-miterlimit="10"
     x1="359.17801"
     y1="238.74899"
     x2="419.168"
     y2="195.5"
     id="line61" /></g></svg>