<?xml version="1.0" encoding="UTF-8" standalone="no"?>
<!-- Generator: Adobe Illustrator 16.0.0, SVG Export Plug-In . SVG Version: 6.00 Build 0)  -->

<svg
   xmlns:dc="http://purl.org/dc/elements/1.1/"
   xmlns:cc="http://creativecommons.org/ns#"
   xmlns:rdf="http://www.w3.org/1999/02/22-rdf-syntax-ns#"
   xmlns:svg="http://www.w3.org/2000/svg"
   xmlns="http://www.w3.org/2000/svg"
   xmlns:sodipodi="http://sodipodi.sourceforge.net/DTD/sodipodi-0.dtd"
   xmlns:inkscape="http://www.inkscape.org/namespaces/inkscape"
   version="1.0"
   id="Layer_1"
   x="0px"
   y="0px"
   viewBox="0 0 168 198"
   enable-background="new 0 0 437 54"
   xml:space="preserve"
   inkscape:version="0.48.4 r9939"
   width="100%"
   height="100%"
   sodipodi:docname="canvas.svg"><metadata
   id="metadata110"><rdf:RDF><cc:Work
       rdf:about=""><dc:format>image/svg+xml</dc:format><dc:type
         rdf:resource="http://purl.org/dc/dcmitype/StillImage" /><dc:title></dc:title></cc:Work></rdf:RDF></metadata><defs
   id="defs108" /><sodipodi:namedview
   pagecolor="#ffffff"
   bordercolor="#666666"
   borderopacity="1"
   objecttolerance="10"
   gridtolerance="10"
   guidetolerance="10"
   inkscape:pageopacity="0"
   inkscape:pageshadow="2"
   inkscape:window-width="640"
   inkscape:window-height="480"
   id="namedview106"
   showgrid="false"
   inkscape:zoom="0.65446224"
   inkscape:cx="83.999995"
   inkscape:cy="96.96853"
   inkscape:window-x="0"
   inkscape:window-y="0"
   inkscape:window-maximized="0"
   inkscape:current-layer="Layer_1"
   fit-margin-top="0"
   fit-margin-left="0"
   fit-margin-right="0"
   fit-margin-bottom="0"
   showborder="false"
   inkscape:showpageshadow="false" />

<g
   id="g4416"
   transform="translate(-98.857162,-67.647888)"><path
     style="fill:#fefefe"
     d="m 98.857162,166.64789 0,-99.000002 83.999998,0 84,0 0,99.000002 0,99 -84,0 -83.999998,0 0,-99 z"
     id="path4428"
     inkscape:connector-curvature="0" /><path
     style="fill:#cbcbcb"
     d="m 112.44321,248.89789 c -0.36118,-9.2125 -1.0765,-23.5 -1.5896,-31.75 -0.5131,-8.25 -1.18586,-24 -1.49502,-35 -0.30915,-11 -0.76411,-21.35 -1.01102,-23 -0.2469,-1.65 -0.69819,-10.425 -1.00287,-19.5 -0.98946,-29.47135 -1.45667,-42.286861 -1.97864,-54.274032 l -0.51269,-11.774029 2.62529,-0.998135 c 2.97068,-1.129451 8.84678,-0.323865 10.21771,1.400801 0.50076,0.629966 1.17473,6.320393 1.49772,12.645393 0.32299,6.325 0.60431,11.6125 0.62516,11.75 0.0209,0.1375 2.01116,0.25 4.4229,0.25 3.55818,0 4.68977,-0.465158 6.0014,-2.466955 1.84254,-2.812067 6.81687,-8.059614 8.19278,-8.642769 0.50646,-0.214652 1.61279,-1.740276 2.45852,-3.390276 1.1294,-2.203444 2.97521,-3.517171 6.95171,-4.947776 5.33059,-1.917761 5.65362,-1.919355 20.96231,-0.103441 8.55156,1.014384 16.56079,1.890883 17.79829,1.947776 1.2375,0.05689 2.25,0.344512 2.25,0.639155 0,0.294643 0.7875,0.585905 1.75,0.647249 1.50475,0.0959 4.45192,0.621512 15.75,2.808917 1.1,0.212969 3.78859,0.65624 5.97464,0.985045 3.64508,0.548258 9.93687,1.954451 27.52536,6.151822 3.575,0.853149 7.26836,1.706172 8.20747,1.895608 3.91099,0.78892 10.48269,4.418407 13.15017,7.262717 5.20318,5.54809 4.72964,18.96395 -0.85454,24.21001 -3.45779,3.24843 -11.67576,3.78024 -43.47051,2.81314 -35.03199,-1.06557 -37.74795,-1.32012 -53.03259,-4.9704 -15.95856,-3.81123 -17.11954,-4.39067 -25.39969,-12.67692 -4.23455,-4.23766 -8.06478,-8.2964 -8.51164,-9.01943 -0.53542,-0.86633 -2.30873,-1.18723 -5.20056,-0.9411 l -4.38811,0.37348 0.0422,8.46208 c 0.0232,4.65414 0.34305,14.53707 0.71075,21.96207 0.85104,17.18502 2.56647,54.77804 3.23984,71 0.28538,6.875 0.71908,17 0.9638,22.5 0.2447,5.5 0.72151,16.8625 1.05957,25.25 l 0.61465,15.25 -6.94403,0 -6.94403,0 -0.65669,-16.75 z M 218.46193,122.93698 c 4.48571,-4.75509 6.51705,-9.35017 6.90855,-15.62775 0.36331,-5.82546 -1.76056,-13.670131 -4.33082,-15.996182 -1.81594,-1.643404 -12.77302,-4.407971 -13.71946,-3.461538 -0.26911,0.269114 0.18576,2.104922 1.01082,4.079573 3.96496,9.489487 1.15294,24.328377 -5.84597,30.848847 -2.73939,2.55213 -1.47003,3.28874 6.30205,3.65705 5.91503,0.2803 6.20902,0.17395 9.67483,-3.5 z m 21.14408,1.26878 c 4.25608,-3.58125 6.16608,-9.34322 5.89451,-17.78215 -0.14496,-4.50453 -0.67493,-7.286246 -1.43653,-7.540113 -0.66376,-0.221252 -1.20683,-1.002557 -1.20683,-1.736235 0,-1.33754 -8.6134,-5.219305 -9.53542,-4.297286 -0.26996,0.269957 0.22861,2.212703 1.10793,4.317213 1.9986,4.783321 2.00026,14.865611 0.003,19.645171 -0.82594,1.97675 -2.68337,4.99841 -4.12762,6.71481 l -2.62568,3.12072 4.51217,0 c 3.32551,0 5.27545,-0.64226 7.41447,-2.44213 z m 17.31046,0.91146 c 3.88647,-2.00977 5.69102,-6.60366 5.45114,-13.87709 -0.18318,-5.55417 -0.44773,-6.14366 -4.42019,-9.84913 -2.32394,-2.167746 -4.42476,-3.741949 -4.66848,-3.498225 -0.24372,0.243724 0.18265,2.216805 0.9475,4.384625 2.35294,6.66894 0.42692,19.52431 -3.26725,21.80743 -1.79549,1.10967 -1.25814,2.56306 0.94763,2.56306 1.12731,0 3.38165,-0.6888 5.00965,-1.53067 z m -65.61054,-4.75453 c 4.72517,-4.93145 6.87073,-10.68096 7.14633,-19.15013 0.18088,-5.558541 -0.28655,-7.711193 -2.89294,-13.322801 -1.31072,-2.822011 -6.85294,-4.370946 -20.70216,-5.785826 -2.475,-0.252854 -6.38425,-0.70724 -8.68722,-1.009748 -5.88494,-0.773019 -15.82785,-0.734981 -18.36493,0.07026 -2.11989,0.672826 -2.11634,0.698144 0.47789,3.405933 6.52189,6.80739 6.06463,18.755292 -1.00979,26.384732 -4.11945,4.44265 -1.70967,5.93512 17.08405,10.58084 9.12986,2.25686 12.20593,2.75148 18.42142,2.96211 3.98718,0.13512 4.82467,-0.27102 8.52735,-4.13536 z M 146.85716,107.4929 c 0,-0.46476 -0.66217,-0.84501 -1.47149,-0.84501 -0.80931,0 -3.95931,-1.10024 -7,-2.44497 -3.04068,-1.34474 -5.52851,-2.10801 -5.52851,-1.69617 0,1.00739 6.00201,6.61351 8.49937,7.93877 1.53231,0.81313 2.40834,0.69088 3.75,-0.52331 0.96285,-0.87136 1.75063,-1.96455 1.75063,-2.42931 z m 2.48459,-3.79646 c 1.10172,-3.47122 1.43573,-8.559439 0.64578,-9.837611 -0.62566,-1.012347 -2.52511,-0.737728 -8.96215,1.295732 -4.49252,1.419187 -8.16822,2.959007 -8.16822,3.421823 0,1.862176 9.40523,6.356576 14.20345,6.787286 0.9369,0.0841 1.96341,-0.66616 2.28114,-1.66723 z m -6.73459,-10.700049 c 6.45347,-1.830832 7.18476,-2.687879 4.92752,-5.77485 -1.21748,-1.665003 -1.55698,-1.687348 -4.27573,-0.281425 -4.05354,2.096165 -11.53262,9.155402 -8.90179,8.402075 1.1,-0.31498 4.8125,-1.37059 8.25,-2.3458 z M 105.128,178.04372 c 0.33229,-0.33229 1.19479,-0.36781 1.91666,-0.0789 0.79773,0.31922 0.56078,0.55618 -0.60416,0.60416 -1.05417,0.0434 -1.6448,-0.19292 -1.3125,-0.52522 z m 27.29345,-15.68896 c 0.37554,-0.98622 0.9347,-1.54122 1.24258,-1.23333 0.30789,0.30788 6.4e-4,1.11479 -0.68278,1.79312 -0.98762,0.98027 -1.10248,0.86541 -0.5598,-0.55979 z m 3.52936,0.61746 c 0.0788,-0.45338 0.0555,-1.04933 -0.0517,-1.32433 -0.85545,-2.19423 -0.62294,-3.76154 0.53285,-3.59191 0.75204,0.11038 1.71788,0.55121 2.1463,0.97963 0.42842,0.42842 0.32894,0.68815 -0.22106,0.57719 -2.12915,-0.42957 -2.69729,0.0924 -1.57388,1.44606 0.82129,0.9896 0.85046,1.60908 0.0977,2.07433 -0.59034,0.36485 -1.0089,0.29241 -0.93014,-0.16097 z m -4.65634,-7.09498 c 0.34132,-0.34132 1.32379,-0.72378 2.18327,-0.84993 0.85948,-0.12614 1.28343,0.0499 0.94211,0.39122 -0.34132,0.34132 -1.32379,0.72379 -2.18326,0.84993 -0.85948,0.12615 -1.28343,-0.0499 -0.94212,-0.39122 z"
     id="path4426"
     inkscape:connector-curvature="0" /><path
     style="fill:#989898"
     d="m 112.8392,260.89789 c -0.01,-2.6125 -0.44755,-13.525 -0.9726,-24.25 -1.56474,-31.96246 -2.05048,-42.86744 -2.47213,-55.5 -0.88423,-26.49146 -1.60758,-43.22603 -2.05318,-47.5 -0.25804,-2.475 -0.69757,-13.5 -0.97674,-24.5 -0.27917,-11.000002 -0.75968,-23.444167 -1.06781,-27.653703 -0.64036,-8.748465 -0.33533,-9.191727 6.25674,-9.092071 6.64134,0.1004 7.30368,1.120001 7.30368,11.243217 0,4.813905 0.28125,10.158805 0.625,11.877555 0.57937,2.896823 0.92764,3.125 4.76973,3.125 3.77976,0 4.49399,-0.440936 8.1113,-5.007613 2.18162,-2.754188 4.66117,-5.228065 5.5101,-5.497506 0.84893,-0.269441 2.0214,-1.755957 2.60548,-3.303369 1.74156,-4.61391 7.2879,-6.628072 17.87839,-6.492565 9.06227,0.115954 30.14266,2.919012 36.6358,4.87146 0.89968,0.27053 3.37468,0.734714 5.49999,1.031519 2.12532,0.296805 4.76421,0.705589 5.86421,0.908408 1.1,0.20282 3.73708,0.631396 5.86017,0.952393 4.24486,0.641793 20.44751,4.3892 33.51627,7.751762 13.72117,3.53043 17.82591,7.435503 18.704,17.794203 0.66068,7.79387 -1.25836,12.37106 -6.44164,15.36428 -3.08325,1.78051 -5.2264,1.92668 -25.91708,1.76768 -12.40574,-0.0953 -25.2932,-0.37398 -28.63881,-0.61921 -3.3456,-0.24523 -9.90791,-0.68615 -14.58291,-0.97981 -11.59172,-0.72814 -15.9347,-1.41358 -27,-4.26131 -5.225,-1.3447 -10.625,-2.7034 -12,-3.01934 -1.375,-0.31594 -6.71794,-4.77891 -11.8732,-9.91771 -9.04546,-9.01658 -9.53046,-9.34327 -13.87054,-9.34327 l -4.49733,0 0.67041,15.25 c 0.36872,8.3875 0.89289,20.425 1.16482,26.75 0.27192,6.325 0.6764,13.525 0.89883,16 0.22244,2.475 0.67944,13.5 1.01557,24.5 0.33612,11 0.7874,21.575 1.00283,23.5 0.21544,1.925 0.65288,10.925 0.97209,20 0.31922,9.075 0.79374,21.5625 1.05449,27.75 l 0.4741,11.25 -7.00603,0 -7.00604,0 -0.018,-4.75 z M 218.54343,123.02374 c 6.07812,-6.2588 8.60018,-15.88461 6.35073,-24.238454 -1.69719,-6.302864 -4.63332,-8.973239 -11.31083,-10.287057 -3.1756,-0.624809 -5.99401,-0.915833 -6.26313,-0.646719 -0.26911,0.269114 0.24804,2.245891 1.14923,4.392838 1.27306,3.032875 1.51485,5.834556 1.08405,12.561052 -0.57635,8.99928 -2.54498,13.75605 -7.54303,18.22613 -1.15837,1.03601 -1.86518,2.27351 -1.57069,2.75 0.29449,0.4765 3.69639,0.86636 7.55979,0.86636 6.75958,0 7.15702,-0.13661 10.54388,-3.62415 z m 20.77942,1.47247 c 5.92301,-4.65904 8.56698,-17.76254 5.0707,-25.130402 -1.29214,-2.722967 -2.81887,-4.042287 -6.14991,-5.314424 -2.43709,-0.930732 -4.62611,-1.497202 -4.86449,-1.258822 -0.23838,0.238381 0.2587,2.440848 1.10463,4.894373 2.92205,8.475145 1.39967,18.707035 -3.75107,25.210955 l -2.9698,3.75 4.41227,0 c 3.00174,0 5.28672,-0.68785 7.14767,-2.15168 z m 17.45389,0.88694 c 4.02324,-2.05398 5.8962,-6.62322 5.63119,-13.73778 -0.22395,-6.01208 -0.43656,-6.50087 -4.46051,-10.25437 -2.32394,-2.167746 -4.43752,-3.729183 -4.69685,-3.469856 -0.25933,0.259327 0.14796,2.269506 0.90508,4.467076 2.2478,6.52427 0.68514,18.36852 -2.80567,21.26562 -0.82105,0.68142 -1.49282,1.63384 -1.49282,2.11649 0,1.277 4.11035,1.047 6.91958,-0.38718 z m -66.55898,-3.74701 c 1.88661,-1.65646 4.41994,-5.11734 5.62963,-7.69084 2.48128,-5.27871 3.79947,-17.279656 2.2664,-20.633641 -4.06896,-8.9019 -3.52288,-8.536722 -15.25663,-10.20256 -7.93238,-1.12616 -9.33892,-1.282236 -18.5,-2.052847 -11.25642,-0.946868 -12.33852,-0.949837 -15.87657,-0.04356 l -2.87657,0.736837 2.07884,2.212828 c 2.93214,3.12112 5.17812,8.963859 5.15234,13.403414 -0.0259,4.456169 -2.81647,10.999999 -5.83681,13.687109 -2.70608,2.40751 -2.68674,3.19147 0.12414,5.03323 2.3641,1.54901 18.9563,6.24279 26.73359,7.56267 9.47865,1.60862 12.6867,1.214 16.36164,-2.01264 z M 145.02842,109.9929 c 2.20835,-1.99853 2.35216,-3.34501 0.35725,-3.34501 -0.80931,0 -4.02848,-1.13083 -7.15371,-2.51295 -3.12523,-1.38213 -5.85559,-2.33959 -6.06748,-2.12771 -0.42801,0.42802 9.57915,9.64066 10.47209,9.64066 0.30971,0 1.38604,-0.74475 2.39185,-1.65499 z m 4.73092,-7.49424 c 1.29101,-3.703403 1.38564,-6.849012 0.25943,-8.623532 -0.63274,-0.996962 -2.6971,-0.687032 -9.52664,1.430269 -8.4808,2.629222 -8.6684,2.753507 -6.8703,4.5516 1.89452,1.894523 10.42833,5.525223 13.38751,5.695703 0.99842,0.0575 2.08657,-1.15094 2.75,-3.05404 z m -7.15218,-9.502269 c 6.47136,-1.835908 7.90069,-3.733666 4.76937,-6.33243 -1.19983,-0.99577 -2.29032,-0.752564 -5.75,1.282394 -2.34815,1.381165 -5.39437,3.745701 -6.76937,5.254525 -2.23171,2.448914 -2.28537,2.680284 -0.5,2.155968 1.1,-0.323042 4.8125,-1.385247 8.25,-2.360457 z"
     id="path4424"
     inkscape:connector-curvature="0" /><path
     style="fill:#656565"
     d="m 112.85395,261.89789 c -0.002,-2.0625 -0.71284,-19.95 -1.58016,-39.75 -0.86733,-19.8 -1.7207,-39.825 -1.89639,-44.5 -0.91043,-24.22647 -1.71172,-44.14521 -1.9913,-49.5 -0.17229,-3.3 -0.5903,-13.2 -0.9289,-22 -0.33861,-8.800002 -0.85649,-19.661733 -1.15085,-24.137183 l -0.53521,-8.137181 2.88247,-1.004836 c 2.97184,-1.035988 7.89032,-0.589965 9.77334,0.886278 0.58963,0.462249 1.17354,5.002661 1.30092,10.115805 0.24257,9.736211 0.88143,13.909482 2.2699,14.827874 0.45797,0.302918 2.33537,0.375327 4.17201,0.16091 2.50867,-0.292873 4.19108,-1.470046 6.76336,-4.732271 1.88321,-2.388332 4.41499,-4.88776 5.62618,-5.554284 1.21118,-0.666524 2.62422,-2.422597 3.14007,-3.902384 1.49733,-4.295231 7.10681,-6.350899 17.14376,-6.282552 8.76202,0.05966 29.69859,2.798878 35.8439,4.689598 0.91856,0.282613 3.69511,0.782556 6.17011,1.110983 2.475,0.328428 5.4,0.763911 6.5,0.96774 1.1,0.203829 3.8,0.634868 6,0.957866 2.2,0.322997 4.9,0.885211 6,1.249364 1.1,0.364152 2.45,0.749431 3,0.856174 6.21011,1.205253 21.44932,4.777709 26.87991,6.301331 11.66279,3.272145 15.63029,7.499098 16.1568,17.213368 0.19253,3.55238 -0.12421,6.91636 -0.71867,7.63264 -0.58461,0.70442 -0.77246,1.28076 -0.41743,1.28076 1.55338,0 -2.98734,5.25221 -5.79911,6.70778 -2.5724,1.33165 -6.51341,1.58339 -23.1015,1.47565 -11,-0.0714 -23.825,-0.36945 -28.5,-0.66221 -4.675,-0.29277 -12.325,-0.75308 -17,-1.02291 -11.4607,-0.6615 -15.83759,-1.34526 -27,-4.21799 -5.225,-1.3447 -10.625,-2.7034 -12,-3.01934 -1.375,-0.31594 -6.71794,-4.77891 -11.8732,-9.91771 -9.04995,-9.02104 -9.52856,-9.34327 -13.8778,-9.34327 l -4.50459,0 0.65318,17.25 c 0.35925,9.4875 0.86594,20.85 1.126,25.25 0.6543,11.07052 1.48083,28.82251 1.97879,42.5 0.23028,6.325 0.65786,16.225 0.95017,22 0.82713,16.34097 1.65337,36.50367 1.95673,47.75 l 0.27648,10.25 -6.84288,0 -6.84288,0 -0.003,-3.75 z M 218.40572,123.16554 c 4.60354,-4.74039 6.40986,-8.55236 7.05534,-14.88926 1.16552,-11.442443 -2.7635,-17.984801 -11.87773,-19.778051 -3.1756,-0.624809 -6.00694,-0.902909 -6.29184,-0.617999 -0.28491,0.284909 0.22635,2.378391 1.13614,4.652182 1.21029,3.024816 1.51431,5.942931 1.13295,10.874818 -0.76421,9.88329 -2.69379,15.12546 -7.04372,19.13602 -1.42893,1.31745 -2.36037,2.77995 -2.06986,3.25 0.29051,0.47005 3.68915,0.85464 7.55255,0.85464 6.70696,0 7.17716,-0.15735 10.40617,-3.48235 z m 21.30287,0.95391 c 3.86116,-3.24896 6.52877,-10.28457 6.45847,-17.03378 -0.0757,-7.270226 -2.59713,-11.36686 -8.13157,-13.211671 -5.09787,-1.69929 -6.01148,-1.155464 -4.0965,2.438445 0.90627,1.700844 1.39685,5.580576 1.35911,10.748496 -0.0615,8.41866 -1.46841,12.67385 -5.73223,17.33695 l -2.05734,2.25 4.59759,0 c 3.45893,0 5.34179,-0.62621 7.60247,-2.52844 z m 17.93178,0.96773 c 3.74524,-2.62327 5.16338,-6.58791 4.82122,-13.4785 -0.29546,-5.95018 -0.54586,-6.51608 -4.52614,-10.22884 -2.31736,-2.161612 -4.40029,-3.743289 -4.62873,-3.514844 -0.22845,0.228446 0.0733,1.960551 0.67056,3.849124 2.51376,7.94878 0.84656,17.99717 -3.84659,23.18377 -1.47884,1.63433 -1.35663,1.75 1.84898,1.75 1.88786,0 4.43518,-0.70232 5.6607,-1.56071 z m -66.76499,-4.15876 c 7.31896,-6.90662 10.13932,-21.081389 6.0792,-30.553253 -1.94566,-4.539057 -3.33454,-5.570909 -8.59742,-6.387376 -1.65,-0.255976 -4.125,-0.680094 -5.5,-0.942484 -2.71746,-0.518573 -18.4741,-2.171938 -26.5,-2.780681 -2.75,-0.208581 -6.575,0.20809 -8.5,0.925934 -1.925,0.717845 -2.96814,1.339407 -2.31809,1.38125 1.36053,0.08758 5.40327,5.450687 5.71626,7.583203 0.11584,0.789242 0.52363,1.748011 0.90622,2.130597 1.24188,1.241885 0.7358,8.0202 -0.89521,11.99015 -0.87495,2.12967 -2.91927,5.26349 -4.54294,6.96404 -2.31796,2.42772 -2.67438,3.31227 -1.65918,4.11768 3.39942,2.69697 27.58278,8.82835 36.04893,9.13975 5.41203,0.19907 5.9954,-0.0142 9.76223,-3.56881 z m -45.58965,-10.85196 c 1.97275,-1.97274 2.01518,-3.42857 0.0999,-3.42857 -0.80931,0 -4.02848,-1.13083 -7.15371,-2.51295 -3.12523,-1.38213 -5.85559,-2.33959 -6.06748,-2.12771 -0.50503,0.50504 9.66231,9.64066 10.72941,9.64066 0.45123,0 1.52756,-0.70715 2.39184,-1.57143 z m 4.52231,-7.30999 c 0.65644,-1.58478 1.04854,-4.397282 0.87133,-6.250001 -0.38143,-3.987779 -1.42799,-4.048448 -12.09475,-0.701145 -6.46366,2.028342 -6.69678,2.208979 -5.1115,3.960694 1.71024,1.889802 10.62024,5.727222 13.51272,5.819762 0.89577,0.0287 2.16577,-1.24453 2.8222,-2.82931 z m -7.20088,-9.666006 c 3.4375,-0.979263 6.25,-2.344895 6.25,-3.034739 0,-2.3722 -1.21634,-4.417837 -2.62686,-4.417837 -1.99409,0 -8.40796,4.245695 -11.37314,7.528506 -2.8189,3.120866 -3.49494,3.12749 7.75,-0.07593 z"
     id="path4422"
     inkscape:connector-curvature="0" /><path
     style="fill:#323232"
     d="m 113.74754,264.89789 c -0.66904,-4.57709 -1.64583,-23.27207 -2.88676,-55.25 -0.5656,-14.575 -1.25415,-31.45 -1.53011,-37.5 -0.27596,-6.05 -0.74016,-17.075 -1.03156,-24.5 -0.2914,-7.425 -0.70368,-15.63033 -0.91617,-18.23407 -0.21419,-2.62447 0.0758,-5.01968 0.6507,-5.375 0.68851,-0.42553 0.69921,-0.85098 0.0318,-1.26593 -0.58058,-0.36098 -1.27506,-8.86248 -1.64399,-20.125 -0.35133,-10.725002 -0.88821,-20.915118 -1.19308,-22.644705 -0.89042,-5.051524 0.96791,-7.357954 5.91395,-7.339984 2.31815,0.0084 4.7124,0.345922 5.32057,0.75 1.53167,1.017674 2.32101,6.209321 2.49747,16.426305 0.16461,9.531452 0.61624,10.214494 6.03703,9.13033 2.84713,-0.569425 7.1005,-4.4236 17.01695,-15.419837 3.7301,-4.136257 6.36279,-5.003495 15.12048,-4.980857 9.67502,0.02501 19.67233,1.228064 34.22231,4.118241 2.75,0.546254 6.8,1.242689 9,1.547633 2.2,0.304944 4.9,0.723296 6,0.929672 1.1,0.206375 4.00586,0.655664 6.45747,0.99842 2.45161,0.342756 4.82153,0.848195 5.2665,1.123198 0.44496,0.275003 2.0391,0.716935 3.54253,0.98207 1.50342,0.265136 9.1289,2.017549 16.94549,3.894252 20.56425,4.937312 25.223,8.469972 25.82532,19.582942 0.39631,7.31212 -2.15188,13.134 -6.80188,15.54034 -2.76144,1.42902 -6.38518,1.65227 -24.73543,1.52395 -11.825,-0.0827 -23.3,-0.37339 -25.5,-0.646 -2.2,-0.27261 -9.42902,-0.72104 -16.0645,-0.99652 -12.54575,-0.52084 -16.55453,-1.10124 -29.9355,-4.33409 -12.72992,-3.07557 -15.31861,-4.55103 -24.35221,-13.87996 -7.94027,-8.19985 -8.55264,-8.61741 -12.41597,-8.46603 -2.23507,0.0876 -4.28086,0.37634 -4.5462,0.64168 -0.48174,0.48173 -0.34466,10.67663 0.29605,22.01895 0.18641,3.3 0.63556,12.525 0.99811,20.5 0.36254,7.975 0.83108,17.875 1.04118,22 0.2101,4.125 0.64084,14.475 0.95719,23 0.31635,8.525 0.7782,17.075 1.02635,19 0.24814,1.925 0.73437,14.3 1.0805,27.5 0.34614,13.2 0.74344,25.4625 0.88289,27.25 l 0.25355,3.25 -6.36072,0 c -3.4984,0 -6.41005,-0.3375 -6.47034,-0.75 z m 0.60962,-39.25 c -0.33992,-0.55 -0.81647,-1 -1.05901,-1 -0.24255,0 -0.44099,0.45 -0.44099,1 0,0.55 0.47656,1 1.05902,1 0.58246,0 0.7809,-0.45 0.44098,-1 z m -1.3125,-44.68311 c -0.72187,-0.28887 -1.58437,-0.25335 -1.91666,0.0789 -0.3323,0.3323 0.25833,0.56864 1.3125,0.52522 1.16494,-0.048 1.40189,-0.28494 0.60416,-0.60416 z M 219.36523,122.1938 c 5.05931,-5.43285 6.55948,-10.06597 6.07188,-18.75236 -0.61459,-10.948638 -3.42763,-13.908532 -14.63089,-15.394697 l -4.88815,-0.648436 2.07071,4.285873 c 1.70003,3.518659 1.98048,5.55486 1.56663,11.37479 -0.27725,3.89891 -0.69321,7.76392 -0.92436,8.58892 -1.12653,4.02063 -3.77327,8.73707 -6.11419,10.89536 -1.42893,1.31745 -2.36037,2.77995 -2.06986,3.25 0.29051,0.47005 3.73269,0.85464 7.64929,0.85464 l 7.1211,0 4.14784,-4.45409 z m 20.6227,1.70409 c 4.99349,-5.482 6.12716,-8.27845 6.1842,-15.25474 0.0719,-8.79658 -2.21285,-12.95414 -8.16473,-14.857266 -4.69627,-1.501642 -5.78859,-1.130991 -4.62355,1.568876 1.43918,3.335143 1.82744,5.77454 1.877,11.79313 0.0539,6.5472 -1.419,11.22712 -5.1144,16.25 l -2.39107,3.25 4.8638,0 c 4.03203,0 5.29217,-0.47028 7.36875,-2.75 z m 19.10345,-0.16797 c 3.12545,-2.79259 3.26578,-3.23304 3.26578,-10.25 0,-5.71691 -0.42807,-7.89523 -1.94328,-9.88875 -2.11022,-2.77636 -6.47579,-6.357545 -7.05003,-5.783308 -0.19608,0.196087 0.21171,2.827808 0.90622,5.848278 0.69451,3.02046 1.16325,6.84298 1.04165,8.49449 -0.26967,3.66237 -2.95117,10.28353 -5.14769,12.71066 -1.52433,1.68437 -1.40861,1.7866 2.02237,1.7866 2.60803,0 4.56457,-0.82681 6.90498,-2.91797 z m -70.91848,-0.23915 c 2.84274,-1.50595 6.32498,-5.56129 7.76913,-9.04777 0.63098,-1.52333 1.43682,-2.59072 1.79076,-2.37198 0.35393,0.21874 0.7152,-4.74097 0.80282,-11.02159 0.0939,-6.728483 -0.21814,-11.186026 -0.75957,-10.851408 -0.50538,0.312345 -0.91888,-0.160215 -0.91888,-1.050134 0,-0.889919 0.41891,-1.359136 0.9309,-1.042705 0.512,0.316431 1.19434,0.149083 1.51631,-0.371885 0.32198,-0.520967 0.15917,-1.210648 -0.3618,-1.532624 -0.52097,-0.321975 -1.2344,-0.120729 -1.58541,0.447214 -0.35101,0.567943 -1.06444,0.769189 -1.58541,0.447214 -0.52097,-0.321976 -0.73467,-0.929316 -0.47489,-1.349646 0.25978,-0.420329 -0.0704,-0.788243 -0.73369,-0.817587 -0.6633,-0.02934 -2.78101,-0.360305 -4.70601,-0.73547 -4.01847,-0.783163 -5.69603,-1.037478 -16,-2.425574 -15.02324,-2.02385 -20.82264,-2.252359 -25.04642,-0.986882 -3.23717,0.96988 -3.85825,1.484162 -2.80556,2.323133 2.65155,2.11323 4.92222,5.30765 5.44337,7.657853 2.06721,9.322241 1.04977,13.809251 -4.58699,20.229171 -3.46671,3.94836 -3.06675,4.64182 4.0758,7.06678 15.94184,5.4124 32.66839,7.85335 37.23554,5.43389 z m -77.95191,-8.33714 c -0.31537,-0.82184 -1.02429,-1.21559 -1.57538,-0.875 -0.6161,0.38077 -0.47947,0.95033 0.35479,1.47895 1.82081,1.15372 1.88322,1.12284 1.22059,-0.60395 z m 35.68201,-5.59139 c 0.61391,-1.1471 0.96724,-2.19153 0.78518,-2.32095 -0.29443,-0.20929 -7.94334,-3.10145 -13.33102,-5.04064 -1.1,-0.39592 0.39389,1.56774 3.31975,4.36369 5.83903,5.57976 7.54725,6.13483 9.22609,2.9979 z m 3.97891,-6.47945 c 1.26833,-3.335959 1.25274,-9.14537 -0.0267,-9.936085 -1.09014,-0.673742 -17.99809,4.406169 -17.99809,5.407438 0,1.550647 11.70997,6.953017 15.27475,7.046967 1.01069,0.0266 2.19462,-1.05755 2.75,-2.51832 z m -8.63256,-9.542312 c 3.9093,-1.159075 7.42834,-2.300145 7.8201,-2.535711 1.27554,-0.766981 -1.4858,-5.356879 -3.22277,-5.356879 -1.87484,0 -8.44071,4.525486 -11.39451,7.853602 -2.35205,2.650114 -2.01605,2.652041 6.79718,0.03899 z"
     id="path4420"
     inkscape:connector-curvature="0" /><path
     style="fill:#000000"
     d="m 113.40892,263.92216 c -0.80993,-2.11064 -0.72234,-2.27576 1.19824,-2.25896 1.34843,0.0118 1.44206,0.21049 0.40805,0.86585 -0.97849,0.62017 -0.63346,0.98597 1.27387,1.35058 3.99544,0.76377 3.98271,-0.8071 -0.022,-2.70744 -4.23071,-2.0076 -4.11573,-2.47068 0.44134,-1.77741 2.49051,0.37889 3.00422,0.75796 2,1.47581 -1.04184,0.74474 -0.96728,0.84347 0.32558,0.43107 0.92228,-0.29419 2.21488,0.11336 2.87244,0.90567 0.65756,0.79231 1.70296,1.40503 2.32311,1.36161 0.70253,-0.0492 0.65403,-0.26985 -0.12867,-0.58541 -0.69093,-0.27855 -0.9589,-0.98755 -0.59549,-1.57556 0.3634,-0.588 0.25371,-0.8218 -0.24377,-0.51955 -0.94876,0.57643 -3.60089,-1.71082 -2.85205,-2.45966 0.23773,-0.23773 -0.83932,-0.24561 -2.39344,-0.0175 -2.08942,0.30666 -2.82569,6.8e-4 -2.82569,-1.17431 0,-0.96233 0.92026,-1.63834 2.33334,-1.71404 2.21739,-0.11879 3.39183,-0.31943 5.08333,-0.86842 0.4125,-0.13388 1.12095,-0.17898 1.57433,-0.10022 0.45338,0.0787 0.52582,-0.33981 0.16097,-0.93014 -0.46525,-0.7528 -1.08473,-0.72363 -2.07433,0.0977 -1.09788,0.91116 -1.41437,0.86646 -1.42628,-0.20145 -0.012,-1.07611 -0.22005,-1.04857 -0.96353,0.12756 -0.52152,0.825 -1.07713,1.3056 -1.23469,1.06799 -0.64615,-0.97441 -4.93953,0.87534 -4.32807,1.8647 0.3628,0.58702 0.18307,1.06731 -0.39939,1.06731 -0.63259,0 -1.10934,-2.81862 -1.18401,-7 -0.0687,-3.85 -0.1907,-7.5625 -0.271,-8.25 -0.19402,-1.66109 2.59233,-2.74477 4.05697,-1.57786 0.73755,0.58762 1.43215,0.4862 1.90451,-0.27809 0.45449,-0.73538 0.32159,-0.94229 -0.34187,-0.53225 -0.59698,0.36895 -1.36807,0.21348 -1.71353,-0.34549 -0.34546,-0.55897 -1.61406,-1.04794 -2.8191,-1.0866 -2.11236,-0.0678 -2.11921,-0.10117 -0.19098,-0.92976 2,-0.85943 2,-0.85943 0,-1.02939 -1.66404,-0.14142 -1.58005,-0.28678 0.5,-0.86537 1.375,-0.38248 2.5,-1.35012 2.5,-2.15032 0,-0.80021 0.5625,-1.45492 1.25,-1.45492 1.95852,0 1.95442,-1.77934 -0.005,-2.06689 -0.96512,-0.14165 -1.53257,0.10197 -1.26101,0.54137 0.69571,1.12568 -1.99328,3.16667 -2.98656,2.26684 -0.45007,-0.40772 -0.49461,-0.17882 -0.099,0.50868 0.39564,0.6875 0.28118,1.25 -0.25435,1.25 -1.21277,0 -1.9539,-12.7999 -0.80721,-13.94112 0.46042,-0.45823 0.34792,-1.13549 -0.25,-1.50503 -0.59789,-0.36954 -1.0871,-1.37543 -1.0871,-2.23531 0,-1.30152 0.26074,-1.34704 1.55643,-0.27171 1.2869,1.06804 1.50336,1.04595 1.25,-0.12756 -0.16854,-0.7806 0.21339,-1.321 0.84872,-1.20089 0.63533,0.12011 1.37859,-0.36393 1.6517,-1.07564 0.53512,-1.39448 -1.99387,-1.57224 -4.07443,-0.28638 -0.91198,0.56363 -1.22844,-0.48869 -1.2171,-4.04734 0.01,-3.0837 0.32461,-4.32085 0.87743,-3.44832 0.47416,0.74838 0.63979,2.21088 0.36805,3.25 -0.38669,1.47871 0.0203,1.86409 1.87257,1.7733 1.69481,-0.0831 1.86986,-0.24582 0.61663,-0.57333 -2.20487,-0.57619 -2.20487,-1.23598 0,-2.95288 1.66667,-1.29781 1.66667,-1.33368 0,-0.75325 -1.31562,0.45816 -1.75,0.0718 -1.75,-1.55657 0,-1.38261 0.41756,-1.90794 1.15451,-1.45248 0.73193,0.45236 0.88236,0.27317 0.41097,-0.48954 -0.52701,-0.85273 -1.11281,-0.8966 -2.01164,-0.15063 -0.99173,0.82307 -1.40822,-0.28805 -1.91098,-5.09813 -0.89197,-8.534 -0.80246,-13.65707 0.21073,-12.05986 0.67438,1.06312 1.01459,1.06312 1.8844,0 0.76239,-0.93182 0.68781,-1.64125 -0.26471,-2.51803 -1.04394,-0.96094 -1.4252,-0.96094 -1.79164,0 -0.25603,0.67138 -0.47094,-1.1418 -0.47758,-4.0293 -0.0124,-5.38516 1.03933,-6.5092 3.74265,-4 1.07736,1 1.20556,1 0.64098,0 -0.38815,-0.6875 -0.22916,-1.25 0.3533,-1.25 0.58245,0 1.05901,-0.6895 1.05901,-1.53222 0,-0.84273 1.0125,-1.9392 2.25,-2.43662 1.2375,-0.49741 1.61776,-0.93291 0.84501,-0.96777 -1.11598,-0.0503 -1.05936,-0.44529 0.27523,-1.92001 1.4076,-1.55538 1.45838,-2.04073 0.31298,-2.99132 -0.75198,-0.62409 -1.67636,-0.82559 -2.05417,-0.44778 -1.08441,1.08441 -3.56587,1.20697 -4.18409,0.20665 -0.30965,-0.50101 0.31542,-0.91093 1.38904,-0.91093 1.07361,0 2.25183,-0.7875 2.61826,-1.75 0.53418,-1.40315 0.41665,-1.50225 -0.59301,-0.5 -0.69259,0.6875 -2.61938,1.25 -4.28175,1.25 l -3.02251,0 2.23924,1.56842 c 1.23158,0.86263 2.03974,1.8912 1.79592,2.28571 -0.24382,0.39451 0.42365,0.7173 1.48327,0.7173 1.05962,0 1.92658,-0.38013 1.92658,-0.84474 0,-0.4646 0.5108,-0.52904 1.1351,-0.1432 0.73296,0.453 0.29012,1.1699 -1.25,2.02359 -1.3118,0.72713 -1.79604,1.338 -1.07608,1.35748 0.72933,0.0197 0.99386,0.54537 0.59736,1.18693 -0.49311,0.79787 -1.12544,0.58562 -2.05902,-0.69113 -0.74105,-1.01344 -1.34736,-1.47651 -1.34736,-1.02904 0,0.44746 -0.6039,0.31237 -1.34201,-0.3002 -0.7381,-0.61257 -1.57973,-0.87604 -1.87029,-0.58549 -0.29055,0.29056 -0.55917,-2.52585 -0.59692,-6.25867 -0.0445,-4.40184 0.21735,-6.08411 0.74516,-4.78696 0.44759,1.1 0.63777,2.3064 0.42262,2.6809 -0.21515,0.3745 0.0426,0.94901 0.57286,1.27671 0.53022,0.32769 0.80621,-0.22374 0.6133,-1.2254 -0.34935,-1.81406 0.62986,-2.21029 6.20528,-2.5109 1.2375,-0.0667 2.25,-0.50888 2.25,-0.98259 0,-0.4737 -2.08907,-0.54799 -4.64238,-0.1651 -3.3543,0.50301 -4.44778,0.38128 -3.94099,-0.43873 0.42036,-0.68015 -0.0235,-1.16653 -1.10761,-1.21384 -1.10585,-0.0483 -1.31007,-0.27936 -0.5254,-0.59454 0.706,-0.28358 1.8724,-0.0269 2.59201,0.57027 1.55357,1.28934 2.69808,0.45888 1.97271,-1.43141 -0.28262,-0.7365 -1.15161,-1.09436 -1.9311,-0.79524 -0.79113,0.30359 -1.424,-0.0556 -1.43255,-0.81314 -0.0129,-1.14248 -0.15121,-1.14252 -0.875,-2.3e-4 -0.55429,0.87478 -1.08751,0.98814 -1.501,0.3191 -0.8264,-1.33715 1.06652,-2.51447 2.90717,-1.80815 0.78105,0.29972 1.73713,0.032 2.12462,-0.59501 0.46337,-0.74974 0.96372,-0.47807 1.46174,0.79367 0.69573,1.77662 0.76292,1.75094 0.8275,-0.31637 0.0779,-2.49416 -0.90679,-2.87293 -2.72972,-1.05 -0.93333,0.93333 -1.2,0.80724 -1.2,-0.56739 0,-1.34964 -0.53182,-1.62104 -2.25,-1.14822 -2.0218,0.55637 -2.08034,0.48168 -0.57718,-0.73642 1.38771,-1.12455 1.43888,-1.51684 0.30023,-2.30178 -2.09624,-1.44506 -2.51977,-19.59743 -0.47305,-20.27492 1.25479,-0.41535 1.28772,-0.23927 0.20144,1.07708 -0.89565,1.08535 -0.96553,1.77941 -0.22522,2.23695 0.59033,0.36485 0.94969,0.0879 0.79856,-0.61552 -0.15113,-0.70338 0.17522,-1.30622 0.72522,-1.33964 0.55,-0.0334 1.5625,-0.41793 2.25,-0.85447 0.7665,-0.4867 1.25592,-0.28738 1.26532,0.51531 0.0111,0.95119 0.28029,0.89898 0.98468,-0.19098 0.82843,-1.2819 0.9716,-1.24555 0.98469,0.25 0.008,0.9625 -0.43469,1.75 -0.98469,1.75 -0.55,0 -1,0.47656 -1,1.05901 0,0.58246 0.39855,0.81271 0.88565,0.51166 0.91139,-0.56327 2.3066,4.55653 1.47167,5.40037 -0.76535,0.77352 -2.27487,-2.29544 -1.63683,-3.32781 0.32369,-0.52374 0.0678,-0.63041 -0.56868,-0.23705 -0.85618,0.52914 -0.86952,1.25277 -0.0513,2.78168 0.78163,1.46049 0.79235,2.2603 0.0366,2.7274 -0.6493,0.40129 -0.0431,1.43159 1.54313,2.62282 1.43688,1.07906 2.87306,1.73692 3.19151,1.46192 0.77428,-0.66864 0.97567,-4.94914 0.22101,-4.69759 -0.32602,0.10867 -0.59277,-0.25241 -0.59277,-0.80241 0,-0.55 0.3375,-0.8875 0.75,-0.75 1.41257,0.47085 0.25209,-2.24906 -1.25,-2.92972 -1.23946,-0.56165 -1.20149,-0.69192 0.21862,-0.75 1.79861,-0.0735 1.4232,-3.07028 -0.38462,-3.07028 -0.52362,0 -0.63095,0.51953 -0.23851,1.15451 0.44563,0.72104 0.27394,0.88282 -0.45729,0.4309 -0.64395,-0.39799 -0.96196,-1.06155 -0.70669,-1.47458 0.25527,-0.41304 0.67771,-1.92885 0.93877,-3.36848 0.40607,-2.23935 0.0512,-2.71051 -2.45655,-3.2613 -1.61215,-0.35409 -2.68632,-1.03998 -2.38705,-1.52421 0.31055,-0.50249 1.60209,-0.47818 3.00872,0.0566 1.35553,0.51537 2.49903,0.83567 2.54111,0.71179 0.68727,-2.02332 0.49315,-3.61699 -0.41954,-3.44424 -0.63633,0.12044 -1.0257,-0.68101 -0.86527,-1.78101 0.2342,-1.60575 0.0976,-1.71093 -0.6928,-0.53354 -0.65517,0.97592 -0.62816,1.89581 0.0808,2.75 0.79759,0.96103 0.62829,1.28354 -0.67378,1.28354 -1.31573,0 -1.6227,-0.60852 -1.26112,-2.5 0.33426,-1.74857 0.0366,-2.5 -0.99041,-2.5 -0.91617,0 -1.24437,-0.5836 -0.87278,-1.55194 0.32754,-0.85357 0.18178,-1.29623 -0.32391,-0.98369 -0.5057,0.31254 -1.17296,0.15806 -1.48281,-0.34328 -0.30984,-0.50134 0.17814,-1.19606 1.0844,-1.54382 1.48195,-0.56868 1.45621,-0.77728 -0.25574,-2.07299 -2.55924,-1.93698 -4.49097,-1.89581 -3.73295,0.0796 0.43784,1.14099 0.81353,1.25094 1.34362,0.39324 0.48959,-0.79218 0.95044,-0.84337 1.37714,-0.15294 0.35273,0.57071 0.16212,1.33382 -0.42355,1.69579 -0.7405,0.45765 -0.70817,1.08792 0.10613,2.0691 0.64405,0.77603 0.85876,1.41097 0.47713,1.41097 -0.38163,0 0.0347,0.72857 0.92517,1.61905 2.32815,2.32814 0.93818,3.06592 -1.54404,0.81955 -1.54224,-1.39571 -1.99633,-1.5028 -1.75613,-0.41416 0.42638,1.93242 3.05771,3.94914 4.21746,3.23237 0.50355,-0.3112 0.59445,-0.0463 0.20201,0.58868 -0.80181,1.29736 -3.20751,1.55024 -3.84826,0.40451 -0.23069,-0.4125 -0.28231,-0.1875 -0.11472,0.5 0.1676,0.6875 -0.13115,1.25 -0.66389,1.25 -0.53274,0 -1.00562,-3.0375 -1.05085,-6.75 -0.0452,-3.7125 -0.28674,-7.99589 -0.53671,-9.51865 -0.32863,-2.00202 0.0403,-2.97115 1.33223,-3.499997 2.26992,-0.929147 2.78837,-3.231355 0.7277,-3.231355 -0.85746,0 -1.28091,0.45 -0.94099,1 0.33992,0.55 0.18061,1 -0.35402,1 -0.55746,0 -0.97206,-3.840982 -0.97206,-9.005275 0,-5.177109 0.38813,-8.765393 0.91304,-8.440983 0.50217,0.310361 0.91304,-0.123143 0.91304,-0.96334 0,-0.947053 -0.57008,-1.308873 -1.5,-0.952028 -0.825,0.316582 -1.5,0.07746 -1.5,-0.531385 0,-0.608844 0.3375,-0.994489 0.75,-0.856989 0.4125,0.1375 0.75,-0.2 0.75,-0.75 0,-0.55 -0.35677,-0.881077 -0.79282,-0.735726 -0.43605,0.145351 -0.30772,-0.642149 0.28518,-1.75 1.21866,-2.277089 3.94718,-2.62731 5.95435,-0.764274 1.07736,1 1.20556,1 0.64098,0 -0.4259,-0.75437 -0.11999,-1.25 0.77151,-1.25 2.63111,0 4.6408,1.178102 4.6408,2.720488 0,1.110836 -0.72227,1.361295 -2.75,0.953609 -4.21288,-0.84702 -7.96278,-1.451315 -6,-0.966898 0.9625,0.237546 1.75,0.850605 1.75,1.362352 0,0.511747 0.3375,0.877159 0.75,0.812028 2.68033,-0.42321 6.27112,0.275228 5.75,1.118421 -0.33992,0.55 -0.14147,1 0.44099,1 0.67019,0 1.05901,3.448701 1.05901,9.393011 0,10.50315 0.1977,10.792543 6.77073,9.910916 2.9462,-0.395169 4.37411,-1.206045 5.35663,-3.041901 0.73679,-1.376708 3.1772,-4.136363 5.42313,-6.132566 2.24593,-1.996203 4.37674,-4.41696 4.73513,-5.37946 1.62567,-4.365952 8.41511,0.448554 10.40975,7.381729 1.99167,6.922836 0.43163,13.376163 -4.62612,19.136613 -3.53148,4.02214 -3.14703,4.71381 3.95527,7.11603 15.79645,5.34286 37.97548,8.62259 37.97548,5.61563 0,-0.55 0.40787,-1 0.90638,-1 0.49851,0 0.67536,0.88343 0.393,1.96319 -0.41155,1.57375 -0.0901,1.88167 1.62033,1.55227 1.17354,-0.226 1.89883,-0.0309 1.61176,0.43363 -1.06569,1.72431 -17.39902,-0.16942 -30.03147,-3.48193 -17.22565,-4.51695 -16.37431,-4.06132 -26.259,-14.05369 -9.73066,-9.836655 -10.04426,-9.981696 -16.991,-7.85832 -0.6875,0.21014 -1.25,-0.2788 -1.25,-1.08654 0,-0.807735 -0.47656,-1.468612 -1.05901,-1.468612 -0.58246,0 -0.78091,-0.45 -0.44099,-1 0.33992,-0.55 0.14148,-1 -0.44098,-1 -0.58246,0 -1.11527,0.45 -1.18402,1 -0.0687,0.55 -0.2017,1.5625 -0.29545,2.25 -0.0937,0.687502 -0.6225,1.167502 -1.175,1.066662 -0.5525,-0.10083 -1.00455,0.83667 -1.00455,2.08334 0,1.24667 0.52326,2.26666 1.1628,2.26666 0.65148,0 0.97063,-0.9161 0.72578,-2.08333 -0.40833,-1.94659 -0.34286,-1.96847 0.99745,-0.33333 0.78895,0.9625 1.79209,1.75 2.2292,1.75 0.43711,0 0.049,-0.82402 -0.86242,-1.83115 -0.91145,-1.00714 -1.36318,-2.12514 -1.00387,-2.48446 0.35932,-0.359318 1.24599,0.1272 1.97038,1.08115 1.61288,2.124 1.97449,23.71948 0.38068,22.73446 -0.55,-0.33992 -1,-0.14148 -1,0.44098 0,0.58246 0.5764,1.05902 1.28088,1.05902 0.88458,0 1.37514,2.08843 1.58554,6.75 0.16755,3.7125 0.60366,12.97048 0.96911,20.57328 0.36546,7.60281 0.27007,14.52704 -0.21198,15.38718 -0.58164,1.03782 -0.5179,1.34228 0.18948,0.9051 0.61002,-0.37702 1.02625,0.099 0.97316,1.11283 -0.051,0.97438 0.26349,9.42161 0.69892,18.77161 1.29536,27.81536 1.32377,27.04505 -0.98511,26.7083 -1.59169,-0.23214 -1.70352,-0.0925 -0.54774,0.68402 0.79874,0.53664 1.81124,0.75385 2.25,0.48268 0.43876,-0.27117 0.79774,2.42172 0.79774,5.9842 0,3.56247 0.30147,7.26285 0.66994,8.22306 0.48099,1.25343 0.31183,1.52451 -0.59977,0.96111 -0.96186,-0.59447 -1.0408,-0.33117 -0.3256,1.08595 1.2315,2.44015 1.04648,8.0162 -0.24457,7.37068 -0.55,-0.275 -0.90288,-0.79135 -0.78418,-1.14744 0.11869,-0.35609 -0.78131,-0.37429 -2,-0.0404 -1.83396,0.50239 -1.91213,0.67009 -0.45357,0.97312 0.96923,0.20137 1.4622,0.8516 1.09549,1.44495 -0.36672,0.59336 -0.23824,0.81399 0.2855,0.4903 2.36477,-1.46151 3.17588,1.2999 3.51053,11.95151 l 0.351,11.172 -6.20063,-0.0659 c -4.42379,-0.0471 -6.35874,-0.47797 -6.75238,-1.50379 z m 11.44824,-6.21525 c 0,-1.35726 -1.76453,-2.24903 -2.40371,-1.21481 -0.59765,0.96702 0.26831,2.15579 1.57038,2.15579 0.45833,0 0.83333,-0.42344 0.83333,-0.94098 z m -9.21223,-8.19573 c -0.24965,-0.74895 -0.70295,-0.29565 -1.05655,1.05655 -0.43498,1.66335 -0.30484,2.05378 0.43723,1.31171 0.5811,-0.5811 0.8598,-1.64682 0.61932,-2.36826 z m 8.66953,0.0676 c -0.85724,-1.38703 -1.4573,-1.1284 -1.4573,0.62813 0,0.85746 0.45734,1.27636 1.01631,0.9309 0.55898,-0.34546 0.75742,-1.04702 0.44099,-1.55902 z m -4.06702,-3.68348 c -1.25207,-1.25207 -1.29189,-1.69413 -0.21417,-2.37742 0.80562,-0.51078 0.88248,-0.84537 0.19634,-0.85469 -1.787,-0.0243 -3.66706,2.68458 -2.40469,3.46476 0.58567,0.36197 0.8319,1.03507 0.54717,1.49577 -0.28473,0.4607 0.36681,0.60634 1.44786,0.32364 1.76877,-0.46254 1.81157,-0.66798 0.42749,-2.05206 z m -4.89028,0.75259 c -0.33992,-0.55 -0.81647,-1 -1.05901,-1 -0.24255,0 -0.44099,0.45 -0.44099,1 0,0.55 0.47656,1 1.05902,1 0.58246,0 0.7809,-0.45 0.44098,-1 z m 4.02646,-10.80687 c -0.30788,-0.30789 -1.11479,-6.4e-4 -1.79312,0.68278 -0.98027,0.98762 -0.86541,1.10248 0.55979,0.5598 0.98622,-0.37553 1.54122,-0.93469 1.23333,-1.24258 z m 3.97354,0.80687 c -0.33992,-0.55 -1.15397,-0.99311 -1.80901,-0.98469 -0.71562,0.009 -0.59228,0.40223 0.30901,0.98469 1.92113,1.24153 2.26731,1.24153 1.5,0 z m -9.03988,-8.41966 c -0.18026,-4.11794 -1.46012,-4.28272 -1.46012,-0.18799 0,2.04913 0.3538,3.50702 0.78622,3.23977 0.43243,-0.26725 0.73568,-1.64055 0.6739,-3.05178 z m 8.72738,0.73655 c -0.72187,-0.28887 -1.58437,-0.25335 -1.91666,0.0789 -0.3323,0.33229 0.25833,0.56864 1.3125,0.52522 1.16494,-0.048 1.4019,-0.28494 0.60416,-0.60416 z m -2.1875,-3.92388 c 0,-0.21615 -0.675,-0.39301 -1.5,-0.39301 -0.825,0 -1.5,0.43588 -1.5,0.96862 0,0.53273 0.675,0.70959 1.5,0.39301 0.825,-0.31659 1.5,-0.75246 1.5,-0.96862 z m 2.65538,-3.07097 c -1.06047,-1.06046 -6.73976,-1.26759 -6.0937,-0.22224 0.306,0.49511 -0.17176,0.9002 -1.06168,0.9002 -0.88992,0 -1.35913,-0.41891 -1.0427,-0.9309 0.31643,-0.512 0.0485,-1.25653 -0.5955,-1.65451 -0.73122,-0.45192 -0.90292,-0.29014 -0.45729,0.4309 0.42705,0.69098 0.0639,1.15451 -0.90451,1.15451 -0.88992,0 -1.37643,0.39092 -1.08114,0.86872 0.41593,0.67297 7.07681,0.87702 8.33114,0.25521 0.76897,-0.3812 1.70393,0.5194 1.42857,1.37607 -0.17678,0.55 0.24322,0.445 0.93334,-0.23333 0.69012,-0.67834 0.93468,-1.55342 0.54347,-1.94463 z m -5.98871,-3.82204 c 0,-1.6636 -1.23598,-2.00588 -2.11388,-0.58541 -0.31089,0.50302 6e-5,1.1425 0.69098,1.42105 0.69093,0.27856 1.29373,0.54199 1.33957,0.58541 0.0458,0.0434 0.0833,-0.59605 0.0833,-1.42105 z m 3.52083,0.81689 c -0.72187,-0.28887 -1.58437,-0.25335 -1.91666,0.0789 -0.3323,0.33229 0.25833,0.56864 1.3125,0.52522 1.16494,-0.048 1.4019,-0.28494 0.60416,-0.60416 z m -1.1875,-7.31689 c 0,-0.55 -0.47656,-1 -1.05901,-1 -0.58246,0 -0.78091,0.45 -0.44099,1 0.33992,0.55 0.81648,1 1.05902,1 0.24254,0 0.44098,-0.45 0.44098,-1 z m 2.73027,-3.93072 c -0.08,-1.0619 -0.48237,-1.72249 -0.89418,-1.46798 -0.41181,0.25451 -0.49525,1.12334 -0.18543,1.93073 0.78124,2.03585 1.2526,1.83381 1.07961,-0.46275 z m -4.44078,-6.06828 c 0.28751,-1.09946 0.0455,-2.29399 -0.53788,-2.65451 -0.59339,-0.36674 -0.76955,-0.18454 -0.39989,0.41359 0.36341,0.58801 0.12827,1.24659 -0.52254,1.46353 -0.6508,0.21693 -0.85205,0.93037 -0.44721,1.58541 1.00907,1.63272 1.30166,1.50878 1.90752,-0.80802 z m 4.25754,-1.251 c -0.38325,-3.56636 -2.38206,-9.08743 -2.48364,-6.86024 -0.0349,0.76436 -0.85089,2.02669 -1.81339,2.80516 -1.55893,1.26087 -1.48778,1.28751 0.65163,0.24391 2.02161,-0.98612 2.31089,-0.93502 1.82815,0.32298 -0.31542,0.82196 -0.0687,1.99931 0.54837,2.61633 0.82914,0.82915 0.79846,1.12186 -0.11757,1.12186 -0.96311,0 -0.95196,0.32594 0.05,1.46196 1.74095,1.97391 1.73355,1.98339 1.33645,-1.71196 z m -8.54703,0.25 c 0,-0.55 -0.47656,-1 -1.05901,-1 -0.58246,0 -0.78091,0.45 -0.44099,1 0.33992,0.55 0.81648,1 1.05902,1 0.24254,0 0.44098,-0.45 0.44098,-1 z m 1.46702,-4.05336 c -0.66156,-1.07044 2.08415,-3.04964 3.03532,-2.18796 0.45007,0.40772 0.47649,0.14951 0.0587,-0.57382 -0.6122,-1.05993 -1.09569,-1.01099 -2.49148,0.25218 -2.19177,1.98352 -3.20256,1.04296 -2.07273,-1.92872 0.72629,-1.9103 0.57748,-2.20976 -0.9054,-1.82198 -2.96553,0.7755 -1.79166,6.98033 1.32058,6.98033 0.825,0 1.29975,-0.32402 1.055,-0.72003 z m 3.97675,-8.03762 c -0.25754,-0.41671 0.32476,-0.97941 1.29399,-1.25045 0.99487,-0.2782 0.67361,-0.41257 -0.73776,-0.30857 -2.17588,0.16033 -3,0.70516 -3,1.98333 0,0.18334 0.65521,0.33334 1.45601,0.33334 0.80081,0 1.2453,-0.34095 0.98776,-0.75765 z m -1.44377,-5.46804 c 0,-0.24254 -0.45,-0.44098 -1,-0.44098 -0.55,0 -1,0.47656 -1,1.05902 0,0.58246 0.45,0.7809 1,0.44098 0.55,-0.33992 1,-0.81648 1,-1.05902 z m 3.38692,-0.62396 c -0.28882,-0.4673 -0.94402,-0.59075 -1.45602,-0.27431 -1.30838,0.80862 -1.16105,1.12396 0.52511,1.12396 0.80081,0 1.21972,-0.38234 0.93091,-0.84965 z m -8.19942,-1.50013 c -0.72187,-0.28887 -1.58437,-0.25335 -1.91666,0.0789 -0.3323,0.3323 0.25833,0.56864 1.3125,0.52522 1.16494,-0.048 1.40189,-0.28494 0.60416,-0.60416 z m 5.3871,-1.19618 c -0.87711,-1.4192 -4.51498,-2.02618 -5.22811,-0.87232 -0.36053,0.58334 -0.24848,0.82241 0.249,0.53125 0.49748,-0.29116 1.80451,-0.16731 2.90451,0.27521 2.67366,1.07559 2.69915,1.0764 2.0746,0.0659 z m 3.4254,-0.67973 c 0,-0.24254 -0.45,-0.44098 -1,-0.44098 -0.55,0 -1,0.47656 -1,1.05902 0,0.58246 0.45,0.7809 1,0.44098 0.55,-0.33992 1,-0.81648 1,-1.05902 z m -2.48784,-7.26216 c -0.79461,-0.79461 -2.51395,1.00926 -1.90347,1.99704 0.41524,0.67187 0.9306,0.56959 1.46194,-0.29014 0.45134,-0.73029 0.65003,-1.49839 0.44153,-1.7069 z m -4.15053,-11.67882 c 0.33001,-0.86 0.0201,-1.5 -0.72635,-1.5 -0.71607,0 -1.30194,0.675 -1.30194,1.5 0,0.825 0.32685,1.5 0.72634,1.5 0.39949,0 0.98537,-0.675 1.30195,-1.5 z m 2.63837,-7.05902 c 0,-0.24254 -0.45,-0.44098 -1,-0.44098 -0.55,0 -1,0.47656 -1,1.05901 0,0.58246 0.45,0.78091 1,0.44099 0.55,-0.33992 1,-0.81648 1,-1.05902 z m -1,-7.4096 c 0,-0.53274 -0.675,-0.70959 -1.5,-0.39301 -0.825,0.31658 -1.5,0.75246 -1.5,0.96862 0,0.21615 0.675,0.39301 1.5,0.39301 0.825,0 1.5,-0.43588 1.5,-0.96862 z m 2.80687,-3.55784 c -0.30788,-0.30789 -0.86704,0.24711 -1.24257,1.23333 -0.54269,1.4252 -0.42783,1.54006 0.55979,0.55979 0.68342,-0.67833 0.99067,-1.48524 0.68278,-1.79312 z m -10.2027,-1.20271 c -0.33229,-0.33229 -0.56864,0.25833 -0.52522,1.3125 0.048,1.16494 0.28494,1.4019 0.60417,0.60417 0.28887,-0.72188 0.25334,-1.58438 -0.0789,-1.91667 z m 3.40497,-2.75982 c -0.67966,-0.81895 -1.63476,-1.24239 -2.12245,-0.94099 -0.48768,0.30141 -0.88669,0.0714 -0.88669,-0.51101 0,-0.58245 0.47656,-1.05901 1.05902,-1.05901 0.58246,0 0.75667,-0.48921 0.38713,-1.08713 -1.10834,-1.79334 -2.72194,0.64282 -1.9781,2.98646 0.39244,1.23647 1.51216,2.10067 2.72178,2.10067 1.70658,0 1.84552,-0.25249 0.81931,-1.48899 z m -2.87802,-6.85302 c -0.61257,-0.73811 -0.78017,-1.71025 -0.37244,-2.16033 0.40773,-0.45007 0.15697,-0.4811 -0.55724,-0.069 -1.00047,0.57734 -1.02975,1.07324 -0.12755,2.16033 0.64405,0.77603 1.396,1.41097 1.671,1.41097 0.275,0 -0.001,-0.60391 -0.61377,-1.34201 z m 7.56343,-20.79375 c -1.4416,-0.81898 -1.56403,-1.31658 -0.6075,-2.46913 0.65888,-0.79389 0.90883,-1.73257 0.55545,-2.08595 -0.35337,-0.35337 -0.6425,-0.13162 -0.6425,0.49279 0,0.6244 -0.675,0.87626 -1.5,0.55967 -1.67187,-0.64155 -2.07814,1.16303 -0.48369,2.14846 0.55898,0.34546 0.81515,0.95361 0.56928,1.35143 -0.24587,0.39782 0.53429,0.79196 1.73369,0.87587 1.98225,0.13866 2.01641,0.0592 0.37527,-0.87314 z m 28.47671,-0.51923 c 2.55926,-2.3161 2.30377,-3.00001 -1.39726,-3.74021 -1.77431,-0.35486 -5.17279,-1.58763 -7.5522,-2.73948 -2.3794,-1.15185 -4.49051,-1.92995 -4.69135,-1.72911 -0.53645,0.53645 4.63126,6.09246 7.49793,8.06134 3.1423,2.15818 3.90094,2.17639 6.14288,0.14746 z m 3.85349,-6.91011 c 1.27467,-3.352638 1.25039,-9.146823 -0.0417,-9.945365 -0.55931,-0.345673 -4.63044,0.541266 -9.04696,1.970977 -4.41652,1.42971 -8.50379,2.306671 -9.08284,1.948802 -0.67464,-0.416951 -0.64513,0.11107 0.0821,1.470007 0.62423,1.166372 1.23162,2.122759 1.34977,2.125309 0.11815,0.002 2.91482,1.11686 6.21482,2.47626 7.62886,3.14263 9.31524,3.13526 10.52475,-0.046 z m -39.02475,-0.14812 c -0.825,-0.30543 -2.0728,-1.00855 -2.77289,-1.5625 -0.95223,-0.75345 -1.11422,-0.59367 -0.64301,0.63427 0.34643,0.9028 1.59423,1.60592 2.77289,1.5625 1.46275,-0.0539 1.66686,-0.25523 0.64301,-0.63427 z m 1.80687,-5.813243 c -0.30788,-0.307888 -0.86704,0.247112 -1.24257,1.233333 -0.54269,1.425198 -0.42783,1.540062 0.55979,0.559795 0.68342,-0.678334 0.99067,-1.485241 0.68278,-1.793128 z m -2.35687,-3.458226 c 0.5775,0.0084 0.375,0.451531 -0.45,0.984687 -1.29735,0.838413 -1.27483,0.971443 0.16667,0.984687 0.91667,0.0084 1.82483,-0.459192 2.01815,-1.039143 0.30089,-0.902681 2.09998,-1.566538 5.06518,-1.869033 0.4125,-0.04208 0.75,-0.581611 0.75,-1.198956 0,-0.775506 -0.46363,-0.737659 -1.5,0.122445 -1.1339,0.941055 -1.5,0.953507 -1.5,0.05102 0,-0.765629 -0.56296,-0.630911 -1.56944,0.375573 -1.13308,1.13308 -2.06966,1.301742 -3.36852,0.606612 -2.01513,-1.078471 -3.06204,-0.451613 -3.06204,1.833462 0,1.192592 0.26667,1.266666 1.2,0.333333 0.66,-0.66 1.6725,-1.193109 2.25,-1.184687 z m 31.38632,-0.191658 c 4.21502,-1.19699 7.79303,-2.263838 7.95112,-2.370774 0.94724,-0.640724 -2.40442,-5.452881 -3.79792,-5.452881 -1.87484,0 -8.44071,4.525486 -11.39451,7.853602 -2.35181,2.64985 -2.1929,2.649193 7.24131,-0.02995 z m -28.76504,-2.787941 c 0.55683,-4.184705 0.6956,-8.199764 0.24317,-7.035714 -1.1881,3.056876 -2.5181,4.07587 -3.86303,2.959682 -0.96293,-0.799159 -1.45572,-0.521473 -1.97433,1.112514 -0.38937,1.226803 -0.22425,2.46603 0.3782,2.838364 1.28059,0.791448 5.11509,0.883454 5.21599,0.125154 z m -4.07128,-0.629334 c 0,-0.223509 -0.1125,-0.700982 -0.25,-1.061051 -0.36649,-0.959725 3.15472,-1.308522 3.73478,-0.369952 0.271,0.438483 -0.40221,1.031274 -1.49602,1.317313 -1.09382,0.286039 -1.98876,0.3372 -1.98876,0.11369 z m 8.6,-2.90638 c 0,-1.191667 -0.495,-2.166667 -1.1,-2.166667 -0.605,0 -1.1,0.975 -1.1,2.166667 0,1.191667 0.495,2.166667 1.1,2.166667 0.605,0 1.1,-0.975 1.1,-2.166667 z m -6.00809,-2.92524 c 0.21423,-1.459652 -2.0173,-1.533776 -3.31296,-0.110046 -0.42842,0.470765 -0.21645,0.532233 0.47105,0.136594 0.795,-0.457499 1.25,-0.09119 1.25,1.006342 0,1.928832 1.27902,1.098956 1.59191,-1.03289 z m -1.43401,87.425242 c 0,-1.375 0.22697,-1.9375 0.50438,-1.25 0.27742,0.6875 0.27742,1.8125 0,2.5 -0.27741,0.6875 -0.50438,0.125 -0.50438,-1.25 z m 6.24709,-34.11623 c -1.87334,-2.08106 -1.87333,-2.11013 5.4e-4,-1.75 1.04803,0.20143 2.02072,1.15373 2.16151,2.11623 0.32624,2.23019 0.14803,2.2 -2.16205,-0.36623 z m 123.42047,-8.39165 c -0.27933,-0.27933 -5.41683,-0.50835 -11.41667,-0.50894 -5.99983,-5.9e-4 -15.97689,-0.28356 -22.17123,-0.62883 -9.52765,-0.53106 -11.22202,-0.8728 -11,-2.21861 0.14434,-0.87497 -0.26256,-1.60096 -0.90423,-1.6133 -0.64166,-0.0123 -1.54166,-0.43209 -2,-0.93277 -0.47665,-0.52069 -0.34316,-0.63015 0.31189,-0.25574 0.62987,0.36002 1.3837,0.0331 1.67518,-0.72649 0.37746,-0.98365 -0.096,-1.25173 -1.64522,-0.93159 -1.97503,0.40813 -1.94514,0.30896 0.32482,-1.07775 1.375,-0.83998 2.15336,-1.54318 1.72968,-1.56267 -0.42368,-0.0195 0.10228,-1.72293 1.16879,-3.78543 2.01819,-3.90293 6.00009,-7.90172 7.42586,-7.45736 0.45338,0.1413 0.56308,-0.1658 0.24377,-0.68246 -0.31931,-0.51665 -0.24026,-1.12904 0.17567,-1.36088 0.41593,-0.23183 0.20814,-0.28992 -0.46174,-0.12908 -0.66989,0.16084 -1.48395,-0.13792 -1.80902,-0.6639 -0.32508,-0.52597 0.44801,-1.00118 1.71797,-1.056 2.26359,-0.0977 2.25983,-0.11371 -0.19098,-0.81246 -1.80762,-0.51538 -2.68021,-0.28006 -3.15071,0.84968 -0.86627,2.08007 -0.26104,-6.874863 0.63785,-9.437542 0.56423,-1.60857 0.49034,-1.706427 -0.37749,-0.5 -0.59347,0.825 -1.08592,1.199304 -1.09434,0.831787 -0.008,-0.367516 -0.27514,-1.34531 -0.5927,-2.172875 -0.40267,-1.049341 -0.0244,-1.41589 1.25,-1.211305 2.45561,0.394207 3.52342,-0.328861 2.60901,-1.766705 -0.41304,-0.649496 -0.81414,-1.518402 -0.89131,-1.930902 -0.0772,-0.4125 -0.19656,-1.0301 -0.26531,-1.372445 -0.0687,-0.342344 -0.8213,-0.04457 -1.67233,0.661729 -1.2359,1.025703 -1.28622,1.449814 -0.25,2.107132 0.75259,0.477408 0.83755,0.829388 0.20232,0.838271 -0.60226,0.0084 -1.9095,-0.884687 -2.90499,-1.984687 -0.99548,-1.1 -1.32773,-2 -0.73832,-2 0.58941,0 1.25177,0.540336 1.4719,1.200746 0.31054,0.931596 0.56758,0.930013 1.14672,-0.0071 0.95839,-1.550671 0.16106,-1.794133 -11.8803,-3.627553 -18.41548,-2.803945 -33.33962,-3.664798 -39.5,-2.278434 -3.45016,0.776442 -3.4644,0.766266 -1,-0.714565 5.10915,-3.070031 24.62453,-1.759045 50.5,3.392442 4.95,0.985484 9.675,1.817785 10.5,1.849558 2.30741,0.08886 7.99956,1.049992 10.02429,1.692615 0.99877,0.316996 2.63939,0.745566 3.64582,0.952378 20.03488,4.116935 32.38342,7.548613 36.48899,10.14035 5.85404,3.695495 8.47532,10.580815 6.81447,17.899565 -0.5612,2.47298 -0.69193,2.12164 -0.74421,-2 -0.0806,-6.35555 -1.26492,-9.38171 -5.21916,-13.33596 -3.93361,-3.93361 -4.75154,-3.963077 -4.61668,-0.16632 0.0586,1.64874 0.44398,2.99874 0.85648,3 0.4125,10e-4 0.75,0.95738 0.75,2.12472 0,1.80744 -0.231,1.93073 -1.55642,0.83073 -0.85604,-0.71044 -1.47775,-0.87804 -1.38158,-0.37245 0.43946,2.31053 -0.21996,2.5863 -2.10503,0.88033 -1.79068,-1.62054 -1.96275,-1.63968 -1.39302,-0.15498 0.35933,0.9364 0.17524,1.69393 -0.41165,1.69393 -0.58392,0 -1.3663,-1.6875 -1.73861,-3.75 -0.37232,-2.0625 -1.11417,-4.59473 -1.64856,-5.627176 -0.67305,-1.300342 -0.60684,-2.102619 0.21547,-2.610837 0.8464,-0.523101 0.71762,-0.913814 -0.44869,-1.361371 -1.04067,-0.399343 -1.39019,-0.230331 -0.96072,0.464563 0.37128,0.60075 -0.39285,0.403885 -1.69807,-0.437478 -1.30521,-0.841362 -4.10801,-1.847011 -6.22844,-2.234775 -3.74313,-0.68451 -3.82091,-0.64074 -2.673,1.504164 0.65028,1.215054 0.92783,2.872398 0.61678,3.682987 -0.31785,0.828309 -0.13259,1.206213 0.42299,0.862842 0.5437,-0.336025 0.98855,0.0906 0.98855,0.948061 0,2.49325 -0.40243,3.06025 -2,2.8179 -0.825,-0.12515 -0.44138,0.30475 0.85249,0.95533 2.12975,1.07088 2.29279,1.63295 1.72193,5.93628 -0.99108,7.47119 -5.68164,16.45419 -7.9338,15.19422 -0.77536,-0.43378 -0.82039,-0.29113 -0.14062,0.44545 1.52082,1.64792 9.81168,1.94923 11.02972,0.40084 0.77448,-0.98452 1.7017,-1.05352 3.74056,-0.27834 1.49095,0.56686 2.66179,0.70591 2.60185,0.30899 -0.27884,-1.84655 0.24368,-2.19346 1.52291,-1.01108 0.76727,0.70919 1.24258,1.54301 1.05624,1.85293 -0.18634,0.30993 1.95971,0.26864 4.76898,-0.0918 4.01743,-0.51539 5.71317,-1.33281 7.94376,-3.82928 3.11476,-3.48602 3.28869,-3.46338 1.87894,0.24454 -0.52637,1.38447 -2.23253,3.17679 -3.79146,3.98294 -3.93392,2.03431 -13.62372,2.37437 -15.93322,0.55917 -1.66294,-1.30702 -1.70103,-1.27961 -0.44584,0.32089 1.1715,1.49377 1.1593,1.75 -0.0833,1.75 -0.80068,0 -1.68432,-0.22854 -1.96365,-0.50788 z m -21.83326,-4.71074 c 0.004,-0.39524 0.63728,-0.47706 1.40665,-0.18182 0.76937,0.29523 1.7389,-0.0134 2.15451,-0.6859 0.51782,-0.83785 0.3388,-0.96505 -0.56879,-0.40413 -0.97412,0.60204 -1.14724,0.35677 -0.65451,-0.92728 0.36847,-0.9602 0.66994,-1.9199 0.66994,-2.13266 0,-0.21275 0.70876,-0.11485 1.57502,0.21757 1.01396,0.38909 1.48108,0.11074 1.31132,-0.78139 -0.36789,-1.93342 1.0931,-7.75503 2.10281,-8.37907 0.99176,-0.61294 0.78234,1.4687 -0.32629,3.2433 -0.42949,0.6875 -0.34184,1.25 0.19479,1.25 0.53663,0 1.20266,-0.5625 1.48007,-1.25 0.30132,-0.74674 0.53617,-0.54544 0.58333,0.5 0.045,0.99824 -0.63701,1.75 -1.58772,1.75 -0.91666,0 -1.38607,0.28059 -1.04312,0.62354 0.34294,0.34294 1.43044,0.27197 2.41666,-0.15772 0.98622,-0.4297 2.35563,-0.69056 3.04313,-0.5797 0.6875,0.11085 1.25,-0.29473 1.25,-0.9013 0,-0.60657 -0.38986,-0.86191 -0.86635,-0.56742 -0.4765,0.29449 -1.67124,-0.35395 -2.65499,-1.44098 -0.98375,-1.08703 -1.42415,-1.97642 -0.97866,-1.97642 0.44549,0 0.0642,-0.82402 -0.84719,-1.83115 -1.87547,-2.07237 -1.2751,-3.31103 1.19496,-2.46542 1.51756,0.51953 1.52046,0.45279 0.0355,-0.8189 -0.88919,-0.76149 -2.12919,-4.05952 -2.75555,-7.328945 -0.62637,-3.269426 -1.69885,-6.349376 -2.3833,-6.844332 -0.86625,-0.626423 -0.72234,-0.732567 0.47352,-0.349261 0.94489,0.302862 1.95378,0.169123 2.24198,-0.297198 0.28821,-0.466321 -0.93488,-1.085086 -2.71797,-1.375033 -1.78309,-0.289946 -6.16268,-1.205556 -9.73243,-2.034688 -7.03944,-1.635024 -7.96335,-1.509259 -6.02961,0.820759 1.15451,1.391095 0.734,1.952683 -1.22994,1.642587 -0.4125,-0.06513 -0.75,0.611679 -0.75,1.504024 0,1.323057 0.27461,1.394539 1.48817,0.387376 1.20277,-0.99821 1.60332,-0.934987 2.08861,0.329668 0.33024,0.860605 0.26604,2.105815 -0.14268,2.767132 -0.49274,0.797278 -0.31935,0.940496 0.51462,0.425072 0.98498,-0.608754 1.13658,0.821539 0.69905,6.595489 -0.72585,9.5789 -1.1606,11.43113 -2.60494,11.09804 -0.65539,-0.15114 -0.88001,0.22921 -0.49921,0.84535 0.74068,1.1984 -1.37084,5.92943 -2.64635,5.92943 -0.42064,0 -0.54224,-1.22737 -0.27021,-2.72748 0.27202,-1.5001 0.20845,-2.44134 -0.14126,-2.09163 -0.34971,0.34972 -0.72445,1.23958 -0.83275,1.97748 -0.24421,1.66393 -2.15302,2.27297 -2.15302,0.68696 0,-1.50449 -3.29718,-1.98252 -4.15054,-0.60176 -0.38833,0.62833 -0.18482,0.77271 0.49603,0.35192 0.69099,-0.42705 1.15451,-0.0639 1.15451,0.90451 0,0.88992 0.41891,1.35913 0.9309,1.0427 0.512,-0.31643 1.21809,-0.11065 1.5691,0.4573 0.35101,0.56794 1.0571,0.77372 1.5691,0.45729 1.53142,-0.94647 1.05151,1.19772 -0.5691,2.54271 -2.69542,2.237 -1.60239,2.90413 5.25,3.20431 6.32313,0.27699 11.22435,-0.77933 11.2422,-2.42293 z m 6.82996,1.9329 c 0.80723,-0.97265 0.59355,-1.28571 -0.87756,-1.28571 -1.06953,0 -1.9446,0.38013 -1.9446,0.84473 0,0.4646 -0.51953,0.52365 -1.15451,0.13121 -0.7153,-0.44208 -0.88306,-0.27432 -0.44098,0.44098 0.94565,1.5301 3.09178,1.46636 4.41765,-0.13121 z m -25.82216,-1.2733 c 0,-0.85746 -0.45734,-1.27636 -1.01631,-0.9309 -0.55897,0.34546 -0.75741,1.04702 -0.44098,1.55902 0.85724,1.38704 1.45729,1.12841 1.45729,-0.62812 z m 26.49292,-2.42953 c 0.35034,-0.56686 -0.0511,-0.7345 -0.94098,-0.39301 -1.73242,0.66479 -2.04939,1.38156 -0.61096,1.38156 0.51754,0 1.21592,-0.44485 1.55194,-0.98855 z m 1.69458,-3.69457 c -0.72187,-0.28887 -1.58437,-0.25334 -1.91667,0.0789 -0.33229,0.3323 0.25834,0.56864 1.3125,0.52522 1.16495,-0.048 1.4019,-0.28494 0.60417,-0.60416 z m -25.78897,-4.48106 c -0.48531,-0.78525 -0.0258,-0.97161 1.44648,-0.5866 1.18676,0.31034 1.92662,0.19028 1.64413,-0.2668 -0.2825,-0.45708 0.27938,-1.03791 1.24862,-1.29074 1.64378,-0.42878 1.64064,-0.46748 -0.0468,-0.57568 -0.99496,-0.0638 -1.53174,-0.56464 -1.19285,-1.11298 0.39885,-0.64535 -0.19754,-0.6876 -1.69098,-0.1198 -1.26893,0.48245 -2.68215,0.89359 -3.14048,0.91364 -1.33033,0.0582 -2.12334,1.20314 -0.83332,1.20314 0.64167,0 1.16667,0.47656 1.16667,1.05901 0,0.58246 -0.41891,0.80012 -0.9309,0.48369 -0.512,-0.31643 -1.15455,-0.21345 -1.42791,0.22884 -0.27335,0.4423 0.62026,0.89664 1.98581,1.00966 1.65173,0.1367 2.24472,-0.17975 1.77153,-0.94538 z m 32.09439,-1.82437 c 0.35034,-0.56686 -0.0511,-0.7345 -0.94098,-0.39301 -1.73242,0.66479 -2.04939,1.38156 -0.61096,1.38156 0.51754,0 1.21592,-0.44485 1.55194,-0.98855 z m -25.49292,-3.07047 c 0,-0.58246 -0.45,-0.7809 -1,-0.44098 -0.55,0.33992 -1,0.81647 -1,1.05901 0,0.24255 0.45,0.44099 1,0.44099 0.55,0 1,-0.47656 1,-1.05902 z m 22.47106,-5.80326 c -0.84591,-0.84591 -3.52762,-1.03826 -3.01981,-0.2166 0.25342,0.41005 1.15557,0.74555 2.00476,0.74555 0.8492,0 1.30597,-0.23803 1.01505,-0.52895 z m 1.19561,-3.63772 c 0,-0.825002 -0.18215,-1.500002 -0.40477,-1.500002 -0.22261,0 -1.07976,0.675 -1.90476,1.500002 -1.33333,1.33333 -1.28836,1.5 0.40476,1.5 1.04762,0 1.90477,-0.675 1.90477,-1.5 z m -29.66667,-2.059019 c 0,-0.857459 -0.45734,-1.276365 -1.01631,-0.930902 -0.55897,0.345464 -0.75742,1.047021 -0.44098,1.559017 0.85723,1.387044 1.45729,1.128411 1.45729,-0.628115 z m 27,0.618034 c 0,-0.517541 -0.43281,-1.208471 -0.96179,-1.535402 -0.60695,-0.375114 -0.61608,-1.503705 -0.0247,-3.059017 1.04843,-2.75757 0.51872,-3.139635 -1.52266,-1.098257 -1.15512,1.155121 -1.14953,1.675871 0.0361,3.368638 0.77135,1.101264 1.11835,2.286411 0.7711,2.63366 -0.34727,0.347248 -0.10638,0.631361 0.53528,0.631361 0.64167,0 1.16667,-0.423442 1.16667,-0.940983 z m 2.39699,-2.89235 c 0.28327,-0.458334 -0.12038,-0.833334 -0.89699,-0.833334 -0.77661,0 -1.18026,0.375 -0.89699,0.833334 0.28326,0.458333 0.68691,0.833333 0.89699,0.833333 0.21008,0 0.61373,-0.375 0.89699,-0.833333 z m 15.63979,28.377645 c -0.69487,-0.83726 -1.77491,-1.2024 -2.40009,-0.81142 -2.93254,1.83396 -4.76354,0.79395 -2.53162,-1.43796 0.80676,-0.80677 1.99543,-0.73306 4.40336,0.27304 2.68291,1.12099 3.39126,1.13581 3.79663,0.0794 0.32379,-0.84377 -0.25536,-1.23664 -1.65335,-1.12157 -1.18344,0.0974 -2.71421,-0.0292 -3.40171,-0.28135 -1.48339,-0.54406 -1.69147,-3.24448 -0.25,-3.24448 0.55,0 1,-1.55917 1,-3.46482 0,-3.48353 2.1721,-5.74372 4.65836,-4.84727 0.6371,0.22971 1.43901,-0.0364 1.78202,-0.59145 0.34302,-0.55501 1.26487,-0.76306 2.04855,-0.46233 2.13966,0.82106 0.83142,7.01796 -3.02726,14.33954 -1.63192,3.09648 -2.81117,3.51506 -4.42489,1.57064 z m 2.62989,-6.04431 c 0,-0.825 -0.6551,-1.5 -1.45578,-1.5 -1.18064,0 -1.2205,0.28349 -0.21089,1.5 0.68469,0.825 1.33979,1.5 1.45578,1.5 0.11599,0 0.21089,-0.675 0.21089,-1.5 z m 2.9717,-2 c -0.31658,-0.825 -0.13972,-1.5 0.39301,-1.5 0.53274,0 0.96862,-0.375 0.96862,-0.83334 0,-0.45833 -0.65521,-0.83333 -1.45601,-0.83333 -0.80081,0 -1.22425,0.375 -0.94098,0.83333 0.28326,0.45834 -0.29903,0.88554 -1.29399,0.94934 -1.68742,0.1082 -1.69056,0.1469 -0.0468,0.57568 0.96924,0.25283 1.50518,0.87562 1.19099,1.384 -0.31418,0.50837 -0.0465,0.92432 0.59476,0.92432 0.6413,0 0.90699,-0.675 0.5904,-1.5 z m -143.38837,7.14009 c -2.49393,-1.23516 -3.12221,-2.91202 -0.75,-2.00172 0.825,0.31658 1.5,0.0616 1.5,-0.56657 0,-0.8055 0.55077,-0.84741 1.86852,-0.14217 1.02768,0.55 2.10762,0.76089 2.39986,0.46865 0.29225,-0.29224 0.8506,-0.0148 1.2408,0.61656 0.47426,0.76737 -0.0727,1.03806 -1.64987,0.81653 -1.48417,-0.20846 -2.26658,0.13229 -2.10931,0.91863 0.1375,0.6875 0.1375,1.19475 0,1.12721 -0.1375,-0.0675 -1.2625,-0.62424 -2.5,-1.23712 z m 88.75,-15.48828 c 0,-0.5052 0.9,-1.15391 2,-1.44156 1.1,-0.28766 2,-0.35597 2,-0.15182 0,0.20416 -0.9,0.85287 -2,1.44157 -1.10492,0.59134 -2,0.65928 -2,0.15181 z"
     id="path4418"
     inkscape:connector-curvature="0" /></g></svg>