<?xml version="1.0" encoding="UTF-8" standalone="no"?>
<!-- Generator: Adobe Illustrator 16.0.0, SVG Export Plug-In . SVG Version: 6.00 Build 0)  -->

<svg
   xmlns:dc="http://purl.org/dc/elements/1.1/"
   xmlns:cc="http://creativecommons.org/ns#"
   xmlns:rdf="http://www.w3.org/1999/02/22-rdf-syntax-ns#"
   xmlns:svg="http://www.w3.org/2000/svg"
   xmlns="http://www.w3.org/2000/svg"
   xmlns:sodipodi="http://sodipodi.sourceforge.net/DTD/sodipodi-0.dtd"
   xmlns:inkscape="http://www.inkscape.org/namespaces/inkscape"
   version="1.0"
   id="Layer_1"
   x="0px"
   y="0px"
   viewBox="0 0 592.65625 609.61191"
   enable-background="new 0 0 437 54"
   xml:space="preserve"
   inkscape:version="0.48.4 r9939"
   width="100%"
   height="100%"
   sodipodi:docname="Qn01.svg"><metadata
   id="metadata3203"><rdf:RDF><cc:Work
       rdf:about=""><dc:format>image/svg+xml</dc:format><dc:type
         rdf:resource="http://purl.org/dc/dcmitype/StillImage" /><dc:title></dc:title></cc:Work></rdf:RDF></metadata><defs
   id="defs3201" /><sodipodi:namedview
   pagecolor="#ffffff"
   bordercolor="#666666"
   borderopacity="1"
   objecttolerance="10"
   gridtolerance="10"
   guidetolerance="10"
   inkscape:pageopacity="0"
   inkscape:pageshadow="2"
   inkscape:window-width="1280"
   inkscape:window-height="716"
   id="namedview3199"
   showgrid="false"
   inkscape:zoom="0.6294383"
   inkscape:cx="86.81329"
   inkscape:cy="348.11652"
   inkscape:window-x="-8"
   inkscape:window-y="-8"
   inkscape:window-maximized="1"
   inkscape:current-layer="Layer_1"
   showborder="false"
   inkscape:showpageshadow="false"
   fit-margin-top="0"
   fit-margin-left="0"
   fit-margin-right="0"
   fit-margin-bottom="0" />



<g
   id="g4947"
   transform="translate(-2.4375,-116.1875)"><path
     d="m 247.331,522.369 c 6.144,-7.8 9.988,-18.063 4.764,-38.564 -8.265,-32.428 -16.589,-35.549 -22.825,-41.942 -6.237,-6.393 -9.172,-9.217 -9.265,-13.362 -0.038,-1.643 0.665,-7.875 2.248,-13.358 2.414,-8.358 7.012,-11.517 1.325,-20.243 -3.107,-4.771 -18.393,1.457 -23.418,-1.587 -9.281,-5.619 -16.69,-14.091 -29.639,-13.231 -12.947,0.859 -27.982,3.522 -38.373,6.618 -11.114,3.307 -11.622,1.194 -17.334,1.19 -5.712,-0.004 -13.177,3.472 -17.334,4.103 -10.454,1.588 -22.509,-12.77 -32.022,-25.671 -11.321,-15.357 -8.045,-15.785 -12.436,-19.875 -2.781,-2.591 -16.961,-15.878 -16.674,-25.506 0.433,-14.413 8.219,-28.22 8.215,-34.8 -0.009,-12.969 -3.709,-9.721 -3.188,-16.538 0.301,-3.955 7.981,-13.261 13.231,-17.868 5.25,-4.607 19.281,-16.932 21.699,-19.583 10.852,-11.91 12.702,-6.618 22.89,-16.275 5.105,-4.844 7.079,-12.406 11.91,-19.053 4.831,-6.647 11.508,-10.975 12.304,-12.304 0.796,-1.325 5.962,-10.344 10.717,-12.173 4.755,-1.825 11.021,-1.368 11.199,0.229 0.178,1.597 -2.846,6.364 6.931,2.291 7.939,-3.307 9.361,2.117 11.513,2.117 2.15,0 9.95,3.07 19.849,-2.249 11.085,-5.957 11.614,-5.305 29.109,-6.088 8.557,-0.381 27.391,-4.632 30.565,1.719 2.05,4.103 -9.128,17.203 -1.854,20.641 7.998,3.781 20.239,3.501 23.686,5.56 3.446,2.053 0.881,3.429 9.526,7.147 8.646,3.717 19.616,5.445 23.156,3.836 3.539,-1.609 -1.008,-6.169 9.657,-8.468 17.203,-3.705 30.016,8.714 34.669,7.266 4.657,-1.448 23.113,-4.077 28.182,-0.118 6.038,4.708 37.577,5.559 37.361,6.88 -0.305,1.867 -10.856,1.563 -6.796,7.283 1.118,1.567 5.449,5.716 9.526,12.3 3.811,6.169 7.372,14.794 8.469,16.539 2.265,3.616 2.646,1.994 6.202,2.312 3.565,0.317 7.452,8.998 10.603,14.756 3.158,5.754 8.375,11.999 11.517,15.086 3.137,3.086 9.37,15.374 12.439,19.053 3.069,3.68 9.899,17.5 10.983,20.379 1.075,2.879 5.589,13.164 21.039,10.454 16.364,-2.875 33.102,-10.687 36.785,-12.304 3.684,-1.617 10.585,-6.088 10.852,-4.763 0.267,1.325 2.117,14.819 0,19.053 -2.117,4.234 -10.602,11.936 -10.987,18.397 -0.927,15.747 -5.437,18.028 -8.722,23.685 -3.087,5.318 -8.926,9.878 -10.645,10.852 -3.972,2.248 -8.888,4.568 -13.054,10.407 -3.201,4.488 -21.005,23.46 -24.612,27.432 -3.612,3.972 -18.397,15.878 -20.201,30.964 -1.274,10.602 -0.44,25.142 0.618,32.022 1.059,6.88 2.384,19.319 1.715,26.729 -0.669,7.409 1.854,11.91 -7.676,23.16 -4.869,5.745 -20.908,15.348 -25.803,19.319 -4.895,3.971 -7.998,9.15 -9.717,15.899 -1.719,6.753 -3.011,20.276 -6.029,25.781 -5.001,9.115 -10.911,9.103 -16.145,14.691 -5.233,5.581 -13.63,21.438 -16.805,24.744 -2.935,3.057 -11.03,8.908 -17.025,12.084 -5.995,3.176 -27.877,12.351 -37.048,12.351 -9.171,0 -14.992,2.197 -21.699,-5.995 -3.649,-4.459 -7.147,-10.636 -7.147,-15.831 0,-3.434 -7.503,-15.184 -14.73,-28.102 -6.787,-12.126 -8.743,-28.796 -11.994,-35.46 -5.755,-11.775 -15.269,-16.775 -16.712,-23.994 -2.79,-13.938 -2.325,-21.184 -0.932,-24.346 0.907,-2.088 3.387,-5.678 3.387,-5.678 l 0,0 z"
     stroke-miterlimit="10"
     inkscape:connector-curvature="0"
     id="path37993"
     style="fill:none;stroke:#000000;stroke-width:2;stroke-miterlimit:10" /><path
     d="m 340.311,152.838 c 2.744,10.975 12.762,25.667 29.177,19.583 1.067,-0.178 2.456,-0.25 3.523,0 6.617,1.232 13.9,2.697 22.669,-2.473 0.605,-0.025 5.343,-0.483 5.91,-0.529 2.266,4.374 2.498,11.737 0.094,18.007 -1.406,3.663 -5.233,0.91 -6.627,5.106 -0.943,2.841 0.275,6.771 -1.173,9.557 -2.011,3.836 -3.938,5.026 -8.129,5.199 -2.748,0.114 -7.054,-3.408 -8.904,-3.243 -7.799,0.703 -1.532,11.855 0.475,14.595 4.78,0.377 9.396,0.796 9.264,7.278 -0.047,2.176 2.101,1.486 4.052,3.053 1.198,0.97 3.185,3.146 4.548,4.09 4.547,3.142 5.957,6.466 9.526,10.458 1.253,1.401 5.911,5.487 7.41,6.618 1.376,1.042 -1.702,5.53 -1.631,7.393 0.221,5.187 7.397,11.263 10.509,15.01 2.291,2.756 1.707,2.904 3.286,5.911 0.694,1.325 1.918,6.351 2.913,7.676 1.16,1.563 5.326,8.451 6.22,10.187 3.074,5.949 5.462,5.894 10.188,11.115 2.48,2.748 3.307,3.158 6.101,5.242 3.794,2.833 9.184,7.655 12.474,10.742 11.58,10.869 3.519,8.104 8.404,17.22 2.037,3.798 1.936,4.564 5.56,6.618 2.604,1.474 2.96,2.062 6.089,0.529 1.808,-0.885 2.371,-2.498 3.972,-3.578 3.62,-2.43 6.63,1.279 10.725,0.496 2.977,-0.567 6.885,-2.104 9.51,-3.269 5.398,-2.405 10.132,-4.479 16.208,-5.911 7.485,-1.766 11.584,-2.295 18.028,-4.585"
     stroke-miterlimit="10"
     inkscape:connector-curvature="0"
     id="path37995"
     style="fill:none;stroke:#000000;stroke-miterlimit:10" /><rect
     height="539.48901"
     width="537.08002"
     stroke-miterlimit="10"
     y="152.838"
     x="3.175"
     id="rect37997"
     style="fill:none;stroke:#000000;stroke-width:1.5;stroke-miterlimit:10" /><path
     d="m 180.615,152.838 c 0,0 -58.887,217.812 -23.384,539.489"
     stroke-miterlimit="10"
     inkscape:connector-curvature="0"
     id="path37999"
     style="fill:none;stroke:#000000;stroke-miterlimit:10" /><path
     d="m 50.474,151.602 c 0,0 -58.887,217.812 -23.385,539.489"
     stroke-miterlimit="10"
     inkscape:connector-curvature="0"
     id="path38001"
     style="fill:none;stroke:#000000;stroke-miterlimit:10" /><path
     d="m 356.74,147.957 c 36.891,175.213 35.315,332.534 2.625,546.747"
     stroke-miterlimit="10"
     inkscape:connector-curvature="0"
     id="path38003"
     style="fill:none;stroke:#000000;stroke-width:2;stroke-miterlimit:10" /><path
     d="m 512.315,147.957 c 36.892,175.213 35.316,332.534 2.625,546.747"
     stroke-miterlimit="10"
     inkscape:connector-curvature="0"
     id="path38005"
     style="fill:none;stroke:#000000;stroke-miterlimit:10" /><path
     d="m 377.329,218.64 c 10.467,-1.147 14.196,3.357 18.287,4.755 0.813,-2.198 3.442,-8.557 10.148,-10.898"
     stroke-miterlimit="10"
     inkscape:connector-curvature="0"
     id="path38007"
     style="fill:none;stroke:#000000;stroke-miterlimit:10" /><text
     font-size="25.4043"
     transform="translate(346.05,140.1294)"
     id="text38011"
     style="font-size:25.40430069px;font-family:TimesNewRomanPSMT">40  </text>
<circle
     r="3.4419999"
     cy="120.02"
     cx="373.896"
     stroke-miterlimit="10"
     sodipodi:ry="3.4419999"
     sodipodi:rx="3.4419999"
     sodipodi:cx="373.896"
     sodipodi:cy="120.02"
     id="circle38013"
     style="fill:none;stroke:#000000;stroke-width:0.75;stroke-miterlimit:10"
     d="m 377.338,120.02 c 0,1.90096 -1.54104,3.442 -3.442,3.442 -1.90097,0 -3.442,-1.54104 -3.442,-3.442 0,-1.90097 1.54103,-3.442 3.442,-3.442 1.90096,0 3.442,1.54103 3.442,3.442 z">
</circle><text
     font-size="25.4043"
     transform="translate(500.0627,140.1294)"
     id="text38017"
     style="font-size:25.40430069px;font-family:TimesNewRomanPSMT">60  </text>
<circle
     r="3.4419999"
     cy="120.02"
     cx="527.909"
     stroke-miterlimit="10"
     sodipodi:ry="3.4419999"
     sodipodi:rx="3.4419999"
     sodipodi:cx="527.909"
     sodipodi:cy="120.02"
     id="circle38019"
     style="fill:none;stroke:#000000;stroke-width:0.75;stroke-miterlimit:10"
     d="m 531.351,120.02 c 0,1.90096 -1.54104,3.442 -3.442,3.442 -1.90097,0 -3.442,-1.54104 -3.442,-3.442 0,-1.90097 1.54103,-3.442 3.442,-3.442 1.90096,0 3.442,1.54103 3.442,3.442 z">
</circle><text
     font-size="25.4043"
     transform="translate(259.2546,140.1294)"
     id="text38023"
     style="font-size:25.40430069px;font-family:TimesNewRomanPSMT">20  </text>
<circle
     r="3.4419999"
     cy="120.02"
     cx="287.09799"
     stroke-miterlimit="10"
     sodipodi:ry="3.4419999"
     sodipodi:rx="3.4419999"
     sodipodi:cx="287.09799"
     sodipodi:cy="120.02"
     id="circle38025"
     style="fill:none;stroke:#000000;stroke-width:0.75;stroke-miterlimit:10"
     d="m 290.53999,120.02 c 0,1.90096 -1.54103,3.442 -3.442,3.442 -1.90096,0 -3.442,-1.54104 -3.442,-3.442 0,-1.90097 1.54104,-3.442 3.442,-3.442 1.90097,0 3.442,1.54103 3.442,3.442 z">
</circle><text
     font-size="25.4043"
     transform="translate(34.8318,140.1294)"
     id="text38029"
     style="font-size:25.40430069px;font-family:TimesNewRomanPSMT">20  </text>
<circle
     r="3.4419999"
     cy="120.02"
     cx="62.676998"
     stroke-miterlimit="10"
     sodipodi:ry="3.4419999"
     sodipodi:rx="3.4419999"
     sodipodi:cx="62.676998"
     sodipodi:cy="120.02"
     id="circle38031"
     style="fill:none;stroke:#000000;stroke-width:0.75;stroke-miterlimit:10"
     d="m 66.118998,120.02 c 0,1.90096 -1.541036,3.442 -3.442,3.442 -1.900964,0 -3.442,-1.54104 -3.442,-3.442 0,-1.90097 1.541036,-3.442 3.442,-3.442 1.900964,0 3.442,1.54103 3.442,3.442 z">
</circle><text
     font-size="25.4043"
     transform="translate(174.3318,140.1294)"
     id="text38035"
     style="font-size:25.40430069px;font-family:TimesNewRomanPSMT">0</text>
<circle
     r="3.4419999"
     cy="120.02"
     cx="190.532"
     stroke-miterlimit="10"
     sodipodi:ry="3.4419999"
     sodipodi:rx="3.4419999"
     sodipodi:cx="190.532"
     sodipodi:cy="120.02"
     id="circle38037"
     style="fill:none;stroke:#000000;stroke-width:0.75;stroke-miterlimit:10"
     d="m 193.974,120.02 c 0,1.90096 -1.54104,3.442 -3.442,3.442 -1.90097,0 -3.442,-1.54104 -3.442,-3.442 0,-1.90097 1.54103,-3.442 3.442,-3.442 1.90096,0 3.442,1.54103 3.442,3.442 z">
</circle><text
     font-size="25.4043"
     transform="translate(342.926,725.4893)"
     id="text38041"
     style="font-size:25.40430069px;font-family:TimesNewRomanPSMT">40  </text>
<circle
     r="3.4419999"
     cy="705.37701"
     cx="370.771"
     stroke-miterlimit="10"
     sodipodi:ry="3.4419999"
     sodipodi:rx="3.4419999"
     sodipodi:cx="370.771"
     sodipodi:cy="705.37701"
     id="circle38043"
     style="fill:none;stroke:#000000;stroke-width:0.75;stroke-miterlimit:10"
     d="m 374.213,705.37701 c 0,1.90097 -1.54104,3.442 -3.442,3.442 -1.90097,0 -3.442,-1.54103 -3.442,-3.442 0,-1.90096 1.54103,-3.442 3.442,-3.442 1.90096,0 3.442,1.54104 3.442,3.442 z">
</circle><text
     font-size="25.4043"
     transform="translate(480.9348,725.4893)"
     id="text38047"
     style="font-size:25.40430069px;font-family:TimesNewRomanPSMT">60  </text>
<circle
     r="3.4419999"
     cy="705.37701"
     cx="508.78"
     stroke-miterlimit="10"
     sodipodi:ry="3.4419999"
     sodipodi:rx="3.4419999"
     sodipodi:cx="508.78"
     sodipodi:cy="705.37701"
     id="circle38049"
     style="fill:none;stroke:#000000;stroke-width:0.75;stroke-miterlimit:10"
     d="m 512.222,705.37701 c 0,1.90097 -1.54104,3.442 -3.442,3.442 -1.90097,0 -3.442,-1.54103 -3.442,-3.442 0,-1.90096 1.54103,-3.442 3.442,-3.442 1.90096,0 3.442,1.54104 3.442,3.442 z">
</circle><text
     font-size="25.4043"
     transform="translate(252.3289,725.4893)"
     id="text38053"
     style="font-size:25.40430069px;font-family:TimesNewRomanPSMT">20  </text>
<circle
     r="3.4419999"
     cy="705.37701"
     cx="280.17099"
     stroke-miterlimit="10"
     sodipodi:ry="3.4419999"
     sodipodi:rx="3.4419999"
     sodipodi:cx="280.17099"
     sodipodi:cy="705.37701"
     id="circle38055"
     style="fill:none;stroke:#000000;stroke-width:0.75;stroke-miterlimit:10"
     d="m 283.61299,705.37701 c 0,1.90097 -1.54104,3.442 -3.442,3.442 -1.90096,0 -3.442,-1.54103 -3.442,-3.442 0,-1.90096 1.54104,-3.442 3.442,-3.442 1.90096,0 3.442,1.54104 3.442,3.442 z">
</circle><text
     font-size="25.4043"
     transform="translate(15.7039,725.4893)"
     id="text38059"
     style="font-size:25.40430069px;font-family:TimesNewRomanPSMT">20  </text>
<circle
     r="3.4419999"
     cy="705.37701"
     cx="43.547001"
     stroke-miterlimit="10"
     sodipodi:ry="3.4419999"
     sodipodi:rx="3.4419999"
     sodipodi:cx="43.547001"
     sodipodi:cy="705.37701"
     id="circle38061"
     style="fill:none;stroke:#000000;stroke-width:0.75;stroke-miterlimit:10"
     d="m 46.989001,705.37701 c 0,1.90097 -1.541036,3.442 -3.442,3.442 -1.900964,0 -3.442,-1.54103 -3.442,-3.442 0,-1.90096 1.541036,-3.442 3.442,-3.442 1.900964,0 3.442,1.54104 3.442,3.442 z">
</circle><text
     font-size="25.4043"
     transform="translate(151.2502,725.4893)"
     id="text38065"
     style="font-size:25.40430069px;font-family:TimesNewRomanPSMT">0</text>
<circle
     r="3.4419999"
     cy="705.37701"
     cx="167.452"
     stroke-miterlimit="10"
     sodipodi:ry="3.4419999"
     sodipodi:rx="3.4419999"
     sodipodi:cx="167.452"
     sodipodi:cy="705.37701"
     id="circle38067"
     style="fill:none;stroke:#000000;stroke-width:0.75;stroke-miterlimit:10"
     d="m 170.894,705.37701 c 0,1.90097 -1.54104,3.442 -3.442,3.442 -1.90097,0 -3.442,-1.54103 -3.442,-3.442 0,-1.90096 1.54103,-3.442 3.442,-3.442 1.90096,0 3.442,1.54104 3.442,3.442 z">
</circle><g
     id="g38069">
	<text
   font-size="25.4043"
   transform="translate(552.219,433.1064)"
   id="text38071"
   style="font-size:25.40430069px;font-family:TimesNewRomanPSMT">0</text>

	
		<circle
   r="3.4419999"
   cy="412.995"
   cx="568.41998"
   stroke-miterlimit="10"
   sodipodi:ry="3.4419999"
   sodipodi:rx="3.4419999"
   sodipodi:cx="568.41998"
   sodipodi:cy="412.995"
   id="circle38073"
   style="fill:none;stroke:#000000;stroke-width:0.75;stroke-miterlimit:10"
   d="m 571.86198,412.995 c 0,1.90096 -1.54103,3.442 -3.442,3.442 -1.90096,0 -3.442,-1.54104 -3.442,-3.442 0,-1.90097 1.54104,-3.442 3.442,-3.442 1.90097,0 3.442,1.54103 3.442,3.442 z">
	</circle>
</g><text
     font-size="25.4043"
     transform="translate(550.2737,366.583)"
     id="text38077"
     style="font-size:25.40430069px;font-family:TimesNewRomanPSMT">10</text>
<circle
     r="3.4419999"
     cy="343.03101"
     cx="576.24402"
     stroke-miterlimit="10"
     sodipodi:ry="3.4419999"
     sodipodi:rx="3.4419999"
     sodipodi:cx="576.24402"
     sodipodi:cy="343.03101"
     id="circle38079"
     style="fill:none;stroke:#000000;stroke-width:0.75;stroke-miterlimit:10"
     d="m 579.68602,343.03101 c 0,1.90096 -1.54104,3.442 -3.442,3.442 -1.90097,0 -3.442,-1.54104 -3.442,-3.442 0,-1.90097 1.54103,-3.442 3.442,-3.442 1.90096,0 3.442,1.54103 3.442,3.442 z">
</circle><text
     font-size="25.4043"
     transform="translate(550.2737,300.2749)"
     id="text38077_1_"
     style="font-size:25.40430069px;font-family:TimesNewRomanPSMT">20</text>
<circle
     r="3.4419999"
     cy="276.72299"
     cx="576.24402"
     stroke-miterlimit="10"
     sodipodi:ry="3.4419999"
     sodipodi:rx="3.4419999"
     sodipodi:cx="576.24402"
     sodipodi:cy="276.72299"
     id="circle38079_1_"
     style="fill:none;stroke:#000000;stroke-width:0.75;stroke-miterlimit:10"
     d="m 579.68602,276.72299 c 0,1.90097 -1.54104,3.442 -3.442,3.442 -1.90097,0 -3.442,-1.54103 -3.442,-3.442 0,-1.90096 1.54103,-3.442 3.442,-3.442 1.90096,0 3.442,1.54104 3.442,3.442 z">
</circle><line
     y2="694.703"
     x2="269.789"
     y1="152.838"
     x1="269.789"
     stroke-miterlimit="10"
     id="line38083"
     style="fill:none;stroke:#000000;stroke-miterlimit:10" /><line
     y2="421.327"
     x2="540.69202"
     y1="421.327"
     x1="3.175"
     stroke-miterlimit="10"
     id="line38085"
     style="fill:none;stroke:#000000;stroke-width:2;stroke-miterlimit:10" /><line
     y2="356.67999"
     x2="540.69202"
     y1="356.67999"
     x1="3.175"
     stroke-miterlimit="10"
     id="line38089"
     style="fill:none;stroke:#000000;stroke-width:2;stroke-miterlimit:10" /><line
     y2="294.543"
     x2="540.69202"
     y1="294.543"
     x1="3.175"
     stroke-miterlimit="10"
     id="line38091"
     style="fill:none;stroke:#000000;stroke-width:2;stroke-miterlimit:10" /><line
     y2="267.314"
     x2="540.69202"
     y1="267.314"
     x1="3.175"
     stroke-miterlimit="10"
     id="line38093"
     style="fill:none;stroke:#000000;stroke-width:2;stroke-miterlimit:10" /><line
     y2="565.52197"
     x2="540.69202"
     y1="565.52197"
     x1="3.175"
     stroke-miterlimit="10"
     id="line38095"
     style="fill:none;stroke:#000000;stroke-width:0.75;stroke-miterlimit:10" /><line
     y2="237.08701"
     x2="71.084999"
     y1="192.69299"
     x1="246.17101"
     stroke-miterlimit="10"
     id="line38097"
     style="fill:none;stroke:#000000;stroke-miterlimit:10" /><line
     y2="230.203"
     x2="98.238998"
     y1="215.866"
     x1="99.195999"
     stroke-miterlimit="10"
     id="line38099"
     style="fill:none;stroke:#000000;stroke-miterlimit:10" /><line
     y2="227.366"
     x2="109.433"
     y1="196.813"
     x1="111.106"
     stroke-miterlimit="10"
     id="line38101"
     style="fill:none;stroke:#000000;stroke-miterlimit:10" /><line
     y2="223.395"
     x2="125.086"
     y1="181.39301"
     x1="125.336"
     stroke-miterlimit="10"
     id="line38103"
     style="fill:none;stroke:#000000;stroke-miterlimit:10" /><line
     y2="220.646"
     x2="135.93401"
     y1="172.336"
     x1="134.12601"
     stroke-miterlimit="10"
     id="line38105"
     style="fill:none;stroke:#000000;stroke-miterlimit:10" /><line
     y2="216.89101"
     x2="150.74001"
     y1="176.22701"
     x1="148.255"
     stroke-miterlimit="10"
     id="line38107"
     style="fill:none;stroke:#000000;stroke-miterlimit:10" /><line
     y2="214.27"
     x2="161.07201"
     y1="174.02499"
     x1="158.62801"
     stroke-miterlimit="10"
     id="line38109"
     style="fill:none;stroke:#000000;stroke-miterlimit:10" /><line
     y2="210.91299"
     x2="174.332"
     y1="177.78999"
     x1="169.87801"
     stroke-miterlimit="10"
     id="line38111"
     style="fill:none;stroke:#000000;stroke-miterlimit:10" /><line
     y2="207.673"
     x2="187.09"
     y1="177.78999"
     x1="180.61501"
     stroke-miterlimit="10"
     id="line38113"
     style="fill:none;stroke:#000000;stroke-miterlimit:10" /><line
     y2="204.21001"
     x2="200.76601"
     y1="171.30701"
     x1="190.532"
     stroke-miterlimit="10"
     id="line38115"
     style="fill:none;stroke:#000000;stroke-miterlimit:10" /><line
     y2="201.52499"
     x2="211.342"
     y1="171.214"
     x1="201.14301"
     stroke-miterlimit="10"
     id="line38117"
     style="fill:none;stroke:#000000;stroke-miterlimit:10" /><line
     y2="199.002"
     x2="221.29201"
     y1="168.631"
     x1="212.72701"
     stroke-miterlimit="10"
     id="line38119"
     style="fill:none;stroke:#000000;stroke-miterlimit:10" /><line
     y2="196.491"
     x2="234.99001"
     y1="166.88699"
     x1="225.992"
     stroke-miterlimit="10"
     id="line38121"
     style="fill:none;stroke:#000000;stroke-miterlimit:10" /><g
     id="g38123">
	<rect
   height="27.259001"
   width="21.382"
   y="183.65401"
   x="130.612"
   id="rect38125"
   style="fill:#ffffff" />
	<text
   font-size="25.4043"
   transform="translate(135.8254,205.8872)"
   id="text38127"
   style="font-size:25.40430069px;font-family:TimesNewRomanPS-BoldMT">P</text>

</g><text
     font-size="25.4043"
     transform="translate(298.1497,592.4336)"
     id="text38129"
     style="font-size:25.40430069px;font-family:TimesNewRomanPS-BoldMT">Q</text>
<text
     font-size="25.4043"
     transform="translate(280.5037,510.3984)"
     id="text38131"
     style="font-size:25.40430069px;font-family:TimesNewRomanPS-BoldMT">R</text>
<path
     d="m 298.149,206.687 c 5.025,2.041 11.009,8.692 12.545,13.371 1.851,5.619 -0.283,10.996 5.094,14.857"
     stroke-miterlimit="10"
     inkscape:connector-curvature="0"
     id="path38133"
     style="fill:none;stroke:#000000;stroke-width:2;stroke-miterlimit:10" /><path
     d="m 320.729,198.926 c 0,6.432 -0.152,12.241 -1.41,18.295 -1.101,5.31 -4.657,11.987 -3.531,16.987"
     stroke-miterlimit="10"
     inkscape:connector-curvature="0"
     id="path38135"
     style="fill:none;stroke:#000000;stroke-width:2;stroke-miterlimit:10" /><path
     d="m 336.255,203.863 c -4.776,5.712 -5.614,14.332 -10.725,19.578 -7.639,7.846 -15.124,12.194 -9.087,25.637 1.156,2.583 5.602,4.492 6.952,7.338 3.578,7.532 -0.694,18.723 3.116,25.658 4.396,7.994 18.728,7.558 20.676,17.711 1.358,7.092 -7.795,17.288 -7.566,23.359 0.689,18.384 20.188,9.243 29.693,14.129 9.738,4.979 7.164,1.198 30.286,3.844 7.223,0.826 10.344,-7.528 12.689,-13.76"
     stroke-miterlimit="10"
     inkscape:connector-curvature="0"
     id="path38137"
     style="fill:none;stroke:#000000;stroke-width:2;stroke-miterlimit:10" /><path
     d="m 395.354,340.588 c 8.409,2.884 9.196,8.426 11.936,15.349 1.681,4.251 7.448,15.103 12.939,14.29"
     stroke-miterlimit="10"
     inkscape:connector-curvature="0"
     id="path38139"
     style="fill:none;stroke:#000000;stroke-width:2;stroke-miterlimit:10" /><path
     d="m 277.33,617.39 c 3.595,-1.825 4.864,-5.665 7.562,-8.316 8.079,-7.942 15.222,-6.38 26.898,-2.214 11.919,4.251 24.685,8.319 36.46,11.589"
     stroke-miterlimit="10"
     inkscape:connector-curvature="0"
     id="path38141"
     style="fill:none;stroke:#000000;stroke-width:2;stroke-miterlimit:10" /><path
     d="m 306.705,604.869 c 13.871,-6.292 26.726,-6.216 27.433,-24.879"
     stroke-miterlimit="10"
     inkscape:connector-curvature="0"
     id="path38143"
     style="fill:none;stroke:#000000;stroke-width:2;stroke-miterlimit:10" /><path
     d="m 345.43,307.597 c -2.456,4.167 -10.284,5.75 -13.922,10.039 -4.496,5.292 -2.734,10.047 -3.726,16.775 -0.936,6.343 -4.467,12.884 -2.282,20.294 3.078,10.466 7.795,20.082 13.554,29.981 7.185,12.346 -3.785,26.458 -4.899,40.194 -0.673,8.312 -0.046,14.912 1.787,22.885"
     stroke-miterlimit="10"
     inkscape:connector-curvature="0"
     id="path38145"
     style="fill:none;stroke:#000000;stroke-width:2;stroke-miterlimit:10" /><path
     d="m 329.057,465.845 c -0.042,-1.017 0.538,-1.965 0.576,-2.973 0.042,-1.037 0.004,-2.393 -0.529,-3.354 -1.071,-1.909 -3.243,-3.578 -3.557,-5.694 -0.229,-1.563 -0.271,-3.185 0.978,-4.552 0.97,-1.059 3.223,-1.321 4.811,-1.872 1.431,-0.495 2.718,-1.147 4.217,-1.494 1.854,-0.437 3.54,-0.411 5.521,-0.525 1.347,-0.084 2.819,-0.144 4.081,0.089 0.877,0.165 1.55,0.547 2.287,0.855 0.372,1.063 1.909,1.728 1.824,2.973 -0.093,1.274 -1.376,2.777 -2.607,3.684 -1.47,1.084 -3.468,1.55 -5.204,2.393 -1.88,0.914 -2.507,1.935 -2.596,3.51 -0.216,3.696 2.503,7.088 2.503,10.737 0,0.961 0.178,2.007 -1.025,2.668 -1.659,0.927 -3.552,0.406 -5.161,-0.288 -2.155,-0.928 -2.519,-2.414 -3.59,-3.887 -0.682,-0.94 -1.66,-1.698 -2.63,-2.405"
     stroke-miterlimit="10"
     inkscape:connector-curvature="0"
     id="path38147"
     style="fill:none;stroke:#000000;stroke-width:2;stroke-miterlimit:10" /><path
     d="m 331.314,557.054 c -0.529,0.102 -1.046,0.081 -1.55,-0.08 -2.468,-5.58 -0.432,-4.298 -7.045,-5.741 -6.178,-1.351 -4.374,-5.466 -4.726,-11.025 -2.803,-0.961 -3.709,-3.765 -2.464,-6.352 2.68,-1.346 0.881,-4.538 0.521,-6.893 0.89,0.152 2.121,-0.297 3.015,-0.157 0.876,-4.525 11.313,-10.445 15.853,-9.898 2.591,3.12 9.446,9.522 13.57,5.275 0.783,0.072 1.498,0.419 2.324,0.559 2.366,3.214 -1.55,8.219 1.583,10.056 0.123,2.164 0.745,5.733 0.089,7.838 -1.376,4.425 -3.671,2.659 -7.435,5.31 -5.618,3.958 -7.008,11.881 -15.853,11.639"
     stroke-miterlimit="10"
     inkscape:connector-curvature="0"
     id="path38149"
     style="fill:none;stroke:#000000;stroke-width:2;stroke-miterlimit:10" /><line
     y2="537.22998"
     x2="325.42001"
     y1="513.65503"
     x1="298.14899"
     stroke-miterlimit="10"
     id="line38151"
     style="fill:none;stroke:#000000;stroke-miterlimit:10" /><circle
     r="5.2919998"
     cy="300.89499"
     cx="353.28"
     sodipodi:ry="5.2919998"
     sodipodi:rx="5.2919998"
     sodipodi:cx="353.28"
     sodipodi:cy="300.89499"
     id="circle38153"
     d="m 358.572,300.89499 c 0,2.92269 -2.36931,5.292 -5.292,5.292 -2.92269,0 -5.292,-2.36931 -5.292,-5.292 0,-2.92269 2.36931,-5.292 5.292,-5.292 2.92269,0 5.292,2.36931 5.292,5.292 z">
</circle><text
     font-size="25.4043"
     transform="translate(230.489,314.6558)"
     id="text38155"
     style="font-size:25.40430069px;font-family:TimesNewRomanPSMT">Khartoum</text>
<text
     font-size="25.4043"
     transform="translate(26.196,447.7705)"
     id="text38157"
     style="font-size:25.40430069px;font-family:TimesNewRomanPSMT">Equator</text>
<text
     font-size="25.4042"
     transform="matrix(-0.0244,-0.9997,0.9997,-0.0244,140.0842,625.4316)"
     id="text38159"
     style="font-size:25.4041996px;font-family:TimesNewRomanPSMT">Prime meridian</text>
<circle
     r="3.4419999"
     cy="230.849"
     cx="591.284"
     stroke-miterlimit="10"
     sodipodi:ry="3.4419999"
     sodipodi:rx="3.4419999"
     sodipodi:cx="591.284"
     sodipodi:cy="230.849"
     id="circle38163"
     style="fill:none;stroke:#000000;stroke-width:0.75;stroke-miterlimit:10"
     d="m 594.726,230.849 c 0,1.90096 -1.54104,3.442 -3.442,3.442 -1.90097,0 -3.442,-1.54104 -3.442,-3.442 0,-1.90097 1.54103,-3.442 3.442,-3.442 1.90096,0 3.442,1.54103 3.442,3.442 z">
</circle><g
     id="g38165">
	<text
   font-size="25.4043"
   transform="translate(550.2737,261.2803)"
   id="text38167"
   style="font-size:25.40430069px;font-family:TimesNewRomanPSMT">23</text>

	<g
   id="g38169">
		<text
   font-size="16.9362"
   transform="translate(576.4993,248.5815)"
   id="text38171"
   style="font-size:16.93619919px;font-family:TimesNewRomanPSMT">1</text>

		<text
   font-size="16.9362"
   transform="translate(576.4993,269.5347)"
   id="text38173"
   style="font-size:16.93619919px;font-family:TimesNewRomanPSMT">2</text>

		
			<line
   y2="254.36"
   x2="586.61798"
   y1="254.36"
   x1="574.84302"
   stroke-miterlimit="10"
   id="line38175"
   style="fill:none;stroke:#000000;stroke-width:0.5;stroke-miterlimit:10" />
	</g>
</g></g></svg>