<?xml version="1.0" encoding="UTF-8" standalone="no"?>
<!-- Generator: Adobe Illustrator 16.0.0, SVG Export Plug-In . SVG Version: 6.00 Build 0)  -->

<svg
   xmlns:dc="http://purl.org/dc/elements/1.1/"
   xmlns:cc="http://creativecommons.org/ns#"
   xmlns:rdf="http://www.w3.org/1999/02/22-rdf-syntax-ns#"
   xmlns:svg="http://www.w3.org/2000/svg"
   xmlns="http://www.w3.org/2000/svg"
   xmlns:sodipodi="http://sodipodi.sourceforge.net/DTD/sodipodi-0.dtd"
   xmlns:inkscape="http://www.inkscape.org/namespaces/inkscape"
   version="1.0"
   id="Layer_1"
   x="0px"
   y="0px"
   viewBox="0 0 543.45215 289.16064"
   enable-background="new 0 0 437 54"
   xml:space="preserve"
   inkscape:version="0.48.4 r9939"
   width="100%"
   height="100%"
   sodipodi:docname="canvas.svg"><metadata
   id="metadata110"><rdf:RDF><cc:Work
       rdf:about=""><dc:format>image/svg+xml</dc:format><dc:type
         rdf:resource="http://purl.org/dc/dcmitype/StillImage" /><dc:title></dc:title></cc:Work></rdf:RDF></metadata><defs
   id="defs108" /><sodipodi:namedview
   pagecolor="#ffffff"
   bordercolor="#666666"
   borderopacity="1"
   objecttolerance="10"
   gridtolerance="10"
   guidetolerance="10"
   inkscape:pageopacity="0"
   inkscape:pageshadow="2"
   inkscape:window-width="640"
   inkscape:window-height="480"
   id="namedview106"
   showgrid="false"
   inkscape:zoom="0.65446224"
   inkscape:cx="265.61419"
   inkscape:cy="82.957947"
   inkscape:window-x="401"
   inkscape:window-y="88"
   inkscape:window-maximized="0"
   inkscape:current-layer="Layer_1"
   fit-margin-top="0"
   fit-margin-left="0"
   fit-margin-right="0"
   fit-margin-bottom="0"
   showborder="false"
   inkscape:showpageshadow="false" />

<g
   transform="translate(-45.565438,-204.25)"
   id="Layer_2"><ellipse
     d="m 258.83199,311.68799 c 0,24.4038 -22.53485,44.187 -50.333,44.187 -27.79815,0 -50.333,-19.7832 -50.333,-44.187 0,-24.40381 22.53485,-44.187 50.333,-44.187 27.79815,0 50.333,19.78319 50.333,44.187 z"
     style="fill:none;stroke:#000000;stroke-width:2;stroke-miterlimit:10"
     sodipodi:ry="44.187"
     sodipodi:rx="50.333"
     sodipodi:cy="311.68799"
     sodipodi:cx="208.49899"
     stroke-miterlimit="10"
     cx="208.49899"
     cy="311.68799"
     rx="50.333"
     ry="44.187"
     id="ellipse8" /><line
     style="fill:none;stroke:#000000;stroke-width:2;stroke-miterlimit:10"
     stroke-miterlimit="10"
     x1="97.166"
     y1="375.168"
     x2="164.142"
     y2="290.79401"
     id="line10" /><polyline
     style="fill:none;stroke:#000000;stroke-width:2;stroke-miterlimit:10"
     stroke-miterlimit="10"
     points="258.833,311.688 258.833,403.835    277.75,403.835 279.854,417.563  "
     id="polyline12" /><rect
     style="fill:none;stroke:#000000;stroke-width:2;stroke-miterlimit:10"
     x="204.49899"
     y="248.50101"
     stroke-miterlimit="10"
     width="6.6669998"
     height="126.667"
     id="rect14" /><path
     style="fill:none;stroke:#000000;stroke-width:2;stroke-miterlimit:10"
     inkscape:connector-curvature="0"
     stroke-miterlimit="10"
     d="m 201.5,235.25 c 0,0 2.982,-9.71 9.666,-3.5 4.709,4.375 -3.667,9.5 -3.667,9.5 l 0.124,6.25"
     id="path16" /><path
     style="fill:none;stroke:#000000;stroke-width:2;stroke-miterlimit:10"
     inkscape:connector-curvature="0"
     stroke-miterlimit="10"
     d="m 201.015,387.082 c 0,0 3.075,9.727 10.114,3.553 4.959,-4.349 -3.794,-9.52 -3.794,-9.52 l 0.164,-6.25"
     id="path18" /><g
     id="g20"><rect
       style="fill:none;stroke:#000000;stroke-width:2;stroke-miterlimit:10"
       x="179.5"
       y="205.25"
       stroke-miterlimit="10"
       width="55.5"
       height="11.25"
       id="rect22" /><line
       style="fill:none;stroke:#000000;stroke-width:2;stroke-miterlimit:10"
       stroke-miterlimit="10"
       x1="190.5"
       y1="205.5"
       x2="180.625"
       y2="216.5"
       id="line24" /><line
       style="fill:none;stroke:#000000;stroke-width:2;stroke-miterlimit:10"
       stroke-miterlimit="10"
       x1="201.5"
       y1="205.5"
       x2="190.5"
       y2="216.5"
       id="line26" /><line
       style="fill:none;stroke:#000000;stroke-width:2;stroke-miterlimit:10"
       stroke-miterlimit="10"
       x1="210.25"
       y1="205.5"
       x2="199.375"
       y2="216.375"
       id="line28" /><line
       style="fill:none;stroke:#000000;stroke-width:2;stroke-miterlimit:10"
       stroke-miterlimit="10"
       x1="218"
       y1="205.5"
       x2="208.563"
       y2="216.938"
       id="line30" /><line
       style="fill:none;stroke:#000000;stroke-width:2;stroke-miterlimit:10"
       stroke-miterlimit="10"
       x1="226.66701"
       y1="205.5"
       x2="216.33299"
       y2="216.5"
       id="line32" /><line
       style="fill:none;stroke:#000000;stroke-width:2;stroke-miterlimit:10"
       stroke-miterlimit="10"
       x1="234.457"
       y1="205.71899"
       x2="224.12399"
       y2="216.71899"
       id="line34" /><line
       style="fill:none;stroke:#000000;stroke-width:2;stroke-miterlimit:10"
       stroke-miterlimit="10"
       x1="207.83299"
       y1="216"
       x2="207.83299"
       y2="230.25"
       id="line36" /></g><line
     style="fill:none;stroke:#000000;stroke-width:2;stroke-miterlimit:10"
     stroke-miterlimit="10"
     x1="211.83299"
     y1="222.16701"
     x2="282"
     y2="228.33299"
     id="line38" /><g
     id="g40"><circle
       d="m 215.08299,311.83499 c 0,4.00407 -3.24593,7.25 -7.25,7.25 -4.00406,0 -7.25,-3.24593 -7.25,-7.25 0,-4.00406 3.24594,-7.25 7.25,-7.25 4.00407,0 7.25,3.24594 7.25,7.25 z"
       style="fill:none;stroke:#000000;stroke-width:2;stroke-miterlimit:10"
       sodipodi:ry="7.25"
       sodipodi:rx="7.25"
       sodipodi:cy="311.83499"
       sodipodi:cx="207.83299"
       stroke-miterlimit="10"
       cx="207.83299"
       cy="311.83499"
       r="7.25"
       id="circle42" /><circle
       d="m 210.33299,311.83499 c 0,1.38071 -1.11929,2.5 -2.5,2.5 -1.38071,0 -2.5,-1.11929 -2.5,-2.5 0,-1.38071 1.11929,-2.5 2.5,-2.5 1.38071,0 2.5,1.11929 2.5,2.5 z"
       style="fill:#0c0506"
       sodipodi:ry="2.5"
       sodipodi:rx="2.5"
       sodipodi:cy="311.83499"
       sodipodi:cx="207.83299"
       cx="207.83299"
       cy="311.83499"
       r="2.5"
       id="circle44" /></g><polygon
     style="fill:none;stroke:#000000;stroke-miterlimit:10"
     stroke-miterlimit="10"
     points="228.75,415 271.25,415 282.5,400.75 239.5,400.75 "
     id="polygon46" /><rect
     style="fill:none;stroke:#000000;stroke-miterlimit:10"
     x="228.75"
     y="415"
     stroke-miterlimit="10"
     width="43"
     height="12.25"
     id="rect48" /><polygon
     style="fill:none;stroke:#000000;stroke-miterlimit:10"
     stroke-miterlimit="10"
     points="272.167,426.25 271.75,414.5 283,401.25 283.75,412.25 "
     id="polygon50" /><polyline
     style="fill:none;stroke:#000000;stroke-width:2;stroke-miterlimit:10"
     stroke-miterlimit="10"
     points="258.625,403.875 250.25,415    250.25,427.25  "
     id="polyline52" /><line
     style="fill:none;stroke:#000000;stroke-width:2;stroke-miterlimit:10"
     stroke-miterlimit="10"
     x1="234.90199"
     y1="406.60001"
     x2="257.72299"
     y2="406.13599"
     id="line54" /><line
     style="fill:none;stroke:#000000;stroke-width:2;stroke-miterlimit:10"
     stroke-miterlimit="10"
     x1="58.5"
     y1="364.625"
     x2="90.5"
     y2="375.168"
     id="line56" /><g
     id="g58"><polyline
       style="fill:none;stroke:#000000;stroke-width:2;stroke-miterlimit:10"
       stroke-miterlimit="10"
       points="92.063,381.125 79.938,397.625     82.75,384.188   "
       id="polyline60" /><line
       style="fill:none;stroke:#000000;stroke-width:2;stroke-miterlimit:10"
       stroke-miterlimit="10"
       x1="93.012001"
       y1="388.99701"
       x2="78.987999"
       y2="400.75299"
       id="line62" /></g><text
     style="font-size:18px;font-family:MyriadPro-Bold"
     transform="translate(283.75,238.5879)"
     font-size="18"
     id="text64">Q</text>
<text
     style="font-size:18px;font-family:MyriadPro-Bold"
     transform="translate(305,346.0264)"
     font-size="18"
     id="text66">R</text>
<text
     style="font-size:18px;font-family:MyriadPro-Bold"
     transform="translate(49.833,364.625)"
     font-size="18"
     id="text68">P</text>
<text
     style="font-size:18px;font-family:MyriadPro-Bold"
     transform="translate(86,440.625)"
     font-size="18"
     id="text70">P</text>
<text
     style="font-size:18px;font-family:MyriadPro-Bold"
     transform="translate(324,445.625)"
     font-size="18"
     id="text72">S</text>
<line
     style="stroke:#000000;stroke-width:3;stroke-miterlimit:10"
     stroke-miterlimit="10"
     x1="264.5"
     y1="437.83301"
     x2="321.16699"
     y2="437.83301"
     id="line74" /><line
     style="stroke:#000000;stroke-width:3;stroke-miterlimit:10"
     stroke-miterlimit="10"
     x1="258.83301"
     y1="451.83301"
     x2="258.83301"
     y2="430.5"
     id="line76" /><text
     style="font-size:18px;font-family:MyriadPro-Regular"
     transform="translate(62.5,414.5625)"
     font-size="18"
     id="text78">Effort</text>
<text
     style="font-size:18px;font-family:MyriadPro-Regular"
     transform="translate(323.166,410.75)"
     font-size="18"
     id="text80">Load</text>
<text
     style="font-size:17px;font-family:MyriadPro-Regular"
     transform="translate(45.167,489.833)"
     font-size="17"
     id="text82">To investigate the force required to lift the load a spring balance must be</text>
</g></svg>