<?xml version="1.0" encoding="utf-8"?>
<!-- Generator: Adobe Illustrator 16.0.0, SVG Export Plug-In . SVG Version: 6.00 Build 0)  -->
<!DOCTYPE svg PUBLIC "-//W3C//DTD SVG 1.1//EN" "http://www.w3.org/Graphics/SVG/1.1/DTD/svg11.dtd">
<svg version="1.1" id="Layer_1" xmlns="http://www.w3.org/2000/svg" xmlns:xlink="http://www.w3.org/1999/xlink" x="0px" y="0px"
	 width="612px" height="792px" viewBox="0 0 612 792" enable-background="new 0 0 612 792" xml:space="preserve">
<g id="Layer_3" display="none">
	
		<image display="inline" overflow="visible" enable-background="new    " width="423" height="245" xlink:href="D:\JOBS\SCIENCE\2007\11.GIF"  transform="matrix(1.2447 0 0 1.2447 38.501 192.5527)">
	</image>
</g>
<ellipse fill="none" stroke="#000000" stroke-width="3" stroke-miterlimit="10" cx="313.765" cy="363.721" rx="96.403" ry="84.631"/>
<line fill="none" stroke="#000000" stroke-width="2" stroke-miterlimit="10" x1="100.531" y1="485.303" x2="228.809" y2="323.703"/>
<polyline fill="none" stroke="#000000" stroke-width="2" stroke-miterlimit="10" points="410.168,363.72 410.168,540.209 
	446.401,540.209 450.43,566.5 "/>
<rect x="306.104" y="242.7" fill="none" stroke="#000000" stroke-width="2" stroke-miterlimit="10" width="12.77" height="242.603"/>
<path fill="none" stroke="#000000" stroke-width="2" stroke-miterlimit="10" d="M300.359,217.32c0,0,5.711-18.597,18.514-6.704
	c9.02,8.379-7.023,18.195-7.023,18.195l0.237,11.971"/>
<path fill="none" stroke="#000000" stroke-width="2" stroke-miterlimit="10" d="M299.432,508.121c0,0,5.889,18.629,19.37,6.805
	c9.498-8.328-7.267-18.232-7.267-18.232l0.314-11.971"/>
<g>
	
		<rect x="258.224" y="159.862" fill="none" stroke="#000000" stroke-width="2" stroke-miterlimit="10" width="106.299" height="21.547"/>
	
		<line fill="none" stroke="#000000" stroke-width="2" stroke-miterlimit="10" x1="279.292" y1="160.341" x2="260.378" y2="181.409"/>
	
		<line fill="none" stroke="#000000" stroke-width="2" stroke-miterlimit="10" x1="300.359" y1="160.341" x2="279.292" y2="181.409"/>
	
		<line fill="none" stroke="#000000" stroke-width="2" stroke-miterlimit="10" x1="317.118" y1="160.341" x2="296.289" y2="181.169"/>
	
		<line fill="none" stroke="#000000" stroke-width="2" stroke-miterlimit="10" x1="331.962" y1="160.341" x2="313.887" y2="182.248"/>
	<line fill="none" stroke="#000000" stroke-width="2" stroke-miterlimit="10" x1="348.562" y1="160.341" x2="328.77" y2="181.409"/>
	<line fill="none" stroke="#000000" stroke-width="2" stroke-miterlimit="10" x1="363.482" y1="160.76" x2="343.691" y2="181.828"/>
	
		<line fill="none" stroke="#000000" stroke-width="2" stroke-miterlimit="10" x1="312.489" y1="180.451" x2="312.489" y2="207.744"/>
</g>
<line fill="none" stroke="#000000" stroke-width="2" stroke-miterlimit="10" x1="320.15" y1="192.263" x2="454.541" y2="204.072"/>
<g>
	<circle fill="none" stroke="#000000" stroke-width="2" stroke-miterlimit="10" cx="312.489" cy="364.002" r="13.886"/>
	<circle fill="#0C0506" cx="312.489" cy="364.002" r="4.788"/>
</g>
<polygon fill="none" stroke="#000000" stroke-miterlimit="10" points="373.142,534.299 352.551,561.592 433.951,561.592 
	455.499,534.299 "/>
<rect x="352.551" y="561.592" fill="none" stroke="#000000" stroke-miterlimit="10" width="82.358" height="23.463"/>
<polygon fill="none" stroke="#000000" stroke-miterlimit="10" points="457.893,556.326 435.706,583.139 434.909,560.635 
	456.456,535.258 "/>
<polyline fill="none" stroke="#000000" stroke-width="2" stroke-miterlimit="10" points="409.771,540.285 393.73,561.592 
	393.73,585.055 "/>
<line fill="none" stroke="#000000" stroke-width="2" stroke-miterlimit="10" x1="364.334" y1="545.504" x2="408.043" y2="544.615"/>
<line fill="none" stroke="#000000" stroke-width="2" stroke-miterlimit="10" x1="26.474" y1="465.109" x2="87.763" y2="485.303"/>
<g>
	<polyline fill="none" stroke="#000000" stroke-width="2" stroke-miterlimit="10" points="93.666,493.718 70.443,525.319 
		75.829,499.583 	"/>
	<line fill="none" stroke="#000000" stroke-width="2" stroke-miterlimit="10" x1="95.484" y1="505.286" x2="68.624" y2="527.802"/>
</g>
<text transform="matrix(1 0 0 1 457.8926 223.7134)" font-family="'MyriadPro-Bold'" font-size="34.4751">Q</text>
<text transform="matrix(1 0 0 1 498.5918 429.4893)" font-family="'MyriadPro-Bold'" font-size="34.4751">R</text>
<text transform="matrix(1 0 0 1 9.875 465.1104)" font-family="'MyriadPro-Bold'" font-size="34.4751">P</text>
<text transform="matrix(1 0 0 1 79.145 610.6719)" font-family="'MyriadPro-Bold'" font-size="34.4751">P</text>
<text transform="matrix(1 0 0 1 534.9824 620.249)" font-family="'MyriadPro-Bold'" font-size="34.4751">S</text>
<line fill="none" stroke="#000000" stroke-width="3" stroke-miterlimit="10" x1="421.023" y1="605.324" x2="529.555" y2="605.324"/>
<line fill="none" stroke="#000000" stroke-width="3" stroke-miterlimit="10" x1="410.168" y1="632.139" x2="410.168" y2="591.279"/>
<text transform="matrix(1 0 0 1 34.1357 560.7549)" font-family="'MyriadPro-Regular'" font-size="34.4751">Effort</text>
<text transform="matrix(1 0 0 1 533.3848 553.4541)" font-family="'MyriadPro-Regular'" font-size="34.4751">Load</text>
</svg>
