<?xml version="1.0" encoding="UTF-8" standalone="no"?>
<!-- Generator: Adobe Illustrator 16.0.0, SVG Export Plug-In . SVG Version: 6.00 Build 0)  -->

<svg
   xmlns:dc="http://purl.org/dc/elements/1.1/"
   xmlns:cc="http://creativecommons.org/ns#"
   xmlns:rdf="http://www.w3.org/1999/02/22-rdf-syntax-ns#"
   xmlns:svg="http://www.w3.org/2000/svg"
   xmlns="http://www.w3.org/2000/svg"
   xmlns:sodipodi="http://sodipodi.sourceforge.net/DTD/sodipodi-0.dtd"
   xmlns:inkscape="http://www.inkscape.org/namespaces/inkscape"
   version="1.0"
   id="Layer_1"
   x="0px"
   y="0px"
   viewBox="0 0 630.20508 330.70801"
   enable-background="new 0 0 437 54"
   xml:space="preserve"
   inkscape:version="0.48.4 r9939"
   width="100%"
   height="100%"
   sodipodi:docname="canvas.svg"><metadata
   id="metadata110"><rdf:RDF><cc:Work
       rdf:about=""><dc:format>image/svg+xml</dc:format><dc:type
         rdf:resource="http://purl.org/dc/dcmitype/StillImage" /><dc:title></dc:title></cc:Work></rdf:RDF></metadata><defs
   id="defs108" /><sodipodi:namedview
   pagecolor="#ffffff"
   bordercolor="#666666"
   borderopacity="1"
   objecttolerance="10"
   gridtolerance="10"
   guidetolerance="10"
   inkscape:pageopacity="0"
   inkscape:pageshadow="2"
   inkscape:window-width="640"
   inkscape:window-height="480"
   id="namedview106"
   showgrid="false"
   inkscape:zoom="0.65446224"
   inkscape:cx="354.8298"
   inkscape:cy="146.51484"
   inkscape:window-x="301"
   inkscape:window-y="30"
   inkscape:window-maximized="0"
   inkscape:current-layer="Layer_1"
   fit-margin-top="0"
   fit-margin-left="0"
   fit-margin-right="0"
   fit-margin-bottom="0"
   showborder="false"
   inkscape:showpageshadow="false" />

<g
   transform="translate(-10.492188,-186.21143)"
   id="Layer_3"><polyline
     style="fill:none;stroke:#000000;stroke-miterlimit:10"
     stroke-miterlimit="10"
     points="195.167,261.168 61.167,261.168 61.167,395.834    251.833,396  "
     id="polyline8" /><polyline
     style="fill:none;stroke:#000000;stroke-miterlimit:10"
     stroke-miterlimit="10"
     points="415.166,264.501 547.166,264.501 547.166,394.834    506.5,394.834  "
     id="polyline10" /><polyline
     style="fill:none;stroke:#000000;stroke-miterlimit:10"
     stroke-miterlimit="10"
     points="514.555,382.834 479.221,394.167 363.888,394.333  "
     id="polyline12" /><polygon
     style="fill:none;stroke:#000000;stroke-width:2;stroke-miterlimit:10"
     stroke-miterlimit="10"
     points="196.75,271.875 262.75,271.875 262.75,265.875 269.5,266 269.5,256.625 262.25,257.125 262.125,250.375 196.75,250.375 "
     id="polygon14" /><polygon
     style="fill:none;stroke:#000000;stroke-width:2;stroke-miterlimit:10"
     stroke-miterlimit="10"
     points="269.5,271.875 335.5,271.875 335.5,265.875 342.25,266 342.25,256.625 335,257.125 334.875,250.375 269.5,250.375 "
     id="polygon16" /><polygon
     style="fill:none;stroke:#000000;stroke-width:2;stroke-miterlimit:10"
     stroke-miterlimit="10"
     points="342.416,273 408.416,273 408.416,267 415.166,267.125 415.166,257.75 407.916,258.25 407.791,251.5 342.416,251.5 "
     id="polygon18" /><path
     style="fill:none;stroke:#000000;stroke-miterlimit:10"
     inkscape:connector-curvature="0"
     stroke-miterlimit="10"
     d="m 252.167,396.5 c 0.333,-5 1.812,-7.999 7,-11 2.713,-1.569 4.92,9.081 2,12 -5.333,5 -4.333,-8.333 2.333,-8.333 5,0 5.667,9.667 2,10.667 -1.667,-4 4,-13.334 9.333,-11 3.667,1.667 1.667,9.667 -2,8 -3.333,-1.667 2.667,-11.667 7.333,-9 3.667,2 3.667,13.667 0.667,11.667 -4.333,-3 2.333,-10.667 6.667,-8.667 5,2.333 2.667,14.667 -0.333,7.333 -2.667,-6.333 6.333,-11.667 11,-8 3.667,2.667 1.667,12 -2,7.333 -2.667,-3.667 2.333,-9.667 6.333,-7.333 2.334,1.667 2.334,7.667 1.666,10 -5,-0.667 -3.333,-9.333 2,-9.333 5,0 8,5.667 5.668,9.667 -4,-1.333 -3,-10.333 2.332,-10 4,0.333 8.334,10 4.668,10 -3.334,0 -1.668,-10.667 4.332,-9.667 3.334,0.667 7.668,7 3.668,9 -1.668,-4.667 0.332,-8.667 5.666,-7.667 5,1 8.334,11.667 3,10.333 -5,-1.333 2.334,-11.333 5.666,-11.667 5.667,-0.333 7.667,8.333 4.334,11.667 -4,-2.666 -2.333,-13.333 4,-11.667 3,0.667 4,4.333 4.333,6.667 0.334,1.667 -0.666,9 -2.666,4.667 -1.667,-2.667 1.666,-10.667 5,-10 3.666,1 5.333,9.333 1.666,10 -0.666,-3.333 -0.666,-8.667 1.667,-11.667"
     id="path20" /><line
     style="fill:none;stroke:#000000;stroke-width:3;stroke-miterlimit:10"
     stroke-miterlimit="10"
     x1="251.83299"
     y1="394.48499"
     x2="363.888"
     y2="394.48499"
     id="line22" /><line
     style="fill:none;stroke:#000000;stroke-miterlimit:10"
     stroke-miterlimit="10"
     x1="250.83299"
     y1="363.5"
     x2="250.83299"
     y2="388.50101"
     id="line24" /><line
     style="fill:none;stroke:#000000;stroke-miterlimit:10"
     stroke-miterlimit="10"
     x1="363.888"
     y1="363.5"
     x2="363.888"
     y2="388.50101"
     id="line26" /><line
     style="fill:none;stroke:#000000;stroke-width:0.5;stroke-miterlimit:10"
     stroke-miterlimit="10"
     x1="251.83299"
     y1="376"
     x2="363.888"
     y2="376"
     id="line28" /><polygon
     style="fill:#0c0506"
     points="256.022,374.55 251.027,375.786 256,378.16 "
     id="polygon30" /><polygon
     style="fill:#0c0506"
     points="359.494,374.633 364.119,375.831 359.489,377.24 "
     id="polygon32" /><rect
     style="fill:#ffffff"
     x="301.375"
     y="370.5"
     width="14.5"
     height="10.875"
     id="rect34" /><text
     style="font-size:21px;font-family:MyriadPro-Regular"
     transform="translate(307.8604,374.6333)"
     font-size="21"
     id="text36">P</text>
<line
     style="fill:none;stroke:#000000;stroke-miterlimit:10"
     stroke-miterlimit="10"
     x1="340.5"
     y1="394.42999"
     x2="378.79099"
     y2="448.5"
     id="line38" /><text
     style="font-size:21px;font-family:MyriadPro-Regular"
     transform="translate(363.8877,465)"
     font-size="21"
     id="text40">Nail</text>
<text
     style="font-size:21px;font-family:MyriadPro-Regular"
     transform="translate(181.8872,460.667)"
     font-size="21"
     id="text42">Coil</text>
<text
     style="font-size:21px;font-family:MyriadPro-Regular"
     transform="translate(359.4902,201.5)"
     font-size="21"
     id="text44">Cells</text>
<text
     style="font-size:21px;font-family:MyriadPro-Regular"
     transform="translate(72.5537,313.667)"
     font-size="21"
     id="text46">Copper wire</text>
<line
     style="fill:none;stroke:#000000;stroke-miterlimit:10"
     stroke-miterlimit="10"
     x1="359.48901"
     y1="201.5"
     x2="305.875"
     y2="250.375"
     id="line48" /><line
     style="fill:none;stroke:#000000;stroke-miterlimit:10"
     stroke-miterlimit="10"
     x1="217.83299"
     y1="447.345"
     x2="259.16699"
     y2="398.01199"
     id="line50" /><line
     style="fill:none;stroke:#000000;stroke-miterlimit:10"
     stroke-miterlimit="10"
     x1="142.5"
     y1="261.168"
     x2="123.5"
     y2="297.5"
     id="line52" /><text
     style="font-size:21px;font-family:MyriadPro-Regular"
     transform="translate(10,512.5)"
     font-size="21"
     id="text54">The energy transformation that occures at the section marked P is ?</text>
</g></svg>