<?xml version="1.0" encoding="UTF-8" standalone="no"?>
<!-- Generator: Adobe Illustrator 16.0.0, SVG Export Plug-In . SVG Version: 6.00 Build 0)  -->

<svg
   xmlns:dc="http://purl.org/dc/elements/1.1/"
   xmlns:cc="http://creativecommons.org/ns#"
   xmlns:rdf="http://www.w3.org/1999/02/22-rdf-syntax-ns#"
   xmlns:svg="http://www.w3.org/2000/svg"
   xmlns="http://www.w3.org/2000/svg"
   xmlns:sodipodi="http://sodipodi.sourceforge.net/DTD/sodipodi-0.dtd"
   xmlns:inkscape="http://www.inkscape.org/namespaces/inkscape"
   version="1.0"
   id="Layer_1"
   x="0px"
   y="0px"
   viewBox="0 0 263.94531 196.95854"
   enable-background="new 0 0 437 54"
   xml:space="preserve"
   inkscape:version="0.48.4 r9939"
   width="100%"
   height="100%"
   sodipodi:docname="canvas.svg"><metadata
   id="metadata110"><rdf:RDF><cc:Work
       rdf:about=""><dc:format>image/svg+xml</dc:format><dc:type
         rdf:resource="http://purl.org/dc/dcmitype/StillImage" /><dc:title></dc:title></cc:Work></rdf:RDF></metadata><defs
   id="defs108" /><sodipodi:namedview
   pagecolor="#ffffff"
   bordercolor="#666666"
   borderopacity="1"
   objecttolerance="10"
   gridtolerance="10"
   guidetolerance="10"
   inkscape:pageopacity="0"
   inkscape:pageshadow="2"
   inkscape:window-width="640"
   inkscape:window-height="480"
   id="namedview106"
   showgrid="false"
   inkscape:zoom="0.65446224"
   inkscape:cx="145.7244"
   inkscape:cy="96.451938"
   inkscape:window-x="0"
   inkscape:window-y="0"
   inkscape:window-maximized="0"
   inkscape:current-layer="Layer_1"
   fit-margin-top="0"
   fit-margin-left="0"
   fit-margin-right="0"
   fit-margin-bottom="0"
   showborder="false"
   inkscape:showpageshadow="false" />

<g
   transform="translate(-66.786617,-235.30754)"
   id="Layer_3"><path
     style="fill:none;stroke:#000000;stroke-miterlimit:10"
     inkscape:connector-curvature="0"
     stroke-miterlimit="10"
     d="m 142.75,291.25 c -2.75,-1.75 -6.75,2 -9.75,1.25 -3,-1 -2.5,-4 -3.5,-6.5 -2.25,-6.75 -3.75,-11 3.25,-15.25 5.75,-3.5 11.25,-7.5 16.75,-11.25 4.5,-3.25 11.5,-10.5 17.25,-9.75 2.75,0.25 4.5,3.25 7,3.5 2.25,0.25 4.75,-1.75 7,-2.25 2.25,6.5 -1.75,15.25 -5,20.5 4.75,-4.75 4.75,1.5 7.5,4.25 3,-2.25 0.25,-10 6,-5.5 2.25,1.75 3.75,5.75 4.25,8.75 0.75,5.25 0,11.25 -1.75,16.5 -1,3 -3.5,5.5 -4.25,8.5 -1,3.5 0.5,4.75 1.5,7.75 1.75,5 2.25,13.75 1.25,19 -0.25,0.75 0,1.75 0,2.5 C 184,334.5 183,330 182,325.5 c -1,-4.5 -3.75,-8.75 -4.5,-13.5 -1.75,-9 4.5,-16.75 5,-25 -3.25,1.25 -7.5,3.5 -10.75,5.5 -3.75,2.25 -6,5.75 -10.5,6.75 -4.25,0.75 -5.5,0.25 -8.5,-2 -0.5,-0.5 -0.5,-1.5 -1.25,-2 -1,-0.75 -2.25,-0.25 -3.25,-0.75 -1.75,-0.75 -3.5,-2.25 -5.25,-3.25"
     id="path8" /><path
     style="fill:none;stroke:#000000;stroke-miterlimit:10"
     inkscape:connector-curvature="0"
     stroke-miterlimit="10"
     d="m 142.5,289.75 c -0.75,-4.5 -1.75,-10 -4,-14.25 5.75,-2.5 10.75,-4 15.75,-8.5"
     id="path10" /><g
     id="g12"><path
       inkscape:connector-curvature="0"
       d="m 130.08,285.983 c -2,3.25 -5.5,5.25 -7.5,8.75 -2.25,3.5 -2.75,6.5 -2.75,10.5 0,6.75 1,12 3,18.5 2,6 3.25,12.25 4.5,18.25 1.5,6.25 1,11.25 0.5,17.5 -1,13.5 -0.5,27.25 -0.5,40.5 0,6.25 -1,14 6.75,13.75 2,0 7.25,0.25 8.75,-1.25 1.25,-1.25 1,-6.5 1.25,-8.5 0.75,-10.25 1,-20.75 1,-30.75 0,-5.25 -0.25,-10.5 0,-15.75 0.25,-8.5 2.25,-17.5 0.5,-26 2.75,5.5 7.25,13.25 8,19.5 0.75,6.5 0,13.75 0,20.5 0,7.5 -0.5,15 0.75,22.5 0.75,4.75 2,14.25 5.25,18 2.5,3.25 12,2.5 13.5,-1.5 1.25,-3.75 0.25,-10.75 0,-14.75 -0.5,-10.75 -3,-20.75 -2.75,-31.75 0.25,-12.25 -2.25,-23.75 -3,-35.5 -0.25,-5.75 -1.25,-11 -2,-16.75 -0.25,-2.25 -0.25,-6 -1,-7.75 -1.75,-3.25 -4.147,-9.13 -7.58,-10.233 -10.375,-3.332 -17.42,-2.267 -26.67,-6.767"
       id="path14" /></g><path
     style="fill:#fef1f1;stroke:#000000;stroke-miterlimit:10"
     inkscape:connector-curvature="0"
     stroke-miterlimit="10"
     d="m 132.5,289.25 c 5,-0.5 5,10 4.75,13.25 -0.25,4.5 -3.75,15 6,12.5 5.75,-1.5 3,-9.5 1.75,-13.75 -0.75,-3 -1,-6 -2,-9 -1.75,-6 -3.25,-3 -8.25,-2.75 -1.25,0.25 -2,0.5 -3,-0.5"
     id="path16" /><line
     style="fill:none;stroke:#000000;stroke-width:2;stroke-miterlimit:10"
     stroke-miterlimit="10"
     x1="144.57201"
     y1="314"
     x2="260.07199"
     y2="416.767"
     id="line18" /><line
     style="fill:none;stroke:#000000;stroke-width:2;stroke-miterlimit:10"
     stroke-miterlimit="10"
     x1="144.57201"
     y1="308.45001"
     x2="260.07199"
     y2="411.21701"
     id="line20" /><path
     style="fill:none;stroke:#000000;stroke-width:2;stroke-miterlimit:10"
     inkscape:connector-curvature="0"
     stroke-miterlimit="10"
     d="m 242.75,415.75 c 0,0 18.75,-2.75 20.25,-6.25 l 15.75,16 c 0,0 -17.75,6 -36,-9.75 z"
     id="path22" /><g
     id="g24"><path
       inkscape:connector-curvature="0"
       d="m 280.75,403.75 c -2.25,0 -3.5,3 -5.5,3.25 -2,0 -2.25,-2.25 -3.75,-2 -1.5,0 -8,5.75 -9.25,7.25 -4.5,5.75 8,10.25 12,11.25 2.25,0.5 3.25,1.5 5.75,1.25 2,-0.5 3.75,-1.75 6,-1.75 3.75,-0.25 5.25,2.5 5.5,-2.5 0,-4.25 -3,-8 -5.75,-9.75 -0.25,-0.25 -1.5,0.25 -2.25,-0.25 -0.5,-0.5 -0.75,-1.75 -1.25,-2.25 -0.75,-1.25 -1.25,-3 -1.75,-4.25"
       id="path26" /><g
       id="g28"><g
         id="g30"><g
           id="g32"><g
             id="g34"><g
               id="g36"><path
                 style="fill:none"
                 inkscape:connector-curvature="0"
                 d="m 278.248,396.576 c -0.861,0.221 -1.712,0.571 -2.512,1.009 -0.211,0.121 -0.371,0.197 -0.627,0.369 l -0.177,0.117 -0.022,0.017 -0.025,0.022 -4.617,-0.508 1.231,-0.102 c -0.796,0.019 -1.625,0.141 -2.399,0.357 l -0.272,0.081 -0.118,0.042 -0.236,0.089 -0.468,0.188 c -0.729,0.306 -0.943,0.455 -1.333,0.663 -0.399,0.219 -0.601,0.36 -0.884,0.537 -0.281,0.176 -0.514,0.335 -0.73,0.488 -0.917,0.632 -1.655,1.213 -2.4,1.806 -0.927,0.758 -4.184,3.404 -6.123,5.683 l 14.419,6.916 1.095,-0.904 c 0.541,-0.432 1.1,-0.864 1.54,-1.164 0.119,-0.086 0.225,-0.158 0.295,-0.198 0.066,-0.04 0.202,-0.136 0.169,-0.105 -0.028,0.014 0.106,-0.058 -0.234,0.105 l -0.184,0.068 -0.338,0.105 c -0.573,0.179 -1.199,0.262 -1.793,0.241 l 1.232,-0.102 c -0.252,0.047 -0.511,0.075 -0.771,0.084 -0.252,0.006 -0.511,-0.002 -0.833,-0.025 -0.303,-0.025 -0.608,-0.081 -0.898,-0.155 l -0.611,0.187 -0.153,0.047 c -0.023,0.008 -0.056,0.015 -0.071,0.023 l 0.037,0.025 0.148,0.105 c 0.098,0.066 0.198,0.145 0.295,0.203 0.196,0.125 0.391,0.251 0.578,0.351 0.758,0.431 1.432,0.685 2.158,0.895 0.361,0.101 0.743,0.177 1.134,0.247 l 1.226,0.096 c 0.847,0.148 1.67,-0.171 2.45,-0.301 1.554,-0.382 3.007,-1.171 4.422,-2.362 0.353,-0.292 0.696,-0.607 1.039,-0.925 l 0.228,-0.217 0.105,-0.102 -0.035,0.021 c -0.072,0.037 -0.023,0.018 -0.038,0.023 l -10e-4,-0.002 -4.898,-14.038 z"
                 id="path38" /></g><g
               id="g40"><path
                 inkscape:connector-curvature="0"
                 d="m 276.603,405.455 c -0.363,0.281 -0.767,0.53 -1.221,0.626 -0.452,0.082 -0.933,-0.056 -1.313,-0.311 -0.387,-0.257 -0.684,-0.619 -1.008,-0.946 -0.166,-0.159 -0.339,-0.316 -0.549,-0.417 -0.279,-0.137 -0.759,-0.208 -1.135,-0.143 l 0.123,-0.01 c -0.175,0.02 -0.353,0.051 -0.524,0.091 -0.146,0.045 -0.247,0.097 -0.372,0.146 -0.253,0.097 -0.43,0.216 -0.64,0.326 -0.395,0.229 -0.765,0.469 -1.12,0.721 -0.717,0.497 -1.393,1.023 -2.059,1.562 l 0.942,1.167 c 0.646,-0.522 1.304,-1.032 1.974,-1.497 0.333,-0.237 0.673,-0.455 1.006,-0.649 0.163,-0.085 0.341,-0.201 0.485,-0.249 0.07,-0.027 0.16,-0.073 0.213,-0.089 0.035,10e-4 0.063,-0.008 0.095,-0.028 l 0.021,-0.013 0.104,0.002 c 0.131,0.004 0.18,-0.04 0.343,0.111 0.254,0.133 0.472,0.316 0.679,0.498 0.407,0.369 0.779,0.758 1.251,1.032 0.463,0.273 1.042,0.417 1.586,0.331 0.547,-0.111 1.039,-0.376 1.486,-0.691 l -0.367,-1.57 z"
                 id="path42" /></g><path
               inkscape:connector-curvature="0"
               d="m 279.575,403.215 0.65,1.349 c 0,0 -0.117,0.047 -0.293,0.117 -0.184,0.102 -0.358,0.184 -0.61,0.378 -0.491,0.374 -0.946,0.791 -0.946,0.791 l -0.639,-1.416 c 0,0 0.365,-0.348 0.776,-0.646 0.197,-0.146 0.518,-0.33 0.706,-0.426 0.214,-0.088 0.356,-0.147 0.356,-0.147 z"
               id="path44" /><path
               inkscape:connector-curvature="0"
               d="m 265.462,408.184 0.998,1.12 c 0,0 -0.381,0.332 -0.763,0.663 -0.375,0.338 -0.751,0.676 -0.751,0.676 l -1.326,-0.818 c 0,0 0.456,-0.414 0.912,-0.829 0.465,-0.406 0.93,-0.812 0.93,-0.812 z"
               id="path46" /></g></g><g
           id="g48"><g
             id="g50"><g
               id="g52"><path
                 style="fill:none"
                 inkscape:connector-curvature="0"
                 d="m 256.534,407.435 c 0,0 -0.101,0.118 -0.291,0.339 -0.174,0.225 -0.402,0.562 -0.691,0.992 -0.518,0.867 -1.181,2.091 -1.524,3.76 -0.176,0.831 -0.253,1.763 -0.221,2.757 0.061,0.993 0.252,2.025 0.608,3.03 0.676,2.02 2.036,3.941 3.87,5.59 1.826,1.632 4.148,3.007 6.266,4.011 1.367,0.65 2.623,1.155 3.71,1.554 1.086,0.399 2.006,0.693 2.676,0.895 0.706,0.199 1.109,0.313 1.109,0.313 l 3.8,-14.509 c 0.071,0.017 -0.904,-0.223 -2.41,-0.775 -0.746,-0.272 -1.604,-0.622 -2.44,-1.021 l -0.042,-0.02 -14.42,-6.916 z"
                 id="path54" /></g><g
               id="g56"><path
                 inkscape:connector-curvature="0"
                 d="m 260.544,414.882 c 0,0 0.021,0.188 0.056,0.517 0.068,0.321 0.179,0.785 0.448,1.283 0.493,1.022 1.566,2.123 2.791,3.025 1.229,0.901 2.607,1.634 3.639,2.12 0.973,0.46 1.636,0.727 1.636,0.727 l 0.573,-1.387 c 0,0 -0.639,-0.256 -1.566,-0.695 -0.867,-0.408 -1.979,-0.993 -3.014,-1.72 -1.026,-0.725 -1.963,-1.614 -2.401,-2.461 -0.239,-0.411 -0.337,-0.798 -0.397,-1.065 -0.031,-0.274 -0.048,-0.432 -0.048,-0.432 l -1.717,0.088 z"
                 id="path58" /></g><path
               inkscape:connector-curvature="0"
               d="m 262.263,411.166 1.537,0.563 c 0,0 -0.364,0.352 -0.692,0.735 -0.309,0.402 -0.532,0.857 -0.532,0.857 l -1.686,-0.207 c 0,0 0.246,-0.549 0.591,-1.041 0.367,-0.469 0.782,-0.907 0.782,-0.907 z"
               id="path60" /><path
               inkscape:connector-curvature="0"
               d="m 270.701,423.181 0.513,-1.409 c 0,0 0.52,0.182 1.04,0.362 0.524,0.166 1.048,0.332 1.048,0.332 l -0.43,1.437 c 0,0 -0.546,-0.172 -1.092,-0.345 -0.54,-0.189 -1.079,-0.377 -1.079,-0.377 z"
               id="path62" /></g></g><g
           id="g64"><g
             id="g66"><g
               id="g68"><path
                 style="fill:none"
                 inkscape:connector-curvature="0"
                 d="m 272.045,430.675 c 0,0 0.265,0.068 0.728,0.189 0.121,0.019 0.275,0.09 0.493,0.154 0.162,0.06 0.334,0.123 0.516,0.19 0.37,0.135 0.827,0.292 1.272,0.432 1.853,0.579 4.163,0.841 6.538,0.417 0.588,-0.133 1.18,-0.306 1.772,-0.511 0.297,-0.1 0.594,-0.205 0.88,-0.318 l 0.66,-0.263 c 0.257,-0.102 0.517,-0.205 0.776,-0.309 l 0.375,-0.135 0.094,-0.033 c 0.046,-0.005 0.022,-0.041 0.152,-0.008 l 0.589,0.11 1.178,0.222 1.208,0.13 c 0.852,0.149 1.489,0.007 2.188,-0.043 0.366,-0.013 0.643,-0.102 0.929,-0.182 0.271,-0.083 0.607,-0.144 0.822,-0.244 l 0.666,-0.292 c 0.216,-0.097 0.361,-0.192 0.543,-0.287 0.667,-0.382 1.065,-0.714 1.413,-1.029 0.334,-0.307 0.713,-0.681 1.207,-1.369 0.477,-0.646 0.785,-1.281 1.023,-1.859 0.222,-0.584 0.406,-1.099 0.489,-1.557 0.284,-0.877 0.11,-1.453 0.15,-1.444 l -17.639,-6.256 c -0.739,0.283 -1.477,0.567 -2.031,0.779 -0.265,-0.097 -0.507,-0.186 -0.722,-0.265 -0.537,-0.179 -1.029,-0.358 -1.464,-0.465 -0.639,-0.168 -1.003,-0.265 -1.003,-0.265 l -3.802,14.511 z"
                 id="path70" /></g><g
               id="g72"><path
                 inkscape:connector-curvature="0"
                 d="m 278.497,425.487 c 0,0 0.192,0.014 0.528,0.038 0.168,0.018 0.373,-0.01 0.606,-0.015 0.234,-0.009 0.501,-0.005 0.775,-0.108 0.552,-0.144 1.204,-0.39 1.846,-0.65 0.632,-0.237 1.195,-0.528 1.947,-0.687 0.766,-0.165 1.583,-0.229 2.302,-0.278 0.718,-0.051 1.368,-0.081 1.886,-0.029 0.525,0.037 0.939,0.107 1.229,0.152 0.29,0.043 0.455,0.067 0.455,0.067 l -1.48,-1.249 c 0,0 -0.154,-0.034 -0.423,-0.094 -0.269,-0.063 -0.652,-0.156 -1.12,-0.227 -0.931,-0.136 -2.223,-0.14 -3.431,0.236 -0.62,0.182 -1.333,0.477 -1.926,0.716 -0.575,0.232 -1.071,0.425 -1.534,0.55 -0.223,0.089 -0.442,0.085 -0.634,0.093 -0.192,0.003 -0.359,0.026 -0.497,0.011 -0.275,-0.021 -0.432,-0.033 -0.432,-0.033 l -0.097,1.507 z"
                 id="path74" /></g><path
               inkscape:connector-curvature="0"
               d="m 274.575,424.368 0.404,-1.445 c 0,0 0.145,0.033 0.355,0.1 0.208,0.07 0.486,0.163 0.763,0.257 0.507,0.184 1.015,0.367 1.015,0.367 l -0.425,1.439 c 0,0 -0.548,-0.197 -1.096,-0.395 -0.253,-0.086 -0.507,-0.171 -0.698,-0.235 -0.189,-0.06 -0.318,-0.089 -0.318,-0.088 z"
               id="path76" /><path
               inkscape:connector-curvature="0"
               d="m 291.583,423.543 -1.605,-1.094 c 0.019,0.014 0.264,-0.436 0.342,-0.941 0.085,-0.498 0.117,-1.003 0.117,-1.003 l 1.746,0.769 c 0,0 -0.014,0.147 -0.036,0.369 -0.037,0.219 -0.087,0.511 -0.136,0.803 -0.075,0.286 -0.145,0.574 -0.248,0.774 -0.074,0.212 -0.189,0.319 -0.18,0.323 z"
               id="path78" /></g></g><g
           id="g80"><g
             id="g82"><g
               id="g84"><path
                 style="fill:none"
                 inkscape:connector-curvature="0"
                 d="m 298.705,422.637 c 0,0 -0.018,-0.541 -0.047,-1.489 -0.042,-0.483 0.045,-1.019 0.078,-1.657 0.023,-0.317 0.048,-0.654 0.074,-1.011 0.05,-0.352 -0.107,-0.754 -0.165,-1.157 -0.166,-0.816 -0.344,-1.7 -0.738,-2.627 -0.172,-0.464 -0.35,-0.941 -0.531,-1.429 -0.228,-0.48 -0.511,-0.963 -0.772,-1.459 -0.465,-1.011 -1.247,-1.96 -1.961,-2.949 -0.339,-0.506 -0.847,-0.927 -1.265,-1.397 -0.442,-0.459 -0.862,-0.938 -1.393,-1.328 l -0.757,-0.616 -0.378,-0.308 -0.189,-0.153 -0.094,-0.077 c -0.023,-0.005 0.035,-0.003 -0.055,-0.014 l -0.151,-0.119 -0.315,-0.23 c -0.215,-0.15 -0.442,-0.293 -0.677,-0.424 -0.27,-0.018 -0.539,-0.035 -0.805,-0.052 l 0.004,-0.004 -0.004,0.004 -0.035,-0.092 c -0.196,-0.463 -0.458,-1.2 -0.673,-1.786 -0.25,-0.666 -0.393,-1.047 -0.393,-1.047 l -13.926,5.57 c 0,0 0.085,0.229 0.233,0.63 0.184,0.479 0.443,1.285 1.007,2.621 0.111,0.297 0.392,0.839 0.622,1.28 0.261,0.455 0.474,0.964 0.844,1.385 0.161,0.226 0.364,0.432 0.496,0.683 0.121,0.257 0.243,0.517 0.367,0.78 0.063,0.129 0.12,0.268 0.191,0.391 l 0.244,0.339 c 0.164,0.227 0.329,0.455 0.496,0.687 0.378,0.438 0.683,0.978 1.301,1.158 0.494,0.238 0.994,0.48 1.498,0.724 0.253,0.109 0.475,0.261 0.764,0.34 0.145,0.042 0.272,0.09 0.436,0.127 l 0.236,0.057 0.03,0.007 0.015,0.004 c -0.381,-0.001 3.532,0.096 1.793,0.011 l -0.633,-0.338 -1.267,-0.678 -1.141,-0.61 17.636,6.253 z"
                 id="path86" /></g><g
               id="g88"><path
                 inkscape:connector-curvature="0"
                 d="m 290.9,415.438 c 0,0 -0.088,-0.167 -0.244,-0.457 -0.138,-0.301 -0.399,-0.695 -0.733,-1.157 -0.618,-0.954 -1.675,-2.088 -2.877,-3.044 l -0.464,-0.343 -0.231,-0.17 -0.115,-0.085 c -0.088,-0.061 -0.25,-0.154 -0.386,-0.196 l -0.053,-0.017 -0.027,-0.008 -0.013,-0.004 c 0.153,0.082 0.17,0.092 0.147,0.08 l -0.029,-0.002 -0.058,-0.003 -0.116,-0.005 -0.229,0.014 c -0.152,0.011 -0.302,0.021 -0.45,0.031 -0.294,0.014 -0.588,-0.007 -0.836,-0.117 l -0.181,-0.087 -0.11,-0.16 c -0.07,-0.106 -0.146,-0.205 -0.205,-0.307 -0.196,-0.431 -0.36,-0.79 -0.475,-1.041 -0.131,-0.243 -0.232,-0.366 -0.232,-0.366 l -1.235,0.854 c 0,0 0.126,0.148 0.288,0.443 0.138,0.309 0.341,0.744 0.599,1.25 0.074,0.121 0.167,0.24 0.254,0.367 l 0.136,0.192 0.22,0.104 c 0.301,0.136 0.644,0.182 0.988,0.191 0.39,0.004 0.793,0.008 1.202,0.012 l -0.149,-0.087 0.095,0.068 0.191,0.138 0.383,0.275 c 0.994,0.772 1.878,1.69 2.412,2.472 0.285,0.378 0.51,0.7 0.633,0.949 0.136,0.239 0.214,0.377 0.214,0.377 l 1.686,-0.161 z"
                 id="path90" /></g><path
               inkscape:connector-curvature="0"
               d="m 292.124,419.413 -1.757,-0.481 c 0,0 -0.001,-0.128 -0.037,-0.313 -0.046,-0.184 -0.108,-0.429 -0.169,-0.674 -0.065,-0.244 -0.115,-0.492 -0.177,-0.671 -0.072,-0.176 -0.12,-0.292 -0.12,-0.292 l 1.761,0.118 c 0,0 0.052,0.141 0.131,0.351 0.064,0.213 0.107,0.506 0.17,0.795 0.059,0.29 0.116,0.579 0.16,0.797 0.035,0.219 0.038,0.37 0.038,0.37 z"
               id="path92" /><path
               inkscape:connector-curvature="0"
               d="m 282.304,406.635 -1.38,0.588 c 0,0 -0.229,-0.543 -0.425,-1.075 -0.193,-0.529 -0.386,-1.058 -0.386,-1.058 l 1.409,-0.516 c 0,0 0.191,0.525 0.383,1.051 0.191,0.52 0.399,1.01 0.399,1.01 z"
               id="path94" /></g></g></g></g></g><path
     style="stroke:#000000;stroke-miterlimit:10"
     inkscape:connector-curvature="0"
     stroke-miterlimit="10"
     d="m 181,249.167 c 1.5,-0.5 3.5,-1.333 5.167,-1 1.5,0.333 2.167,1.5 3.833,1.333 1.333,-0.167 3.167,-2.333 4.333,-1.167 1,1 0,3.5 -0.167,4.5 3.833,0 5.167,-7.167 10.5,-5.167 1.833,0.667 3.833,4.5 6.333,2.167 2.167,-1.833 -1,-4.333 -2.167,-5.667 -3.167,-3.667 -7.333,-8.833 -12.833,-8.333 -4.667,0.5 -8,3 -10.167,7 -1.167,2 -2.667,4.167 -4.5,5.667"
     id="path96" /><path
     style="fill:none;stroke:#000000;stroke-miterlimit:10"
     inkscape:connector-curvature="0"
     stroke-miterlimit="10"
     d="m 208.167,249.833 c 3.167,4.167 -2.5,10.333 -7.333,8.167 -0.667,1.5 0.833,4.667 -0.333,5.667 -1.166,1 -4.75,-1 -5.75,-1 0.167,1.5 0.667,3.083 -0.917,2.833 -0.931,-0.147 0,2.167 -2,1.5 0.333,1.833 -0.5,2.5 -2.167,2.5 -2.5,0 -2.667,-2.667 -4.333,-3.5 -0.333,1.167 -0.167,2.5 0,3.833"
     id="path98" /><path
     style="fill:none;stroke:#000000;stroke-miterlimit:10"
     inkscape:connector-curvature="0"
     stroke-miterlimit="10"
     d="m 198.615,255.04 c 0,0 0.544,2.9 1.649,2.777 1.106,-0.122 -1.649,-2.777 -1.649,-2.777 z"
     id="path100" /><path
     style="fill:none;stroke:#000000;stroke-miterlimit:10"
     inkscape:connector-curvature="0"
     stroke-miterlimit="10"
     d="m 190.326,332.625 c -2.5,0.75 -3.814,-0.471 -6.064,-0.971 -0.75,4.25 0.238,6.596 0.738,11.096 0.25,3.75 -0.75,8.75 3,11.5 5.75,4.25 9.5,-4 8.5,-8.75 -1,-4.5 -9.174,-7.625 -6.174,-12.875"
     id="path102" /><path
     style="fill:none;stroke:#000000;stroke-miterlimit:10"
     inkscape:connector-curvature="0"
     stroke-miterlimit="10"
     d="m 134.167,411.167 c -0.667,5 -6,7.333 1.333,9.333 3.667,0.667 10,0.334 12,-2.666 -4.667,-3.667 -5,-11.667 -13,-7"
     id="path104" /><path
     style="fill:none;stroke:#000000;stroke-miterlimit:10"
     inkscape:connector-curvature="0"
     stroke-miterlimit="10"
     d="m 164.833,408.834 c -1,4 -3.667,7 -5.667,10.666 2.667,2.667 6,0.667 9.333,0.334 3.667,0 5.333,1.333 8.667,2 5.333,1 13,-0.334 17.667,-2.667 -1,-5.333 -10.667,-1 -14.333,-2.667 -3,-1.333 -5.333,-4.333 -8.667,-5.333 -2.667,-1 -5.333,-1 -7.667,-2"
     id="path106" /><polygon
     style="fill:none;stroke:#000000;stroke-miterlimit:10"
     stroke-miterlimit="10"
     points="189.962,347.578 188.297,352.051 191.881,348.145 192.736,349.954 189.898,353.691 184.354,351.702 188.069,345.522 "
     id="polygon108" /><polygon
     style="fill:none;stroke:#000000;stroke-miterlimit:10"
     stroke-miterlimit="10"
     points="192.06,349.315 190.395,353.789 193.979,349.883 194.833,351.691 191.996,355.429 186.451,353.44 190.167,347.26 "
     id="polygon110" /><line
     style="fill:none;stroke:#000000;stroke-width:2;stroke-miterlimit:10"
     stroke-miterlimit="10"
     x1="127.625"
     y1="322.5"
     x2="80.5"
     y2="336.5"
     id="line112" /><line
     style="fill:none;stroke:#000000;stroke-width:2;stroke-miterlimit:10"
     stroke-miterlimit="10"
     x1="242.75"
     y1="336.5"
     x2="196.37"
     y2="359.83301"
     id="line114" /><line
     style="fill:none;stroke:#000000;stroke-width:2;stroke-miterlimit:10"
     stroke-miterlimit="10"
     x1="315.83301"
     y1="400.5"
     x2="276.39301"
     y2="414.26999"
     id="line116" /><text
     style="font-size:21px;font-family:MyriadPro-Regular"
     transform="translate(65.1665,339.167)"
     font-size="21"
     id="text118">P</text>
<text
     style="font-size:21px;font-family:MyriadPro-Regular"
     transform="translate(246.0835,339.167)"
     font-size="21"
     id="text120">Q</text>
<text
     style="font-size:21px;font-family:MyriadPro-Regular"
     transform="translate(315.833,403.75)"
     font-size="21"
     id="text122">R</text>
<path
     style="fill:none;stroke:#000000;stroke-miterlimit:10"
     inkscape:connector-curvature="0"
     stroke-miterlimit="10"
     d="m 190.833,251 c -3.333,-1.333 -5.667,4.667 -1.5,3.5"
     id="path124" /></g></svg>