<?xml version="1.0" encoding="UTF-8" standalone="no"?>
<!-- Generator: Adobe Illustrator 16.0.0, SVG Export Plug-In . SVG Version: 6.00 Build 0)  -->

<svg
   xmlns:dc="http://purl.org/dc/elements/1.1/"
   xmlns:cc="http://creativecommons.org/ns#"
   xmlns:rdf="http://www.w3.org/1999/02/22-rdf-syntax-ns#"
   xmlns:svg="http://www.w3.org/2000/svg"
   xmlns="http://www.w3.org/2000/svg"
   xmlns:sodipodi="http://sodipodi.sourceforge.net/DTD/sodipodi-0.dtd"
   xmlns:inkscape="http://www.inkscape.org/namespaces/inkscape"
   version="1.0"
   id="Layer_1"
   x="0px"
   y="0px"
   viewBox="0 0 212.60001 141.73"
   enable-background="new 0 0 437 54"
   xml:space="preserve"
   inkscape:version="0.48.4 r9939"
   width="100%"
   height="100%"
   sodipodi:docname="Qn08.svg"><metadata
   id="metadata3203"><rdf:RDF><cc:Work
       rdf:about=""><dc:format>image/svg+xml</dc:format><dc:type
         rdf:resource="http://purl.org/dc/dcmitype/StillImage" /><dc:title></dc:title></cc:Work></rdf:RDF></metadata><defs
   id="defs3201" /><sodipodi:namedview
   pagecolor="#ffffff"
   bordercolor="#666666"
   borderopacity="1"
   objecttolerance="10"
   gridtolerance="10"
   guidetolerance="10"
   inkscape:pageopacity="0"
   inkscape:pageshadow="2"
   inkscape:window-width="1280"
   inkscape:window-height="716"
   id="namedview3199"
   showgrid="false"
   inkscape:zoom="1.8122645"
   inkscape:cx="57.238241"
   inkscape:cy="37.49937"
   inkscape:window-x="-8"
   inkscape:window-y="-8"
   inkscape:window-maximized="1"
   inkscape:current-layer="Layer_1"
   showborder="false"
   inkscape:showpageshadow="false"
   fit-margin-top="0"
   fit-margin-left="0"
   fit-margin-right="0"
   fit-margin-bottom="0" />
<g
   id="Intel_Skoool_Logo"
   transform="translate(-112.2,40.592219)">
	<g
   id="g3097">
		<g
   id="g3099">
			<g
   id="g3101">
				<g
   id="g3103">
					<path
   d="M 38.236,43.095 C 25.511,44.276 12.238,42.43 10.381,32.489 9.472,27.559 11.706,22.373 14.675,19.144 V 17.415 C 9.329,22.082 6.431,28.021 8.103,35.025 10.235,43.988 21.619,49.088 39,47.39 45.889,46.725 54.882,44.506 61.15,41.077 v -4.871 c -5.692,3.369 -15.076,6.169 -22.914,6.889 z M 71.771,17.297 C 68.758,2.539 40.137,1.619 21.676,12.86 v 1.238 C 40.11,4.616 66.251,4.674 68.63,18.25 c 0.808,4.493 -1.73,9.192 -6.241,11.873 v 3.517 c 5.434,-1.99 11.009,-8.445 9.382,-16.343 z"
   id="path3105"
   inkscape:connector-curvature="0"
   style="fill:#ffffff" />
					<path
   d="m 60.114,15.165 h -3.346 v 14.843 c 0,1.758 0.851,3.258 3.346,3.516 V 15.165 z"
   id="path3107"
   inkscape:connector-curvature="0"
   style="fill:#ffffff" />
					<path
   d="m 20.365,20.584 h -3.343 v 9.713 c 0,1.73 0.852,3.258 3.343,3.487 v -13.2 z"
   id="path3109"
   inkscape:connector-curvature="0"
   style="fill:#ffffff" />
					<rect
   x="17.021999"
   y="15.597"
   width="3.3310001"
   height="3.1700001"
   id="rect3111"
   style="fill:#ffffff" />
					<path
   d="m 40.354,33.64 c -2.694,0 -3.833,-1.874 -3.833,-3.718 V 17.009 h 3.3 v 3.575 h 2.494 v 2.681 h -2.494 v 6.456 c 0,0.748 0.346,1.151 1.138,1.151 h 1.356 v 2.768 h -1.961"
   id="path3113"
   inkscape:connector-curvature="0"
   style="fill:#ffffff" />
					<path
   d="m 46.45,28.136 c 0,1.7 1.066,2.941 2.926,2.941 1.469,0 2.192,-0.406 3.039,-1.241 l 2.049,1.959 c -1.312,1.268 -2.683,2.076 -5.118,2.076 -3.156,0 -6.196,-1.729 -6.196,-6.773 0,-4.295 2.666,-6.745 6.141,-6.745 3.531,0 5.563,2.852 5.563,6.6 v 1.183 H 46.45 m 2.679,-5.046 c -1.122,0 -2.001,0.579 -2.362,1.384 -0.215,0.463 -0.301,0.835 -0.316,1.412 h 5.101 C 51.48,24.474 50.845,23.09 49.129,23.09 z"
   id="path3115"
   inkscape:connector-curvature="0"
   style="fill:#ffffff" />
					<path
   d="m 29.359,23.265 c 0.966,0 1.367,0.459 1.367,1.239 v 9.165 h 3.315 v -9.195 c 0,-1.844 -0.993,-3.89 -3.904,-3.89 h -6.832 v 13.085 h 3.314 V 23.265 h 2.74 z"
   id="path3117"
   inkscape:connector-curvature="0"
   style="fill:#ffffff" />
				</g>
			</g>
			<g
   id="g3119">
				<path
   d="m 64.003,19.056 c -1.08,0 -1.944,-0.866 -1.944,-1.961 0,-1.066 0.864,-1.93 1.944,-1.93 1.082,0 1.96,0.864 1.96,1.93 0,1.095 -0.879,1.961 -1.96,1.961 z m 0,-3.574 c -0.894,0 -1.614,0.719 -1.614,1.612 0,0.925 0.72,1.645 1.614,1.645 0.894,0 1.643,-0.719 1.643,-1.645 0,-0.892 -0.75,-1.612 -1.643,-1.612 z m 0.865,2.794 h -0.36 c -0.043,0 -0.057,0 -0.073,-0.058 l -0.504,-0.834 c -0.014,0 -0.058,-0.028 -0.07,-0.028 0,0 -0.074,0 -0.144,0 -0.03,0 -0.06,0 -0.073,0 v 0.834 c 0,0.028 -0.028,0.085 -0.086,0.085 h -0.332 c -0.043,0 -0.086,-0.058 -0.086,-0.085 v -2.104 c 0,-0.144 0.043,-0.174 0.159,-0.201 0.114,-0.028 0.418,-0.028 0.59,-0.028 0.62,0 0.98,0.171 0.98,0.748 v 0.03 c 0,0.374 -0.187,0.547 -0.445,0.633 l 0.517,0.893 c 0,0 0.014,0.029 0.014,0.057 -0.001,0.032 -0.016,0.058 -0.087,0.058 z m -0.475,-1.671 c 0,-0.23 -0.144,-0.316 -0.462,-0.316 -0.042,0 -0.145,0 -0.214,0 -0.043,0 -0.073,0 -0.101,0 v 0.69 c 0.057,0 0.272,0 0.315,0 0.319,0 0.462,-0.115 0.462,-0.344 v -0.03 z"
   id="path3121"
   inkscape:connector-curvature="0"
   style="fill:#ffffff" />
			</g>
		</g>
		<path
   d="m 148.08,16.8 v 2.097 h -0.41 V 16.8 h -0.753 v -0.325 h 1.92 V 16.8 h -0.757 z m 3.509,2.097 v -2.015 h -0.017 l -0.791,2.015 h -0.252 l -0.796,-2.015 h -0.011 v 2.015 h -0.396 v -2.422 h 0.617 l 0.722,1.841 0.712,-1.841 h 0.611 v 2.422 h -0.399 z"
   id="path3123"
   inkscape:connector-curvature="0"
   style="fill:#ffffff" />
		<g
   id="g3125">
			<path
   d="m 84.086,31.344 c 0.709,0 1.178,-0.1 1.414,-0.275 0.236,-0.186 0.352,-0.43 0.352,-0.746 0,-0.267 -0.076,-0.488 -0.228,-0.663 -0.151,-0.181 -0.418,-0.385 -0.802,-0.618 l -3.167,-1.949 c -0.601,-0.369 -1.069,-0.826 -1.43,-1.38 -0.351,-0.551 -0.523,-1.153 -0.523,-1.809 0,-2.317 1.471,-3.477 4.407,-3.477 1.522,0 2.874,0.254 4.053,0.759 0.173,0.069 0.299,0.145 0.373,0.23 0.074,0.088 0.113,0.211 0.113,0.37 v 1.415 c 0,0.34 -0.163,0.463 -0.486,0.374 -1.353,-0.432 -2.595,-0.645 -3.724,-0.645 -0.591,0 -1.016,0.063 -1.282,0.191 -0.266,0.129 -0.395,0.352 -0.395,0.668 0,0.176 0.036,0.314 0.104,0.427 0.074,0.109 0.174,0.207 0.291,0.299 0.12,0.091 0.299,0.202 0.535,0.34 l 3.035,1.856 c 0.878,0.535 1.473,1.072 1.775,1.613 0.302,0.536 0.451,1.121 0.451,1.75 0,0.729 -0.166,1.383 -0.507,1.961 -0.339,0.566 -0.857,1.018 -1.549,1.335 -0.688,0.315 -1.514,0.471 -2.482,0.471 -1.534,0 -2.895,-0.251 -4.083,-0.753 -0.2,-0.104 -0.329,-0.194 -0.391,-0.282 -0.073,-0.083 -0.106,-0.198 -0.106,-0.323 v -1.412 c 0,-0.34 0.168,-0.468 0.497,-0.373 1.364,0.425 2.615,0.646 3.755,0.646 z"
   id="path3127"
   inkscape:connector-curvature="0"
   style="fill:#ffffff" />
			<path
   d="m 101.676,33.38 c 0,0.075 -0.032,0.146 -0.091,0.2 -0.058,0.047 -0.134,0.073 -0.225,0.073 h -2.829 c -0.113,0 -0.235,-0.044 -0.362,-0.144 -0.13,-0.092 -0.23,-0.207 -0.307,-0.315 l -3.644,-5.286 v 5.262 c 0,0.133 -0.045,0.258 -0.132,0.346 -0.087,0.098 -0.198,0.138 -0.336,0.138 h -2.125 c -0.135,0 -0.247,-0.046 -0.334,-0.149 -0.086,-0.096 -0.127,-0.217 -0.127,-0.334 V 16.475 c 0,-0.111 0.043,-0.218 0.132,-0.317 0.091,-0.097 0.203,-0.146 0.33,-0.146 h 2.125 c 0.13,0 0.238,0.046 0.331,0.135 0.091,0.091 0.137,0.201 0.137,0.329 v 9.666 l 3.96,-5.272 c 0.151,-0.188 0.331,-0.284 0.534,-0.284 h 2.602 c 0.227,0 0.337,0.083 0.337,0.249 0,0.077 -0.028,0.155 -0.088,0.238 l -4.652,5.725 4.696,6.398 c 0.043,0.068 0.068,0.13 0.068,0.184 z"
   id="path3129"
   inkscape:connector-curvature="0"
   style="fill:#ffffff" />
			<path
   d="m 113.632,28.067 c 0,1.1 -0.216,2.095 -0.641,2.979 -0.425,0.877 -1.053,1.561 -1.883,2.061 -0.83,0.488 -1.838,0.731 -3.023,0.731 -1.168,0 -2.173,-0.243 -3.012,-0.731 -0.837,-0.5 -1.468,-1.184 -1.889,-2.061 -0.423,-0.885 -0.634,-1.88 -0.634,-2.979 v -1.869 c 0,-1.102 0.211,-2.095 0.634,-2.976 0.421,-0.883 1.052,-1.57 1.889,-2.06 0.839,-0.491 1.844,-0.737 3.012,-0.737 1.185,0 2.193,0.246 3.023,0.737 0.831,0.49 1.458,1.177 1.883,2.06 0.425,0.88 0.641,1.874 0.641,2.976 v 1.869 z m -3.058,0 v -1.869 c 0,-0.964 -0.211,-1.73 -0.64,-2.29 -0.426,-0.563 -1.043,-0.846 -1.85,-0.846 -0.801,0 -1.416,0.282 -1.838,0.846 -0.429,0.56 -0.641,1.326 -0.641,2.29 v 1.869 c 0,0.968 0.214,1.731 0.646,2.294 0.426,0.558 1.039,0.841 1.833,0.841 0.8,0 1.413,-0.283 1.844,-0.841 0.433,-0.562 0.646,-1.326 0.646,-2.294 z"
   id="path3131"
   inkscape:connector-curvature="0"
   style="fill:#ffffff" />
			<path
   d="m 126.617,28.067 c 0,1.1 -0.215,2.095 -0.643,2.979 -0.425,0.877 -1.055,1.561 -1.881,2.061 -0.833,0.488 -1.839,0.731 -3.027,0.731 -1.167,0 -2.172,-0.243 -3.009,-0.731 -0.838,-0.5 -1.468,-1.184 -1.889,-2.061 -0.423,-0.885 -0.635,-1.88 -0.635,-2.979 v -1.869 c 0,-1.102 0.211,-2.095 0.635,-2.976 0.421,-0.883 1.051,-1.57 1.889,-2.06 0.837,-0.491 1.842,-0.737 3.009,-0.737 1.188,0 2.193,0.246 3.027,0.737 0.827,0.49 1.456,1.177 1.881,2.06 0.428,0.88 0.643,1.874 0.643,2.976 v 1.869 z m -3.058,0 v -1.869 c 0,-0.964 -0.213,-1.73 -0.64,-2.29 -0.428,-0.563 -1.044,-0.846 -1.853,-0.846 -0.797,0 -1.41,0.282 -1.838,0.846 -0.427,0.56 -0.64,1.326 -0.64,2.29 v 1.869 c 0,0.968 0.218,1.731 0.647,2.294 0.43,0.558 1.042,0.841 1.832,0.841 0.803,0 1.417,-0.283 1.848,-0.841 0.428,-0.562 0.644,-1.326 0.644,-2.294 z"
   id="path3133"
   inkscape:connector-curvature="0"
   style="fill:#ffffff" />
			<path
   d="m 139.599,28.067 c 0,1.1 -0.213,2.095 -0.64,2.979 -0.424,0.877 -1.054,1.561 -1.884,2.061 -0.83,0.488 -1.838,0.731 -3.024,0.731 -1.167,0 -2.172,-0.243 -3.009,-0.731 -0.839,-0.5 -1.469,-1.184 -1.892,-2.061 -0.422,-0.885 -0.634,-1.88 -0.634,-2.979 v -1.869 c 0,-1.102 0.212,-2.095 0.634,-2.976 0.423,-0.883 1.053,-1.57 1.892,-2.06 0.837,-0.491 1.842,-0.737 3.009,-0.737 1.186,0 2.194,0.246 3.024,0.737 0.83,0.49 1.46,1.177 1.884,2.06 0.426,0.88 0.64,1.874 0.64,2.976 v 1.869 z m -3.056,0 v -1.869 c 0,-0.964 -0.211,-1.73 -0.638,-2.29 -0.428,-0.563 -1.044,-0.846 -1.854,-0.846 -0.798,0 -1.411,0.282 -1.838,0.846 -0.429,0.56 -0.642,1.326 -0.642,2.29 v 1.869 c 0,0.968 0.216,1.731 0.649,2.294 0.428,0.558 1.039,0.841 1.831,0.841 0.801,0 1.416,-0.283 1.846,-0.841 0.432,-0.562 0.646,-1.326 0.646,-2.294 z"
   id="path3135"
   inkscape:connector-curvature="0"
   style="fill:#ffffff" />
			<path
   d="m 144.999,33.17 c 0,0.124 -0.039,0.248 -0.123,0.34 -0.083,0.1 -0.188,0.144 -0.318,0.144 h -2.151 c -0.135,0 -0.244,-0.046 -0.333,-0.149 -0.086,-0.096 -0.13,-0.217 -0.13,-0.334 V 16.475 c 0,-0.111 0.045,-0.218 0.135,-0.317 0.093,-0.097 0.202,-0.146 0.329,-0.146 h 2.151 c 0.12,0 0.223,0.048 0.313,0.141 0.085,0.096 0.128,0.205 0.128,0.323 V 33.17 z"
   id="path3137"
   inkscape:connector-curvature="0"
   style="fill:#ffffff" />
		</g>
	</g>
	<g
   id="g3139">
		<g
   id="g3141">
			<path
   d="m 171.54,32.131 c 0,0.342 -0.17,0.51 -0.51,0.51 h -6.269 c -0.342,0 -0.513,-0.168 -0.513,-0.51 V 18.784 c 0,-0.341 0.171,-0.511 0.513,-0.511 h 1.238 c 0.34,0 0.51,0.17 0.51,0.511 v 11.812 h 4.521 c 0.34,0 0.51,0.17 0.51,0.51 v 1.025 z"
   id="path3143"
   inkscape:connector-curvature="0"
   style="fill:#ffffff" />
			<path
   d="m 180.389,27.523 c 0,0.342 -0.164,0.513 -0.489,0.513 h -5.16 c 0.041,0.954 0.233,1.641 0.575,2.069 0.382,0.499 1.015,0.746 1.897,0.746 0.538,0 1.215,-0.129 2.025,-0.385 0.056,-0.014 0.114,-0.021 0.17,-0.021 0.185,0 0.319,0.113 0.407,0.341 l 0.297,0.854 c 0.102,0.269 0,0.469 -0.297,0.598 -0.81,0.354 -1.758,0.531 -2.837,0.531 -1.451,0 -2.568,-0.451 -3.349,-1.354 -0.781,-0.901 -1.17,-2.228 -1.17,-3.975 0,-1.58 0.361,-2.847 1.087,-3.807 0.726,-0.96 1.697,-1.439 2.919,-1.439 2.617,0 3.925,1.778 3.925,5.329 z m -2.217,-1.043 c -0.058,-1.706 -0.612,-2.56 -1.663,-2.56 -1.024,0 -1.614,0.854 -1.77,2.56 h 3.433 z"
   id="path3145"
   inkscape:connector-curvature="0"
   style="fill:#ffffff" />
			<path
   d="m 189.793,32.15 c 0.069,0.329 -0.075,0.49 -0.428,0.49 h -1.11 c -0.298,0 -0.474,-0.161 -0.531,-0.49 l -0.129,-0.788 c -0.611,0.937 -1.578,1.407 -2.901,1.407 -0.88,0 -1.563,-0.277 -2.045,-0.832 -0.484,-0.554 -0.726,-1.327 -0.726,-2.323 0,-2.047 1.108,-3.147 3.326,-3.306 l 2.131,-0.148 c 0,-0.299 -0.014,-0.455 -0.042,-0.47 -0.028,-0.583 -0.156,-0.993 -0.382,-1.236 -0.225,-0.241 -0.659,-0.362 -1.295,-0.362 -0.551,0 -1.239,0.121 -2.057,0.362 -0.34,0.1 -0.544,-0.008 -0.616,-0.319 l -0.213,-0.94 c -0.069,-0.299 0.036,-0.489 0.321,-0.575 0.966,-0.284 1.862,-0.426 2.685,-0.426 1.578,0 2.653,0.447 3.22,1.343 0.372,0.583 0.555,1.479 0.555,2.687 v 3.584 c 0,0.779 0.035,1.348 0.107,1.704 l 0.13,0.638 z m -2.412,-2.962 v -1.492 l -1.214,0.044 c -1.351,0.041 -2.026,0.667 -2.026,1.875 0,0.909 0.396,1.364 1.194,1.364 0.567,0 1.059,-0.206 1.472,-0.617 0.384,-0.372 0.574,-0.761 0.574,-1.174 z"
   id="path3147"
   inkscape:connector-curvature="0"
   style="fill:#ffffff" />
			<path
   d="m 198.147,23.068 -0.319,1.195 c -0.084,0.325 -0.295,0.46 -0.635,0.404 -0.127,-0.015 -0.335,-0.08 -0.625,-0.192 -0.291,-0.113 -0.512,-0.171 -0.667,-0.171 -0.381,0 -0.692,0.221 -0.932,0.661 -0.284,0.499 -0.424,1.224 -0.424,2.177 v 5.008 c 0,0.329 -0.172,0.49 -0.518,0.49 h -1.183 c -0.345,0 -0.519,-0.161 -0.519,-0.49 v -9.338 c 0,-0.325 0.174,-0.489 0.513,-0.489 h 0.788 c 0.314,0 0.508,0.142 0.576,0.425 l 0.237,0.918 c 0.625,-0.98 1.419,-1.472 2.387,-1.472 1.038,0 1.478,0.293 1.321,0.874 z"
   id="path3149"
   inkscape:connector-curvature="0"
   style="fill:#ffffff" />
			<path
   d="m 207.081,32.15 c 0,0.329 -0.174,0.49 -0.519,0.49 h -1.203 c -0.331,0 -0.498,-0.161 -0.498,-0.49 v -6.843 c 0,-0.837 -0.365,-1.258 -1.092,-1.258 -0.576,0 -1.059,0.227 -1.451,0.683 -0.393,0.454 -0.59,1.023 -0.59,1.706 v 5.713 c 0,0.329 -0.165,0.49 -0.497,0.49 h -1.202 c -0.344,0 -0.518,-0.161 -0.518,-0.49 v -9.338 c 0,-0.325 0.168,-0.489 0.51,-0.489 h 0.833 c 0.297,0 0.474,0.136 0.533,0.405 l 0.192,0.875 c 0.839,-0.939 1.795,-1.408 2.876,-1.408 0.797,0 1.432,0.245 1.908,0.737 0.476,0.489 0.715,1.132 0.715,1.928 v 7.289 z"
   id="path3151"
   inkscape:connector-curvature="0"
   style="fill:#ffffff" />
			<path
   d="m 212.56,18.825 c 0,0.398 -0.138,0.736 -0.405,1.013 -0.27,0.277 -0.606,0.417 -1.001,0.417 -0.4,0 -0.729,-0.139 -0.993,-0.417 -0.263,-0.277 -0.394,-0.615 -0.394,-1.013 0,-0.397 0.13,-0.735 0.394,-1.01 0.264,-0.278 0.593,-0.417 0.993,-0.417 0.395,0 0.731,0.139 1.001,0.417 0.267,0.275 0.405,0.613 0.405,1.01 z m -0.254,13.325 c 0,0.329 -0.174,0.49 -0.517,0.49 h -1.185 c -0.346,0 -0.517,-0.161 -0.517,-0.49 v -9.338 c 0,-0.325 0.171,-0.489 0.517,-0.489 h 1.185 c 0.343,0 0.517,0.164 0.517,0.489 v 9.338 z"
   id="path3153"
   inkscape:connector-curvature="0"
   style="fill:#ffffff" />
			<path
   d="m 222.859,32.15 c 0,0.329 -0.174,0.49 -0.518,0.49 h -1.207 c -0.331,0 -0.494,-0.161 -0.494,-0.49 v -6.843 c 0,-0.837 -0.365,-1.258 -1.094,-1.258 -0.575,0 -1.061,0.227 -1.454,0.683 -0.391,0.454 -0.586,1.023 -0.586,1.706 v 5.713 c 0,0.329 -0.166,0.49 -0.496,0.49 h -1.205 c -0.344,0 -0.517,-0.161 -0.517,-0.49 v -9.338 c 0,-0.325 0.172,-0.489 0.513,-0.489 h 0.829 c 0.301,0 0.479,0.136 0.534,0.405 l 0.191,0.875 c 0.84,-0.939 1.798,-1.408 2.88,-1.408 0.794,0 1.43,0.245 1.908,0.737 0.475,0.489 0.715,1.132 0.715,1.928 v 7.289 z"
   id="path3155"
   inkscape:connector-curvature="0"
   style="fill:#ffffff" />
			<path
   d="m 233.561,33.558 c 0,1.165 -0.477,2.054 -1.43,2.665 -0.781,0.498 -1.748,0.747 -2.898,0.747 -1.222,0 -2.203,-0.212 -2.941,-0.64 -0.91,-0.527 -1.373,-1.33 -1.388,-2.41 0,-0.143 0.052,-0.262 0.149,-0.362 0.098,-0.099 0.221,-0.149 0.363,-0.149 l 1.193,0.044 c 0.271,0.014 0.435,0.17 0.49,0.468 0.142,0.84 0.875,1.259 2.196,1.259 0.669,0 1.204,-0.127 1.609,-0.384 0.406,-0.256 0.608,-0.598 0.608,-1.023 0,-0.825 -0.505,-1.236 -1.514,-1.236 h -2.111 c -1.605,0 -2.409,-0.582 -2.409,-1.749 0,-0.569 0.306,-1.143 0.917,-1.726 -0.994,-0.699 -1.493,-1.72 -1.493,-3.071 0,-1.18 0.356,-2.103 1.068,-2.771 0.71,-0.668 1.662,-1.003 2.854,-1.003 0.158,0 0.377,0.02 0.662,0.053 0.284,0.037 0.496,0.055 0.641,0.055 h 2.471 c 0.355,0 0.534,0.17 0.534,0.512 v 0.596 c 0,0.313 -0.137,0.482 -0.404,0.51 l -0.663,0.086 c 0.469,0.695 0.706,1.35 0.706,1.961 0,1.167 -0.356,2.085 -1.058,2.761 -0.702,0.678 -1.66,1.015 -2.867,1.015 -0.428,0 -0.771,-0.036 -1.043,-0.106 -0.199,0.195 -0.299,0.389 -0.299,0.574 0,0.355 0.318,0.533 0.957,0.533 h 1.834 c 1.01,0 1.807,0.24 2.389,0.723 0.584,0.484 0.877,1.172 0.877,2.068 z m -2.965,-7.61 c 0,-1.394 -0.583,-2.092 -1.748,-2.092 -0.553,0 -0.959,0.122 -1.214,0.364 -0.343,0.327 -0.513,0.903 -0.513,1.728 0,0.851 0.17,1.44 0.513,1.769 0.255,0.256 0.661,0.385 1.214,0.385 1.165,0 1.748,-0.719 1.748,-2.154 z"
   id="path3157"
   inkscape:connector-curvature="0"
   style="fill:#ffffff" />
			<path
   d="m 246.607,32.15 c 0.071,0.329 -0.071,0.49 -0.428,0.49 h -1.107 c -0.297,0 -0.475,-0.161 -0.533,-0.49 l -0.129,-0.788 c -0.609,0.937 -1.574,1.407 -2.898,1.407 -0.881,0 -1.564,-0.277 -2.045,-0.832 -0.484,-0.554 -0.727,-1.327 -0.727,-2.323 0,-2.047 1.108,-3.147 3.327,-3.306 l 2.132,-0.148 c 0,-0.299 -0.014,-0.455 -0.044,-0.47 -0.028,-0.583 -0.153,-0.993 -0.382,-1.236 -0.228,-0.241 -0.657,-0.362 -1.293,-0.362 -0.552,0 -1.238,0.121 -2.061,0.362 -0.338,0.1 -0.545,-0.008 -0.615,-0.319 l -0.211,-0.94 c -0.072,-0.299 0.035,-0.489 0.319,-0.575 0.968,-0.284 1.863,-0.426 2.687,-0.426 1.579,0 2.651,0.447 3.22,1.343 0.366,0.583 0.554,1.479 0.554,2.687 v 3.584 c 0,0.779 0.036,1.348 0.105,1.704 l 0.129,0.638 z m -2.408,-2.962 v -1.492 l -1.215,0.044 c -1.352,0.041 -2.027,0.667 -2.027,1.875 0,0.909 0.397,1.364 1.194,1.364 0.568,0 1.06,-0.206 1.472,-0.617 0.384,-0.372 0.576,-0.761 0.576,-1.174 z"
   id="path3159"
   inkscape:connector-curvature="0"
   style="fill:#ffffff" />
			<path
   d="m 256.712,32.15 c 0,0.329 -0.172,0.49 -0.517,0.49 h -1.205 c -0.328,0 -0.496,-0.161 -0.496,-0.49 v -6.843 c 0,-0.837 -0.364,-1.258 -1.093,-1.258 -0.575,0 -1.06,0.227 -1.451,0.683 -0.394,0.454 -0.59,1.023 -0.59,1.706 v 5.713 c 0,0.329 -0.165,0.49 -0.495,0.49 h -1.205 c -0.343,0 -0.517,-0.161 -0.517,-0.49 v -9.338 c 0,-0.325 0.17,-0.489 0.513,-0.489 h 0.83 c 0.299,0 0.476,0.136 0.533,0.405 l 0.191,0.875 c 0.84,-0.939 1.799,-1.408 2.879,-1.408 0.798,0 1.433,0.245 1.908,0.737 0.477,0.489 0.714,1.132 0.714,1.928 v 7.289 z"
   id="path3161"
   inkscape:connector-curvature="0"
   style="fill:#ffffff" />
			<path
   d="m 266.883,32.15 c 0,0.329 -0.17,0.49 -0.513,0.49 h -0.745 c -0.356,0 -0.568,-0.161 -0.641,-0.49 l -0.17,-0.852 c -0.525,0.98 -1.344,1.471 -2.45,1.471 -2.29,0 -3.435,-1.775 -3.435,-5.329 0,-1.906 0.385,-3.305 1.151,-4.201 0.599,-0.697 1.35,-1.045 2.26,-1.045 1.022,0 1.813,0.435 2.366,1.3 v -5.479 c 0,-0.327 0.164,-0.49 0.49,-0.49 h 1.173 c 0.343,0 0.513,0.163 0.513,0.49 V 32.15 z m -2.111,-4.627 c 0,-2.315 -0.583,-3.474 -1.748,-3.474 -0.583,0 -1.018,0.242 -1.302,0.726 -0.313,0.539 -0.467,1.45 -0.467,2.729 0,1.221 0.142,2.086 0.424,2.591 0.286,0.502 0.734,0.757 1.345,0.757 1.165,0 1.748,-1.11 1.748,-3.329 z"
   id="path3163"
   inkscape:connector-curvature="0"
   style="fill:#ffffff" />
			<path
   d="m 282.105,19.829 c 0,0.325 -0.164,0.49 -0.49,0.49 h -3.027 v 11.812 c 0,0.342 -0.171,0.51 -0.514,0.51 h -1.235 c -0.341,0 -0.511,-0.168 -0.511,-0.51 V 20.319 h -3.029 c -0.354,0 -0.531,-0.165 -0.531,-0.49 v -1.045 c 0,-0.341 0.177,-0.511 0.531,-0.511 h 8.316 c 0.326,0 0.49,0.17 0.49,0.511 v 1.045 z"
   id="path3165"
   inkscape:connector-curvature="0"
   style="fill:#ffffff" />
			<path
   d="m 290.803,27.523 c 0,0.342 -0.164,0.513 -0.49,0.513 h -5.16 c 0.045,0.954 0.236,1.641 0.576,2.069 0.385,0.499 1.016,0.746 1.898,0.746 0.541,0 1.215,-0.129 2.025,-0.385 0.057,-0.014 0.114,-0.021 0.171,-0.021 0.183,0 0.319,0.113 0.404,0.341 l 0.299,0.854 c 0.099,0.269 0,0.469 -0.299,0.598 -0.81,0.354 -1.755,0.531 -2.837,0.531 -1.447,0 -2.564,-0.451 -3.346,-1.354 -0.781,-0.901 -1.172,-2.228 -1.172,-3.975 0,-1.58 0.362,-2.847 1.086,-3.807 0.726,-0.959 1.7,-1.439 2.923,-1.439 2.613,0 3.922,1.778 3.922,5.329 z m -2.216,-1.043 c -0.058,-1.706 -0.613,-2.56 -1.665,-2.56 -1.021,0 -1.614,0.854 -1.77,2.56 h 3.435 z"
   id="path3167"
   inkscape:connector-curvature="0"
   style="fill:#ffffff" />
			<path
   d="m 300.206,32.15 c 0.068,0.329 -0.073,0.49 -0.428,0.49 h -1.108 c -0.299,0 -0.477,-0.161 -0.533,-0.49 l -0.128,-0.788 c -0.61,0.937 -1.577,1.407 -2.899,1.407 -0.883,0 -1.563,-0.277 -2.045,-0.832 -0.486,-0.554 -0.726,-1.327 -0.726,-2.323 0,-2.047 1.105,-3.147 3.323,-3.306 l 2.134,-0.148 c 0,-0.299 -0.015,-0.455 -0.045,-0.47 -0.026,-0.583 -0.153,-0.993 -0.381,-1.236 -0.226,-0.241 -0.658,-0.362 -1.294,-0.362 -0.551,0 -1.237,0.121 -2.059,0.362 -0.34,0.1 -0.545,-0.008 -0.615,-0.319 l -0.213,-0.94 c -0.07,-0.299 0.038,-0.489 0.322,-0.575 0.965,-0.284 1.859,-0.426 2.686,-0.426 1.577,0 2.65,0.447 3.219,1.343 0.369,0.583 0.553,1.479 0.553,2.687 v 3.584 c 0,0.779 0.037,1.348 0.107,1.704 l 0.13,0.638 z m -2.41,-2.962 v -1.492 l -1.216,0.044 c -1.352,0.041 -2.025,0.667 -2.025,1.875 0,0.909 0.396,1.364 1.195,1.364 0.567,0 1.059,-0.206 1.471,-0.617 0.382,-0.372 0.575,-0.761 0.575,-1.174 z"
   id="path3169"
   inkscape:connector-curvature="0"
   style="fill:#ffffff" />
			<path
   d="m 308.796,31.874 c 0.057,0.3 -0.056,0.498 -0.342,0.599 -0.583,0.196 -1.278,0.297 -2.089,0.297 -1.352,0 -2.402,-0.447 -3.155,-1.344 -0.796,-0.938 -1.192,-2.286 -1.192,-4.05 0,-1.507 0.398,-2.747 1.204,-3.719 0.804,-0.975 1.878,-1.462 3.229,-1.462 0.44,0 0.895,0.065 1.363,0.192 0.683,0.172 0.969,0.426 0.854,0.768 l -0.299,0.895 c -0.071,0.227 -0.198,0.343 -0.386,0.343 -0.142,0 -0.371,-0.052 -0.69,-0.149 -0.32,-0.103 -0.581,-0.15 -0.779,-0.15 -0.683,0 -1.22,0.284 -1.609,0.856 -0.392,0.568 -0.587,1.383 -0.587,2.436 0,2.282 0.773,3.424 2.325,3.424 0.452,0 0.923,-0.072 1.405,-0.213 0.329,-0.086 0.52,0.028 0.577,0.34 l 0.171,0.937 z"
   id="path3171"
   inkscape:connector-curvature="0"
   style="fill:#ffffff" />
			<path
   d="m 318.369,32.15 c 0,0.329 -0.173,0.49 -0.512,0.49 h -1.172 c -0.329,0 -0.492,-0.161 -0.492,-0.49 v -6.843 c 0,-0.837 -0.384,-1.258 -1.15,-1.258 -0.584,0 -1.074,0.227 -1.473,0.683 -0.398,0.454 -0.596,1.023 -0.596,1.706 v 5.713 c 0,0.329 -0.173,0.49 -0.513,0.49 h -1.151 c -0.338,0 -0.512,-0.161 -0.512,-0.49 V 18.015 c 0,-0.327 0.174,-0.49 0.512,-0.49 h 1.151 c 0.34,0 0.513,0.163 0.513,0.49 v 5.479 c 0.781,-0.866 1.707,-1.3 2.772,-1.3 0.796,0 1.431,0.245 1.908,0.737 0.474,0.489 0.714,1.132 0.714,1.928 v 7.291 z"
   id="path3173"
   inkscape:connector-curvature="0"
   style="fill:#ffffff" />
			<path
   d="m 323.849,18.825 c 0,0.398 -0.135,0.736 -0.405,1.013 -0.27,0.277 -0.604,0.417 -1.002,0.417 -0.396,0 -0.729,-0.139 -0.991,-0.417 -0.262,-0.278 -0.394,-0.615 -0.394,-1.013 0,-0.397 0.131,-0.735 0.394,-1.01 0.263,-0.278 0.595,-0.417 0.991,-0.417 0.398,0 0.732,0.139 1.002,0.417 0.27,0.275 0.405,0.613 0.405,1.01 z m -0.256,13.325 c 0,0.329 -0.172,0.49 -0.516,0.49 h -1.187 c -0.344,0 -0.516,-0.161 -0.516,-0.49 v -9.338 c 0,-0.325 0.172,-0.489 0.516,-0.489 h 1.187 c 0.344,0 0.516,0.164 0.516,0.489 v 9.338 z"
   id="path3175"
   inkscape:connector-curvature="0"
   style="fill:#ffffff" />
			<path
   d="m 334.145,32.15 c 0,0.329 -0.17,0.49 -0.516,0.49 h -1.207 c -0.329,0 -0.494,-0.161 -0.494,-0.49 v -6.843 c 0,-0.837 -0.363,-1.258 -1.093,-1.258 -0.576,0 -1.061,0.227 -1.452,0.683 -0.393,0.454 -0.588,1.023 -0.588,1.706 v 5.713 c 0,0.329 -0.168,0.49 -0.495,0.49 h -1.207 c -0.343,0 -0.517,-0.161 -0.517,-0.49 v -9.338 c 0,-0.325 0.172,-0.489 0.511,-0.489 h 0.833 c 0.299,0 0.476,0.136 0.533,0.405 l 0.193,0.875 c 0.838,-0.939 1.797,-1.408 2.877,-1.408 0.795,0 1.432,0.245 1.905,0.737 0.479,0.489 0.716,1.132 0.716,1.928 v 7.289 z"
   id="path3177"
   inkscape:connector-curvature="0"
   style="fill:#ffffff" />
			<path
   d="m 344.85,33.558 c 0,1.165 -0.478,2.054 -1.43,2.665 -0.781,0.498 -1.748,0.747 -2.9,0.747 -1.224,0 -2.203,-0.212 -2.941,-0.64 -0.91,-0.527 -1.371,-1.33 -1.385,-2.41 0,-0.143 0.049,-0.262 0.148,-0.362 0.1,-0.099 0.22,-0.149 0.363,-0.149 l 1.193,0.044 c 0.27,0.014 0.432,0.17 0.488,0.468 0.144,0.84 0.875,1.259 2.197,1.259 0.667,0 1.204,-0.127 1.609,-0.384 0.405,-0.256 0.609,-0.598 0.609,-1.023 0,-0.825 -0.508,-1.236 -1.516,-1.236 h -2.109 c -1.607,0 -2.411,-0.582 -2.411,-1.749 0,-0.569 0.306,-1.143 0.919,-1.726 -0.996,-0.699 -1.492,-1.72 -1.492,-3.071 0,-1.18 0.354,-2.103 1.065,-2.771 0.711,-0.668 1.663,-1.003 2.857,-1.003 0.155,0 0.376,0.02 0.661,0.053 0.281,0.037 0.496,0.055 0.637,0.055 h 2.475 c 0.354,0 0.535,0.17 0.535,0.512 v 0.596 c 0,0.313 -0.138,0.482 -0.408,0.51 l -0.662,0.086 c 0.472,0.695 0.706,1.35 0.706,1.961 0,1.167 -0.352,2.085 -1.056,2.761 -0.703,0.678 -1.66,1.015 -2.868,1.015 -0.426,0 -0.774,-0.036 -1.044,-0.106 -0.2,0.195 -0.298,0.389 -0.298,0.574 0,0.355 0.319,0.533 0.958,0.533 h 1.834 c 1.01,0 1.807,0.24 2.389,0.723 0.584,0.484 0.877,1.172 0.877,2.068 z m -2.965,-7.61 c 0,-1.394 -0.583,-2.092 -1.749,-2.092 -0.556,0 -0.958,0.122 -1.214,0.364 -0.341,0.327 -0.511,0.903 -0.511,1.728 0,0.851 0.17,1.44 0.511,1.769 0.256,0.256 0.658,0.385 1.214,0.385 1.166,0 1.749,-0.719 1.749,-2.154 z"
   id="path3179"
   inkscape:connector-curvature="0"
   style="fill:#ffffff" />
			<path
   d="m 360.667,31.98 c 0.043,0.129 0.064,0.234 0.064,0.318 0,0.23 -0.144,0.342 -0.429,0.342 h -1.555 c -0.326,0 -0.539,-0.148 -0.639,-0.446 -0.227,-0.726 -0.455,-1.458 -0.683,-2.196 -0.269,-0.811 -0.526,-1.447 -0.768,-1.921 -0.627,-1.192 -1.428,-1.789 -2.409,-1.789 h -0.874 v 5.862 c 0,0.329 -0.171,0.49 -0.513,0.49 h -1.235 c -0.343,0 -0.512,-0.161 -0.512,-0.49 V 18.784 c 0,-0.341 0.169,-0.511 0.512,-0.511 h 3.754 c 1.604,0 2.776,0.426 3.516,1.278 0.556,0.641 0.833,1.427 0.833,2.366 0,0.896 -0.242,1.651 -0.727,2.262 -0.523,0.667 -1.271,1.079 -2.238,1.234 -0.043,0.017 -0.1,0.023 -0.172,0.023 0.967,0.199 1.729,0.883 2.282,2.046 0.415,0.867 1.011,2.367 1.793,4.498 z m -3.24,-9.773 c 0,-0.559 -0.17,-1.017 -0.512,-1.374 -0.384,-0.399 -0.919,-0.602 -1.599,-0.602 h -1.94 v 4.223 h 1.705 c 0.726,0 1.296,-0.203 1.717,-0.612 0.418,-0.405 0.629,-0.952 0.629,-1.635 z"
   id="path3181"
   inkscape:connector-curvature="0"
   style="fill:#ffffff" />
			<path
   d="m 369.878,27.523 c 0,0.342 -0.163,0.513 -0.491,0.513 h -5.159 c 0.043,0.954 0.234,1.641 0.577,2.069 0.383,0.499 1.016,0.746 1.896,0.746 0.539,0 1.215,-0.129 2.023,-0.385 0.059,-0.014 0.114,-0.021 0.172,-0.021 0.186,0 0.322,0.113 0.404,0.341 l 0.301,0.854 c 0.098,0.269 0,0.469 -0.301,0.598 -0.808,0.354 -1.754,0.531 -2.834,0.531 -1.45,0 -2.564,-0.451 -3.348,-1.354 -0.78,-0.901 -1.176,-2.228 -1.176,-3.975 0,-1.58 0.364,-2.847 1.09,-3.807 0.725,-0.959 1.7,-1.439 2.922,-1.439 2.615,0 3.924,1.778 3.924,5.329 z M 367.66,26.48 c -0.058,-1.706 -0.612,-2.56 -1.664,-2.56 -1.021,0 -1.611,0.854 -1.769,2.56 h 3.433 z"
   id="path3183"
   inkscape:connector-curvature="0"
   style="fill:#ffffff" />
			<path
   d="m 378.152,29.699 c 0,0.867 -0.286,1.578 -0.854,2.133 -0.627,0.625 -1.492,0.938 -2.602,0.938 -1.11,0 -2.112,-0.207 -3.007,-0.619 -0.285,-0.125 -0.377,-0.34 -0.275,-0.638 l 0.275,-0.896 c 0.086,-0.255 0.227,-0.384 0.427,-0.384 0.071,0 0.136,0.017 0.194,0.043 0.935,0.396 1.717,0.598 2.342,0.598 0.854,0 1.28,-0.363 1.28,-1.089 0,-0.469 -0.364,-0.923 -1.089,-1.364 -1.348,-0.809 -2.031,-1.221 -2.045,-1.238 -0.725,-0.581 -1.088,-1.276 -1.088,-2.087 0,-0.868 0.292,-1.566 0.873,-2.1 0.583,-0.534 1.395,-0.8 2.432,-0.8 0.896,0 1.691,0.15 2.386,0.447 0.315,0.129 0.415,0.343 0.301,0.642 l -0.276,0.724 c -0.113,0.313 -0.306,0.419 -0.571,0.32 -0.722,-0.27 -1.302,-0.406 -1.737,-0.406 -0.792,0 -1.189,0.342 -1.189,1.024 0,0.383 0.367,0.796 1.104,1.235 1.131,0.669 1.803,1.097 2.016,1.279 0.734,0.627 1.103,1.373 1.103,2.238 z"
   id="path3185"
   inkscape:connector-curvature="0"
   style="fill:#ffffff" />
			<path
   d="m 387.976,27.46 c 0,1.649 -0.365,2.947 -1.097,3.892 -0.734,0.944 -1.758,1.418 -3.08,1.418 -1.324,0 -2.357,-0.471 -3.104,-1.407 -0.746,-0.938 -1.117,-2.239 -1.117,-3.902 0,-1.634 0.371,-2.919 1.117,-3.857 0.746,-0.939 1.779,-1.408 3.104,-1.408 1.307,0 2.33,0.469 3.068,1.408 0.738,0.937 1.109,2.222 1.109,3.856 z m -2.259,0 c 0,-2.288 -0.658,-3.432 -1.973,-3.432 -1.299,0 -1.949,1.144 -1.949,3.432 0,2.29 0.65,3.433 1.949,3.433 1.315,0 1.973,-1.143 1.973,-3.433 z"
   id="path3187"
   inkscape:connector-curvature="0"
   style="fill:#ffffff" />
			<path
   d="m 397.74,32.15 c 0,0.329 -0.162,0.49 -0.489,0.49 h -0.853 c -0.271,0 -0.441,-0.142 -0.513,-0.426 l -0.213,-0.896 c -0.91,0.967 -1.92,1.451 -3.028,1.451 -0.796,0 -1.431,-0.237 -1.905,-0.713 -0.478,-0.477 -0.716,-1.134 -0.716,-1.975 v -7.27 c 0,-0.325 0.17,-0.489 0.513,-0.489 h 1.193 c 0.342,0 0.512,0.164 0.512,0.489 v 6.887 c 0,0.811 0.38,1.217 1.144,1.217 0.634,0 1.149,-0.248 1.545,-0.736 0.396,-0.492 0.593,-1.17 0.593,-2.036 v -5.332 c 0,-0.325 0.173,-0.489 0.518,-0.489 h 1.206 c 0.33,0 0.494,0.164 0.494,0.489 v 9.339 z"
   id="path3189"
   inkscape:connector-curvature="0"
   style="fill:#ffffff" />
			<path
   d="m 406.332,23.068 -0.316,1.195 c -0.086,0.325 -0.297,0.46 -0.635,0.404 -0.129,-0.015 -0.337,-0.08 -0.627,-0.192 -0.291,-0.113 -0.512,-0.171 -0.668,-0.171 -0.383,0 -0.692,0.221 -0.932,0.661 -0.283,0.499 -0.426,1.224 -0.426,2.177 v 5.008 c 0,0.329 -0.174,0.49 -0.515,0.49 h -1.187 c -0.342,0 -0.514,-0.161 -0.514,-0.49 v -9.338 c 0,-0.325 0.17,-0.489 0.509,-0.489 h 0.79 c 0.312,0 0.506,0.142 0.576,0.425 l 0.234,0.918 c 0.624,-0.98 1.421,-1.472 2.388,-1.472 1.04,0 1.479,0.293 1.323,0.874 z"
   id="path3191"
   inkscape:connector-curvature="0"
   style="fill:#ffffff" />
			<path
   d="m 413.752,31.874 c 0.057,0.3 -0.056,0.498 -0.342,0.599 -0.582,0.196 -1.279,0.297 -2.088,0.297 -1.353,0 -2.404,-0.447 -3.156,-1.344 -0.795,-0.938 -1.193,-2.286 -1.193,-4.05 0,-1.507 0.4,-2.747 1.203,-3.719 0.803,-0.975 1.881,-1.462 3.23,-1.462 0.442,0 0.895,0.065 1.365,0.192 0.682,0.172 0.965,0.426 0.854,0.768 l -0.299,0.895 c -0.072,0.227 -0.2,0.343 -0.385,0.343 -0.143,0 -0.374,-0.052 -0.692,-0.149 -0.319,-0.103 -0.58,-0.15 -0.778,-0.15 -0.682,0 -1.221,0.284 -1.609,0.856 -0.392,0.568 -0.586,1.383 -0.586,2.436 0,2.282 0.772,3.424 2.323,3.424 0.452,0 0.925,-0.072 1.407,-0.213 0.328,-0.086 0.519,0.028 0.577,0.34 l 0.169,0.937 z"
   id="path3193"
   inkscape:connector-curvature="0"
   style="fill:#ffffff" />
			<path
   d="m 423.027,27.523 c 0,0.342 -0.167,0.513 -0.491,0.513 h -5.161 c 0.045,0.954 0.235,1.641 0.576,2.069 0.384,0.499 1.018,0.746 1.898,0.746 0.54,0 1.215,-0.129 2.025,-0.385 0.057,-0.014 0.111,-0.021 0.172,-0.021 0.182,0 0.318,0.113 0.404,0.341 l 0.297,0.854 c 0.102,0.269 0,0.469 -0.297,0.598 -0.812,0.354 -1.757,0.531 -2.837,0.531 -1.45,0 -2.563,-0.451 -3.348,-1.354 -0.781,-0.901 -1.173,-2.228 -1.173,-3.975 0,-1.58 0.361,-2.847 1.088,-3.807 0.727,-0.96 1.699,-1.439 2.922,-1.439 2.615,0 3.925,1.778 3.925,5.329 z m -2.218,-1.043 c -0.056,-1.706 -0.612,-2.56 -1.664,-2.56 -1.022,0 -1.612,0.854 -1.77,2.56 h 3.434 z"
   id="path3195"
   inkscape:connector-curvature="0"
   style="fill:#ffffff" />
			<path
   d="m 431.299,29.699 c 0,0.867 -0.285,1.578 -0.854,2.133 -0.627,0.625 -1.492,0.938 -2.6,0.938 -1.109,0 -2.112,-0.207 -3.007,-0.619 -0.285,-0.125 -0.378,-0.34 -0.276,-0.638 l 0.276,-0.896 c 0.085,-0.255 0.228,-0.384 0.425,-0.384 0.074,0 0.137,0.017 0.193,0.043 0.938,0.396 1.719,0.598 2.345,0.598 0.853,0 1.281,-0.363 1.281,-1.089 0,-0.469 -0.364,-0.923 -1.089,-1.364 -1.351,-0.809 -2.035,-1.221 -2.047,-1.238 -0.727,-0.581 -1.086,-1.276 -1.086,-2.087 0,-0.868 0.289,-1.566 0.872,-2.1 0.582,-0.534 1.394,-0.8 2.431,-0.8 0.895,0 1.691,0.15 2.387,0.447 0.314,0.129 0.413,0.343 0.3,0.642 l -0.276,0.724 c -0.113,0.313 -0.305,0.419 -0.57,0.32 -0.723,-0.27 -1.303,-0.406 -1.739,-0.406 -0.791,0 -1.188,0.342 -1.188,1.024 0,0.383 0.367,0.796 1.102,1.235 1.132,0.669 1.805,1.097 2.017,1.279 0.736,0.627 1.103,1.373 1.103,2.238 z"
   id="path3197"
   inkscape:connector-curvature="0"
   style="fill:#ffffff" />
		</g>
	</g>
</g>


<g
   id="g3696"><g
     id="Layer_1-7">
	<rect
   id="rect3547"
   height="141.73"
   width="212.60001"
   x="0"
   y="0"
   style="fill:#ffffff" />
	<polygon
   id="polygon3549"
   points="184.5,126.5 30.5,126.5 129,18 "
   style="fill:#ffffff;stroke:#000000;stroke-width:0.75" />
	<g
   id="g3551">
		<path
   id="path3553"
   d="m 21.24,128.402 v 2.203 c 0,0.43 0.026,0.7 0.079,0.812 0.053,0.112 0.146,0.2 0.281,0.267 0.135,0.067 0.382,0.1 0.741,0.1 V 132 h -4.037 v -0.217 c 0.367,0 0.616,-0.034 0.747,-0.103 0.131,-0.069 0.223,-0.157 0.275,-0.267 0.052,-0.11 0.079,-0.379 0.079,-0.809 v -5.156 c 0,-0.43 -0.026,-0.7 -0.079,-0.812 -0.053,-0.112 -0.146,-0.2 -0.278,-0.267 -0.132,-0.067 -0.381,-0.1 -0.744,-0.1 v -0.217 h 3.463 c 1.141,0 1.959,0.203 2.455,0.609 0.496,0.406 0.744,0.914 0.744,1.523 0,0.516 -0.16,0.957 -0.48,1.324 -0.32,0.367 -0.762,0.617 -1.324,0.75 -0.379,0.097 -1.019,0.144 -1.922,0.144 z m 0,-3.89 v 3.434 c 0.129,0.008 0.227,0.012 0.293,0.012 0.477,0 0.844,-0.142 1.102,-0.425 0.258,-0.283 0.387,-0.722 0.387,-1.315 0,-0.59 -0.129,-1.021 -0.387,-1.295 -0.258,-0.274 -0.643,-0.41 -1.154,-0.41 H 21.24 z"
   inkscape:connector-curvature="0" />
	</g>
	<g
   id="g3555">
		<path
   id="path3557"
   d="m 131.688,8.379 v 2.227 c 0,0.43 0.026,0.7 0.079,0.812 0.053,0.112 0.146,0.2 0.278,0.267 0.132,0.067 0.381,0.1 0.744,0.1 V 12 h -4.066 v -0.217 c 0.367,0 0.616,-0.034 0.747,-0.103 0.131,-0.069 0.223,-0.157 0.275,-0.267 0.052,-0.11 0.079,-0.379 0.079,-0.809 V 5.449 c 0,-0.43 -0.026,-0.7 -0.079,-0.812 -0.053,-0.112 -0.146,-0.2 -0.278,-0.267 -0.132,-0.067 -0.381,-0.1 -0.744,-0.1 V 4.055 h 3.691 c 0.961,0 1.664,0.066 2.109,0.199 0.445,0.133 0.809,0.378 1.09,0.735 0.281,0.357 0.422,0.776 0.422,1.257 0,0.586 -0.211,1.07 -0.633,1.453 -0.27,0.242 -0.646,0.424 -1.131,0.545 l 1.91,2.689 c 0.25,0.348 0.428,0.564 0.533,0.65 0.16,0.121 0.346,0.188 0.557,0.199 V 12 h -2.502 l -2.561,-3.621 h -0.52 z m 0,-3.897 v 3.48 h 0.334 c 0.543,0 0.949,-0.05 1.219,-0.149 0.27,-0.099 0.481,-0.279 0.636,-0.539 0.155,-0.26 0.231,-0.599 0.231,-1.017 0,-0.605 -0.142,-1.053 -0.425,-1.342 -0.283,-0.289 -0.739,-0.434 -1.368,-0.434 h -0.627 z"
   inkscape:connector-curvature="0" />
	</g>
	<g
   id="g3559">
		<path
   id="path3561"
   d="m 192.236,128.922 c 0.18,0.52 0.459,0.91 0.838,1.172 0.379,0.262 0.854,0.393 1.424,0.393 0.156,0 0.322,-0.016 0.498,-0.047 v 0.357 c -0.59,0.148 -1.117,0.223 -1.582,0.223 -0.727,0 -1.376,-0.178 -1.948,-0.533 -0.572,-0.355 -1.003,-0.877 -1.292,-1.564 -0.961,-0.203 -1.735,-0.674 -2.323,-1.412 -0.588,-0.738 -0.882,-1.619 -0.882,-2.643 0,-1.188 0.398,-2.175 1.195,-2.962 0.797,-0.787 1.809,-1.181 3.035,-1.181 1.223,0 2.23,0.395 3.023,1.184 0.793,0.789 1.189,1.775 1.189,2.959 0,1.031 -0.311,1.928 -0.932,2.689 -0.621,0.761 -1.368,1.216 -2.243,1.365 z m -1.043,-7.752 c -0.703,0 -1.246,0.365 -1.629,1.096 -0.32,0.613 -0.48,1.486 -0.48,2.619 0,1.359 0.24,2.367 0.721,3.023 0.336,0.457 0.799,0.686 1.389,0.686 0.594,0 1.057,-0.225 1.389,-0.674 0.48,-0.645 0.721,-1.613 0.721,-2.906 0,-1.273 -0.15,-2.195 -0.451,-2.766 -0.376,-0.719 -0.929,-1.078 -1.66,-1.078 z"
   inkscape:connector-curvature="0" />
	</g>
	<g
   id="g3563">
		<path
   id="path3565"
   d="m 123.488,88.209 c 0.477,0 0.92,0.123 1.33,0.369 0.41,0.246 0.722,0.596 0.935,1.049 0.213,0.453 0.319,0.949 0.319,1.488 0,0.777 -0.197,1.428 -0.592,1.951 -0.477,0.633 -1.135,0.949 -1.975,0.949 -0.824,0 -1.459,-0.289 -1.904,-0.867 -0.445,-0.578 -0.668,-1.248 -0.668,-2.01 0,-0.785 0.228,-1.47 0.683,-2.054 0.455,-0.584 1.079,-0.875 1.872,-0.875 z m 0.024,0.416 c -0.199,0 -0.37,0.075 -0.513,0.226 -0.143,0.151 -0.236,0.447 -0.281,0.891 -0.045,0.444 -0.067,1.06 -0.067,1.849 0,0.418 0.027,0.809 0.082,1.172 0.043,0.277 0.135,0.488 0.275,0.633 0.14,0.145 0.301,0.217 0.48,0.217 0.176,0 0.322,-0.049 0.439,-0.146 0.152,-0.133 0.254,-0.318 0.305,-0.557 0.078,-0.371 0.117,-1.121 0.117,-2.25 0,-0.664 -0.037,-1.12 -0.111,-1.368 -0.074,-0.248 -0.184,-0.429 -0.328,-0.542 -0.101,-0.084 -0.234,-0.125 -0.398,-0.125 z"
   inkscape:connector-curvature="0" />
	</g>
	<circle
   id="circle3567"
   r="2.5"
   cy="85"
   cx="120.5"
   sodipodi:cx="120.5"
   sodipodi:cy="85"
   sodipodi:rx="2.5"
   sodipodi:ry="2.5"
   d="m 123,85 c 0,1.380712 -1.11929,2.5 -2.5,2.5 -1.38071,0 -2.5,-1.119288 -2.5,-2.5 0,-1.380712 1.11929,-2.5 2.5,-2.5 1.38071,0 2.5,1.119288 2.5,2.5 z" />
</g><g
     display="none"
     id="Layer_2"
     style="display:none">
	<g
   id="g3570"
   display="inline"
   style="display:inline">
		<g
   id="g3572">
			<path
   id="path3574"
   d="M 24.112,53.57 H 18.13 v -0.328 c 3.049,-2.67 5.063,-4.765 6.044,-6.284 0.455,-0.703 0.683,-1.441 0.683,-2.216 0,-0.614 -0.189,-1.115 -0.567,-1.502 -0.378,-0.387 -0.869,-0.58 -1.471,-0.58 -0.833,0 -1.519,0.398 -2.056,1.196 l -0.31,-0.142 c 0.301,-0.762 0.741,-1.354 1.32,-1.777 0.579,-0.422 1.206,-0.634 1.879,-0.634 0.762,0 1.403,0.262 1.923,0.785 0.52,0.523 0.78,1.157 0.78,1.901 0,0.52 -0.091,1.001 -0.274,1.445 -0.284,0.691 -0.807,1.465 -1.569,2.322 -1.158,1.312 -2.703,2.821 -4.635,4.529 h 3.013 c 0.484,0 0.883,-0.101 1.197,-0.301 0.313,-0.201 0.538,-0.47 0.673,-0.807 h 0.354 l -1.002,2.393 z"
   inkscape:connector-curvature="0" />
			<path
   id="path3576"
   d="m 36.653,40.967 -2.517,8.712 1.01,-0.86 c 1.105,-0.934 1.823,-1.625 2.154,-2.074 0.106,-0.147 0.16,-0.26 0.16,-0.336 0,-0.053 -0.018,-0.104 -0.053,-0.151 -0.036,-0.047 -0.105,-0.085 -0.208,-0.115 -0.104,-0.029 -0.285,-0.044 -0.545,-0.044 h -0.311 l 0.098,-0.336 h 3.873 l -0.088,0.336 c -0.443,0.024 -0.826,0.093 -1.148,0.208 -0.322,0.115 -0.634,0.285 -0.935,0.51 -0.597,0.443 -0.99,0.75 -1.179,0.921 l -0.762,0.674 c 0.13,0.425 0.29,1.019 0.479,1.781 0.319,1.265 0.535,2.015 0.647,2.251 0.112,0.236 0.228,0.354 0.346,0.354 0.101,0 0.219,-0.05 0.354,-0.151 0.307,-0.224 0.635,-0.582 0.984,-1.072 l 0.31,0.222 c -0.644,0.81 -1.137,1.343 -1.48,1.6 -0.343,0.257 -0.656,0.386 -0.939,0.386 -0.248,0 -0.44,-0.098 -0.576,-0.292 -0.236,-0.349 -0.629,-1.723 -1.179,-4.122 l -1.214,1.055 -0.914,3.146 h -1.383 l 2.942,-10.113 0.249,-0.86 c 0.029,-0.147 0.044,-0.277 0.044,-0.39 0,-0.142 -0.055,-0.26 -0.164,-0.354 -0.11,-0.095 -0.268,-0.142 -0.475,-0.142 -0.136,0 -0.352,0.03 -0.647,0.089 v -0.31 l 3.067,-0.523 z"
   inkscape:connector-curvature="0" />
			<path
   id="path3578"
   d="m 48.973,46.098 -0.257,0.922 h -1.48 c 0.112,0.319 0.168,0.618 0.168,0.895 0,0.78 -0.331,1.475 -0.993,2.083 -0.668,0.608 -1.583,0.945 -2.748,1.01 -0.626,0.189 -1.096,0.414 -1.409,0.674 -0.118,0.094 -0.177,0.192 -0.177,0.292 0,0.118 0.053,0.226 0.159,0.323 0.106,0.098 0.375,0.197 0.807,0.297 l 1.72,0.399 c 0.951,0.225 1.581,0.491 1.888,0.798 0.301,0.313 0.452,0.673 0.452,1.081 0,0.484 -0.179,0.928 -0.537,1.33 -0.358,0.402 -0.88,0.716 -1.568,0.944 -0.688,0.228 -1.449,0.341 -2.282,0.341 -0.733,0 -1.4,-0.087 -2.003,-0.262 -0.603,-0.174 -1.034,-0.409 -1.294,-0.705 -0.26,-0.295 -0.39,-0.6 -0.39,-0.913 0,-0.254 0.084,-0.519 0.252,-0.793 0.168,-0.274 0.379,-0.5 0.634,-0.678 0.16,-0.112 0.611,-0.378 1.356,-0.798 -0.272,-0.213 -0.408,-0.446 -0.408,-0.7 0,-0.236 0.12,-0.487 0.359,-0.753 0.239,-0.266 0.746,-0.558 1.52,-0.877 -0.65,-0.124 -1.166,-0.396 -1.546,-0.815 -0.381,-0.419 -0.572,-0.886 -0.572,-1.4 0,-0.839 0.368,-1.589 1.104,-2.251 0.735,-0.662 1.715,-0.993 2.938,-0.993 0.443,0 0.807,0.044 1.09,0.133 0.283,0.089 0.558,0.228 0.824,0.417 h 2.393 z m -7.321,7.472 c -0.479,0.219 -0.841,0.499 -1.086,0.842 -0.245,0.343 -0.368,0.68 -0.368,1.011 0,0.39 0.177,0.712 0.532,0.966 0.508,0.366 1.252,0.55 2.233,0.55 0.845,0 1.567,-0.144 2.167,-0.43 0.6,-0.286 0.899,-0.657 0.899,-1.112 0,-0.23 -0.111,-0.449 -0.332,-0.656 -0.222,-0.207 -0.651,-0.375 -1.29,-0.505 -0.348,-0.072 -1.266,-0.294 -2.755,-0.666 z m 4.245,-6.08 c 0,-0.473 -0.131,-0.845 -0.395,-1.117 -0.263,-0.271 -0.607,-0.408 -1.032,-0.408 -0.668,0 -1.219,0.335 -1.653,1.006 -0.434,0.671 -0.651,1.37 -0.651,2.096 0,0.455 0.139,0.827 0.417,1.117 0.278,0.29 0.615,0.435 1.011,0.435 0.313,0 0.616,-0.086 0.908,-0.257 0.292,-0.171 0.539,-0.408 0.74,-0.709 0.201,-0.301 0.36,-0.686 0.479,-1.152 0.117,-0.467 0.176,-0.804 0.176,-1.011 z"
   inkscape:connector-curvature="0" />
			<path
   id="path3580"
   d="m 61.522,48.323 c 0,0.886 -0.235,1.764 -0.705,2.632 -0.47,0.868 -1.124,1.557 -1.963,2.065 -0.839,0.508 -1.655,0.762 -2.446,0.762 -0.81,0 -1.47,-0.259 -1.981,-0.776 -0.511,-0.517 -0.767,-1.186 -0.767,-2.007 0,-0.869 0.25,-1.74 0.749,-2.615 0.499,-0.874 1.167,-1.565 2.003,-2.074 0.836,-0.509 1.644,-0.762 2.424,-0.762 0.78,0 1.422,0.257 1.927,0.771 0.507,0.515 0.759,1.182 0.759,2.004 z m -1.471,-0.612 c 0,-0.55 -0.134,-0.971 -0.403,-1.263 -0.269,-0.292 -0.616,-0.438 -1.041,-0.438 -0.869,0 -1.668,0.622 -2.397,1.866 -0.73,1.244 -1.095,2.48 -1.095,3.709 0,0.562 0.142,0.994 0.425,1.298 0.284,0.305 0.641,0.457 1.073,0.457 0.833,0 1.614,-0.619 2.344,-1.857 0.73,-1.238 1.094,-2.495 1.094,-3.772 z"
   inkscape:connector-curvature="0" />
			<path
   id="path3582"
   d="m 67.585,45.762 -0.16,0.585 h -1.294 l -0.975,3.873 c -0.431,1.708 -0.865,3.028 -1.303,3.961 -0.62,1.318 -1.288,2.228 -2.003,2.73 -0.543,0.384 -1.087,0.576 -1.631,0.576 -0.354,0 -0.656,-0.106 -0.904,-0.319 -0.183,-0.147 -0.275,-0.34 -0.275,-0.576 0,-0.189 0.075,-0.354 0.226,-0.492 0.15,-0.139 0.335,-0.208 0.554,-0.208 0.16,0 0.294,0.05 0.403,0.15 0.109,0.1 0.164,0.216 0.164,0.346 0,0.13 -0.062,0.251 -0.186,0.363 -0.095,0.083 -0.142,0.145 -0.142,0.187 0,0.053 0.021,0.094 0.062,0.124 0.053,0.041 0.136,0.062 0.249,0.062 0.254,0 0.521,-0.08 0.802,-0.239 0.281,-0.16 0.531,-0.397 0.749,-0.714 0.219,-0.316 0.425,-0.772 0.621,-1.369 0.083,-0.248 0.304,-1.066 0.665,-2.455 l 1.542,-6 h -1.542 l 0.124,-0.585 c 0.491,0 0.833,-0.034 1.028,-0.102 0.195,-0.068 0.374,-0.198 0.536,-0.39 0.163,-0.192 0.374,-0.551 0.634,-1.077 0.349,-0.709 0.682,-1.259 1.001,-1.648 0.437,-0.526 0.896,-0.92 1.378,-1.184 0.482,-0.263 0.935,-0.394 1.361,-0.394 0.449,0 0.809,0.114 1.081,0.341 0.272,0.228 0.408,0.475 0.408,0.74 0,0.207 -0.068,0.381 -0.204,0.523 -0.136,0.142 -0.311,0.213 -0.523,0.213 -0.183,0 -0.333,-0.053 -0.448,-0.16 -0.115,-0.107 -0.173,-0.233 -0.173,-0.381 0,-0.094 0.039,-0.211 0.115,-0.35 0.077,-0.139 0.115,-0.231 0.115,-0.279 0,-0.083 -0.026,-0.145 -0.08,-0.186 -0.077,-0.059 -0.189,-0.089 -0.337,-0.089 -0.372,0 -0.706,0.118 -1.001,0.354 -0.396,0.313 -0.75,0.804 -1.063,1.471 -0.16,0.349 -0.452,1.214 -0.877,2.597 h 1.303 z"
   inkscape:connector-curvature="0" />
			<path
   id="path3584"
   d="m 72.734,46.045 3.058,-0.496 -1.276,4.308 c 1.034,-1.767 1.973,-3.002 2.818,-3.705 0.479,-0.402 0.869,-0.603 1.17,-0.603 0.195,0 0.349,0.058 0.461,0.173 0.112,0.115 0.168,0.282 0.168,0.5 0,0.39 -0.101,0.762 -0.302,1.117 -0.142,0.266 -0.345,0.398 -0.611,0.398 -0.136,0 -0.252,-0.044 -0.35,-0.133 -0.098,-0.088 -0.158,-0.225 -0.182,-0.408 -0.012,-0.112 -0.039,-0.186 -0.08,-0.222 -0.047,-0.047 -0.104,-0.071 -0.168,-0.071 -0.101,0 -0.195,0.024 -0.284,0.071 -0.154,0.083 -0.387,0.313 -0.7,0.691 -0.491,0.579 -1.022,1.33 -1.595,2.251 -0.249,0.39 -0.461,0.83 -0.638,1.32 -0.249,0.674 -0.39,1.079 -0.426,1.214 l -0.283,1.117 h -1.356 l 1.64,-5.504 c 0.189,-0.638 0.284,-1.093 0.284,-1.365 0,-0.106 -0.044,-0.195 -0.133,-0.266 -0.118,-0.094 -0.275,-0.142 -0.47,-0.142 -0.124,0 -0.352,0.026 -0.683,0.08 l -0.062,-0.325 z"
   inkscape:connector-curvature="0" />
			<path
   id="path3586"
   d="m 83.024,45.549 -1.755,6.213 c -0.118,0.419 -0.177,0.671 -0.177,0.753 0,0.095 0.028,0.171 0.084,0.23 0.056,0.059 0.123,0.088 0.199,0.088 0.089,0 0.195,-0.047 0.319,-0.142 0.336,-0.266 0.676,-0.644 1.019,-1.134 l 0.31,0.204 c -0.402,0.615 -0.875,1.132 -1.418,1.551 -0.402,0.313 -0.786,0.47 -1.152,0.47 -0.242,0 -0.44,-0.073 -0.594,-0.217 -0.154,-0.144 -0.23,-0.327 -0.23,-0.545 0,-0.219 0.074,-0.582 0.222,-1.09 l 1.152,-3.971 c 0.189,-0.65 0.284,-1.058 0.284,-1.223 0,-0.13 -0.046,-0.236 -0.138,-0.319 -0.091,-0.083 -0.217,-0.124 -0.376,-0.124 -0.13,0 -0.399,0.032 -0.807,0.097 v -0.346 l 3.058,-0.495 z M 82.909,42.03 c 0.249,0 0.458,0.085 0.629,0.257 0.171,0.172 0.257,0.381 0.257,0.629 0,0.242 -0.087,0.451 -0.262,0.625 -0.175,0.174 -0.383,0.261 -0.625,0.261 -0.242,0 -0.451,-0.087 -0.625,-0.261 -0.174,-0.174 -0.262,-0.383 -0.262,-0.625 0,-0.248 0.085,-0.458 0.257,-0.629 0.173,-0.171 0.383,-0.257 0.631,-0.257 z"
   inkscape:connector-curvature="0" />
			<path
   id="path3588"
   d="m 90.904,51.638 c -0.615,0.739 -1.235,1.281 -1.861,1.626 -0.626,0.345 -1.288,0.519 -1.985,0.519 -0.839,0 -1.493,-0.236 -1.963,-0.709 -0.47,-0.473 -0.705,-1.108 -0.705,-1.906 0,-0.904 0.253,-1.793 0.758,-2.668 0.505,-0.874 1.185,-1.585 2.039,-2.131 0.854,-0.546 1.691,-0.82 2.513,-0.82 0.644,0 1.125,0.134 1.445,0.403 0.319,0.269 0.479,0.598 0.479,0.988 0,0.366 -0.112,0.679 -0.337,0.939 -0.166,0.201 -0.369,0.301 -0.611,0.301 -0.183,0 -0.335,-0.059 -0.457,-0.177 -0.122,-0.118 -0.182,-0.266 -0.182,-0.443 0,-0.112 0.022,-0.215 0.066,-0.31 0.044,-0.094 0.136,-0.208 0.275,-0.341 0.139,-0.133 0.223,-0.229 0.252,-0.288 0.029,-0.059 0.044,-0.121 0.044,-0.186 0,-0.124 -0.056,-0.228 -0.168,-0.31 -0.171,-0.118 -0.414,-0.177 -0.727,-0.177 -0.58,0 -1.152,0.204 -1.72,0.611 -0.568,0.407 -1.052,0.987 -1.454,1.737 -0.484,0.91 -0.727,1.82 -0.727,2.73 0,0.603 0.171,1.08 0.514,1.431 0.342,0.352 0.809,0.527 1.4,0.527 0.455,0 0.905,-0.114 1.352,-0.341 0.446,-0.228 0.947,-0.64 1.502,-1.236 l 0.258,0.231 z"
   inkscape:connector-curvature="0" />
			<path
   id="path3590"
   d="m 94.112,50.229 c -0.042,0.295 -0.062,0.541 -0.062,0.735 0,0.526 0.186,0.974 0.558,1.343 0.373,0.37 0.825,0.554 1.356,0.554 0.425,0 0.834,-0.087 1.228,-0.262 0.393,-0.174 0.976,-0.56 1.75,-1.156 l 0.187,0.257 c -1.4,1.389 -2.736,2.083 -4.006,2.083 -0.863,0 -1.513,-0.272 -1.95,-0.815 -0.438,-0.543 -0.656,-1.144 -0.656,-1.799 0,-0.88 0.271,-1.781 0.815,-2.703 0.543,-0.922 1.226,-1.638 2.047,-2.149 0.821,-0.511 1.666,-0.767 2.535,-0.767 0.626,0 1.09,0.127 1.392,0.381 0.301,0.254 0.452,0.556 0.452,0.904 0,0.49 -0.195,0.96 -0.585,1.409 -0.514,0.585 -1.27,1.058 -2.269,1.418 -0.662,0.242 -1.593,0.431 -2.792,0.567 z m 0.062,-0.435 c 0.875,-0.1 1.586,-0.271 2.136,-0.514 0.727,-0.325 1.271,-0.713 1.635,-1.166 0.364,-0.452 0.545,-0.882 0.545,-1.29 0,-0.248 -0.079,-0.449 -0.235,-0.603 -0.157,-0.153 -0.38,-0.23 -0.669,-0.23 -0.603,0 -1.242,0.32 -1.918,0.961 -0.677,0.643 -1.175,1.59 -1.494,2.842 z"
   inkscape:connector-curvature="0" />
			<path
   id="path3592"
   d="m 109.923,45.762 -0.159,0.585 h -1.294 l -0.975,3.873 c -0.432,1.708 -0.866,3.028 -1.303,3.961 -0.621,1.318 -1.289,2.228 -2.003,2.73 -0.543,0.384 -1.087,0.576 -1.631,0.576 -0.354,0 -0.656,-0.106 -0.904,-0.319 -0.183,-0.147 -0.275,-0.34 -0.275,-0.576 0,-0.189 0.075,-0.354 0.226,-0.492 0.15,-0.139 0.335,-0.208 0.554,-0.208 0.16,0 0.294,0.05 0.403,0.15 0.109,0.1 0.164,0.216 0.164,0.346 0,0.13 -0.062,0.251 -0.186,0.363 -0.095,0.083 -0.142,0.145 -0.142,0.187 0,0.053 0.021,0.094 0.062,0.124 0.053,0.041 0.136,0.062 0.249,0.062 0.254,0 0.521,-0.08 0.802,-0.239 0.281,-0.16 0.531,-0.397 0.749,-0.714 0.219,-0.316 0.425,-0.772 0.621,-1.369 0.083,-0.248 0.304,-1.066 0.665,-2.455 l 1.542,-6 h -1.542 l 0.124,-0.585 c 0.49,0 0.833,-0.034 1.028,-0.102 0.195,-0.068 0.374,-0.198 0.536,-0.39 0.162,-0.192 0.374,-0.551 0.634,-1.077 0.349,-0.709 0.683,-1.259 1.001,-1.648 0.438,-0.526 0.897,-0.92 1.379,-1.184 0.481,-0.263 0.935,-0.394 1.36,-0.394 0.449,0 0.81,0.114 1.081,0.341 0.271,0.228 0.408,0.475 0.408,0.74 0,0.207 -0.068,0.381 -0.204,0.523 -0.136,0.142 -0.311,0.213 -0.523,0.213 -0.183,0 -0.332,-0.053 -0.447,-0.16 -0.115,-0.107 -0.173,-0.233 -0.173,-0.381 0,-0.094 0.038,-0.211 0.115,-0.35 0.077,-0.139 0.115,-0.231 0.115,-0.279 0,-0.083 -0.026,-0.145 -0.08,-0.186 -0.076,-0.059 -0.188,-0.089 -0.337,-0.089 -0.372,0 -0.706,0.118 -1.001,0.354 -0.396,0.313 -0.751,0.804 -1.063,1.471 -0.16,0.349 -0.452,1.214 -0.878,2.597 h 1.302 z"
   inkscape:connector-curvature="0" />
			<path
   id="path3594"
   d="m 117.98,48.323 c 0,0.886 -0.235,1.764 -0.705,2.632 -0.47,0.868 -1.124,1.557 -1.963,2.065 -0.839,0.508 -1.654,0.762 -2.446,0.762 -0.81,0 -1.47,-0.259 -1.98,-0.776 -0.512,-0.517 -0.767,-1.186 -0.767,-2.007 0,-0.869 0.249,-1.74 0.748,-2.615 0.5,-0.874 1.167,-1.565 2.004,-2.074 0.836,-0.508 1.644,-0.762 2.424,-0.762 0.779,0 1.422,0.257 1.928,0.771 0.505,0.515 0.757,1.182 0.757,2.004 z m -1.471,-0.612 c 0,-0.55 -0.135,-0.971 -0.403,-1.263 -0.268,-0.292 -0.616,-0.438 -1.041,-0.438 -0.869,0 -1.668,0.622 -2.397,1.866 -0.73,1.244 -1.095,2.48 -1.095,3.709 0,0.562 0.142,0.994 0.426,1.298 0.283,0.305 0.641,0.457 1.072,0.457 0.833,0 1.614,-0.619 2.344,-1.857 0.729,-1.238 1.094,-2.495 1.094,-3.772 z"
   inkscape:connector-curvature="0" />
			<path
   id="path3596"
   d="m 119.61,46.045 3.058,-0.496 -1.276,4.308 c 1.034,-1.767 1.974,-3.002 2.818,-3.705 0.479,-0.402 0.869,-0.603 1.17,-0.603 0.195,0 0.349,0.058 0.461,0.173 0.112,0.115 0.169,0.282 0.169,0.5 0,0.39 -0.101,0.762 -0.302,1.117 -0.142,0.266 -0.346,0.398 -0.611,0.398 -0.136,0 -0.253,-0.044 -0.351,-0.133 -0.097,-0.088 -0.157,-0.225 -0.182,-0.408 -0.012,-0.112 -0.038,-0.186 -0.079,-0.222 -0.048,-0.047 -0.104,-0.071 -0.169,-0.071 -0.101,0 -0.194,0.024 -0.283,0.071 -0.154,0.083 -0.387,0.313 -0.7,0.691 -0.49,0.579 -1.022,1.33 -1.596,2.251 -0.248,0.39 -0.461,0.83 -0.638,1.32 -0.248,0.674 -0.391,1.079 -0.426,1.214 l -0.283,1.117 h -1.356 l 1.64,-5.504 c 0.189,-0.638 0.284,-1.093 0.284,-1.365 0,-0.106 -0.045,-0.195 -0.134,-0.266 -0.118,-0.094 -0.274,-0.142 -0.47,-0.142 -0.124,0 -0.352,0.026 -0.682,0.08 l -0.062,-0.325 z"
   inkscape:connector-curvature="0" />
			<path
   id="path3598"
   d="m 136.849,45.549 -0.54,2.721 h -0.328 c -0.03,-0.792 -0.198,-1.368 -0.505,-1.728 -0.308,-0.36 -0.688,-0.541 -1.144,-0.541 -0.366,0 -0.657,0.101 -0.873,0.301 -0.216,0.2 -0.323,0.443 -0.323,0.727 0,0.195 0.042,0.381 0.128,0.559 0.086,0.178 0.273,0.425 0.563,0.744 0.769,0.839 1.265,1.472 1.489,1.897 0.224,0.425 0.337,0.827 0.337,1.205 0,0.615 -0.256,1.16 -0.767,1.635 -0.511,0.476 -1.156,0.714 -1.937,0.714 -0.426,0 -0.916,-0.101 -1.472,-0.302 -0.194,-0.071 -0.346,-0.106 -0.451,-0.106 -0.267,0 -0.468,0.136 -0.604,0.408 h -0.327 l 0.54,-2.872 h 0.328 c 0.035,0.898 0.222,1.533 0.559,1.905 0.337,0.372 0.798,0.559 1.383,0.559 0.448,0 0.805,-0.125 1.067,-0.377 0.263,-0.251 0.395,-0.56 0.395,-0.926 0,-0.236 -0.047,-0.455 -0.142,-0.656 -0.166,-0.354 -0.513,-0.845 -1.042,-1.471 -0.528,-0.626 -0.868,-1.096 -1.019,-1.409 -0.151,-0.313 -0.227,-0.626 -0.227,-0.939 0,-0.573 0.209,-1.058 0.625,-1.454 0.417,-0.396 0.953,-0.594 1.608,-0.594 0.189,0 0.36,0.015 0.515,0.044 0.082,0.018 0.276,0.084 0.58,0.199 0.305,0.115 0.507,0.173 0.607,0.173 0.254,0 0.467,-0.139 0.638,-0.417 h 0.339 z"
   inkscape:connector-curvature="0" />
			<path
   id="path3600"
   d="m 142.655,40.967 -2.491,8.606 c 1.075,-1.619 1.915,-2.694 2.518,-3.226 0.603,-0.532 1.179,-0.798 1.729,-0.798 0.283,0 0.52,0.098 0.709,0.292 0.188,0.195 0.283,0.455 0.283,0.78 0,0.39 -0.083,0.863 -0.248,1.418 l -1.081,3.714 c -0.137,0.449 -0.204,0.697 -0.204,0.745 0,0.083 0.025,0.15 0.075,0.204 0.05,0.054 0.107,0.08 0.173,0.08 0.077,0 0.165,-0.039 0.266,-0.115 0.337,-0.26 0.671,-0.621 1.002,-1.082 l 0.274,0.168 c -0.201,0.313 -0.479,0.657 -0.837,1.033 -0.358,0.375 -0.665,0.635 -0.922,0.78 -0.258,0.145 -0.486,0.217 -0.688,0.217 -0.219,0 -0.397,-0.07 -0.536,-0.208 -0.139,-0.138 -0.208,-0.317 -0.208,-0.536 0,-0.26 0.104,-0.745 0.311,-1.454 l 1.019,-3.545 c 0.13,-0.443 0.195,-0.792 0.195,-1.045 0,-0.118 -0.037,-0.213 -0.11,-0.284 -0.074,-0.071 -0.17,-0.106 -0.288,-0.106 -0.172,0 -0.367,0.065 -0.585,0.195 -0.402,0.249 -0.866,0.709 -1.392,1.383 -0.143,0.183 -0.615,0.922 -1.418,2.216 -0.249,0.414 -0.452,0.866 -0.612,1.356 l -0.567,1.817 h -1.329 l 2.916,-10.139 0.311,-1.099 c 0,-0.154 -0.063,-0.29 -0.19,-0.408 -0.128,-0.118 -0.282,-0.177 -0.466,-0.177 -0.106,0 -0.269,0.018 -0.487,0.053 l -0.187,0.026 V 41.48 l 3.065,-0.513 z"
   inkscape:connector-curvature="0" />
			<path
   id="path3602"
   d="m 158.52,41.303 -2.854,9.936 c -0.165,0.585 -0.248,1.007 -0.248,1.268 0,0.219 0.075,0.385 0.227,0.5 0.15,0.115 0.503,0.194 1.059,0.235 l -0.089,0.328 h -4.564 l 0.125,-0.328 c 0.484,-0.012 0.803,-0.05 0.957,-0.115 0.248,-0.106 0.434,-0.248 0.558,-0.425 0.195,-0.271 0.394,-0.759 0.595,-1.462 l 2.056,-7.135 c 0.124,-0.431 0.192,-0.679 0.204,-0.744 0.018,-0.118 0.026,-0.233 0.026,-0.346 0,-0.207 -0.056,-0.37 -0.168,-0.488 -0.112,-0.118 -0.267,-0.177 -0.461,-0.177 -0.154,0 -0.394,0.036 -0.718,0.106 l -0.115,-0.319 2.986,-0.833 h 0.424 z"
   inkscape:connector-curvature="0" />
			<path
   id="path3604"
   d="m 164.697,41.552 h 4.015 l -0.407,1.462 h -3.607 l -0.665,1.48 c 0.957,0.154 1.702,0.452 2.233,0.895 0.821,0.691 1.232,1.658 1.232,2.898 0,0.821 -0.152,1.564 -0.456,2.229 -0.305,0.665 -0.677,1.222 -1.117,1.67 -0.44,0.449 -0.911,0.804 -1.414,1.064 -0.686,0.354 -1.376,0.532 -2.073,0.532 -0.598,0 -1.07,-0.13 -1.418,-0.39 -0.237,-0.177 -0.354,-0.402 -0.354,-0.674 0,-0.212 0.076,-0.394 0.229,-0.545 0.154,-0.15 0.343,-0.226 0.567,-0.226 0.313,0 0.662,0.157 1.046,0.47 0.236,0.195 0.432,0.325 0.585,0.39 0.124,0.053 0.272,0.08 0.443,0.08 0.668,0 1.282,-0.332 1.844,-0.997 0.562,-0.665 0.842,-1.529 0.842,-2.592 0,-0.739 -0.149,-1.368 -0.447,-1.888 -0.299,-0.52 -0.679,-0.886 -1.14,-1.099 -0.46,-0.213 -1.075,-0.36 -1.843,-0.443 l 1.905,-4.316 z"
   inkscape:connector-curvature="0" />
			<path
   id="path3606"
   d="m 175.359,53.57 h -5.983 v -0.328 c 3.049,-2.67 5.064,-4.765 6.045,-6.284 0.455,-0.703 0.683,-1.441 0.683,-2.216 0,-0.614 -0.189,-1.115 -0.567,-1.502 -0.378,-0.387 -0.868,-0.58 -1.472,-0.58 -0.833,0 -1.519,0.398 -2.056,1.196 l -0.311,-0.142 c 0.302,-0.762 0.742,-1.354 1.321,-1.777 0.578,-0.422 1.205,-0.634 1.879,-0.634 0.762,0 1.403,0.262 1.923,0.785 0.52,0.523 0.78,1.157 0.78,1.901 0,0.52 -0.092,1.001 -0.275,1.445 -0.283,0.691 -0.807,1.465 -1.568,2.322 -1.158,1.312 -2.703,2.821 -4.636,4.529 h 3.014 c 0.484,0 0.884,-0.101 1.196,-0.301 0.313,-0.201 0.538,-0.47 0.674,-0.807 h 0.354 l -1.001,2.393 z"
   inkscape:connector-curvature="0" />
			<path
   id="path3608"
   d="m 45.729,62.749 -2.517,8.712 1.01,-0.86 c 1.105,-0.934 1.823,-1.625 2.154,-2.074 0.106,-0.147 0.16,-0.26 0.16,-0.336 0,-0.053 -0.018,-0.104 -0.053,-0.151 -0.036,-0.047 -0.105,-0.085 -0.208,-0.115 -0.104,-0.029 -0.285,-0.044 -0.545,-0.044 h -0.311 l 0.098,-0.336 h 3.873 l -0.088,0.336 c -0.443,0.024 -0.826,0.093 -1.148,0.208 -0.322,0.115 -0.634,0.285 -0.935,0.51 -0.597,0.443 -0.99,0.75 -1.179,0.921 l -0.762,0.674 c 0.13,0.425 0.29,1.019 0.479,1.781 0.319,1.265 0.535,2.016 0.647,2.252 0.112,0.236 0.228,0.354 0.346,0.354 0.101,0 0.219,-0.051 0.354,-0.151 0.307,-0.224 0.635,-0.582 0.984,-1.072 l 0.31,0.222 c -0.644,0.81 -1.137,1.343 -1.48,1.6 -0.343,0.257 -0.656,0.386 -0.939,0.386 -0.248,0 -0.44,-0.098 -0.576,-0.292 -0.236,-0.349 -0.629,-1.723 -1.179,-4.122 l -1.214,1.055 -0.913,3.146 h -1.383 l 2.942,-10.113 0.249,-0.86 c 0.029,-0.147 0.044,-0.277 0.044,-0.39 0,-0.142 -0.055,-0.26 -0.164,-0.354 -0.11,-0.095 -0.268,-0.142 -0.475,-0.142 -0.136,0 -0.352,0.03 -0.647,0.089 v -0.31 l 3.066,-0.524 z"
   inkscape:connector-curvature="0" />
			<path
   id="path3610"
   d="m 58.048,67.88 -0.257,0.922 h -1.48 c 0.112,0.319 0.168,0.618 0.168,0.895 0,0.78 -0.331,1.475 -0.993,2.083 -0.668,0.609 -1.583,0.946 -2.748,1.01 -0.626,0.189 -1.096,0.414 -1.409,0.674 -0.118,0.095 -0.177,0.192 -0.177,0.293 0,0.118 0.053,0.226 0.159,0.323 0.106,0.098 0.375,0.196 0.807,0.297 l 1.72,0.398 c 0.951,0.225 1.581,0.491 1.888,0.798 0.301,0.313 0.452,0.674 0.452,1.081 0,0.484 -0.179,0.928 -0.537,1.33 -0.357,0.401 -0.88,0.716 -1.568,0.943 -0.688,0.228 -1.449,0.342 -2.282,0.342 -0.733,0 -1.4,-0.088 -2.003,-0.262 -0.603,-0.175 -1.034,-0.409 -1.294,-0.705 -0.26,-0.295 -0.39,-0.6 -0.39,-0.912 0,-0.255 0.084,-0.519 0.252,-0.794 0.168,-0.274 0.379,-0.5 0.634,-0.678 0.16,-0.112 0.611,-0.378 1.356,-0.798 -0.272,-0.213 -0.408,-0.445 -0.408,-0.7 0,-0.236 0.12,-0.487 0.359,-0.753 0.239,-0.266 0.746,-0.559 1.52,-0.878 -0.65,-0.124 -1.166,-0.396 -1.546,-0.815 -0.381,-0.419 -0.572,-0.886 -0.572,-1.4 0,-0.839 0.368,-1.589 1.104,-2.251 0.735,-0.662 1.715,-0.993 2.938,-0.993 0.443,0 0.807,0.044 1.09,0.133 0.283,0.089 0.558,0.228 0.824,0.417 h 2.393 z m -7.32,7.472 c -0.479,0.219 -0.841,0.499 -1.086,0.842 -0.245,0.343 -0.368,0.68 -0.368,1.011 0,0.39 0.177,0.712 0.532,0.966 0.508,0.366 1.252,0.55 2.233,0.55 0.845,0 1.567,-0.144 2.167,-0.43 0.6,-0.287 0.899,-0.657 0.899,-1.112 0,-0.23 -0.111,-0.449 -0.332,-0.656 -0.222,-0.207 -0.651,-0.375 -1.29,-0.505 -0.348,-0.073 -1.267,-0.294 -2.755,-0.666 z m 4.245,-6.081 c 0,-0.473 -0.131,-0.845 -0.395,-1.117 -0.263,-0.271 -0.607,-0.408 -1.032,-0.408 -0.668,0 -1.219,0.335 -1.653,1.006 -0.434,0.671 -0.651,1.37 -0.651,2.096 0,0.455 0.139,0.827 0.417,1.117 0.278,0.29 0.615,0.435 1.011,0.435 0.313,0 0.616,-0.086 0.908,-0.257 0.292,-0.172 0.539,-0.408 0.74,-0.709 0.201,-0.301 0.36,-0.686 0.479,-1.152 0.117,-0.467 0.176,-0.803 0.176,-1.011 z"
   inkscape:connector-curvature="0" />
			<path
   id="path3612"
   d="m 70.598,70.104 c 0,0.886 -0.235,1.764 -0.705,2.633 -0.47,0.868 -1.124,1.557 -1.963,2.065 -0.839,0.508 -1.655,0.762 -2.446,0.762 -0.81,0 -1.47,-0.259 -1.981,-0.775 -0.511,-0.516 -0.767,-1.187 -0.767,-2.008 0,-0.869 0.25,-1.74 0.749,-2.615 0.499,-0.874 1.167,-1.565 2.003,-2.074 0.836,-0.509 1.644,-0.762 2.424,-0.762 0.78,0 1.422,0.257 1.927,0.771 0.507,0.515 0.759,1.182 0.759,2.003 z m -1.471,-0.611 c 0,-0.55 -0.134,-0.971 -0.403,-1.263 -0.269,-0.292 -0.616,-0.438 -1.041,-0.438 -0.869,0 -1.668,0.622 -2.397,1.866 -0.73,1.244 -1.095,2.48 -1.095,3.709 0,0.562 0.142,0.994 0.425,1.299 0.283,0.305 0.641,0.456 1.073,0.456 0.833,0 1.614,-0.618 2.344,-1.856 0.729,-1.24 1.094,-2.496 1.094,-3.773 z"
   inkscape:connector-curvature="0" />
			<path
   id="path3614"
   d="m 76.661,67.543 -0.16,0.585 h -1.294 l -0.975,3.874 c -0.431,1.707 -0.865,3.028 -1.303,3.961 -0.62,1.318 -1.288,2.228 -2.003,2.73 -0.543,0.384 -1.087,0.576 -1.631,0.576 -0.354,0 -0.656,-0.106 -0.904,-0.319 -0.183,-0.147 -0.275,-0.34 -0.275,-0.576 0,-0.189 0.075,-0.354 0.226,-0.492 0.15,-0.139 0.335,-0.208 0.554,-0.208 0.16,0 0.294,0.05 0.403,0.15 0.109,0.1 0.164,0.216 0.164,0.346 0,0.13 -0.062,0.251 -0.186,0.363 -0.095,0.083 -0.142,0.146 -0.142,0.187 0,0.053 0.021,0.095 0.062,0.124 0.053,0.041 0.136,0.063 0.249,0.063 0.254,0 0.521,-0.08 0.802,-0.239 0.281,-0.16 0.531,-0.397 0.749,-0.714 0.219,-0.316 0.425,-0.772 0.621,-1.369 0.083,-0.248 0.304,-1.066 0.665,-2.455 l 1.542,-6 h -1.542 l 0.124,-0.585 c 0.491,0 0.833,-0.034 1.028,-0.102 0.195,-0.068 0.374,-0.198 0.536,-0.39 0.163,-0.192 0.374,-0.551 0.634,-1.077 0.349,-0.709 0.682,-1.259 1.001,-1.648 0.437,-0.526 0.896,-0.92 1.378,-1.184 0.482,-0.263 0.935,-0.394 1.361,-0.394 0.449,0 0.809,0.114 1.081,0.341 0.272,0.228 0.408,0.475 0.408,0.74 0,0.207 -0.068,0.381 -0.204,0.523 -0.136,0.142 -0.311,0.213 -0.523,0.213 -0.183,0 -0.333,-0.053 -0.448,-0.16 -0.115,-0.107 -0.173,-0.233 -0.173,-0.381 0,-0.094 0.039,-0.211 0.115,-0.35 0.077,-0.139 0.115,-0.231 0.115,-0.279 0,-0.083 -0.026,-0.145 -0.08,-0.186 -0.077,-0.059 -0.189,-0.089 -0.337,-0.089 -0.372,0 -0.706,0.118 -1.001,0.354 -0.396,0.313 -0.75,0.804 -1.063,1.471 -0.16,0.349 -0.452,1.214 -0.877,2.597 h 1.303 z"
   inkscape:connector-curvature="0" />
			<path
   id="path3616"
   d="m 84.797,67.331 -1.152,3.997 c 0.514,-0.939 0.951,-1.646 1.312,-2.118 0.561,-0.732 1.108,-1.264 1.64,-1.595 0.313,-0.189 0.641,-0.284 0.984,-0.284 0.295,0 0.541,0.095 0.735,0.284 0.195,0.189 0.292,0.431 0.292,0.727 0,0.29 -0.068,0.668 -0.204,1.135 l -0.629,2.251 c 0.963,-1.802 1.876,-3.066 2.739,-3.793 0.479,-0.402 0.951,-0.603 1.418,-0.603 0.272,0 0.495,0.093 0.669,0.279 0.174,0.186 0.261,0.474 0.261,0.864 0,0.343 -0.053,0.707 -0.16,1.09 l -0.975,3.448 c -0.213,0.751 -0.319,1.167 -0.319,1.25 0,0.083 0.027,0.153 0.08,0.213 0.035,0.041 0.083,0.062 0.142,0.062 0.059,0 0.163,-0.056 0.31,-0.168 0.337,-0.26 0.653,-0.603 0.949,-1.028 l 0.292,0.187 c -0.148,0.236 -0.41,0.562 -0.785,0.975 -0.375,0.414 -0.696,0.694 -0.961,0.842 -0.266,0.147 -0.511,0.222 -0.736,0.222 -0.207,0 -0.38,-0.071 -0.519,-0.213 -0.139,-0.142 -0.208,-0.315 -0.208,-0.522 0,-0.284 0.121,-0.854 0.363,-1.711 l 0.807,-2.845 c 0.183,-0.656 0.28,-1.019 0.292,-1.09 0.018,-0.112 0.026,-0.222 0.026,-0.328 0,-0.147 -0.033,-0.263 -0.098,-0.346 -0.071,-0.083 -0.15,-0.124 -0.239,-0.124 -0.248,0 -0.511,0.127 -0.789,0.381 -0.815,0.75 -1.578,1.802 -2.287,3.155 -0.467,0.893 -0.904,2.036 -1.312,3.43 H 85.4 l 1.515,-5.362 c 0.166,-0.579 0.249,-0.966 0.249,-1.161 0,-0.16 -0.033,-0.278 -0.098,-0.355 -0.065,-0.077 -0.145,-0.115 -0.239,-0.115 -0.195,0 -0.402,0.071 -0.621,0.212 -0.354,0.23 -0.811,0.724 -1.369,1.48 -0.559,0.757 -0.991,1.48 -1.298,2.172 -0.148,0.324 -0.5,1.367 -1.055,3.128 h -1.312 l 1.64,-5.743 0.213,-0.745 c 0.041,-0.112 0.062,-0.195 0.062,-0.248 0,-0.13 -0.059,-0.247 -0.177,-0.35 -0.118,-0.103 -0.269,-0.155 -0.452,-0.155 -0.077,0 -0.29,0.036 -0.638,0.106 l -0.08,-0.328 3.057,-0.56 z"
   inkscape:connector-curvature="0" />
			<path
   id="path3618"
   d="m 96.133,72.011 c -0.042,0.295 -0.062,0.54 -0.062,0.735 0,0.526 0.186,0.974 0.558,1.343 0.373,0.369 0.825,0.554 1.356,0.554 0.425,0 0.834,-0.087 1.228,-0.262 0.393,-0.174 0.976,-0.56 1.75,-1.156 l 0.187,0.257 c -1.4,1.389 -2.736,2.083 -4.006,2.083 -0.863,0 -1.513,-0.271 -1.95,-0.815 -0.438,-0.543 -0.656,-1.144 -0.656,-1.799 0,-0.881 0.271,-1.782 0.815,-2.704 0.543,-0.922 1.226,-1.638 2.047,-2.149 0.821,-0.511 1.666,-0.767 2.535,-0.767 0.626,0 1.09,0.127 1.392,0.381 0.301,0.254 0.452,0.556 0.452,0.904 0,0.49 -0.195,0.96 -0.585,1.409 -0.514,0.585 -1.27,1.058 -2.269,1.418 -0.662,0.243 -1.593,0.432 -2.792,0.568 z m 0.062,-0.435 c 0.875,-0.1 1.586,-0.271 2.136,-0.514 0.727,-0.325 1.271,-0.713 1.635,-1.166 0.364,-0.452 0.545,-0.882 0.545,-1.29 0,-0.248 -0.079,-0.449 -0.235,-0.603 -0.157,-0.153 -0.38,-0.23 -0.669,-0.23 -0.603,0 -1.242,0.32 -1.918,0.961 -0.677,0.642 -1.175,1.589 -1.494,2.842 z"
   inkscape:connector-curvature="0" />
			<path
   id="path3620"
   d="m 110.544,67.331 -1.729,6.009 -0.195,0.807 c -0.018,0.077 -0.026,0.142 -0.026,0.195 0,0.094 0.029,0.177 0.089,0.248 0.047,0.053 0.106,0.079 0.177,0.079 0.077,0 0.178,-0.047 0.302,-0.142 0.23,-0.171 0.537,-0.525 0.922,-1.063 l 0.301,0.213 c -0.407,0.614 -0.827,1.083 -1.258,1.404 -0.432,0.322 -0.83,0.483 -1.197,0.483 -0.254,0 -0.444,-0.063 -0.571,-0.19 -0.127,-0.127 -0.19,-0.312 -0.19,-0.554 0,-0.29 0.064,-0.671 0.195,-1.144 l 0.186,-0.665 c -0.774,1.011 -1.486,1.717 -2.136,2.118 -0.467,0.29 -0.925,0.435 -1.374,0.435 -0.431,0 -0.803,-0.179 -1.117,-0.536 -0.313,-0.357 -0.47,-0.85 -0.47,-1.476 0,-0.939 0.282,-1.931 0.847,-2.974 0.564,-1.042 1.281,-1.877 2.149,-2.503 0.68,-0.497 1.321,-0.745 1.924,-0.745 0.36,0 0.66,0.095 0.899,0.284 0.239,0.189 0.421,0.502 0.545,0.939 l 0.319,-1.01 1.408,-0.212 z m -3.155,0.461 c -0.378,0 -0.78,0.177 -1.205,0.532 -0.603,0.502 -1.139,1.247 -1.609,2.233 -0.47,0.986 -0.705,1.879 -0.705,2.677 0,0.402 0.1,0.72 0.301,0.953 0.201,0.233 0.431,0.35 0.691,0.35 0.644,0 1.345,-0.476 2.101,-1.427 1.011,-1.265 1.516,-2.562 1.516,-3.891 0,-0.502 -0.098,-0.865 -0.292,-1.09 -0.196,-0.225 -0.461,-0.337 -0.798,-0.337 z"
   inkscape:connector-curvature="0" />
			<path
   id="path3622"
   d="m 115.817,65.132 -0.691,2.411 h 1.392 l -0.15,0.558 h -1.383 l -1.524,5.229 c -0.165,0.562 -0.248,0.925 -0.248,1.09 0,0.101 0.023,0.178 0.071,0.23 0.047,0.054 0.103,0.08 0.168,0.08 0.147,0 0.343,-0.104 0.585,-0.311 0.142,-0.118 0.458,-0.481 0.948,-1.09 l 0.293,0.222 c -0.544,0.792 -1.058,1.351 -1.543,1.675 -0.33,0.225 -0.664,0.337 -1.001,0.337 -0.26,0 -0.473,-0.081 -0.639,-0.244 -0.165,-0.162 -0.248,-0.37 -0.248,-0.624 0,-0.319 0.095,-0.807 0.284,-1.463 L 113.61,68.1 h -1.338 l 0.089,-0.346 c 0.649,-0.177 1.19,-0.441 1.622,-0.793 0.431,-0.352 0.912,-0.962 1.444,-1.831 h 0.39 z"
   inkscape:connector-curvature="0" />
			<path
   id="path3624"
   d="m 133.163,66.861 -1.037,3.536 c -0.385,1.324 -0.618,2.163 -0.7,2.517 -0.083,0.354 -0.124,0.639 -0.124,0.852 0,0.188 0.063,0.349 0.19,0.479 0.127,0.13 0.285,0.194 0.474,0.194 0.432,0 0.95,-0.215 1.556,-0.646 0.606,-0.431 1.124,-1.132 1.556,-2.101 0.432,-0.969 0.647,-1.979 0.647,-3.031 0,-1.011 -0.244,-1.944 -0.731,-2.801 -0.487,-0.857 -1.176,-1.514 -2.065,-1.972 -0.889,-0.458 -1.871,-0.687 -2.947,-0.687 -1.364,0 -2.632,0.362 -3.802,1.086 -1.17,0.724 -2.096,1.765 -2.778,3.124 -0.683,1.359 -1.024,2.771 -1.024,4.237 0,1.359 0.3,2.594 0.9,3.705 0.6,1.111 1.442,1.951 2.53,2.521 1.087,0.57 2.257,0.855 3.51,0.855 1.554,0 2.958,-0.416 4.214,-1.25 1.256,-0.833 2.227,-2.05 2.912,-3.651 h 0.514 c -0.532,1.619 -1.498,2.931 -2.898,3.936 -1.4,1.004 -2.995,1.507 -4.786,1.507 -1.406,0 -2.712,-0.333 -3.917,-0.997 -1.205,-0.665 -2.142,-1.607 -2.81,-2.827 -0.668,-1.221 -1.002,-2.563 -1.002,-4.029 0,-1.56 0.366,-3.015 1.1,-4.365 0.732,-1.35 1.759,-2.405 3.08,-3.164 1.32,-0.759 2.722,-1.139 4.205,-1.139 1.223,0 2.326,0.252 3.311,0.758 0.983,0.505 1.732,1.244 2.246,2.215 0.515,0.972 0.771,2.005 0.771,3.098 0,1.082 -0.241,2.152 -0.723,3.213 -0.482,1.061 -1.094,1.834 -1.839,2.318 -0.744,0.484 -1.521,0.727 -2.331,0.727 -0.449,0 -0.787,-0.106 -1.015,-0.319 -0.228,-0.213 -0.341,-0.511 -0.341,-0.895 0,-0.331 0.053,-0.766 0.159,-1.304 -0.874,1.059 -1.574,1.743 -2.101,2.057 -0.527,0.314 -0.989,0.47 -1.392,0.47 -0.419,0 -0.792,-0.188 -1.116,-0.563 -0.325,-0.375 -0.488,-0.876 -0.488,-1.503 0,-0.856 0.279,-1.817 0.838,-2.88 0.559,-1.063 1.299,-1.929 2.221,-2.597 0.679,-0.491 1.288,-0.736 1.825,-0.736 0.396,0 0.726,0.102 0.988,0.306 0.263,0.204 0.441,0.51 0.536,0.917 l 0.293,-0.975 1.391,-0.196 z m -3.111,0.363 c -0.443,0 -0.893,0.233 -1.347,0.7 -0.668,0.686 -1.238,1.61 -1.711,2.774 -0.349,0.851 -0.523,1.537 -0.523,2.057 0,0.372 0.105,0.675 0.315,0.908 0.209,0.233 0.444,0.351 0.704,0.351 0.343,0 0.703,-0.13 1.081,-0.391 0.379,-0.26 0.774,-0.66 1.188,-1.2 0.413,-0.541 0.715,-1.083 0.903,-1.627 0.331,-0.939 0.497,-1.705 0.497,-2.295 0,-0.39 -0.108,-0.7 -0.324,-0.931 -0.216,-0.231 -0.476,-0.346 -0.783,-0.346 z"
   inkscape:connector-curvature="0" />
			<path
   id="path3626"
   d="m 143.966,67.331 -0.54,2.721 h -0.328 c -0.03,-0.792 -0.198,-1.368 -0.505,-1.728 -0.308,-0.36 -0.688,-0.541 -1.144,-0.541 -0.366,0 -0.657,0.101 -0.873,0.301 -0.216,0.2 -0.323,0.443 -0.323,0.727 0,0.195 0.042,0.381 0.128,0.559 0.086,0.178 0.273,0.425 0.563,0.744 0.769,0.839 1.265,1.472 1.489,1.897 0.225,0.425 0.337,0.827 0.337,1.205 0,0.614 -0.256,1.16 -0.767,1.635 -0.511,0.477 -1.156,0.714 -1.937,0.714 -0.426,0 -0.916,-0.101 -1.472,-0.302 -0.194,-0.07 -0.346,-0.105 -0.451,-0.105 -0.267,0 -0.468,0.136 -0.604,0.407 h -0.327 l 0.54,-2.871 h 0.328 c 0.035,0.897 0.222,1.533 0.559,1.905 0.337,0.372 0.798,0.559 1.383,0.559 0.448,0 0.805,-0.126 1.067,-0.377 0.262,-0.251 0.395,-0.56 0.395,-0.927 0,-0.235 -0.047,-0.454 -0.142,-0.655 -0.166,-0.354 -0.513,-0.845 -1.042,-1.472 -0.528,-0.626 -0.868,-1.096 -1.019,-1.409 -0.151,-0.313 -0.227,-0.626 -0.227,-0.939 0,-0.573 0.209,-1.058 0.625,-1.454 0.417,-0.396 0.953,-0.594 1.608,-0.594 0.189,0 0.36,0.015 0.515,0.044 0.082,0.018 0.276,0.084 0.58,0.199 0.305,0.115 0.507,0.173 0.607,0.173 0.254,0 0.467,-0.139 0.638,-0.417 h 0.339 z"
   inkscape:connector-curvature="0" />
			<path
   id="path3628"
   d="m 149.772,62.749 -2.491,8.606 c 1.075,-1.619 1.915,-2.694 2.518,-3.226 0.603,-0.532 1.179,-0.798 1.729,-0.798 0.283,0 0.52,0.098 0.709,0.292 0.188,0.195 0.283,0.455 0.283,0.78 0,0.39 -0.083,0.863 -0.248,1.418 l -1.081,3.714 c -0.137,0.449 -0.204,0.697 -0.204,0.744 0,0.083 0.025,0.15 0.075,0.204 0.05,0.053 0.107,0.08 0.173,0.08 0.077,0 0.165,-0.039 0.266,-0.115 0.337,-0.261 0.671,-0.621 1.002,-1.082 l 0.274,0.169 c -0.201,0.313 -0.479,0.657 -0.837,1.032 -0.358,0.375 -0.665,0.636 -0.922,0.78 -0.258,0.145 -0.486,0.217 -0.688,0.217 -0.219,0 -0.397,-0.069 -0.536,-0.208 -0.139,-0.139 -0.208,-0.317 -0.208,-0.536 0,-0.26 0.104,-0.745 0.311,-1.454 l 1.019,-3.545 c 0.13,-0.443 0.195,-0.792 0.195,-1.045 0,-0.118 -0.037,-0.213 -0.11,-0.284 -0.074,-0.071 -0.17,-0.106 -0.288,-0.106 -0.172,0 -0.367,0.065 -0.585,0.195 -0.402,0.249 -0.866,0.709 -1.392,1.383 -0.143,0.183 -0.615,0.922 -1.418,2.216 -0.249,0.414 -0.452,0.866 -0.612,1.356 l -0.567,1.816 h -1.329 l 2.916,-10.139 0.311,-1.099 c 0,-0.154 -0.063,-0.29 -0.19,-0.408 -0.128,-0.118 -0.282,-0.177 -0.466,-0.177 -0.106,0 -0.269,0.018 -0.487,0.053 l -0.187,0.026 v -0.346 l 3.065,-0.513 z"
   inkscape:connector-curvature="0" />
			<path
   id="path3630"
   d="m 165.637,63.085 -2.854,9.936 c -0.165,0.585 -0.248,1.008 -0.248,1.268 0,0.219 0.075,0.386 0.227,0.501 0.15,0.115 0.503,0.193 1.059,0.234 l -0.089,0.328 h -4.564 l 0.125,-0.328 c 0.484,-0.012 0.803,-0.05 0.957,-0.115 0.248,-0.105 0.434,-0.248 0.558,-0.425 0.195,-0.271 0.394,-0.76 0.595,-1.463 l 2.056,-7.135 c 0.124,-0.431 0.192,-0.679 0.204,-0.744 0.018,-0.118 0.026,-0.233 0.026,-0.346 0,-0.207 -0.056,-0.37 -0.168,-0.488 -0.112,-0.118 -0.267,-0.177 -0.461,-0.177 -0.154,0 -0.394,0.036 -0.718,0.106 l -0.115,-0.319 2.986,-0.833 h 0.424 z"
   inkscape:connector-curvature="0" />
			<path
   id="path3632"
   d="m 176.67,63.085 v 0.346 c -1.01,0.236 -1.991,0.734 -2.942,1.494 -0.951,0.76 -1.784,1.732 -2.499,2.92 0.638,-0.272 1.158,-0.408 1.56,-0.408 0.751,0 1.391,0.271 1.919,0.815 0.529,0.543 0.793,1.276 0.793,2.198 0,1.413 -0.454,2.618 -1.364,3.616 -0.91,0.999 -1.891,1.498 -2.942,1.498 -0.957,0 -1.683,-0.353 -2.176,-1.059 -0.494,-0.706 -0.74,-1.523 -0.74,-2.451 0,-1.211 0.28,-2.406 0.842,-3.585 0.562,-1.179 1.322,-2.19 2.282,-3.035 0.96,-0.845 1.957,-1.468 2.991,-1.87 0.613,-0.236 1.373,-0.396 2.276,-0.479 z m -5.867,5.504 c -0.845,1.802 -1.267,3.315 -1.267,4.538 0,0.633 0.159,1.13 0.479,1.494 0.318,0.363 0.685,0.545 1.099,0.545 0.68,0 1.313,-0.495 1.901,-1.485 0.588,-0.989 0.882,-2.137 0.882,-3.443 0,-0.697 -0.172,-1.235 -0.515,-1.613 -0.343,-0.378 -0.756,-0.567 -1.24,-0.567 -0.207,0 -0.403,0.034 -0.59,0.102 -0.186,0.067 -0.436,0.211 -0.749,0.429 z"
   inkscape:connector-curvature="0" />
			<path
   id="path3634"
   d="m 182.485,63.085 c 0.756,0 1.393,0.316 1.909,0.949 0.518,0.632 0.776,1.63 0.776,2.996 0,1.17 -0.192,2.363 -0.576,3.581 -0.385,1.217 -0.925,2.272 -1.622,3.165 -0.556,0.703 -1.138,1.211 -1.746,1.524 -0.354,0.177 -0.766,0.266 -1.232,0.266 -0.768,0 -1.41,-0.316 -1.928,-0.948 -0.517,-0.632 -0.775,-1.634 -0.775,-3.005 0,-1.353 0.26,-2.712 0.78,-4.077 0.608,-1.595 1.386,-2.806 2.331,-3.634 0.62,-0.545 1.315,-0.817 2.083,-0.817 z m 0.009,0.461 c -0.343,0 -0.69,0.135 -1.042,0.403 -0.352,0.269 -0.715,0.829 -1.09,1.68 -0.375,0.851 -0.734,1.947 -1.077,3.288 -0.443,1.755 -0.664,3.25 -0.664,4.485 0,0.614 0.133,1.073 0.398,1.378 0.265,0.305 0.588,0.456 0.966,0.456 0.36,0 0.668,-0.118 0.922,-0.354 0.68,-0.638 1.262,-1.729 1.746,-3.271 0.786,-2.523 1.179,-4.573 1.179,-6.151 0,-0.656 -0.133,-1.139 -0.398,-1.449 -0.267,-0.31 -0.58,-0.465 -0.94,-0.465 z"
   inkscape:connector-curvature="0" />
			<path
   id="path3636"
   d="M 24.112,97.134 H 18.13 v -0.328 c 3.049,-2.671 5.063,-4.765 6.044,-6.283 0.455,-0.703 0.683,-1.442 0.683,-2.216 0,-0.615 -0.189,-1.115 -0.567,-1.503 -0.378,-0.387 -0.869,-0.58 -1.471,-0.58 -0.833,0 -1.519,0.398 -2.056,1.196 l -0.31,-0.142 c 0.301,-0.763 0.741,-1.354 1.32,-1.777 0.579,-0.422 1.206,-0.634 1.879,-0.634 0.762,0 1.403,0.262 1.923,0.784 0.52,0.523 0.78,1.157 0.78,1.901 0,0.521 -0.091,1.002 -0.274,1.444 -0.284,0.691 -0.807,1.466 -1.569,2.322 -1.158,1.313 -2.703,2.822 -4.635,4.529 h 3.013 c 0.484,0 0.883,-0.101 1.197,-0.302 0.313,-0.2 0.538,-0.47 0.673,-0.806 h 0.354 l -1.002,2.395 z"
   inkscape:connector-curvature="0" />
			<path
   id="path3638"
   d="m 36.857,84.53 -3.031,10.547 c -0.147,0.526 -0.221,0.849 -0.221,0.967 0,0.088 0.028,0.162 0.084,0.222 0.056,0.059 0.125,0.088 0.208,0.088 0.112,0 0.233,-0.05 0.363,-0.15 0.307,-0.242 0.629,-0.617 0.966,-1.126 l 0.266,0.275 c -0.562,0.792 -1.079,1.344 -1.551,1.657 -0.349,0.225 -0.679,0.337 -0.993,0.337 -0.225,0 -0.412,-0.077 -0.563,-0.23 -0.151,-0.153 -0.226,-0.331 -0.226,-0.532 0,-0.213 0.094,-0.649 0.284,-1.312 l 2.402,-8.313 c 0.195,-0.68 0.292,-1.069 0.292,-1.17 0,-0.142 -0.056,-0.259 -0.168,-0.35 -0.112,-0.092 -0.287,-0.138 -0.523,-0.138 -0.136,0 -0.343,0.021 -0.621,0.062 v -0.327 l 3.032,-0.507 z"
   inkscape:connector-curvature="0" />
			<path
   id="path3640"
   d="m 44.896,91.887 c 0,0.887 -0.235,1.764 -0.705,2.633 -0.47,0.868 -1.124,1.557 -1.963,2.064 -0.839,0.509 -1.655,0.763 -2.446,0.763 -0.81,0 -1.47,-0.259 -1.981,-0.775 -0.511,-0.518 -0.767,-1.187 -0.767,-2.008 0,-0.868 0.25,-1.74 0.749,-2.614 0.499,-0.875 1.167,-1.566 2.003,-2.074 0.836,-0.508 1.644,-0.763 2.424,-0.763 0.78,0 1.422,0.258 1.927,0.771 0.506,0.513 0.759,1.181 0.759,2.003 z m -1.472,-0.612 c 0,-0.55 -0.134,-0.971 -0.403,-1.263 -0.269,-0.293 -0.616,-0.439 -1.041,-0.439 -0.869,0 -1.668,0.622 -2.397,1.866 -0.73,1.244 -1.095,2.48 -1.095,3.709 0,0.562 0.142,0.994 0.425,1.299 0.284,0.304 0.641,0.456 1.073,0.456 0.833,0 1.614,-0.619 2.344,-1.856 0.73,-1.238 1.094,-2.495 1.094,-3.772 z"
   inkscape:connector-curvature="0" />
			<path
   id="path3642"
   d="m 54.096,89.112 -1.729,6.01 -0.195,0.807 c -0.018,0.076 -0.027,0.142 -0.027,0.194 0,0.095 0.03,0.178 0.089,0.248 0.047,0.054 0.106,0.08 0.177,0.08 0.077,0 0.177,-0.047 0.301,-0.142 0.23,-0.171 0.538,-0.525 0.922,-1.063 l 0.301,0.213 c -0.408,0.614 -0.828,1.082 -1.259,1.404 -0.431,0.322 -0.83,0.483 -1.196,0.483 -0.254,0 -0.445,-0.063 -0.572,-0.19 -0.127,-0.127 -0.19,-0.312 -0.19,-0.555 0,-0.289 0.065,-0.67 0.195,-1.143 l 0.186,-0.665 c -0.774,1.011 -1.486,1.717 -2.136,2.118 -0.467,0.289 -0.925,0.435 -1.374,0.435 -0.431,0 -0.803,-0.179 -1.117,-0.536 -0.313,-0.357 -0.47,-0.85 -0.47,-1.476 0,-0.939 0.282,-1.931 0.847,-2.974 0.564,-1.043 1.281,-1.878 2.149,-2.504 0.68,-0.496 1.321,-0.745 1.923,-0.745 0.36,0 0.661,0.095 0.9,0.284 0.239,0.189 0.421,0.502 0.545,0.939 l 0.319,-1.011 1.411,-0.211 z m -3.156,0.461 c -0.378,0 -0.78,0.178 -1.206,0.532 -0.603,0.502 -1.139,1.247 -1.608,2.233 -0.47,0.987 -0.705,1.879 -0.705,2.677 0,0.401 0.1,0.72 0.301,0.953 0.201,0.233 0.431,0.35 0.691,0.35 0.644,0 1.344,-0.476 2.101,-1.427 1.011,-1.265 1.516,-2.562 1.516,-3.891 0,-0.503 -0.097,-0.866 -0.292,-1.091 -0.195,-0.223 -0.461,-0.336 -0.798,-0.336 z"
   inkscape:connector-curvature="0" />
			<path
   id="path3644"
   d="m 55.044,89.662 2.561,-0.55 c 0.183,0.438 0.331,0.884 0.443,1.339 0.16,0.668 0.29,1.459 0.39,2.375 0.047,0.461 0.112,1.436 0.195,2.925 0.739,-0.815 1.179,-1.32 1.321,-1.516 0.78,-1.058 1.229,-1.678 1.347,-1.861 0.195,-0.313 0.331,-0.588 0.408,-0.824 0.065,-0.177 0.097,-0.346 0.097,-0.505 0,-0.153 -0.137,-0.331 -0.412,-0.532 -0.275,-0.2 -0.412,-0.425 -0.412,-0.673 0,-0.189 0.075,-0.357 0.226,-0.506 0.151,-0.147 0.329,-0.222 0.536,-0.222 0.248,0 0.467,0.103 0.656,0.307 0.189,0.203 0.284,0.456 0.284,0.758 0,0.301 -0.047,0.591 -0.142,0.868 -0.154,0.449 -0.44,0.997 -0.86,1.645 -0.419,0.646 -1.096,1.514 -2.03,2.601 -0.118,0.137 -0.774,0.821 -1.967,2.057 h -0.328 c -0.142,-3.74 -0.437,-6.074 -0.886,-7.002 -0.148,-0.302 -0.393,-0.452 -0.736,-0.452 -0.147,0 -0.357,0.026 -0.629,0.08 l -0.062,-0.312 z"
   inkscape:connector-curvature="0" />
			<path
   id="path3646"
   d="m 64.873,93.792 c -0.042,0.296 -0.062,0.541 -0.062,0.736 0,0.525 0.186,0.974 0.558,1.343 0.373,0.369 0.825,0.554 1.356,0.554 0.425,0 0.834,-0.087 1.228,-0.262 0.393,-0.174 0.976,-0.56 1.75,-1.156 l 0.187,0.257 c -1.4,1.389 -2.736,2.083 -4.006,2.083 -0.863,0 -1.513,-0.271 -1.95,-0.815 -0.438,-0.544 -0.656,-1.144 -0.656,-1.8 0,-0.88 0.271,-1.781 0.815,-2.703 0.543,-0.921 1.226,-1.638 2.047,-2.148 0.821,-0.512 1.666,-0.768 2.535,-0.768 0.626,0 1.09,0.128 1.392,0.382 0.302,0.254 0.452,0.556 0.452,0.903 0,0.491 -0.195,0.961 -0.585,1.409 -0.514,0.585 -1.27,1.059 -2.269,1.419 -0.662,0.242 -1.593,0.43 -2.792,0.566 z m 0.062,-0.434 c 0.875,-0.101 1.586,-0.271 2.136,-0.515 0.727,-0.324 1.271,-0.713 1.635,-1.165 0.364,-0.452 0.545,-0.882 0.545,-1.29 0,-0.248 -0.079,-0.448 -0.235,-0.603 -0.157,-0.153 -0.38,-0.23 -0.669,-0.23 -0.603,0 -1.242,0.321 -1.918,0.962 -0.677,0.642 -1.175,1.588 -1.494,2.841 z"
   inkscape:connector-curvature="0" />
			<path
   id="path3648"
   d="m 77.352,89.112 -0.541,2.722 h -0.328 c -0.03,-0.792 -0.198,-1.368 -0.505,-1.729 -0.307,-0.361 -0.688,-0.541 -1.143,-0.541 -0.367,0 -0.658,0.101 -0.873,0.302 -0.216,0.201 -0.324,0.443 -0.324,0.727 0,0.195 0.043,0.381 0.128,0.559 0.086,0.177 0.273,0.426 0.563,0.744 0.768,0.839 1.264,1.472 1.489,1.896 0.225,0.426 0.337,0.828 0.337,1.206 0,0.614 -0.255,1.159 -0.767,1.635 -0.512,0.476 -1.157,0.714 -1.937,0.714 -0.425,0 -0.916,-0.101 -1.471,-0.302 -0.195,-0.07 -0.346,-0.106 -0.452,-0.106 -0.266,0 -0.467,0.137 -0.603,0.408 h -0.328 l 0.541,-2.872 h 0.328 c 0.036,0.898 0.222,1.533 0.559,1.906 0.336,0.372 0.797,0.558 1.382,0.558 0.449,0 0.805,-0.125 1.068,-0.376 0.263,-0.251 0.395,-0.561 0.395,-0.927 0,-0.236 -0.047,-0.455 -0.142,-0.655 -0.166,-0.354 -0.513,-0.846 -1.042,-1.472 -0.529,-0.626 -0.869,-1.096 -1.02,-1.409 -0.15,-0.313 -0.226,-0.626 -0.226,-0.939 0,-0.573 0.208,-1.058 0.625,-1.453 0.417,-0.396 0.953,-0.595 1.609,-0.595 0.189,0 0.36,0.016 0.514,0.045 0.083,0.018 0.276,0.084 0.58,0.199 0.305,0.115 0.507,0.173 0.607,0.173 0.254,0 0.467,-0.139 0.638,-0.417 h 0.339 z"
   inkscape:connector-curvature="0" />
			<path
   id="path3650"
   d="m 90.761,91.887 c 0,0.887 -0.235,1.764 -0.705,2.633 -0.47,0.868 -1.124,1.557 -1.963,2.064 -0.839,0.509 -1.655,0.763 -2.446,0.763 -0.81,0 -1.47,-0.259 -1.981,-0.775 -0.511,-0.518 -0.767,-1.187 -0.767,-2.008 0,-0.868 0.25,-1.74 0.749,-2.614 0.499,-0.875 1.167,-1.566 2.003,-2.074 0.836,-0.508 1.644,-0.763 2.424,-0.763 0.78,0 1.422,0.258 1.927,0.771 0.507,0.513 0.759,1.181 0.759,2.003 z M 89.29,91.275 c 0,-0.55 -0.134,-0.971 -0.403,-1.263 -0.269,-0.293 -0.616,-0.439 -1.041,-0.439 -0.869,0 -1.668,0.622 -2.397,1.866 -0.73,1.244 -1.095,2.48 -1.095,3.709 0,0.562 0.142,0.994 0.425,1.299 0.284,0.304 0.641,0.456 1.073,0.456 0.833,0 1.614,-0.619 2.344,-1.856 0.729,-1.238 1.094,-2.495 1.094,-3.772 z"
   inkscape:connector-curvature="0" />
			<path
   id="path3652"
   d="m 96.824,89.325 -0.16,0.585 H 95.37 l -0.975,3.873 c -0.431,1.708 -0.865,3.028 -1.303,3.962 -0.62,1.317 -1.288,2.228 -2.003,2.73 -0.543,0.384 -1.087,0.575 -1.631,0.575 -0.354,0 -0.656,-0.105 -0.904,-0.318 -0.183,-0.148 -0.275,-0.34 -0.275,-0.576 0,-0.189 0.075,-0.354 0.226,-0.492 0.15,-0.139 0.335,-0.208 0.554,-0.208 0.16,0 0.294,0.05 0.403,0.15 0.109,0.1 0.164,0.216 0.164,0.346 0,0.13 -0.062,0.251 -0.186,0.363 -0.095,0.083 -0.142,0.145 -0.142,0.187 0,0.053 0.021,0.094 0.062,0.124 0.053,0.041 0.136,0.062 0.249,0.062 0.254,0 0.521,-0.079 0.802,-0.239 0.281,-0.159 0.531,-0.397 0.749,-0.713 0.219,-0.316 0.425,-0.772 0.621,-1.369 0.083,-0.249 0.304,-1.067 0.665,-2.455 l 1.542,-6.001 h -1.542 l 0.124,-0.585 c 0.491,0 0.833,-0.033 1.028,-0.102 0.195,-0.068 0.374,-0.198 0.536,-0.39 0.163,-0.192 0.374,-0.552 0.634,-1.077 0.349,-0.709 0.682,-1.259 1.001,-1.648 0.437,-0.526 0.896,-0.921 1.378,-1.184 0.482,-0.263 0.935,-0.395 1.361,-0.395 0.449,0 0.809,0.114 1.081,0.342 0.272,0.228 0.408,0.474 0.408,0.74 0,0.206 -0.068,0.381 -0.204,0.522 -0.136,0.142 -0.311,0.213 -0.523,0.213 -0.183,0 -0.333,-0.054 -0.448,-0.16 -0.115,-0.105 -0.173,-0.232 -0.173,-0.381 0,-0.094 0.039,-0.211 0.115,-0.35 0.076,-0.139 0.115,-0.232 0.115,-0.279 0,-0.083 -0.026,-0.145 -0.08,-0.187 -0.077,-0.059 -0.189,-0.089 -0.337,-0.089 -0.372,0 -0.706,0.119 -1.001,0.355 -0.396,0.313 -0.75,0.803 -1.063,1.471 -0.16,0.349 -0.452,1.214 -0.877,2.597 h 1.303 z"
   inkscape:connector-curvature="0" />
			<path
   id="path3654"
   d="m 106.263,84.53 -1.746,6.125 c 0.567,-0.591 1.062,-0.996 1.485,-1.215 0.422,-0.219 0.863,-0.328 1.324,-0.328 0.65,0 1.182,0.216 1.596,0.647 0.413,0.432 0.62,1.017 0.62,1.755 0,0.951 -0.271,1.898 -0.815,2.841 -0.543,0.942 -1.226,1.677 -2.047,2.202 -0.821,0.526 -1.631,0.789 -2.429,0.789 -0.892,0 -1.808,-0.334 -2.748,-1.002 l 2.694,-9.279 c 0.207,-0.715 0.311,-1.135 0.311,-1.259 0,-0.153 -0.047,-0.269 -0.142,-0.346 -0.136,-0.106 -0.337,-0.159 -0.603,-0.159 -0.124,0 -0.313,0.021 -0.567,0.062 v -0.336 l 3.067,-0.497 z m -3.43,11.912 c 0.591,0.325 1.111,0.487 1.56,0.487 0.52,0 1.059,-0.19 1.618,-0.571 0.558,-0.381 1.042,-1.023 1.453,-1.928 0.41,-0.904 0.616,-1.817 0.616,-2.738 0,-0.544 -0.135,-0.97 -0.403,-1.276 -0.27,-0.308 -0.587,-0.461 -0.953,-0.461 -0.55,0 -1.087,0.22 -1.613,0.66 -0.526,0.44 -0.901,1.053 -1.125,1.839 l -1.153,3.988 z"
   inkscape:connector-curvature="0" />
			<path
   id="path3656"
   d="m 111.049,89.609 3.058,-0.497 -1.276,4.308 c 1.034,-1.767 1.974,-3.001 2.818,-3.704 0.479,-0.402 0.869,-0.604 1.17,-0.604 0.195,0 0.349,0.058 0.461,0.173 0.112,0.115 0.169,0.282 0.169,0.501 0,0.391 -0.101,0.763 -0.302,1.117 -0.142,0.266 -0.346,0.398 -0.611,0.398 -0.136,0 -0.253,-0.044 -0.351,-0.133 -0.097,-0.089 -0.157,-0.225 -0.182,-0.407 -0.012,-0.112 -0.038,-0.187 -0.079,-0.222 -0.048,-0.048 -0.104,-0.071 -0.169,-0.071 -0.101,0 -0.194,0.023 -0.283,0.071 -0.154,0.082 -0.387,0.313 -0.7,0.691 -0.49,0.579 -1.022,1.329 -1.596,2.251 -0.248,0.39 -0.461,0.83 -0.638,1.32 -0.248,0.674 -0.391,1.078 -0.426,1.214 l -0.283,1.117 h -1.356 l 1.64,-5.504 c 0.189,-0.638 0.284,-1.093 0.284,-1.365 0,-0.106 -0.045,-0.194 -0.134,-0.266 -0.118,-0.095 -0.274,-0.142 -0.47,-0.142 -0.124,0 -0.352,0.026 -0.682,0.08 l -0.062,-0.326 z"
   inkscape:connector-curvature="0" />
			<path
   id="path3658"
   d="m 118.653,93.792 c -0.041,0.296 -0.062,0.541 -0.062,0.736 0,0.525 0.187,0.974 0.559,1.343 0.372,0.369 0.824,0.554 1.355,0.554 0.426,0 0.835,-0.087 1.228,-0.262 0.394,-0.174 0.977,-0.56 1.751,-1.156 l 0.186,0.257 c -1.4,1.389 -2.735,2.083 -4.006,2.083 -0.862,0 -1.513,-0.271 -1.95,-0.815 -0.437,-0.544 -0.655,-1.144 -0.655,-1.8 0,-0.88 0.271,-1.781 0.815,-2.703 0.543,-0.921 1.226,-1.638 2.047,-2.148 0.821,-0.512 1.667,-0.768 2.535,-0.768 0.626,0 1.09,0.128 1.392,0.382 0.301,0.254 0.452,0.556 0.452,0.903 0,0.491 -0.195,0.961 -0.585,1.409 -0.515,0.585 -1.271,1.059 -2.27,1.419 -0.661,0.242 -1.591,0.43 -2.792,0.566 z m 0.063,-0.434 c 0.874,-0.101 1.587,-0.271 2.136,-0.515 0.727,-0.324 1.272,-0.713 1.636,-1.165 0.364,-0.452 0.545,-0.882 0.545,-1.29 0,-0.248 -0.078,-0.448 -0.235,-0.603 -0.156,-0.153 -0.379,-0.23 -0.669,-0.23 -0.603,0 -1.242,0.321 -1.919,0.962 -0.678,0.642 -1.175,1.588 -1.494,2.841 z"
   inkscape:connector-curvature="0" />
			<path
   id="path3660"
   d="m 133.065,89.112 -1.729,6.01 -0.195,0.807 c -0.018,0.076 -0.026,0.142 -0.026,0.194 0,0.095 0.029,0.178 0.089,0.248 0.047,0.054 0.106,0.08 0.177,0.08 0.077,0 0.178,-0.047 0.302,-0.142 0.23,-0.171 0.537,-0.525 0.922,-1.063 l 0.301,0.213 c -0.407,0.614 -0.827,1.082 -1.258,1.404 -0.432,0.322 -0.83,0.483 -1.197,0.483 -0.254,0 -0.444,-0.063 -0.571,-0.19 -0.127,-0.127 -0.19,-0.312 -0.19,-0.555 0,-0.289 0.064,-0.67 0.195,-1.143 l 0.186,-0.665 c -0.774,1.011 -1.486,1.717 -2.136,2.118 -0.467,0.289 -0.925,0.435 -1.374,0.435 -0.432,0 -0.804,-0.179 -1.116,-0.536 -0.313,-0.357 -0.47,-0.85 -0.47,-1.476 0,-0.939 0.281,-1.931 0.846,-2.974 0.565,-1.043 1.281,-1.878 2.149,-2.504 0.68,-0.496 1.321,-0.745 1.924,-0.745 0.36,0 0.66,0.095 0.899,0.284 0.239,0.189 0.421,0.502 0.545,0.939 l 0.319,-1.011 1.408,-0.211 z m -3.155,0.461 c -0.378,0 -0.78,0.178 -1.205,0.532 -0.604,0.502 -1.14,1.247 -1.609,2.233 -0.47,0.987 -0.704,1.879 -0.704,2.677 0,0.401 0.101,0.72 0.301,0.953 0.201,0.233 0.432,0.35 0.691,0.35 0.645,0 1.345,-0.476 2.101,-1.427 1.011,-1.265 1.516,-2.562 1.516,-3.891 0,-0.503 -0.098,-0.866 -0.292,-1.091 -0.196,-0.223 -0.462,-0.336 -0.799,-0.336 z"
   inkscape:connector-curvature="0" />
			<path
   id="path3662"
   d="m 143.443,84.53 -3.049,10.459 c -0.166,0.567 -0.248,0.939 -0.248,1.116 0,0.06 0.024,0.115 0.075,0.169 0.05,0.053 0.102,0.079 0.155,0.079 0.076,0 0.168,-0.038 0.274,-0.115 0.201,-0.142 0.538,-0.496 1.011,-1.063 l 0.301,0.187 c -0.425,0.591 -0.855,1.069 -1.289,1.436 -0.435,0.366 -0.841,0.55 -1.219,0.55 -0.201,0 -0.366,-0.071 -0.496,-0.213 -0.131,-0.142 -0.195,-0.343 -0.195,-0.603 0,-0.337 0.089,-0.789 0.266,-1.356 l 0.346,-1.099 c -0.856,1.323 -1.637,2.239 -2.34,2.747 -0.484,0.349 -0.948,0.523 -1.392,0.523 -0.449,0 -0.841,-0.199 -1.174,-0.599 -0.334,-0.398 -0.501,-0.94 -0.501,-1.626 0,-0.881 0.28,-1.82 0.842,-2.818 0.562,-0.999 1.303,-1.812 2.225,-2.438 0.727,-0.502 1.395,-0.754 2.003,-0.754 0.319,0 0.594,0.065 0.824,0.195 0.23,0.13 0.458,0.346 0.683,0.647 l 0.869,-3.085 c 0.064,-0.218 0.118,-0.393 0.159,-0.522 0.071,-0.236 0.106,-0.432 0.106,-0.585 0,-0.124 -0.045,-0.228 -0.133,-0.311 -0.124,-0.101 -0.284,-0.15 -0.479,-0.15 -0.137,0 -0.361,0.021 -0.674,0.062 v -0.327 l 3.05,-0.506 z m -3.288,6.293 c 0,-0.378 -0.109,-0.683 -0.328,-0.913 -0.219,-0.23 -0.496,-0.346 -0.833,-0.346 -0.744,0 -1.521,0.615 -2.326,1.844 -0.807,1.229 -1.21,2.405 -1.21,3.527 0,0.443 0.098,0.781 0.292,1.015 0.195,0.233 0.429,0.351 0.7,0.351 0.614,0 1.386,-0.665 2.313,-1.994 0.928,-1.33 1.392,-2.491 1.392,-3.484 z"
   inkscape:connector-curvature="0" />
			<path
   id="path3664"
   d="m 159.716,88.643 -1.037,3.537 c -0.385,1.323 -0.618,2.162 -0.7,2.517 -0.083,0.354 -0.124,0.639 -0.124,0.851 0,0.189 0.063,0.35 0.19,0.479 0.127,0.129 0.285,0.194 0.474,0.194 0.432,0 0.95,-0.216 1.556,-0.646 0.605,-0.432 1.124,-1.132 1.556,-2.101 0.432,-0.97 0.647,-1.979 0.647,-3.031 0,-1.011 -0.244,-1.944 -0.731,-2.801 -0.487,-0.857 -1.176,-1.514 -2.065,-1.972 -0.889,-0.458 -1.871,-0.688 -2.947,-0.688 -1.364,0 -2.632,0.362 -3.802,1.086 -1.17,0.724 -2.096,1.766 -2.778,3.124 -0.683,1.359 -1.024,2.771 -1.024,4.236 0,1.359 0.3,2.595 0.9,3.705 0.6,1.11 1.442,1.951 2.53,2.521 1.087,0.57 2.257,0.855 3.51,0.855 1.554,0 2.958,-0.417 4.214,-1.25 1.256,-0.833 2.227,-2.05 2.912,-3.651 h 0.514 c -0.532,1.619 -1.498,2.931 -2.898,3.936 -1.4,1.004 -2.995,1.506 -4.786,1.506 -1.406,0 -2.712,-0.332 -3.917,-0.997 -1.205,-0.664 -2.142,-1.606 -2.81,-2.827 -0.668,-1.22 -1.002,-2.563 -1.002,-4.028 0,-1.56 0.366,-3.015 1.1,-4.364 0.732,-1.351 1.759,-2.405 3.08,-3.164 1.32,-0.76 2.722,-1.14 4.205,-1.14 1.223,0 2.326,0.253 3.311,0.758 0.983,0.506 1.732,1.244 2.246,2.216 0.515,0.973 0.771,2.005 0.771,3.098 0,1.081 -0.241,2.152 -0.723,3.213 -0.482,1.061 -1.094,1.833 -1.839,2.317 -0.744,0.485 -1.521,0.728 -2.331,0.728 -0.449,0 -0.787,-0.106 -1.015,-0.319 -0.228,-0.213 -0.341,-0.511 -0.341,-0.896 0,-0.331 0.053,-0.765 0.159,-1.303 -0.874,1.058 -1.574,1.743 -2.101,2.057 -0.526,0.313 -0.989,0.47 -1.392,0.47 -0.419,0 -0.792,-0.188 -1.116,-0.563 -0.325,-0.375 -0.488,-0.876 -0.488,-1.502 0,-0.856 0.279,-1.816 0.838,-2.881 0.559,-1.063 1.299,-1.929 2.221,-2.597 0.679,-0.49 1.288,-0.735 1.825,-0.735 0.396,0 0.726,0.102 0.988,0.306 0.262,0.204 0.441,0.51 0.536,0.917 l 0.293,-0.975 1.391,-0.196 z m -3.112,0.364 c -0.443,0 -0.893,0.233 -1.347,0.7 -0.668,0.685 -1.238,1.609 -1.711,2.773 -0.349,0.852 -0.523,1.536 -0.523,2.057 0,0.372 0.105,0.675 0.315,0.908 0.209,0.233 0.444,0.351 0.704,0.351 0.343,0 0.703,-0.13 1.081,-0.391 0.379,-0.26 0.774,-0.66 1.188,-1.201 0.413,-0.54 0.715,-1.082 0.903,-1.626 0.331,-0.939 0.497,-1.704 0.497,-2.296 0,-0.39 -0.108,-0.7 -0.324,-0.93 -0.214,-0.23 -0.475,-0.345 -0.783,-0.345 z"
   inkscape:connector-curvature="0" />
			<path
   id="path3666"
   d="m 170.52,89.112 -0.54,2.722 h -0.328 c -0.03,-0.792 -0.198,-1.368 -0.505,-1.729 -0.308,-0.36 -0.688,-0.541 -1.144,-0.541 -0.366,0 -0.657,0.101 -0.873,0.302 -0.216,0.201 -0.323,0.443 -0.323,0.727 0,0.195 0.042,0.381 0.128,0.559 0.086,0.177 0.273,0.426 0.563,0.744 0.769,0.839 1.265,1.472 1.489,1.896 0.225,0.426 0.337,0.828 0.337,1.206 0,0.614 -0.256,1.159 -0.767,1.635 -0.511,0.476 -1.156,0.714 -1.937,0.714 -0.426,0 -0.916,-0.101 -1.472,-0.302 -0.194,-0.07 -0.346,-0.106 -0.451,-0.106 -0.267,0 -0.468,0.137 -0.604,0.408 h -0.327 l 0.54,-2.872 h 0.328 c 0.035,0.898 0.222,1.533 0.559,1.906 0.337,0.372 0.798,0.558 1.383,0.558 0.448,0 0.805,-0.125 1.067,-0.376 0.262,-0.251 0.395,-0.561 0.395,-0.927 0,-0.236 -0.047,-0.455 -0.142,-0.655 -0.166,-0.354 -0.513,-0.846 -1.042,-1.472 -0.528,-0.626 -0.868,-1.096 -1.019,-1.409 -0.151,-0.313 -0.227,-0.626 -0.227,-0.939 0,-0.573 0.209,-1.058 0.625,-1.453 0.417,-0.396 0.953,-0.595 1.608,-0.595 0.189,0 0.36,0.016 0.515,0.045 0.082,0.018 0.276,0.084 0.58,0.199 0.305,0.115 0.507,0.173 0.607,0.173 0.254,0 0.467,-0.139 0.638,-0.417 h 0.339 z"
   inkscape:connector-curvature="0" />
			<path
   id="path3668"
   d="m 176.325,84.53 -2.491,8.606 c 1.075,-1.619 1.915,-2.694 2.518,-3.227 0.603,-0.531 1.179,-0.798 1.729,-0.798 0.283,0 0.52,0.098 0.709,0.293 0.188,0.195 0.283,0.455 0.283,0.78 0,0.39 -0.083,0.862 -0.248,1.418 l -1.081,3.713 c -0.137,0.449 -0.204,0.697 -0.204,0.745 0,0.083 0.025,0.15 0.075,0.204 0.05,0.053 0.107,0.079 0.173,0.079 0.077,0 0.165,-0.038 0.266,-0.115 0.337,-0.26 0.671,-0.62 1.002,-1.081 l 0.274,0.168 c -0.201,0.313 -0.479,0.658 -0.837,1.033 -0.358,0.375 -0.665,0.635 -0.922,0.779 -0.258,0.146 -0.486,0.218 -0.688,0.218 -0.219,0 -0.397,-0.069 -0.536,-0.208 -0.139,-0.14 -0.208,-0.318 -0.208,-0.537 0,-0.26 0.104,-0.744 0.311,-1.453 l 1.019,-3.545 c 0.13,-0.443 0.195,-0.792 0.195,-1.046 0,-0.118 -0.037,-0.213 -0.11,-0.284 -0.074,-0.07 -0.17,-0.106 -0.288,-0.106 -0.172,0 -0.367,0.065 -0.585,0.195 -0.402,0.248 -0.866,0.709 -1.392,1.383 -0.143,0.184 -0.615,0.922 -1.418,2.216 -0.249,0.413 -0.452,0.865 -0.612,1.355 l -0.567,1.817 h -1.329 l 2.916,-10.14 0.311,-1.099 c 0,-0.153 -0.063,-0.289 -0.19,-0.408 -0.128,-0.117 -0.282,-0.177 -0.466,-0.177 -0.106,0 -0.269,0.018 -0.487,0.053 l -0.187,0.027 v -0.346 l 3.065,-0.512 z"
   inkscape:connector-curvature="0" />
			<path
   id="path3670"
   d="m 181.581,95.547 c 0.254,0 0.468,0.088 0.643,0.262 0.174,0.175 0.262,0.386 0.262,0.634 0,0.248 -0.089,0.46 -0.267,0.634 -0.177,0.174 -0.39,0.262 -0.638,0.262 -0.248,0 -0.46,-0.088 -0.634,-0.262 -0.175,-0.174 -0.262,-0.386 -0.262,-0.634 0,-0.248 0.087,-0.459 0.262,-0.634 0.174,-0.174 0.386,-0.262 0.634,-0.262 z"
   inkscape:connector-curvature="0" />
			<path
   id="path3672"
   d="m 190.879,97.134 h -5.983 v -0.328 c 3.049,-2.671 5.064,-4.765 6.045,-6.283 0.455,-0.703 0.683,-1.442 0.683,-2.216 0,-0.615 -0.189,-1.115 -0.567,-1.503 -0.378,-0.387 -0.868,-0.58 -1.472,-0.58 -0.833,0 -1.519,0.398 -2.056,1.196 l -0.311,-0.142 c 0.302,-0.763 0.742,-1.354 1.321,-1.777 0.578,-0.422 1.205,-0.634 1.879,-0.634 0.762,0 1.403,0.262 1.923,0.784 0.52,0.523 0.78,1.157 0.78,1.901 0,0.521 -0.092,1.002 -0.275,1.444 -0.283,0.691 -0.807,1.466 -1.568,2.322 -1.158,1.313 -2.703,2.822 -4.636,4.529 h 3.014 c 0.484,0 0.884,-0.101 1.196,-0.302 0.313,-0.2 0.538,-0.47 0.674,-0.806 h 0.354 l -1.001,2.395 z"
   inkscape:connector-curvature="0" />
			<path
   id="path3674"
   d="M 196.462,90.566 V 90.31 c 1.43,-0.219 2.496,-0.645 3.199,-1.276 0.508,-0.449 0.763,-0.984 0.763,-1.604 0,-0.467 -0.148,-0.853 -0.443,-1.156 -0.296,-0.305 -0.653,-0.457 -1.072,-0.457 -0.662,0 -1.25,0.411 -1.764,1.232 l -0.328,-0.098 c 0.307,-0.686 0.701,-1.204 1.183,-1.556 0.482,-0.352 1.009,-0.527 1.582,-0.527 0.697,0 1.262,0.208 1.693,0.625 0.431,0.417 0.646,0.944 0.646,1.582 0,0.544 -0.202,1.066 -0.606,1.568 -0.405,0.503 -1.101,0.952 -2.088,1.348 0.615,0.254 1.078,0.619 1.392,1.095 0.314,0.476 0.47,1.047 0.47,1.715 0,0.738 -0.213,1.479 -0.638,2.22 -0.426,0.742 -1.009,1.315 -1.751,1.72 -0.741,0.404 -1.52,0.607 -2.335,0.607 -0.744,0 -1.309,-0.13 -1.693,-0.391 -0.254,-0.177 -0.381,-0.384 -0.381,-0.62 0,-0.207 0.075,-0.384 0.227,-0.531 0.15,-0.148 0.335,-0.222 0.554,-0.222 0.153,0 0.307,0.023 0.461,0.07 0.094,0.03 0.326,0.148 0.695,0.354 0.369,0.207 0.657,0.345 0.864,0.412 0.207,0.068 0.42,0.103 0.639,0.103 0.531,0 0.97,-0.309 1.315,-0.927 0.346,-0.617 0.519,-1.274 0.519,-1.972 0,-0.567 -0.116,-1.072 -0.35,-1.516 -0.234,-0.444 -0.602,-0.802 -1.104,-1.077 -0.504,-0.274 -1.052,-0.429 -1.649,-0.465 z"
   inkscape:connector-curvature="0" />
		</g>
		<g
   id="g3676">
			<g
   id="g3678">
				<path
   id="path3680"
   d="M 25.423,64.445 22.57,74.38 c -0.166,0.585 -0.249,1.008 -0.249,1.268 0,0.219 0.076,0.386 0.226,0.501 0.151,0.115 0.504,0.193 1.059,0.234 l -0.088,0.328 h -4.564 l 0.124,-0.328 c 0.484,-0.012 0.804,-0.05 0.957,-0.115 0.249,-0.105 0.435,-0.248 0.559,-0.425 0.195,-0.271 0.393,-0.76 0.594,-1.463 l 2.056,-7.134 c 0.124,-0.431 0.192,-0.679 0.204,-0.744 0.018,-0.118 0.026,-0.233 0.026,-0.346 0,-0.207 -0.056,-0.37 -0.168,-0.488 -0.112,-0.118 -0.266,-0.177 -0.461,-0.177 -0.153,0 -0.393,0.036 -0.718,0.106 l -0.115,-0.319 2.987,-0.833 h 0.424 z"
   inkscape:connector-curvature="0" />
			</g>
			<g
   id="g3682">
				<path
   id="path3684"
   d="m 31.737,62.261 -1.758,6.121 c -0.102,0.36 -0.153,0.621 -0.153,0.781 0,0.135 0.047,0.236 0.139,0.308 0.093,0.072 0.311,0.12 0.653,0.145 l -0.055,0.202 H 27.75 l 0.077,-0.202 c 0.298,-0.006 0.495,-0.029 0.589,-0.071 0.153,-0.064 0.268,-0.151 0.344,-0.261 0.121,-0.167 0.242,-0.468 0.366,-0.901 l 1.267,-4.396 c 0.076,-0.266 0.118,-0.419 0.126,-0.459 0.011,-0.072 0.016,-0.143 0.016,-0.213 0,-0.127 -0.035,-0.227 -0.104,-0.299 -0.069,-0.074 -0.164,-0.109 -0.284,-0.109 -0.095,0 -0.242,0.021 -0.442,0.064 l -0.071,-0.197 1.841,-0.512 h 0.262 z"
   inkscape:connector-curvature="0" />
				<path
   id="path3686"
   d="m 34.19,69.488 -8.553,2.669 -0.34,-0.341 8.572,-2.648 0.321,0.32 z"
   inkscape:connector-curvature="0" />
				<path
   id="path3688"
   d="M 30.896,78.914 H 27.21 v -0.2 c 1.879,-1.646 3.12,-2.938 3.725,-3.873 0.28,-0.436 0.421,-0.891 0.421,-1.367 0,-0.378 -0.117,-0.687 -0.35,-0.924 -0.233,-0.24 -0.536,-0.359 -0.906,-0.359 -0.513,0 -0.936,0.246 -1.268,0.738 l -0.191,-0.088 c 0.187,-0.471 0.458,-0.836 0.814,-1.096 0.357,-0.26 0.743,-0.39 1.158,-0.39 0.47,0 0.864,0.161 1.185,0.483 0.321,0.322 0.48,0.712 0.48,1.171 0,0.321 -0.056,0.618 -0.168,0.892 -0.174,0.425 -0.498,0.903 -0.968,1.43 -0.712,0.809 -1.665,1.74 -2.855,2.791 h 1.857 c 0.298,0 0.544,-0.062 0.737,-0.186 0.193,-0.125 0.331,-0.289 0.415,-0.496 h 0.219 l -0.619,1.474 z"
   inkscape:connector-curvature="0" />
			</g>
		</g>
	</g>
</g></g></svg>