<?xml version="1.0" encoding="UTF-8" standalone="no"?>
<!-- Generator: Adobe Illustrator 16.0.0, SVG Export Plug-In . SVG Version: 6.00 Build 0)  -->

<svg
   xmlns:dc="http://purl.org/dc/elements/1.1/"
   xmlns:cc="http://creativecommons.org/ns#"
   xmlns:rdf="http://www.w3.org/1999/02/22-rdf-syntax-ns#"
   xmlns:svg="http://www.w3.org/2000/svg"
   xmlns="http://www.w3.org/2000/svg"
   xmlns:sodipodi="http://sodipodi.sourceforge.net/DTD/sodipodi-0.dtd"
   xmlns:inkscape="http://www.inkscape.org/namespaces/inkscape"
   version="1.0"
   id="Layer_1"
   x="0px"
   y="0px"
   viewBox="0 0 437 54"
   enable-background="new 0 0 437 54"
   xml:space="preserve"
   inkscape:version="0.48.4 r9939"
   width="100%"
   height="100%"
   sodipodi:docname="Qn 43 A_1.svg"><metadata
   id="metadata3203"><rdf:RDF><cc:Work
       rdf:about=""><dc:format>image/svg+xml</dc:format><dc:type
         rdf:resource="http://purl.org/dc/dcmitype/StillImage" /><dc:title></dc:title></cc:Work></rdf:RDF></metadata><defs
   id="defs3201" /><sodipodi:namedview
   pagecolor="#ffffff"
   bordercolor="#666666"
   borderopacity="1"
   objecttolerance="10"
   gridtolerance="10"
   guidetolerance="10"
   inkscape:pageopacity="0"
   inkscape:pageshadow="2"
   inkscape:window-width="1280"
   inkscape:window-height="716"
   id="namedview3199"
   showgrid="false"
   inkscape:zoom="2.2148438"
   inkscape:cx="137.68166"
   inkscape:cy="27"
   inkscape:window-x="-8"
   inkscape:window-y="-8"
   inkscape:window-maximized="1"
   inkscape:current-layer="Layer_1"
   inkscape:showpageshadow="false"
   showborder="false" />
<g
   id="Intel_Skoool_Logo">
	<g
   id="g3097">
		<g
   id="g3099">
			<g
   id="g3101">
				<g
   id="g3103">
					<path
   fill="#FFFFFF"
   d="M38.236,43.095c-12.725,1.181-25.998-0.665-27.855-10.606c-0.909-4.93,1.325-10.116,4.294-13.345       v-1.729c-5.346,4.667-8.244,10.606-6.572,17.61C10.235,43.988,21.619,49.088,39,47.39c6.889-0.665,15.882-2.884,22.15-6.313       v-4.871C55.458,39.575,46.074,42.375,38.236,43.095z M71.771,17.297C68.758,2.539,40.137,1.619,21.676,12.86v1.238       C40.11,4.616,66.251,4.674,68.63,18.25c0.808,4.493-1.73,9.192-6.241,11.873v3.517C67.823,31.65,73.398,25.195,71.771,17.297z"
   id="path3105" />
					<path
   fill="#FFFFFF"
   d="M60.114,15.165h-3.346v14.843c0,1.758,0.851,3.258,3.346,3.516V15.165z"
   id="path3107" />
					<path
   fill="#FFFFFF"
   d="M20.365,20.584h-3.343v9.713c0,1.73,0.852,3.258,3.343,3.487V20.584z"
   id="path3109" />
					<rect
   x="17.022"
   y="15.597"
   fill="#FFFFFF"
   width="3.331"
   height="3.17"
   id="rect3111" />
					<path
   fill="#FFFFFF"
   d="M40.354,33.64c-2.694,0-3.833-1.874-3.833-3.718V17.009h3.3v3.575h2.494v2.681h-2.494v6.456       c0,0.748,0.346,1.151,1.138,1.151h1.356v2.768H40.354"
   id="path3113" />
					<path
   fill="#FFFFFF"
   d="M46.45,28.136c0,1.7,1.066,2.941,2.926,2.941c1.469,0,2.192-0.406,3.039-1.241l2.049,1.959       c-1.312,1.268-2.683,2.076-5.118,2.076c-3.156,0-6.196-1.729-6.196-6.773c0-4.295,2.666-6.745,6.141-6.745       c3.531,0,5.563,2.852,5.563,6.6v1.183H46.45 M49.129,23.09c-1.122,0-2.001,0.579-2.362,1.384       c-0.215,0.463-0.301,0.835-0.316,1.412h5.101C51.48,24.474,50.845,23.09,49.129,23.09z"
   id="path3115" />
					<path
   fill="#FFFFFF"
   d="M29.359,23.265c0.966,0,1.367,0.459,1.367,1.239v9.165h3.315v-9.195c0-1.844-0.993-3.89-3.904-3.89       h-6.832v13.085h3.314V23.265H29.359z"
   id="path3117" />
				</g>
			</g>
			<g
   id="g3119">
				<path
   fill="#FFFFFF"
   d="M64.003,19.056c-1.08,0-1.944-0.866-1.944-1.961c0-1.066,0.864-1.93,1.944-1.93      c1.082,0,1.96,0.864,1.96,1.93C65.963,18.19,65.084,19.056,64.003,19.056z M64.003,15.482c-0.894,0-1.614,0.719-1.614,1.612      c0,0.925,0.72,1.645,1.614,1.645s1.643-0.719,1.643-1.645C65.646,16.202,64.896,15.482,64.003,15.482z M64.868,18.276h-0.36      c-0.043,0-0.057,0-0.073-0.058l-0.504-0.834c-0.014,0-0.058-0.028-0.07-0.028c0,0-0.074,0-0.144,0c-0.03,0-0.06,0-0.073,0v0.834      c0,0.028-0.028,0.085-0.086,0.085h-0.332c-0.043,0-0.086-0.058-0.086-0.085v-2.104c0-0.144,0.043-0.174,0.159-0.201      c0.114-0.028,0.418-0.028,0.59-0.028c0.62,0,0.98,0.171,0.98,0.748v0.03c0,0.374-0.187,0.547-0.445,0.633l0.517,0.893      c0,0,0.014,0.029,0.014,0.057C64.954,18.25,64.939,18.276,64.868,18.276z M64.393,16.605c0-0.23-0.144-0.316-0.462-0.316      c-0.042,0-0.145,0-0.214,0c-0.043,0-0.073,0-0.101,0v0.69c0.057,0,0.272,0,0.315,0c0.319,0,0.462-0.115,0.462-0.344V16.605z"
   id="path3121" />
			</g>
		</g>
		<path
   fill="#FFFFFF"
   d="M148.08,16.8v2.097h-0.41V16.8h-0.753v-0.325h1.92V16.8H148.08z M151.589,18.897v-2.015h-0.017    l-0.791,2.015h-0.252l-0.796-2.015h-0.011v2.015h-0.396v-2.422h0.617l0.722,1.841l0.712-1.841h0.611v2.422H151.589z"
   id="path3123" />
		<g
   id="g3125">
			<path
   fill="#FFFFFF"
   d="M84.086,31.344c0.709,0,1.178-0.1,1.414-0.275c0.236-0.186,0.352-0.43,0.352-0.746     c0-0.267-0.076-0.488-0.228-0.663c-0.151-0.181-0.418-0.385-0.802-0.618l-3.167-1.949c-0.601-0.369-1.069-0.826-1.43-1.38     c-0.351-0.551-0.523-1.153-0.523-1.809c0-2.317,1.471-3.477,4.407-3.477c1.522,0,2.874,0.254,4.053,0.759     c0.173,0.069,0.299,0.145,0.373,0.23c0.074,0.088,0.113,0.211,0.113,0.37v1.415c0,0.34-0.163,0.463-0.486,0.374     c-1.353-0.432-2.595-0.645-3.724-0.645c-0.591,0-1.016,0.063-1.282,0.191c-0.266,0.129-0.395,0.352-0.395,0.668     c0,0.176,0.036,0.314,0.104,0.427c0.074,0.109,0.174,0.207,0.291,0.299c0.12,0.091,0.299,0.202,0.535,0.34l3.035,1.856     c0.878,0.535,1.473,1.072,1.775,1.613c0.302,0.536,0.451,1.121,0.451,1.75c0,0.729-0.166,1.383-0.507,1.961     c-0.339,0.566-0.857,1.018-1.549,1.335c-0.688,0.315-1.514,0.471-2.482,0.471c-1.534,0-2.895-0.251-4.083-0.753     c-0.2-0.104-0.329-0.194-0.391-0.282c-0.073-0.083-0.106-0.198-0.106-0.323v-1.412c0-0.34,0.168-0.468,0.497-0.373     C81.695,31.123,82.946,31.344,84.086,31.344z"
   id="path3127" />
			<path
   fill="#FFFFFF"
   d="M101.676,33.38c0,0.075-0.032,0.146-0.091,0.2c-0.058,0.047-0.134,0.073-0.225,0.073h-2.829     c-0.113,0-0.235-0.044-0.362-0.144c-0.13-0.092-0.23-0.207-0.307-0.315l-3.644-5.286v5.262c0,0.133-0.045,0.258-0.132,0.346     c-0.087,0.098-0.198,0.138-0.336,0.138h-2.125c-0.135,0-0.247-0.046-0.334-0.149c-0.086-0.096-0.127-0.217-0.127-0.334V16.475     c0-0.111,0.043-0.218,0.132-0.317c0.091-0.097,0.203-0.146,0.33-0.146h2.125c0.13,0,0.238,0.046,0.331,0.135     c0.091,0.091,0.137,0.201,0.137,0.329v9.666l3.96-5.272c0.151-0.188,0.331-0.284,0.534-0.284h2.602     c0.227,0,0.337,0.083,0.337,0.249c0,0.077-0.028,0.155-0.088,0.238l-4.652,5.725l4.696,6.398     C101.651,33.264,101.676,33.326,101.676,33.38z"
   id="path3129" />
			<path
   fill="#FFFFFF"
   d="M113.632,28.067c0,1.1-0.216,2.095-0.641,2.979c-0.425,0.877-1.053,1.561-1.883,2.061     c-0.83,0.488-1.838,0.731-3.023,0.731c-1.168,0-2.173-0.243-3.012-0.731c-0.837-0.5-1.468-1.184-1.889-2.061     c-0.423-0.885-0.634-1.88-0.634-2.979v-1.869c0-1.102,0.211-2.095,0.634-2.976c0.421-0.883,1.052-1.57,1.889-2.06     c0.839-0.491,1.844-0.737,3.012-0.737c1.185,0,2.193,0.246,3.023,0.737c0.831,0.49,1.458,1.177,1.883,2.06     c0.425,0.88,0.641,1.874,0.641,2.976V28.067z M110.574,28.067v-1.869c0-0.964-0.211-1.73-0.64-2.29     c-0.426-0.563-1.043-0.846-1.85-0.846c-0.801,0-1.416,0.282-1.838,0.846c-0.429,0.56-0.641,1.326-0.641,2.29v1.869     c0,0.968,0.214,1.731,0.646,2.294c0.426,0.558,1.039,0.841,1.833,0.841c0.8,0,1.413-0.283,1.844-0.841     C110.361,29.799,110.574,29.035,110.574,28.067z"
   id="path3131" />
			<path
   fill="#FFFFFF"
   d="M126.617,28.067c0,1.1-0.215,2.095-0.643,2.979c-0.425,0.877-1.055,1.561-1.881,2.061     c-0.833,0.488-1.839,0.731-3.027,0.731c-1.167,0-2.172-0.243-3.009-0.731c-0.838-0.5-1.468-1.184-1.889-2.061     c-0.423-0.885-0.635-1.88-0.635-2.979v-1.869c0-1.102,0.211-2.095,0.635-2.976c0.421-0.883,1.051-1.57,1.889-2.06     c0.837-0.491,1.842-0.737,3.009-0.737c1.188,0,2.193,0.246,3.027,0.737c0.827,0.49,1.456,1.177,1.881,2.06     c0.428,0.88,0.643,1.874,0.643,2.976V28.067z M123.559,28.067v-1.869c0-0.964-0.213-1.73-0.64-2.29     c-0.428-0.563-1.044-0.846-1.853-0.846c-0.797,0-1.41,0.282-1.838,0.846c-0.427,0.56-0.64,1.326-0.64,2.29v1.869     c0,0.968,0.218,1.731,0.647,2.294c0.43,0.558,1.042,0.841,1.832,0.841c0.803,0,1.417-0.283,1.848-0.841     C123.343,29.799,123.559,29.035,123.559,28.067z"
   id="path3133" />
			<path
   fill="#FFFFFF"
   d="M139.599,28.067c0,1.1-0.213,2.095-0.64,2.979c-0.424,0.877-1.054,1.561-1.884,2.061     c-0.83,0.488-1.838,0.731-3.024,0.731c-1.167,0-2.172-0.243-3.009-0.731c-0.839-0.5-1.469-1.184-1.892-2.061     c-0.422-0.885-0.634-1.88-0.634-2.979v-1.869c0-1.102,0.212-2.095,0.634-2.976c0.423-0.883,1.053-1.57,1.892-2.06     c0.837-0.491,1.842-0.737,3.009-0.737c1.186,0,2.194,0.246,3.024,0.737c0.83,0.49,1.46,1.177,1.884,2.06     c0.426,0.88,0.64,1.874,0.64,2.976V28.067z M136.543,28.067v-1.869c0-0.964-0.211-1.73-0.638-2.29     c-0.428-0.563-1.044-0.846-1.854-0.846c-0.798,0-1.411,0.282-1.838,0.846c-0.429,0.56-0.642,1.326-0.642,2.29v1.869     c0,0.968,0.216,1.731,0.649,2.294c0.428,0.558,1.039,0.841,1.831,0.841c0.801,0,1.416-0.283,1.846-0.841     C136.329,29.799,136.543,29.035,136.543,28.067z"
   id="path3135" />
			<path
   fill="#FFFFFF"
   d="M144.999,33.17c0,0.124-0.039,0.248-0.123,0.34c-0.083,0.1-0.188,0.144-0.318,0.144h-2.151     c-0.135,0-0.244-0.046-0.333-0.149c-0.086-0.096-0.13-0.217-0.13-0.334V16.475c0-0.111,0.045-0.218,0.135-0.317     c0.093-0.097,0.202-0.146,0.329-0.146h2.151c0.12,0,0.223,0.048,0.313,0.141c0.085,0.096,0.128,0.205,0.128,0.323V33.17z"
   id="path3137" />
		</g>
	</g>
	<g
   id="g3139">
		<g
   id="g3141">
			<path
   fill="#FFFFFF"
   d="M171.54,32.131c0,0.342-0.17,0.51-0.51,0.51h-6.269c-0.342,0-0.513-0.168-0.513-0.51V18.784     c0-0.341,0.171-0.511,0.513-0.511h1.238c0.34,0,0.51,0.17,0.51,0.511v11.812h4.521c0.34,0,0.51,0.17,0.51,0.51V32.131z"
   id="path3143" />
			<path
   fill="#FFFFFF"
   d="M180.389,27.523c0,0.342-0.164,0.513-0.489,0.513h-5.16c0.041,0.954,0.233,1.641,0.575,2.069     c0.382,0.499,1.015,0.746,1.897,0.746c0.538,0,1.215-0.129,2.025-0.385c0.056-0.014,0.114-0.021,0.17-0.021     c0.185,0,0.319,0.113,0.407,0.341l0.297,0.854c0.102,0.269,0,0.469-0.297,0.598c-0.81,0.354-1.758,0.531-2.837,0.531     c-1.451,0-2.568-0.451-3.349-1.354c-0.781-0.901-1.17-2.228-1.17-3.975c0-1.58,0.361-2.847,1.087-3.807s1.697-1.439,2.919-1.439     C179.081,22.194,180.389,23.972,180.389,27.523z M178.172,26.48c-0.058-1.706-0.612-2.56-1.663-2.56     c-1.024,0-1.614,0.854-1.77,2.56H178.172z"
   id="path3145" />
			<path
   fill="#FFFFFF"
   d="M189.793,32.15c0.069,0.329-0.075,0.49-0.428,0.49h-1.11c-0.298,0-0.474-0.161-0.531-0.49l-0.129-0.788     c-0.611,0.937-1.578,1.407-2.901,1.407c-0.88,0-1.563-0.277-2.045-0.832c-0.484-0.554-0.726-1.327-0.726-2.323     c0-2.047,1.108-3.147,3.326-3.306l2.131-0.148c0-0.299-0.014-0.455-0.042-0.47c-0.028-0.583-0.156-0.993-0.382-1.236     c-0.225-0.241-0.659-0.362-1.295-0.362c-0.551,0-1.239,0.121-2.057,0.362c-0.34,0.1-0.544-0.008-0.616-0.319l-0.213-0.94     c-0.069-0.299,0.036-0.489,0.321-0.575c0.966-0.284,1.862-0.426,2.685-0.426c1.578,0,2.653,0.447,3.22,1.343     c0.372,0.583,0.555,1.479,0.555,2.687v3.584c0,0.779,0.035,1.348,0.107,1.704L189.793,32.15z M187.381,29.188v-1.492     l-1.214,0.044c-1.351,0.041-2.026,0.667-2.026,1.875c0,0.909,0.396,1.364,1.194,1.364c0.567,0,1.059-0.206,1.472-0.617     C187.191,29.99,187.381,29.601,187.381,29.188z"
   id="path3147" />
			<path
   fill="#FFFFFF"
   d="M198.147,23.068l-0.319,1.195c-0.084,0.325-0.295,0.46-0.635,0.404c-0.127-0.015-0.335-0.08-0.625-0.192     c-0.291-0.113-0.512-0.171-0.667-0.171c-0.381,0-0.692,0.221-0.932,0.661c-0.284,0.499-0.424,1.224-0.424,2.177v5.008     c0,0.329-0.172,0.49-0.518,0.49h-1.183c-0.345,0-0.519-0.161-0.519-0.49v-9.338c0-0.325,0.174-0.489,0.513-0.489h0.788     c0.314,0,0.508,0.142,0.576,0.425l0.237,0.918c0.625-0.98,1.419-1.472,2.387-1.472C197.864,22.194,198.304,22.487,198.147,23.068     z"
   id="path3149" />
			<path
   fill="#FFFFFF"
   d="M207.081,32.15c0,0.329-0.174,0.49-0.519,0.49h-1.203c-0.331,0-0.498-0.161-0.498-0.49v-6.843     c0-0.837-0.365-1.258-1.092-1.258c-0.576,0-1.059,0.227-1.451,0.683c-0.393,0.454-0.59,1.023-0.59,1.706v5.713     c0,0.329-0.165,0.49-0.497,0.49h-1.202c-0.344,0-0.518-0.161-0.518-0.49v-9.338c0-0.325,0.168-0.489,0.51-0.489h0.833     c0.297,0,0.474,0.136,0.533,0.405l0.192,0.875c0.839-0.939,1.795-1.408,2.876-1.408c0.797,0,1.432,0.245,1.908,0.737     c0.476,0.489,0.715,1.132,0.715,1.928V32.15z"
   id="path3151" />
			<path
   fill="#FFFFFF"
   d="M212.56,18.825c0,0.398-0.138,0.736-0.405,1.013c-0.27,0.277-0.606,0.417-1.001,0.417     c-0.4,0-0.729-0.139-0.993-0.417c-0.263-0.277-0.394-0.615-0.394-1.013c0-0.397,0.13-0.735,0.394-1.01     c0.264-0.278,0.593-0.417,0.993-0.417c0.395,0,0.731,0.139,1.001,0.417C212.422,18.09,212.56,18.428,212.56,18.825z      M212.306,32.15c0,0.329-0.174,0.49-0.517,0.49h-1.185c-0.346,0-0.517-0.161-0.517-0.49v-9.338c0-0.325,0.171-0.489,0.517-0.489     h1.185c0.343,0,0.517,0.164,0.517,0.489V32.15z"
   id="path3153" />
			<path
   fill="#FFFFFF"
   d="M222.859,32.15c0,0.329-0.174,0.49-0.518,0.49h-1.207c-0.331,0-0.494-0.161-0.494-0.49v-6.843     c0-0.837-0.365-1.258-1.094-1.258c-0.575,0-1.061,0.227-1.454,0.683c-0.391,0.454-0.586,1.023-0.586,1.706v5.713     c0,0.329-0.166,0.49-0.496,0.49h-1.205c-0.344,0-0.517-0.161-0.517-0.49v-9.338c0-0.325,0.172-0.489,0.513-0.489h0.829     c0.301,0,0.479,0.136,0.534,0.405l0.191,0.875c0.84-0.939,1.798-1.408,2.88-1.408c0.794,0,1.43,0.245,1.908,0.737     c0.475,0.489,0.715,1.132,0.715,1.928V32.15z"
   id="path3155" />
			<path
   fill="#FFFFFF"
   d="M233.561,33.558c0,1.165-0.477,2.054-1.43,2.665c-0.781,0.498-1.748,0.747-2.898,0.747     c-1.222,0-2.203-0.212-2.941-0.64c-0.91-0.527-1.373-1.33-1.388-2.41c0-0.143,0.052-0.262,0.149-0.362     c0.098-0.099,0.221-0.149,0.363-0.149l1.193,0.044c0.271,0.014,0.435,0.17,0.49,0.468c0.142,0.84,0.875,1.259,2.196,1.259     c0.669,0,1.204-0.127,1.609-0.384c0.406-0.256,0.608-0.598,0.608-1.023c0-0.825-0.505-1.236-1.514-1.236h-2.111     c-1.605,0-2.409-0.582-2.409-1.749c0-0.569,0.306-1.143,0.917-1.726c-0.994-0.699-1.493-1.72-1.493-3.071     c0-1.18,0.356-2.103,1.068-2.771c0.71-0.668,1.662-1.003,2.854-1.003c0.158,0,0.377,0.02,0.662,0.053     c0.284,0.037,0.496,0.055,0.641,0.055h2.471c0.355,0,0.534,0.17,0.534,0.512v0.596c0,0.313-0.137,0.482-0.404,0.51l-0.663,0.086     c0.469,0.695,0.706,1.35,0.706,1.961c0,1.167-0.356,2.085-1.058,2.761c-0.702,0.678-1.66,1.015-2.867,1.015     c-0.428,0-0.771-0.036-1.043-0.106c-0.199,0.195-0.299,0.389-0.299,0.574c0,0.355,0.318,0.533,0.957,0.533h1.834     c1.01,0,1.807,0.24,2.389,0.723C233.268,31.974,233.561,32.662,233.561,33.558z M230.596,25.948c0-1.394-0.583-2.092-1.748-2.092     c-0.553,0-0.959,0.122-1.214,0.364c-0.343,0.327-0.513,0.903-0.513,1.728c0,0.851,0.17,1.44,0.513,1.769     c0.255,0.256,0.661,0.385,1.214,0.385C230.013,28.102,230.596,27.383,230.596,25.948z"
   id="path3157" />
			<path
   fill="#FFFFFF"
   d="M246.607,32.15c0.071,0.329-0.071,0.49-0.428,0.49h-1.107c-0.297,0-0.475-0.161-0.533-0.49l-0.129-0.788     c-0.609,0.937-1.574,1.407-2.898,1.407c-0.881,0-1.564-0.277-2.045-0.832c-0.484-0.554-0.727-1.327-0.727-2.323     c0-2.047,1.108-3.147,3.327-3.306l2.132-0.148c0-0.299-0.014-0.455-0.044-0.47c-0.028-0.583-0.153-0.993-0.382-1.236     c-0.228-0.241-0.657-0.362-1.293-0.362c-0.552,0-1.238,0.121-2.061,0.362c-0.338,0.1-0.545-0.008-0.615-0.319l-0.211-0.94     c-0.072-0.299,0.035-0.489,0.319-0.575c0.968-0.284,1.863-0.426,2.687-0.426c1.579,0,2.651,0.447,3.22,1.343     c0.366,0.583,0.554,1.479,0.554,2.687v3.584c0,0.779,0.036,1.348,0.105,1.704L246.607,32.15z M244.199,29.188v-1.492     l-1.215,0.044c-1.352,0.041-2.027,0.667-2.027,1.875c0,0.909,0.397,1.364,1.194,1.364c0.568,0,1.06-0.206,1.472-0.617     C244.007,29.99,244.199,29.601,244.199,29.188z"
   id="path3159" />
			<path
   fill="#FFFFFF"
   d="M256.712,32.15c0,0.329-0.172,0.49-0.517,0.49h-1.205c-0.328,0-0.496-0.161-0.496-0.49v-6.843     c0-0.837-0.364-1.258-1.093-1.258c-0.575,0-1.06,0.227-1.451,0.683c-0.394,0.454-0.59,1.023-0.59,1.706v5.713     c0,0.329-0.165,0.49-0.495,0.49h-1.205c-0.343,0-0.517-0.161-0.517-0.49v-9.338c0-0.325,0.17-0.489,0.513-0.489h0.83     c0.299,0,0.476,0.136,0.533,0.405l0.191,0.875c0.84-0.939,1.799-1.408,2.879-1.408c0.798,0,1.433,0.245,1.908,0.737     c0.477,0.489,0.714,1.132,0.714,1.928V32.15z"
   id="path3161" />
			<path
   fill="#FFFFFF"
   d="M266.883,32.15c0,0.329-0.17,0.49-0.513,0.49h-0.745c-0.356,0-0.568-0.161-0.641-0.49l-0.17-0.852     c-0.525,0.98-1.344,1.471-2.45,1.471c-2.29,0-3.435-1.775-3.435-5.329c0-1.906,0.385-3.305,1.151-4.201     c0.599-0.697,1.35-1.045,2.26-1.045c1.022,0,1.813,0.435,2.366,1.3v-5.479c0-0.327,0.164-0.49,0.49-0.49h1.173     c0.343,0,0.513,0.163,0.513,0.49V32.15z M264.772,27.523c0-2.315-0.583-3.474-1.748-3.474c-0.583,0-1.018,0.242-1.302,0.726     c-0.313,0.539-0.467,1.45-0.467,2.729c0,1.221,0.142,2.086,0.424,2.591c0.286,0.502,0.734,0.757,1.345,0.757     C264.189,30.852,264.772,29.742,264.772,27.523z"
   id="path3163" />
			<path
   fill="#FFFFFF"
   d="M282.105,19.829c0,0.325-0.164,0.49-0.49,0.49h-3.027v11.812c0,0.342-0.171,0.51-0.514,0.51h-1.235     c-0.341,0-0.511-0.168-0.511-0.51V20.319h-3.029c-0.354,0-0.531-0.165-0.531-0.49v-1.045c0-0.341,0.177-0.511,0.531-0.511h8.316     c0.326,0,0.49,0.17,0.49,0.511V19.829z"
   id="path3165" />
			<path
   fill="#FFFFFF"
   d="M290.803,27.523c0,0.342-0.164,0.513-0.49,0.513h-5.16c0.045,0.954,0.236,1.641,0.576,2.069     c0.385,0.499,1.016,0.746,1.898,0.746c0.541,0,1.215-0.129,2.025-0.385c0.057-0.014,0.114-0.021,0.171-0.021     c0.183,0,0.319,0.113,0.404,0.341l0.299,0.854c0.099,0.269,0,0.469-0.299,0.598c-0.81,0.354-1.755,0.531-2.837,0.531     c-1.447,0-2.564-0.451-3.346-1.354c-0.781-0.901-1.172-2.228-1.172-3.975c0-1.58,0.362-2.847,1.086-3.807     c0.726-0.959,1.7-1.439,2.923-1.439C289.494,22.194,290.803,23.972,290.803,27.523z M288.587,26.48     c-0.058-1.706-0.613-2.56-1.665-2.56c-1.021,0-1.614,0.854-1.77,2.56H288.587z"
   id="path3167" />
			<path
   fill="#FFFFFF"
   d="M300.206,32.15c0.068,0.329-0.073,0.49-0.428,0.49h-1.108c-0.299,0-0.477-0.161-0.533-0.49l-0.128-0.788     c-0.61,0.937-1.577,1.407-2.899,1.407c-0.883,0-1.563-0.277-2.045-0.832c-0.486-0.554-0.726-1.327-0.726-2.323     c0-2.047,1.105-3.147,3.323-3.306l2.134-0.148c0-0.299-0.015-0.455-0.045-0.47c-0.026-0.583-0.153-0.993-0.381-1.236     c-0.226-0.241-0.658-0.362-1.294-0.362c-0.551,0-1.237,0.121-2.059,0.362c-0.34,0.1-0.545-0.008-0.615-0.319l-0.213-0.94     c-0.07-0.299,0.038-0.489,0.322-0.575c0.965-0.284,1.859-0.426,2.686-0.426c1.577,0,2.65,0.447,3.219,1.343     c0.369,0.583,0.553,1.479,0.553,2.687v3.584c0,0.779,0.037,1.348,0.107,1.704L300.206,32.15z M297.796,29.188v-1.492     l-1.216,0.044c-1.352,0.041-2.025,0.667-2.025,1.875c0,0.909,0.396,1.364,1.195,1.364c0.567,0,1.059-0.206,1.471-0.617     C297.603,29.99,297.796,29.601,297.796,29.188z"
   id="path3169" />
			<path
   fill="#FFFFFF"
   d="M308.796,31.874c0.057,0.3-0.056,0.498-0.342,0.599c-0.583,0.196-1.278,0.297-2.089,0.297     c-1.352,0-2.402-0.447-3.155-1.344c-0.796-0.938-1.192-2.286-1.192-4.05c0-1.507,0.398-2.747,1.204-3.719     c0.804-0.975,1.878-1.462,3.229-1.462c0.44,0,0.895,0.065,1.363,0.192c0.683,0.172,0.969,0.426,0.854,0.768l-0.299,0.895     c-0.071,0.227-0.198,0.343-0.386,0.343c-0.142,0-0.371-0.052-0.69-0.149c-0.32-0.103-0.581-0.15-0.779-0.15     c-0.683,0-1.22,0.284-1.609,0.856c-0.392,0.568-0.587,1.383-0.587,2.436c0,2.282,0.773,3.424,2.325,3.424     c0.452,0,0.923-0.072,1.405-0.213c0.329-0.086,0.52,0.028,0.577,0.34L308.796,31.874z"
   id="path3171" />
			<path
   fill="#FFFFFF"
   d="M318.369,32.15c0,0.329-0.173,0.49-0.512,0.49h-1.172c-0.329,0-0.492-0.161-0.492-0.49v-6.843     c0-0.837-0.384-1.258-1.15-1.258c-0.584,0-1.074,0.227-1.473,0.683c-0.398,0.454-0.596,1.023-0.596,1.706v5.713     c0,0.329-0.173,0.49-0.513,0.49h-1.151c-0.338,0-0.512-0.161-0.512-0.49V18.015c0-0.327,0.174-0.49,0.512-0.49h1.151     c0.34,0,0.513,0.163,0.513,0.49v5.479c0.781-0.866,1.707-1.3,2.772-1.3c0.796,0,1.431,0.245,1.908,0.737     c0.474,0.489,0.714,1.132,0.714,1.928V32.15z"
   id="path3173" />
			<path
   fill="#FFFFFF"
   d="M323.849,18.825c0,0.398-0.135,0.736-0.405,1.013c-0.27,0.277-0.604,0.417-1.002,0.417     c-0.396,0-0.729-0.139-0.991-0.417s-0.394-0.615-0.394-1.013c0-0.397,0.131-0.735,0.394-1.01     c0.263-0.278,0.595-0.417,0.991-0.417c0.398,0,0.732,0.139,1.002,0.417C323.714,18.09,323.849,18.428,323.849,18.825z      M323.593,32.15c0,0.329-0.172,0.49-0.516,0.49h-1.187c-0.344,0-0.516-0.161-0.516-0.49v-9.338c0-0.325,0.172-0.489,0.516-0.489     h1.187c0.344,0,0.516,0.164,0.516,0.489V32.15z"
   id="path3175" />
			<path
   fill="#FFFFFF"
   d="M334.145,32.15c0,0.329-0.17,0.49-0.516,0.49h-1.207c-0.329,0-0.494-0.161-0.494-0.49v-6.843     c0-0.837-0.363-1.258-1.093-1.258c-0.576,0-1.061,0.227-1.452,0.683c-0.393,0.454-0.588,1.023-0.588,1.706v5.713     c0,0.329-0.168,0.49-0.495,0.49h-1.207c-0.343,0-0.517-0.161-0.517-0.49v-9.338c0-0.325,0.172-0.489,0.511-0.489h0.833     c0.299,0,0.476,0.136,0.533,0.405l0.193,0.875c0.838-0.939,1.797-1.408,2.877-1.408c0.795,0,1.432,0.245,1.905,0.737     c0.479,0.489,0.716,1.132,0.716,1.928V32.15z"
   id="path3177" />
			<path
   fill="#FFFFFF"
   d="M344.85,33.558c0,1.165-0.478,2.054-1.43,2.665c-0.781,0.498-1.748,0.747-2.9,0.747     c-1.224,0-2.203-0.212-2.941-0.64c-0.91-0.527-1.371-1.33-1.385-2.41c0-0.143,0.049-0.262,0.148-0.362     c0.1-0.099,0.22-0.149,0.363-0.149l1.193,0.044c0.27,0.014,0.432,0.17,0.488,0.468c0.144,0.84,0.875,1.259,2.197,1.259     c0.667,0,1.204-0.127,1.609-0.384c0.405-0.256,0.609-0.598,0.609-1.023c0-0.825-0.508-1.236-1.516-1.236h-2.109     c-1.607,0-2.411-0.582-2.411-1.749c0-0.569,0.306-1.143,0.919-1.726c-0.996-0.699-1.492-1.72-1.492-3.071     c0-1.18,0.354-2.103,1.065-2.771c0.711-0.668,1.663-1.003,2.857-1.003c0.155,0,0.376,0.02,0.661,0.053     c0.281,0.037,0.496,0.055,0.637,0.055h2.475c0.354,0,0.535,0.17,0.535,0.512v0.596c0,0.313-0.138,0.482-0.408,0.51l-0.662,0.086     c0.472,0.695,0.706,1.35,0.706,1.961c0,1.167-0.352,2.085-1.056,2.761c-0.703,0.678-1.66,1.015-2.868,1.015     c-0.426,0-0.774-0.036-1.044-0.106c-0.2,0.195-0.298,0.389-0.298,0.574c0,0.355,0.319,0.533,0.958,0.533h1.834     c1.01,0,1.807,0.24,2.389,0.723C344.557,31.974,344.85,32.662,344.85,33.558z M341.885,25.948c0-1.394-0.583-2.092-1.749-2.092     c-0.556,0-0.958,0.122-1.214,0.364c-0.341,0.327-0.511,0.903-0.511,1.728c0,0.851,0.17,1.44,0.511,1.769     c0.256,0.256,0.658,0.385,1.214,0.385C341.302,28.102,341.885,27.383,341.885,25.948z"
   id="path3179" />
			<path
   fill="#FFFFFF"
   d="M360.667,31.98c0.043,0.129,0.064,0.234,0.064,0.318c0,0.23-0.144,0.342-0.429,0.342h-1.555     c-0.326,0-0.539-0.148-0.639-0.446c-0.227-0.726-0.455-1.458-0.683-2.196c-0.269-0.811-0.526-1.447-0.768-1.921     c-0.627-1.192-1.428-1.789-2.409-1.789h-0.874v5.862c0,0.329-0.171,0.49-0.513,0.49h-1.235c-0.343,0-0.512-0.161-0.512-0.49     V18.784c0-0.341,0.169-0.511,0.512-0.511h3.754c1.604,0,2.776,0.426,3.516,1.278c0.556,0.641,0.833,1.427,0.833,2.366     c0,0.896-0.242,1.651-0.727,2.262c-0.523,0.667-1.271,1.079-2.238,1.234c-0.043,0.017-0.1,0.023-0.172,0.023     c0.967,0.199,1.729,0.883,2.282,2.046C359.289,28.349,359.885,29.849,360.667,31.98z M357.427,22.207     c0-0.559-0.17-1.017-0.512-1.374c-0.384-0.399-0.919-0.602-1.599-0.602h-1.94v4.223h1.705c0.726,0,1.296-0.203,1.717-0.612     C357.216,23.437,357.427,22.89,357.427,22.207z"
   id="path3181" />
			<path
   fill="#FFFFFF"
   d="M369.878,27.523c0,0.342-0.163,0.513-0.491,0.513h-5.159c0.043,0.954,0.234,1.641,0.577,2.069     c0.383,0.499,1.016,0.746,1.896,0.746c0.539,0,1.215-0.129,2.023-0.385c0.059-0.014,0.114-0.021,0.172-0.021     c0.186,0,0.322,0.113,0.404,0.341l0.301,0.854c0.098,0.269,0,0.469-0.301,0.598c-0.808,0.354-1.754,0.531-2.834,0.531     c-1.45,0-2.564-0.451-3.348-1.354c-0.78-0.901-1.176-2.228-1.176-3.975c0-1.58,0.364-2.847,1.09-3.807     c0.725-0.959,1.7-1.439,2.922-1.439C368.569,22.194,369.878,23.972,369.878,27.523z M367.66,26.48     c-0.058-1.706-0.612-2.56-1.664-2.56c-1.021,0-1.611,0.854-1.769,2.56H367.66z"
   id="path3183" />
			<path
   fill="#FFFFFF"
   d="M378.152,29.699c0,0.867-0.286,1.578-0.854,2.133c-0.627,0.625-1.492,0.938-2.602,0.938     s-2.112-0.207-3.007-0.619c-0.285-0.125-0.377-0.34-0.275-0.638l0.275-0.896c0.086-0.255,0.227-0.384,0.427-0.384     c0.071,0,0.136,0.017,0.194,0.043c0.935,0.396,1.717,0.598,2.342,0.598c0.854,0,1.28-0.363,1.28-1.089     c0-0.469-0.364-0.923-1.089-1.364c-1.348-0.809-2.031-1.221-2.045-1.238c-0.725-0.581-1.088-1.276-1.088-2.087     c0-0.868,0.292-1.566,0.873-2.1c0.583-0.534,1.395-0.8,2.432-0.8c0.896,0,1.691,0.15,2.386,0.447     c0.315,0.129,0.415,0.343,0.301,0.642l-0.276,0.724c-0.113,0.313-0.306,0.419-0.571,0.32c-0.722-0.27-1.302-0.406-1.737-0.406     c-0.792,0-1.189,0.342-1.189,1.024c0,0.383,0.367,0.796,1.104,1.235c1.131,0.669,1.803,1.097,2.016,1.279     C377.783,28.088,378.152,28.834,378.152,29.699z"
   id="path3185" />
			<path
   fill="#FFFFFF"
   d="M387.976,27.46c0,1.649-0.365,2.947-1.097,3.892c-0.734,0.944-1.758,1.418-3.08,1.418     c-1.324,0-2.357-0.471-3.104-1.407c-0.746-0.938-1.117-2.239-1.117-3.902c0-1.634,0.371-2.919,1.117-3.857     c0.746-0.939,1.779-1.408,3.104-1.408c1.307,0,2.33,0.469,3.068,1.408C387.605,24.541,387.976,25.826,387.976,27.46z      M385.717,27.46c0-2.288-0.658-3.432-1.973-3.432c-1.299,0-1.949,1.144-1.949,3.432c0,2.29,0.65,3.433,1.949,3.433     C385.059,30.893,385.717,29.75,385.717,27.46z"
   id="path3187" />
			<path
   fill="#FFFFFF"
   d="M397.74,32.15c0,0.329-0.162,0.49-0.489,0.49h-0.853c-0.271,0-0.441-0.142-0.513-0.426l-0.213-0.896     c-0.91,0.967-1.92,1.451-3.028,1.451c-0.796,0-1.431-0.237-1.905-0.713c-0.478-0.477-0.716-1.134-0.716-1.975v-7.27     c0-0.325,0.17-0.489,0.513-0.489h1.193c0.342,0,0.512,0.164,0.512,0.489v6.887c0,0.811,0.38,1.217,1.144,1.217     c0.634,0,1.149-0.248,1.545-0.736c0.396-0.492,0.593-1.17,0.593-2.036v-5.332c0-0.325,0.173-0.489,0.518-0.489h1.206     c0.33,0,0.494,0.164,0.494,0.489V32.15z"
   id="path3189" />
			<path
   fill="#FFFFFF"
   d="M406.332,23.068l-0.316,1.195c-0.086,0.325-0.297,0.46-0.635,0.404c-0.129-0.015-0.337-0.08-0.627-0.192     c-0.291-0.113-0.512-0.171-0.668-0.171c-0.383,0-0.692,0.221-0.932,0.661c-0.283,0.499-0.426,1.224-0.426,2.177v5.008     c0,0.329-0.174,0.49-0.515,0.49h-1.187c-0.342,0-0.514-0.161-0.514-0.49v-9.338c0-0.325,0.17-0.489,0.509-0.489h0.79     c0.312,0,0.506,0.142,0.576,0.425l0.234,0.918c0.624-0.98,1.421-1.472,2.388-1.472C406.049,22.194,406.488,22.487,406.332,23.068     z"
   id="path3191" />
			<path
   fill="#FFFFFF"
   d="M413.752,31.874c0.057,0.3-0.056,0.498-0.342,0.599c-0.582,0.196-1.279,0.297-2.088,0.297     c-1.353,0-2.404-0.447-3.156-1.344c-0.795-0.938-1.193-2.286-1.193-4.05c0-1.507,0.4-2.747,1.203-3.719     c0.803-0.975,1.881-1.462,3.23-1.462c0.442,0,0.895,0.065,1.365,0.192c0.682,0.172,0.965,0.426,0.854,0.768l-0.299,0.895     c-0.072,0.227-0.2,0.343-0.385,0.343c-0.143,0-0.374-0.052-0.692-0.149c-0.319-0.103-0.58-0.15-0.778-0.15     c-0.682,0-1.221,0.284-1.609,0.856c-0.392,0.568-0.586,1.383-0.586,2.436c0,2.282,0.772,3.424,2.323,3.424     c0.452,0,0.925-0.072,1.407-0.213c0.328-0.086,0.519,0.028,0.577,0.34L413.752,31.874z"
   id="path3193" />
			<path
   fill="#FFFFFF"
   d="M423.027,27.523c0,0.342-0.167,0.513-0.491,0.513h-5.161c0.045,0.954,0.235,1.641,0.576,2.069     c0.384,0.499,1.018,0.746,1.898,0.746c0.54,0,1.215-0.129,2.025-0.385c0.057-0.014,0.111-0.021,0.172-0.021     c0.182,0,0.318,0.113,0.404,0.341l0.297,0.854c0.102,0.269,0,0.469-0.297,0.598c-0.812,0.354-1.757,0.531-2.837,0.531     c-1.45,0-2.563-0.451-3.348-1.354c-0.781-0.901-1.173-2.228-1.173-3.975c0-1.58,0.361-2.847,1.088-3.807s1.699-1.439,2.922-1.439     C421.717,22.194,423.027,23.972,423.027,27.523z M420.809,26.48c-0.056-1.706-0.612-2.56-1.664-2.56     c-1.022,0-1.612,0.854-1.77,2.56H420.809z"
   id="path3195" />
			<path
   fill="#FFFFFF"
   d="M431.299,29.699c0,0.867-0.285,1.578-0.854,2.133c-0.627,0.625-1.492,0.938-2.6,0.938     c-1.109,0-2.112-0.207-3.007-0.619c-0.285-0.125-0.378-0.34-0.276-0.638l0.276-0.896c0.085-0.255,0.228-0.384,0.425-0.384     c0.074,0,0.137,0.017,0.193,0.043c0.938,0.396,1.719,0.598,2.345,0.598c0.853,0,1.281-0.363,1.281-1.089     c0-0.469-0.364-0.923-1.089-1.364c-1.351-0.809-2.035-1.221-2.047-1.238c-0.727-0.581-1.086-1.276-1.086-2.087     c0-0.868,0.289-1.566,0.872-2.1c0.582-0.534,1.394-0.8,2.431-0.8c0.895,0,1.691,0.15,2.387,0.447     c0.314,0.129,0.413,0.343,0.3,0.642l-0.276,0.724c-0.113,0.313-0.305,0.419-0.57,0.32c-0.723-0.27-1.303-0.406-1.739-0.406     c-0.791,0-1.188,0.342-1.188,1.024c0,0.383,0.367,0.796,1.102,1.235c1.132,0.669,1.805,1.097,2.017,1.279     C430.932,28.088,431.299,28.834,431.299,29.699z"
   id="path3197" />
		</g>
	</g>
</g>


<g
   id="g5941"
   transform="translate(-61.763,-91.389896)"><text
     id="text5883"
     transform="translate(77.7546,139.9314)"><tspan
       id="tspan5885"
       font-size="10"
       y="0"
       x="0"
       style="font-size:10px;font-family:TimesNewRomanPSMT"> 9</tspan><tspan
       id="tspan5887"
       font-size="10"
       y="0"
       x="7.5"
       style="font-size:10px;font-family:TimesNewRomanPS-ItalicMT">x</tspan><tspan
       id="tspan5889"
       font-size="10"
       y="0"
       x="11.938"
       style="font-size:10px;font-family:TimesNewRomanPSMT"> +12</tspan><tspan
       id="tspan5891"
       font-size="10"
       y="0"
       x="30.077999"
       style="font-size:10px;font-family:TimesNewRomanPS-ItalicMT">y</tspan></text>
<text
     id="text5893"
     transform="translate(80.2546,153.6814)"><tspan
       id="tspan5895"
       font-size="10"
       y="0"
       x="0"
       style="font-size:10px;font-family:TimesNewRomanPSMT">2</tspan><tspan
       id="tspan5897"
       font-size="10"
       y="0"
       x="5"
       style="font-size:10px;font-family:TimesNewRomanPS-ItalicMT">x</tspan><tspan
       id="tspan5899"
       font-size="10"
       y="0"
       x="9.4379997"
       style="font-size:10px;font-family:TimesNewRomanPSMT"> + 2</tspan><tspan
       id="tspan5901"
       font-size="10"
       y="0"
       x="25.077999"
       style="font-size:10px;font-family:TimesNewRomanPS-ItalicMT">y</tspan></text>
<line
     id="line5903"
     y2="143.68201"
     x2="112.764"
     y1="143.68201"
     x1="77.263"
     stroke-miterlimit="10"
     style="fill:none;stroke:#000000;stroke-miterlimit:10" /><text
     id="text5905"
     transform="translate(67.7161,88.1814)"><tspan
       id="tspan5907"
       font-size="10"
       y="0"
       x="0"
       style="font-size:10px;font-family:TimesNewRomanPSMT">6</tspan><tspan
       id="tspan5909"
       font-size="10"
       y="0"
       x="5"
       style="font-size:10px;font-family:TimesNewRomanPS-ItalicMT">x</tspan><tspan
       id="tspan5911"
       font-size="10"
       y="0"
       x="9.4379997"
       style="font-size:10px;font-family:TimesNewRomanPSMT"> + 3</tspan><tspan
       id="tspan5913"
       font-size="10"
       y="0"
       x="25.077999"
       style="font-size:10px;font-family:TimesNewRomanPS-ItalicMT">x</tspan><tspan
       id="tspan5915"
       font-size="10"
       y="0"
       x="29.517"
       style="font-size:10px;font-family:TimesNewRomanPSMT"> + 12</tspan><tspan
       id="tspan5917"
       font-size="10"
       y="0"
       x="50.155998"
       style="font-size:10px;font-family:TimesNewRomanPS-ItalicMT">y</tspan></text>
<text
     id="text5919"
     transform="translate(71.3708,101.9314)"><tspan
       id="tspan5921"
       font-size="10"
       y="0"
       x="0"
       style="font-size:10px;font-family:TimesNewRomanPSMT">2</tspan><tspan
       id="tspan5923"
       font-size="10"
       y="0"
       x="5"
       style="font-size:10px;font-family:TimesNewRomanPS-ItalicMT">x</tspan><tspan
       id="tspan5925"
       font-size="10"
       y="0"
       x="9.4379997"
       style="font-size:10px;font-family:TimesNewRomanPSMT"> + 4</tspan><tspan
       id="tspan5927"
       font-size="10"
       y="0"
       x="25.077999"
       style="font-size:10px;font-family:TimesNewRomanPS-ItalicMT">y </tspan><tspan
       id="tspan5929"
       font-size="10"
       y="0"
       x="32.015999"
       style="font-size:10px;font-family:TimesNewRomanPSMT">- 2</tspan><tspan
       id="tspan5931"
       font-size="10"
       y="0"
       x="42.846001"
       style="font-size:10px;font-family:TimesNewRomanPS-ItalicMT">y</tspan></text>
<line
     id="line5933"
     y2="91.931999"
     x2="127.764"
     y1="91.931999"
     x1="62.263"
     stroke-miterlimit="10"
     style="fill:none;stroke:#000000;stroke-miterlimit:10" /></g></svg>