<?xml version="1.0" encoding="UTF-8" standalone="no"?>
<!-- Generator: Adobe Illustrator 16.0.0, SVG Export Plug-In . SVG Version: 6.00 Build 0)  -->

<svg
   xmlns:dc="http://purl.org/dc/elements/1.1/"
   xmlns:cc="http://creativecommons.org/ns#"
   xmlns:rdf="http://www.w3.org/1999/02/22-rdf-syntax-ns#"
   xmlns:svg="http://www.w3.org/2000/svg"
   xmlns="http://www.w3.org/2000/svg"
   xmlns:sodipodi="http://sodipodi.sourceforge.net/DTD/sodipodi-0.dtd"
   xmlns:inkscape="http://www.inkscape.org/namespaces/inkscape"
   version="1.0"
   id="Layer_1"
   x="0px"
   y="0px"
   viewBox="0 0 171.78125 42.501001"
   enable-background="new 0 0 437 54"
   xml:space="preserve"
   inkscape:version="0.48.4 r9939"
   width="100%"
   height="100%"
   sodipodi:docname="Qn6.svg"><metadata
   id="metadata3203"><rdf:RDF><cc:Work
       rdf:about=""><dc:format>image/svg+xml</dc:format><dc:type
         rdf:resource="http://purl.org/dc/dcmitype/StillImage" /><dc:title></dc:title></cc:Work></rdf:RDF></metadata><defs
   id="defs3201" /><sodipodi:namedview
   pagecolor="#ffffff"
   bordercolor="#666666"
   borderopacity="1"
   objecttolerance="10"
   gridtolerance="10"
   guidetolerance="10"
   inkscape:pageopacity="0"
   inkscape:pageshadow="2"
   inkscape:window-width="1280"
   inkscape:window-height="716"
   id="namedview3199"
   showgrid="false"
   inkscape:zoom="1.8363406"
   inkscape:cx="85.895001"
   inkscape:cy="21.2505"
   inkscape:window-x="-8"
   inkscape:window-y="-8"
   inkscape:window-maximized="1"
   inkscape:current-layer="Layer_1"
   inkscape:showpageshadow="false"
   showborder="false"
   fit-margin-top="0"
   fit-margin-left="0"
   fit-margin-right="0"
   fit-margin-bottom="0" />
<g
   id="Intel_Skoool_Logo"
   transform="translate(-133.56965,-5.2191093)">
	<g
   id="g3097">
		<g
   id="g3099">
			<g
   id="g3101">
				<g
   id="g3103">
					<path
   d="M 38.236,43.095 C 25.511,44.276 12.238,42.43 10.381,32.489 9.472,27.559 11.706,22.373 14.675,19.144 V 17.415 C 9.329,22.082 6.431,28.021 8.103,35.025 10.235,43.988 21.619,49.088 39,47.39 45.889,46.725 54.882,44.506 61.15,41.077 v -4.871 c -5.692,3.369 -15.076,6.169 -22.914,6.889 z M 71.771,17.297 C 68.758,2.539 40.137,1.619 21.676,12.86 v 1.238 C 40.11,4.616 66.251,4.674 68.63,18.25 c 0.808,4.493 -1.73,9.192 -6.241,11.873 v 3.517 c 5.434,-1.99 11.009,-8.445 9.382,-16.343 z"
   id="path3105"
   inkscape:connector-curvature="0"
   style="fill:#ffffff" />
					<path
   d="m 60.114,15.165 h -3.346 v 14.843 c 0,1.758 0.851,3.258 3.346,3.516 V 15.165 z"
   id="path3107"
   inkscape:connector-curvature="0"
   style="fill:#ffffff" />
					<path
   d="m 20.365,20.584 h -3.343 v 9.713 c 0,1.73 0.852,3.258 3.343,3.487 v -13.2 z"
   id="path3109"
   inkscape:connector-curvature="0"
   style="fill:#ffffff" />
					<rect
   x="17.021999"
   y="15.597"
   width="3.3310001"
   height="3.1700001"
   id="rect3111"
   style="fill:#ffffff" />
					<path
   d="m 40.354,33.64 c -2.694,0 -3.833,-1.874 -3.833,-3.718 V 17.009 h 3.3 v 3.575 h 2.494 v 2.681 h -2.494 v 6.456 c 0,0.748 0.346,1.151 1.138,1.151 h 1.356 v 2.768 h -1.961"
   id="path3113"
   inkscape:connector-curvature="0"
   style="fill:#ffffff" />
					<path
   d="m 46.45,28.136 c 0,1.7 1.066,2.941 2.926,2.941 1.469,0 2.192,-0.406 3.039,-1.241 l 2.049,1.959 c -1.312,1.268 -2.683,2.076 -5.118,2.076 -3.156,0 -6.196,-1.729 -6.196,-6.773 0,-4.295 2.666,-6.745 6.141,-6.745 3.531,0 5.563,2.852 5.563,6.6 v 1.183 H 46.45 m 2.679,-5.046 c -1.122,0 -2.001,0.579 -2.362,1.384 -0.215,0.463 -0.301,0.835 -0.316,1.412 h 5.101 C 51.48,24.474 50.845,23.09 49.129,23.09 z"
   id="path3115"
   inkscape:connector-curvature="0"
   style="fill:#ffffff" />
					<path
   d="m 29.359,23.265 c 0.966,0 1.367,0.459 1.367,1.239 v 9.165 h 3.315 v -9.195 c 0,-1.844 -0.993,-3.89 -3.904,-3.89 h -6.832 v 13.085 h 3.314 V 23.265 h 2.74 z"
   id="path3117"
   inkscape:connector-curvature="0"
   style="fill:#ffffff" />
				</g>
			</g>
			<g
   id="g3119">
				<path
   d="m 64.003,19.056 c -1.08,0 -1.944,-0.866 -1.944,-1.961 0,-1.066 0.864,-1.93 1.944,-1.93 1.082,0 1.96,0.864 1.96,1.93 0,1.095 -0.879,1.961 -1.96,1.961 z m 0,-3.574 c -0.894,0 -1.614,0.719 -1.614,1.612 0,0.925 0.72,1.645 1.614,1.645 0.894,0 1.643,-0.719 1.643,-1.645 0,-0.892 -0.75,-1.612 -1.643,-1.612 z m 0.865,2.794 h -0.36 c -0.043,0 -0.057,0 -0.073,-0.058 l -0.504,-0.834 c -0.014,0 -0.058,-0.028 -0.07,-0.028 0,0 -0.074,0 -0.144,0 -0.03,0 -0.06,0 -0.073,0 v 0.834 c 0,0.028 -0.028,0.085 -0.086,0.085 h -0.332 c -0.043,0 -0.086,-0.058 -0.086,-0.085 v -2.104 c 0,-0.144 0.043,-0.174 0.159,-0.201 0.114,-0.028 0.418,-0.028 0.59,-0.028 0.62,0 0.98,0.171 0.98,0.748 v 0.03 c 0,0.374 -0.187,0.547 -0.445,0.633 l 0.517,0.893 c 0,0 0.014,0.029 0.014,0.057 -0.001,0.032 -0.016,0.058 -0.087,0.058 z m -0.475,-1.671 c 0,-0.23 -0.144,-0.316 -0.462,-0.316 -0.042,0 -0.145,0 -0.214,0 -0.043,0 -0.073,0 -0.101,0 v 0.69 c 0.057,0 0.272,0 0.315,0 0.319,0 0.462,-0.115 0.462,-0.344 v -0.03 z"
   id="path3121"
   inkscape:connector-curvature="0"
   style="fill:#ffffff" />
			</g>
		</g>
		<path
   d="m 148.08,16.8 v 2.097 h -0.41 V 16.8 h -0.753 v -0.325 h 1.92 V 16.8 h -0.757 z m 3.509,2.097 v -2.015 h -0.017 l -0.791,2.015 h -0.252 l -0.796,-2.015 h -0.011 v 2.015 h -0.396 v -2.422 h 0.617 l 0.722,1.841 0.712,-1.841 h 0.611 v 2.422 h -0.399 z"
   id="path3123"
   inkscape:connector-curvature="0"
   style="fill:#ffffff" />
		<g
   id="g3125">
			<path
   d="m 84.086,31.344 c 0.709,0 1.178,-0.1 1.414,-0.275 0.236,-0.186 0.352,-0.43 0.352,-0.746 0,-0.267 -0.076,-0.488 -0.228,-0.663 -0.151,-0.181 -0.418,-0.385 -0.802,-0.618 l -3.167,-1.949 c -0.601,-0.369 -1.069,-0.826 -1.43,-1.38 -0.351,-0.551 -0.523,-1.153 -0.523,-1.809 0,-2.317 1.471,-3.477 4.407,-3.477 1.522,0 2.874,0.254 4.053,0.759 0.173,0.069 0.299,0.145 0.373,0.23 0.074,0.088 0.113,0.211 0.113,0.37 v 1.415 c 0,0.34 -0.163,0.463 -0.486,0.374 -1.353,-0.432 -2.595,-0.645 -3.724,-0.645 -0.591,0 -1.016,0.063 -1.282,0.191 -0.266,0.129 -0.395,0.352 -0.395,0.668 0,0.176 0.036,0.314 0.104,0.427 0.074,0.109 0.174,0.207 0.291,0.299 0.12,0.091 0.299,0.202 0.535,0.34 l 3.035,1.856 c 0.878,0.535 1.473,1.072 1.775,1.613 0.302,0.536 0.451,1.121 0.451,1.75 0,0.729 -0.166,1.383 -0.507,1.961 -0.339,0.566 -0.857,1.018 -1.549,1.335 -0.688,0.315 -1.514,0.471 -2.482,0.471 -1.534,0 -2.895,-0.251 -4.083,-0.753 -0.2,-0.104 -0.329,-0.194 -0.391,-0.282 -0.073,-0.083 -0.106,-0.198 -0.106,-0.323 v -1.412 c 0,-0.34 0.168,-0.468 0.497,-0.373 1.364,0.425 2.615,0.646 3.755,0.646 z"
   id="path3127"
   inkscape:connector-curvature="0"
   style="fill:#ffffff" />
			<path
   d="m 101.676,33.38 c 0,0.075 -0.032,0.146 -0.091,0.2 -0.058,0.047 -0.134,0.073 -0.225,0.073 h -2.829 c -0.113,0 -0.235,-0.044 -0.362,-0.144 -0.13,-0.092 -0.23,-0.207 -0.307,-0.315 l -3.644,-5.286 v 5.262 c 0,0.133 -0.045,0.258 -0.132,0.346 -0.087,0.098 -0.198,0.138 -0.336,0.138 h -2.125 c -0.135,0 -0.247,-0.046 -0.334,-0.149 -0.086,-0.096 -0.127,-0.217 -0.127,-0.334 V 16.475 c 0,-0.111 0.043,-0.218 0.132,-0.317 0.091,-0.097 0.203,-0.146 0.33,-0.146 h 2.125 c 0.13,0 0.238,0.046 0.331,0.135 0.091,0.091 0.137,0.201 0.137,0.329 v 9.666 l 3.96,-5.272 c 0.151,-0.188 0.331,-0.284 0.534,-0.284 h 2.602 c 0.227,0 0.337,0.083 0.337,0.249 0,0.077 -0.028,0.155 -0.088,0.238 l -4.652,5.725 4.696,6.398 c 0.043,0.068 0.068,0.13 0.068,0.184 z"
   id="path3129"
   inkscape:connector-curvature="0"
   style="fill:#ffffff" />
			<path
   d="m 113.632,28.067 c 0,1.1 -0.216,2.095 -0.641,2.979 -0.425,0.877 -1.053,1.561 -1.883,2.061 -0.83,0.488 -1.838,0.731 -3.023,0.731 -1.168,0 -2.173,-0.243 -3.012,-0.731 -0.837,-0.5 -1.468,-1.184 -1.889,-2.061 -0.423,-0.885 -0.634,-1.88 -0.634,-2.979 v -1.869 c 0,-1.102 0.211,-2.095 0.634,-2.976 0.421,-0.883 1.052,-1.57 1.889,-2.06 0.839,-0.491 1.844,-0.737 3.012,-0.737 1.185,0 2.193,0.246 3.023,0.737 0.831,0.49 1.458,1.177 1.883,2.06 0.425,0.88 0.641,1.874 0.641,2.976 v 1.869 z m -3.058,0 v -1.869 c 0,-0.964 -0.211,-1.73 -0.64,-2.29 -0.426,-0.563 -1.043,-0.846 -1.85,-0.846 -0.801,0 -1.416,0.282 -1.838,0.846 -0.429,0.56 -0.641,1.326 -0.641,2.29 v 1.869 c 0,0.968 0.214,1.731 0.646,2.294 0.426,0.558 1.039,0.841 1.833,0.841 0.8,0 1.413,-0.283 1.844,-0.841 0.433,-0.562 0.646,-1.326 0.646,-2.294 z"
   id="path3131"
   inkscape:connector-curvature="0"
   style="fill:#ffffff" />
			<path
   d="m 126.617,28.067 c 0,1.1 -0.215,2.095 -0.643,2.979 -0.425,0.877 -1.055,1.561 -1.881,2.061 -0.833,0.488 -1.839,0.731 -3.027,0.731 -1.167,0 -2.172,-0.243 -3.009,-0.731 -0.838,-0.5 -1.468,-1.184 -1.889,-2.061 -0.423,-0.885 -0.635,-1.88 -0.635,-2.979 v -1.869 c 0,-1.102 0.211,-2.095 0.635,-2.976 0.421,-0.883 1.051,-1.57 1.889,-2.06 0.837,-0.491 1.842,-0.737 3.009,-0.737 1.188,0 2.193,0.246 3.027,0.737 0.827,0.49 1.456,1.177 1.881,2.06 0.428,0.88 0.643,1.874 0.643,2.976 v 1.869 z m -3.058,0 v -1.869 c 0,-0.964 -0.213,-1.73 -0.64,-2.29 -0.428,-0.563 -1.044,-0.846 -1.853,-0.846 -0.797,0 -1.41,0.282 -1.838,0.846 -0.427,0.56 -0.64,1.326 -0.64,2.29 v 1.869 c 0,0.968 0.218,1.731 0.647,2.294 0.43,0.558 1.042,0.841 1.832,0.841 0.803,0 1.417,-0.283 1.848,-0.841 0.428,-0.562 0.644,-1.326 0.644,-2.294 z"
   id="path3133"
   inkscape:connector-curvature="0"
   style="fill:#ffffff" />
			<path
   d="m 139.599,28.067 c 0,1.1 -0.213,2.095 -0.64,2.979 -0.424,0.877 -1.054,1.561 -1.884,2.061 -0.83,0.488 -1.838,0.731 -3.024,0.731 -1.167,0 -2.172,-0.243 -3.009,-0.731 -0.839,-0.5 -1.469,-1.184 -1.892,-2.061 -0.422,-0.885 -0.634,-1.88 -0.634,-2.979 v -1.869 c 0,-1.102 0.212,-2.095 0.634,-2.976 0.423,-0.883 1.053,-1.57 1.892,-2.06 0.837,-0.491 1.842,-0.737 3.009,-0.737 1.186,0 2.194,0.246 3.024,0.737 0.83,0.49 1.46,1.177 1.884,2.06 0.426,0.88 0.64,1.874 0.64,2.976 v 1.869 z m -3.056,0 v -1.869 c 0,-0.964 -0.211,-1.73 -0.638,-2.29 -0.428,-0.563 -1.044,-0.846 -1.854,-0.846 -0.798,0 -1.411,0.282 -1.838,0.846 -0.429,0.56 -0.642,1.326 -0.642,2.29 v 1.869 c 0,0.968 0.216,1.731 0.649,2.294 0.428,0.558 1.039,0.841 1.831,0.841 0.801,0 1.416,-0.283 1.846,-0.841 0.432,-0.562 0.646,-1.326 0.646,-2.294 z"
   id="path3135"
   inkscape:connector-curvature="0"
   style="fill:#ffffff" />
			<path
   d="m 144.999,33.17 c 0,0.124 -0.039,0.248 -0.123,0.34 -0.083,0.1 -0.188,0.144 -0.318,0.144 h -2.151 c -0.135,0 -0.244,-0.046 -0.333,-0.149 -0.086,-0.096 -0.13,-0.217 -0.13,-0.334 V 16.475 c 0,-0.111 0.045,-0.218 0.135,-0.317 0.093,-0.097 0.202,-0.146 0.329,-0.146 h 2.151 c 0.12,0 0.223,0.048 0.313,0.141 0.085,0.096 0.128,0.205 0.128,0.323 V 33.17 z"
   id="path3137"
   inkscape:connector-curvature="0"
   style="fill:#ffffff" />
		</g>
	</g>
	<g
   id="g3139">
		<g
   id="g3141">
			<path
   d="m 171.54,32.131 c 0,0.342 -0.17,0.51 -0.51,0.51 h -6.269 c -0.342,0 -0.513,-0.168 -0.513,-0.51 V 18.784 c 0,-0.341 0.171,-0.511 0.513,-0.511 h 1.238 c 0.34,0 0.51,0.17 0.51,0.511 v 11.812 h 4.521 c 0.34,0 0.51,0.17 0.51,0.51 v 1.025 z"
   id="path3143"
   inkscape:connector-curvature="0"
   style="fill:#ffffff" />
			<path
   d="m 180.389,27.523 c 0,0.342 -0.164,0.513 -0.489,0.513 h -5.16 c 0.041,0.954 0.233,1.641 0.575,2.069 0.382,0.499 1.015,0.746 1.897,0.746 0.538,0 1.215,-0.129 2.025,-0.385 0.056,-0.014 0.114,-0.021 0.17,-0.021 0.185,0 0.319,0.113 0.407,0.341 l 0.297,0.854 c 0.102,0.269 0,0.469 -0.297,0.598 -0.81,0.354 -1.758,0.531 -2.837,0.531 -1.451,0 -2.568,-0.451 -3.349,-1.354 -0.781,-0.901 -1.17,-2.228 -1.17,-3.975 0,-1.58 0.361,-2.847 1.087,-3.807 0.726,-0.96 1.697,-1.439 2.919,-1.439 2.617,0 3.925,1.778 3.925,5.329 z m -2.217,-1.043 c -0.058,-1.706 -0.612,-2.56 -1.663,-2.56 -1.024,0 -1.614,0.854 -1.77,2.56 h 3.433 z"
   id="path3145"
   inkscape:connector-curvature="0"
   style="fill:#ffffff" />
			<path
   d="m 189.793,32.15 c 0.069,0.329 -0.075,0.49 -0.428,0.49 h -1.11 c -0.298,0 -0.474,-0.161 -0.531,-0.49 l -0.129,-0.788 c -0.611,0.937 -1.578,1.407 -2.901,1.407 -0.88,0 -1.563,-0.277 -2.045,-0.832 -0.484,-0.554 -0.726,-1.327 -0.726,-2.323 0,-2.047 1.108,-3.147 3.326,-3.306 l 2.131,-0.148 c 0,-0.299 -0.014,-0.455 -0.042,-0.47 -0.028,-0.583 -0.156,-0.993 -0.382,-1.236 -0.225,-0.241 -0.659,-0.362 -1.295,-0.362 -0.551,0 -1.239,0.121 -2.057,0.362 -0.34,0.1 -0.544,-0.008 -0.616,-0.319 l -0.213,-0.94 c -0.069,-0.299 0.036,-0.489 0.321,-0.575 0.966,-0.284 1.862,-0.426 2.685,-0.426 1.578,0 2.653,0.447 3.22,1.343 0.372,0.583 0.555,1.479 0.555,2.687 v 3.584 c 0,0.779 0.035,1.348 0.107,1.704 l 0.13,0.638 z m -2.412,-2.962 v -1.492 l -1.214,0.044 c -1.351,0.041 -2.026,0.667 -2.026,1.875 0,0.909 0.396,1.364 1.194,1.364 0.567,0 1.059,-0.206 1.472,-0.617 0.384,-0.372 0.574,-0.761 0.574,-1.174 z"
   id="path3147"
   inkscape:connector-curvature="0"
   style="fill:#ffffff" />
			<path
   d="m 198.147,23.068 -0.319,1.195 c -0.084,0.325 -0.295,0.46 -0.635,0.404 -0.127,-0.015 -0.335,-0.08 -0.625,-0.192 -0.291,-0.113 -0.512,-0.171 -0.667,-0.171 -0.381,0 -0.692,0.221 -0.932,0.661 -0.284,0.499 -0.424,1.224 -0.424,2.177 v 5.008 c 0,0.329 -0.172,0.49 -0.518,0.49 h -1.183 c -0.345,0 -0.519,-0.161 -0.519,-0.49 v -9.338 c 0,-0.325 0.174,-0.489 0.513,-0.489 h 0.788 c 0.314,0 0.508,0.142 0.576,0.425 l 0.237,0.918 c 0.625,-0.98 1.419,-1.472 2.387,-1.472 1.038,0 1.478,0.293 1.321,0.874 z"
   id="path3149"
   inkscape:connector-curvature="0"
   style="fill:#ffffff" />
			<path
   d="m 207.081,32.15 c 0,0.329 -0.174,0.49 -0.519,0.49 h -1.203 c -0.331,0 -0.498,-0.161 -0.498,-0.49 v -6.843 c 0,-0.837 -0.365,-1.258 -1.092,-1.258 -0.576,0 -1.059,0.227 -1.451,0.683 -0.393,0.454 -0.59,1.023 -0.59,1.706 v 5.713 c 0,0.329 -0.165,0.49 -0.497,0.49 h -1.202 c -0.344,0 -0.518,-0.161 -0.518,-0.49 v -9.338 c 0,-0.325 0.168,-0.489 0.51,-0.489 h 0.833 c 0.297,0 0.474,0.136 0.533,0.405 l 0.192,0.875 c 0.839,-0.939 1.795,-1.408 2.876,-1.408 0.797,0 1.432,0.245 1.908,0.737 0.476,0.489 0.715,1.132 0.715,1.928 v 7.289 z"
   id="path3151"
   inkscape:connector-curvature="0"
   style="fill:#ffffff" />
			<path
   d="m 212.56,18.825 c 0,0.398 -0.138,0.736 -0.405,1.013 -0.27,0.277 -0.606,0.417 -1.001,0.417 -0.4,0 -0.729,-0.139 -0.993,-0.417 -0.263,-0.277 -0.394,-0.615 -0.394,-1.013 0,-0.397 0.13,-0.735 0.394,-1.01 0.264,-0.278 0.593,-0.417 0.993,-0.417 0.395,0 0.731,0.139 1.001,0.417 0.267,0.275 0.405,0.613 0.405,1.01 z m -0.254,13.325 c 0,0.329 -0.174,0.49 -0.517,0.49 h -1.185 c -0.346,0 -0.517,-0.161 -0.517,-0.49 v -9.338 c 0,-0.325 0.171,-0.489 0.517,-0.489 h 1.185 c 0.343,0 0.517,0.164 0.517,0.489 v 9.338 z"
   id="path3153"
   inkscape:connector-curvature="0"
   style="fill:#ffffff" />
			<path
   d="m 222.859,32.15 c 0,0.329 -0.174,0.49 -0.518,0.49 h -1.207 c -0.331,0 -0.494,-0.161 -0.494,-0.49 v -6.843 c 0,-0.837 -0.365,-1.258 -1.094,-1.258 -0.575,0 -1.061,0.227 -1.454,0.683 -0.391,0.454 -0.586,1.023 -0.586,1.706 v 5.713 c 0,0.329 -0.166,0.49 -0.496,0.49 h -1.205 c -0.344,0 -0.517,-0.161 -0.517,-0.49 v -9.338 c 0,-0.325 0.172,-0.489 0.513,-0.489 h 0.829 c 0.301,0 0.479,0.136 0.534,0.405 l 0.191,0.875 c 0.84,-0.939 1.798,-1.408 2.88,-1.408 0.794,0 1.43,0.245 1.908,0.737 0.475,0.489 0.715,1.132 0.715,1.928 v 7.289 z"
   id="path3155"
   inkscape:connector-curvature="0"
   style="fill:#ffffff" />
			<path
   d="m 233.561,33.558 c 0,1.165 -0.477,2.054 -1.43,2.665 -0.781,0.498 -1.748,0.747 -2.898,0.747 -1.222,0 -2.203,-0.212 -2.941,-0.64 -0.91,-0.527 -1.373,-1.33 -1.388,-2.41 0,-0.143 0.052,-0.262 0.149,-0.362 0.098,-0.099 0.221,-0.149 0.363,-0.149 l 1.193,0.044 c 0.271,0.014 0.435,0.17 0.49,0.468 0.142,0.84 0.875,1.259 2.196,1.259 0.669,0 1.204,-0.127 1.609,-0.384 0.406,-0.256 0.608,-0.598 0.608,-1.023 0,-0.825 -0.505,-1.236 -1.514,-1.236 h -2.111 c -1.605,0 -2.409,-0.582 -2.409,-1.749 0,-0.569 0.306,-1.143 0.917,-1.726 -0.994,-0.699 -1.493,-1.72 -1.493,-3.071 0,-1.18 0.356,-2.103 1.068,-2.771 0.71,-0.668 1.662,-1.003 2.854,-1.003 0.158,0 0.377,0.02 0.662,0.053 0.284,0.037 0.496,0.055 0.641,0.055 h 2.471 c 0.355,0 0.534,0.17 0.534,0.512 v 0.596 c 0,0.313 -0.137,0.482 -0.404,0.51 l -0.663,0.086 c 0.469,0.695 0.706,1.35 0.706,1.961 0,1.167 -0.356,2.085 -1.058,2.761 -0.702,0.678 -1.66,1.015 -2.867,1.015 -0.428,0 -0.771,-0.036 -1.043,-0.106 -0.199,0.195 -0.299,0.389 -0.299,0.574 0,0.355 0.318,0.533 0.957,0.533 h 1.834 c 1.01,0 1.807,0.24 2.389,0.723 0.584,0.484 0.877,1.172 0.877,2.068 z m -2.965,-7.61 c 0,-1.394 -0.583,-2.092 -1.748,-2.092 -0.553,0 -0.959,0.122 -1.214,0.364 -0.343,0.327 -0.513,0.903 -0.513,1.728 0,0.851 0.17,1.44 0.513,1.769 0.255,0.256 0.661,0.385 1.214,0.385 1.165,0 1.748,-0.719 1.748,-2.154 z"
   id="path3157"
   inkscape:connector-curvature="0"
   style="fill:#ffffff" />
			<path
   d="m 246.607,32.15 c 0.071,0.329 -0.071,0.49 -0.428,0.49 h -1.107 c -0.297,0 -0.475,-0.161 -0.533,-0.49 l -0.129,-0.788 c -0.609,0.937 -1.574,1.407 -2.898,1.407 -0.881,0 -1.564,-0.277 -2.045,-0.832 -0.484,-0.554 -0.727,-1.327 -0.727,-2.323 0,-2.047 1.108,-3.147 3.327,-3.306 l 2.132,-0.148 c 0,-0.299 -0.014,-0.455 -0.044,-0.47 -0.028,-0.583 -0.153,-0.993 -0.382,-1.236 -0.228,-0.241 -0.657,-0.362 -1.293,-0.362 -0.552,0 -1.238,0.121 -2.061,0.362 -0.338,0.1 -0.545,-0.008 -0.615,-0.319 l -0.211,-0.94 c -0.072,-0.299 0.035,-0.489 0.319,-0.575 0.968,-0.284 1.863,-0.426 2.687,-0.426 1.579,0 2.651,0.447 3.22,1.343 0.366,0.583 0.554,1.479 0.554,2.687 v 3.584 c 0,0.779 0.036,1.348 0.105,1.704 l 0.129,0.638 z m -2.408,-2.962 v -1.492 l -1.215,0.044 c -1.352,0.041 -2.027,0.667 -2.027,1.875 0,0.909 0.397,1.364 1.194,1.364 0.568,0 1.06,-0.206 1.472,-0.617 0.384,-0.372 0.576,-0.761 0.576,-1.174 z"
   id="path3159"
   inkscape:connector-curvature="0"
   style="fill:#ffffff" />
			<path
   d="m 256.712,32.15 c 0,0.329 -0.172,0.49 -0.517,0.49 h -1.205 c -0.328,0 -0.496,-0.161 -0.496,-0.49 v -6.843 c 0,-0.837 -0.364,-1.258 -1.093,-1.258 -0.575,0 -1.06,0.227 -1.451,0.683 -0.394,0.454 -0.59,1.023 -0.59,1.706 v 5.713 c 0,0.329 -0.165,0.49 -0.495,0.49 h -1.205 c -0.343,0 -0.517,-0.161 -0.517,-0.49 v -9.338 c 0,-0.325 0.17,-0.489 0.513,-0.489 h 0.83 c 0.299,0 0.476,0.136 0.533,0.405 l 0.191,0.875 c 0.84,-0.939 1.799,-1.408 2.879,-1.408 0.798,0 1.433,0.245 1.908,0.737 0.477,0.489 0.714,1.132 0.714,1.928 v 7.289 z"
   id="path3161"
   inkscape:connector-curvature="0"
   style="fill:#ffffff" />
			<path
   d="m 266.883,32.15 c 0,0.329 -0.17,0.49 -0.513,0.49 h -0.745 c -0.356,0 -0.568,-0.161 -0.641,-0.49 l -0.17,-0.852 c -0.525,0.98 -1.344,1.471 -2.45,1.471 -2.29,0 -3.435,-1.775 -3.435,-5.329 0,-1.906 0.385,-3.305 1.151,-4.201 0.599,-0.697 1.35,-1.045 2.26,-1.045 1.022,0 1.813,0.435 2.366,1.3 v -5.479 c 0,-0.327 0.164,-0.49 0.49,-0.49 h 1.173 c 0.343,0 0.513,0.163 0.513,0.49 V 32.15 z m -2.111,-4.627 c 0,-2.315 -0.583,-3.474 -1.748,-3.474 -0.583,0 -1.018,0.242 -1.302,0.726 -0.313,0.539 -0.467,1.45 -0.467,2.729 0,1.221 0.142,2.086 0.424,2.591 0.286,0.502 0.734,0.757 1.345,0.757 1.165,0 1.748,-1.11 1.748,-3.329 z"
   id="path3163"
   inkscape:connector-curvature="0"
   style="fill:#ffffff" />
			<path
   d="m 282.105,19.829 c 0,0.325 -0.164,0.49 -0.49,0.49 h -3.027 v 11.812 c 0,0.342 -0.171,0.51 -0.514,0.51 h -1.235 c -0.341,0 -0.511,-0.168 -0.511,-0.51 V 20.319 h -3.029 c -0.354,0 -0.531,-0.165 -0.531,-0.49 v -1.045 c 0,-0.341 0.177,-0.511 0.531,-0.511 h 8.316 c 0.326,0 0.49,0.17 0.49,0.511 v 1.045 z"
   id="path3165"
   inkscape:connector-curvature="0"
   style="fill:#ffffff" />
			<path
   d="m 290.803,27.523 c 0,0.342 -0.164,0.513 -0.49,0.513 h -5.16 c 0.045,0.954 0.236,1.641 0.576,2.069 0.385,0.499 1.016,0.746 1.898,0.746 0.541,0 1.215,-0.129 2.025,-0.385 0.057,-0.014 0.114,-0.021 0.171,-0.021 0.183,0 0.319,0.113 0.404,0.341 l 0.299,0.854 c 0.099,0.269 0,0.469 -0.299,0.598 -0.81,0.354 -1.755,0.531 -2.837,0.531 -1.447,0 -2.564,-0.451 -3.346,-1.354 -0.781,-0.901 -1.172,-2.228 -1.172,-3.975 0,-1.58 0.362,-2.847 1.086,-3.807 0.726,-0.959 1.7,-1.439 2.923,-1.439 2.613,0 3.922,1.778 3.922,5.329 z m -2.216,-1.043 c -0.058,-1.706 -0.613,-2.56 -1.665,-2.56 -1.021,0 -1.614,0.854 -1.77,2.56 h 3.435 z"
   id="path3167"
   inkscape:connector-curvature="0"
   style="fill:#ffffff" />
			<path
   d="m 300.206,32.15 c 0.068,0.329 -0.073,0.49 -0.428,0.49 h -1.108 c -0.299,0 -0.477,-0.161 -0.533,-0.49 l -0.128,-0.788 c -0.61,0.937 -1.577,1.407 -2.899,1.407 -0.883,0 -1.563,-0.277 -2.045,-0.832 -0.486,-0.554 -0.726,-1.327 -0.726,-2.323 0,-2.047 1.105,-3.147 3.323,-3.306 l 2.134,-0.148 c 0,-0.299 -0.015,-0.455 -0.045,-0.47 -0.026,-0.583 -0.153,-0.993 -0.381,-1.236 -0.226,-0.241 -0.658,-0.362 -1.294,-0.362 -0.551,0 -1.237,0.121 -2.059,0.362 -0.34,0.1 -0.545,-0.008 -0.615,-0.319 l -0.213,-0.94 c -0.07,-0.299 0.038,-0.489 0.322,-0.575 0.965,-0.284 1.859,-0.426 2.686,-0.426 1.577,0 2.65,0.447 3.219,1.343 0.369,0.583 0.553,1.479 0.553,2.687 v 3.584 c 0,0.779 0.037,1.348 0.107,1.704 l 0.13,0.638 z m -2.41,-2.962 v -1.492 l -1.216,0.044 c -1.352,0.041 -2.025,0.667 -2.025,1.875 0,0.909 0.396,1.364 1.195,1.364 0.567,0 1.059,-0.206 1.471,-0.617 0.382,-0.372 0.575,-0.761 0.575,-1.174 z"
   id="path3169"
   inkscape:connector-curvature="0"
   style="fill:#ffffff" />
			<path
   d="m 308.796,31.874 c 0.057,0.3 -0.056,0.498 -0.342,0.599 -0.583,0.196 -1.278,0.297 -2.089,0.297 -1.352,0 -2.402,-0.447 -3.155,-1.344 -0.796,-0.938 -1.192,-2.286 -1.192,-4.05 0,-1.507 0.398,-2.747 1.204,-3.719 0.804,-0.975 1.878,-1.462 3.229,-1.462 0.44,0 0.895,0.065 1.363,0.192 0.683,0.172 0.969,0.426 0.854,0.768 l -0.299,0.895 c -0.071,0.227 -0.198,0.343 -0.386,0.343 -0.142,0 -0.371,-0.052 -0.69,-0.149 -0.32,-0.103 -0.581,-0.15 -0.779,-0.15 -0.683,0 -1.22,0.284 -1.609,0.856 -0.392,0.568 -0.587,1.383 -0.587,2.436 0,2.282 0.773,3.424 2.325,3.424 0.452,0 0.923,-0.072 1.405,-0.213 0.329,-0.086 0.52,0.028 0.577,0.34 l 0.171,0.937 z"
   id="path3171"
   inkscape:connector-curvature="0"
   style="fill:#ffffff" />
			<path
   d="m 318.369,32.15 c 0,0.329 -0.173,0.49 -0.512,0.49 h -1.172 c -0.329,0 -0.492,-0.161 -0.492,-0.49 v -6.843 c 0,-0.837 -0.384,-1.258 -1.15,-1.258 -0.584,0 -1.074,0.227 -1.473,0.683 -0.398,0.454 -0.596,1.023 -0.596,1.706 v 5.713 c 0,0.329 -0.173,0.49 -0.513,0.49 h -1.151 c -0.338,0 -0.512,-0.161 -0.512,-0.49 V 18.015 c 0,-0.327 0.174,-0.49 0.512,-0.49 h 1.151 c 0.34,0 0.513,0.163 0.513,0.49 v 5.479 c 0.781,-0.866 1.707,-1.3 2.772,-1.3 0.796,0 1.431,0.245 1.908,0.737 0.474,0.489 0.714,1.132 0.714,1.928 v 7.291 z"
   id="path3173"
   inkscape:connector-curvature="0"
   style="fill:#ffffff" />
			<path
   d="m 323.849,18.825 c 0,0.398 -0.135,0.736 -0.405,1.013 -0.27,0.277 -0.604,0.417 -1.002,0.417 -0.396,0 -0.729,-0.139 -0.991,-0.417 -0.262,-0.278 -0.394,-0.615 -0.394,-1.013 0,-0.397 0.131,-0.735 0.394,-1.01 0.263,-0.278 0.595,-0.417 0.991,-0.417 0.398,0 0.732,0.139 1.002,0.417 0.27,0.275 0.405,0.613 0.405,1.01 z m -0.256,13.325 c 0,0.329 -0.172,0.49 -0.516,0.49 h -1.187 c -0.344,0 -0.516,-0.161 -0.516,-0.49 v -9.338 c 0,-0.325 0.172,-0.489 0.516,-0.489 h 1.187 c 0.344,0 0.516,0.164 0.516,0.489 v 9.338 z"
   id="path3175"
   inkscape:connector-curvature="0"
   style="fill:#ffffff" />
			<path
   d="m 334.145,32.15 c 0,0.329 -0.17,0.49 -0.516,0.49 h -1.207 c -0.329,0 -0.494,-0.161 -0.494,-0.49 v -6.843 c 0,-0.837 -0.363,-1.258 -1.093,-1.258 -0.576,0 -1.061,0.227 -1.452,0.683 -0.393,0.454 -0.588,1.023 -0.588,1.706 v 5.713 c 0,0.329 -0.168,0.49 -0.495,0.49 h -1.207 c -0.343,0 -0.517,-0.161 -0.517,-0.49 v -9.338 c 0,-0.325 0.172,-0.489 0.511,-0.489 h 0.833 c 0.299,0 0.476,0.136 0.533,0.405 l 0.193,0.875 c 0.838,-0.939 1.797,-1.408 2.877,-1.408 0.795,0 1.432,0.245 1.905,0.737 0.479,0.489 0.716,1.132 0.716,1.928 v 7.289 z"
   id="path3177"
   inkscape:connector-curvature="0"
   style="fill:#ffffff" />
			<path
   d="m 344.85,33.558 c 0,1.165 -0.478,2.054 -1.43,2.665 -0.781,0.498 -1.748,0.747 -2.9,0.747 -1.224,0 -2.203,-0.212 -2.941,-0.64 -0.91,-0.527 -1.371,-1.33 -1.385,-2.41 0,-0.143 0.049,-0.262 0.148,-0.362 0.1,-0.099 0.22,-0.149 0.363,-0.149 l 1.193,0.044 c 0.27,0.014 0.432,0.17 0.488,0.468 0.144,0.84 0.875,1.259 2.197,1.259 0.667,0 1.204,-0.127 1.609,-0.384 0.405,-0.256 0.609,-0.598 0.609,-1.023 0,-0.825 -0.508,-1.236 -1.516,-1.236 h -2.109 c -1.607,0 -2.411,-0.582 -2.411,-1.749 0,-0.569 0.306,-1.143 0.919,-1.726 -0.996,-0.699 -1.492,-1.72 -1.492,-3.071 0,-1.18 0.354,-2.103 1.065,-2.771 0.711,-0.668 1.663,-1.003 2.857,-1.003 0.155,0 0.376,0.02 0.661,0.053 0.281,0.037 0.496,0.055 0.637,0.055 h 2.475 c 0.354,0 0.535,0.17 0.535,0.512 v 0.596 c 0,0.313 -0.138,0.482 -0.408,0.51 l -0.662,0.086 c 0.472,0.695 0.706,1.35 0.706,1.961 0,1.167 -0.352,2.085 -1.056,2.761 -0.703,0.678 -1.66,1.015 -2.868,1.015 -0.426,0 -0.774,-0.036 -1.044,-0.106 -0.2,0.195 -0.298,0.389 -0.298,0.574 0,0.355 0.319,0.533 0.958,0.533 h 1.834 c 1.01,0 1.807,0.24 2.389,0.723 0.584,0.484 0.877,1.172 0.877,2.068 z m -2.965,-7.61 c 0,-1.394 -0.583,-2.092 -1.749,-2.092 -0.556,0 -0.958,0.122 -1.214,0.364 -0.341,0.327 -0.511,0.903 -0.511,1.728 0,0.851 0.17,1.44 0.511,1.769 0.256,0.256 0.658,0.385 1.214,0.385 1.166,0 1.749,-0.719 1.749,-2.154 z"
   id="path3179"
   inkscape:connector-curvature="0"
   style="fill:#ffffff" />
			<path
   d="m 360.667,31.98 c 0.043,0.129 0.064,0.234 0.064,0.318 0,0.23 -0.144,0.342 -0.429,0.342 h -1.555 c -0.326,0 -0.539,-0.148 -0.639,-0.446 -0.227,-0.726 -0.455,-1.458 -0.683,-2.196 -0.269,-0.811 -0.526,-1.447 -0.768,-1.921 -0.627,-1.192 -1.428,-1.789 -2.409,-1.789 h -0.874 v 5.862 c 0,0.329 -0.171,0.49 -0.513,0.49 h -1.235 c -0.343,0 -0.512,-0.161 -0.512,-0.49 V 18.784 c 0,-0.341 0.169,-0.511 0.512,-0.511 h 3.754 c 1.604,0 2.776,0.426 3.516,1.278 0.556,0.641 0.833,1.427 0.833,2.366 0,0.896 -0.242,1.651 -0.727,2.262 -0.523,0.667 -1.271,1.079 -2.238,1.234 -0.043,0.017 -0.1,0.023 -0.172,0.023 0.967,0.199 1.729,0.883 2.282,2.046 0.415,0.867 1.011,2.367 1.793,4.498 z m -3.24,-9.773 c 0,-0.559 -0.17,-1.017 -0.512,-1.374 -0.384,-0.399 -0.919,-0.602 -1.599,-0.602 h -1.94 v 4.223 h 1.705 c 0.726,0 1.296,-0.203 1.717,-0.612 0.418,-0.405 0.629,-0.952 0.629,-1.635 z"
   id="path3181"
   inkscape:connector-curvature="0"
   style="fill:#ffffff" />
			<path
   d="m 369.878,27.523 c 0,0.342 -0.163,0.513 -0.491,0.513 h -5.159 c 0.043,0.954 0.234,1.641 0.577,2.069 0.383,0.499 1.016,0.746 1.896,0.746 0.539,0 1.215,-0.129 2.023,-0.385 0.059,-0.014 0.114,-0.021 0.172,-0.021 0.186,0 0.322,0.113 0.404,0.341 l 0.301,0.854 c 0.098,0.269 0,0.469 -0.301,0.598 -0.808,0.354 -1.754,0.531 -2.834,0.531 -1.45,0 -2.564,-0.451 -3.348,-1.354 -0.78,-0.901 -1.176,-2.228 -1.176,-3.975 0,-1.58 0.364,-2.847 1.09,-3.807 0.725,-0.959 1.7,-1.439 2.922,-1.439 2.615,0 3.924,1.778 3.924,5.329 z M 367.66,26.48 c -0.058,-1.706 -0.612,-2.56 -1.664,-2.56 -1.021,0 -1.611,0.854 -1.769,2.56 h 3.433 z"
   id="path3183"
   inkscape:connector-curvature="0"
   style="fill:#ffffff" />
			<path
   d="m 378.152,29.699 c 0,0.867 -0.286,1.578 -0.854,2.133 -0.627,0.625 -1.492,0.938 -2.602,0.938 -1.11,0 -2.112,-0.207 -3.007,-0.619 -0.285,-0.125 -0.377,-0.34 -0.275,-0.638 l 0.275,-0.896 c 0.086,-0.255 0.227,-0.384 0.427,-0.384 0.071,0 0.136,0.017 0.194,0.043 0.935,0.396 1.717,0.598 2.342,0.598 0.854,0 1.28,-0.363 1.28,-1.089 0,-0.469 -0.364,-0.923 -1.089,-1.364 -1.348,-0.809 -2.031,-1.221 -2.045,-1.238 -0.725,-0.581 -1.088,-1.276 -1.088,-2.087 0,-0.868 0.292,-1.566 0.873,-2.1 0.583,-0.534 1.395,-0.8 2.432,-0.8 0.896,0 1.691,0.15 2.386,0.447 0.315,0.129 0.415,0.343 0.301,0.642 l -0.276,0.724 c -0.113,0.313 -0.306,0.419 -0.571,0.32 -0.722,-0.27 -1.302,-0.406 -1.737,-0.406 -0.792,0 -1.189,0.342 -1.189,1.024 0,0.383 0.367,0.796 1.104,1.235 1.131,0.669 1.803,1.097 2.016,1.279 0.734,0.627 1.103,1.373 1.103,2.238 z"
   id="path3185"
   inkscape:connector-curvature="0"
   style="fill:#ffffff" />
			<path
   d="m 387.976,27.46 c 0,1.649 -0.365,2.947 -1.097,3.892 -0.734,0.944 -1.758,1.418 -3.08,1.418 -1.324,0 -2.357,-0.471 -3.104,-1.407 -0.746,-0.938 -1.117,-2.239 -1.117,-3.902 0,-1.634 0.371,-2.919 1.117,-3.857 0.746,-0.939 1.779,-1.408 3.104,-1.408 1.307,0 2.33,0.469 3.068,1.408 0.738,0.937 1.109,2.222 1.109,3.856 z m -2.259,0 c 0,-2.288 -0.658,-3.432 -1.973,-3.432 -1.299,0 -1.949,1.144 -1.949,3.432 0,2.29 0.65,3.433 1.949,3.433 1.315,0 1.973,-1.143 1.973,-3.433 z"
   id="path3187"
   inkscape:connector-curvature="0"
   style="fill:#ffffff" />
			<path
   d="m 397.74,32.15 c 0,0.329 -0.162,0.49 -0.489,0.49 h -0.853 c -0.271,0 -0.441,-0.142 -0.513,-0.426 l -0.213,-0.896 c -0.91,0.967 -1.92,1.451 -3.028,1.451 -0.796,0 -1.431,-0.237 -1.905,-0.713 -0.478,-0.477 -0.716,-1.134 -0.716,-1.975 v -7.27 c 0,-0.325 0.17,-0.489 0.513,-0.489 h 1.193 c 0.342,0 0.512,0.164 0.512,0.489 v 6.887 c 0,0.811 0.38,1.217 1.144,1.217 0.634,0 1.149,-0.248 1.545,-0.736 0.396,-0.492 0.593,-1.17 0.593,-2.036 v -5.332 c 0,-0.325 0.173,-0.489 0.518,-0.489 h 1.206 c 0.33,0 0.494,0.164 0.494,0.489 v 9.339 z"
   id="path3189"
   inkscape:connector-curvature="0"
   style="fill:#ffffff" />
			<path
   d="m 406.332,23.068 -0.316,1.195 c -0.086,0.325 -0.297,0.46 -0.635,0.404 -0.129,-0.015 -0.337,-0.08 -0.627,-0.192 -0.291,-0.113 -0.512,-0.171 -0.668,-0.171 -0.383,0 -0.692,0.221 -0.932,0.661 -0.283,0.499 -0.426,1.224 -0.426,2.177 v 5.008 c 0,0.329 -0.174,0.49 -0.515,0.49 h -1.187 c -0.342,0 -0.514,-0.161 -0.514,-0.49 v -9.338 c 0,-0.325 0.17,-0.489 0.509,-0.489 h 0.79 c 0.312,0 0.506,0.142 0.576,0.425 l 0.234,0.918 c 0.624,-0.98 1.421,-1.472 2.388,-1.472 1.04,0 1.479,0.293 1.323,0.874 z"
   id="path3191"
   inkscape:connector-curvature="0"
   style="fill:#ffffff" />
			<path
   d="m 413.752,31.874 c 0.057,0.3 -0.056,0.498 -0.342,0.599 -0.582,0.196 -1.279,0.297 -2.088,0.297 -1.353,0 -2.404,-0.447 -3.156,-1.344 -0.795,-0.938 -1.193,-2.286 -1.193,-4.05 0,-1.507 0.4,-2.747 1.203,-3.719 0.803,-0.975 1.881,-1.462 3.23,-1.462 0.442,0 0.895,0.065 1.365,0.192 0.682,0.172 0.965,0.426 0.854,0.768 l -0.299,0.895 c -0.072,0.227 -0.2,0.343 -0.385,0.343 -0.143,0 -0.374,-0.052 -0.692,-0.149 -0.319,-0.103 -0.58,-0.15 -0.778,-0.15 -0.682,0 -1.221,0.284 -1.609,0.856 -0.392,0.568 -0.586,1.383 -0.586,2.436 0,2.282 0.772,3.424 2.323,3.424 0.452,0 0.925,-0.072 1.407,-0.213 0.328,-0.086 0.519,0.028 0.577,0.34 l 0.169,0.937 z"
   id="path3193"
   inkscape:connector-curvature="0"
   style="fill:#ffffff" />
			<path
   d="m 423.027,27.523 c 0,0.342 -0.167,0.513 -0.491,0.513 h -5.161 c 0.045,0.954 0.235,1.641 0.576,2.069 0.384,0.499 1.018,0.746 1.898,0.746 0.54,0 1.215,-0.129 2.025,-0.385 0.057,-0.014 0.111,-0.021 0.172,-0.021 0.182,0 0.318,0.113 0.404,0.341 l 0.297,0.854 c 0.102,0.269 0,0.469 -0.297,0.598 -0.812,0.354 -1.757,0.531 -2.837,0.531 -1.45,0 -2.563,-0.451 -3.348,-1.354 -0.781,-0.901 -1.173,-2.228 -1.173,-3.975 0,-1.58 0.361,-2.847 1.088,-3.807 0.727,-0.96 1.699,-1.439 2.922,-1.439 2.615,0 3.925,1.778 3.925,5.329 z m -2.218,-1.043 c -0.056,-1.706 -0.612,-2.56 -1.664,-2.56 -1.022,0 -1.612,0.854 -1.77,2.56 h 3.434 z"
   id="path3195"
   inkscape:connector-curvature="0"
   style="fill:#ffffff" />
			<path
   d="m 431.299,29.699 c 0,0.867 -0.285,1.578 -0.854,2.133 -0.627,0.625 -1.492,0.938 -2.6,0.938 -1.109,0 -2.112,-0.207 -3.007,-0.619 -0.285,-0.125 -0.378,-0.34 -0.276,-0.638 l 0.276,-0.896 c 0.085,-0.255 0.228,-0.384 0.425,-0.384 0.074,0 0.137,0.017 0.193,0.043 0.938,0.396 1.719,0.598 2.345,0.598 0.853,0 1.281,-0.363 1.281,-1.089 0,-0.469 -0.364,-0.923 -1.089,-1.364 -1.351,-0.809 -2.035,-1.221 -2.047,-1.238 -0.727,-0.581 -1.086,-1.276 -1.086,-2.087 0,-0.868 0.289,-1.566 0.872,-2.1 0.582,-0.534 1.394,-0.8 2.431,-0.8 0.895,0 1.691,0.15 2.387,0.447 0.314,0.129 0.413,0.343 0.3,0.642 l -0.276,0.724 c -0.113,0.313 -0.305,0.419 -0.57,0.32 -0.723,-0.27 -1.303,-0.406 -1.739,-0.406 -0.791,0 -1.188,0.342 -1.188,1.024 0,0.383 0.367,0.796 1.102,1.235 1.132,0.669 1.805,1.097 2.017,1.279 0.736,0.627 1.103,1.373 1.103,2.238 z"
   id="path3197"
   inkscape:connector-curvature="0"
   style="fill:#ffffff" />
		</g>
	</g>
</g>


<g
   id="g3267"
   transform="translate(-15.000003,-45.558)"><g
     id="g3191">
	<path
   id="path3193-4"
   d="m 25.444,46.19 -0.747,1.626 h -3.903 l -0.852,1.741 c 1.69,0.249 3.03,0.877 4.019,1.885 0.848,0.868 1.272,1.888 1.272,3.062 0,0.683 -0.139,1.314 -0.417,1.894 -0.277,0.581 -0.626,1.075 -1.047,1.483 -0.421,0.409 -0.89,0.737 -1.406,0.986 -0.734,0.351 -1.486,0.526 -2.258,0.526 -0.778,0 -1.344,-0.132 -1.698,-0.397 -0.354,-0.265 -0.531,-0.556 -0.531,-0.875 0,-0.178 0.073,-0.336 0.22,-0.474 0.146,-0.137 0.332,-0.206 0.555,-0.206 0.166,0 0.311,0.026 0.436,0.077 0.124,0.051 0.336,0.182 0.636,0.392 0.478,0.332 0.963,0.498 1.454,0.498 0.746,0 1.401,-0.282 1.966,-0.847 0.565,-0.565 0.847,-1.251 0.847,-2.062 0,-0.785 -0.252,-1.517 -0.755,-2.196 -0.504,-0.679 -1.199,-1.204 -2.086,-1.574 -0.695,-0.287 -1.642,-0.453 -2.841,-0.498 l 2.487,-5.042 h 4.649 z"
   inkscape:connector-curvature="0" />
	<path
   id="path3195-0"
   d="m 32.82,63 v 0.354 c -0.963,-0.485 -1.767,-1.052 -2.411,-1.703 -0.918,-0.925 -1.626,-2.015 -2.124,-3.272 -0.498,-1.256 -0.746,-2.561 -0.746,-3.913 0,-1.978 0.488,-3.781 1.464,-5.411 0.976,-1.629 2.248,-2.795 3.817,-3.497 v 0.402 c -0.785,0.434 -1.429,1.027 -1.933,1.779 -0.504,0.753 -0.88,1.707 -1.129,2.861 -0.249,1.154 -0.374,2.36 -0.374,3.616 0,1.365 0.105,2.605 0.316,3.722 0.166,0.88 0.367,1.586 0.603,2.119 0.236,0.533 0.553,1.044 0.952,1.536 0.399,0.491 0.921,0.96 1.565,1.407 z"
   inkscape:connector-curvature="0" />
	<path
   id="path3197-9"
   d="m 42.244,56.666 -0.909,2.497 h -7.654 v -0.354 c 2.251,-2.054 3.836,-3.731 4.755,-5.032 0.919,-1.301 1.378,-2.491 1.378,-3.569 0,-0.823 -0.252,-1.499 -0.756,-2.028 -0.504,-0.53 -1.107,-0.794 -1.808,-0.794 -0.638,0 -1.21,0.187 -1.718,0.56 -0.507,0.374 -0.881,0.92 -1.124,1.641 h -0.354 c 0.16,-1.18 0.569,-2.086 1.229,-2.717 0.66,-0.631 1.484,-0.947 2.473,-0.947 1.052,0 1.931,0.338 2.636,1.014 0.705,0.676 1.057,1.474 1.057,2.392 0,0.657 -0.153,1.314 -0.459,1.971 -0.472,1.033 -1.238,2.127 -2.296,3.282 -1.588,1.735 -2.58,2.781 -2.975,3.138 h 3.387 c 0.688,0 1.172,-0.025 1.449,-0.076 0.277,-0.051 0.528,-0.155 0.751,-0.311 0.223,-0.156 0.418,-0.378 0.583,-0.665 h 0.355 z"
   inkscape:connector-curvature="0" />
	<path
   id="path3199"
   d="m 48.635,57.9 c -0.899,0.695 -1.464,1.097 -1.693,1.205 -0.344,0.16 -0.711,0.239 -1.1,0.239 -0.606,0 -1.105,-0.207 -1.498,-0.622 -0.392,-0.415 -0.588,-0.96 -0.588,-1.636 0,-0.427 0.096,-0.797 0.287,-1.11 0.262,-0.434 0.716,-0.842 1.363,-1.225 0.647,-0.382 1.724,-0.848 3.229,-1.396 V 53.01 c 0,-0.874 -0.139,-1.473 -0.416,-1.798 -0.277,-0.325 -0.681,-0.488 -1.21,-0.488 -0.402,0 -0.721,0.109 -0.957,0.326 -0.243,0.217 -0.364,0.465 -0.364,0.746 l 0.019,0.555 c 0,0.293 -0.075,0.52 -0.225,0.679 -0.15,0.16 -0.346,0.239 -0.588,0.239 -0.236,0 -0.429,-0.083 -0.579,-0.249 -0.15,-0.166 -0.225,-0.392 -0.225,-0.679 0,-0.549 0.281,-1.053 0.842,-1.512 0.562,-0.459 1.349,-0.689 2.363,-0.689 0.778,0 1.416,0.131 1.914,0.393 0.376,0.198 0.653,0.507 0.832,0.928 0.115,0.274 0.172,0.836 0.172,1.684 v 2.975 c 0,0.836 0.016,1.348 0.048,1.536 0.032,0.188 0.084,0.314 0.158,0.378 0.073,0.064 0.158,0.096 0.254,0.096 0.102,0 0.191,-0.022 0.268,-0.067 0.134,-0.083 0.392,-0.316 0.775,-0.699 V 57.9 c -0.714,0.957 -1.396,1.435 -2.047,1.435 -0.313,0 -0.561,-0.109 -0.746,-0.325 -0.186,-0.217 -0.282,-0.587 -0.288,-1.11 z m 0,-0.622 v -3.339 c -0.963,0.383 -1.585,0.654 -1.866,0.813 -0.504,0.281 -0.864,0.574 -1.081,0.88 -0.217,0.306 -0.325,0.641 -0.325,1.004 0,0.459 0.137,0.84 0.412,1.144 0.274,0.303 0.59,0.454 0.947,0.454 0.484,10e-4 1.122,-0.318 1.913,-0.956 z"
   inkscape:connector-curvature="0" />
	<path
   id="path3201"
   d="m 57.446,54.044 h 4.946 v 1.445 h -4.946 v -1.445 z"
   inkscape:connector-curvature="0" />
	<path
   id="path3203"
   d="m 69.07,48.658 c 0.37,-0.874 0.837,-1.548 1.401,-2.023 0.564,-0.475 1.268,-0.713 2.11,-0.713 1.04,0 1.837,0.338 2.392,1.014 0.421,0.504 0.631,1.043 0.631,1.617 0,0.944 -0.593,1.92 -1.779,2.927 0.797,0.313 1.4,0.759 1.808,1.339 0.408,0.581 0.612,1.263 0.612,2.047 0,1.123 -0.357,2.095 -1.072,2.918 -0.931,1.071 -2.28,1.607 -4.047,1.607 -0.874,0 -1.468,-0.108 -1.784,-0.325 -0.315,-0.217 -0.474,-0.45 -0.474,-0.698 0,-0.185 0.075,-0.348 0.225,-0.488 0.149,-0.14 0.33,-0.21 0.541,-0.21 0.159,0 0.322,0.026 0.488,0.077 0.108,0.032 0.354,0.148 0.737,0.349 0.382,0.201 0.647,0.321 0.794,0.359 0.236,0.07 0.488,0.105 0.756,0.105 0.65,0 1.216,-0.252 1.698,-0.756 0.481,-0.504 0.722,-1.101 0.722,-1.789 0,-0.504 -0.112,-0.995 -0.335,-1.474 -0.166,-0.357 -0.348,-0.628 -0.545,-0.813 -0.274,-0.255 -0.65,-0.486 -1.129,-0.694 -0.478,-0.207 -0.966,-0.311 -1.463,-0.311 h -0.306 v -0.287 c 0.503,-0.064 1.009,-0.246 1.516,-0.545 0.507,-0.3 0.875,-0.66 1.105,-1.081 0.23,-0.421 0.345,-0.883 0.345,-1.387 0,-0.657 -0.206,-1.188 -0.617,-1.593 -0.412,-0.405 -0.923,-0.607 -1.536,-0.607 -0.989,0 -1.814,0.53 -2.478,1.588 L 69.07,48.658 z"
   inkscape:connector-curvature="0" />
	<path
   id="path3205"
   d="m 80.886,51.911 c 0.848,-1.18 1.764,-1.77 2.746,-1.77 0.899,0 1.684,0.384 2.354,1.153 0.67,0.769 1.005,1.819 1.005,3.152 0,1.557 -0.517,2.81 -1.55,3.76 -0.887,0.816 -1.875,1.225 -2.966,1.225 -0.511,0 -1.029,-0.093 -1.555,-0.278 -0.526,-0.185 -1.064,-0.462 -1.612,-0.832 v -9.08 c 0,-0.995 -0.024,-1.607 -0.072,-1.837 -0.048,-0.229 -0.123,-0.386 -0.225,-0.469 -0.102,-0.083 -0.23,-0.124 -0.383,-0.124 -0.179,0 -0.402,0.051 -0.67,0.153 l -0.134,-0.335 2.631,-1.071 h 0.431 v 6.353 z m 0,0.612 v 5.243 c 0.325,0.319 0.662,0.56 1.009,0.723 0.347,0.163 0.703,0.244 1.067,0.244 0.58,0 1.121,-0.319 1.622,-0.957 0.5,-0.638 0.751,-1.566 0.751,-2.784 0,-1.123 -0.25,-1.985 -0.751,-2.588 -0.501,-0.603 -1.07,-0.904 -1.708,-0.904 -0.338,0 -0.676,0.086 -1.014,0.258 -0.256,0.128 -0.581,0.383 -0.976,0.765 z"
   inkscape:connector-curvature="0" />
	<path
   id="path3207"
   d="m 88.109,45.96 v -0.402 c 0.97,0.479 1.776,1.043 2.42,1.693 0.912,0.931 1.617,2.023 2.115,3.277 0.498,1.254 0.746,2.559 0.746,3.917 0,1.978 -0.486,3.781 -1.459,5.411 -0.973,1.629 -2.247,2.795 -3.822,3.497 V 63 c 0.785,-0.44 1.431,-1.035 1.938,-1.784 0.507,-0.749 0.883,-1.703 1.129,-2.861 0.246,-1.157 0.368,-2.364 0.368,-3.621 0,-1.358 -0.105,-2.599 -0.315,-3.722 -0.16,-0.88 -0.359,-1.585 -0.598,-2.114 -0.239,-0.529 -0.557,-1.04 -0.952,-1.531 -0.396,-0.492 -0.919,-0.96 -1.57,-1.407 z"
   inkscape:connector-curvature="0" />
	<path
   id="path3209"
   d="M 104.21,57.814 V 53.04 h -4.764 v -0.785 h 4.764 V 47.5 h 0.766 v 4.755 h 4.783 v 0.785 h -4.783 v 4.774 h -0.766 z"
   inkscape:connector-curvature="0" />
	<path
   id="path3211"
   d="m 123.546,46.19 -0.746,1.626 h -3.903 l -0.852,1.741 c 1.69,0.249 3.029,0.877 4.019,1.885 0.848,0.868 1.272,1.888 1.272,3.062 0,0.683 -0.139,1.314 -0.416,1.894 -0.277,0.581 -0.627,1.075 -1.048,1.483 -0.421,0.409 -0.89,0.737 -1.406,0.986 -0.733,0.351 -1.486,0.526 -2.258,0.526 -0.778,0 -1.345,-0.132 -1.698,-0.397 -0.354,-0.265 -0.531,-0.556 -0.531,-0.875 0,-0.178 0.073,-0.336 0.22,-0.474 0.147,-0.137 0.332,-0.206 0.556,-0.206 0.165,0 0.311,0.026 0.435,0.077 0.125,0.051 0.337,0.182 0.637,0.392 0.479,0.332 0.963,0.498 1.454,0.498 0.746,0 1.401,-0.282 1.966,-0.847 0.565,-0.565 0.847,-1.251 0.847,-2.062 0,-0.785 -0.252,-1.517 -0.756,-2.196 -0.504,-0.679 -1.199,-1.204 -2.085,-1.574 -0.695,-0.287 -1.643,-0.453 -2.842,-0.498 l 2.487,-5.042 h 4.648 z"
   inkscape:connector-curvature="0" />
	<path
   id="path3213"
   d="m 130.922,63 v 0.354 c -0.963,-0.485 -1.767,-1.052 -2.411,-1.703 -0.919,-0.925 -1.626,-2.015 -2.124,-3.272 -0.497,-1.256 -0.746,-2.561 -0.746,-3.913 0,-1.978 0.488,-3.781 1.464,-5.411 0.976,-1.629 2.248,-2.795 3.817,-3.497 v 0.402 c -0.785,0.434 -1.429,1.027 -1.933,1.779 -0.504,0.753 -0.88,1.707 -1.129,2.861 -0.249,1.154 -0.373,2.36 -0.373,3.616 0,1.365 0.104,2.605 0.315,3.722 0.166,0.88 0.367,1.586 0.603,2.119 0.236,0.533 0.554,1.044 0.952,1.536 0.399,0.491 0.92,0.96 1.565,1.407 z"
   inkscape:connector-curvature="0" />
	<path
   id="path3215"
   d="m 136.94,57.9 c -0.899,0.695 -1.464,1.097 -1.693,1.205 -0.345,0.16 -0.712,0.239 -1.101,0.239 -0.606,0 -1.105,-0.207 -1.497,-0.622 -0.393,-0.415 -0.589,-0.96 -0.589,-1.636 0,-0.427 0.096,-0.797 0.287,-1.11 0.262,-0.434 0.716,-0.842 1.363,-1.225 0.647,-0.382 1.724,-0.848 3.229,-1.396 V 53.01 c 0,-0.874 -0.14,-1.473 -0.417,-1.798 -0.277,-0.325 -0.681,-0.488 -1.21,-0.488 -0.401,0 -0.721,0.109 -0.957,0.326 -0.242,0.217 -0.363,0.465 -0.363,0.746 l 0.02,0.555 c 0,0.293 -0.075,0.52 -0.226,0.679 -0.149,0.16 -0.346,0.239 -0.588,0.239 -0.236,0 -0.429,-0.083 -0.579,-0.249 -0.149,-0.166 -0.225,-0.392 -0.225,-0.679 0,-0.549 0.28,-1.053 0.842,-1.512 0.562,-0.459 1.35,-0.689 2.363,-0.689 0.778,0 1.416,0.131 1.913,0.393 0.377,0.198 0.654,0.507 0.833,0.928 0.114,0.274 0.172,0.836 0.172,1.684 v 2.975 c 0,0.836 0.016,1.348 0.048,1.536 0.032,0.188 0.084,0.314 0.158,0.378 0.073,0.064 0.157,0.096 0.253,0.096 0.103,0 0.191,-0.022 0.269,-0.067 0.134,-0.083 0.392,-0.316 0.774,-0.699 V 57.9 c -0.714,0.957 -1.396,1.435 -2.047,1.435 -0.313,0 -0.562,-0.109 -0.747,-0.325 -0.183,-0.217 -0.279,-0.587 -0.285,-1.11 z m 0,-0.622 v -3.339 c -0.964,0.383 -1.586,0.654 -1.866,0.813 -0.504,0.281 -0.864,0.574 -1.081,0.88 -0.217,0.306 -0.325,0.641 -0.325,1.004 0,0.459 0.137,0.84 0.411,1.144 0.274,0.303 0.59,0.454 0.947,0.454 0.485,10e-4 1.123,-0.318 1.914,-0.956 z"
   inkscape:connector-curvature="0" />
	<path
   id="path3217"
   d="M 150.075,57.814 V 53.04 h -4.765 v -0.785 h 4.765 V 47.5 h 0.766 v 4.755 h 4.783 v 0.785 h -4.783 v 4.774 h -0.766 z"
   inkscape:connector-curvature="0" />
	<path
   id="path3219"
   d="m 169.41,46.19 -0.746,1.626 h -3.903 l -0.852,1.741 c 1.69,0.249 3.029,0.877 4.019,1.885 0.848,0.868 1.272,1.888 1.272,3.062 0,0.683 -0.139,1.314 -0.416,1.894 -0.277,0.581 -0.627,1.075 -1.048,1.483 -0.421,0.409 -0.89,0.737 -1.406,0.986 -0.733,0.351 -1.486,0.526 -2.258,0.526 -0.778,0 -1.345,-0.132 -1.698,-0.397 -0.354,-0.265 -0.531,-0.556 -0.531,-0.875 0,-0.178 0.073,-0.336 0.22,-0.474 0.147,-0.137 0.332,-0.206 0.556,-0.206 0.165,0 0.311,0.026 0.435,0.077 0.125,0.051 0.337,0.182 0.637,0.392 0.479,0.332 0.963,0.498 1.454,0.498 0.746,0 1.401,-0.282 1.966,-0.847 0.565,-0.565 0.847,-1.251 0.847,-2.062 0,-0.785 -0.252,-1.517 -0.756,-2.196 -0.504,-0.679 -1.199,-1.204 -2.085,-1.574 -0.695,-0.287 -1.643,-0.453 -2.842,-0.498 l 2.487,-5.042 h 4.648 z"
   inkscape:connector-curvature="0" />
	<path
   id="path3221"
   d="m 173.716,51.911 c 0.849,-1.18 1.764,-1.77 2.746,-1.77 0.899,0 1.684,0.384 2.354,1.153 0.669,0.769 1.004,1.819 1.004,3.152 0,1.557 -0.517,2.81 -1.55,3.76 -0.887,0.816 -1.875,1.225 -2.966,1.225 -0.51,0 -1.028,-0.093 -1.555,-0.278 -0.526,-0.185 -1.063,-0.462 -1.611,-0.832 v -9.08 c 0,-0.995 -0.024,-1.607 -0.072,-1.837 -0.048,-0.229 -0.123,-0.386 -0.225,-0.469 -0.103,-0.083 -0.229,-0.124 -0.383,-0.124 -0.179,0 -0.402,0.051 -0.67,0.153 l -0.134,-0.335 2.631,-1.071 h 0.431 v 6.353 z m 0,0.612 v 5.243 c 0.325,0.319 0.662,0.56 1.01,0.723 0.347,0.163 0.703,0.244 1.066,0.244 0.58,0 1.121,-0.319 1.621,-0.957 0.501,-0.638 0.752,-1.566 0.752,-2.784 0,-1.123 -0.251,-1.985 -0.752,-2.588 -0.5,-0.603 -1.069,-0.904 -1.707,-0.904 -0.339,0 -0.677,0.086 -1.015,0.258 -0.254,0.128 -0.58,0.383 -0.975,0.765 z"
   inkscape:connector-curvature="0" />
	<path
   id="path3223"
   d="m 180.939,45.96 v -0.402 c 0.969,0.479 1.775,1.043 2.42,1.693 0.912,0.931 1.617,2.023 2.114,3.277 0.498,1.253 0.746,2.559 0.746,3.917 0,1.978 -0.486,3.781 -1.459,5.411 -0.973,1.629 -2.246,2.795 -3.821,3.497 V 63 c 0.784,-0.44 1.43,-1.035 1.938,-1.784 0.507,-0.75 0.883,-1.703 1.129,-2.861 0.245,-1.157 0.368,-2.364 0.368,-3.621 0,-1.358 -0.105,-2.599 -0.316,-3.722 -0.159,-0.88 -0.358,-1.585 -0.598,-2.114 -0.24,-0.529 -0.557,-1.04 -0.952,-1.531 -0.395,-0.491 -0.918,-0.96 -1.569,-1.407 z"
   inkscape:connector-curvature="0" />
</g><g
     id="g3225">
	<path
   id="path3227"
   d="m 17.934,73.363 c 0.37,-0.874 0.837,-1.548 1.401,-2.023 0.564,-0.475 1.268,-0.713 2.11,-0.713 1.04,0 1.837,0.338 2.392,1.014 0.421,0.504 0.631,1.043 0.631,1.617 0,0.944 -0.593,1.92 -1.779,2.928 0.797,0.313 1.4,0.759 1.808,1.34 0.408,0.58 0.612,1.263 0.612,2.047 0,1.123 -0.357,2.096 -1.072,2.918 -0.931,1.072 -2.28,1.607 -4.047,1.607 -0.874,0 -1.468,-0.108 -1.784,-0.325 -0.315,-0.217 -0.474,-0.449 -0.474,-0.698 0,-0.185 0.075,-0.348 0.225,-0.488 0.149,-0.14 0.33,-0.21 0.541,-0.21 0.159,0 0.322,0.025 0.488,0.076 0.108,0.032 0.354,0.148 0.737,0.35 0.382,0.2 0.647,0.32 0.794,0.358 0.236,0.07 0.488,0.105 0.756,0.105 0.65,0 1.216,-0.252 1.698,-0.756 0.481,-0.504 0.722,-1.101 0.722,-1.789 0,-0.504 -0.112,-0.995 -0.335,-1.474 C 23.192,78.89 23.01,78.619 22.813,78.434 22.539,78.179 22.163,77.948 21.684,77.741 21.206,77.534 20.718,77.43 20.221,77.43 h -0.306 v -0.287 c 0.503,-0.063 1.009,-0.246 1.516,-0.546 0.507,-0.299 0.875,-0.66 1.105,-1.081 0.23,-0.421 0.345,-0.883 0.345,-1.387 0,-0.657 -0.206,-1.188 -0.617,-1.593 -0.412,-0.405 -0.923,-0.608 -1.536,-0.608 -0.989,0 -1.814,0.53 -2.478,1.588 l -0.316,-0.153 z"
   inkscape:connector-curvature="0" />
	<path
   id="path3229"
   d="m 32.82,87.705 v 0.354 c -0.963,-0.484 -1.767,-1.053 -2.411,-1.703 -0.918,-0.925 -1.626,-2.016 -2.124,-3.271 -0.498,-1.257 -0.746,-2.562 -0.746,-3.913 0,-1.978 0.488,-3.781 1.464,-5.41 0.976,-1.63 2.248,-2.795 3.817,-3.497 v 0.402 c -0.785,0.434 -1.429,1.027 -1.933,1.78 -0.504,0.752 -0.88,1.706 -1.129,2.86 -0.249,1.154 -0.374,2.359 -0.374,3.616 0,1.365 0.105,2.605 0.316,3.722 0.166,0.88 0.367,1.587 0.603,2.119 0.236,0.532 0.553,1.044 0.952,1.535 0.399,0.49 0.921,0.959 1.565,1.406 z"
   inkscape:connector-curvature="0" />
	<path
   id="path3231"
   d="m 42.378,79.085 v 1.358 h -1.741 v 3.425 h -1.579 v -3.425 h -5.492 v -1.225 l 6.018,-8.592 h 1.053 v 8.458 h 1.741 z m -3.32,0 v -6.439 l -4.554,6.439 h 4.554 z"
   inkscape:connector-curvature="0" />
	<path
   id="path3233"
   d="m 48.635,82.605 c -0.899,0.695 -1.464,1.097 -1.693,1.205 -0.344,0.159 -0.711,0.239 -1.1,0.239 -0.606,0 -1.105,-0.207 -1.498,-0.622 -0.392,-0.414 -0.588,-0.96 -0.588,-1.636 0,-0.427 0.096,-0.797 0.287,-1.109 0.262,-0.434 0.716,-0.842 1.363,-1.225 0.647,-0.383 1.724,-0.849 3.229,-1.397 v -0.344 c 0,-0.874 -0.139,-1.474 -0.416,-1.799 -0.277,-0.325 -0.681,-0.488 -1.21,-0.488 -0.402,0 -0.721,0.108 -0.957,0.325 -0.243,0.217 -0.364,0.466 -0.364,0.746 l 0.019,0.556 c 0,0.293 -0.075,0.52 -0.225,0.679 -0.15,0.16 -0.346,0.239 -0.588,0.239 -0.236,0 -0.429,-0.083 -0.579,-0.249 -0.15,-0.165 -0.225,-0.392 -0.225,-0.679 0,-0.549 0.281,-1.053 0.842,-1.512 0.562,-0.459 1.349,-0.688 2.363,-0.688 0.778,0 1.416,0.131 1.914,0.392 0.376,0.198 0.653,0.508 0.832,0.929 0.115,0.273 0.172,0.835 0.172,1.684 v 2.976 c 0,0.835 0.016,1.347 0.048,1.535 0.032,0.188 0.084,0.314 0.158,0.378 0.074,0.064 0.158,0.096 0.254,0.096 0.102,0 0.191,-0.022 0.268,-0.067 0.134,-0.082 0.392,-0.315 0.775,-0.698 v 0.536 c -0.714,0.957 -1.396,1.435 -2.047,1.435 -0.313,0 -0.561,-0.108 -0.746,-0.325 -0.185,-0.217 -0.282,-0.589 -0.288,-1.112 z m 0,-0.622 v -3.339 c -0.963,0.383 -1.585,0.653 -1.866,0.813 -0.504,0.28 -0.864,0.573 -1.081,0.88 -0.217,0.306 -0.325,0.641 -0.325,1.005 0,0.459 0.137,0.84 0.412,1.143 0.274,0.304 0.59,0.455 0.947,0.455 0.484,0 1.122,-0.319 1.913,-0.957 z"
   inkscape:connector-curvature="0" />
	<path
   id="path3235"
   d="m 57.446,78.75 h 4.946 v 1.444 H 57.446 V 78.75 z"
   inkscape:connector-curvature="0" />
	<path
   id="path3237"
   d="m 69.07,73.363 c 0.37,-0.874 0.837,-1.548 1.401,-2.023 0.564,-0.475 1.268,-0.713 2.11,-0.713 1.04,0 1.837,0.338 2.392,1.014 0.421,0.504 0.631,1.043 0.631,1.617 0,0.944 -0.593,1.92 -1.779,2.928 0.797,0.313 1.4,0.759 1.808,1.34 0.408,0.58 0.612,1.263 0.612,2.047 0,1.123 -0.357,2.096 -1.072,2.918 -0.931,1.072 -2.28,1.607 -4.047,1.607 -0.874,0 -1.468,-0.108 -1.784,-0.325 -0.315,-0.217 -0.474,-0.449 -0.474,-0.698 0,-0.185 0.075,-0.348 0.225,-0.488 0.149,-0.14 0.33,-0.21 0.541,-0.21 0.159,0 0.322,0.025 0.488,0.076 0.108,0.032 0.354,0.148 0.737,0.35 0.382,0.2 0.647,0.32 0.794,0.358 0.236,0.07 0.488,0.105 0.756,0.105 0.65,0 1.216,-0.252 1.698,-0.756 0.481,-0.504 0.722,-1.101 0.722,-1.789 0,-0.504 -0.112,-0.995 -0.335,-1.474 C 74.328,78.89 74.146,78.619 73.949,78.434 73.675,78.179 73.299,77.948 72.82,77.741 72.342,77.534 71.854,77.43 71.357,77.43 h -0.306 v -0.287 c 0.503,-0.063 1.009,-0.246 1.516,-0.546 0.507,-0.299 0.875,-0.66 1.105,-1.081 0.23,-0.421 0.345,-0.883 0.345,-1.387 0,-0.657 -0.206,-1.188 -0.617,-1.593 -0.412,-0.405 -0.923,-0.608 -1.536,-0.608 -0.989,0 -1.814,0.53 -2.478,1.588 L 69.07,73.363 z"
   inkscape:connector-curvature="0" />
	<path
   id="path3239"
   d="m 80.886,76.616 c 0.848,-1.18 1.764,-1.77 2.746,-1.77 0.899,0 1.684,0.384 2.354,1.152 0.67,0.769 1.005,1.819 1.005,3.152 0,1.557 -0.517,2.81 -1.55,3.76 -0.887,0.816 -1.875,1.225 -2.966,1.225 -0.511,0 -1.029,-0.092 -1.555,-0.277 -0.526,-0.185 -1.064,-0.462 -1.612,-0.832 v -9.079 c 0,-0.995 -0.024,-1.607 -0.072,-1.837 -0.048,-0.23 -0.123,-0.386 -0.225,-0.469 -0.102,-0.083 -0.23,-0.124 -0.383,-0.124 -0.179,0 -0.402,0.051 -0.67,0.153 l -0.134,-0.335 2.631,-1.071 h 0.431 v 6.352 z m 0,0.613 v 5.243 c 0.325,0.318 0.662,0.56 1.009,0.722 0.348,0.163 0.703,0.244 1.067,0.244 0.58,0 1.121,-0.318 1.622,-0.957 0.5,-0.638 0.751,-1.565 0.751,-2.783 0,-1.123 -0.25,-1.985 -0.751,-2.588 -0.501,-0.604 -1.07,-0.904 -1.708,-0.904 -0.338,0 -0.676,0.086 -1.014,0.258 -0.256,0.127 -0.581,0.382 -0.976,0.765 z"
   inkscape:connector-curvature="0" />
	<path
   id="path3241"
   d="m 88.109,70.666 v -0.402 c 0.97,0.479 1.776,1.043 2.42,1.693 0.912,0.932 1.617,2.023 2.115,3.276 0.498,1.254 0.746,2.56 0.746,3.918 0,1.978 -0.486,3.781 -1.459,5.41 -0.973,1.63 -2.247,2.795 -3.822,3.497 v -0.354 c 0.785,-0.44 1.431,-1.035 1.938,-1.785 0.507,-0.749 0.883,-1.702 1.129,-2.86 0.246,-1.157 0.368,-2.364 0.368,-3.621 0,-1.358 -0.105,-2.599 -0.315,-3.722 -0.16,-0.88 -0.359,-1.585 -0.598,-2.114 -0.239,-0.529 -0.557,-1.039 -0.952,-1.53 -0.396,-0.491 -0.919,-0.96 -1.57,-1.406 z"
   inkscape:connector-curvature="0" />
	<path
   id="path3243"
   d="m 104.21,82.52 v -4.774 h -4.764 v -0.784 h 4.764 v -4.755 h 0.766 v 4.755 h 4.783 v 0.784 h -4.783 v 4.774 h -0.766 z"
   inkscape:connector-curvature="0" />
	<path
   id="path3245"
   d="m 116.036,73.363 c 0.37,-0.874 0.837,-1.548 1.401,-2.023 0.564,-0.475 1.268,-0.713 2.109,-0.713 1.04,0 1.837,0.338 2.393,1.014 0.421,0.504 0.631,1.043 0.631,1.617 0,0.944 -0.593,1.92 -1.779,2.928 0.797,0.313 1.399,0.759 1.808,1.34 0.408,0.58 0.612,1.263 0.612,2.047 0,1.123 -0.356,2.096 -1.071,2.918 -0.931,1.072 -2.28,1.607 -4.047,1.607 -0.874,0 -1.469,-0.108 -1.784,-0.325 -0.315,-0.217 -0.474,-0.449 -0.474,-0.698 0,-0.185 0.075,-0.348 0.225,-0.488 0.15,-0.14 0.33,-0.21 0.541,-0.21 0.159,0 0.322,0.025 0.488,0.076 0.107,0.032 0.354,0.148 0.736,0.35 0.383,0.2 0.647,0.32 0.794,0.358 0.236,0.07 0.488,0.105 0.756,0.105 0.65,0 1.217,-0.252 1.698,-0.756 0.481,-0.504 0.723,-1.101 0.723,-1.789 0,-0.504 -0.112,-0.995 -0.335,-1.474 -0.166,-0.357 -0.348,-0.628 -0.546,-0.813 -0.274,-0.255 -0.65,-0.486 -1.129,-0.693 -0.479,-0.207 -0.966,-0.311 -1.464,-0.311 h -0.306 v -0.287 c 0.504,-0.063 1.009,-0.246 1.517,-0.546 0.507,-0.299 0.875,-0.66 1.104,-1.081 0.229,-0.421 0.345,-0.883 0.345,-1.387 0,-0.657 -0.206,-1.188 -0.617,-1.593 -0.411,-0.405 -0.923,-0.608 -1.535,-0.608 -0.989,0 -1.815,0.53 -2.479,1.588 l -0.315,-0.153 z"
   inkscape:connector-curvature="0" />
	<path
   id="path3247"
   d="m 130.922,87.705 v 0.354 c -0.963,-0.484 -1.767,-1.053 -2.411,-1.703 -0.919,-0.925 -1.626,-2.016 -2.124,-3.271 -0.497,-1.257 -0.746,-2.562 -0.746,-3.913 0,-1.978 0.488,-3.781 1.464,-5.41 0.976,-1.63 2.248,-2.795 3.817,-3.497 v 0.402 c -0.785,0.434 -1.429,1.027 -1.933,1.78 -0.504,0.752 -0.88,1.706 -1.129,2.86 -0.249,1.154 -0.373,2.359 -0.373,3.616 0,1.365 0.104,2.605 0.315,3.722 0.166,0.88 0.367,1.587 0.603,2.119 0.236,0.532 0.554,1.044 0.952,1.535 0.398,0.491 0.92,0.959 1.565,1.406 z"
   inkscape:connector-curvature="0" />
	<path
   id="path3249"
   d="m 136.94,82.605 c -0.899,0.695 -1.464,1.097 -1.693,1.205 -0.345,0.159 -0.712,0.239 -1.101,0.239 -0.606,0 -1.105,-0.207 -1.497,-0.622 -0.393,-0.414 -0.589,-0.96 -0.589,-1.636 0,-0.427 0.096,-0.797 0.287,-1.109 0.262,-0.434 0.716,-0.842 1.363,-1.225 0.647,-0.383 1.724,-0.849 3.229,-1.397 v -0.344 c 0,-0.874 -0.14,-1.474 -0.417,-1.799 -0.277,-0.325 -0.681,-0.488 -1.21,-0.488 -0.401,0 -0.721,0.108 -0.957,0.325 -0.242,0.217 -0.363,0.466 -0.363,0.746 l 0.02,0.556 c 0,0.293 -0.075,0.52 -0.226,0.679 -0.149,0.16 -0.346,0.239 -0.588,0.239 -0.236,0 -0.429,-0.083 -0.579,-0.249 -0.149,-0.165 -0.225,-0.392 -0.225,-0.679 0,-0.549 0.28,-1.053 0.842,-1.512 0.562,-0.459 1.35,-0.688 2.363,-0.688 0.778,0 1.416,0.131 1.913,0.392 0.377,0.198 0.654,0.508 0.833,0.929 0.114,0.273 0.172,0.835 0.172,1.684 v 2.976 c 0,0.835 0.016,1.347 0.048,1.535 0.032,0.188 0.084,0.314 0.158,0.378 0.073,0.063 0.157,0.096 0.253,0.096 0.103,0 0.191,-0.022 0.269,-0.067 0.134,-0.082 0.392,-0.315 0.774,-0.698 v 0.536 c -0.714,0.957 -1.396,1.435 -2.047,1.435 -0.313,0 -0.562,-0.108 -0.747,-0.325 -0.183,-0.219 -0.279,-0.589 -0.285,-1.112 z m 0,-0.622 v -3.339 c -0.964,0.383 -1.586,0.653 -1.866,0.813 -0.504,0.28 -0.864,0.573 -1.081,0.88 -0.217,0.306 -0.325,0.641 -0.325,1.005 0,0.459 0.137,0.84 0.411,1.143 0.274,0.304 0.59,0.455 0.947,0.455 0.485,0 1.123,-0.319 1.914,-0.957 z"
   inkscape:connector-curvature="0" />
	<path
   id="path3251"
   d="m 150.075,82.52 v -4.774 h -4.765 v -0.784 h 4.765 v -4.755 h 0.766 v 4.755 h 4.783 v 0.784 h -4.783 v 4.774 h -0.766 z"
   inkscape:connector-curvature="0" />
	<path
   id="path3253"
   d="m 170.022,79.085 v 1.358 h -1.741 v 3.425 h -1.578 v -3.425 h -5.492 v -1.225 l 6.019,-8.592 h 1.052 v 8.458 h 1.74 z m -3.319,0 v -6.439 l -4.554,6.439 h 4.554 z"
   inkscape:connector-curvature="0" />
	<path
   id="path3255"
   d="m 173.716,76.616 c 0.849,-1.18 1.764,-1.77 2.746,-1.77 0.899,0 1.684,0.384 2.354,1.152 0.669,0.769 1.004,1.819 1.004,3.152 0,1.557 -0.517,2.81 -1.55,3.76 -0.887,0.816 -1.875,1.225 -2.966,1.225 -0.51,0 -1.028,-0.092 -1.555,-0.277 -0.526,-0.185 -1.063,-0.462 -1.611,-0.832 v -9.079 c 0,-0.995 -0.024,-1.607 -0.072,-1.837 -0.048,-0.23 -0.123,-0.386 -0.225,-0.469 -0.103,-0.083 -0.229,-0.124 -0.383,-0.124 -0.179,0 -0.402,0.051 -0.67,0.153 l -0.134,-0.335 2.631,-1.071 h 0.431 v 6.352 z m 0,0.613 v 5.243 c 0.325,0.318 0.662,0.56 1.01,0.722 0.347,0.163 0.703,0.244 1.066,0.244 0.58,0 1.121,-0.318 1.621,-0.957 0.501,-0.638 0.752,-1.565 0.752,-2.783 0,-1.123 -0.251,-1.985 -0.752,-2.588 -0.5,-0.604 -1.069,-0.904 -1.707,-0.904 -0.339,0 -0.677,0.086 -1.015,0.258 -0.254,0.127 -0.58,0.382 -0.975,0.765 z"
   inkscape:connector-curvature="0" />
	<path
   id="path3257"
   d="m 180.939,70.666 v -0.402 c 0.969,0.479 1.775,1.043 2.42,1.693 0.912,0.932 1.617,2.023 2.114,3.276 0.498,1.254 0.746,2.56 0.746,3.918 0,1.978 -0.486,3.781 -1.459,5.41 -0.973,1.63 -2.246,2.795 -3.821,3.497 v -0.354 c 0.784,-0.44 1.43,-1.035 1.938,-1.785 0.507,-0.749 0.883,-1.702 1.129,-2.86 0.245,-1.157 0.368,-2.364 0.368,-3.621 0,-1.358 -0.105,-2.599 -0.316,-3.722 -0.159,-0.88 -0.358,-1.585 -0.598,-2.114 -0.24,-0.529 -0.557,-1.039 -0.952,-1.53 -0.396,-0.491 -0.918,-0.96 -1.569,-1.406 z"
   inkscape:connector-curvature="0" />
</g><line
     id="line3259"
     y2="65.338997"
     x2="186.78101"
     y1="65.338997"
     x1="15.009"
     stroke-miterlimit="10"
     style="fill:none;stroke:#000000;stroke-miterlimit:10" /></g></svg>