<?xml version="1.0" encoding="UTF-8" standalone="no"?>
<!-- Generator: Adobe Illustrator 16.0.0, SVG Export Plug-In . SVG Version: 6.00 Build 0)  -->

<svg
   xmlns:dc="http://purl.org/dc/elements/1.1/"
   xmlns:cc="http://creativecommons.org/ns#"
   xmlns:rdf="http://www.w3.org/1999/02/22-rdf-syntax-ns#"
   xmlns:svg="http://www.w3.org/2000/svg"
   xmlns="http://www.w3.org/2000/svg"
   xmlns:sodipodi="http://sodipodi.sourceforge.net/DTD/sodipodi-0.dtd"
   xmlns:inkscape="http://www.inkscape.org/namespaces/inkscape"
   version="1.0"
   id="Layer_1"
   x="0px"
   y="0px"
   viewBox="0 0 416.36224 358.95324"
   enable-background="new 0 0 437 54"
   xml:space="preserve"
   inkscape:version="0.48.4 r9939"
   width="100%"
   height="100%"
   sodipodi:docname="canvas.svg"><metadata
   id="metadata110"><rdf:RDF><cc:Work
       rdf:about=""><dc:format>image/svg+xml</dc:format><dc:type
         rdf:resource="http://purl.org/dc/dcmitype/StillImage" /><dc:title></dc:title></cc:Work></rdf:RDF></metadata><defs
   id="defs108" /><sodipodi:namedview
   pagecolor="#ffffff"
   bordercolor="#666666"
   borderopacity="1"
   objecttolerance="10"
   gridtolerance="10"
   guidetolerance="10"
   inkscape:pageopacity="0"
   inkscape:pageshadow="2"
   inkscape:window-width="640"
   inkscape:window-height="480"
   id="namedview106"
   showgrid="false"
   inkscape:zoom="0.65446224"
   inkscape:cx="215.81934"
   inkscape:cy="161.53746"
   inkscape:window-x="319"
   inkscape:window-y="98"
   inkscape:window-maximized="0"
   inkscape:current-layer="Layer_1"
   fit-margin-top="0"
   fit-margin-left="0"
   fit-margin-right="0"
   fit-margin-bottom="0"
   showborder="false"
   inkscape:showpageshadow="false" />

<g
   transform="translate(-135.34016,-270.51551)"
   id="Layer_3"><path
     style="fill:none;stroke:#000000;stroke-width:3;stroke-miterlimit:10"
     inkscape:connector-curvature="0"
     stroke-miterlimit="10"
     d="m 167.167,358.5 c 0,0 17.333,-10 0,-16.667 -17.333,-6.667 -52,-37.333 -11.333,-52.667 40.667,-15.334 78.416,-8.666 90.666,-6.666 10.214,1.667 42,-8 42,-8 0,0 17.5,-9 45.334,7.333 0,0 53.999,11.333 72.666,6.667 0,0 50.001,9.796 55.334,26.565 5.333,16.769 3.333,28.102 -26.667,40.102 0,0 -12,2.667 -10,10.667"
     id="path8" /><path
     style="fill:none;stroke:#000000;stroke-width:3;stroke-miterlimit:10"
     inkscape:connector-curvature="0"
     stroke-miterlimit="10"
     d="m 186.5,313.167 c 0,0 -12.666,27.13 -33.333,5.565 0,0 -9.333,-28.898 44,-23.565 0,0 92,-2.667 89.333,85.333 l 4,25.334 4,53.332 v 52.666 24.667 c 0,0 -16,-15.334 -17.333,-32.667"
     id="path10" /><path
     style="fill:none;stroke:#000000;stroke-width:3;stroke-miterlimit:10"
     inkscape:connector-curvature="0"
     stroke-miterlimit="10"
     d="m 294,475.5 c 0,0 -16,-62.5 -32,-69.5 0,0 -10,-30.5 -12.5,-50 0,0 -9.853,-54.435 -77.353,-60.435"
     id="path12" /><path
     style="fill:none;stroke:#000000;stroke-width:3;stroke-miterlimit:10"
     inkscape:connector-curvature="0"
     stroke-miterlimit="10"
     d="m 412.5,334 c 0,0 14.5,13.5 27.5,7.5 13,-6 25,-13.036 5,-22.768 C 425,309 411.5,302.5 385.5,303 359.5,303.5 318,303.574 312,343.037 306,382.5 300.49,444.5 300.49,444.5 V 465 481.5 L 306,565 c 0,0 3,1 18.5,-22"
     id="path14" /><ellipse
     d="m 220,341 c 0,5.66092 -8.89834,10.25 -19.875,10.25 -10.97666,0 -19.875,-4.58908 -19.875,-10.25 0,-5.66092 8.89834,-10.25 19.875,-10.25 10.97666,0 19.875,4.58908 19.875,10.25 z"
     style="fill:none;stroke:#000000;stroke-width:3;stroke-miterlimit:10"
     sodipodi:ry="10.25"
     sodipodi:rx="19.875"
     sodipodi:cy="341"
     sodipodi:cx="200.125"
     stroke-miterlimit="10"
     cx="200.125"
     cy="341"
     rx="19.875"
     ry="10.25"
     id="ellipse16" /><ellipse
     d="m 417.815,361.5 c 0,5.66092 -8.89834,10.25 -19.875,10.25 -10.97666,0 -19.875,-4.58908 -19.875,-10.25 0,-5.66092 8.89834,-10.25 19.875,-10.25 10.97666,0 19.875,4.58908 19.875,10.25 z"
     style="fill:none;stroke:#000000;stroke-width:3;stroke-miterlimit:10"
     sodipodi:ry="10.25"
     sodipodi:rx="19.875"
     sodipodi:cy="361.5"
     sodipodi:cx="397.94"
     stroke-miterlimit="10"
     cx="397.94"
     cy="361.5"
     rx="19.875"
     ry="10.25"
     id="ellipse18" /><path
     style="fill:none;stroke:#000000;stroke-width:3;stroke-miterlimit:10"
     inkscape:connector-curvature="0"
     stroke-miterlimit="10"
     d="m 182.168,282.499 c 0,0 53.332,10.5 68.332,10 15,-0.5 30,13.521 96.5,2.01 0,0 40.665,-13.122 65.166,-3.73"
     id="path20" /><path
     style="fill:none;stroke:#000000;stroke-width:3;stroke-miterlimit:10"
     inkscape:connector-curvature="0"
     stroke-miterlimit="10"
     d="m 422,308.521 c 0,0 -84,4.479 -82.5,42.729 0,0 0.5,34.75 -14,53.75 0,0 -25.804,64.471 -24.5,84.226"
     id="path22" /><line
     style="fill:none;stroke:#000000;stroke-width:3;stroke-miterlimit:10"
     stroke-miterlimit="10"
     x1="203.52499"
     y1="279.04501"
     x2="192"
     y2="285.35901"
     id="line24" /><line
     style="fill:none;stroke:#000000;stroke-width:3;stroke-miterlimit:10"
     stroke-miterlimit="10"
     x1="213.673"
     y1="279.34201"
     x2="202.14799"
     y2="285.65601"
     id="line26" /><line
     style="fill:none;stroke:#000000;stroke-width:3;stroke-miterlimit:10"
     stroke-miterlimit="10"
     x1="222.991"
     y1="281.09201"
     x2="211.467"
     y2="287.40601"
     id="line28" /><line
     style="fill:none;stroke:#000000;stroke-width:3;stroke-miterlimit:10"
     stroke-miterlimit="10"
     x1="234.25"
     y1="280.70099"
     x2="220.342"
     y2="288.51599"
     id="line30" /><line
     style="fill:none;stroke:#000000;stroke-width:3;stroke-miterlimit:10"
     stroke-miterlimit="10"
     x1="243.39"
     y1="283.16501"
     x2="231.866"
     y2="289.48001"
     id="line32" /><line
     style="fill:none;stroke:#000000;stroke-width:3;stroke-miterlimit:10"
     stroke-miterlimit="10"
     x1="255.283"
     y1="283.16501"
     x2="241"
     y2="290.78"
     id="line34" /><line
     style="fill:none;stroke:#000000;stroke-width:3;stroke-miterlimit:10"
     stroke-miterlimit="10"
     x1="269.604"
     y1="279.53201"
     x2="252.78999"
     y2="291.21399"
     id="line36" /><line
     style="fill:none;stroke:#000000;stroke-width:3;stroke-miterlimit:10"
     stroke-miterlimit="10"
     x1="285.353"
     y1="275.423"
     x2="261.19699"
     y2="294.51001"
     id="line38" /><line
     style="fill:none;stroke:#000000;stroke-width:3;stroke-miterlimit:10"
     stroke-miterlimit="10"
     x1="298.58401"
     y1="273.62201"
     x2="271.604"
     y2="296.375"
     id="line40" /><line
     style="fill:none;stroke:#000000;stroke-width:3;stroke-miterlimit:10"
     stroke-miterlimit="10"
     x1="308.621"
     y1="273.59"
     x2="279.875"
     y2="298"
     id="line42" /><line
     style="fill:none;stroke:#000000;stroke-width:3;stroke-miterlimit:10"
     stroke-miterlimit="10"
     x1="317.099"
     y1="274.384"
     x2="289.28799"
     y2="298"
     id="line44" /><line
     style="fill:none;stroke:#000000;stroke-width:3;stroke-miterlimit:10"
     stroke-miterlimit="10"
     x1="324.42999"
     y1="276.63501"
     x2="298.04401"
     y2="299.04099"
     id="line46" /><line
     style="fill:none;stroke:#000000;stroke-width:3;stroke-miterlimit:10"
     stroke-miterlimit="10"
     x1="331.13"
     y1="279.53201"
     x2="307.32999"
     y2="299.741"
     id="line48" /><line
     style="fill:none;stroke:#000000;stroke-width:3;stroke-miterlimit:10"
     stroke-miterlimit="10"
     x1="338.008"
     y1="282.46701"
     x2="321.46701"
     y2="298"
     id="line50" /><line
     style="fill:none;stroke:#000000;stroke-width:3;stroke-miterlimit:10"
     stroke-miterlimit="10"
     x1="346.80499"
     y1="283.78601"
     x2="333"
     y2="297.25"
     id="line52" /><line
     style="fill:none;stroke:#000000;stroke-width:3;stroke-miterlimit:10"
     stroke-miterlimit="10"
     x1="354.60199"
     y1="284.48199"
     x2="343.02399"
     y2="295.77399"
     id="line54" /><line
     style="fill:none;stroke:#000000;stroke-width:3;stroke-miterlimit:10"
     stroke-miterlimit="10"
     x1="194.66701"
     y1="294.51001"
     x2="189.66701"
     y2="301.5"
     id="line56" /><line
     style="fill:none;stroke:#000000;stroke-width:3;stroke-miterlimit:10"
     stroke-miterlimit="10"
     x1="202.625"
     y1="295.565"
     x2="197.625"
     y2="302.55399"
     id="line58" /><line
     style="fill:none;stroke:#000000;stroke-width:3;stroke-miterlimit:10"
     stroke-miterlimit="10"
     x1="214.817"
     y1="296.60599"
     x2="207.91"
     y2="304.995"
     id="line60" /><line
     style="fill:none;stroke:#000000;stroke-width:3;stroke-miterlimit:10"
     stroke-miterlimit="10"
     x1="222.368"
     y1="298.77802"
     x2="214.817"
     y2="308.724"
     id="line62" /><line
     style="fill:none;stroke:#000000;stroke-width:3;stroke-miterlimit:10"
     stroke-miterlimit="10"
     x1="231.866"
     y1="299.741"
     x2="221.785"
     y2="313"
     id="line64" /><line
     style="fill:none;stroke:#000000;stroke-width:3;stroke-miterlimit:10"
     stroke-miterlimit="10"
     x1="239.291"
     y1="303.75101"
     x2="229.21001"
     y2="317.01001"
     id="line66" /><line
     style="fill:none;stroke:#000000;stroke-width:3;stroke-miterlimit:10"
     stroke-miterlimit="10"
     x1="247.258"
     y1="306.99799"
     x2="235.188"
     y2="323.638"
     id="line68" /><line
     style="fill:none;stroke:#000000;stroke-width:3;stroke-miterlimit:10"
     stroke-miterlimit="10"
     x1="255.283"
     y1="311.16599"
     x2="239.991"
     y2="331.95801"
     id="line70" /><line
     style="fill:none;stroke:#000000;stroke-width:3;stroke-miterlimit:10"
     stroke-miterlimit="10"
     x1="262.04099"
     y1="317.01001"
     x2="245.145"
     y2="341.146"
     id="line72" /><line
     style="fill:none;stroke:#000000;stroke-width:3;stroke-miterlimit:10"
     stroke-miterlimit="10"
     x1="267.91101"
     y1="322.745"
     x2="249.536"
     y2="351.25"
     id="line74" /><line
     style="fill:none;stroke:#000000;stroke-width:3;stroke-miterlimit:10"
     stroke-miterlimit="10"
     x1="274.14001"
     y1="330.75"
     x2="251.552"
     y2="363.47501"
     id="line76" /><line
     style="fill:none;stroke:#000000;stroke-width:3;stroke-miterlimit:10"
     stroke-miterlimit="10"
     x1="278.60999"
     y1="338.59799"
     x2="253.593"
     y2="374.819"
     id="line78" /><line
     style="fill:none;stroke:#000000;stroke-width:3;stroke-miterlimit:10"
     stroke-miterlimit="10"
     x1="282.88901"
     y1="349.67499"
     x2="257.22699"
     y2="387.47"
     id="line80" /><line
     style="fill:none;stroke:#000000;stroke-width:3;stroke-miterlimit:10"
     stroke-miterlimit="10"
     x1="285.401"
     y1="360.96399"
     x2="260.45499"
     y2="401.11301"
     id="line82" /><line
     style="fill:none;stroke:#000000;stroke-width:3;stroke-miterlimit:10"
     stroke-miterlimit="10"
     x1="287.10199"
     y1="376.77899"
     x2="266.13699"
     y2="410.522"
     id="line84" /><line
     style="fill:none;stroke:#000000;stroke-width:3;stroke-miterlimit:10"
     stroke-miterlimit="10"
     x1="288.97198"
     y1="391.82101"
     x2="272.035"
     y2="419.98401"
     id="line86" /><line
     style="fill:none;stroke:#000000;stroke-width:3;stroke-miterlimit:10"
     stroke-miterlimit="10"
     x1="291.04099"
     y1="406.83801"
     x2="276.62"
     y2="430.81601"
     id="line88" /><line
     style="fill:none;stroke:#000000;stroke-width:3;stroke-miterlimit:10"
     stroke-miterlimit="10"
     x1="292.39899"
     y1="421.42001"
     x2="281.82401"
     y2="439.00201"
     id="line90" /><line
     style="fill:none;stroke:#000000;stroke-width:3;stroke-miterlimit:10"
     stroke-miterlimit="10"
     x1="293.38199"
     y1="435.23801"
     x2="283.82999"
     y2="451.12"
     id="line92" /><line
     style="fill:none;stroke:#000000;stroke-width:3;stroke-miterlimit:10"
     stroke-miterlimit="10"
     x1="294.5"
     y1="447.772"
     x2="287.224"
     y2="459.87"
     id="line94" /><line
     style="fill:none;stroke:#000000;stroke-width:3;stroke-miterlimit:10"
     stroke-miterlimit="10"
     x1="308.229"
     y1="447.772"
     x2="300.952"
     y2="459.87"
     id="line96" /><line
     style="fill:none;stroke:#000000;stroke-width:3;stroke-miterlimit:10"
     stroke-miterlimit="10"
     x1="315.298"
     y1="432.354"
     x2="298.15399"
     y2="443.797"
     id="line98" /><line
     style="fill:none;stroke:#000000;stroke-width:3;stroke-miterlimit:10"
     stroke-miterlimit="10"
     x1="318.09698"
     y1="419.98401"
     x2="300.953"
     y2="431.427"
     id="line100" /><line
     style="fill:none;stroke:#000000;stroke-width:3;stroke-miterlimit:10"
     stroke-miterlimit="10"
     x1="324.10901"
     y1="408.54199"
     x2="303.005"
     y2="419.98401"
     id="line102" /><line
     style="fill:none;stroke:#000000;stroke-width:3;stroke-miterlimit:10"
     stroke-miterlimit="10"
     x1="331.263"
     y1="395.78"
     x2="304.746"
     y2="408.54199"
     id="line104" /><line
     style="fill:none;stroke:#000000;stroke-width:3;stroke-miterlimit:10"
     stroke-miterlimit="10"
     x1="335.21799"
     y1="383.944"
     x2="304.746"
     y2="398.202"
     id="line106" /><line
     style="fill:none;stroke:#000000;stroke-width:3;stroke-miterlimit:10"
     stroke-miterlimit="10"
     x1="338.28299"
     y1="368.573"
     x2="306.23099"
     y2="383.90799"
     id="line108" /><line
     style="fill:none;stroke:#000000;stroke-width:3;stroke-miterlimit:10"
     stroke-miterlimit="10"
     x1="340.13501"
     y1="355.16599"
     x2="308.082"
     y2="370.50101"
     id="line110" /><line
     style="fill:none;stroke:#000000;stroke-width:3;stroke-miterlimit:10"
     stroke-miterlimit="10"
     x1="340.45599"
     y1="343.582"
     x2="309.758"
     y2="358.91699"
     id="line112" /><line
     style="fill:none;stroke:#000000;stroke-width:3;stroke-miterlimit:10"
     stroke-miterlimit="10"
     x1="344.51199"
     y1="334.375"
     x2="312.45901"
     y2="346.66501"
     id="line114" /><line
     style="fill:none;stroke:#000000;stroke-width:3;stroke-miterlimit:10"
     stroke-miterlimit="10"
     x1="354.60199"
     y1="325.375"
     x2="312.452"
     y2="335.48999"
     id="line116" /><line
     style="fill:none;stroke:#000000;stroke-width:3;stroke-miterlimit:10"
     stroke-miterlimit="10"
     x1="363.625"
     y1="321.767"
     x2="321.35599"
     y2="320.875"
     id="line118" /><line
     style="fill:none;stroke:#000000;stroke-width:3;stroke-miterlimit:10"
     stroke-miterlimit="10"
     x1="376.104"
     y1="315.54199"
     x2="337.58301"
     y2="309.82101"
     id="line120" /><line
     style="fill:none;stroke:#000000;stroke-width:3;stroke-miterlimit:10"
     stroke-miterlimit="10"
     x1="397.32501"
     y1="310.48499"
     x2="358.80499"
     y2="304.763"
     id="line122" /><line
     style="fill:none;stroke:#000000;stroke-width:3;stroke-miterlimit:10"
     stroke-miterlimit="10"
     x1="283.82999"
     y1="629"
     x2="281.82401"
     y2="567.08197"
     id="line124" /><line
     style="fill:none;stroke:#000000;stroke-width:3;stroke-miterlimit:10"
     stroke-miterlimit="10"
     x1="323.81299"
     y1="629.21399"
     x2="312.10001"
     y2="561.76599"
     id="line126" /><path
     style="fill:none;stroke:#000000;stroke-width:3;stroke-miterlimit:10"
     inkscape:connector-curvature="0"
     stroke-miterlimit="10"
     d="m 266.137,546 c 0,0 6.307,19 22.835,24 0,0 6.609,-16 2.069,-24 -4.54,-8 -4.541,-8 -4.541,-8 0,0 -8.5,-12.5 -23,-18"
     id="path128" /><path
     style="fill:none;stroke:#000000;stroke-width:3;stroke-miterlimit:10"
     inkscape:connector-curvature="0"
     stroke-miterlimit="10"
     d="m 267,455.5 c 3.718,6.415 1.428,19.901 2,27.5"
     id="path130" /><path
     style="fill:none;stroke:#000000;stroke-width:3;stroke-miterlimit:10"
     inkscape:connector-curvature="0"
     stroke-miterlimit="10"
     d="m 270.5,490.5 c 0.362,-0.125 0.073,-0.85 0.905,-0.444 0.979,2.794 1.369,6.639 3.095,8.944"
     id="path132" /><path
     style="fill:none;stroke:#000000;stroke-width:3;stroke-miterlimit:10"
     inkscape:connector-curvature="0"
     stroke-miterlimit="10"
     d="m 222,497.5 c 4.8,-1.917 6.728,10.222 11,12"
     id="path134" /><path
     style="fill:none;stroke:#000000;stroke-width:3;stroke-miterlimit:10"
     inkscape:connector-curvature="0"
     stroke-miterlimit="10"
     d="m 239,511 c 3.402,0.041 6.397,1.954 9.5,3"
     id="path136" /><path
     style="fill:none;stroke:#000000;stroke-width:3;stroke-miterlimit:10"
     inkscape:connector-curvature="0"
     stroke-miterlimit="10"
     d="m 256,519 c 1.833,0 3.667,0 5.5,0"
     id="path138" /><line
     style="fill:none;stroke:#000000;stroke-width:3;stroke-miterlimit:10"
     stroke-miterlimit="10"
     x1="519.83197"
     y1="302.55399"
     x2="431.832"
     y2="303.75101"
     id="line140" /><polyline
     style="fill:none;stroke:#000000;stroke-width:3;stroke-miterlimit:10"
     stroke-miterlimit="10"
     points="297.167,356.709 429.166,425.705    519.832,421.42  "
     id="polyline142" /><line
     style="fill:none;stroke:#000000;stroke-width:3;stroke-miterlimit:10"
     stroke-miterlimit="10"
     x1="519.83197"
     y1="489.22501"
     x2="300.48999"
     y2="494.46701"
     id="line144" /><polyline
     style="fill:none;stroke:#000000;stroke-width:3;stroke-miterlimit:10"
     stroke-miterlimit="10"
     points="397.94,361.5 439.832,391.821    519.832,385.532  "
     id="polyline146" /><text
     style="font-size:30px;font-family:MyriadPro-Regular"
     transform="translate(526.4983,311.1663)"
     font-size="30"
     id="text148">K</text>
<text
     style="font-size:30px;font-family:MyriadPro-Regular"
     transform="translate(532.4983,395.9998)"
     font-size="30"
     id="text150">L</text>
<text
     style="font-size:30px;font-family:MyriadPro-Regular"
     transform="translate(526.4983,425.7048)"
     font-size="30"
     id="text152">M</text>
<text
     style="font-size:30px;font-family:MyriadPro-Regular"
     transform="translate(532.4983,498.9998)"
     font-size="30"
     id="text154">N</text>
</g></svg>