<?xml version="1.0" encoding="UTF-8" standalone="no"?>
<!-- Generator: Adobe Illustrator 16.0.0, SVG Export Plug-In . SVG Version: 6.00 Build 0)  -->

<svg
   xmlns:dc="http://purl.org/dc/elements/1.1/"
   xmlns:cc="http://creativecommons.org/ns#"
   xmlns:rdf="http://www.w3.org/1999/02/22-rdf-syntax-ns#"
   xmlns:svg="http://www.w3.org/2000/svg"
   xmlns="http://www.w3.org/2000/svg"
   xmlns:sodipodi="http://sodipodi.sourceforge.net/DTD/sodipodi-0.dtd"
   xmlns:inkscape="http://www.inkscape.org/namespaces/inkscape"
   version="1.0"
   id="Layer_1"
   x="0px"
   y="0px"
   viewBox="0 0 421.83224 265.04791"
   enable-background="new 0 0 437 54"
   xml:space="preserve"
   inkscape:version="0.48.4 r9939"
   width="100%"
   height="100%"
   sodipodi:docname="canvas.svg"><metadata
   id="metadata110"><rdf:RDF><cc:Work
       rdf:about=""><dc:format>image/svg+xml</dc:format><dc:type
         rdf:resource="http://purl.org/dc/dcmitype/StillImage" /><dc:title></dc:title></cc:Work></rdf:RDF></metadata><defs
   id="defs108" /><sodipodi:namedview
   pagecolor="#ffffff"
   bordercolor="#666666"
   borderopacity="1"
   objecttolerance="10"
   gridtolerance="10"
   guidetolerance="10"
   inkscape:pageopacity="0"
   inkscape:pageshadow="2"
   inkscape:window-width="640"
   inkscape:window-height="480"
   id="namedview106"
   showgrid="false"
   inkscape:zoom="0.65446224"
   inkscape:cx="233.8357"
   inkscape:cy="98.409523"
   inkscape:window-x="520"
   inkscape:window-y="61"
   inkscape:window-maximized="0"
   inkscape:current-layer="Layer_1"
   fit-margin-top="0"
   fit-margin-left="0"
   fit-margin-right="0"
   fit-margin-bottom="0"
   showborder="false"
   inkscape:showpageshadow="false" />

<g
   transform="translate(-79.78728,-247.83872)"
   id="Layer_2"><path
     style="fill:none;stroke:#000000;stroke-width:3;stroke-miterlimit:10"
     inkscape:connector-curvature="0"
     stroke-miterlimit="10"
     d="m 313.5,264.5 c 2,-4 5,-7 10,-7 2,21 17,40 26,59 7,14 16,44 30,50 3,-12 20,-16 28,-26 11,-13 17,-26 30,-37 7,-5 31,-37 39,-27 9,11 -21,30 -25,35 -40,41 -81,81 -87,142 -1,8 -2,18 -1,25"
     id="path11" /><path
     style="fill:none;stroke:#000000;stroke-width:3;stroke-miterlimit:10"
     inkscape:connector-curvature="0"
     stroke-miterlimit="10"
     d="m 360.5,463.5 c 4,16 5,66 -25,41 -12,-10 7,-51 10,-67 4,-21 7,-44 6,-66 -1,-13 -8,-21 -13,-33 -4,-14 -7,-28 -13,-41 -3,-9 -15,-31 -6,-39"
     id="path13" /><path
     style="stroke:#000000;stroke-width:3;stroke-miterlimit:10"
     inkscape:connector-curvature="0"
     stroke-miterlimit="10"
     d="m 322,278 -84.932,151.947 c 0,0 -9.795,38.154 24.205,17.154 34,-21 189.227,-145 189.227,-145 l -2.817,-1.129 -179.141,133.914 c 0,0 -29.268,18.215 -27.268,2.215 2,-16 83.717,-150.149 83.717,-150.149 L 322,278 z"
     id="path15" /><g
     id="g17"><path
       inkscape:connector-curvature="0"
       d="m 328,275 c -17.5,-9 -6,15.5 -2,23 6,-5 9.5,-1.5 8.5,-10.5 -0.5,-4 -3,-10 -5,-13"
       id="path19" /><g
       id="g21"><g
         id="g23"><g
           id="g25"><g
             id="g27"><g
               id="g29"><path
                 style="fill:none"
                 inkscape:connector-curvature="0"
                 d="m 331.43,268.331 c 0,0 -0.588,-0.283 -1.471,-0.708 -0.417,-0.213 -1.016,-0.448 -1.632,-0.695 -0.579,-0.251 -1.354,-0.499 -2.128,-0.728 l -0.585,-0.168 -0.686,-0.145 c -0.468,-0.089 -0.879,-0.179 -1.368,-0.24 -0.541,-0.05 -1.068,-0.081 -1.566,-0.094 -0.125,-0.002 -0.248,-0.005 -0.369,-0.008 -0.148,0.01 -0.296,0.019 -0.44,0.028 -0.295,0.023 -0.581,0.054 -0.854,0.089 -1.004,0.081 -2.219,0.506 -2.919,0.799 -0.356,0.137 -0.656,0.302 -0.866,0.428 -0.204,0.123 -0.313,0.188 -0.313,0.188 l 7.759,12.835 c 0,0 -0.054,0.029 -0.156,0.084 -0.111,0.052 -0.262,0.12 -0.395,0.197 -0.267,0.165 -0.889,0.279 -1.103,0.331 -0.079,0.013 -0.163,0.019 -0.249,0.019 l -0.122,-0.005 -0.038,0.012 c -0.052,0.012 -0.108,0.008 -0.162,-0.013 -0.006,0 0.074,0.032 0.11,0.034 0.023,0.003 0.048,0.005 0.073,0.004 l 0.162,0.055 c 0.882,0.237 2.507,1.07 2.457,1.037 l 6.861,-13.336 z"
                 id="path31" /></g><g
               id="g33"><path
                 style="fill:#231f20"
                 inkscape:connector-curvature="0"
                 d="m 326.561,273.497 c 0,0 -0.27,-0.108 -0.675,-0.271 -0.396,-0.177 -0.956,-0.358 -1.524,-0.526 -0.559,-0.186 -1.175,-0.266 -1.621,-0.348 -0.471,-0.027 -0.785,-0.045 -0.785,-0.045 l -0.004,1.5 c 0,0 0.245,0.014 0.612,0.035 0.376,0.074 0.883,0.131 1.389,0.301 0.508,0.15 1.014,0.312 1.388,0.479 0.376,0.151 0.626,0.251 0.626,0.251 l 0.594,-1.376 z"
                 id="path35" /></g><polygon
               style="fill:#231f20"
               points="327.358,275.515 326.569,275.137 327.198,273.775 328.028,274.174 "
               id="polygon37" /><path
               style="fill:#231f20"
               inkscape:connector-curvature="0"
               d="m 321.178,272.352 0.218,1.484 c 0.007,0.012 -0.197,-0.005 -0.352,0.063 -0.16,0.055 -0.32,0.111 -0.32,0.111 l -0.604,-1.373 c 0,0 0.265,-0.093 0.529,-0.185 0.267,-0.099 0.528,-0.087 0.529,-0.1 z"
               id="path39" /></g></g><g
           id="g41"><g
             id="g43"><g
               id="g45"><path
                 style="fill:none"
                 inkscape:connector-curvature="0"
                 d="m 337.142,272.71 c 0,0 -0.075,-0.142 -0.189,-0.354 -0.103,-0.205 -0.281,-0.505 -0.47,-0.811 -0.371,-0.603 -0.743,-1.205 -0.743,-1.205 l -12.479,8.319 c 0,0 0.17,0.283 0.34,0.566 0.173,0.248 0.363,0.659 0.361,0.642 l 13.18,-7.157 z"
                 id="path47" /></g><g
               id="g49"><path
                 style="fill:#231f20"
                 inkscape:connector-curvature="0"
                 d="m 330.977,275.501 c 0,0 -0.141,-0.25 -0.295,-0.497 -0.15,-0.247 -0.302,-0.494 -0.302,-0.494 l -1.268,0.803 c 0,0 0.141,0.229 0.281,0.459 0.144,0.228 0.276,0.464 0.276,0.464 l 1.308,-0.735 z"
                 id="path51" /></g><polygon
               style="fill:#231f20"
               points="329.86,276.569 329.757,276.376 331.069,275.648 331.176,275.85 "
               id="polygon53" /><polygon
               style="fill:#231f20"
               points="329.039,275.169 328.926,274.985 330.178,274.158 330.299,274.356 "
               id="polygon55" /></g></g><g
           id="g57"><path
             style="fill:#231f20"
             inkscape:connector-curvature="0"
             d="m 331.169,279.198 1.37,-0.609 c 0,0 0.167,0.396 0.458,1.09 0.072,0.173 0.153,0.365 0.24,0.574 0.08,0.212 0.166,0.442 0.259,0.687 0.091,0.246 0.188,0.507 0.289,0.783 0.051,0.138 0.104,0.279 0.156,0.424 0.048,0.147 0.096,0.298 0.145,0.453 0.098,0.309 0.199,0.63 0.305,0.962 l 0.079,0.251 0.04,0.127 0.036,0.13 c 0.045,0.176 0.09,0.354 0.137,0.535 0.091,0.362 0.186,0.734 0.281,1.114 0.069,0.391 0.141,0.791 0.212,1.197 l 0.054,0.307 0.026,0.154 0.018,0.165 0.054,0.621 0.055,0.628 0.015,0.158 0.007,0.161 0.009,0.325 0.017,0.653 0.004,0.164 0.002,0.082 -0.005,0.084 -0.021,0.339 -0.045,0.68 -0.003,0.043 -0.008,0.044 -0.017,0.088 -0.033,0.176 -0.068,0.352 -0.034,0.176 -0.018,0.088 -0.005,0.022 -0.006,0.022 -0.016,0.044 -0.133,0.357 -0.137,0.355 -0.018,0.044 -0.005,0.011 -0.006,0.01 -0.014,0.021 -0.052,0.084 -0.106,0.168 -0.217,0.333 -0.027,0.042 -0.014,0.021 -0.017,0.018 -0.068,0.071 -0.139,0.141 -0.281,0.276 -0.035,0.034 -0.009,0.008 -0.009,0.007 -0.02,0.013 -0.076,0.054 -0.152,0.105 -0.306,0.208 -0.039,0.026 -0.019,0.013 -0.02,0.01 -0.076,0.04 -0.152,0.079 -0.304,0.156 -0.076,0.039 -0.074,0.036 -0.147,0.063 -0.58,0.249 -0.556,0.226 c -0.355,0.152 -0.705,0.301 -1.048,0.447 -0.165,0.079 -0.328,0.157 -0.489,0.234 l -0.24,0.114 -0.117,0.061 -0.113,0.063 c -0.151,0.083 -0.301,0.167 -0.447,0.248 l -0.22,0.121 -0.054,0.03 -0.053,0.032 -0.103,0.067 c -0.272,0.178 -0.536,0.35 -0.789,0.515 -0.433,0.332 -0.829,0.636 -1.182,0.906 -0.134,0.111 -0.251,0.209 -0.347,0.289 -0.192,0.161 -0.303,0.252 -0.303,0.252 0,0 -0.446,-0.847 -1.115,-2.118 -0.28,-0.56 -0.584,-1.166 -0.905,-1.808 -0.309,-0.647 -0.634,-1.33 -0.971,-2.036 -0.163,-0.356 -0.328,-0.718 -0.496,-1.084 -0.163,-0.368 -0.328,-0.741 -0.494,-1.117 -0.162,-0.378 -0.325,-0.759 -0.489,-1.142 l -0.477,-1.158 -0.46,-1.167 c -0.146,-0.391 -0.292,-0.78 -0.437,-1.166 -0.138,-0.39 -0.273,-0.776 -0.408,-1.158 -0.127,-0.385 -0.252,-0.766 -0.375,-1.141 -0.113,-0.379 -0.225,-0.751 -0.333,-1.116 -0.099,-0.369 -0.196,-0.729 -0.29,-1.081 l -0.069,-0.262 -0.059,-0.262 c -0.038,-0.174 -0.076,-0.345 -0.114,-0.513 l -0.056,-0.25 -0.05,-0.247 c -0.029,-0.165 -0.058,-0.327 -0.085,-0.485 -0.027,-0.159 -0.055,-0.314 -0.081,-0.465 l -0.031,-0.228 -0.026,-0.224 c -0.018,-0.147 -0.034,-0.291 -0.05,-0.43 l -0.024,-0.206 -0.01,-0.101 -0.005,-0.102 c -0.012,-0.268 -0.023,-0.519 -0.034,-0.75 l -0.004,-0.086 -0.001,-0.085 0.007,-0.167 c 0.005,-0.108 0.01,-0.212 0.014,-0.311 0.005,-0.099 0.009,-0.192 0.013,-0.279 l 0.006,-0.127 0.005,-0.061 0.009,-0.06 c 0.024,-0.156 0.046,-0.289 0.063,-0.396 0.035,-0.215 0.055,-0.33 0.055,-0.33 l 1.472,0.319 c 0,0 -0.012,0.072 -0.032,0.208 -0.012,0.067 -0.024,0.151 -0.041,0.249 -0.008,0.049 -0.017,0.102 -0.026,0.158 -0.002,0.059 -0.006,0.122 -0.009,0.188 -0.006,0.133 -0.012,0.28 -0.019,0.439 l -0.006,0.123 -0.003,0.063 0.002,0.065 c 0.004,0.088 0.008,0.18 0.013,0.275 0.009,0.189 0.019,0.392 0.029,0.604 0.025,0.215 0.052,0.441 0.079,0.677 l 0.021,0.179 0.01,0.091 0.016,0.092 c 0.021,0.123 0.044,0.249 0.066,0.376 0.022,0.127 0.045,0.257 0.067,0.389 l 0.035,0.199 0.045,0.202 c 0.061,0.271 0.122,0.549 0.186,0.833 0.073,0.283 0.148,0.573 0.226,0.867 l 0.12,0.444 0.134,0.449 0.135,0.455 0.145,0.458 c 0.101,0.306 0.201,0.614 0.303,0.923 l 0.327,0.925 0.341,0.921 c 0.117,0.305 0.234,0.609 0.351,0.911 0.119,0.3 0.238,0.599 0.355,0.893 0.122,0.293 0.242,0.582 0.36,0.867 0.244,0.567 0.48,1.114 0.704,1.634 0.233,0.516 0.455,1.003 0.659,1.453 0.424,0.893 0.777,1.636 1.024,2.157 0.127,0.259 0.227,0.462 0.295,0.601 0.034,0.069 0.062,0.122 0.079,0.158 l 0.007,0.013 0.002,0.005 10e-4,10e-4 v 0 c 2.965,0.589 1.656,0.329 2.355,0.468 l 0.001,10e-4 0.003,0.005 0.002,0.003 c 0,0 0.308,-0.17 0.848,-0.469 l 0.104,-0.057 0.112,-0.053 c 0.076,-0.037 0.156,-0.075 0.239,-0.115 0.167,-0.079 0.348,-0.165 0.54,-0.257 0.385,-0.162 0.819,-0.345 1.294,-0.544 0.228,-0.096 0.465,-0.195 0.711,-0.298 l 0.182,-0.078 0.092,-0.04 0.085,-0.042 0.342,-0.176 0.087,-0.044 0.044,-0.022 0.037,-0.026 0.149,-0.104 0.151,-0.103 0.077,-0.051 0.01,-0.006 0.005,-0.004 0.004,-0.004 0.015,-0.016 0.029,-0.031 0.248,-0.245 0.032,-0.03 0.022,-0.038 0.046,-0.075 0.095,-0.149 0.1,-0.149 0.065,-0.182 0.14,-0.365 0.079,-0.422 0.041,-0.212 0.021,-0.106 0.008,-0.115 c 0.018,-0.308 0.035,-0.617 0.053,-0.928 l -0.024,-0.967 -0.009,-0.243 -0.021,-0.246 -0.043,-0.49 -0.043,-0.488 -0.021,-0.233 -0.041,-0.235 c -0.055,-0.314 -0.109,-0.625 -0.163,-0.932 l -0.04,-0.23 -0.02,-0.114 -0.029,-0.114 -0.114,-0.451 c -0.075,-0.298 -0.149,-0.591 -0.223,-0.878 l -0.054,-0.214 -0.065,-0.21 c -0.044,-0.139 -0.088,-0.276 -0.131,-0.411 -0.085,-0.271 -0.168,-0.534 -0.249,-0.789 -0.04,-0.127 -0.08,-0.252 -0.119,-0.375 -0.045,-0.121 -0.089,-0.24 -0.132,-0.357 -0.173,-0.466 -0.33,-0.894 -0.47,-1.272 -0.155,-0.373 -0.29,-0.699 -0.4,-0.966 -0.225,-0.536 -0.353,-0.842 -0.353,-0.842 z"
             id="path59" /></g></g></g></g><g
     id="g61"><path
       inkscape:connector-curvature="0"
       d="m 449.057,293.5 c -17.5,-9 -6,15.5 -2,23 6,-5 9.5,-1.5 8.5,-10.5 -0.5,-4 -3,-10 -5,-13"
       id="path63" /><g
       id="g65"><g
         id="g67"><g
           id="g69"><g
             id="g71"><g
               id="g73"><path
                 style="fill:none"
                 inkscape:connector-curvature="0"
                 d="m 452.487,286.831 c 0,0 -0.588,-0.283 -1.471,-0.708 -0.417,-0.213 -1.016,-0.448 -1.632,-0.695 -0.579,-0.251 -1.354,-0.499 -2.128,-0.728 l -0.585,-0.168 -0.686,-0.145 c -0.468,-0.089 -0.879,-0.179 -1.368,-0.24 -0.541,-0.05 -1.068,-0.081 -1.566,-0.094 -0.125,-0.002 -0.248,-0.005 -0.369,-0.008 -0.148,0.01 -0.296,0.019 -0.44,0.028 -0.295,0.023 -0.581,0.054 -0.854,0.089 -1.004,0.081 -2.219,0.506 -2.919,0.799 -0.356,0.137 -0.656,0.302 -0.866,0.428 -0.204,0.123 -0.313,0.188 -0.313,0.188 l 7.759,12.835 c 0,0 -0.054,0.029 -0.156,0.084 -0.111,0.052 -0.262,0.12 -0.395,0.197 -0.267,0.165 -0.889,0.279 -1.103,0.331 -0.079,0.013 -0.163,0.019 -0.249,0.019 l -0.122,-0.005 -0.038,0.012 c -0.052,0.012 -0.108,0.008 -0.162,-0.013 -0.006,0 0.074,0.032 0.11,0.034 0.023,0.003 0.048,0.005 0.073,0.004 l 0.162,0.055 c 0.882,0.237 2.507,1.07 2.457,1.037 l 6.861,-13.336 z"
                 id="path75" /></g><g
               id="g77"><path
                 style="fill:#231f20"
                 inkscape:connector-curvature="0"
                 d="m 447.617,291.997 c 0,0 -0.27,-0.108 -0.675,-0.271 -0.396,-0.177 -0.956,-0.358 -1.524,-0.526 -0.559,-0.186 -1.175,-0.266 -1.621,-0.348 -0.471,-0.027 -0.785,-0.045 -0.785,-0.045 l -0.004,1.5 c 0,0 0.245,0.014 0.612,0.035 0.376,0.074 0.883,0.131 1.389,0.301 0.508,0.15 1.014,0.312 1.388,0.479 0.376,0.151 0.626,0.251 0.626,0.251 l 0.594,-1.376 z"
                 id="path79" /></g><polygon
               style="fill:#231f20"
               points="448.414,294.015 447.625,293.637 448.254,292.275 449.084,292.674 "
               id="polygon81" /><path
               style="fill:#231f20"
               inkscape:connector-curvature="0"
               d="m 442.235,290.852 0.218,1.484 c 0.007,0.012 -0.197,-0.005 -0.352,0.063 -0.16,0.055 -0.32,0.111 -0.32,0.111 l -0.604,-1.373 c 0,0 0.265,-0.093 0.529,-0.185 0.267,-0.099 0.528,-0.087 0.529,-0.1 z"
               id="path83" /></g></g><g
           id="g85"><g
             id="g87"><g
               id="g89"><path
                 style="fill:none"
                 inkscape:connector-curvature="0"
                 d="m 458.198,291.21 c 0,0 -0.075,-0.142 -0.189,-0.354 -0.103,-0.205 -0.281,-0.505 -0.47,-0.811 -0.371,-0.603 -0.743,-1.205 -0.743,-1.205 l -12.479,8.319 c 0,0 0.17,0.283 0.34,0.566 0.173,0.248 0.363,0.659 0.361,0.642 l 13.18,-7.157 z"
                 id="path91" /></g><g
               id="g93"><path
                 style="fill:#231f20"
                 inkscape:connector-curvature="0"
                 d="m 452.033,294.001 c 0,0 -0.141,-0.25 -0.295,-0.497 -0.15,-0.247 -0.302,-0.494 -0.302,-0.494 l -1.268,0.803 c 0,0 0.141,0.229 0.281,0.459 0.144,0.228 0.276,0.464 0.276,0.464 l 1.308,-0.735 z"
                 id="path95" /></g><polygon
               style="fill:#231f20"
               points="450.916,295.069 450.814,294.876 452.125,294.148 452.233,294.35 "
               id="polygon97" /><polygon
               style="fill:#231f20"
               points="450.096,293.669 449.983,293.485 451.235,292.658 451.356,292.856 "
               id="polygon99" /></g></g><g
           id="g101"><path
             style="fill:#231f20"
             inkscape:connector-curvature="0"
             d="m 452.226,297.698 1.37,-0.609 c 0,0 0.167,0.396 0.458,1.09 0.072,0.173 0.153,0.365 0.24,0.574 0.08,0.212 0.166,0.442 0.259,0.687 0.091,0.246 0.188,0.507 0.289,0.783 0.051,0.138 0.104,0.279 0.156,0.424 0.048,0.147 0.096,0.298 0.145,0.453 0.098,0.309 0.199,0.63 0.305,0.962 l 0.079,0.251 0.04,0.127 0.036,0.13 c 0.045,0.176 0.09,0.354 0.137,0.535 0.091,0.362 0.186,0.734 0.281,1.114 0.069,0.391 0.141,0.791 0.212,1.197 l 0.054,0.307 0.026,0.154 0.018,0.165 0.054,0.621 0.055,0.628 0.015,0.158 0.007,0.161 0.009,0.325 0.017,0.653 0.004,0.164 0.002,0.082 -0.005,0.084 -0.021,0.339 -0.045,0.68 -0.003,0.043 -0.008,0.044 -0.017,0.088 -0.033,0.176 -0.068,0.352 -0.034,0.176 -0.018,0.088 -0.005,0.022 -0.006,0.022 -0.016,0.044 -0.133,0.357 -0.137,0.355 -0.018,0.044 -0.005,0.011 -0.006,0.01 -0.014,0.021 -0.052,0.084 -0.106,0.168 -0.217,0.333 -0.027,0.042 -0.014,0.021 -0.017,0.018 -0.068,0.071 -0.139,0.141 -0.281,0.276 -0.035,0.034 -0.009,0.008 -0.009,0.007 -0.02,0.013 -0.076,0.054 -0.152,0.105 -0.306,0.208 -0.039,0.026 -0.019,0.013 -0.02,0.01 -0.076,0.04 -0.152,0.079 -0.304,0.156 -0.076,0.039 -0.074,0.036 -0.147,0.063 -0.58,0.249 -0.556,0.226 c -0.355,0.152 -0.705,0.301 -1.048,0.447 -0.165,0.079 -0.328,0.157 -0.489,0.234 l -0.24,0.114 -0.117,0.061 -0.113,0.063 c -0.151,0.083 -0.301,0.167 -0.447,0.248 l -0.22,0.121 -0.054,0.03 -0.053,0.032 -0.103,0.067 c -0.272,0.178 -0.536,0.35 -0.789,0.515 -0.433,0.332 -0.829,0.636 -1.182,0.906 -0.134,0.111 -0.251,0.209 -0.347,0.289 -0.192,0.161 -0.303,0.252 -0.303,0.252 0,0 -0.446,-0.847 -1.115,-2.118 -0.28,-0.56 -0.584,-1.166 -0.905,-1.808 -0.309,-0.647 -0.634,-1.33 -0.971,-2.036 -0.163,-0.356 -0.328,-0.718 -0.496,-1.084 -0.163,-0.368 -0.328,-0.741 -0.494,-1.117 -0.162,-0.378 -0.325,-0.759 -0.489,-1.142 l -0.477,-1.158 -0.46,-1.167 c -0.146,-0.391 -0.292,-0.78 -0.437,-1.166 -0.138,-0.39 -0.273,-0.776 -0.408,-1.158 -0.127,-0.385 -0.252,-0.766 -0.375,-1.141 -0.113,-0.379 -0.225,-0.751 -0.333,-1.116 -0.099,-0.369 -0.196,-0.729 -0.29,-1.081 l -0.069,-0.262 -0.059,-0.262 c -0.038,-0.174 -0.076,-0.345 -0.114,-0.513 l -0.056,-0.25 -0.05,-0.247 c -0.029,-0.165 -0.058,-0.327 -0.085,-0.485 -0.027,-0.159 -0.055,-0.314 -0.081,-0.465 l -0.031,-0.228 -0.026,-0.224 c -0.018,-0.147 -0.034,-0.291 -0.05,-0.43 l -0.024,-0.206 -0.01,-0.101 -0.005,-0.102 c -0.012,-0.268 -0.023,-0.519 -0.034,-0.75 l -0.004,-0.086 -10e-4,-0.085 0.007,-0.167 c 0.005,-0.108 0.01,-0.212 0.014,-0.311 0.005,-0.099 0.009,-0.192 0.013,-0.279 l 0.006,-0.127 0.005,-0.061 0.009,-0.06 c 0.024,-0.156 0.046,-0.289 0.063,-0.396 0.035,-0.215 0.055,-0.33 0.055,-0.33 l 1.472,0.319 c 0,0 -0.012,0.072 -0.032,0.208 -0.012,0.067 -0.024,0.151 -0.041,0.249 -0.008,0.049 -0.017,0.102 -0.026,0.158 -0.002,0.059 -0.006,0.122 -0.009,0.188 -0.006,0.133 -0.012,0.28 -0.019,0.439 l -0.006,0.123 -0.003,0.063 0.002,0.065 c 0.004,0.088 0.008,0.18 0.013,0.275 0.009,0.189 0.019,0.392 0.029,0.604 0.025,0.215 0.052,0.441 0.079,0.677 l 0.021,0.179 0.01,0.091 0.016,0.092 c 0.021,0.123 0.044,0.249 0.066,0.376 0.022,0.127 0.045,0.257 0.067,0.389 l 0.035,0.199 0.045,0.202 c 0.061,0.271 0.122,0.549 0.186,0.833 0.073,0.283 0.148,0.573 0.226,0.867 l 0.12,0.444 0.134,0.449 0.135,0.455 0.145,0.458 c 0.101,0.306 0.201,0.614 0.303,0.923 l 0.327,0.925 0.341,0.921 c 0.117,0.305 0.234,0.609 0.351,0.911 0.119,0.3 0.238,0.599 0.355,0.893 0.122,0.293 0.242,0.582 0.36,0.867 0.244,0.567 0.48,1.114 0.704,1.634 0.233,0.516 0.455,1.003 0.659,1.453 0.424,0.893 0.777,1.636 1.024,2.157 0.127,0.259 0.227,0.462 0.295,0.601 0.034,0.069 0.062,0.122 0.079,0.158 l 0.007,0.013 0.002,0.005 10e-4,10e-4 v 0 c 2.965,0.589 1.656,0.329 2.355,0.468 l 10e-4,10e-4 0.003,0.005 0.002,0.003 c 0,0 0.308,-0.17 0.848,-0.469 l 0.104,-0.057 0.112,-0.053 c 0.076,-0.037 0.156,-0.075 0.239,-0.115 0.167,-0.079 0.348,-0.165 0.54,-0.257 0.385,-0.162 0.819,-0.345 1.294,-0.544 0.228,-0.096 0.465,-0.195 0.711,-0.298 l 0.182,-0.078 0.092,-0.04 0.085,-0.042 0.342,-0.176 0.087,-0.044 0.044,-0.022 0.037,-0.026 0.149,-0.104 0.151,-0.103 0.077,-0.051 0.01,-0.006 0.005,-0.004 0.004,-0.004 0.015,-0.016 0.029,-0.031 0.248,-0.245 0.032,-0.03 0.022,-0.038 0.046,-0.075 0.095,-0.149 0.1,-0.149 0.065,-0.182 0.14,-0.365 0.079,-0.422 0.041,-0.212 0.021,-0.106 0.008,-0.115 c 0.018,-0.308 0.035,-0.617 0.053,-0.928 l -0.024,-0.967 -0.009,-0.243 -0.021,-0.246 -0.043,-0.49 -0.043,-0.488 -0.021,-0.233 -0.041,-0.235 c -0.055,-0.314 -0.109,-0.625 -0.163,-0.932 l -0.04,-0.23 -0.02,-0.114 -0.029,-0.114 -0.114,-0.451 c -0.075,-0.298 -0.149,-0.591 -0.223,-0.878 l -0.054,-0.214 -0.065,-0.21 c -0.044,-0.139 -0.088,-0.276 -0.131,-0.411 -0.085,-0.271 -0.168,-0.534 -0.249,-0.789 -0.04,-0.127 -0.08,-0.252 -0.119,-0.375 -0.045,-0.121 -0.089,-0.24 -0.132,-0.357 -0.173,-0.466 -0.33,-0.894 -0.47,-1.272 -0.155,-0.373 -0.29,-0.699 -0.4,-0.966 -0.225,-0.536 -0.353,-0.842 -0.353,-0.842 z"
             id="path103" /></g></g></g></g><circle
     d="m 272.60201,427.29999 c 0,7.3498 -5.9582,13.308 -13.308,13.308 -7.34981,0 -13.308,-5.9582 -13.308,-13.308 0,-7.34981 5.95819,-13.308 13.308,-13.308 7.3498,0 13.308,5.95819 13.308,13.308 z"
     style="stroke:#000000;stroke-width:3;stroke-miterlimit:10"
     sodipodi:ry="13.308"
     sodipodi:rx="13.308"
     sodipodi:cy="427.29999"
     sodipodi:cx="259.29401"
     stroke-miterlimit="10"
     cx="259.29401"
     cy="427.29999"
     r="13.308"
     id="circle105" /><path
     style="fill:#d8d8db;stroke:#000000;stroke-width:3;stroke-miterlimit:10"
     inkscape:connector-curvature="0"
     stroke-miterlimit="10"
     d="m 257.069,416.462 c 0,0 13,0 9.5,13.5"
     id="path107" /><line
     style="fill:#d8d8db;stroke:#000000;stroke-width:3;stroke-miterlimit:10"
     stroke-miterlimit="10"
     x1="362.54099"
     y1="429.96201"
     x2="439.64001"
     y2="427.29999"
     id="line109" /><line
     style="fill:#d8d8db;stroke:#000000;stroke-width:3;stroke-miterlimit:10"
     stroke-miterlimit="10"
     x1="257.069"
     y1="257.5"
     x2="298.54401"
     y2="319.965"
     id="line111" /><line
     style="fill:#d8d8db;stroke:#000000;stroke-width:3;stroke-miterlimit:10"
     stroke-miterlimit="10"
     x1="259.29401"
     y1="427.29999"
     x2="162.5"
     y2="345.5"
     id="line113" /><text
     style="font-size:28.64039993px;font-family:MyriadPro-Regular"
     transform="translate(87.5007,268.3401)"
     font-size="28.6404"
     id="text115">Rubber band</text>
<text
     style="font-size:28.64039993px;font-family:MyriadPro-Regular"
     transform="translate(78.5007,345.5002)"
     font-size="28.6404"
     id="text117">Stone</text>
<text
     style="font-size:28.64039993px;font-family:MyriadPro-Regular"
     transform="translate(439.6399,435.4998)"
     font-size="28.6404"
     id="text119">Stick</text>
</g></svg>