<?xml version="1.0" encoding="UTF-8" standalone="no"?>
<!-- Generator: Adobe Illustrator 16.0.0, SVG Export Plug-In . SVG Version: 6.00 Build 0)  -->

<svg
   xmlns:dc="http://purl.org/dc/elements/1.1/"
   xmlns:cc="http://creativecommons.org/ns#"
   xmlns:rdf="http://www.w3.org/1999/02/22-rdf-syntax-ns#"
   xmlns:svg="http://www.w3.org/2000/svg"
   xmlns="http://www.w3.org/2000/svg"
   xmlns:sodipodi="http://sodipodi.sourceforge.net/DTD/sodipodi-0.dtd"
   xmlns:inkscape="http://www.inkscape.org/namespaces/inkscape"
   version="1.0"
   id="Layer_1"
   x="0px"
   y="0px"
   viewBox="0 0 430.08614 359.8"
   enable-background="new 0 0 437 54"
   xml:space="preserve"
   inkscape:version="0.48.4 r9939"
   width="100%"
   height="100%"
   sodipodi:docname="canvas.svg"><metadata
   id="metadata110"><rdf:RDF><cc:Work
       rdf:about=""><dc:format>image/svg+xml</dc:format><dc:type
         rdf:resource="http://purl.org/dc/dcmitype/StillImage" /><dc:title></dc:title></cc:Work></rdf:RDF></metadata><defs
   id="defs108" /><sodipodi:namedview
   pagecolor="#ffffff"
   bordercolor="#666666"
   borderopacity="1"
   objecttolerance="10"
   gridtolerance="10"
   guidetolerance="10"
   inkscape:pageopacity="0"
   inkscape:pageshadow="2"
   inkscape:window-width="640"
   inkscape:window-height="480"
   id="namedview106"
   showgrid="false"
   inkscape:zoom="0.65446224"
   inkscape:cx="173.78995"
   inkscape:cy="130.5014"
   inkscape:window-x="345"
   inkscape:window-y="58"
   inkscape:window-maximized="0"
   inkscape:current-layer="Layer_1"
   fit-margin-top="0"
   fit-margin-left="0"
   fit-margin-right="0"
   fit-margin-bottom="0"
   showborder="false"
   inkscape:showpageshadow="false" />

<g
   transform="translate(-161.09375,-187.441)"
   id="Layer_2"><path
     style="fill:#131111;stroke:#000000;stroke-width:4;stroke-miterlimit:10"
     inkscape:connector-curvature="0"
     stroke-miterlimit="10"
     d="m 229.094,209.6 h 69.574 17.947 l 11.612,3.9 c 0,0 7.743,1.765 15.311,12.671 26.606,38.349 78.308,141.501 2.655,291.075 -2.476,4.896 -8.349,9.843 -11.104,14.838 H 325.06 l -26.392,3 -58.491,-3"
     id="path11" /><ellipse
     d="m 316.09,370.84201 c 0,89.0515 -34.24843,161.242 -76.49601,161.242 -42.24757,0 -76.496,-72.1905 -76.496,-161.242 0,-89.0515 34.24843,-161.242 76.496,-161.242 42.24758,0 76.49601,72.1905 76.49601,161.242 z"
     style="fill:#d8d8db;stroke:#000000;stroke-width:4;stroke-miterlimit:10"
     sodipodi:ry="161.242"
     sodipodi:rx="76.496002"
     sodipodi:cy="370.84201"
     sodipodi:cx="239.59399"
     stroke-miterlimit="10"
     cx="239.59399"
     cy="370.84201"
     rx="76.496002"
     ry="161.242"
     id="ellipse13" /><ellipse
     d="m 270.09399,372.34201 c 0,51.91477 -18.35632,94 -41,94 -22.64367,0 -41,-42.08523 -41,-94 0,-51.91477 18.35633,-94 41,-94 22.64368,0 41,42.08523 41,94 z"
     style="fill:none;stroke:#000000;stroke-width:4;stroke-miterlimit:10"
     sodipodi:ry="94"
     sodipodi:rx="41"
     sodipodi:cy="372.34201"
     sodipodi:cx="229.09399"
     stroke-miterlimit="10"
     cx="229.09399"
     cy="372.34201"
     rx="41"
     ry="94"
     id="ellipse15" /><g
     id="g17"><g
       id="g19"><g
         id="g21"><g
           id="g23"><g
             id="g25"><g
               id="g27"><path
                 style="fill:none"
                 inkscape:connector-curvature="0"
                 d="m 265.026,230.899 c 0.008,-0.016 -0.019,0.042 0,0.002 -0.129,-0.038 -0.304,-0.115 -0.436,-0.229 -0.095,-0.092 -0.06,-0.028 -0.076,-0.038 -0.005,0.004 -0.006,0.002 -0.002,-0.005 0.145,0.097 1.2,1.049 2.474,2.667 1.288,1.608 2.81,3.821 4.3,6.261 1.499,2.435 2.976,5.124 4.325,7.733 1.354,2.602 2.583,5.138 3.615,7.35 2.066,4.427 3.379,7.503 3.379,7.503 l 41.284,-17.892 c 0,0 -1.474,-3.461 -3.916,-8.695 -1.222,-2.617 -2.702,-5.679 -4.423,-8.988 -1.712,-3.307 -3.651,-6.856 -5.873,-10.477 -2.219,-3.62 -4.684,-7.304 -7.555,-10.902 -2.876,-3.588 -6.169,-7.138 -10.256,-10.287 -0.54,-0.394 -1.068,-0.779 -1.584,-1.156 -0.538,-0.375 -0.981,-0.716 -1.618,-1.089 -1.184,-0.72 -2.348,-1.39 -3.421,-1.954 -0.983,-0.452 -1.913,-0.858 -2.777,-1.221 -0.86,-0.374 -1.691,-0.601 -2.427,-0.853 -1.473,-0.513 -2.673,-0.711 -3.478,-0.908 -0.808,-0.183 -1.239,-0.28 -1.239,-0.28 l -10.296,43.458 z"
                 id="path29" /></g><g
               id="g31"><path
                 style="fill:#231f20"
                 inkscape:connector-curvature="0"
                 d="m 279.732,217.145 c 0,0 1.291,1.252 3.012,3.417 1.734,2.146 3.87,5.208 5.822,8.417 1.962,3.202 3.767,6.522 5.063,9.047 1.305,2.52 2.133,4.226 2.132,4.227 l 4.042,-1.978 c 0,0 -0.843,-1.739 -2.179,-4.319 -1.327,-2.583 -3.181,-5.995 -5.22,-9.323 -2.028,-3.333 -4.276,-6.566 -6.152,-8.888 -1.855,-2.334 -3.316,-3.758 -3.316,-3.758 l -3.204,3.158 z"
                 id="path33" /></g><path
               style="fill:#231f20"
               inkscape:connector-curvature="0"
               d="m 271.674,211.947 1.484,-4.233 c 0,0 0.406,0.112 1.014,0.279 0.592,0.216 1.363,0.551 2.13,0.908 0.74,0.438 1.517,0.847 2.031,1.215 0.511,0.371 0.852,0.618 0.852,0.618 l -2.671,3.622 c 0,0 -0.278,-0.203 -0.694,-0.507 -0.417,-0.302 -1.006,-0.594 -1.576,-0.946 -0.617,-0.283 -1.256,-0.562 -1.737,-0.737 -0.5,-0.132 -0.833,-0.219 -0.833,-0.219 z"
               id="path35" /><path
               style="fill:#231f20"
               inkscape:connector-curvature="0"
               d="m 297.678,246.355 4.078,-1.904 c 0,0 0.646,1.402 1.291,2.804 0.631,1.408 1.261,2.815 1.261,2.815 l -4.116,1.819 c 0,0 -0.622,-1.387 -1.243,-2.775 -0.636,-1.379 -1.271,-2.759 -1.271,-2.759 z"
               id="path37" /></g></g><g
           id="g39"><g
             id="g41"><g
               id="g43"><path
                 style="fill:none"
                 inkscape:connector-curvature="0"
                 d="m 282.603,262.144 c 0,0 1.331,3.039 3.25,7.74 0.958,2.355 2.064,5.12 3.238,8.133 1.199,3.109 2.478,6.426 3.757,9.742 1.087,2.991 2.175,5.981 3.195,8.785 0.545,1.359 0.868,2.757 1.269,4.043 0.382,1.295 0.743,2.519 1.076,3.649 0.328,1.133 0.658,2.155 0.903,3.091 0.224,0.948 0.419,1.775 0.581,2.456 0.324,1.361 0.509,2.139 0.509,2.139 l 43.763,-10.452 c 0,0 -0.228,-0.951 -0.625,-2.614 -0.199,-0.831 -0.441,-1.84 -0.72,-2.999 -0.303,-1.158 -0.711,-2.467 -1.123,-3.894 -0.42,-1.426 -0.876,-2.971 -1.358,-4.605 -0.506,-1.628 -0.938,-3.37 -1.612,-5.115 -0.633,-1.755 -1.287,-3.569 -1.951,-5.412 -0.334,-0.921 -0.671,-1.849 -1.009,-2.78 -0.329,-0.896 -0.708,-1.968 -0.978,-2.641 -1.277,-3.314 -2.556,-6.628 -3.754,-9.735 -1.244,-3.194 -2.447,-6.203 -3.498,-8.785 -2.108,-5.169 -3.628,-8.64 -3.628,-8.64 l -41.285,17.894 z"
                 id="path45" /></g><g
               id="g47"><path
                 style="fill:#231f20"
                 inkscape:connector-curvature="0"
                 d="m 306.182,266.126 c 0,0 0.7,1.774 1.75,4.437 1.033,2.679 2.41,6.251 3.788,9.823 1.294,3.561 2.589,7.121 3.56,9.792 0.515,1.323 0.803,2.473 1.047,3.264 0.234,0.794 0.368,1.248 0.368,1.248 l 4.301,-1.322 c 0,0 -0.137,-0.464 -0.377,-1.277 -0.249,-0.81 -0.546,-1.985 -1.071,-3.341 -0.991,-2.727 -2.313,-6.362 -3.635,-9.998 -1.377,-3.572 -2.755,-7.144 -3.788,-9.823 -1.057,-2.681 -1.762,-4.468 -1.762,-4.468 l -4.181,1.665 z"
                 id="path49" /></g><polygon
               style="fill:#231f20"
               points="306.224,254.488 308.594,260.171 304.429,261.874 302.084,256.251 "
               id="polygon51" /><path
               style="fill:#231f20"
               inkscape:connector-curvature="0"
               d="m 317.939,299.029 4.331,-1.22 c 0,0 0.436,1.486 0.872,2.973 0.359,1.504 0.718,3.008 0.718,3.008 l -4.365,1.093 c 0,0 -0.352,-1.475 -0.702,-2.949 -0.428,-1.453 -0.854,-2.905 -0.854,-2.905 z"
               id="path53" /></g></g><g
           id="g55"><g
             id="g57"><g
               id="g59"><path
                 style="fill:none"
                 inkscape:connector-curvature="0"
                 d="m 300.38,311.923 c 0,0 0.186,0.777 0.511,2.138 0.164,0.68 0.362,1.506 0.59,2.454 0.188,0.975 0.4,2.075 0.631,3.274 0.23,1.201 0.48,2.502 0.744,3.878 0.256,1.383 0.573,2.806 0.787,4.365 0.465,3.091 1.004,6.352 1.476,9.676 0.428,3.365 0.855,6.729 1.256,9.884 0.349,3.22 0.675,6.225 0.954,8.8 0.522,5.18 0.872,8.633 0.872,8.633 l 44.789,-4.286 c 0,0 -0.365,-3.617 -0.913,-9.043 -0.296,-2.723 -0.641,-5.899 -1.01,-9.303 -0.438,-3.455 -0.907,-7.139 -1.375,-10.824 -0.525,-3.711 -1.139,-7.464 -1.672,-10.96 -0.244,-1.741 -0.614,-3.467 -0.913,-5.086 -0.312,-1.623 -0.605,-3.157 -0.878,-4.573 -0.275,-1.417 -0.529,-2.715 -0.753,-3.865 -0.274,-1.159 -0.514,-2.169 -0.711,-3.001 -0.396,-1.664 -0.622,-2.614 -0.622,-2.614 l -43.763,10.453 z"
                 id="path61" /></g><g
               id="g63"><path
                 style="fill:#231f20"
                 inkscape:connector-curvature="0"
                 d="m 322.766,319.915 c 0,0 0.09,0.466 0.246,1.282 0.153,0.816 0.399,1.977 0.599,3.391 0.426,2.822 1.04,6.574 1.578,10.343 0.479,3.781 0.96,7.562 1.319,10.397 0.309,2.847 0.515,4.744 0.515,4.744 l 4.473,-0.493 c 0,0 -0.207,-1.908 -0.517,-4.771 -0.363,-2.861 -0.848,-6.677 -1.332,-10.492 -0.544,-3.811 -1.166,-7.616 -1.599,-10.473 -0.202,-1.43 -0.451,-2.612 -0.606,-3.442 -0.159,-0.829 -0.25,-1.303 -0.25,-1.303 l -4.426,0.817 z"
                 id="path65" /></g><path
               style="fill:#231f20"
               inkscape:connector-curvature="0"
               d="m 320.593,309.49 4.388,-1 c 0,0 0.358,1.504 0.717,3.009 0.291,1.516 0.582,3.032 0.582,3.032 l -4.411,0.89 c 0,0 -0.285,-1.491 -0.571,-2.983 -0.352,-1.473 -0.705,-2.948 -0.705,-2.948 z"
               id="path67" /><polygon
               style="fill:#231f20"
               points="331.954,354.137 332.575,360.245 328.097,360.685 327.479,354.605 "
               id="polygon69" /></g></g><g
           id="g71"><g
             id="g73"><g
               id="g75"><path
                 style="fill:none"
                 inkscape:connector-curvature="0"
                 d="m 308.2,365.026 c 0,0 0.085,0.865 0.234,2.379 0.073,0.755 0.162,1.672 0.265,2.725 0.076,1.011 0.161,2.152 0.255,3.396 0.193,2.484 0.418,5.385 0.569,8.557 0.087,1.578 0.176,3.208 0.267,4.865 0.058,1.656 0.115,3.338 0.174,5.02 0.242,6.729 0.235,13.441 0.168,18.466 10e-4,2.517 -0.126,4.598 -0.153,6.063 -0.046,1.462 -0.072,2.298 -0.072,2.298 l 44.961,1.733 c 0,0 0.029,-0.94 0.082,-2.585 0.033,-1.644 0.168,-3.999 0.172,-6.813 0.077,-5.633 0.081,-13.137 -0.187,-20.612 -0.065,-1.869 -0.131,-3.738 -0.195,-5.578 -0.1,-1.836 -0.198,-3.643 -0.293,-5.391 -0.169,-3.483 -0.421,-6.782 -0.642,-9.611 -0.107,-1.413 -0.206,-2.708 -0.294,-3.856 -0.106,-1.103 -0.2,-2.065 -0.277,-2.856 -0.155,-1.581 -0.244,-2.483 -0.244,-2.483 l -44.79,4.283 z"
                 id="path77" /></g><g
               id="g79"><path
                 style="fill:#231f20"
                 inkscape:connector-curvature="0"
                 d="m 329.467,376.086 c 0,0 0.032,0.475 0.09,1.305 0.046,0.832 0.111,2.021 0.191,3.446 0.079,1.426 0.171,3.09 0.271,4.873 0.063,1.784 0.129,3.687 0.196,5.59 0.17,3.805 0.157,7.613 0.214,10.469 0.029,1.428 0.023,2.617 0.011,3.45 -0.008,0.833 -0.012,1.309 -0.012,1.309 l 4.5,0.021 c 0,0 0.004,-0.481 0.012,-1.323 0.013,-0.843 0.019,-2.046 -0.012,-3.489 -0.056,-2.886 -0.044,-6.737 -0.216,-10.582 -0.067,-1.923 -0.135,-3.846 -0.198,-5.649 -0.1,-1.801 -0.193,-3.482 -0.273,-4.923 -0.08,-1.441 -0.146,-2.642 -0.193,-3.482 -0.058,-0.841 -0.091,-1.321 -0.091,-1.321 l -4.49,0.306 z"
                 id="path81" /></g><path
               style="fill:#231f20"
               inkscape:connector-curvature="0"
               d="m 328.565,365.437 4.48,-0.418 c 0,0 0.146,1.528 0.294,3.056 0.116,1.537 0.232,3.073 0.232,3.073 l -4.485,0.364 c 0,0 -0.115,-1.518 -0.229,-3.035 -0.146,-1.52 -0.292,-3.04 -0.292,-3.04 z"
               id="path83" /><path
               style="fill:#231f20"
               inkscape:connector-curvature="0"
               d="m 330.354,411.07 4.499,0.073 c 0,0 0,1.54 -0.063,3.079 -0.049,1.54 -0.098,3.079 -0.098,3.079 l -4.497,-0.145 c 0,0 0.048,-1.521 0.097,-3.043 0.062,-1.52 0.062,-3.043 0.062,-3.043 z"
               id="path85" /></g></g><g
           id="g87"><g
             id="g89"><g
               id="g91"><path
                 style="fill:none"
                 inkscape:connector-curvature="0"
                 d="m 309.906,418.794 c 0,0 -0.03,0.835 -0.084,2.296 -0.082,1.456 -0.198,3.537 -0.338,6.034 -0.103,2.504 -0.414,5.389 -0.642,8.499 -0.236,3.109 -0.666,6.386 -0.995,9.685 -0.436,3.271 -0.857,6.549 -1.32,9.599 -0.523,3.033 -0.94,5.886 -1.41,8.294 -0.475,2.405 -0.871,4.41 -1.148,5.813 -0.261,1.409 -0.469,2.192 -0.469,2.192 l 43.954,9.616 c 10e-4,0 0.243,-0.937 0.554,-2.584 0.325,-1.646 0.79,-3.999 1.348,-6.822 0.547,-2.824 1.041,-6.124 1.641,-9.658 0.539,-3.535 1.028,-7.309 1.524,-11.08 0.387,-3.771 0.866,-7.546 1.141,-11.08 0.266,-3.533 0.606,-6.836 0.729,-9.658 0.157,-2.824 0.288,-5.178 0.38,-6.826 0.062,-1.646 0.097,-2.586 0.097,-2.586 l -44.962,-1.734 z"
                 id="path93" /></g><g
               id="g95"><path
                 style="fill:#231f20"
                 inkscape:connector-curvature="0"
                 d="m 329.419,432.571 c 0,0 -0.154,1.896 -0.386,4.738 -0.198,2.848 -0.684,6.62 -1.067,10.403 -0.499,3.768 -0.985,7.539 -1.426,10.354 -0.467,2.812 -0.777,4.686 -0.777,4.686 l 4.436,0.758 c 0,0 0.315,-1.903 0.789,-4.757 0.446,-2.858 0.94,-6.683 1.446,-10.505 0.39,-3.834 0.881,-7.66 1.083,-10.543 0.233,-2.88 0.39,-4.801 0.39,-4.801 l -4.488,-0.333 z"
                 id="path97" /></g><polygon
               style="fill:#231f20"
               points="334.529,422.112 334.185,428.265 329.694,427.989 330.033,421.911 "
               id="polygon99" /><polygon
               style="fill:#231f20"
               points="329.365,468.037 328.169,474.094 323.765,473.172 324.942,467.211 "
               id="polygon101" /></g></g><g
           id="g103"><g
             id="g105"><g
               id="g107"><path
                 style="fill:none"
                 inkscape:connector-curvature="0"
                 d="m 303.5,471.206 c 0,0 -0.184,0.792 -0.505,2.179 -0.339,1.379 -0.738,3.384 -1.364,5.729 -0.653,2.332 -1.307,5.102 -2.189,7.985 -0.909,2.88 -1.752,5.962 -2.885,9.025 -0.533,1.534 -1.067,3.068 -1.592,4.579 -0.345,1.007 -0.688,2.005 -1.026,2.991 l -0.252,0.742 -0.216,0.677 c -0.143,0.448 -0.285,0.894 -0.426,1.336 -1.106,3.498 -1.918,6.23 -2.535,7.934 -0.159,0.472 -0.304,0.787 -0.441,1.163 -0.137,0.354 -0.259,0.718 -0.39,0.972 -0.264,0.54 -0.435,1.058 -0.648,1.416 -0.397,0.742 -0.602,1.179 -0.602,1.179 l 39.336,21.844 c 0,0 0.597,-1.15 1.64,-3.163 0.532,-1.007 1.045,-2.254 1.686,-3.681 0.331,-0.726 0.598,-1.447 0.9,-2.226 0.289,-0.762 0.637,-1.625 0.908,-2.415 1.18,-3.316 2.118,-6.553 3.029,-9.403 0.112,-0.352 0.225,-0.706 0.339,-1.063 l 0.171,-0.536 0.162,-0.471 c 0.216,-0.636 0.435,-1.278 0.654,-1.927 0.625,-1.793 1.26,-3.614 1.895,-5.436 1.319,-3.61 2.382,-7.38 3.465,-10.857 1.061,-3.489 1.853,-6.772 2.626,-9.575 0.743,-2.806 1.223,-5.158 1.622,-6.799 0.379,-1.643 0.595,-2.582 0.595,-2.582 L 303.5,471.206 z"
                 id="path109" /></g><g
               id="g111"><path
                 style="fill:#231f20"
                 inkscape:connector-curvature="0"
                 d="m 320.189,488.143 c 0,0 -0.123,0.458 -0.337,1.261 -0.216,0.801 -0.505,1.951 -0.939,3.306 -0.864,2.71 -1.86,6.371 -3.173,9.937 -0.624,1.795 -1.248,3.59 -1.833,5.273 -0.6,1.735 -1.149,3.355 -1.576,4.736 -0.857,2.743 -1.429,4.571 -1.429,4.571 l 4.292,1.353 c 0,0 0.57,-1.825 1.426,-4.563 0.421,-1.362 0.949,-2.914 1.52,-4.57 0.594,-1.707 1.228,-3.528 1.86,-5.349 1.333,-3.625 2.352,-7.36 3.231,-10.121 0.442,-1.381 0.737,-2.552 0.956,-3.368 0.219,-0.815 0.344,-1.282 0.344,-1.282 l -4.342,-1.184 z"
                 id="path113" /></g><path
               style="fill:#231f20"
               inkscape:connector-curvature="0"
               d="m 322.734,477.802 4.387,1.001 c 0,0 -0.348,1.504 -0.695,3.009 -0.174,0.752 -0.348,1.504 -0.479,2.068 -0.147,0.561 -0.246,0.934 -0.246,0.934 l -4.363,-1.103 c 0,0 0.097,-0.366 0.242,-0.917 0.128,-0.555 0.299,-1.294 0.47,-2.033 0.342,-1.479 0.684,-2.959 0.684,-2.959 z"
               id="path115" /><path
               style="fill:#231f20"
               inkscape:connector-curvature="0"
               d="m 309.461,521.467 4.233,1.524 c 0,0 -0.553,1.486 -1.155,2.959 -0.324,0.73 -0.649,1.461 -0.893,2.009 -0.117,0.275 -0.226,0.501 -0.31,0.654 -0.08,0.156 -0.126,0.245 -0.126,0.245 l -4.038,-1.987 c 0,0 0.042,-0.081 0.115,-0.223 0.078,-0.141 0.177,-0.346 0.284,-0.599 0.223,-0.502 0.52,-1.17 0.816,-1.839 0.557,-1.36 1.074,-2.743 1.074,-2.743 z"
               id="path117" /></g></g></g></g></g><g
     id="g119"><g
       id="g121"><g
         id="g123"><g
           id="g125"><g
             id="g127"><g
               id="g129"><path
                 style="fill:none"
                 inkscape:connector-curvature="0"
                 d="m 279.723,237.182 c 0.008,-0.016 -0.019,0.042 0,0.002 -0.129,-0.038 -0.304,-0.115 -0.436,-0.229 -0.095,-0.092 -0.06,-0.028 -0.076,-0.038 -0.005,0.004 -0.006,0.002 -0.002,-0.005 0.145,0.097 1.2,1.049 2.474,2.667 1.288,1.608 2.81,3.821 4.3,6.262 1.499,2.435 2.976,5.123 4.325,7.732 1.354,2.602 2.583,5.138 3.615,7.35 2.066,4.427 3.379,7.503 3.378,7.503 l 41.284,-17.892 c 0,0 -1.474,-3.462 -3.916,-8.695 -1.222,-2.617 -2.702,-5.679 -4.423,-8.988 -1.712,-3.307 -3.651,-6.856 -5.873,-10.477 -2.219,-3.619 -4.684,-7.304 -7.555,-10.902 -2.876,-3.588 -6.17,-7.138 -10.257,-10.287 -0.539,-0.394 -1.067,-0.779 -1.583,-1.156 -0.538,-0.375 -0.981,-0.716 -1.618,-1.089 -1.184,-0.72 -2.348,-1.39 -3.421,-1.954 -0.983,-0.452 -1.913,-0.858 -2.777,-1.221 -0.86,-0.374 -1.691,-0.602 -2.426,-0.853 -1.473,-0.513 -2.673,-0.711 -3.479,-0.908 -0.808,-0.183 -1.239,-0.28 -1.239,-0.28 l -10.295,43.458 z"
                 id="path131" /></g><g
               id="g133"><path
                 style="fill:#231f20"
                 inkscape:connector-curvature="0"
                 d="m 294.429,223.428 c 0,0 1.291,1.252 3.012,3.417 1.734,2.146 3.87,5.209 5.822,8.417 1.962,3.202 3.767,6.523 5.064,9.047 1.305,2.52 2.132,4.226 2.132,4.226 l 4.042,-1.978 c 0,0 -0.843,-1.739 -2.179,-4.319 -1.327,-2.583 -3.181,-5.996 -5.22,-9.324 -2.028,-3.333 -4.276,-6.566 -6.152,-8.888 -1.855,-2.334 -3.316,-3.758 -3.316,-3.758 l -3.205,3.16 z"
                 id="path135" /></g><path
               style="fill:#231f20"
               inkscape:connector-curvature="0"
               d="m 286.371,218.23 1.484,-4.233 c 0,0 0.406,0.112 1.014,0.279 0.592,0.216 1.363,0.551 2.13,0.908 0.74,0.438 1.517,0.847 2.031,1.215 0.511,0.371 0.852,0.618 0.852,0.618 l -2.671,3.622 c 0,0 -0.278,-0.203 -0.694,-0.507 -0.417,-0.302 -1.006,-0.594 -1.576,-0.946 -0.617,-0.283 -1.256,-0.562 -1.737,-0.737 -0.5,-0.131 -0.833,-0.219 -0.833,-0.219 z"
               id="path137" /><path
               style="fill:#231f20"
               inkscape:connector-curvature="0"
               d="m 312.375,252.638 4.078,-1.904 c 0,0 0.645,1.402 1.29,2.804 0.631,1.407 1.261,2.815 1.261,2.815 l -4.115,1.819 c 0,0 -0.622,-1.387 -1.243,-2.774 -0.635,-1.38 -1.271,-2.76 -1.271,-2.76 z"
               id="path139" /></g></g><g
           id="g141"><g
             id="g143"><g
               id="g145"><path
                 style="fill:none"
                 inkscape:connector-curvature="0"
                 d="m 297.3,268.427 c 0,0 1.332,3.039 3.25,7.74 0.958,2.355 2.064,5.12 3.238,8.133 1.199,3.109 2.478,6.426 3.757,9.742 1.087,2.991 2.175,5.981 3.194,8.785 0.546,1.359 0.868,2.757 1.269,4.044 0.382,1.294 0.743,2.519 1.076,3.648 0.329,1.134 0.659,2.155 0.903,3.091 0.225,0.948 0.42,1.775 0.581,2.456 0.323,1.361 0.508,2.139 0.508,2.139 l 43.764,-10.452 c 0,0 -0.228,-0.951 -0.625,-2.614 -0.199,-0.831 -0.441,-1.84 -0.72,-2.999 -0.304,-1.158 -0.711,-2.467 -1.123,-3.894 -0.42,-1.426 -0.876,-2.971 -1.358,-4.605 -0.506,-1.628 -0.938,-3.37 -1.613,-5.115 -0.632,-1.755 -1.286,-3.569 -1.95,-5.412 -0.334,-0.92 -0.671,-1.849 -1.009,-2.78 -0.329,-0.896 -0.708,-1.967 -0.978,-2.641 -1.278,-3.314 -2.556,-6.628 -3.754,-9.735 -1.244,-3.194 -2.447,-6.203 -3.498,-8.785 -2.108,-5.169 -3.628,-8.64 -3.628,-8.64 L 297.3,268.427 z"
                 id="path147" /></g><g
               id="g149"><path
                 style="fill:#231f20"
                 inkscape:connector-curvature="0"
                 d="m 320.88,272.409 c 0,0 0.699,1.775 1.749,4.437 1.033,2.679 2.41,6.251 3.788,9.823 1.294,3.561 2.589,7.122 3.56,9.792 0.515,1.323 0.803,2.473 1.047,3.264 0.234,0.794 0.368,1.248 0.368,1.248 l 4.301,-1.322 c 0,0 -0.137,-0.464 -0.377,-1.277 -0.249,-0.809 -0.546,-1.985 -1.071,-3.341 -0.991,-2.727 -2.313,-6.362 -3.635,-9.998 -1.378,-3.572 -2.755,-7.144 -3.788,-9.823 -1.057,-2.681 -1.762,-4.467 -1.762,-4.467 l -4.18,1.664 z"
                 id="path151" /></g><polygon
               style="fill:#231f20"
               points="320.921,260.771 323.291,266.454 319.126,268.157 316.781,262.534 "
               id="polygon153" /><path
               style="fill:#231f20"
               inkscape:connector-curvature="0"
               d="m 332.635,305.313 4.332,-1.22 c 0,0 0.436,1.486 0.872,2.972 0.359,1.504 0.718,3.008 0.718,3.008 l -4.365,1.093 c 0,0 -0.352,-1.475 -0.702,-2.949 -0.427,-1.452 -0.855,-2.904 -0.855,-2.904 z"
               id="path155" /></g></g><g
           id="g157"><g
             id="g159"><g
               id="g161"><path
                 style="fill:none"
                 inkscape:connector-curvature="0"
                 d="m 315.076,318.206 c 0,0 0.187,0.778 0.512,2.139 0.163,0.68 0.362,1.506 0.59,2.454 0.188,0.975 0.399,2.074 0.631,3.274 0.23,1.201 0.479,2.502 0.744,3.878 0.256,1.383 0.573,2.806 0.786,4.365 0.466,3.091 1.004,6.352 1.476,9.676 0.428,3.365 0.855,6.73 1.257,9.884 0.349,3.22 0.675,6.225 0.954,8.801 0.522,5.18 0.872,8.633 0.872,8.633 l 44.789,-4.287 c 0,0 -0.365,-3.617 -0.913,-9.042 -0.296,-2.723 -0.641,-5.9 -1.01,-9.304 -0.438,-3.454 -0.907,-7.139 -1.375,-10.824 -0.525,-3.711 -1.139,-7.464 -1.672,-10.96 -0.244,-1.742 -0.614,-3.467 -0.913,-5.086 -0.312,-1.623 -0.605,-3.157 -0.878,-4.573 -0.275,-1.416 -0.529,-2.714 -0.753,-3.865 -0.274,-1.159 -0.514,-2.169 -0.711,-3.001 -0.396,-1.663 -0.622,-2.614 -0.622,-2.614 l -43.764,10.452 z"
                 id="path163" /></g><g
               id="g165"><path
                 style="fill:#231f20"
                 inkscape:connector-curvature="0"
                 d="m 337.463,326.199 c 0,0 0.09,0.466 0.246,1.282 0.153,0.816 0.399,1.977 0.599,3.391 0.426,2.821 1.04,6.574 1.578,10.343 0.479,3.781 0.96,7.562 1.319,10.397 0.309,2.847 0.515,4.745 0.515,4.745 l 4.473,-0.493 c 0,0 -0.207,-1.908 -0.517,-4.771 -0.363,-2.861 -0.848,-6.676 -1.332,-10.492 -0.544,-3.811 -1.166,-7.616 -1.599,-10.472 -0.202,-1.43 -0.451,-2.612 -0.606,-3.442 -0.159,-0.829 -0.25,-1.303 -0.25,-1.303 l -4.426,0.815 z"
                 id="path167" /></g><path
               style="fill:#231f20"
               inkscape:connector-curvature="0"
               d="m 335.29,315.774 4.388,-1 c 0,0 0.358,1.504 0.717,3.009 0.291,1.516 0.582,3.032 0.582,3.032 l -4.411,0.891 c 0,0 -0.285,-1.492 -0.571,-2.983 -0.352,-1.474 -0.705,-2.949 -0.705,-2.949 z"
               id="path169" /><polygon
               style="fill:#231f20"
               points="346.652,360.421 347.273,366.53 342.794,366.969 342.176,360.889 "
               id="polygon171" /></g></g><g
           id="g173"><g
             id="g175"><g
               id="g177"><path
                 style="fill:none"
                 inkscape:connector-curvature="0"
                 d="m 322.898,371.31 c 0,0 0.085,0.865 0.234,2.378 0.073,0.755 0.162,1.673 0.265,2.725 0.076,1.011 0.161,2.152 0.255,3.396 0.193,2.484 0.418,5.385 0.569,8.557 0.087,1.578 0.176,3.208 0.267,4.865 0.058,1.656 0.115,3.337 0.174,5.019 0.242,6.729 0.235,13.441 0.168,18.466 0.001,2.517 -0.126,4.599 -0.153,6.063 -0.046,1.462 -0.072,2.298 -0.072,2.298 l 44.961,1.733 c 0,0 0.029,-0.94 0.082,-2.585 0.033,-1.645 0.168,-3.999 0.172,-6.813 0.077,-5.633 0.081,-13.137 -0.187,-20.612 -0.065,-1.87 -0.131,-3.739 -0.195,-5.579 -0.1,-1.836 -0.198,-3.643 -0.293,-5.391 -0.169,-3.483 -0.421,-6.782 -0.642,-9.612 -0.107,-1.413 -0.206,-2.708 -0.294,-3.856 -0.106,-1.103 -0.2,-2.064 -0.277,-2.856 -0.155,-1.58 -0.244,-2.483 -0.244,-2.483 l -44.79,4.287 z"
                 id="path179" /></g><g
               id="g181"><path
                 style="fill:#231f20"
                 inkscape:connector-curvature="0"
                 d="m 344.164,382.37 c 0,0 0.032,0.474 0.09,1.305 0.046,0.832 0.111,2.021 0.191,3.447 0.079,1.426 0.171,3.09 0.271,4.873 0.063,1.784 0.129,3.687 0.196,5.59 0.17,3.805 0.157,7.613 0.214,10.469 0.029,1.428 0.023,2.617 0.011,3.45 -0.008,0.832 -0.012,1.309 -0.012,1.309 l 4.5,0.021 c 0,0 0.004,-0.481 0.012,-1.323 0.013,-0.843 0.019,-2.046 -0.012,-3.489 -0.056,-2.886 -0.044,-6.737 -0.216,-10.582 -0.067,-1.923 -0.135,-3.846 -0.198,-5.649 -0.1,-1.801 -0.193,-3.482 -0.273,-4.923 -0.08,-1.44 -0.146,-2.642 -0.193,-3.482 -0.058,-0.84 -0.091,-1.321 -0.091,-1.321 l -4.49,0.305 z"
                 id="path183" /></g><path
               style="fill:#231f20"
               inkscape:connector-curvature="0"
               d="m 343.262,371.72 4.48,-0.418 c 0,0 0.146,1.528 0.294,3.056 0.116,1.537 0.232,3.073 0.232,3.073 l -4.485,0.364 c 0,0 -0.115,-1.517 -0.229,-3.034 -0.146,-1.52 -0.292,-3.041 -0.292,-3.041 z"
               id="path185" /><path
               style="fill:#231f20"
               inkscape:connector-curvature="0"
               d="m 345.051,417.354 4.499,0.073 c 0,0 0,1.54 -0.063,3.079 -0.049,1.54 -0.098,3.079 -0.098,3.079 l -4.497,-0.145 c 0,0 0.048,-1.521 0.097,-3.043 0.062,-1.52 0.062,-3.043 0.062,-3.043 z"
               id="path187" /></g></g><g
           id="g189"><g
             id="g191"><g
               id="g193"><path
                 style="fill:none"
                 inkscape:connector-curvature="0"
                 d="m 324.604,425.078 c 0,0 -0.03,0.834 -0.084,2.296 -0.082,1.456 -0.198,3.537 -0.338,6.034 -0.103,2.504 -0.414,5.389 -0.642,8.499 -0.236,3.109 -0.666,6.386 -0.995,9.685 -0.436,3.271 -0.857,6.548 -1.32,9.599 -0.522,3.032 -0.94,5.886 -1.41,8.294 -0.475,2.405 -0.871,4.41 -1.147,5.813 -0.262,1.409 -0.47,2.192 -0.47,2.192 l 43.954,9.616 c 0,0 0.243,-0.937 0.554,-2.584 0.325,-1.647 0.79,-3.999 1.348,-6.822 0.547,-2.824 1.041,-6.124 1.641,-9.658 0.539,-3.535 1.028,-7.309 1.524,-11.081 0.387,-3.771 0.866,-7.545 1.141,-11.079 0.266,-3.533 0.606,-6.836 0.729,-9.658 0.157,-2.824 0.288,-5.179 0.38,-6.826 0.062,-1.646 0.097,-2.586 0.097,-2.586 l -44.962,-1.734 z"
                 id="path195" /></g><g
               id="g197"><path
                 style="fill:#231f20"
                 inkscape:connector-curvature="0"
                 d="m 344.116,438.854 c 0,0 -0.154,1.896 -0.386,4.739 -0.198,2.848 -0.684,6.619 -1.067,10.402 -0.499,3.769 -0.986,7.54 -1.426,10.355 -0.467,2.811 -0.777,4.686 -0.777,4.686 l 4.436,0.757 c 0,0 0.315,-1.902 0.789,-4.757 0.446,-2.857 0.94,-6.682 1.446,-10.504 0.39,-3.834 0.881,-7.66 1.083,-10.543 0.233,-2.881 0.39,-4.801 0.39,-4.801 l -4.488,-0.334 z"
                 id="path199" /></g><polygon
               style="fill:#231f20"
               points="349.226,428.396 348.882,434.55 344.391,434.273 344.731,428.195 "
               id="polygon201" /><polygon
               style="fill:#231f20"
               points="344.062,474.321 342.866,480.378 338.462,479.456 339.639,473.494 "
               id="polygon203" /></g></g><g
           id="g205"><g
             id="g207"><g
               id="g209"><path
                 style="fill:none"
                 inkscape:connector-curvature="0"
                 d="m 318.198,477.49 c 0,0 -0.184,0.792 -0.506,2.179 -0.339,1.379 -0.737,3.384 -1.363,5.729 -0.653,2.332 -1.308,5.102 -2.189,7.985 -0.909,2.879 -1.753,5.962 -2.886,9.025 -0.533,1.534 -1.066,3.068 -1.592,4.578 -0.346,1.007 -0.688,2.006 -1.027,2.993 l -0.252,0.741 -0.217,0.677 c -0.143,0.449 -0.284,0.895 -0.426,1.336 -1.106,3.498 -1.918,6.23 -2.535,7.935 -0.159,0.472 -0.304,0.787 -0.441,1.163 -0.138,0.354 -0.259,0.718 -0.39,0.971 -0.264,0.54 -0.435,1.059 -0.648,1.417 -0.397,0.741 -0.602,1.178 -0.602,1.178 l 39.336,21.844 c 0,0 0.597,-1.15 1.64,-3.163 0.532,-1.008 1.045,-2.255 1.686,-3.681 0.331,-0.727 0.598,-1.448 0.9,-2.227 0.289,-0.761 0.637,-1.625 0.908,-2.414 1.18,-3.316 2.118,-6.553 3.029,-9.404 0.112,-0.352 0.225,-0.706 0.339,-1.063 l 0.17,-0.535 0.163,-0.472 c 0.216,-0.635 0.434,-1.278 0.654,-1.926 0.625,-1.793 1.259,-3.614 1.894,-5.436 1.32,-3.61 2.382,-7.38 3.466,-10.856 1.061,-3.49 1.853,-6.773 2.625,-9.576 0.743,-2.806 1.224,-5.158 1.623,-6.799 0.379,-1.643 0.595,-2.582 0.595,-2.582 l -43.954,-9.617 z"
                 id="path211" /></g><g
               id="g213"><path
                 style="fill:#231f20"
                 inkscape:connector-curvature="0"
                 d="m 334.885,494.427 c 0,0 -0.122,0.458 -0.336,1.26 -0.216,0.802 -0.505,1.952 -0.939,3.307 -0.865,2.71 -1.86,6.371 -3.173,9.936 -0.624,1.796 -1.248,3.591 -1.834,5.273 -0.6,1.736 -1.149,3.356 -1.575,4.737 -0.857,2.743 -1.43,4.571 -1.43,4.571 l 4.293,1.353 c 0,0 0.57,-1.825 1.426,-4.563 0.421,-1.363 0.949,-2.914 1.52,-4.57 0.594,-1.707 1.227,-3.528 1.86,-5.35 1.333,-3.624 2.352,-7.359 3.231,-10.12 0.441,-1.381 0.736,-2.552 0.956,-3.368 0.219,-0.816 0.344,-1.282 0.344,-1.282 l -4.343,-1.184 z"
                 id="path215" /></g><path
               style="fill:#231f20"
               inkscape:connector-curvature="0"
               d="m 337.431,484.087 4.387,1.001 c 0,0 -0.348,1.504 -0.695,3.009 -0.174,0.752 -0.349,1.504 -0.479,2.068 -0.148,0.561 -0.247,0.934 -0.247,0.934 l -4.362,-1.103 c 0,0 0.097,-0.366 0.242,-0.917 0.128,-0.555 0.299,-1.294 0.47,-2.033 0.341,-1.48 0.684,-2.959 0.684,-2.959 z"
               id="path217" /><path
               style="fill:#231f20"
               inkscape:connector-curvature="0"
               d="m 324.157,527.751 4.234,1.524 c 0,0 -0.553,1.486 -1.155,2.959 -0.324,0.73 -0.649,1.461 -0.893,2.009 -0.117,0.275 -0.226,0.501 -0.31,0.654 -0.08,0.156 -0.126,0.245 -0.126,0.245 l -4.038,-1.987 c 0,0 0.042,-0.081 0.115,-0.223 0.078,-0.141 0.177,-0.346 0.284,-0.599 0.223,-0.502 0.52,-1.17 0.816,-1.839 0.557,-1.359 1.074,-2.743 1.073,-2.743 z"
               id="path219" /></g></g></g></g></g><g
     id="g221"><g
       id="g223"><g
         id="g225"><g
           id="g227"><g
             id="g229"><g
               id="g231"><path
                 style="fill:none"
                 inkscape:connector-curvature="0"
                 d="m 296.404,237.211 c 0.007,-0.016 -0.018,0.041 -10e-4,0.003 -0.101,-0.031 -0.292,-0.107 -0.417,-0.216 -0.092,-0.086 -0.08,-0.051 -0.086,-0.048 -0.005,0.005 -0.007,0.004 -0.004,-0.002 0.125,0.081 1.159,0.996 2.418,2.575 1.274,1.568 2.787,3.739 4.271,6.138 1.493,2.393 2.964,5.049 4.311,7.618 1.352,2.562 2.576,5.069 3.608,7.252 2.063,4.37 3.375,7.41 3.375,7.411 l 41.21,-18.06 c 0,0 -0.381,-0.859 -1.049,-2.363 -0.673,-1.505 -1.644,-3.656 -2.874,-6.25 -1.227,-2.593 -2.705,-5.625 -4.433,-8.904 -1.721,-3.278 -3.658,-6.791 -5.888,-10.379 -2.226,-3.585 -4.7,-7.236 -7.583,-10.8 -2.887,-3.553 -6.196,-7.067 -10.29,-10.171 -0.537,-0.387 -1.063,-0.766 -1.577,-1.136 -0.521,-0.365 -0.997,-0.709 -1.625,-1.073 -1.173,-0.701 -2.341,-1.372 -3.39,-1.903 -0.976,-0.444 -1.899,-0.842 -2.757,-1.198 -0.856,-0.359 -1.68,-0.587 -2.41,-0.832 -1.462,-0.503 -2.653,-0.691 -3.452,-0.885 -0.802,-0.178 -1.229,-0.272 -1.229,-0.272 l -10.128,43.495 z"
                 id="path233" /></g><g
               id="g235"><path
                 style="fill:#231f20"
                 inkscape:connector-curvature="0"
                 d="m 310.982,223.322 c 0,0 1.288,1.23 3.007,3.363 1.733,2.113 3.866,5.135 5.818,8.303 1.963,3.16 3.765,6.444 5.063,8.938 0.661,1.24 1.182,2.292 1.553,3.025 0.369,0.733 0.58,1.152 0.58,1.152 l 4.033,-1.996 c 0,0 -0.216,-0.428 -0.593,-1.177 -0.379,-0.749 -0.91,-1.822 -1.588,-3.094 -1.33,-2.554 -3.179,-5.929 -5.222,-9.217 -2.029,-3.294 -4.277,-6.486 -6.154,-8.775 -1.854,-2.302 -3.314,-3.705 -3.314,-3.705 l -3.183,3.183 z"
                 id="path237" /></g><path
               style="fill:#231f20"
               inkscape:connector-curvature="0"
               d="m 302.962,218.226 1.464,-4.24 c 0,0 0.402,0.11 1.006,0.274 0.591,0.202 1.352,0.544 2.117,0.883 0.736,0.429 1.502,0.836 2.021,1.19 0.509,0.365 0.848,0.608 0.848,0.608 l -2.644,3.642 c 0,0 -0.276,-0.2 -0.69,-0.5 -0.419,-0.287 -1.001,-0.583 -1.568,-0.926 -0.62,-0.269 -1.247,-0.554 -1.729,-0.717 -0.495,-0.128 -0.825,-0.214 -0.825,-0.214 z"
               id="path239" /><path
               style="fill:#231f20"
               inkscape:connector-curvature="0"
               d="m 328.918,252.161 4.069,-1.922 c 0,0 0.646,1.387 1.292,2.774 0.631,1.393 1.262,2.785 1.262,2.785 l -4.108,1.836 c 0,0 -0.622,-1.373 -1.243,-2.745 -0.636,-1.364 -1.272,-2.728 -1.272,-2.728 z"
               id="path241" /></g></g><g
           id="g243"><g
             id="g245"><g
               id="g247"><path
                 style="fill:none"
                 inkscape:connector-curvature="0"
                 d="m 313.878,267.941 c -10e-4,0 1.329,3.003 3.246,7.65 0.958,2.328 2.063,5.061 3.236,8.04 1.196,3.072 2.473,6.349 3.749,9.625 1.091,2.965 2.182,5.931 3.203,8.711 0.543,1.343 0.883,2.717 1.274,3.991 0.381,1.279 0.741,2.489 1.074,3.605 0.332,1.117 0.638,2.142 0.908,3.049 0.224,0.938 0.419,1.755 0.579,2.428 0.323,1.346 0.508,2.115 0.508,2.115 l 43.731,-10.583 c 0,0 -0.228,-0.943 -0.626,-2.593 -0.2,-0.825 -0.443,-1.827 -0.722,-2.976 -0.338,-1.15 -0.719,-2.448 -1.134,-3.863 -0.422,-1.415 -0.879,-2.947 -1.362,-4.568 -0.499,-1.617 -0.952,-3.341 -1.626,-5.071 -0.634,-1.741 -1.289,-3.54 -1.954,-5.367 -0.335,-0.913 -0.673,-1.833 -1.012,-2.757 -0.337,-0.917 -0.698,-1.913 -0.969,-2.583 -1.279,-3.286 -2.56,-6.572 -3.76,-9.653 -1.246,-3.165 -2.45,-6.145 -3.503,-8.702 -2.112,-5.12 -3.633,-8.558 -3.633,-8.558 l -41.207,18.06 z"
                 id="path249" /></g><g
               id="g251"><path
                 style="fill:#231f20"
                 inkscape:connector-curvature="0"
                 d="m 337.425,271.719 c 0,0 0.7,1.756 1.75,4.39 1.032,2.651 2.409,6.186 3.787,9.721 1.339,3.544 2.585,7.048 3.563,9.694 0.513,1.31 0.82,2.442 1.056,3.228 0.234,0.786 0.368,1.235 0.368,1.235 l 4.297,-1.337 c 0,0 -0.138,-0.459 -0.377,-1.265 -0.241,-0.804 -0.559,-1.962 -1.082,-3.306 -0.993,-2.694 -2.293,-6.34 -3.637,-9.895 -1.377,-3.536 -2.755,-7.072 -3.788,-9.725 -1.058,-2.653 -1.762,-4.422 -1.762,-4.422 l -4.175,1.682 z"
                 id="path253" /></g><polygon
               style="fill:#231f20"
               points="337.458,260.17 339.829,265.793 335.671,267.512 333.325,261.949 "
               id="polygon255" /><path
               style="fill:#231f20"
               inkscape:connector-curvature="0"
               d="m 349.193,304.285 4.327,-1.235 c 0,0 0.438,1.472 0.876,2.943 0.362,1.49 0.724,2.979 0.724,2.979 l -4.362,1.106 c 0,0 -0.354,-1.46 -0.707,-2.919 -0.43,-1.437 -0.858,-2.874 -0.858,-2.874 z"
               id="path257" /></g></g><g
           id="g259"><g
             id="g261"><g
               id="g263"><path
                 style="fill:none"
                 inkscape:connector-curvature="0"
                 d="m 331.656,317.156 c 0,0 0.186,0.769 0.51,2.114 0.164,0.672 0.362,1.489 0.589,2.425 0.211,0.948 0.401,2.05 0.637,3.234 0.438,2.392 1.041,5.113 1.533,8.15 0.472,3.055 0.975,6.313 1.479,9.572 0.428,3.331 0.855,6.663 1.256,9.786 0.35,3.188 0.677,6.164 0.956,8.714 0.524,5.13 0.874,8.551 0.874,8.551 l 44.785,-4.334 c 0,0 -0.367,-3.586 -0.916,-8.966 -0.297,-2.7 -0.643,-5.851 -1.014,-9.227 -0.439,-3.426 -0.909,-7.081 -1.378,-10.735 -0.534,-3.686 -1.143,-7.406 -1.68,-10.875 -0.566,-3.48 -1.277,-6.783 -1.8,-9.585 -0.28,-1.406 -0.51,-2.69 -0.763,-3.836 -0.275,-1.15 -0.516,-2.152 -0.713,-2.978 -0.396,-1.65 -0.624,-2.594 -0.624,-2.594 l -43.731,10.584 z"
                 id="path265" /></g><g
               id="g267"><path
                 style="fill:#231f20"
                 inkscape:connector-curvature="0"
                 d="m 354.036,324.967 c 0,0 0.09,0.462 0.246,1.27 0.149,0.81 0.405,1.957 0.604,3.358 0.432,2.794 1.007,6.521 1.582,10.247 0.481,3.746 0.962,7.492 1.323,10.302 0.31,2.821 0.516,4.701 0.516,4.701 l 4.472,-0.499 c 0,0 -0.207,-1.892 -0.519,-4.728 -0.364,-2.836 -0.85,-6.617 -1.335,-10.398 -0.583,-3.773 -1.166,-7.547 -1.603,-10.378 -0.201,-1.417 -0.462,-2.587 -0.613,-3.41 -0.159,-0.822 -0.25,-1.292 -0.25,-1.292 l -4.423,0.827 z"
                 id="path269" /></g><path
               style="fill:#231f20"
               inkscape:connector-curvature="0"
               d="m 351.857,314.643 4.385,-1.012 c 0,0 0.358,1.491 0.717,2.981 0.295,1.502 0.59,3.003 0.59,3.003 l -4.409,0.902 c 0,0 -0.289,-1.477 -0.578,-2.953 -0.354,-1.461 -0.705,-2.921 -0.705,-2.921 z"
               id="path271" /><polygon
               style="fill:#231f20"
               points="363.24,358.864 363.863,364.917 359.384,365.361 358.764,359.337 "
               id="polygon273" /></g></g><g
           id="g275"><g
             id="g277"><g
               id="g279"><path
                 style="fill:none"
                 inkscape:connector-curvature="0"
                 d="m 339.49,369.702 c 0,0 0.085,0.857 0.234,2.356 0.074,0.749 0.164,1.659 0.268,2.703 0.076,1 0.161,2.129 0.255,3.361 0.191,2.46 0.42,5.328 0.571,8.469 0.087,1.562 0.177,3.176 0.268,4.816 0.058,1.639 0.116,3.304 0.174,4.969 0.245,6.661 0.238,13.307 0.172,18.28 0.004,2.492 -0.125,4.552 -0.152,6.002 -0.046,1.447 -0.072,2.274 -0.072,2.274 l 44.96,1.744 c 0,0 0.03,-0.933 0.083,-2.564 0.033,-1.631 0.169,-3.969 0.17,-6.76 0.077,-5.589 0.08,-13.034 -0.189,-20.451 -0.066,-1.854 -0.132,-3.708 -0.196,-5.534 -0.101,-1.821 -0.199,-3.613 -0.295,-5.348 -0.169,-3.455 -0.426,-6.731 -0.646,-9.537 -0.108,-1.402 -0.207,-2.687 -0.295,-3.826 -0.107,-1.092 -0.202,-2.043 -0.279,-2.827 -0.155,-1.567 -0.244,-2.462 -0.244,-2.462 l -44.787,4.335 z"
                 id="path281" /></g><g
               id="g283"><path
                 style="fill:#231f20"
                 inkscape:connector-curvature="0"
                 d="m 360.758,380.623 c 0,0 0.033,0.47 0.091,1.293 0.046,0.824 0.112,2.002 0.191,3.415 0.08,1.414 0.172,3.062 0.271,4.829 0.063,1.768 0.131,3.654 0.198,5.54 0.17,3.771 0.161,7.545 0.216,10.375 0.028,1.415 0.026,2.594 0.012,3.419 -0.007,0.825 -0.011,1.297 -0.011,1.297 l 4.5,0.021 c 0,0 0.004,-0.478 0.011,-1.312 0.015,-0.835 0.017,-2.027 -0.013,-3.458 -0.054,-2.861 -0.046,-6.679 -0.218,-10.49 -0.068,-1.906 -0.136,-3.813 -0.2,-5.599 -0.101,-1.785 -0.193,-3.452 -0.273,-4.879 -0.08,-1.428 -0.147,-2.618 -0.194,-3.452 -0.059,-0.833 -0.092,-1.309 -0.092,-1.309 l -4.489,0.31 z"
                 id="path285" /></g><path
               style="fill:#231f20"
               inkscape:connector-curvature="0"
               d="m 359.852,370.07 4.48,-0.423 c 0,0 0.147,1.514 0.296,3.028 0.116,1.523 0.233,3.046 0.233,3.046 l -4.485,0.369 c 0,0 -0.114,-1.503 -0.229,-3.007 -0.148,-1.506 -0.295,-3.013 -0.295,-3.013 z"
               id="path287" /><path
               style="fill:#231f20"
               inkscape:connector-curvature="0"
               d="m 361.652,415.292 4.5,0.073 c 0,0 0.001,1.526 -0.063,3.052 -0.049,1.526 -0.098,3.052 -0.098,3.052 l -4.497,-0.146 c 0,0 0.048,-1.508 0.097,-3.015 0.063,-1.507 0.061,-3.016 0.061,-3.016 z"
               id="path289" /></g></g><g
           id="g291"><g
             id="g293"><g
               id="g295"><path
                 style="fill:none"
                 inkscape:connector-curvature="0"
                 d="m 341.206,422.933 c 0,0 -0.03,0.826 -0.083,2.272 -0.081,1.441 -0.198,3.501 -0.338,5.973 -0.294,4.94 -0.881,11.489 -1.634,17.996 -0.434,3.237 -0.856,6.479 -1.319,9.497 -0.521,3 -0.938,5.822 -1.407,8.205 -0.475,2.379 -0.87,4.362 -1.147,5.75 -0.261,1.395 -0.469,2.169 -0.469,2.168 l 43.935,9.708 c 0,0 0.243,-0.93 0.555,-2.563 0.325,-1.634 0.791,-3.968 1.35,-6.769 0.548,-2.802 1.044,-6.076 1.645,-9.583 0.538,-3.508 1.031,-7.251 1.525,-10.994 0.873,-7.486 1.537,-14.971 1.872,-20.577 0.158,-2.802 0.29,-5.138 0.382,-6.772 0.061,-1.633 0.095,-2.566 0.095,-2.566 l -44.962,-1.745 z"
                 id="path297" /></g><g
               id="g299"><path
                 style="fill:#231f20"
                 inkscape:connector-curvature="0"
                 d="m 360.72,436.597 c 0,0 -0.154,1.879 -0.385,4.696 -0.197,2.821 -0.685,6.56 -1.068,10.308 -0.498,3.733 -0.986,7.47 -1.426,10.26 -0.467,2.785 -0.777,4.642 -0.777,4.642 l 4.435,0.765 c 0,0 0.315,-1.885 0.789,-4.714 0.446,-2.832 0.942,-6.622 1.447,-10.41 0.39,-3.8 0.882,-7.592 1.082,-10.45 0.234,-2.854 0.391,-4.758 0.391,-4.758 l -4.488,-0.339 z"
                 id="path301" /></g><polygon
               style="fill:#231f20"
               points="365.829,426.237 365.486,432.337 360.994,432.057 361.334,426.035 "
               id="polygon303" /><polygon
               style="fill:#231f20"
               points="360.663,471.754 359.467,477.756 355.065,476.824 356.241,470.919 "
               id="polygon305" /></g></g><g
           id="g307"><g
             id="g309"><g
               id="g311"><path
                 style="fill:none"
                 inkscape:connector-curvature="0"
                 d="m 334.809,474.795 c 0,0 -0.184,0.784 -0.505,2.154 -0.339,1.364 -0.737,3.348 -1.362,5.665 -0.652,2.306 -1.305,5.045 -2.186,7.895 -0.908,2.847 -1.75,5.894 -2.881,8.921 -0.533,1.517 -1.065,3.033 -1.59,4.526 -0.347,1 -0.69,1.992 -1.03,2.973 l -0.253,0.736 -0.217,0.671 c -0.144,0.445 -0.285,0.887 -0.427,1.325 -1.108,3.47 -1.919,6.168 -2.53,7.842 -0.158,0.463 -0.302,0.772 -0.438,1.141 -0.136,0.348 -0.256,0.704 -0.386,0.951 -0.261,0.528 -0.429,1.035 -0.641,1.385 -0.392,0.726 -0.594,1.152 -0.593,1.152 l 39.242,22.01 c 0,0 0.599,-1.143 1.646,-3.142 0.534,-1 1.049,-2.24 1.692,-3.658 0.332,-0.722 0.601,-1.439 0.904,-2.213 0.29,-0.757 0.639,-1.615 0.912,-2.4 1.184,-3.296 2.125,-6.508 3.035,-9.325 0.111,-0.348 0.224,-0.698 0.337,-1.051 l 0.171,-0.53 0.161,-0.464 c 0.215,-0.626 0.433,-1.259 0.651,-1.897 0.625,-1.777 1.261,-3.583 1.896,-5.389 1.321,-3.578 2.386,-7.317 3.471,-10.766 1.063,-3.461 1.856,-6.718 2.631,-9.497 0.744,-2.784 1.226,-5.118 1.625,-6.745 0.38,-1.63 0.597,-2.562 0.597,-2.562 l -43.932,-9.708 z"
                 id="path313" /></g><g
               id="g315"><path
                 style="fill:#231f20"
                 inkscape:connector-curvature="0"
                 d="m 351.488,491.652 c 0,0 -0.123,0.454 -0.337,1.248 -0.216,0.794 -0.506,1.934 -0.94,3.274 -0.864,2.683 -1.859,6.308 -3.172,9.836 -0.624,1.777 -1.248,3.555 -1.834,5.221 -0.6,1.72 -1.149,3.323 -1.576,4.691 -0.857,2.716 -1.429,4.526 -1.429,4.526 l 4.288,1.365 c 0,0 0.57,-1.808 1.427,-4.519 0.42,-1.35 0.948,-2.886 1.519,-4.524 0.594,-1.69 1.228,-3.493 1.86,-5.296 1.333,-3.589 2.353,-7.289 3.232,-10.023 0.442,-1.367 0.737,-2.527 0.957,-3.335 0.219,-0.809 0.344,-1.271 0.344,-1.271 l -4.339,-1.193 z"
                 id="path317" /></g><path
               style="fill:#231f20"
               inkscape:connector-curvature="0"
               d="m 354.033,481.411 4.385,1.011 c 0,0 -0.349,1.49 -0.696,2.98 -0.174,0.745 -0.349,1.49 -0.479,2.05 -0.148,0.555 -0.247,0.925 -0.247,0.925 l -4.36,-1.112 c 0,0 0.097,-0.363 0.242,-0.908 0.129,-0.55 0.3,-1.282 0.471,-2.015 0.342,-1.465 0.684,-2.931 0.684,-2.931 z"
               id="path319" /><path
               style="fill:#231f20"
               inkscape:connector-curvature="0"
               d="m 340.759,524.644 4.229,1.539 c 10e-4,0 -0.553,1.472 -1.156,2.93 -0.324,0.724 -0.648,1.446 -0.892,1.989 -0.118,0.272 -0.227,0.495 -0.311,0.647 -0.08,0.154 -0.126,0.242 -0.126,0.242 l -4.029,-2.003 c 0,0 0.042,-0.08 0.115,-0.221 0.077,-0.138 0.176,-0.341 0.283,-0.592 0.223,-0.495 0.519,-1.156 0.815,-1.817 0.556,-1.345 1.072,-2.713 1.072,-2.714 z"
               id="path321" /></g></g></g></g></g><g
     id="g323"><g
       id="g325"><g
         id="g327"><g
           id="g329"><g
             id="g331"><g
               id="g333"><path
                 style="fill:none"
                 inkscape:connector-curvature="0"
                 d="m 311.141,242.854 c -0.008,-0.016 0.013,0.048 -0.029,-0.005 -0.117,-0.022 -0.238,-0.081 -0.335,-0.166 -0.007,0.027 -0.005,0.033 0.017,0.014 0.25,0.148 1.379,1.046 2.77,2.592 1.402,1.535 3.069,3.665 4.715,6.043 3.317,4.767 6.535,10.464 8.848,14.841 2.322,4.391 3.81,7.475 3.81,7.475 l 40.377,-19.854 c 0,0 -1.664,-3.459 -4.434,-8.697 -2.786,-5.241 -6.669,-12.243 -11.633,-19.414 -2.491,-3.587 -5.261,-7.224 -8.444,-10.722 -3.186,-3.488 -6.808,-6.877 -11.104,-9.739 -1.143,-0.725 -2.256,-1.396 -3.324,-2.011 -1.211,-0.631 -2.393,-1.199 -3.506,-1.705 -2.103,-0.85 -3.894,-1.462 -5.454,-1.828 -1.532,-0.432 -2.774,-0.572 -3.612,-0.718 -0.84,-0.136 -1.287,-0.209 -1.287,-0.209 l -7.375,44.103 z"
                 id="path335" /></g><g
               id="g337"><path
                 style="fill:#231f20"
                 inkscape:connector-curvature="0"
                 d="m 325.16,228.275 c 0,0 0.338,0.316 0.93,0.87 0.604,0.536 1.407,1.39 2.373,2.41 1.914,2.067 4.277,5.06 6.454,8.215 2.187,3.149 4.205,6.438 5.674,8.935 1.462,2.501 2.392,4.201 2.392,4.201 l 3.937,-2.181 c 0,0 -0.948,-1.733 -2.447,-4.297 -1.506,-2.561 -3.581,-5.944 -5.857,-9.223 -2.267,-3.284 -4.759,-6.448 -6.833,-8.689 -1.049,-1.111 -1.926,-2.038 -2.601,-2.642 -0.659,-0.616 -1.035,-0.967 -1.035,-0.967 l -2.987,3.368 z"
                 id="path339" /></g><path
               style="fill:#231f20"
               inkscape:connector-curvature="0"
               d="m 316.567,223.474 1.209,-4.322 c 0,0 0.42,0.095 1.048,0.238 0.608,0.218 1.427,0.466 2.222,0.824 0.783,0.387 1.6,0.739 2.129,1.097 0.551,0.334 0.918,0.557 0.918,0.557 l -2.422,3.792 c 0,0 -0.301,-0.183 -0.752,-0.456 -0.443,-0.306 -1.074,-0.558 -1.688,-0.872 -0.627,-0.285 -1.314,-0.488 -1.806,-0.669 -0.516,-0.114 -0.858,-0.189 -0.858,-0.189 z"
               id="path341" /><path
               style="fill:#231f20"
               inkscape:connector-curvature="0"
               d="m 345.15,256.991 3.979,-2.103 c 0,0 0.729,1.399 1.458,2.798 0.713,1.406 1.427,2.811 1.427,2.811 l -4.023,2.015 c 0,0 -0.703,-1.385 -1.406,-2.77 -0.719,-1.376 -1.435,-2.751 -1.435,-2.751 z"
               id="path343" /></g></g><g
           id="g345"><g
             id="g347"><g
               id="g349"><path
                 style="fill:none"
                 inkscape:connector-curvature="0"
                 d="m 330.935,273.648 c 0,0 1.5,3.023 3.717,7.775 1.147,2.485 2.485,5.383 3.919,8.489 0.566,1.311 1.151,2.666 1.746,4.042 0.572,1.386 1.282,2.739 1.732,4.204 0.509,1.44 1.018,2.88 1.52,4.298 0.245,0.713 0.522,1.397 0.738,2.115 0.205,0.726 0.408,1.442 0.607,2.147 0.792,2.825 1.613,5.406 2.091,7.8 0.538,2.35 0.986,4.308 1.301,5.679 0.262,1.42 0.411,2.232 0.411,2.232 l 44.167,-8.592 c 0,0 -0.183,-0.973 -0.5,-2.675 -0.366,-1.719 -0.95,-4.193 -1.629,-7.151 -0.608,-2.947 -1.665,-6.441 -2.727,-10.165 -0.27,-0.931 -0.543,-1.878 -0.819,-2.836 -0.291,-0.958 -0.661,-1.927 -0.995,-2.903 -0.692,-1.951 -1.396,-3.933 -2.098,-5.915 -0.652,-2 -1.583,-3.9 -2.38,-5.813 -0.828,-1.901 -1.645,-3.773 -2.434,-5.584 -1.419,-3.074 -2.743,-5.943 -3.879,-8.403 -2.387,-5.119 -4.112,-8.601 -4.112,-8.601 l -40.376,19.857 z"
                 id="path351" /></g><g
               id="g353"><path
                 style="fill:#231f20"
                 inkscape:connector-curvature="0"
                 d="m 354.819,276.753 c 0,0 0.821,1.782 2.053,4.456 0.575,1.324 1.245,2.869 1.964,4.524 0.359,0.828 0.73,1.682 1.107,2.551 0.188,0.435 0.376,0.874 0.564,1.314 l 0.48,1.359 c 1.256,3.64 2.664,7.225 3.363,10.041 0.796,2.781 1.327,4.635 1.327,4.635 l 4.35,-1.154 c 0,0 -0.546,-1.907 -1.364,-4.767 -0.721,-2.888 -2.169,-6.599 -3.469,-10.353 l -0.497,-1.402 c -0.194,-0.455 -0.389,-0.908 -0.581,-1.357 -0.39,-0.897 -0.772,-1.781 -1.144,-2.635 -0.742,-1.709 -1.435,-3.304 -2.029,-4.671 -1.223,-2.655 -2.038,-4.425 -2.038,-4.425 l -4.086,1.884 z"
                 id="path355" /></g><polygon
               style="fill:#231f20"
               points="354.185,264.912 356.883,270.591 352.807,272.497 350.134,266.871 "
               id="polygon357" /><path
               style="fill:#231f20"
               inkscape:connector-curvature="0"
               d="m 366.746,310.118 4.378,-1.043 c 0,0 0.354,1.542 0.71,3.084 0.178,0.771 0.354,1.542 0.487,2.121 0.14,0.578 0.209,0.966 0.209,0.966 l -4.408,0.903 c 0,0 -0.068,-0.382 -0.204,-0.945 -0.131,-0.565 -0.304,-1.318 -0.478,-2.072 -0.347,-1.507 -0.694,-3.014 -0.694,-3.014 z"
               id="path359" /></g></g><g
           id="g361"><g
             id="g363"><g
               id="g365"><path
                 style="fill:none"
                 inkscape:connector-curvature="0"
                 d="m 348.717,322.432 c 0,0 0.151,0.812 0.414,2.232 0.255,1.431 0.678,3.411 1.032,5.961 0.799,4.974 1.734,11.866 2.557,18.859 0.207,1.747 0.413,3.494 0.617,5.214 0.196,1.708 0.301,3.235 0.452,4.795 0.313,3.051 0.447,6.041 0.634,8.542 0.153,2.516 0.204,4.609 0.277,6.076 0.07,1.467 0.083,2.303 0.084,2.303 l 44.978,-1.222 c -10e-4,0 -0.017,-0.979 -0.096,-2.685 -0.082,-1.706 -0.147,-4.15 -0.324,-7.07 -0.212,-2.929 -0.369,-6.289 -0.743,-10.011 -0.175,-1.827 -0.326,-3.809 -0.538,-5.652 -0.216,-1.829 -0.435,-3.688 -0.654,-5.546 -0.874,-7.429 -1.886,-14.929 -2.813,-20.709 -0.4,-2.845 -0.907,-5.309 -1.211,-7.005 -0.317,-1.703 -0.498,-2.676 -0.498,-2.676 l -44.168,8.594 z"
                 id="path367" /></g><g
               id="g369"><path
                 style="fill:#231f20"
                 inkscape:connector-curvature="0"
                 d="m 370.816,331.656 c 0,0 0.073,0.48 0.202,1.321 0.138,0.838 0.297,2.045 0.481,3.495 0.368,2.899 0.906,6.756 1.343,10.633 0.229,1.936 0.457,3.873 0.672,5.688 0.169,1.811 0.326,3.5 0.461,4.948 0.284,2.892 0.39,4.833 0.39,4.833 l 4.488,-0.323 c 0,0 -0.107,-1.966 -0.396,-4.915 -0.137,-1.473 -0.298,-3.191 -0.47,-5.033 -0.216,-1.827 -0.445,-3.775 -0.676,-5.723 -0.438,-3.897 -0.98,-7.79 -1.352,-10.711 -0.188,-1.46 -0.348,-2.677 -0.487,-3.528 -0.13,-0.852 -0.204,-1.338 -0.204,-1.338 l -4.452,0.653 z"
                 id="path371" /></g><path
               style="fill:#231f20"
               inkscape:connector-curvature="0"
               d="m 369.007,320.912 4.426,-0.816 c 0,0 0.288,1.552 0.576,3.104 0.153,0.775 0.273,1.553 0.359,2.137 0.089,0.584 0.148,0.973 0.148,0.973 l -4.443,0.716 c 0,0 -0.059,-0.384 -0.146,-0.96 -0.084,-0.577 -0.202,-1.345 -0.354,-2.105 -0.283,-1.524 -0.566,-3.049 -0.566,-3.049 z"
               id="path373" /><path
               style="fill:#231f20"
               inkscape:connector-curvature="0"
               d="m 374.638,367.198 4.493,-0.255 c 0,0 0.023,0.394 0.059,0.983 0.024,0.59 0.058,1.378 0.091,2.166 0.065,1.575 0.132,3.15 0.132,3.15 l -4.497,0.161 c 0,0 -0.065,-1.551 -0.13,-3.103 -0.033,-0.776 -0.065,-1.551 -0.09,-2.133 -0.035,-0.581 -0.058,-0.969 -0.058,-0.969 z"
               id="path375" /></g></g><g
           id="g377"><g
             id="g379"><g
               id="g381"><path
                 style="fill:none"
                 inkscape:connector-curvature="0"
                 d="m 354.784,376.415 c 0,0 0.013,0.836 0.036,2.3 0.006,1.461 0.103,3.559 0.045,6.056 0.007,5.01 -0.254,11.653 -0.747,18.244 -0.157,1.641 -0.314,3.281 -0.469,4.896 -0.08,0.805 -0.16,1.605 -0.238,2.396 -0.103,0.783 -0.203,1.559 -0.303,2.32 -0.198,1.523 -0.391,2.996 -0.572,4.393 -0.228,1.383 -0.441,2.689 -0.64,3.896 -0.36,2.426 -0.787,4.402 -1.063,5.795 -0.275,1.391 -0.434,2.186 -0.434,2.186 l 44.021,9.307 c 0,0 0.196,-0.984 0.541,-2.709 0.341,-1.723 0.86,-4.186 1.311,-7.146 0.24,-1.48 0.502,-3.086 0.777,-4.781 0.224,-1.697 0.458,-3.486 0.702,-5.338 0.119,-0.926 0.239,-1.867 0.362,-2.82 0.096,-0.951 0.193,-1.916 0.291,-2.887 0.185,-1.943 0.373,-3.916 0.561,-5.891 0.6,-7.889 0.896,-15.763 0.893,-21.646 0.059,-2.948 -0.042,-5.388 -0.053,-7.103 -0.028,-1.713 -0.045,-2.691 -0.045,-2.691 l -44.976,1.223 z"
                 id="path383" /></g><g
               id="g385"><path
                 style="fill:#231f20"
                 inkscape:connector-curvature="0"
                 d="m 375.083,389.141 c 0,0 -0.009,0.484 -0.023,1.333 -0.032,0.848 -0.079,2.059 -0.134,3.512 -0.067,2.91 -0.35,6.777 -0.61,10.645 -0.636,7.729 -1.743,15.398 -1.743,15.398 l 4.451,0.656 c 0,0 1.131,-7.822 1.777,-15.693 0.267,-3.937 0.553,-7.873 0.621,-10.832 0.057,-1.479 0.104,-2.71 0.136,-3.573 0.016,-0.862 0.024,-1.355 0.024,-1.355 l -4.499,-0.091 z"
                 id="path387" /></g><path
               style="fill:#231f20"
               inkscape:connector-curvature="0"
               d="m 375.042,378.252 4.499,-0.084 c 0,0 0.025,1.576 0.051,3.153 0.044,1.577 0.004,3.154 0.004,3.154 l -4.5,-0.015 c 0,0 0.04,-1.552 -0.003,-3.104 -0.025,-1.553 -0.051,-3.104 -0.051,-3.104 z"
               id="path389" /><path
               style="fill:#231f20"
               inkscape:connector-curvature="0"
               d="m 371.793,424.584 4.437,0.75 c 0,0 -0.063,0.389 -0.159,0.975 -0.104,0.584 -0.203,1.367 -0.37,2.141 -0.309,1.551 -0.617,3.102 -0.617,3.102 l -4.414,-0.879 c 0,0 0.303,-1.518 0.604,-3.035 0.164,-0.756 0.262,-1.525 0.363,-2.098 0.094,-0.573 0.156,-0.956 0.156,-0.956 z"
               id="path391" /></g></g><g
           id="g393"><g
             id="g395"><g
               id="g397"><path
                 style="fill:none"
                 inkscape:connector-curvature="0"
                 d="m 350.401,428.898 c 0,0 -0.039,0.199 -0.112,0.572 -0.065,0.375 -0.194,0.914 -0.36,1.6 -0.328,1.371 -0.796,3.33 -1.357,5.68 -0.322,1.156 -0.671,2.41 -1.04,3.736 -0.184,0.664 -0.371,1.344 -0.563,2.041 -0.202,0.691 -0.441,1.383 -0.666,2.096 -0.455,1.42 -0.926,2.887 -1.404,4.377 -0.537,1.461 -1.084,2.943 -1.63,4.426 -0.507,1.486 -1.166,2.965 -1.771,4.424 -0.681,1.637 -1.352,3.248 -2,4.807 -1.676,4.092 -2.715,7.164 -3.435,8.914 -0.169,0.395 -0.337,0.85 -0.478,1.15 -0.132,0.287 -0.259,0.561 -0.376,0.816 -0.225,0.428 -0.42,0.801 -0.582,1.109 -0.375,0.555 -0.553,0.895 -0.553,0.895 L 371.51,500.5 c 0,0 0.778,-1.203 2.077,-3.348 0.6,-1.082 1.35,-2.445 2.092,-3.957 0.346,-0.748 0.714,-1.545 1.102,-2.383 0.371,-0.83 0.669,-1.596 1.025,-2.455 1.317,-3.301 2.327,-6.25 3.246,-8.451 0.291,-0.705 0.588,-1.424 0.888,-2.148 0.377,-0.902 0.758,-1.814 1.143,-2.732 0.763,-1.844 1.568,-3.688 2.251,-5.635 0.706,-1.924 1.412,-3.85 2.107,-5.744 0.616,-1.912 1.223,-3.791 1.809,-5.611 0.287,-0.912 0.588,-1.805 0.846,-2.686 0.246,-0.881 0.487,-1.744 0.722,-2.584 0.465,-1.68 0.905,-3.27 1.312,-4.736 0.732,-2.941 1.293,-5.4 1.705,-7.117 0.204,-0.861 0.362,-1.535 0.447,-1.998 0.092,-0.461 0.142,-0.709 0.142,-0.709 l -44.023,-9.308 z"
                 id="path399" /></g><g
               id="g401"><path
                 style="fill:#231f20"
                 inkscape:connector-curvature="0"
                 d="m 367.046,445.931 c 0,0 -0.129,0.465 -0.355,1.279 -0.21,0.82 -0.563,1.977 -1.017,3.352 -0.443,1.379 -0.96,2.988 -1.513,4.713 -0.621,1.699 -1.284,3.514 -1.947,5.326 -0.63,1.826 -1.422,3.592 -2.111,5.268 -0.704,1.695 -1.361,3.275 -1.925,4.631 -1.144,2.797 -1.795,4.631 -1.795,4.633 l 4.217,1.572 c -0.001,0 0.66,-1.852 1.736,-4.484 0.563,-1.354 1.22,-2.934 1.923,-4.627 0.706,-1.715 1.514,-3.521 2.163,-5.395 0.68,-1.861 1.359,-3.723 1.997,-5.467 0.567,-1.768 1.097,-3.418 1.551,-4.832 0.466,-1.41 0.826,-2.594 1.042,-3.432 0.231,-0.834 0.364,-1.311 0.364,-1.311 l -4.33,-1.226 z"
                 id="path403" /></g><polygon
               style="fill:#231f20"
               points="374.077,436.388 372.617,442.547 368.259,441.427 369.686,435.406 "
               id="polygon405" /><path
               style="fill:#231f20"
               inkscape:connector-curvature="0"
               d="m 354.704,479.414 4.167,1.699 c -10e-4,0 -0.595,1.5 -1.312,2.986 -0.714,1.48 -1.529,2.924 -1.529,2.924 l -3.896,-2.252 c 10e-4,0 0.722,-1.281 1.367,-2.615 0.644,-1.334 1.203,-2.742 1.203,-2.742 z"
               id="path407" /></g></g></g></g></g><ellipse
     d="m 238.594,374 c 0,15.18783 -4.72206,27.5 -10.547,27.5 -5.82495,0 -10.547,-12.31217 -10.547,-27.5 0,-15.18783 4.72205,-27.5 10.547,-27.5 5.82494,0 10.547,12.31217 10.547,27.5 z"
     style="fill:none;stroke:#000000;stroke-width:3;stroke-miterlimit:10"
     sodipodi:ry="27.5"
     sodipodi:rx="10.547"
     sodipodi:cy="374"
     sodipodi:cx="228.047"
     stroke-miterlimit="10"
     cx="228.047"
     cy="374"
     rx="10.547"
     ry="27.5"
     id="ellipse409" /><path
     style="fill:none;stroke:#000000;stroke-width:3;stroke-miterlimit:10"
     inkscape:connector-curvature="0"
     stroke-miterlimit="10"
     d="m 220.5,353.953 c 0,0 -19.333,-46.179 0,-73.536 l 19.094,1.159 c 0,0 -26.667,35.284 -11.547,64.217 l -7.547,8.16 z"
     id="path411" /><path
     style="fill:none;stroke:#000000;stroke-width:3;stroke-miterlimit:10"
     inkscape:connector-curvature="0"
     stroke-miterlimit="10"
     d="m 230.736,400.594 c 0,0 20.934,34.729 5.36,64.388 l -17.385,-1.685 c 0,0 23.302,-38.145 4.515,-64.842 l 7.51,2.139 z"
     id="path413" /><path
     style="fill:none;stroke:#000000;stroke-width:3;stroke-miterlimit:10"
     inkscape:connector-curvature="0"
     stroke-miterlimit="10"
     d="m 217.169,374.873 c 0,0 -27.825,-2.37 -28.945,-23.06 l 2.328,-11.597 c 0,0 8.237,27.77 27.171,27.371 l -0.554,7.286 z"
     id="path415" /><path
     style="fill:none;stroke:#000000;stroke-width:3;stroke-miterlimit:10"
     inkscape:connector-curvature="0"
     stroke-miterlimit="10"
     d="m 235.998,373.954 c 0,0 28.044,9.308 34.419,-12.771 l -6.892,-16.912 c 0,0 -7.647,30.028 -26.217,21.501 l -1.31,8.182 z"
     id="path417" /><path
     style="fill:none;stroke:#000000;stroke-width:3;stroke-miterlimit:10"
     inkscape:connector-curvature="0"
     stroke-miterlimit="10"
     d="m 216.553,381.299 c 0,0 -31.612,10.521 -22.591,31.656 l 9.012,31.844 c 0,0 -4.041,-51.198 15.738,-56.333 l -2.159,-7.167 z"
     id="path419" /><line
     style="fill:#131111;stroke:#000000;stroke-width:4;stroke-miterlimit:10"
     stroke-miterlimit="10"
     x1="377.38599"
     y1="363.5"
     x2="434.5"
     y2="360.08701"
     id="line421" /><text
     style="font-size:48px;font-family:MyriadPro-Regular"
     transform="translate(443.5002,374.4607)"
     font-size="48"
     id="text423">Treads</text>
</g></svg>