<?xml version="1.0" encoding="UTF-8" standalone="no"?>
<!-- Generator: Adobe Illustrator 16.0.0, SVG Export Plug-In . SVG Version: 6.00 Build 0)  -->

<svg
   xmlns:dc="http://purl.org/dc/elements/1.1/"
   xmlns:cc="http://creativecommons.org/ns#"
   xmlns:rdf="http://www.w3.org/1999/02/22-rdf-syntax-ns#"
   xmlns:svg="http://www.w3.org/2000/svg"
   xmlns="http://www.w3.org/2000/svg"
   xmlns:sodipodi="http://sodipodi.sourceforge.net/DTD/sodipodi-0.dtd"
   xmlns:inkscape="http://www.inkscape.org/namespaces/inkscape"
   version="1.0"
   id="Layer_1"
   x="0px"
   y="0px"
   viewBox="0 0 170 435.875"
   enable-background="new 0 0 437 54"
   xml:space="preserve"
   inkscape:version="0.48.4 r9939"
   width="100%"
   height="100%"
   sodipodi:docname="canvas.svg"><metadata
   id="metadata110"><rdf:RDF><cc:Work
       rdf:about=""><dc:format>image/svg+xml</dc:format><dc:type
         rdf:resource="http://purl.org/dc/dcmitype/StillImage" /><dc:title></dc:title></cc:Work></rdf:RDF></metadata><defs
   id="defs108" /><sodipodi:namedview
   pagecolor="#ffffff"
   bordercolor="#666666"
   borderopacity="1"
   objecttolerance="10"
   gridtolerance="10"
   guidetolerance="10"
   inkscape:pageopacity="0"
   inkscape:pageshadow="2"
   inkscape:window-width="640"
   inkscape:window-height="480"
   id="namedview106"
   showgrid="false"
   inkscape:zoom="0.65446224"
   inkscape:cx="130.83916"
   inkscape:cy="151.8562"
   inkscape:window-x="232"
   inkscape:window-y="0"
   inkscape:window-maximized="0"
   inkscape:current-layer="Layer_1"
   fit-margin-top="0"
   fit-margin-left="0"
   fit-margin-right="0"
   fit-margin-bottom="0"
   showborder="false"
   inkscape:showpageshadow="false" />

<g
   transform="translate(-222.25,-212.875)"
   id="Layer_3"><path
     style="fill:none;stroke:#000000;stroke-miterlimit:10"
     inkscape:connector-curvature="0"
     stroke-miterlimit="10"
     d="m 305.5,317.5 c -5.25,5.75 -11,9.75 -15.5,16.5 -4.25,6.25 -11.25,12 -13,19.5 -2.25,8.75 3.25,9.75 10.25,6.5 5.5,-2.75 11.75,-5.5 17,-8.75 7.25,-4.75 10,0.75 17.5,1.5 5.5,0.5 11.5,0 16,-3.5 C 342,346 342,344 338.5,341 c -3.25,-2.5 -5.75,-5.25 -8.5,-8 -4.75,-5.25 -11.5,-11.5 -18,-14.5 -1.75,-0.75 -3.5,-1.5 -5.5,-1"
     id="path8" /><path
     style="fill:none;stroke:#000000;stroke-miterlimit:10"
     inkscape:connector-curvature="0"
     stroke-miterlimit="10"
     d="m 307.5,316.25 c 0.5,5.5 1.5,10.5 1.5,16 0,5.5 -0.5,11.25 0.25,16.5"
     id="path10" /><path
     style="fill:none;stroke:#000000;stroke-miterlimit:10"
     inkscape:connector-curvature="0"
     stroke-miterlimit="10"
     d="m 306,318.75 c -11.25,-7.25 -22.75,6.75 -31,12 -2.5,1.5 -14.25,6.75 -9.75,10.75 1,1 5.5,0.25 7,0.75 3,1 5,3 7.5,4.25"
     id="path12" /><path
     style="fill:none;stroke:#000000;stroke-miterlimit:10"
     inkscape:connector-curvature="0"
     stroke-miterlimit="10"
     d="m 272,317 c 0,8 -4.25,16.5 -7.25,23.75 -3.25,7 -8,21 -15.25,24.75 -2.25,-7.25 2,-18.25 4.5,-25.25 2,-5 6.5,-8.25 9.5,-12.75 3,-4.75 5.75,-9.75 10.25,-13.5"
     id="path14" /><path
     style="fill:none;stroke:#000000;stroke-miterlimit:10"
     inkscape:connector-curvature="0"
     stroke-miterlimit="10"
     d="m 270.5,314.75 c 0.75,-7.75 -30.5,7 -33.5,8.5 -1.75,0.75 -7.25,1.75 -8.25,3 -2.75,3.75 3.5,6 6,7.25 3.25,1.75 15,8.5 18,7.25"
     id="path16" /><path
     style="fill:none;stroke:#000000;stroke-miterlimit:10"
     inkscape:connector-curvature="0"
     stroke-miterlimit="10"
     d="m 272,315.75 c 5.5,-1.5 11,3.75 15,6.5"
     id="path18" /><path
     style="fill:none;stroke:#000000;stroke-miterlimit:10"
     inkscape:connector-curvature="0"
     stroke-miterlimit="10"
     d="m 271.5,317.25 c 3.25,0 5.5,6.5 7.25,8.75"
     id="path20" /><path
     style="fill:none;stroke:#000000;stroke-miterlimit:10"
     inkscape:connector-curvature="0"
     stroke-miterlimit="10"
     d="m 273.25,313.75 c 6.5,-4 15.75,-3.5 18.5,3.75"
     id="path22" /><path
     style="fill:none;stroke:#000000;stroke-miterlimit:10"
     inkscape:connector-curvature="0"
     stroke-miterlimit="10"
     d="m 295,355.75 c 4.25,3 3.75,11.5 8,14.5 2.5,-5 3.25,-13.25 3.75,-18.75"
     id="path24" /><path
     style="fill:none;stroke:#000000;stroke-miterlimit:10"
     inkscape:connector-curvature="0"
     stroke-miterlimit="10"
     d="m 306.75,350.75 c 3,5.5 -1,18.25 -2,24 -1.25,7.75 -0.75,16.25 -2.5,23.75"
     id="path26" /><path
     style="fill:none;stroke:#000000;stroke-miterlimit:10"
     inkscape:connector-curvature="0"
     stroke-miterlimit="10"
     d="m 317.25,352.25 c -1,4.75 -6.75,7.5 -8.25,12.25 -1.25,3.5 -0.75,7 -1,10.5 -0.5,8.75 -2.75,15.25 -5,23.25"
     id="path28" /><path
     style="fill:none;stroke:#000000;stroke-miterlimit:10"
     inkscape:connector-curvature="0"
     stroke-miterlimit="10"
     d="M 277.75,393.25 C 268,393 265.25,404 260.25,410 c -2.5,3 -4.25,6.25 -6,9.75 -1.75,3.5 -4.5,6 -6.5,9.5 5.75,0 15.25,-6.25 19,-11 5.25,-7 7.25,-15.75 11.75,-23"
     id="path30" /><path
     style="fill:none;stroke:#000000;stroke-miterlimit:10"
     inkscape:connector-curvature="0"
     stroke-miterlimit="10"
     d="m 279,394.75 c -2,9 -7,16.25 -7.25,25.75 -0.25,4.5 -0.5,9.5 0.25,14 0.5,4.5 2.75,8.5 3.75,13 2,-9 5.5,-17 8.25,-25.75 1.25,-3.25 2.5,-8 1.75,-11.75 -0.75,-5 -5,-8.75 -6.75,-13.25"
     id="path32" /><path
     style="fill:none;stroke:#000000;stroke-miterlimit:10"
     inkscape:connector-curvature="0"
     stroke-miterlimit="10"
     d="m 284.25,417.25 c 5.5,2.5 10.25,7.5 16,9.75 1.5,0.5 5.5,1.75 7,1 2.75,-1 2,-3.5 1.25,-6.5 C 305.25,407 291.25,400.25 279,395"
     id="path34" /><path
     style="fill:none;stroke:#000000;stroke-miterlimit:10"
     inkscape:connector-curvature="0"
     stroke-miterlimit="10"
     d="m 280.75,391.75 c 3.75,0.75 8,-2 12,-1 5,1 10,6 13.75,9 2.75,2.25 9,8 8.75,12.25 -0.25,4 -5.75,3.25 -9,4.5"
     id="path36" /><path
     style="fill:none;stroke:#000000;stroke-miterlimit:10"
     inkscape:connector-curvature="0"
     stroke-miterlimit="10"
     d="m 279.75,389.75 c 3.5,-5.5 7.5,-9.5 14,-10.75 9,-1.5 6.75,6 4.25,12"
     id="path38" /><path
     style="fill:none;stroke:#000000;stroke-miterlimit:10"
     inkscape:connector-curvature="0"
     stroke-miterlimit="10"
     d="m 279.25,391.75 c -7,-2.25 -15.75,-10.5 -23.5,-10 -7.25,0.5 -0.5,5.25 1.5,7.75 3,3.75 3.5,9.75 7.25,13"
     id="path40" /><path
     style="fill:none;stroke:#000000;stroke-miterlimit:10"
     inkscape:connector-curvature="0"
     stroke-miterlimit="10"
     d="m 350.5,411.25 c -3.25,-12.75 -24.75,-7.75 -33.25,-4.5 1.75,2.5 5.25,4.5 7.75,6.5 2.25,1.75 6.75,6.25 9.25,7 2.5,0.75 5.75,-2 8,-3.25 1.5,-0.75 8,-5.75 9.25,-5.5 3,0.25 -2.5,13 -3.25,15.5 -1.5,5.75 -2.5,12.75 -5.5,18 -2,3.5 -6.5,10.25 -8.75,3.75 -0.75,-2.5 -0.5,-5.75 -1,-8.5 -1,-7 -2.5,-14.75 1.75,-20.75"
     id="path42" /><path
     style="fill:none;stroke:#000000;stroke-miterlimit:10"
     inkscape:connector-curvature="0"
     stroke-miterlimit="10"
     d="m 350.5,408 c -4.75,-1.5 -10,-14 -11,-18.75 -1.25,-4.75 -1.75,-15.75 1,-19.75 4,2.25 8.25,8.25 11.5,11.75 4,4.5 5.75,8 5.75,13.75"
     id="path44" /><path
     style="fill:none;stroke:#000000;stroke-miterlimit:10"
     inkscape:connector-curvature="0"
     stroke-miterlimit="10"
     d="m 358.5,390.75 c 6.5,-8.25 15.5,-7.75 25.5,-7.5 0.75,5.5 -9.75,16 -13.75,19.25 -5.5,4.5 -11.25,7.25 -18,8.75"
     id="path46" /><path
     style="fill:none;stroke:#000000;stroke-miterlimit:10"
     inkscape:connector-curvature="0"
     stroke-miterlimit="10"
     d="m 354.5,399.75 c 0,3.75 -2.25,7 -3,10.5"
     id="path48" /><path
     style="fill:none;stroke:#000000;stroke-miterlimit:10"
     inkscape:connector-curvature="0"
     stroke-miterlimit="10"
     d="m 352.5,411.25 c 3.75,0.5 6.25,6 8.75,8.25 3.5,3.25 6.75,7.75 11.5,7.5 6.25,-0.25 14.25,-2.25 18.75,-6.75 -10.25,-8.5 -21.25,-11 -34.5,-11"
     id="path50" /><path
     style="fill:none;stroke:#000000;stroke-miterlimit:10"
     inkscape:connector-curvature="0"
     stroke-miterlimit="10"
     d="m 351.25,419.75 c 0.25,5 2.25,10.5 3.5,15.5 1.25,5.5 2,13.75 5.75,18 3,-3 5.5,-10.25 7,-14.5 2.25,-6.5 0,-13 -6,-16.75"
     id="path52" /><path
     style="fill:none;stroke:#000000;stroke-miterlimit:10"
     inkscape:connector-curvature="0"
     stroke-miterlimit="10"
     d="M 311.75,406.25 C 314,396 313,385.5 317,375.5 c 2.25,-5.75 7.75,-7.25 11.5,-1.5 1.5,2.5 3.25,5.75 4.75,8.5 2.25,4.5 -0.5,5.75 -3.5,1.75 -2.5,-3 -7.25,-12.25 -10.25,-5 -1.25,2.75 -0.75,7.5 -1.25,10.5 C 317.5,397 316.75,404 315.5,411"
     id="path54" /><path
     style="fill:none;stroke:#000000;stroke-miterlimit:10"
     inkscape:connector-curvature="0"
     stroke-miterlimit="10"
     d="m 324.75,385.25 c -0.75,2.25 -8,16 -3.5,16.75 5.25,0.75 5.5,-13 5.5,-16 0,4.5 -0.75,8.25 -1.75,12.5 -0.75,5 -0.5,6.5 3.25,10 4.25,-4.75 0.5,-14.75 -0.75,-19.75 -1,5.5 1.75,13.75 5.5,17.75 2.25,-2 2.75,-9.25 2,-12.25 -1,-4.75 -5,-8.25 -9.5,-9.25"
     id="path56" /><path
     style="fill:none;stroke:#000000;stroke-miterlimit:10"
     inkscape:connector-curvature="0"
     stroke-miterlimit="10"
     d="m 271.25,439.25 c 0.5,3.25 0,6.75 0.75,9.75 0.75,2.75 2,5.25 2.5,8 0.75,5.25 0.5,10.5 0.5,15.75 0,12.25 3.75,23.5 7.25,35 1.75,6 3.75,11.5 5,17.75 2,11 3.25,22.75 6.75,33.5"
     id="path58" /><path
     style="fill:none;stroke:#000000;stroke-miterlimit:10"
     inkscape:connector-curvature="0"
     stroke-miterlimit="10"
     d="m 278,439.5 c -2.5,10.25 -1,25.25 1,35.5 1.25,6.25 1.75,12.5 3.5,18.5 1,2.75 2,5.75 3,8.5 1,3.5 4,7 4,10.75"
     id="path60" /><path
     style="fill:none;stroke:#000000;stroke-miterlimit:10"
     inkscape:connector-curvature="0"
     stroke-miterlimit="10"
     d="m 286.5,420 c 0,21.5 -3.5,42.5 -1.5,63.5 2.5,23 6.5,45.5 8.5,68"
     id="path62" /><path
     style="fill:none;stroke:#000000;stroke-miterlimit:10"
     inkscape:connector-curvature="0"
     stroke-miterlimit="10"
     d="m 289.5,421.5 c 0,18 -3,36 -1,54 2,22.5 6.5,44 8,66.5"
     id="path64" /><path
     style="fill:none;stroke:#000000;stroke-miterlimit:10"
     inkscape:connector-curvature="0"
     stroke-miterlimit="10"
     d="m 304,429 c -7,18 -9,39.5 -9.5,59 -0.5,23.5 -4,52.5 1,75.5"
     id="path66" /><path
     style="fill:none;stroke:#000000;stroke-miterlimit:10"
     inkscape:connector-curvature="0"
     stroke-miterlimit="10"
     d="m 296.5,424 c 0,15.5 -5.5,29.5 -5.5,45 0,8.5 0,17.5 0,26 0,8 0.5,15.5 1,23.5 1,7 3.5,14 4.5,21"
     id="path68" /><path
     style="fill:none;stroke:#000000;stroke-miterlimit:10"
     inkscape:connector-curvature="0"
     stroke-miterlimit="10"
     d="m 323.5,412 c 3.5,6.5 -4,25.5 -6,33.5 -2.5,11.5 -6,23 -7,34.5 -3,25 -11.5,48.5 -15,73.5 0,2 -0.5,4 -1,6"
     id="path70" /><path
     style="fill:none;stroke:#000000;stroke-miterlimit:10"
     inkscape:connector-curvature="0"
     stroke-miterlimit="10"
     d="m 317.5,412 c 2.5,9.5 -2,23.5 -4.5,32.5 -3,10 -4.5,19.5 -6,29.5 -2,13 -5,25.5 -6.5,38.5 -1.5,15 -1,30 -3.5,45"
     id="path72" /><path
     style="fill:none;stroke:#000000;stroke-miterlimit:10"
     inkscape:connector-curvature="0"
     stroke-miterlimit="10"
     d="m 337.5,450.5 c -2,9.5 -8,19.5 -11.5,29 -3,9 -6.5,18 -10,27 -3.5,10 -8,19.5 -11.5,29.5 -3.5,12 -11,20.5 -10.5,34"
     id="path74" /><path
     style="fill:none;stroke:#000000;stroke-miterlimit:10"
     inkscape:connector-curvature="0"
     stroke-miterlimit="10"
     d="m 332,444 c -1.5,19.5 -16,40.5 -22,58.5 -6,19.5 -12,40 -17,59.5"
     id="path76" /><path
     style="fill:none;stroke:#000000;stroke-miterlimit:10"
     inkscape:connector-curvature="0"
     stroke-miterlimit="10"
     d="m 286.5,557.5 c -0.5,11 -10,18.5 -8.5,30 1,-0.5 1.5,-1 2,-1.5 1,1 3,2.5 4,4.5 2.5,-2.5 6,-4 9,-2 0,-1 1,-2 1,-3 14.5,-3 7,-19 3,-28.5 -2,4 -2.5,9 -4.5,12.5 -3,-1.5 -4.5,-6 -5.5,-9"
     id="path78" /><path
     style="fill:none;stroke:#000000;stroke-miterlimit:10"
     inkscape:connector-curvature="0"
     stroke-miterlimit="10"
     d="m 282,590.5 c -13,5 -15,13.5 -15,26.5 0,11 -1.5,20.5 -4,31 9,-3 17.5,-19 22,-27 5,-9 9.5,-25.5 -4.5,-29.5"
     id="path80" /><path
     style="fill:none;stroke:#000000;stroke-miterlimit:10"
     inkscape:connector-curvature="0"
     stroke-miterlimit="10"
     d="m 334,580.5 c 0,5.5 -1,8 3.5,10.5 3,2 9.5,1.5 12.5,0.5 -1.5,-12 -5.5,-12.5 -17.5,-12.5"
     id="path82" /><path
     style="fill:none;stroke:#000000;stroke-miterlimit:10"
     inkscape:connector-curvature="0"
     stroke-miterlimit="10"
     d="m 351.5,598 c 4.5,-6 23,-7.5 20.5,4 -2,9.5 -18,-0.5 -21.5,-5"
     id="path84" /><path
     style="fill:none;stroke:#000000;stroke-miterlimit:10"
     inkscape:connector-curvature="0"
     stroke-miterlimit="10"
     d="m 332.5,600.5 c 9,8.5 2,17.5 17,21 -0.5,-3 -0.5,-13 -2.5,-15.5 -2.5,-4 -9,-4 -14,-5"
     id="path86" /><path
     style="fill:none;stroke:#000000;stroke-miterlimit:10"
     inkscape:connector-curvature="0"
     stroke-miterlimit="10"
     d="m 246,598 c -6.5,-9.5 -19.5,-1 -23,6 15,3 43,-13.5 30.5,-31 -4.5,5 -17,16 -8.5,23"
     id="path88" /><g
     id="g90"><g
       id="g92"><g
         id="g94"><g
           id="g96"><g
             id="g98"><path
               style="fill:none"
               inkscape:connector-curvature="0"
               d="m 285.964,578.198 c 0,0 -0.325,-0.498 -0.894,-1.368 -0.28,-0.436 -0.639,-0.956 -1.133,-1.528 -0.481,-0.573 -0.994,-1.233 -1.694,-1.871 -0.341,-0.322 -0.696,-0.658 -1.063,-1.005 -0.388,-0.325 -0.811,-0.641 -1.24,-0.969 -0.845,-0.683 -1.841,-1.22 -2.848,-1.808 -2.061,-1.064 -4.333,-1.823 -6.538,-2.281 -2.208,-0.451 -4.306,-0.58 -6.217,-0.618 -1.888,-10e-4 -3.599,0.092 -5,0.243 -1.413,0.138 -2.556,0.296 -3.337,0.419 -0.785,0.121 -1.233,0.19 -1.233,0.19 l 2.466,14.795 c 0,0 0.363,-0.057 0.999,-0.154 0.637,-0.102 1.53,-0.223 2.568,-0.323 1.048,-0.117 2.211,-0.167 3.402,-0.173 1.164,0.028 2.355,0.107 3.37,0.319 1.009,0.219 1.865,0.523 2.55,0.862 0.301,0.218 0.65,0.346 0.887,0.578 0.133,0.099 0.262,0.193 0.387,0.286 0.108,0.117 0.217,0.225 0.324,0.324 0.231,0.175 0.389,0.432 0.557,0.618 0.175,0.176 0.305,0.377 0.407,0.552 0.216,0.333 0.352,0.515 0.352,0.515 l 12.928,-7.603 z"
               id="path100" /></g><g
             id="g102"><path
               style="fill:#231f20"
               inkscape:connector-curvature="0"
               d="m 275.952,576.909 c 0,0 -0.186,-0.141 -0.51,-0.387 -0.349,-0.211 -0.846,-0.511 -1.443,-0.871 -1.242,-0.633 -2.979,-1.303 -4.781,-1.663 -1.799,-0.381 -3.622,-0.454 -4.978,-0.484 -1.357,-10e-4 -2.256,0.061 -2.256,0.06 l 0.08,1.498 c 0,0 0.867,-0.059 2.164,-0.058 1.292,0.029 3.021,0.1 4.691,0.454 1.674,0.336 3.254,0.95 4.378,1.519 0.538,0.325 0.987,0.596 1.301,0.785 0.291,0.223 0.458,0.35 0.458,0.35 l 0.896,-1.203 z"
               id="path104" /></g><path
             style="fill:#231f20"
             inkscape:connector-curvature="0"
             d="m 279.527,580.667 -1.241,0.843 c 0.053,-0.04 -1.628,-2.151 -1.697,-2.084 l 1.066,-1.055 c 0.078,-0.069 1.933,2.258 1.872,2.296 z"
             id="path106" /><path
             style="fill:#231f20"
             inkscape:connector-curvature="0"
             d="m 259.843,573.718 0.151,1.493 c 0,0 -0.694,0.063 -1.387,0.159 -0.693,0.082 -1.385,0.193 -1.385,0.192 l -0.223,-1.482 c 0,0 0.706,-0.113 1.418,-0.197 0.709,-0.099 1.426,-0.164 1.426,-0.165 z"
             id="path108" /></g></g></g></g><g
     id="g110"><g
       id="g112"><g
         id="g114"><g
           id="g116"><g
             id="g118"><path
               style="fill:none"
               inkscape:connector-curvature="0"
               d="m 277.376,577.552 c 0,0 -6.37,-0.89 -12.74,-1.778 -6.417,-1.079 -12.833,-2.159 -12.833,-2.159 l -2.606,14.77 c 0,0 6.555,1.104 13.111,2.206 6.658,0.929 13.316,1.856 13.316,1.856 l 1.752,-14.895 z"
               id="path120" /></g><g
             id="g122"><path
               style="fill:#231f20"
               inkscape:connector-curvature="0"
               d="m 270.597,583.425 c 0,0 -3.501,-0.488 -7.003,-0.978 -3.49,-0.587 -6.981,-1.174 -6.981,-1.174 l -0.248,1.479 c 0,0 3.498,0.589 6.996,1.178 3.517,0.49 7.034,0.981 7.034,0.981 l 0.202,-1.486 z"
               id="path124" /></g><polygon
             style="fill:#231f20"
             points="275.332,585.587 272.519,585.195 272.711,583.708 275.512,584.098 "
             id="polygon126" /><polygon
             style="fill:#231f20"
             points="254.28,582.389 251.482,581.919 251.74,580.441 254.532,580.911 "
             id="polygon128" /></g></g></g></g><g
     id="g130"><g
       id="g132"><path
         style="fill:none;stroke:#000000;stroke-miterlimit:10"
         inkscape:connector-curvature="0"
         stroke-miterlimit="10"
         d="M 273,590"
         id="path134" /></g></g><g
     id="g136"><g
       id="g138"><g
         id="g140"><g
           id="g142"><g
             id="g144"><g
               id="g146"><path
                 style="fill:none"
                 inkscape:connector-curvature="0"
                 d="m 276.964,583.417 c 0,0 -0.332,-0.102 -0.912,-0.279 -0.291,-0.087 -0.644,-0.191 -1.049,-0.313 -0.398,-0.121 -0.856,-0.255 -1.443,-0.355 -0.566,-0.104 -1.18,-0.217 -1.829,-0.335 -0.7,-0.083 -1.503,-0.121 -2.3,-0.157 -0.384,-0.032 -0.848,0.004 -1.307,0.04 -0.459,0.036 -0.922,0.081 -1.387,0.136 -0.939,0.136 -1.959,0.419 -2.913,0.72 -0.472,0.188 -0.941,0.389 -1.402,0.599 l -0.685,0.323 -0.608,0.363 c -0.402,0.246 -0.796,0.498 -1.18,0.754 -0.353,0.254 -0.655,0.507 -0.973,0.762 -0.667,0.522 -1.118,0.982 -1.582,1.434 -0.497,0.471 -0.782,0.819 -1.131,1.188 -1.08,1.23 -1.8,2.051 -1.8,2.051 l 11.271,9.895 c 0,0 0.653,-0.745 1.632,-1.862 0.188,-0.196 0.442,-0.504 0.605,-0.64 0.179,-0.171 0.385,-0.391 0.5,-0.456 l 0.19,-0.164 c 0.042,-0.011 0.078,-0.029 0.109,-0.057 0.016,-0.013 0.031,-0.028 0.045,-0.046 0.01,0.004 0.018,0.009 0.025,0.01 0.014,0.002 0.021,-0.007 0.026,-0.028 0.046,0.027 0.029,-0.005 0.1,-0.014 0.045,0.009 0.088,0.009 0.13,0 0.042,-0.009 0.072,-0.038 0.175,-0.01 0.176,0.031 0.319,0.017 0.506,0.03 0.23,0.056 0.447,0.099 0.65,0.132 0.187,0.016 0.415,0.087 0.622,0.157 0.203,0.062 0.379,0.114 0.525,0.158 0.292,0.083 0.46,0.131 0.46,0.131 l 4.93,-14.167 z"
                 id="path148" /></g><g
               id="g150"><path
                 style="fill:#231f20"
                 inkscape:connector-curvature="0"
                 d="m 270.879,588.836 c 0,0 -0.143,-0.03 -0.406,-0.04 -0.261,-0.015 -0.633,-0.037 -1.081,-0.063 -0.444,-0.054 -0.98,0.058 -1.545,0.09 -0.565,0.049 -1.16,0.254 -1.748,0.41 -1.143,0.45 -2.208,1.085 -2.866,1.685 -0.358,0.274 -0.62,0.529 -0.8,0.711 -0.184,0.178 -0.289,0.28 -0.289,0.28 l 1.059,1.063 c 0,0 0.096,-0.094 0.265,-0.257 0.166,-0.168 0.406,-0.401 0.718,-0.638 0.588,-0.54 1.479,-1.051 2.417,-1.432 0.491,-0.12 0.97,-0.299 1.451,-0.337 0.483,-0.021 0.922,-0.128 1.318,-0.075 0.392,0.023 0.719,0.043 0.948,0.057 0.229,0.005 0.36,0.034 0.36,0.034 l 0.199,-1.488 z"
                 id="path152" /></g><path
               style="fill:#231f20"
               inkscape:connector-curvature="0"
               d="m 274.066,589.58 -0.449,1.432 c 0,0 -1.661,-0.517 -1.667,-0.461 l 0.324,-1.465 c 0.021,-0.054 1.792,0.494 1.792,0.494 z"
               id="path154" /><path
               style="fill:#231f20"
               inkscape:connector-curvature="0"
               d="m 261.189,592.9 1.114,1.005 c 0,0 -0.296,0.323 -0.587,0.664 -0.293,0.337 -0.586,0.674 -0.586,0.674 l -1.134,-0.981 c 0,0 0.296,-0.34 0.592,-0.681 0.291,-0.342 0.601,-0.681 0.601,-0.681 z"
               id="path156" /></g></g><g
           id="g158"><g
             id="g160"><g
               id="g162"><path
                 style="fill:none"
                 inkscape:connector-curvature="0"
                 d="m 254.464,590.346 c 0,10e-4 -0.641,0.761 -1.394,1.495 -0.191,0.199 -0.393,0.394 -0.591,0.547 -0.202,0.17 -0.431,0.388 -0.534,0.445 -0.087,0.063 -0.18,0.129 -0.273,0.195 -0.049,-0.009 0.167,0.038 -0.365,-0.104 -0.33,-0.089 -0.634,-0.175 -1.043,-0.259 -0.374,-0.083 -0.746,-0.156 -1.158,-0.206 -1.581,-0.236 -3.045,-0.127 -3.869,-0.018 -0.757,0.128 -1.19,0.2 -1.19,0.2 l 2.877,14.72 c 0,0 0.082,-0.007 0.22,-0.043 0.077,-0.003 -0.076,-0.003 -0.108,-0.005 -0.023,-0.012 0.002,-0.003 0.04,0.007 0.005,-0.006 0.119,0.028 0.221,0.056 0.331,0.094 1.446,0.446 2.348,0.614 1.893,0.377 3.995,0.329 5.956,-0.302 1.938,-0.57 3.887,-1.786 5.058,-2.66 0.708,-0.487 1.176,-0.908 1.655,-1.318 0.496,-0.414 0.905,-0.805 1.26,-1.164 0.765,-0.737 1.25,-1.298 1.627,-1.706 0.339,-0.382 0.533,-0.601 0.533,-0.601 l -11.27,-9.893 z"
                 id="path164" /></g><g
               id="g166"><path
                 style="fill:#231f20"
                 inkscape:connector-curvature="0"
                 d="m 256.927,597.471 c 0,0 -0.102,0.088 -0.28,0.241 -0.177,0.157 -0.432,0.376 -0.756,0.594 -0.646,0.469 -1.469,1.062 -2.425,1.402 -0.47,0.191 -0.98,0.249 -1.451,0.267 -0.474,-0.012 -0.912,-0.09 -1.277,-0.188 -0.751,-0.215 -1.253,-0.357 -1.253,-0.357 l -0.399,1.445 c 0,0 0.137,0.039 0.377,0.108 0.25,0.072 0.619,0.188 1.068,0.299 0.448,0.116 0.982,0.203 1.559,0.213 0.574,-0.021 1.195,-0.095 1.77,-0.32 1.168,-0.403 2.196,-1.134 2.906,-1.65 0.375,-0.254 0.653,-0.491 0.843,-0.66 0.194,-0.167 0.305,-0.262 0.305,-0.262 l -0.987,-1.132 z"
                 id="path168" /></g><path
               style="fill:#231f20"
               inkscape:connector-curvature="0"
               d="m 259.079,595.304 1.116,1.002 c 0,0 -0.309,0.338 -0.618,0.675 -0.308,0.339 -0.647,0.658 -0.647,0.658 l -1.056,-1.065 c 0,0 0.316,-0.295 0.611,-0.621 0.297,-0.324 0.594,-0.649 0.594,-0.649 z"
               id="path170" /><path
               style="fill:#231f20"
               inkscape:connector-curvature="0"
               d="m 248.072,599.124 -0.188,1.488 c 0,0 -0.1,-0.013 -0.249,-0.032 -0.149,-0.006 -0.349,-0.014 -0.548,-0.021 -0.2,0.012 -0.4,0.023 -0.55,0.032 -0.149,0.004 -0.253,0.027 -0.253,0.027 l -0.191,-1.487 c 0,0 0.116,-0.025 0.304,-0.033 0.186,-0.011 0.434,-0.034 0.682,-0.039 0.25,0.009 0.499,0.019 0.686,0.025 0.183,0.024 0.307,0.04 0.307,0.04 z"
               id="path172" /></g></g><g
           id="g174"><g
             id="g176"><g
               id="g178"><path
                 style="fill:none"
                 inkscape:connector-curvature="0"
                 d="m 244.047,592.643 c 0,0 -0.402,0.091 -1.105,0.249 -0.175,0.042 -0.37,0.089 -0.581,0.14 -0.231,0.076 -0.481,0.159 -0.748,0.247 -0.534,0.182 -1.137,0.391 -1.745,0.692 -1.275,0.553 -2.545,1.39 -3.77,2.318 -1.163,0.936 -2.22,1.965 -3.108,2.938 -1.742,1.942 -2.965,3.568 -3.762,4.435 -0.203,0.233 -0.378,0.423 -0.519,0.562 -0.146,0.153 -0.273,0.29 -0.361,0.362 -0.182,0.172 -0.286,0.271 -0.286,0.271 l 9.876,11.287 c 0,0 0.277,-0.257 0.762,-0.705 0.253,-0.23 0.508,-0.494 0.801,-0.799 0.307,-0.312 0.617,-0.648 0.928,-1.003 1.297,-1.452 2.594,-3.151 3.642,-4.302 0.517,-0.564 0.968,-0.976 1.321,-1.272 0.341,-0.229 0.589,-0.427 0.762,-0.473 0.086,-0.062 0.167,-0.067 0.233,-0.093 0.034,-0.013 0.063,-0.027 0.092,-0.043 0.057,-0.009 0.108,-0.018 0.155,-0.025 0.187,-0.035 0.291,-0.065 0.291,-0.065 l -2.878,-14.721 z"
                 id="path180" /></g><g
               id="g182"><path
                 style="fill:#231f20"
                 inkscape:connector-curvature="0"
                 d="m 241.533,600.728 c 0,0 -0.128,0.077 -0.353,0.212 -0.21,0.152 -0.511,0.37 -0.872,0.632 -0.689,0.556 -1.555,1.35 -2.327,2.204 -0.771,0.853 -1.489,1.729 -2.023,2.379 -0.533,0.645 -0.889,1.074 -0.889,1.074 l 1.148,0.965 c 0,0 0.36,-0.436 0.9,-1.087 0.533,-0.65 1.239,-1.509 1.972,-2.32 0.733,-0.812 1.526,-1.533 2.146,-2.035 0.32,-0.232 0.587,-0.426 0.773,-0.561 0.196,-0.117 0.309,-0.185 0.309,-0.185 l -0.784,-1.278 z"
                 id="path184" /></g><path
               style="fill:#231f20"
               inkscape:connector-curvature="0"
               d="m 244.628,599.421 0.366,1.454 c -0.021,-0.042 -1.593,0.482 -1.573,0.534 l -0.613,-1.37 c -0.025,-0.057 1.817,-0.673 1.82,-0.618 z"
               id="path186" /><path
               style="fill:#231f20"
               inkscape:connector-curvature="0"
               d="m 234.201,608.216 1.117,1.001 c 0,0 -0.297,0.347 -0.626,0.677 -0.315,0.339 -0.658,0.658 -0.657,0.658 L 233,609.467 c 0,-10e-4 0.313,-0.293 0.61,-0.611 0.304,-0.305 0.591,-0.64 0.591,-0.64 z"
               id="path188" /></g></g></g></g></g><g
     id="g190"><g
       id="g192"><g
         id="g194"><g
           id="g196"><g
             id="g198"><g
               id="g200"><path
                 style="fill:none"
                 inkscape:connector-curvature="0"
                 d="m 263.07,588.641 c 0,0 -0.073,0.101 -0.2,0.276 -0.132,0.178 -0.254,0.435 -0.568,0.767 -0.481,0.662 -1.478,1.585 -2.567,2.473 -1.1,0.896 -2.409,1.698 -3.393,2.281 -1.019,0.551 -1.698,0.918 -1.698,0.918 l 6.706,13.415 c 0,0 0.997,-0.503 2.465,-1.33 1.46,-0.858 3.387,-2.043 5.234,-3.529 1.848,-1.489 3.641,-3.161 4.886,-4.761 0.637,-0.727 1.123,-1.491 1.465,-1.992 0.337,-0.51 0.53,-0.801 0.53,-0.801 l -12.86,-7.717 z"
                 id="path202" /></g><g
               id="g204"><path
                 style="fill:#231f20"
                 inkscape:connector-curvature="0"
                 d="m 266.847,594.774 c 0,0 -0.347,0.351 -0.867,0.877 -0.25,0.272 -0.58,0.556 -0.932,0.859 -0.356,0.3 -0.709,0.647 -1.116,0.938 -0.396,0.302 -0.792,0.604 -1.162,0.887 -0.388,0.263 -0.75,0.507 -1.06,0.716 -0.613,0.43 -1.051,0.673 -1.051,0.673 l 0.785,1.278 c 0,0 0.455,-0.253 1.096,-0.7 0.324,-0.219 0.701,-0.475 1.105,-0.748 0.389,-0.297 0.804,-0.613 1.219,-0.931 0.424,-0.304 0.801,-0.672 1.177,-0.988 0.372,-0.321 0.718,-0.621 0.988,-0.912 0.555,-0.562 0.925,-0.937 0.925,-0.937 l -1.107,-1.012 z"
                 id="path206" /></g><path
               style="fill:#231f20"
               inkscape:connector-curvature="0"
               d="m 268.516,592.604 1.254,0.822 c 0,0 -0.24,0.354 -0.48,0.707 -0.114,0.182 -0.252,0.342 -0.354,0.464 -0.102,0.122 -0.169,0.203 -0.169,0.203 l -1.168,-0.94 c 0,0 0.063,-0.075 0.157,-0.188 0.094,-0.113 0.224,-0.261 0.326,-0.426 0.216,-0.32 0.434,-0.642 0.434,-0.642 z"
               id="path208" /><path
               style="fill:#231f20"
               inkscape:connector-curvature="0"
               d="m 259.629,600.327 0.745,1.303 c 0,-10e-4 -0.358,0.211 -0.728,0.4 -0.367,0.194 -0.733,0.39 -0.733,0.39 l -0.692,-1.331 c 0,0 0.354,-0.188 0.707,-0.376 0.356,-0.183 0.701,-0.386 0.701,-0.386 z"
               id="path210" /></g></g><g
           id="g212"><g
             id="g214"><g
               id="g216"><path
                 style="fill:none"
                 inkscape:connector-curvature="0"
                 d="m 254.644,595.356 c 0,0 -0.707,0.326 -1.768,0.815 -1.074,0.448 -2.531,1.034 -3.988,1.433 -1.445,0.4 -2.89,0.715 -3.851,0.788 -0.51,0.08 -0.865,0.068 -1.127,0.085 -0.261,0.015 -0.41,0.023 -0.41,0.023 v 14.998 c 0,0 0.324,-0.012 0.891,-0.031 0.564,-0.024 1.395,-0.043 2.292,-0.167 1.87,-0.175 4.14,-0.663 6.337,-1.278 2.196,-0.61 4.262,-1.432 5.804,-2.082 1.528,-0.675 2.527,-1.169 2.527,-1.169 l -6.707,-13.415 z"
                 id="path218" /></g><g
               id="g220"><path
                 style="fill:#231f20"
                 inkscape:connector-curvature="0"
                 d="m 254.535,602.793 c 0,0 -0.458,0.205 -1.169,0.447 -0.354,0.126 -0.766,0.273 -1.208,0.432 -0.449,0.135 -0.927,0.279 -1.406,0.424 -1.921,0.563 -3.886,0.875 -3.886,0.876 l 0.23,1.481 c 0,0 2.071,-0.328 4.068,-0.915 0.498,-0.15 0.996,-0.301 1.462,-0.442 0.458,-0.163 0.886,-0.316 1.253,-0.447 0.738,-0.251 1.212,-0.463 1.212,-0.463 l -0.556,-1.393 z"
                 id="path222" /></g><path
               style="fill:#231f20"
               inkscape:connector-curvature="0"
               d="m 257.102,601.648 0.65,1.352 c 0,0 -0.375,0.177 -0.751,0.354 -0.374,0.181 -0.756,0.343 -0.755,0.343 l -0.599,-1.375 c 0,0 0.369,-0.156 0.729,-0.332 0.363,-0.171 0.726,-0.342 0.726,-0.342 z"
               id="path224" /><path
               style="fill:#231f20"
               inkscape:connector-curvature="0"
               d="m 245.693,605.104 0.16,1.491 c 0,0 -0.415,0.063 -0.837,0.084 -0.422,0.018 -0.845,0.036 -0.845,0.036 l -0.048,-1.5 c 0,0 0.392,-0.016 0.785,-0.032 0.392,-0.019 0.785,-0.079 0.785,-0.079 z"
               id="path226" /></g></g></g></g></g><g
     id="g228"><g
       id="g230"><g
         id="g232"><g
           id="g234"><g
             id="g236"><g
               id="g238"><path
                 style="fill:none"
                 inkscape:connector-curvature="0"
                 d="m 268.495,589.343 c 0,0 -0.129,0.038 -0.37,0.111 -0.242,0.063 -0.594,0.201 -1.037,0.383 -0.218,0.101 -0.464,0.202 -0.719,0.34 -0.262,0.141 -0.51,0.263 -0.873,0.499 -0.169,0.11 -0.343,0.225 -0.523,0.342 -0.149,0.111 -0.303,0.225 -0.461,0.342 -0.332,0.246 -0.586,0.469 -0.879,0.721 -2.159,1.942 -3.649,4.054 -5.05,6.074 -1.364,2.008 -2.543,3.92 -3.36,5.146 -0.405,0.614 -0.71,1.045 -0.857,1.235 -0.228,0.287 -0.358,0.452 -0.358,0.452 l 11.721,9.357 c 0,0 0.21,-0.268 0.578,-0.734 0.437,-0.574 0.919,-1.27 1.422,-2.031 1.007,-1.521 2.138,-3.351 3.248,-4.979 1.071,-1.608 2.252,-3.027 2.576,-3.271 0.022,-0.014 0.061,-0.057 0.035,-0.028 -0.007,0.005 -0.013,0.007 -0.023,0.012 -0.028,0.023 -0.057,0.044 -0.087,0.062 -0.087,0.045 -0.052,0.031 -0.06,0.033 l -0.001,-0.002 -4.922,-14.064 z"
                 id="path240" /></g><g
               id="g242"><path
                 style="fill:#231f20"
                 inkscape:connector-curvature="0"
                 d="m 267.118,598.115 c 0,10e-4 -0.428,0.451 -0.996,1.164 -0.575,0.71 -1.281,1.687 -1.956,2.675 -1.342,1.984 -2.6,3.982 -2.6,3.982 l 1.26,0.813 c 0,0 1.267,-2.012 2.579,-3.95 0.66,-0.968 1.344,-1.911 1.887,-2.582 0.539,-0.677 0.928,-1.085 0.928,-1.085 l -1.102,-1.017 z"
                 id="path244" /></g><path
               style="fill:#231f20"
               inkscape:connector-curvature="0"
               d="m 269.969,595.941 0.628,1.359 c 0,0 -0.415,0.144 -0.753,0.378 -0.344,0.216 -0.673,0.51 -0.673,0.509 l -0.976,-1.139 c 0,0 0.379,-0.342 0.839,-0.633 0.448,-0.303 0.935,-0.474 0.935,-0.474 z"
               id="path246" /><path
               style="fill:#231f20"
               inkscape:connector-curvature="0"
               d="m 260.79,607.105 1.25,0.83 c 0,0 -0.27,0.398 -0.541,0.797 -0.273,0.398 -0.573,0.794 -0.573,0.794 l -1.194,-0.908 c 0,0 0.273,-0.358 0.536,-0.741 0.261,-0.386 0.522,-0.772 0.522,-0.772 z"
               id="path248" /></g></g><g
           id="g250"><g
             id="g252"><g
               id="g254"><path
                 style="fill:none"
                 inkscape:connector-curvature="0"
                 d="m 254.008,604.988 c 0,0 -0.171,0.215 -0.47,0.591 -0.15,0.188 -0.332,0.417 -0.54,0.68 -0.116,0.154 -0.189,0.218 -0.357,0.469 -0.153,0.223 -0.313,0.457 -0.481,0.701 -0.327,0.495 -0.681,1.031 -1.055,1.598 -0.339,0.542 -0.577,0.992 -0.887,1.524 -0.626,1.07 -1.106,2.038 -1.657,3.059 -0.998,1.915 -1.899,3.51 -2.563,4.458 -0.163,0.276 -0.32,0.463 -0.457,0.624 -0.134,0.169 -0.252,0.316 -0.349,0.438 -0.188,0.247 -0.296,0.388 -0.296,0.388 l 11.21,9.965 c 0,0 0.234,-0.289 0.645,-0.795 0.203,-0.255 0.448,-0.565 0.73,-0.92 0.287,-0.358 0.6,-0.763 0.868,-1.191 1.224,-1.76 2.457,-4.016 3.493,-5.998 0.493,-0.914 0.995,-1.914 1.417,-2.619 0.208,-0.357 0.438,-0.789 0.603,-1.046 0.15,-0.219 0.284,-0.43 0.403,-0.629 0.059,-0.101 0.115,-0.197 0.168,-0.288 0.026,-0.071 0.203,-0.266 0.287,-0.38 0.208,-0.263 0.39,-0.491 0.54,-0.679 0.299,-0.377 0.47,-0.592 0.47,-0.592 l -11.722,-9.358 z"
                 id="path256" /></g><g
               id="g258"><path
                 style="fill:#231f20"
                 inkscape:connector-curvature="0"
                 d="m 256.864,612.554 c 0,0 -0.093,0.128 -0.218,0.357 -0.13,0.229 -0.316,0.555 -0.54,0.946 -0.462,0.78 -1.002,1.837 -1.563,2.886 -0.551,1.042 -1.1,2.087 -1.543,2.835 -0.217,0.38 -0.397,0.696 -0.523,0.918 -0.138,0.212 -0.217,0.332 -0.217,0.332 l 1.273,0.794 c 0,0 0.083,-0.127 0.228,-0.35 0.13,-0.229 0.317,-0.555 0.541,-0.946 0.461,-0.781 1.014,-1.834 1.57,-2.886 0.556,-1.04 1.094,-2.093 1.539,-2.841 0.217,-0.38 0.397,-0.696 0.523,-0.918 0.123,-0.226 0.206,-0.337 0.206,-0.337 l -1.276,-0.79 z"
                 id="path260" /></g><path
               style="fill:#231f20"
               inkscape:connector-curvature="0"
               d="m 258.823,609.764 1.172,0.936 c 0,0 -0.294,0.371 -0.589,0.742 -0.155,0.184 -0.29,0.371 -0.375,0.516 -0.093,0.143 -0.154,0.237 -0.154,0.237 l -1.204,-0.895 c 0,0 0.068,-0.104 0.17,-0.258 0.099,-0.162 0.24,-0.358 0.391,-0.537 0.295,-0.37 0.589,-0.741 0.589,-0.741 z"
               id="path262" /><path
               style="fill:#231f20"
               inkscape:connector-curvature="0"
               d="m 251.495,621.974 1.232,0.855 c 0.046,0.026 -1.187,1.555 -1.187,1.555 l -1.156,-0.956 c 0.001,0 1.149,-1.419 1.111,-1.454 z"
               id="path264" /></g></g></g></g></g><g
     id="g266"><g
       id="g268"><g
         id="g270"><g
           id="g272"><g
             id="g274"><g
               id="g276"><path
                 style="fill:none"
                 inkscape:connector-curvature="0"
                 d="m 261.027,602.623 c -0.007,-0.055 -10e-4,0.444 0,0.346 0.026,-0.002 0.079,-0.367 0.287,-0.618 0.192,-0.28 0.409,-0.386 0.245,-0.285 -0.311,0.215 -1.748,0.711 -2.95,0.994 -1.319,0.318 -2.198,0.53 -2.198,0.53 l 3.44,14.599 c 0,0 0.985,-0.238 2.462,-0.595 1.569,-0.44 3.891,-0.923 6.914,-2.639 1.49,-0.866 3.183,-2.266 4.392,-4.029 1.208,-1.734 1.908,-3.695 2.136,-5.122 0.17,-0.771 0.194,-1.363 0.24,-1.928 0.05,-0.577 0.037,-1.009 0.025,-1.365 -0.03,-0.722 -0.047,-1.134 -0.047,-1.134 l -14.946,1.246 z"
                 id="path278" /></g><g
               id="g280"><path
                 style="fill:#231f20"
                 inkscape:connector-curvature="0"
                 d="m 267.389,605.208 c 0,0 -0.145,0.431 -0.521,0.985 -0.363,0.561 -1.028,1.2 -1.854,1.675 -0.817,0.485 -1.747,0.835 -2.451,1.077 -0.709,0.237 -1.2,0.368 -1.2,0.368 l 0.41,1.442 c 0,0 0.508,-0.135 1.269,-0.389 0.758,-0.262 1.776,-0.639 2.74,-1.21 0.97,-0.555 1.841,-1.372 2.322,-2.113 0.495,-0.729 0.683,-1.291 0.683,-1.291 l -1.398,-0.544 z"
                 id="path282" /></g><path
               style="fill:#231f20"
               inkscape:connector-curvature="0"
               d="m 267.765,602.651 1.5,-0.033 c 0.042,-0.008 -0.049,1.789 -0.12,1.79 l -1.477,-0.26 c 0.059,0.019 0.133,-1.49 0.097,-1.497 z"
               id="path284" /><polygon
               style="fill:#231f20"
               points="260.558,611.069 258.941,611.462 258.595,610.002 260.19,609.615 "
               id="polygon286" /></g></g><g
           id="g288"><g
             id="g290"><g
               id="g292"><path
                 style="fill:none"
                 inkscape:connector-curvature="0"
                 d="m 256.411,603.59 c 0,0 -0.925,0.207 -2.51,0.617 -1.576,0.427 -3.863,1.035 -6.403,2.297 -2.519,1.172 -5.175,3.341 -6.684,5.356 -0.757,0.997 -1.315,1.896 -1.63,2.531 -0.325,0.64 -0.51,1.005 -0.51,1.005 l 13.653,6.207 c 0.013,0.013 0.129,-0.272 0.34,-0.554 0.234,-0.267 0.556,-0.657 1.518,-1.121 0.893,-0.465 2.323,-0.903 3.521,-1.214 1.287,-0.316 2.146,-0.526 2.146,-0.526 l -3.441,-14.598 z"
                 id="path294" /></g><g
               id="g296"><path
                 style="fill:#231f20"
                 inkscape:connector-curvature="0"
                 d="m 254.499,611.047 c 0,0 -0.507,0.14 -1.262,0.391 -0.753,0.254 -1.759,0.618 -2.725,1.11 -0.971,0.473 -1.896,1.07 -2.531,1.6 -0.321,0.26 -0.587,0.479 -0.752,0.658 -0.172,0.171 -0.27,0.269 -0.27,0.269 l 1.074,1.047 c 0,0 0.085,-0.084 0.233,-0.232 0.141,-0.155 0.374,-0.345 0.655,-0.573 0.554,-0.463 1.374,-0.993 2.259,-1.425 0.876,-0.448 1.818,-0.79 2.531,-1.03 0.715,-0.237 1.205,-0.372 1.205,-0.373 l -0.417,-1.442 z"
                 id="path298" /></g><polygon
               style="fill:#231f20"
               points="257.685,611.759 256.095,612.152 255.718,610.701 257.337,610.3 "
               id="polygon300" /><path
               style="fill:#231f20"
               inkscape:connector-curvature="0"
               d="m 246.082,616.064 1.193,0.909 c -0.026,-0.02 -0.852,1.271 -0.817,1.293 l -1.324,-0.704 c -0.041,-0.021 0.917,-1.519 0.948,-1.498 z"
               id="path302" /></g></g></g></g></g><g
     id="g304"><g
       id="g306"><g
         id="g308"><g
           id="g310"><g
             id="g312"><g
               id="g314"><path
                 style="fill:none"
                 inkscape:connector-curvature="0"
                 d="m 282.935,601.911 c 0,0 0.094,0.155 0.257,0.428 0.145,0.28 0.46,0.627 0.679,1.12 0.494,0.954 0.999,2.311 1.301,3.903 0.251,1.635 0.356,3.47 0.313,4.988 0.01,0.724 -0.054,1.421 -0.063,1.864 -0.021,0.458 -0.032,0.72 -0.032,0.72 l 14.971,0.899 c 0,0 0.015,-0.322 0.041,-0.887 0.015,-0.578 0.084,-1.338 0.08,-2.368 0.048,-1.986 -0.05,-4.835 -0.539,-7.819 -0.535,-3.016 -1.634,-6.084 -2.773,-8.236 -0.53,-1.091 -1.138,-1.9 -1.5,-2.507 -0.385,-0.59 -0.605,-0.928 -0.605,-0.928 l -12.13,8.823 z"
                 id="path316" /></g><g
               id="g318"><path
                 style="fill:#231f20"
                 inkscape:connector-curvature="0"
                 d="m 290.43,601.541 c 0,0 0.065,0.137 0.179,0.376 0.107,0.242 0.21,0.609 0.361,1.038 0.13,0.437 0.349,0.924 0.464,1.484 0.124,0.558 0.256,1.152 0.388,1.747 0.167,1.212 0.344,2.425 0.359,3.353 0.024,0.462 0.045,0.846 0.06,1.115 0.001,0.271 0.002,0.426 0.002,0.426 l 1.5,-0.021 c 0,0 -10e-4,-0.16 -0.003,-0.44 -0.015,-0.28 -0.036,-0.682 -0.062,-1.164 -0.017,-0.963 -0.2,-2.248 -0.38,-3.528 -0.141,-0.635 -0.282,-1.27 -0.414,-1.864 -0.125,-0.598 -0.356,-1.127 -0.497,-1.595 -0.162,-0.462 -0.275,-0.854 -0.391,-1.116 -0.122,-0.259 -0.192,-0.406 -0.192,-0.406 l -1.374,0.595 z"
                 id="path320" /></g><path
               style="fill:#231f20"
               inkscape:connector-curvature="0"
               d="m 288.787,598.574 1.247,-0.834 c 0,0 0.281,0.44 0.561,0.882 0.14,0.221 0.28,0.441 0.385,0.606 0.084,0.177 0.141,0.295 0.141,0.295 l -1.325,0.703 c 0,0 -0.052,-0.109 -0.13,-0.273 -0.098,-0.153 -0.228,-0.357 -0.358,-0.562 -0.261,-0.409 -0.521,-0.817 -0.521,-0.817 z"
               id="path322" /><path
               style="fill:#231f20"
               inkscape:connector-curvature="0"
               d="m 292.226,612.558 1.5,0.026 c 0,0 0.004,0.513 -0.026,1.02 -0.023,0.509 -0.046,1.017 -0.046,1.017 l -1.498,-0.073 c 0,0 0.022,-0.498 0.045,-0.995 0.029,-0.5 0.025,-0.995 0.025,-0.995 z"
               id="path324" /></g></g><g
           id="g326"><g
             id="g328"><g
               id="g330"><path
                 style="fill:none"
                 inkscape:connector-curvature="0"
                 d="m 285.389,614.934 c 0,0 -0.08,1.114 -0.2,2.786 -0.133,1.706 -0.336,4.131 -0.445,6.722 -0.076,2.635 -0.015,5.432 0.302,7.655 0.092,1.08 0.358,2.05 0.466,2.693 0.135,0.654 0.213,1.027 0.213,1.027 l 14.55,-3.637 c 0,0 -0.037,-0.2 -0.101,-0.549 -0.035,-0.174 -0.077,-0.385 -0.126,-0.627 -0.059,-0.235 -0.108,-0.517 -0.13,-0.851 -0.188,-1.251 -0.238,-3.139 -0.186,-5.175 0.089,-2.08 0.269,-4.315 0.411,-6.104 0.13,-1.825 0.217,-3.042 0.217,-3.042 l -14.971,-0.898 z"
                 id="path332" /></g><g
               id="g334"><path
                 style="fill:#231f20"
                 inkscape:connector-curvature="0"
                 d="m 291.814,619.622 c 0,0 -0.213,2.514 -0.32,5.058 -0.019,1.277 -0.059,2.553 0.006,3.518 0.02,0.48 0.036,0.882 0.047,1.162 0.013,0.281 0.039,0.441 0.04,0.441 l 1.495,-0.123 c 0,0 -0.026,-0.151 -0.038,-0.421 -0.011,-0.27 -0.026,-0.655 -0.044,-1.117 -0.063,-0.922 -0.024,-2.165 -0.006,-3.405 0.105,-2.488 0.316,-4.995 0.317,-4.995 l -1.497,-0.118 z"
                 id="path336" /></g><polygon
               style="fill:#231f20"
               points="293.562,616.205 293.417,618.222 291.922,618.107 292.066,616.106 "
               id="polygon338" /><path
               style="fill:#231f20"
               inkscape:connector-curvature="0"
               d="m 291.743,631.334 1.487,-0.2 c -0.049,0.011 0.34,1.925 0.34,1.925 l -1.466,0.316 c 0.001,0 -0.412,-2.036 -0.361,-2.041 z"
               id="path340" /></g></g></g></g></g><g
     id="g342"><g
       id="g344"><g
         id="g346"><g
           id="g348"><g
             id="g350"><g
               id="g352"><path
                 style="fill:none"
                 inkscape:connector-curvature="0"
                 d="m 286.225,591.681 c 0,0 -0.115,0.52 -0.25,1.448 -0.179,1.016 -0.157,2.069 -0.102,3.398 0.205,2.435 0.896,4.941 1.66,7.123 0.765,2.205 1.605,4.13 2.22,5.545 0.613,1.384 1.022,2.306 1.022,2.306 l 13.692,-6.12 c 0,0 -0.388,-0.874 -0.969,-2.186 -0.562,-1.286 -1.286,-2.972 -1.804,-4.483 -0.544,-1.521 -0.828,-2.846 -0.869,-3.354 0.016,-0.074 0.013,-0.14 0,-0.199 -0.03,-0.108 0.018,0.035 0.002,0.047 -0.01,0.078 -0.057,0.111 -0.054,0.111 l -14.548,-3.636 z"
                 id="path354" /></g><g
               id="g356"><path
                 style="fill:#231f20"
                 inkscape:connector-curvature="0"
                 d="m 292.77,597.219 c 0,0 0.021,0.138 0.056,0.379 0.055,0.234 0.132,0.568 0.225,0.969 0.083,0.405 0.214,0.862 0.367,1.347 0.145,0.488 0.302,1.008 0.491,1.51 0.706,2.039 1.566,3.987 1.566,3.987 l 1.38,-0.588 c 0,0 -0.851,-1.929 -1.53,-3.893 -0.184,-0.488 -0.333,-0.982 -0.47,-1.446 -0.147,-0.462 -0.271,-0.895 -0.346,-1.269 -0.087,-0.372 -0.16,-0.683 -0.21,-0.899 -0.031,-0.217 -0.049,-0.341 -0.049,-0.341 l -1.48,0.244 z"
                 id="path358" /></g><path
               style="fill:#231f20"
               inkscape:connector-curvature="0"
               d="m 292.657,594.036 1.484,0.214 c 0.021,0.006 -0.101,0.356 -0.067,0.754 0.007,0.39 0.015,0.779 0.015,0.779 l -1.497,0.099 c 0,0 -0.009,-0.458 -0.018,-0.915 -0.033,-0.454 0.104,-0.934 0.083,-0.931 z"
               id="path360" /><polygon
               style="fill:#231f20"
               points="297.344,605.981 298.026,607.525 296.656,608.136 295.969,606.582 "
               id="polygon362" /></g></g><g
           id="g364"><g
             id="g366"><g
               id="g368"><path
                 style="fill:none"
                 inkscape:connector-curvature="0"
                 d="m 290.776,611.502 c 0,0 0.396,0.887 0.989,2.217 0.563,1.286 1.308,2.992 1.84,4.475 0.114,0.346 0.228,0.691 0.339,1.031 0.078,0.298 0.154,0.591 0.228,0.874 0.189,0.86 0.366,1.664 0.518,2.353 0.288,1.408 0.48,2.348 0.48,2.348 l 14.702,-2.964 c 0,0 -0.201,-0.986 -0.504,-2.465 -0.165,-0.751 -0.357,-1.627 -0.563,-2.565 -0.159,-0.608 -0.323,-1.236 -0.49,-1.875 -0.189,-0.578 -0.382,-1.166 -0.575,-1.754 -0.799,-2.217 -1.642,-4.109 -2.258,-5.524 -0.607,-1.362 -1.013,-2.27 -1.013,-2.27 l -13.693,6.119 z"
                 id="path370" /></g><g
               id="g372"><path
                 style="fill:#231f20"
                 inkscape:connector-curvature="0"
                 d="m 298.405,612.05 c 0,0 0.861,1.927 1.563,3.881 0.16,0.489 0.32,0.979 0.471,1.439 0.12,0.463 0.231,0.895 0.327,1.265 0.17,0.772 0.283,1.287 0.283,1.287 l 1.466,-0.316 c 0,0 -0.114,-0.52 -0.285,-1.299 -0.103,-0.398 -0.223,-0.863 -0.352,-1.361 -0.158,-0.484 -0.327,-1.001 -0.496,-1.517 -0.731,-2.033 -1.6,-3.975 -1.601,-3.975 l -1.376,0.596 z"
                 id="path374" /></g><polygon
               style="fill:#231f20"
               points="298.566,608.732 299.257,610.282 297.885,610.889 297.197,609.345 "
               id="polygon376" /><polygon
               style="fill:#231f20"
               points="302.775,620.846 303.114,622.51 301.644,622.809 301.306,621.153 "
               id="polygon378" /></g></g><g
           id="g380"><g
             id="g382"><g
               id="g384"><path
                 style="fill:none"
                 inkscape:connector-curvature="0"
                 d="m 295.17,624.799 c 0,0 0.195,0.969 0.488,2.421 0.3,1.472 0.721,3.481 1.212,5.548 0.274,1.051 0.549,2.102 0.806,3.086 0.315,1.013 0.609,1.957 0.861,2.767 0.625,1.658 1.041,2.764 1.041,2.764 l 13.844,-5.768 c 0,0 -0.275,-0.734 -0.688,-1.835 -0.187,-0.598 -0.402,-1.294 -0.635,-2.041 -0.208,-0.798 -0.43,-1.648 -0.651,-2.5 -0.417,-1.757 -0.805,-3.594 -1.093,-5.01 -0.29,-1.438 -0.483,-2.396 -0.483,-2.396 l -14.702,2.964 z"
                 id="path386" /></g><g
               id="g388"><path
                 style="fill:#231f20"
                 inkscape:connector-curvature="0"
                 d="m 302.513,627.018 c 0,0 0.426,2.08 0.92,4.157 0.27,1.035 0.541,2.07 0.743,2.846 0.239,0.77 0.398,1.283 0.398,1.283 l 1.431,-0.45 c 0,0 -0.154,-0.498 -0.387,-1.245 -0.198,-0.76 -0.463,-1.772 -0.728,-2.786 -0.486,-2.043 -0.91,-4.11 -0.91,-4.11 l -1.467,0.305 z"
                 id="path390" /></g><rect
               style="fill:#231f20"
               x="302.06"
               y="623.94"
               transform="matrix(-0.9803,0.1973,-0.1973,-0.9803,722.9418,1177.5435)"
               width="1.5"
               height="1.693"
               id="rect392" /><polygon
               style="fill:#231f20"
               points="306.37,636.044 306.954,637.597 305.56,638.149 304.951,636.531 "
               id="polygon394" /></g></g></g></g></g><g
     id="g396"><g
       id="g398"><g
         id="g400"><g
           id="g402"><g
             id="g404"><g
               id="g406"><path
                 style="fill:none"
                 inkscape:connector-curvature="0"
                 d="m 287.474,600.326 c 0,0 0.631,0.459 1.579,1.146 0.506,0.31 0.99,0.778 1.52,1.268 0.27,0.24 0.548,0.488 0.831,0.74 0.275,0.261 0.511,0.576 0.774,0.86 0.518,0.576 1.05,1.14 1.464,1.781 0.43,0.622 0.88,1.136 1.183,1.706 0.325,0.537 0.596,0.985 0.786,1.299 0.196,0.305 0.293,0.506 0.294,0.506 l 13.135,-7.239 c 0,0 -0.129,-0.26 -0.412,-0.717 -0.275,-0.456 -0.67,-1.107 -1.143,-1.89 -0.438,-0.786 -1.136,-1.669 -1.813,-2.622 -0.656,-0.969 -1.507,-1.927 -2.365,-2.879 -0.432,-0.472 -0.838,-0.966 -1.292,-1.405 -0.467,-0.428 -0.926,-0.848 -1.371,-1.255 -0.89,-0.815 -1.726,-1.57 -2.522,-2.099 -1.557,-1.112 -2.595,-1.853 -2.595,-1.853 l -8.053,12.653 z"
                 id="path408" /></g><g
               id="g410"><path
                 style="fill:#231f20"
                 inkscape:connector-curvature="0"
                 d="m 294.087,596.807 c 0,0 0.4,0.363 1,0.907 0.3,0.271 0.65,0.589 1.026,0.928 0.378,0.337 0.706,0.772 1.074,1.167 0.359,0.403 0.718,0.808 1.054,1.186 0.331,0.384 0.585,0.787 0.831,1.11 0.478,0.657 0.796,1.096 0.796,1.096 l 1.239,-0.846 c 0,0 -0.332,-0.458 -0.831,-1.146 -0.257,-0.338 -0.523,-0.757 -0.87,-1.16 -0.353,-0.397 -0.729,-0.822 -1.106,-1.246 -0.386,-0.415 -0.732,-0.869 -1.129,-1.225 -0.394,-0.357 -0.762,-0.691 -1.078,-0.978 -0.631,-0.571 -1.052,-0.952 -1.052,-0.952 l -0.954,1.159 z"
                 id="path412" /></g><polygon
               style="fill:#231f20"
               points="292.466,593.779 293.94,594.837 293.037,596.035 291.633,595.026 "
               id="polygon414" /><polygon
               style="fill:#231f20"
               points="301.832,603.49 302.766,605.034 301.464,605.779 300.564,604.292 "
               id="polygon416" /></g></g><g
           id="g418"><g
             id="g420"><g
               id="g422"><path
                 style="fill:none"
                 inkscape:connector-curvature="0"
                 d="m 295.905,609.632 c 0,0 0.405,0.783 1.013,1.958 0.588,1.235 1.361,2.926 2.124,4.768 0.808,1.925 1.615,3.85 2.221,5.293 0.306,0.736 0.605,1.383 0.817,1.835 0.208,0.45 0.328,0.708 0.328,0.708 l 13.582,-6.362 c 0,0 -0.097,-0.209 -0.267,-0.575 -0.17,-0.361 -0.413,-0.88 -0.698,-1.567 -0.587,-1.4 -1.37,-3.268 -2.153,-5.134 -0.81,-1.957 -1.74,-4.01 -2.481,-5.557 -0.811,-1.563 -1.351,-2.605 -1.351,-2.605 l -13.135,7.238 z"
                 id="path424" /></g><g
               id="g426"><path
                 style="fill:#231f20"
                 inkscape:connector-curvature="0"
                 d="m 303.497,609.714 c 0,0 0.931,1.983 1.771,4.027 0.854,2.044 1.708,4.089 1.708,4.089 l 1.382,-0.584 c 0,0 -0.854,-2.043 -1.706,-4.086 -0.845,-2.055 -1.796,-4.082 -1.796,-4.082 l -1.359,0.636 z"
                 id="path428" /></g><polygon
               style="fill:#231f20"
               points="303.441,606.266 304.267,607.862 302.921,608.524 302.117,606.973 "
               id="polygon430" /><path
               style="fill:#231f20"
               inkscape:connector-curvature="0"
               d="m 307.487,619.056 1.376,-0.597 c 0,0 0.174,0.404 0.348,0.81 0.185,0.397 0.369,0.796 0.369,0.796 l -1.365,0.623 c 0,0 -0.188,-0.406 -0.376,-0.813 -0.177,-0.408 -0.352,-0.819 -0.352,-0.819 z"
               id="path432" /></g></g><g
           id="g434"><g
             id="g436"><g
               id="g438"><path
                 style="fill:none"
                 inkscape:connector-curvature="0"
                 d="m 302.407,624.193 c 0,0 0.12,0.257 0.329,0.707 0.192,0.443 0.541,1.104 0.957,1.893 0.423,0.788 0.866,1.703 1.51,2.693 0.623,0.985 1.222,2.045 2.034,3.063 0.772,1.024 1.512,2.061 2.389,2.94 0.42,0.447 0.825,0.881 1.21,1.291 0.194,0.203 0.384,0.401 0.567,0.592 0.201,0.175 0.396,0.343 0.582,0.505 1.51,1.273 2.517,2.122 2.517,2.122 l 8.998,-11.998 c 0,0 -0.548,-0.496 -1.403,-1.201 -0.107,-0.088 -0.219,-0.179 -0.335,-0.273 -0.102,-0.111 -0.207,-0.227 -0.314,-0.346 -0.219,-0.234 -0.448,-0.482 -0.687,-0.739 -0.508,-0.47 -0.942,-1.129 -1.414,-1.741 -0.491,-0.577 -0.891,-1.324 -1.303,-1.964 -0.422,-0.619 -0.756,-1.331 -1.063,-1.899 -0.305,-0.575 -0.563,-1.048 -0.726,-1.431 -0.169,-0.366 -0.266,-0.575 -0.266,-0.575 l -13.582,6.361 z"
                 id="path440" /></g><g
               id="g442"><path
                 style="fill:#231f20"
                 inkscape:connector-curvature="0"
                 d="m 310.254,624.756 c 0,0 0.065,0.124 0.18,0.342 0.121,0.215 0.314,0.512 0.535,0.873 0.462,0.71 0.998,1.708 1.719,2.591 0.677,0.91 1.351,1.823 1.968,2.42 0.582,0.623 0.971,1.039 0.971,1.039 l 1.061,-1.061 c 0,0 -0.367,-0.394 -0.919,-0.984 -0.584,-0.561 -1.224,-1.433 -1.869,-2.299 -0.686,-0.836 -1.201,-1.8 -1.645,-2.48 -0.213,-0.347 -0.398,-0.63 -0.515,-0.838 -0.111,-0.211 -0.175,-0.331 -0.175,-0.331 l -1.311,0.728 z"
                 id="path444" /></g><path
               style="fill:#231f20"
               inkscape:connector-curvature="0"
               d="m 308.802,621.957 1.353,-0.648 c 0,0 0.173,0.405 0.381,0.788 0.203,0.386 0.406,0.771 0.406,0.771 l -1.33,0.692 c 0,0 -0.21,-0.397 -0.42,-0.796 -0.214,-0.396 -0.39,-0.807 -0.39,-0.807 z"
               id="path446" /><polygon
               style="fill:#231f20"
               points="317.612,631.848 318.925,632.963 317.993,634.138 316.604,632.96 "
               id="polygon448" /></g></g></g></g></g><g
     id="g450"><g
       id="g452"><g
         id="g454"><g
           id="g456"><g
             id="g458"><g
               id="g460"><path
                 style="fill:none"
                 inkscape:connector-curvature="0"
                 d="m 296.641,599.949 c 0,0 0.697,0.104 1.742,0.26 0.48,0.108 1.042,0.235 1.642,0.37 0.53,0.192 1.165,0.323 1.66,0.569 1.082,0.405 1.953,0.961 2.63,1.475 0.334,0.25 0.619,0.469 0.815,0.665 0.198,0.178 0.312,0.278 0.312,0.278 l 10.214,-10.982 c 0,0 -0.223,-0.2 -0.613,-0.551 -0.374,-0.354 -0.971,-0.84 -1.722,-1.403 -0.717,-0.583 -1.684,-1.164 -2.686,-1.788 -1.043,-0.561 -2.165,-1.16 -3.315,-1.593 -1.151,-0.51 -2.284,-0.8 -3.361,-1.143 -1.053,-0.263 -2.035,-0.477 -2.873,-0.649 -1.635,-0.244 -2.726,-0.406 -2.726,-0.406 l -1.719,14.898 z"
                 id="path462" /></g><g
               id="g464"><path
                 style="fill:#231f20"
                 inkscape:connector-curvature="0"
                 d="m 300.619,593.789 c 0,0 0.461,0.106 1.153,0.265 0.666,0.232 1.595,0.44 2.447,0.834 0.884,0.323 1.696,0.79 2.32,1.108 0.592,0.376 0.985,0.627 0.985,0.627 l 0.833,-1.248 c 0,0 -0.428,-0.271 -1.068,-0.679 -0.675,-0.347 -1.558,-0.85 -2.507,-1.199 -0.922,-0.422 -1.905,-0.646 -2.619,-0.891 -0.731,-0.169 -1.218,-0.281 -1.218,-0.281 l -0.326,1.464 z"
                 id="path466" /></g><polygon
               style="fill:#231f20"
               points="298.19,591.851 299.764,592.086 299.499,593.562 297.992,593.339 "
               id="polygon468" /><path
               style="fill:#231f20"
               inkscape:connector-curvature="0"
               d="m 308.426,597.28 0.906,-1.195 c 0,0 0.32,0.246 0.64,0.493 0.316,0.25 0.607,0.526 0.607,0.527 l -0.991,1.125 c 0,0 -0.273,-0.261 -0.567,-0.493 -0.297,-0.228 -0.595,-0.457 -0.595,-0.457 z"
               id="path470" /></g></g><g
           id="g472"><g
             id="g474"><g
               id="g476"><path
                 style="fill:none"
                 inkscape:connector-curvature="0"
                 d="m 305.442,603.566 c 0,0.011 0.113,0.078 0.317,0.3 0.206,0.222 0.492,0.481 0.858,0.888 0.719,0.772 1.746,2.027 2.863,3.422 1.112,1.4 2.373,2.935 3.351,4.064 1.02,1.133 1.699,1.889 1.699,1.889 l 10.941,-10.258 c 0,0 -0.528,-0.588 -1.321,-1.471 -0.795,-0.921 -1.832,-2.176 -2.968,-3.605 -1.144,-1.425 -2.398,-2.975 -3.523,-4.19 -0.542,-0.6 -1.079,-1.115 -1.418,-1.466 -0.171,-0.177 -0.317,-0.315 -0.426,-0.41 -0.104,-0.094 -0.159,-0.145 -0.159,-0.145 l -10.214,10.982 z"
                 id="path478" /></g><g
               id="g480"><path
                 style="fill:#231f20"
                 inkscape:connector-curvature="0"
                 d="m 312.29,600.968 c -0.001,0.001 0.315,0.36 0.776,0.917 0.468,0.547 1.07,1.309 1.681,2.063 1.209,1.524 2.475,3.031 2.475,3.031 l 1.146,-0.968 c 0,0 -1.238,-1.475 -2.449,-3.001 -0.614,-0.759 -1.22,-1.524 -1.7,-2.088 -0.471,-0.568 -0.798,-0.939 -0.797,-0.94 l -1.132,0.986 z"
                 id="path482" /></g><path
               style="fill:#231f20"
               inkscape:connector-curvature="0"
               d="m 310.455,599.028 1.047,-1.074 c 0,0 0.28,0.285 0.561,0.569 0.284,0.282 0.552,0.575 0.552,0.575 l -1.102,1.018 c 0,10e-4 -0.258,-0.281 -0.526,-0.548 -0.266,-0.27 -0.532,-0.54 -0.532,-0.54 z"
               id="path484" /><polygon
               style="fill:#231f20"
               points="319.105,606.895 320.133,608.039 319.028,609.053 317.974,607.881 "
               id="polygon486" /></g></g></g></g></g><g
     id="g488"><g
       id="g490"><g
         id="g492"><g
           id="g494"><g
             id="g496"><g
               id="g498"><path
                 style="fill:none"
                 inkscape:connector-curvature="0"
                 d="m 302.812,596.492 c 0,0 0.224,-0.002 0.614,-0.005 0.391,0.009 0.95,-0.041 1.618,0.002 1.339,0.03 3.118,0.199 4.865,0.51 1.735,0.354 3.444,0.806 4.664,1.279 0.629,0.196 1.11,0.444 1.465,0.581 0.351,0.146 0.551,0.229 0.551,0.229 l 6.204,-13.655 c 0,0 -0.309,-0.131 -0.848,-0.359 -0.543,-0.218 -1.304,-0.58 -2.252,-0.893 -1.873,-0.714 -4.437,-1.413 -7.028,-1.925 -2.599,-0.473 -5.223,-0.713 -7.193,-0.76 -0.985,-0.052 -1.806,0 -2.381,-0.004 -0.575,0.009 -0.903,0.015 -0.903,0.015 l 0.624,14.985 z"
                 id="path500" /></g><g
               id="g502"><path
                 style="fill:#231f20"
                 inkscape:connector-curvature="0"
                 d="m 306.52,589.794 c 0,0 0.146,0.007 0.4,0.018 0.254,0.026 0.617,0.063 1.052,0.106 0.874,0.063 2.024,0.253 3.175,0.442 2.291,0.438 4.515,1.144 4.515,1.144 l 0.461,-1.428 c 0,0 -2.316,-0.736 -4.7,-1.19 -1.196,-0.198 -2.393,-0.394 -3.301,-0.46 -0.452,-0.046 -0.829,-0.083 -1.093,-0.11 -0.265,-0.012 -0.416,-0.019 -0.416,-0.019 l -0.093,1.497 z"
                 id="path504" /></g><path
               style="fill:#231f20"
               inkscape:connector-curvature="0"
               d="m 303.249,589.747 -0.035,-1.5 c 0,0 0.484,-0.006 0.969,-0.013 0.485,-0.016 0.969,0.011 0.969,0.01 l -0.038,1.5 c 0,0 -0.466,-0.025 -0.932,-0.01 -0.467,0.007 -0.933,0.013 -0.933,0.013 z"
               id="path506" /><path
               style="fill:#231f20"
               inkscape:connector-curvature="0"
               d="m 316.969,591.974 0.516,-1.409 c 0,0 0.115,0.041 0.286,0.101 0.174,0.057 0.4,0.144 0.622,0.242 0.447,0.188 0.896,0.377 0.896,0.377 l -0.591,1.379 c 0,0 -0.429,-0.181 -0.857,-0.362 -0.213,-0.094 -0.43,-0.178 -0.597,-0.231 -0.166,-0.059 -0.275,-0.097 -0.275,-0.097 z"
               id="path508" /></g></g><g
           id="g510"><g
             id="g512"><g
               id="g514"><path
                 style="fill:none"
                 inkscape:connector-curvature="0"
                 d="m 316.589,599.089 c 10e-4,0 0.783,0.368 1.917,0.974 1.127,0.617 2.538,1.561 3.836,2.614 1.259,1.094 2.411,2.281 3.162,3.257 0.41,0.462 0.657,0.915 0.88,1.196 0.209,0.291 0.329,0.457 0.329,0.457 l 12.574,-8.174 c 0,0 -0.198,-0.284 -0.546,-0.782 -0.362,-0.485 -0.818,-1.23 -1.491,-2.022 -1.276,-1.645 -3.192,-3.649 -5.282,-5.434 -2.118,-1.744 -4.396,-3.245 -6.173,-4.22 -1.779,-0.964 -3.002,-1.521 -3.002,-1.521 l -6.204,13.655 z"
                 id="path516" /></g><g
               id="g518"><path
                 style="fill:#231f20"
                 inkscape:connector-curvature="0"
                 d="m 322.895,594.803 c 0,0 0.125,0.073 0.345,0.2 0.211,0.143 0.512,0.345 0.873,0.588 0.74,0.463 1.647,1.188 2.562,1.903 0.862,0.774 1.739,1.535 2.317,2.187 0.302,0.313 0.553,0.575 0.728,0.758 0.164,0.193 0.257,0.305 0.257,0.305 l 1.132,-0.984 c 0,0 -0.098,-0.116 -0.271,-0.32 -0.185,-0.192 -0.448,-0.468 -0.765,-0.798 -0.609,-0.684 -1.528,-1.485 -2.437,-2.297 -0.957,-0.753 -1.91,-1.512 -2.686,-1.996 -0.378,-0.255 -0.693,-0.467 -0.915,-0.615 -0.229,-0.135 -0.36,-0.211 -0.36,-0.211 l -0.78,1.28 z"
                 id="path520" /></g><path
               style="fill:#231f20"
               inkscape:connector-curvature="0"
               d="m 320.022,593.261 0.649,-1.352 c 0,0 0.435,0.216 0.869,0.433 0.218,0.109 0.435,0.218 0.598,0.299 0.158,0.092 0.263,0.153 0.263,0.153 l -0.724,1.313 c 0.019,-0.032 -1.655,-0.846 -1.655,-0.846 z"
               id="path522" /><path
               style="fill:#231f20"
               inkscape:connector-curvature="0"
               d="m 330.848,601.817 1.178,-0.929 c 0.034,-0.026 1.151,1.573 1.151,1.573 l -1.235,0.85 c -0.001,0 -1.061,-1.519 -1.094,-1.494 z"
               id="path524" /></g></g></g></g></g><g
     id="g526"><g
       id="g528"><g
         id="g530"><g
           id="g532"><g
             id="g534"><path
               style="fill:none"
               inkscape:connector-curvature="0"
               d="m 323.5,581.001 c 0,0 -1.53,0.041 -3.827,0.103 -2.352,0.026 -5.204,0.253 -8.155,0.413 -2.796,0.151 -5.685,0.377 -7.652,0.39 -2.02,0.057 -3.366,0.095 -3.366,0.095 V 597 c 0,0 1.531,-0.041 3.827,-0.103 2.352,-0.026 5.205,-0.253 8.156,-0.413 2.796,-0.151 5.685,-0.377 7.651,-0.39 2.02,-0.057 3.366,-0.095 3.366,-0.095 v -14.998 z"
               id="path536" /></g><g
             id="g538"><polygon
               style="fill:#231f20"
               points="305.781,588.61 305.848,590.108 318.232,589.399 318.163,587.901 "
               id="polygon540" /></g><polygon
             style="fill:#231f20"
             points="322.553,589.269 320.089,589.337 320.045,587.838 322.541,587.769 "
             id="polygon542" /><polygon
             style="fill:#231f20"
             points="303.987,590.147 301.491,590.216 301.478,588.716 303.942,588.648 "
             id="polygon544" /></g></g></g></g><g
     id="g546"><g
       id="g548"><g
         id="g550"><g
           id="g552"><g
             id="g554"><path
               style="fill:none"
               inkscape:connector-curvature="0"
               d="m 279.886,564.129 c 0,0 -0.375,1.356 -0.936,3.392 -0.137,0.51 -0.285,1.063 -0.442,1.646 -0.156,0.585 -0.23,1.157 -0.356,1.774 -0.224,1.22 -0.462,2.521 -0.701,3.823 -0.681,4.798 -1.362,9.595 -1.362,9.595 l 14.823,2.281 c 0,0 0.678,-4.779 1.356,-9.559 0.198,-1.076 0.396,-2.152 0.583,-3.162 0.1,-0.493 0.164,-1.013 0.282,-1.43 0.116,-0.418 0.226,-0.813 0.328,-1.179 0.392,-1.464 0.653,-2.44 0.653,-2.44 l -14.228,-4.741 z"
               id="path556" /></g><g
             id="g558"><path
               style="fill:#231f20"
               inkscape:connector-curvature="0"
               d="m 285.102,570.635 c 0,0 -0.056,0.158 -0.107,0.44 -0.053,0.283 -0.127,0.688 -0.217,1.172 -0.178,0.971 -0.416,2.264 -0.654,3.557 -0.369,2.587 -0.737,5.173 -0.737,5.173 l 1.486,0.203 c 0,0 0.367,-2.572 0.733,-5.144 0.233,-1.27 0.467,-2.538 0.642,-3.49 0.088,-0.476 0.162,-0.872 0.213,-1.149 0.05,-0.278 0.104,-0.429 0.104,-0.429 l -1.463,-0.333 z"
               id="path560" /></g><polygon
             style="fill:#231f20"
             points="287.499,567.495 286.96,569.473 285.51,569.09 286.068,567.046 "
             id="polygon562" /><polygon
             style="fill:#231f20"
             points="284.643,582.721 284.351,584.791 282.867,584.568 283.158,582.51 "
             id="polygon564" /></g></g></g></g><g
     id="g566"><g
       id="g568"><g
         id="g570"><g
           id="g572"><g
             id="g574"><g
               id="g576"><path
                 style="fill:none"
                 inkscape:connector-curvature="0"
                 d="m 240.441,542.486 c 0,0 4.379,-0.126 8.758,-0.251 1.095,-0.032 2.189,-0.064 3.216,-0.095 1.049,10e-4 2.028,0.002 2.868,0.002 1.683,0.008 2.805,0.013 2.805,0.013 l 0,-14.998 c 0,0 -1.14,-0.005 -2.849,-0.012 -0.857,-10e-4 -1.856,-0.002 -2.928,-0.003 -1.093,0.031 -2.259,0.064 -3.424,0.098 -4.664,0.137 -9.327,0.273 -9.327,0.273 l 0.881,14.973 z"
                 id="path578" /></g><g
               id="g580"><path
                 style="fill:#231f20"
                 inkscape:connector-curvature="0"
                 d="m 244.198,535.624 c 0,0 2.428,-0.07 4.856,-0.141 1.214,-0.035 2.428,-0.071 3.339,-0.098 0.912,-10e-4 1.521,-0.003 1.521,-0.003 l -0.006,-1.499 c 0,0 -0.61,10e-4 -1.524,0.002 -0.917,0.027 -2.138,0.063 -3.36,0.098 -2.443,0.071 -4.887,0.142 -4.887,0.142 l 0.061,1.499 z"
                 id="path582" /></g><polygon
               style="fill:#231f20"
               points="240.708,534.236 242.662,534.179 242.734,535.677 240.791,535.734 "
               id="polygon584" /><polygon
               style="fill:#231f20"
               points="255.362,533.901 257.313,533.91 257.314,535.41 255.366,535.401 "
               id="polygon586" /></g></g><g
           id="g588"><g
             id="g590"><g
               id="g592"><path
                 style="fill:none"
                 inkscape:connector-curvature="0"
                 d="m 258.087,542.155 c 0,0 4.511,0.013 9.022,0.025 4.598,-0.015 9.197,-0.029 9.197,-0.029 l -0.252,-14.996 c 0,0 -4.448,0.014 -8.896,0.027 -4.536,-0.013 -9.071,-0.025 -9.071,-0.025 l 0,14.998 z"
                 id="path594" /></g><g
               id="g596"><polygon
                 style="fill:#231f20"
                 points="272.009,535.412 271.997,533.912 262.26,533.92 262.253,535.42 "
                 id="polygon598" /></g><polygon
               style="fill:#231f20"
               points="258.837,533.916 260.788,533.925 260.784,535.425 258.836,535.416 "
               id="polygon600" /><polygon
               style="fill:#231f20"
               points="273.448,533.919 275.395,533.913 275.417,535.413 273.465,535.419 "
               id="polygon602" /></g></g><g
           id="g604"><g
             id="g606"><g
               id="g608"><path
                 style="fill:none"
                 inkscape:connector-curvature="0"
                 d="m 276.306,542.151 c 0,0 0.287,-10e-4 0.79,-0.003 0.499,0.01 1.224,-0.009 2.106,-0.063 1.756,-0.09 4.097,-0.209 6.438,-0.327 4.576,-0.251 9.151,-0.501 9.151,-0.501 l -1.084,-14.959 c 0,0 -1.151,0.069 -2.878,0.172 -1.646,0.086 -3.841,0.199 -6.036,0.313 -2.176,0.112 -4.352,0.225 -5.984,0.309 -0.811,0.054 -1.499,0.071 -1.99,0.062 -0.486,0.002 -0.765,0.002 -0.765,0.002 l 0.252,14.995 z"
                 id="path610" /></g><g
               id="g612"><polygon
                 style="fill:#231f20"
                 points="290.139,534.764 290.019,533.269 280.321,533.765 280.369,535.264 "
                 id="polygon614" /></g><path
               style="fill:#231f20"
               inkscape:connector-curvature="0"
               d="m 276.943,535.408 -0.028,-1.5 c 0,0 0.486,-0.003 0.973,-0.007 0.485,-0.024 0.97,-0.05 0.97,-0.05 l 0.038,1.5 c 0,0 -0.488,0.024 -0.977,0.05 -0.488,0.003 -0.976,0.007 -0.976,0.007 z"
               id="path616" /><polygon
               style="fill:#231f20"
               points="291.472,533.198 293.422,533.082 293.533,534.578 291.591,534.693 "
               id="polygon618" /></g></g><g
           id="g620"><g
             id="g622"><g
               id="g624"><path
                 style="fill:none"
                 inkscape:connector-curvature="0"
                 d="m 294.792,541.257 c 0,0 4.425,-0.263 8.85,-0.524 2.203,-0.162 4.455,-0.171 6.124,-0.239 1.674,-0.051 2.79,-0.085 2.79,-0.085 l -0.472,-14.991 c 0,0 -1.144,0.035 -2.86,0.088 -1.72,0.07 -3.995,0.079 -6.305,0.247 -4.605,0.272 -9.211,0.546 -9.211,0.546 l 1.084,14.958 z"
                 id="path626" /></g><g
               id="g628"><path
                 style="fill:#231f20"
                 inkscape:connector-curvature="0"
                 d="m 298.456,534.274 c 0,0 2.428,-0.144 4.855,-0.288 1.213,-0.082 2.428,-0.139 3.341,-0.155 0.912,-0.027 1.521,-0.046 1.521,-0.046 l -0.058,-1.499 c 0,0 -0.609,0.019 -1.524,0.047 -0.915,0.017 -2.133,0.072 -3.352,0.155 -2.437,0.145 -4.875,0.289 -4.875,0.289 l 0.092,1.497 z"
                 id="path630" /></g><polygon
               style="fill:#231f20"
               points="294.945,532.992 296.895,532.876 296.992,534.373 295.051,534.488 "
               id="polygon632" /><polygon
               style="fill:#231f20"
               points="309.571,532.253 311.522,532.193 311.571,533.692 309.624,533.752 "
               id="polygon634" /></g></g><g
           id="g636"><g
             id="g638"><g
               id="g640"><path
                 style="fill:none"
                 inkscape:connector-curvature="0"
                 d="m 312.555,540.408 c 0,0 1.117,-0.034 2.791,-0.086 1.679,-0.036 3.898,-0.151 6.148,-0.156 4.489,-0.051 8.979,-0.102 8.979,-0.102 l -0.13,-14.997 c 0,0 -4.557,0.052 -9.113,0.104 -2.273,0.005 -4.573,0.121 -6.286,0.159 -1.716,0.053 -2.86,0.087 -2.86,0.087 l 0.471,14.991 z"
                 id="path642" /></g><g
               id="g644"><path
                 style="fill:#231f20"
                 inkscape:connector-curvature="0"
                 d="m 316.504,533.53 c 0,0 0.608,-0.019 1.521,-0.047 0.912,-0.033 2.129,-0.064 3.347,-0.069 2.435,-0.028 4.869,-0.056 4.869,-0.056 l -0.02,-1.5 c 0,0 -2.438,0.027 -4.876,0.056 -1.22,0.005 -2.438,0.037 -3.354,0.07 -0.914,0.027 -1.524,0.046 -1.524,0.046 l 0.037,1.5 z"
                 id="path646" /></g><polygon
               style="fill:#231f20"
               points="313.046,532.147 314.996,532.087 315.037,533.587 313.091,533.646 "
               id="polygon648" /><rect
               style="fill:#231f20"
               x="327.91"
               y="531.617"
               transform="matrix(0.0117,0.9999,-0.9999,0.0117,857.3651,197.7138)"
               width="1.5"
               height="1.951"
               id="rect650" /></g></g><g
           id="g652"><g
             id="g654"><g
               id="g656"><path
                 style="fill:none"
                 inkscape:connector-curvature="0"
                 d="m 330.473,540.064 c 0,0.001 4.484,-0.06 9.004,-0.051 4.512,-0.007 9.023,-0.015 9.023,-0.015 V 525 c 0,0 -4.535,0.008 -9.069,0.015 -4.526,-0.009 -9.088,0.052 -9.088,0.052 l 0.13,14.997 z"
                 id="path658" /></g><g
               id="g660"><rect
                 style="fill:#231f20"
                 x="334.578"
                 y="531.76001"
                 transform="matrix(-1,0.0016,-0.0016,-1,679.7551,1064.4741)"
                 width="9.7449999"
                 height="1.5"
                 id="rect662" /></g><polygon
               style="fill:#231f20"
               points="331.151,531.814 333.102,531.792 333.111,533.292 331.163,533.314 "
               id="polygon664" /><rect
               style="fill:#231f20"
               x="345.77701"
               y="531.76001"
               width="1.949"
               height="1.5"
               id="rect666" /></g></g></g></g></g><path
     style="fill:none;stroke:#000000;stroke-miterlimit:10"
     inkscape:connector-curvature="0"
     stroke-miterlimit="10"
     d="m 269.5,364.5 c 1,7.5 1,15.5 1,23"
     id="path668" /><path
     style="fill:none;stroke:#000000;stroke-miterlimit:10"
     inkscape:connector-curvature="0"
     stroke-miterlimit="10"
     d="m 275,360 c 0,9.5 0.5,18.5 0.5,28"
     id="path670" /><path
     style="fill:none;stroke:#000000;stroke-miterlimit:10"
     inkscape:connector-curvature="0"
     stroke-miterlimit="10"
     d="m 331.125,249 c 1,-2 0,-6.375 -1,-8.375 -1.5,-3.25 -4.375,-4.5 -7.75,-4.5 C 315,236 309,238 303.5,243.125 c -2.5,2.25 -3.875,5.375 -4.375,8.625 -0.125,0.875 -0.5,3.375 -0.125,4 0.875,1.375 3.25,0.75 4.375,0 6.125,-3.5 7,-12.75 12.625,-16.875 1.625,-1.25 4.125,-2.125 6,-2.625"
     id="path672" /><path
     style="fill:none;stroke:#000000;stroke-miterlimit:10"
     inkscape:connector-curvature="0"
     stroke-miterlimit="10"
     d="m 304.125,242.875 c -0.875,2.5 2.375,5.25 4.375,6"
     id="path674" /><path
     style="fill:none;stroke:#000000;stroke-miterlimit:10"
     inkscape:connector-curvature="0"
     stroke-miterlimit="10"
     d="m 326.875,237.125 c -1.125,-7.625 -8.125,-8 -14.375,-8.25 -4,-0.125 -6.25,1.625 -8.875,4.25 -1.875,1.875 -6,6.25 -8.75,6 -1.25,-6.375 8.5,-11.125 13.625,-11.75 -3.5,0.625 -7,2 -10.375,3.125 -1.25,0.5 -3.375,1.75 -4.75,1.5 -1.875,-0.375 -2.5,-2.75 -2.5,-4.375 -0.125,-4.75 8,-3.625 11.25,-3.125 1.625,0.25 3.5,0.375 5,1 1.75,0.75 3.75,1.75 2.75,-1.25 -1.375,-4.375 -9.625,-10.75 -14.375,-10.875 -2.125,0 -5.875,3.625 -5,5.875 1.125,2.375 5.875,2.875 7.625,4.875"
     id="path676" /><path
     style="fill:none;stroke:#000000;stroke-miterlimit:10"
     inkscape:connector-curvature="0"
     stroke-miterlimit="10"
     d="m 310.875,224.125 c 5.5,2.375 12.375,1.5 16.25,7.125 1.25,2 2,4.25 2.875,6.5 0.875,2.125 2,4.125 3,6.25"
     id="path678" /><path
     style="fill:none;stroke:#000000;stroke-miterlimit:10"
     inkscape:connector-curvature="0"
     stroke-miterlimit="10"
     d="m 330.75,248 c 0,1.625 0.25,4.625 -1.25,5.25 -1.125,0.5 -4.375,-0.25 -5.75,-0.25 -4.5,0 -6.5,1 -9.375,4.375 -2.75,3 -5.125,5.625 -5.875,9.875 -0.5,3 -0.75,6.125 -1.875,9.125 -0.75,2 -1.875,3.875 -2.875,5.75 -1.125,2.5 -0.25,2.5 1.25,4.5 2.5,3.625 -0.5,10.375 2.75,13.625 2.5,-3.875 1.25,-9.5 3.375,-13.625 1,-2 2.125,-1.625 3.625,-2.75 1.75,-1.25 1.375,-3.5 1.375,-5.5 0,-3.125 -0.875,-6.125 -1,-9.25 -0.125,-3.625 2.875,-6.625 5.5,-8.75 1.75,-1.25 3.375,-2.25 4.75,-3.875 1.125,2.875 -2.875,6.625 -4.25,8.875 -1.875,3.125 -3.875,5.75 -3,9.5 0.625,3.375 2.25,2.25 4.5,0.375 1.375,-1 2.5,-2.25 2.875,-4 1,-3.25 0.375,-6.375 2.375,-9.375 2.75,-4 2.375,3.25 2.375,5.125 0,3.625 0.25,7.25 0.25,10.875 0,7.625 0.625,15.5 0.125,23.125"
     id="path680" /><path
     style="fill:none;stroke:#000000;stroke-miterlimit:10"
     inkscape:connector-curvature="0"
     stroke-miterlimit="10"
     d="m 330.833,297.5 c 0,6.333 1.334,12.333 1.334,18.667 0,5.667 -2.667,10.667 -2.334,16.333"
     id="path682" /><path
     style="fill:none;stroke:#000000;stroke-miterlimit:10"
     inkscape:connector-curvature="0"
     stroke-miterlimit="10"
     d="m 331.833,338.5 c -0.333,-3.667 1.667,-6.667 2.667,-10 1,-4.333 1,-8.333 1,-12.667 -0.333,-6.333 -0.667,-12.333 -0.667,-18.333 0,-6.333 0,-12.333 0,-18.333 0,-3 -2,-7.333 -1.666,-9.667 0.666,-4.333 6,-4 6.333,0.667 0.333,2.667 -0.667,5.333 -4,5"
     id="path684" /><path
     style="fill:none;stroke:#000000;stroke-miterlimit:10"
     inkscape:connector-curvature="0"
     stroke-miterlimit="10"
     d="m 332.833,246.833 c 1.167,0 2.75,-3.417 3.5,-4.417 1,-1.25 2.167,-2.333 3.333,-3.417 1.917,-1.833 3.917,-2.917 6.417,-3.917 2.25,-0.833 5.083,-1.25 7,0.417 1.833,1.583 3.75,3.917 4.667,6.083 1.666,4.083 -4.417,5.25 -7.25,3.917 -2.25,-1 -3.417,-2.083 -4,-4.5 -0.417,-1.75 -0.667,-3.667 -2.084,-5"
     id="path686" /><path
     style="fill:none;stroke:#000000;stroke-miterlimit:10"
     inkscape:connector-curvature="0"
     stroke-miterlimit="10"
     d="m 348.416,244.75 c -1.083,0.583 -1.75,3.417 -1.666,4.667 0.083,1.417 1.166,3 2.166,4 1.084,1.083 2.5,1.167 4,0.917 2.167,-0.417 2.25,-1.75 2.584,-3.667 0.083,3.333 0.25,5.667 4.333,5.5 2.917,-0.083 3.667,-3.417 4.083,-5.833 0.334,-2.5 -0.083,-5.25 -2.666,-6.333 -1,-0.417 -2,-0.167 -2.25,-1.333 -0.25,-1.167 0.833,-2.417 1.666,-3 3,-2.25 7.084,-1.75 8.167,1.917 0.417,1.333 1,4.417 -0.083,5.417 -0.917,0.833 -3.084,0.917 -4.084,0.417"
     id="path688" /><path
     style="fill:none;stroke:#000000;stroke-miterlimit:10"
     inkscape:connector-curvature="0"
     stroke-miterlimit="10"
     d="m 353.666,234.833 c 1,-1.5 0.417,-4.333 2.334,-5.5 1.666,-1.167 3.916,-0.083 5.333,0.917 2.25,1.583 3.333,6.75 0.583,8.417"
     id="path690" /><path
     style="fill:none;stroke:#000000;stroke-miterlimit:10"
     inkscape:connector-curvature="0"
     stroke-miterlimit="10"
     d="m 330.375,259.375 c 0.125,3.375 5.75,5.375 6.75,1.625 0.25,-1.125 -1,-3.25 -0.75,-4 0.75,-1.5 2.5,2.75 2.875,3.375 -0.125,-1.125 -0.125,-2.25 -0.625,-3.375 -0.5,-1 -1.5,-1.5 -2,-2.5 -0.875,-2 0.25,-3.125 2.25,-3.375 3.875,-0.5 4.125,3.25 4.625,6.25 0.375,2.75 2.25,9.75 5.375,10.75 3.625,1.375 3.25,-7.75 2.75,-9.875 -1.25,-4.875 -4,-6 -8.375,-7.5 -2.375,-0.75 -10,-2.875 -10.5,1.5 1,-4.625 2.75,-8 5.25,-12"
     id="path692" /><path
     style="fill:none;stroke:#000000;stroke-miterlimit:10"
     inkscape:connector-curvature="0"
     stroke-miterlimit="10"
     d="m 325.5,353.333 c 2.5,1.333 0.5,15.5 1,18.5"
     id="path694" /><path
     style="fill:none;stroke:#000000;stroke-miterlimit:10"
     inkscape:connector-curvature="0"
     stroke-miterlimit="10"
     d="m 331.667,353.167 c 0.5,3.667 -0.333,8.5 -0.5,12.333 -0.167,3.5 -0.667,7 -1.667,10.333"
     id="path696" /><g
     id="g698"><g
       id="g700"><g
         id="g702"><g
           id="g704"><g
             id="g706"><path
               style="fill:none"
               inkscape:connector-curvature="0"
               d="m 316.734,378.823 c 0,0 0.058,0.454 0.143,1.135 0.101,0.708 0.16,1.513 0.251,2.367 0.022,0.749 0.11,1.588 0.066,2.027 -0.005,0.489 -0.009,0.814 -0.009,0.814 l 14.965,1 c 0,0 0.017,-0.657 0.041,-1.642 0.047,-1.036 -0.056,-2.157 -0.111,-3.372 -0.108,-1.101 -0.209,-2.256 -0.315,-3.007 -0.098,-0.782 -0.163,-1.303 -0.163,-1.303 l -14.868,1.981 z"
               id="path708" /></g><g
             id="g710"><path
               style="fill:#231f20"
               inkscape:connector-curvature="0"
               d="m 323.653,379.717 c 0,0 0.104,1.04 0.208,2.079 0.026,0.517 0.053,1.034 0.073,1.422 0.022,0.388 0.025,0.645 0.025,0.645 l 1.5,-0.022 c 0,0 -0.003,-0.272 -0.026,-0.677 -0.021,-0.405 -0.049,-0.946 -0.077,-1.486 -0.106,-1.068 -0.213,-2.135 -0.213,-2.135 l -1.49,0.174 z"
               id="path712" /></g><polygon
             style="fill:#231f20"
             points="324.945,378.06 325.051,378.906 323.562,379.089 323.457,378.254 "
             id="polygon714" /><polygon
             style="fill:#231f20"
             points="325.435,384.494 325.416,385.369 323.918,385.292 323.935,384.473 "
             id="polygon716" /></g></g></g></g><path
     style="fill:none;stroke:#000000;stroke-miterlimit:10"
     inkscape:connector-curvature="0"
     stroke-miterlimit="10"
     d="m 267.831,343.167 c 2,8 -0.667,16.667 2,24.667"
     id="path718" /><path
     style="fill:none;stroke:#000000;stroke-miterlimit:10"
     inkscape:connector-curvature="0"
     stroke-miterlimit="10"
     d="m 273.165,343.834 c 0,6 -0.667,13.333 1.333,18.667"
     id="path720" /><path
     style="fill:none;stroke:#000000;stroke-miterlimit:10"
     inkscape:connector-curvature="0"
     stroke-miterlimit="10"
     d="m 291.875,593.125 c 6.125,-5 14.625,-6.5 22,-8.25 6.5,-1.625 13.75,-2.125 20.125,0.5"
     id="path722" /><path
     style="fill:none;stroke:#000000;stroke-miterlimit:10"
     inkscape:connector-curvature="0"
     stroke-miterlimit="10"
     d="m 335.5,581.375 c -1.75,-1.625 -6.25,-1 -8.5,-1 -2.875,-0.125 -5.75,-0.375 -8.625,-0.25 -7,0.375 -14,3 -20.5,5.25 -2.75,0.875 -5.75,1.5 -8.375,2.75 -2.25,1 -4.875,4.375 -1.875,6.375"
     id="path724" /><g
     id="g726"><g
       id="g728"><g
         id="g730"><g
           id="g732"><g
             id="g734"><g
               id="g736"><path
                 style="fill:none"
                 inkscape:connector-curvature="0"
                 d="m 337.232,603.615 0.583,-0.04 0.425,-0.044 0.712,-0.087 1.204,-0.173 2.182,-0.335 c 1.406,-0.215 2.768,-0.413 4.073,-0.566 1.291,-0.152 2.576,-0.267 3.559,-0.274 0.241,-0.004 0.472,-0.002 0.627,0.009 0.092,0.003 0.164,0.008 0.2,0.015 l 0.069,0.004 c -0.002,0.003 -0.004,0.003 -0.005,0.002 0.033,-10e-4 -0.092,-0.012 -0.165,-0.039 -0.008,-0.009 -0.18,-0.045 -0.26,-0.077 l -0.396,-0.159 c -0.21,-0.092 -0.347,-0.17 -0.593,-0.319 -0.318,-0.186 -0.62,-0.413 -0.887,-0.666 -0.396,-0.344 -0.796,-0.801 -1.084,-1.272 -0.366,-0.54 -0.677,-1.213 -0.836,-1.868 l -0.119,-3.444 -0.039,0.197 14.707,2.941 0.039,-0.197 0.357,-1.786 -0.477,-1.658 c -0.235,-0.821 -0.613,-1.664 -1.063,-2.365 -0.407,-0.608 -0.922,-1.208 -1.441,-1.685 -0.414,-0.36 -0.862,-0.695 -1.328,-0.988 -0.401,-0.243 -0.708,-0.391 -1.08,-0.565 -1.31,-0.566 -2.2,-0.727 -2.921,-0.85 -1.458,-0.225 -2.479,-0.228 -3.467,-0.226 -1.933,0.026 -3.552,0.194 -5.154,0.377 -1.589,0.188 -3.11,0.411 -4.586,0.637 l -2.139,0.328 -1.412,0.195 0.715,14.978 z"
                 id="path738" /></g><g
               id="g740"><path
                 style="fill:#231f20"
                 inkscape:connector-curvature="0"
                 d="m 341.024,596.305 c 0,0 2.35,-0.38 4.691,-0.654 1.171,-0.137 2.34,-0.241 3.211,-0.281 0.873,-0.044 1.442,-0.028 1.442,-0.028 l 0.021,-1.5 c 0,0 -0.622,-0.016 -1.535,0.03 -0.914,0.042 -2.118,0.149 -3.313,0.289 -2.391,0.28 -4.745,0.661 -4.745,0.662 l 0.228,1.482 z"
                 id="path742" /></g><path
               style="fill:#231f20"
               inkscape:connector-curvature="0"
               d="m 337.695,596.807 -0.179,-1.489 c 0,0 0.463,-0.063 0.926,-0.126 0.469,-0.069 0.937,-0.14 0.937,-0.14 l 0.227,1.483 c 0,0 -0.474,0.07 -0.948,0.142 -0.483,0.065 -0.963,0.13 -0.963,0.13 z"
               id="path744" /><path
               style="fill:#231f20"
               inkscape:connector-curvature="0"
               d="m 351.702,595.433 0.187,-1.488 c 0,-0.001 0.511,0.056 1.052,0.211 0.271,0.076 0.555,0.201 0.769,0.318 0.221,0.146 0.361,0.26 0.361,0.261 l -0.998,1.119 c 0,0 -0.049,-0.027 -0.12,-0.085 -0.102,-0.051 -0.249,-0.121 -0.438,-0.176 -0.375,-0.107 -0.813,-0.16 -0.813,-0.16 z"
               id="path746" /></g></g><g
           id="g748"><g
             id="g750"><g
               id="g752"><path
                 style="fill:none"
                 inkscape:connector-curvature="0"
                 d="m 346.483,594.476 -0.461,2.303 1.21,-2.83 c 0.415,-0.617 0.961,-1.127 1.49,-1.503 0.307,-0.201 0.498,-0.323 0.747,-0.448 0.12,-0.06 0.243,-0.114 0.368,-0.163 l 0.271,-0.108 c 0.418,-0.138 0.627,-0.188 0.875,-0.222 0.145,-0.033 0.346,-0.036 0.382,-0.042 0.292,0.002 -0.048,0.002 -0.548,-0.079 l -1.099,-0.154 c -0.324,-0.038 -0.655,-0.079 -0.946,-0.095 l -0.745,-0.011 -2.261,-0.013 c -3.109,0.082 -6.4,0.557 -9.521,1.448 l 4.262,14.381 c 1.806,-0.492 3.597,-0.769 5.6,-0.835 l 1.573,0.013 h 0.214 c 0.026,0.002 0.014,0 0.006,-0.001 l 0.801,0.114 c 0.764,0.097 1.698,0.264 3.269,0.217 0.356,-0.007 0.874,-0.06 1.336,-0.126 0.562,-0.099 1.086,-0.202 1.804,-0.456 l 0.497,-0.186 c 0.195,-0.085 0.39,-0.176 0.581,-0.272 0.39,-0.2 0.731,-0.381 1.158,-0.689 0.407,-0.296 0.785,-0.59 1.153,-0.962 0.369,-0.374 0.714,-0.782 1.021,-1.206 l 0.891,-1.23 0.32,-1.6 0.461,-2.303 -14.709,-2.942 z"
                 id="path754" /></g><g
               id="g756"><path
                 style="fill:#231f20"
                 inkscape:connector-curvature="0"
                 d="m 351.797,598.202 c 0,0 -0.489,0.05 -1.339,-0.053 -0.439,-0.062 -0.952,-0.132 -1.502,-0.208 -0.627,-0.103 -1.237,-0.05 -1.838,-0.07 -1.21,-0.043 -2.428,0.063 -3.341,0.119 -0.457,0.017 -0.834,0.077 -1.099,0.12 -0.265,0.039 -0.416,0.062 -0.416,0.062 l 0.209,1.485 c 0,0 0.144,-0.021 0.394,-0.059 0.25,-0.041 0.607,-0.1 1.045,-0.114 0.87,-0.053 2.026,-0.156 3.2,-0.113 0.589,0.018 1.175,-0.026 1.653,0.058 0.556,0.077 1.075,0.148 1.521,0.21 0.927,0.118 1.634,0.059 1.633,0.059 l -0.12,-1.496 z"
                 id="path758" /></g><path
               style="fill:#231f20"
               inkscape:connector-curvature="0"
               d="m 352.95,596.516 1.471,0.294 -0.317,1.585 -0.035,0.177 -0.085,0.104 c -0.094,0.115 -0.191,0.23 -0.295,0.336 l -1.018,-1.103 c 0.026,-0.034 0.051,-0.066 0.084,-0.094 l -0.122,0.285 0.317,-1.584 z"
               id="path760" /><path
               style="fill:#231f20"
               inkscape:connector-curvature="0"
               d="m 340.818,598.378 0.285,1.473 c 0,0 -0.115,0.016 -0.283,0.062 -0.169,0.041 -0.394,0.098 -0.618,0.153 -0.45,0.11 -0.9,0.222 -0.9,0.222 l -0.387,-1.449 c 0,0 0.476,-0.117 0.951,-0.234 0.237,-0.059 0.475,-0.117 0.653,-0.161 0.178,-0.05 0.299,-0.066 0.299,-0.066 z"
               id="path762" /></g></g></g></g></g></g></svg>