<?xml version="1.0" encoding="UTF-8" standalone="no"?>
<!-- Generator: Adobe Illustrator 16.0.0, SVG Export Plug-In . SVG Version: 6.00 Build 0)  -->

<svg
   xmlns:dc="http://purl.org/dc/elements/1.1/"
   xmlns:cc="http://creativecommons.org/ns#"
   xmlns:rdf="http://www.w3.org/1999/02/22-rdf-syntax-ns#"
   xmlns:svg="http://www.w3.org/2000/svg"
   xmlns="http://www.w3.org/2000/svg"
   xmlns:sodipodi="http://sodipodi.sourceforge.net/DTD/sodipodi-0.dtd"
   xmlns:inkscape="http://www.inkscape.org/namespaces/inkscape"
   version="1.0"
   id="Layer_1"
   x="0px"
   y="0px"
   viewBox="0 0 500.69628 481.65625"
   enable-background="new 0 0 437 54"
   xml:space="preserve"
   inkscape:version="0.48.4 r9939"
   width="100%"
   height="100%"
   sodipodi:docname="canvas.svg"><metadata
   id="metadata110"><rdf:RDF><cc:Work
       rdf:about=""><dc:format>image/svg+xml</dc:format><dc:type
         rdf:resource="http://purl.org/dc/dcmitype/StillImage" /><dc:title></dc:title></cc:Work></rdf:RDF></metadata><defs
   id="defs108" /><sodipodi:namedview
   pagecolor="#ffffff"
   bordercolor="#666666"
   borderopacity="1"
   objecttolerance="10"
   gridtolerance="10"
   guidetolerance="10"
   inkscape:pageopacity="0"
   inkscape:pageshadow="2"
   inkscape:window-width="640"
   inkscape:window-height="480"
   id="namedview106"
   showgrid="false"
   inkscape:zoom="0.65446224"
   inkscape:cx="361.8276"
   inkscape:cy="156.26905"
   inkscape:window-x="0"
   inkscape:window-y="0"
   inkscape:window-maximized="0"
   inkscape:current-layer="Layer_1"
   fit-margin-top="0"
   fit-margin-left="0"
   fit-margin-right="0"
   fit-margin-bottom="0"
   showborder="false"
   inkscape:showpageshadow="false" />

<g
   transform="translate(-82.625,-156.90625)"
   id="Layer_2"><polyline
     style="fill:none;stroke:#000000;stroke-width:2;stroke-miterlimit:10"
     stroke-miterlimit="10"
     points="83.5,638.079 109.5,587.5 109.5,540.5    323.5,540.5 323.5,589.289 349.5,638.079  "
     id="polyline9" /><ellipse
     d="m 316.5,447.5 c 0,8.28427 -44.54767,15 -99.5,15 -54.95233,0 -99.5,-6.71573 -99.5,-15 0,-8.28427 44.54767,-15 99.5,-15 54.95233,0 99.5,6.71573 99.5,15 z"
     style="fill:none;stroke:#000000;stroke-width:2;stroke-miterlimit:10"
     sodipodi:ry="15"
     sodipodi:rx="99.5"
     sodipodi:cy="447.5"
     sodipodi:cx="217"
     stroke-miterlimit="10"
     cx="217"
     cy="447.5"
     rx="99.5"
     ry="15"
     id="ellipse11" /><path
     style="fill:none;stroke:#000000;stroke-width:2;stroke-miterlimit:10"
     inkscape:connector-curvature="0"
     stroke-miterlimit="10"
     d="m 117.5,450.5 c 0,0 3,90 7,90 4,0 181.5,0 181.5,0 l 7.499,-89.333"
     id="path13" /><ellipse
     d="m 238.5,444.5 c 0,2.76142 -9.17816,5 -20.5,5 -11.32184,0 -20.5,-2.23858 -20.5,-5 0,-2.76142 9.17816,-5 20.5,-5 11.32184,0 20.5,2.23858 20.5,5 z"
     style="fill:#130f23;stroke:#000000;stroke-width:2;stroke-miterlimit:10"
     sodipodi:ry="5"
     sodipodi:rx="20.5"
     sodipodi:cy="444.5"
     sodipodi:cx="218"
     stroke-miterlimit="10"
     cx="218"
     cy="444.5"
     rx="20.5"
     ry="5"
     id="ellipse15" /><g
     id="g17"><rect
       style="fill:#130f23;stroke:#000000;stroke-width:2;stroke-miterlimit:10"
       x="161.98"
       y="557.125"
       stroke-miterlimit="10"
       width="5.04"
       height="27.405001"
       id="rect19" /><polygon
       style="fill:#130f23;stroke:#000000;stroke-width:2;stroke-miterlimit:10"
       stroke-miterlimit="10"
       points="154.284,559.559 164.5,541.862 174.717,559.559 "
       id="polygon21" /></g><g
     id="g23"><rect
       style="fill:#130f23;stroke:#000000;stroke-width:2;stroke-miterlimit:10"
       x="212.979"
       y="557.125"
       stroke-miterlimit="10"
       width="5.04"
       height="27.405001"
       id="rect25" /><polygon
       style="fill:#130f23;stroke:#000000;stroke-width:2;stroke-miterlimit:10"
       stroke-miterlimit="10"
       points="205.283,559.559 215.5,541.862 225.716,559.559 "
       id="polygon27" /></g><g
     id="g29"><rect
       style="fill:#130f23;stroke:#000000;stroke-width:2;stroke-miterlimit:10"
       x="260.45999"
       y="557.125"
       stroke-miterlimit="10"
       width="5.04"
       height="27.405001"
       id="rect31" /><polygon
       style="fill:#130f23;stroke:#000000;stroke-width:2;stroke-miterlimit:10"
       stroke-miterlimit="10"
       points="252.764,559.559 262.98,541.862 273.197,559.559 "
       id="polygon33" /></g><path
     style="fill:none;stroke:#000000;stroke-width:2;stroke-miterlimit:10"
     inkscape:connector-curvature="0"
     stroke-miterlimit="10"
     d="m 136.893,252.938 c 0,0 8.883,-11.005 16.379,-2.955 7.496,8.05 89.957,96.601 89.957,96.601 l 88.551,-82.461 -88.594,-95.137 c 0,0 -7.791,-5.432 -3.934,-11.562"
     id="path35" /><g
     id="g37"><g
       id="g39"><g
         id="g41"><g
           id="g43"><g
             id="g45"><rect
               x="174.41701"
               y="309.41299"
               transform="matrix(-0.9534,0.3017,-0.3017,-0.9534,436.3998,555.4854)"
               width="1.777"
               height="4.0570002"
               id="rect47" /><rect
               x="176.23801"
               y="315.17401"
               transform="matrix(-0.9534,0.3016,-0.3016,-0.9534,441.6758,566.2108)"
               width="1.778"
               height="4.0570002"
               id="rect49" /><rect
               x="178.06"
               y="320.93399"
               transform="matrix(-0.9535,0.3014,-0.3014,-0.9535,446.9053,576.9843)"
               width="1.777"
               height="4.0570002"
               id="rect51" /><rect
               x="179.882"
               y="326.69601"
               transform="matrix(-0.9534,0.3016,-0.3016,-0.9534,452.2692,587.6191)"
               width="1.778"
               height="4.0560002"
               id="rect53" /><rect
               x="181.70399"
               y="332.45599"
               transform="matrix(-0.9534,0.3016,-0.3016,-0.9534,457.5653,598.322)"
               width="1.778"
               height="4.0570002"
               id="rect55" /><rect
               x="183.52699"
               y="338.21799"
               transform="matrix(-0.9534,0.3016,-0.3016,-0.9534,462.8633,609.0279)"
               width="1.778"
               height="4.0560002"
               id="rect57" /><rect
               x="185.349"
               y="343.978"
               transform="matrix(-0.9535,0.3014,-0.3014,-0.9535,468.0873,619.8031)"
               width="1.777"
               height="4.0560002"
               id="rect59" /></g></g><g
           id="g61"><g
             id="g63"><rect
               x="187.17101"
               y="349.73901"
               transform="matrix(-0.9534,0.3016,-0.3016,-0.9534,473.456,630.4349)"
               width="1.778"
               height="4.0570002"
               id="rect65" /><rect
               x="188.993"
               y="355.5"
               transform="matrix(-0.9534,0.3017,-0.3017,-0.9534,478.7767,641.1145)"
               width="1.777"
               height="4.0570002"
               id="rect67" /><rect
               x="190.815"
               y="361.26001"
               transform="matrix(-0.9535,0.3014,-0.3014,-0.9535,483.9976,651.8942)"
               width="1.777"
               height="4.0570002"
               id="rect69" /><rect
               x="192.63699"
               y="367.022"
               transform="matrix(-0.9534,0.3017,-0.3017,-0.9534,489.371,662.5223)"
               width="1.777"
               height="4.0560002"
               id="rect71" /><rect
               x="194.459"
               y="372.78201"
               transform="matrix(-0.9534,0.3016,-0.3016,-0.9534,494.6427,673.2496)"
               width="1.778"
               height="4.0570002"
               id="rect73" /><rect
               x="196.28101"
               y="378.54401"
               transform="matrix(-0.9534,0.3016,-0.3016,-0.9534,499.9402,683.9557)"
               width="1.778"
               height="4.0570002"
               id="rect75" /><rect
               x="198.103"
               y="384.30399"
               transform="matrix(-0.9535,0.3014,-0.3014,-0.9535,505.1808,694.7119)"
               width="1.777"
               height="4.0560002"
               id="rect77" /></g></g><g
           id="g79"><g
             id="g81"><rect
               x="199.925"
               y="390.065"
               transform="matrix(-0.9534,0.3017,-0.3017,-0.9534,510.5594,705.3369)"
               width="1.777"
               height="4.0570002"
               id="rect83" /><rect
               x="201.74699"
               y="395.82599"
               transform="matrix(-0.9534,0.3016,-0.3016,-0.9534,515.8296,716.0663)"
               width="1.778"
               height="4.0570002"
               id="rect85" /><rect
               x="203.569"
               y="401.58701"
               transform="matrix(-0.9534,0.3017,-0.3017,-0.9534,521.1536,726.7437)"
               width="1.777"
               height="4.0570002"
               id="rect87" /><rect
               x="205.39101"
               y="407.34799"
               transform="matrix(-0.9534,0.3016,-0.3016,-0.9534,526.4236,737.4746)"
               width="1.778"
               height="4.0560002"
               id="rect89" /><rect
               x="207.213"
               y="413.108"
               transform="matrix(-0.9534,0.3017,-0.3017,-0.9534,531.7477,748.1505)"
               width="1.777"
               height="4.0570002"
               id="rect91" /><rect
               x="209.036"
               y="418.871"
               transform="matrix(-0.9534,0.3017,-0.3017,-0.9534,537.0457,758.8567)"
               width="1.777"
               height="4.0560002"
               id="rect93" /><rect
               x="210.85699"
               y="424.63101"
               transform="matrix(-0.9534,0.3016,-0.3016,-0.9534,542.3131,769.5858)"
               width="1.778"
               height="4.0560002"
               id="rect95" /></g></g></g></g></g><g
     id="g97"><g
       id="g99"><g
         id="g101"><g
           id="g103"><g
             id="g105"><rect
               x="204.55701"
               y="314.49301"
               transform="matrix(-0.9951,0.0989,-0.0989,-0.9951,441.1693,610.9132)"
               width="1.778"
               height="3.7920001"
               id="rect107" /><rect
               x="205.116"
               y="320.112"
               transform="matrix(-0.9951,0.0986,-0.0986,-0.9951,442.7645,622.1266)"
               width="1.777"
               height="3.7909999"
               id="rect109" /><rect
               x="205.674"
               y="325.73001"
               transform="matrix(-0.9951,0.0989,-0.0989,-0.9951,444.5156,633.2159)"
               width="1.777"
               height="3.7909999"
               id="rect111" /><rect
               x="206.231"
               y="331.35101"
               transform="matrix(-0.9951,0.0989,-0.0989,-0.9951,446.1756,644.3799)"
               width="1.778"
               height="3.7909999"
               id="rect113" /><rect
               x="206.789"
               y="336.96899"
               transform="matrix(-0.9951,0.0989,-0.0989,-0.9951,447.8531,655.5271)"
               width="1.777"
               height="3.7909999"
               id="rect115" /><rect
               x="207.347"
               y="342.58899"
               transform="matrix(-0.9951,0.0986,-0.0986,-0.9951,449.4344,666.75)"
               width="1.777"
               height="3.7909999"
               id="rect117" /><rect
               x="207.905"
               y="348.207"
               transform="matrix(-0.9951,0.0986,-0.0986,-0.9951,451.101,677.9034)"
               width="1.777"
               height="3.7909999"
               id="rect119" /></g></g><g
           id="g121"><g
             id="g123"><rect
               x="208.463"
               y="353.82599"
               transform="matrix(-0.9951,0.0986,-0.0986,-0.9951,452.7688,689.0607)"
               width="1.777"
               height="3.7909999"
               id="rect125" /><rect
               x="209.021"
               y="359.44501"
               transform="matrix(-0.9951,0.0989,-0.0989,-0.9951,454.5291,700.1493)"
               width="1.777"
               height="3.7909999"
               id="rect127" /><rect
               x="209.57899"
               y="365.064"
               transform="matrix(-0.9951,0.0989,-0.0989,-0.9951,456.1973,711.3038)"
               width="1.777"
               height="3.7909999"
               id="rect129" /><rect
               x="210.13699"
               y="370.68399"
               transform="matrix(-0.9951,0.0986,-0.0986,-0.9951,457.771,722.5278)"
               width="1.777"
               height="3.7909999"
               id="rect131" /><rect
               x="210.69501"
               y="376.302"
               transform="matrix(-0.9951,0.0989,-0.0989,-0.9951,459.5358,733.6149)"
               width="1.777"
               height="3.7909999"
               id="rect133" /><rect
               x="211.252"
               y="381.922"
               transform="matrix(-0.9951,0.0989,-0.0989,-0.9951,461.1944,744.7787)"
               width="1.778"
               height="3.7909999"
               id="rect135" /><rect
               x="211.811"
               y="387.54099"
               transform="matrix(-0.9951,0.0989,-0.0989,-0.9951,462.8732,755.925)"
               width="1.777"
               height="3.7909999"
               id="rect137" /></g></g><g
           id="g139"><g
             id="g141"><rect
               x="212.369"
               y="393.16"
               transform="matrix(-0.9951,0.0989,-0.0989,-0.9951,464.5425,767.082)"
               width="1.777"
               height="3.7920001"
               id="rect143" /><rect
               x="212.92599"
               y="398.77802"
               transform="matrix(-0.9952,0.0983,-0.0983,-0.9952,465.9941,778.3813)"
               width="1.778"
               height="3.7920001"
               id="rect145" /><rect
               x="213.485"
               y="404.397"
               transform="matrix(-0.9951,0.0989,-0.0989,-0.9951,467.8799,789.3912)"
               width="1.777"
               height="3.7920001"
               id="rect147" /><rect
               x="214.043"
               y="410.017"
               transform="matrix(-0.9951,0.0989,-0.0989,-0.9951,469.5493,800.5477)"
               width="1.777"
               height="3.7909999"
               id="rect149" /><rect
               x="214.60001"
               y="415.63501"
               transform="matrix(-0.9951,0.0989,-0.0989,-0.9951,471.2174,811.7023)"
               width="1.777"
               height="3.7920001"
               id="rect151" /><rect
               x="215.158"
               y="421.255"
               transform="matrix(-0.9951,0.0989,-0.0989,-0.9951,472.8867,822.8588)"
               width="1.777"
               height="3.7909999"
               id="rect153" /><rect
               x="215.717"
               y="426.87399"
               transform="matrix(-0.9951,0.0989,-0.0989,-0.9951,474.5559,834.0124)"
               width="1.777"
               height="3.7909999"
               id="rect155" /></g></g></g></g></g><g
     id="g157"><g
       id="g159"><g
         id="g161"><g
           id="g163"><g
             id="g165"><rect
               x="271.23901"
               y="326.284"
               transform="matrix(-0.9249,-0.3803,0.3803,-0.9249,398.6852,736.8361)"
               width="1.777"
               height="5.5029998"
               id="rect167" /><rect
               x="268.12201"
               y="333.86401"
               transform="matrix(-0.9249,-0.3803,0.3803,-0.9249,389.8024,750.2413)"
               width="1.777"
               height="5.5029998"
               id="rect169" /><rect
               x="265.005"
               y="341.444"
               transform="matrix(-0.9249,-0.3802,0.3802,-0.9249,380.9637,763.6336)"
               width="1.778"
               height="5.5029998"
               id="rect171" /><rect
               x="261.88699"
               y="349.02499"
               transform="matrix(-0.9249,-0.3803,0.3803,-0.9249,372.0363,777.0527)"
               width="1.777"
               height="5.5019999"
               id="rect173" /><rect
               x="258.76999"
               y="356.604"
               transform="matrix(-0.9249,-0.3803,0.3803,-0.9249,363.1542,790.4571)"
               width="1.777"
               height="5.5029998"
               id="rect175" /><rect
               x="255.653"
               y="364.186"
               transform="matrix(-0.9249,-0.3803,0.3803,-0.9249,354.2701,803.8645)"
               width="1.777"
               height="5.5029998"
               id="rect177" /><rect
               x="252.535"
               y="371.76501"
               transform="matrix(-0.9248,-0.3804,0.3804,-0.9248,345.3221,817.2808)"
               width="1.778"
               height="5.5019999"
               id="rect179" /></g></g><g
           id="g181"><g
             id="g183"><rect
               x="249.418"
               y="379.345"
               transform="matrix(-0.9249,-0.3803,0.3803,-0.9249,336.5047,830.6746)"
               width="1.777"
               height="5.5029998"
               id="rect185" /><rect
               x="246.30099"
               y="386.92599"
               transform="matrix(-0.9249,-0.3803,0.3803,-0.9249,327.6219,844.0799)"
               width="1.777"
               height="5.5029998"
               id="rect187" /><rect
               x="243.18401"
               y="394.505"
               transform="matrix(-0.9249,-0.3802,0.3802,-0.9249,318.7874,857.4764)"
               width="1.778"
               height="5.5029998"
               id="rect189" /><rect
               x="240.06599"
               y="402.08701"
               transform="matrix(-0.9247,-0.3807,0.3807,-0.9247,309.619,870.9262)"
               width="1.777"
               height="5.5019999"
               id="rect191" /><rect
               x="236.94901"
               y="409.66599"
               transform="matrix(-0.9247,-0.3807,0.3807,-0.9247,300.734,884.3277)"
               width="1.777"
               height="5.5029998"
               id="rect193" /><rect
               x="233.832"
               y="417.24701"
               transform="matrix(-0.9247,-0.3807,0.3807,-0.9247,291.847,897.7318)"
               width="1.777"
               height="5.5029998"
               id="rect195" /><rect
               x="230.715"
               y="424.827"
               transform="matrix(-0.9249,-0.3802,0.3802,-0.9249,283.2583,911.1008)"
               width="1.778"
               height="5.5019999"
               id="rect197" /></g></g></g></g></g><g
     id="g199"><g
       id="g201"><g
         id="g203"><g
           id="g205"><g
             id="g207"><rect
               x="237.168"
               y="322.935"
               transform="matrix(-0.9884,-0.1522,0.1522,-0.9884,423.7781,683.8084)"
               width="1.778"
               height="5.5029998"
               id="rect209" /><rect
               x="235.922"
               y="331.03601"
               transform="matrix(-0.9884,-0.1522,0.1522,-0.9884,420.0662,699.7255)"
               width="1.778"
               height="5.5040002"
               id="rect211" /><rect
               x="234.675"
               y="339.13599"
               transform="matrix(-0.9883,-0.1522,0.1522,-0.9883,416.3388,715.6492)"
               width="1.777"
               height="5.5040002"
               id="rect213" /><rect
               x="233.42799"
               y="347.23801"
               transform="matrix(-0.9883,-0.1522,0.1522,-0.9883,412.6259,731.5685)"
               width="1.777"
               height="5.5019999"
               id="rect215" /><rect
               x="232.181"
               y="355.33801"
               transform="matrix(-0.9883,-0.1522,0.1522,-0.9883,408.9133,747.484)"
               width="1.777"
               height="5.5040002"
               id="rect217" /><rect
               x="230.93401"
               y="363.44"
               transform="matrix(-0.9883,-0.1522,0.1522,-0.9883,405.2004,763.4044)"
               width="1.777"
               height="5.5029998"
               id="rect219" /><rect
               x="229.686"
               y="371.54001"
               transform="matrix(-0.9884,-0.1522,0.1522,-0.9884,401.5048,779.3112)"
               width="1.778"
               height="5.5019999"
               id="rect221" /></g></g><g
           id="g223"><g
             id="g225"><rect
               x="228.439"
               y="379.64099"
               transform="matrix(-0.9884,-0.1522,0.1522,-0.9884,397.7922,795.2307)"
               width="1.778"
               height="5.5029998"
               id="rect227" /><rect
               x="227.19299"
               y="387.741"
               transform="matrix(-0.9884,-0.1522,0.1522,-0.9884,394.0804,811.1478)"
               width="1.778"
               height="5.5040002"
               id="rect229" /><rect
               x="225.946"
               y="395.841"
               transform="matrix(-0.9883,-0.1522,0.1522,-0.9883,390.3507,827.0707)"
               width="1.777"
               height="5.5040002"
               id="rect231" /><rect
               x="224.69901"
               y="403.944"
               transform="matrix(-0.9883,-0.1522,0.1522,-0.9883,386.6378,842.9896)"
               width="1.777"
               height="5.5019999"
               id="rect233" /><rect
               x="223.452"
               y="412.043"
               transform="matrix(-0.9883,-0.1522,0.1522,-0.9883,382.9253,858.9046)"
               width="1.777"
               height="5.5040002"
               id="rect235" /><rect
               x="222.205"
               y="420.14499"
               transform="matrix(-0.9883,-0.1522,0.1522,-0.9883,379.2123,874.8254)"
               width="1.777"
               height="5.5040002"
               id="rect237" /><rect
               x="220.957"
               y="428.245"
               transform="matrix(-0.9884,-0.1522,0.1522,-0.9884,375.519,890.733)"
               width="1.778"
               height="5.5019999"
               id="rect239" /></g></g></g></g></g><g
     id="g241"><g
       id="g243"><g
         id="g245"><g
           id="g247"><g
             id="g249"><rect
               x="293.67801"
               y="326.26001"
               transform="matrix(-0.8815,-0.4722,0.4722,-0.8815,399.2555,756.5787)"
               width="1.778"
               height="3.858"
               id="rect251" /><rect
               x="290.96399"
               y="331.32401"
               transform="matrix(-0.8815,-0.4722,0.4722,-0.8815,391.7571,764.8257)"
               width="1.778"
               height="3.858"
               id="rect253" /><rect
               x="288.25"
               y="336.388"
               transform="matrix(-0.8814,-0.4723,0.4723,-0.8814,384.2033,773.0844)"
               width="1.777"
               height="3.858"
               id="rect255" /><rect
               x="285.53601"
               y="341.453"
               transform="matrix(-0.8813,-0.4725,0.4725,-0.8813,376.5977,781.3535)"
               width="1.777"
               height="3.8570001"
               id="rect257" /><rect
               x="282.82101"
               y="346.517"
               transform="matrix(-0.8815,-0.4722,0.4722,-0.8815,369.2628,789.566)"
               width="1.778"
               height="3.858"
               id="rect259" /><rect
               x="280.10699"
               y="351.582"
               transform="matrix(-0.8814,-0.4723,0.4723,-0.8814,361.7059,797.8248)"
               width="1.777"
               height="3.8570001"
               id="rect261" /><rect
               x="277.39301"
               y="356.646"
               transform="matrix(-0.8813,-0.4725,0.4725,-0.8813,354.1001,806.0875)"
               width="1.777"
               height="3.8570001"
               id="rect263" /></g></g><g
           id="g265"><g
             id="g267"><rect
               x="274.67801"
               y="361.70999"
               transform="matrix(-0.8814,-0.4724,0.4724,-0.8814,346.6583,814.3243)"
               width="1.778"
               height="3.858"
               id="rect269" /><rect
               x="271.96399"
               y="366.77499"
               transform="matrix(-0.8814,-0.4724,0.4724,-0.8814,339.1591,822.5702)"
               width="1.778"
               height="3.858"
               id="rect271" /><rect
               x="269.25"
               y="371.83899"
               transform="matrix(-0.8814,-0.4723,0.4723,-0.8814,331.7123,830.8085)"
               width="1.777"
               height="3.858"
               id="rect273" /><rect
               x="266.53601"
               y="376.90399"
               transform="matrix(-0.8813,-0.4725,0.4725,-0.8813,324.1013,839.0693)"
               width="1.777"
               height="3.8570001"
               id="rect275" /><rect
               x="263.82101"
               y="381.96799"
               transform="matrix(-0.8814,-0.4724,0.4724,-0.8814,316.6625,847.3071)"
               width="1.778"
               height="3.858"
               id="rect277" /><rect
               x="261.10699"
               y="387.03299"
               transform="matrix(-0.8813,-0.4725,0.4725,-0.8813,309.1019,855.5603)"
               width="1.777"
               height="3.858"
               id="rect279" /><rect
               x="258.39301"
               y="392.09698"
               transform="matrix(-0.8814,-0.4723,0.4723,-0.8814,301.7174,863.7937)"
               width="1.777"
               height="3.8570001"
               id="rect281" /></g></g><g
           id="g283"><g
             id="g285"><rect
               x="255.67799"
               y="397.16101"
               transform="matrix(-0.8814,-0.4724,0.4724,-0.8814,294.1647,872.0451)"
               width="1.778"
               height="3.859"
               id="rect287" /><rect
               x="252.964"
               y="402.22601"
               transform="matrix(-0.8816,-0.472,0.472,-0.8816,286.896,880.275)"
               width="1.777"
               height="3.858"
               id="rect289" /><rect
               x="250.25"
               y="407.29001"
               transform="matrix(-0.8813,-0.4725,0.4725,-0.8813,279.1051,888.5397)"
               width="1.777"
               height="3.858"
               id="rect291" /><rect
               x="247.536"
               y="412.35501"
               transform="matrix(-0.8813,-0.4725,0.4725,-0.8813,271.6048,896.7858)"
               width="1.777"
               height="3.8570001"
               id="rect293" /><rect
               x="244.821"
               y="417.41901"
               transform="matrix(-0.8814,-0.4724,0.4724,-0.8814,264.1689,905.0278)"
               width="1.778"
               height="3.858"
               id="rect295" /><rect
               x="242.10699"
               y="422.48401"
               transform="matrix(-0.8813,-0.4725,0.4725,-0.8813,256.6052,913.2772)"
               width="1.777"
               height="3.858"
               id="rect297" /><rect
               x="239.39301"
               y="427.548"
               transform="matrix(-0.8815,-0.4721,0.4721,-0.8815,249.3454,921.5165)"
               width="1.777"
               height="3.8570001"
               id="rect299" /></g></g></g></g></g><polygon
     style="fill:none;stroke:#000000;stroke-miterlimit:10"
     stroke-miterlimit="10"
     points="167.02,264.747 330.5,264.747 243.229,346.584 "
     id="polygon301" /><g
     id="g303"><line
       style="fill:none;stroke:#000000;stroke-miterlimit:10"
       stroke-miterlimit="10"
       x1="229.66701"
       y1="281.577"
       x2="248.78799"
       y2="281.577"
       id="line305" /><line
       style="fill:none;stroke:#000000;stroke-miterlimit:10"
       stroke-miterlimit="10"
       x1="243.231"
       y1="291.09601"
       x2="257.879"
       y2="291.09601"
       id="line307" /><line
       style="fill:none;stroke:#000000;stroke-miterlimit:10"
       stroke-miterlimit="10"
       x1="222.52901"
       y1="291.09601"
       x2="229.66701"
       y2="291.09601"
       id="line309" /><line
       style="fill:none;stroke:#000000;stroke-miterlimit:10"
       stroke-miterlimit="10"
       x1="269.64401"
       y1="281.577"
       x2="285.194"
       y2="281.577"
       id="line311" /><line
       style="fill:none;stroke:#000000;stroke-miterlimit:10"
       stroke-miterlimit="10"
       x1="269.64401"
       y1="297.44199"
       x2="279.638"
       y2="297.44199"
       id="line313" /><line
       style="fill:none;stroke:#000000;stroke-miterlimit:10"
       stroke-miterlimit="10"
       x1="233.237"
       y1="300.61499"
       x2="248.78799"
       y2="300.61499"
       id="line315" /><line
       style="fill:none;stroke:#000000;stroke-miterlimit:10"
       stroke-miterlimit="10"
       x1="254.282"
       y1="276.5"
       x2="269.64401"
       y2="276.5"
       id="line317" /><line
       style="fill:none;stroke:#000000;stroke-miterlimit:10"
       stroke-miterlimit="10"
       x1="216.104"
       y1="276.5"
       x2="226.09801"
       y2="276.5"
       id="line319" /><line
       style="fill:none;stroke:#000000;stroke-miterlimit:10"
       stroke-miterlimit="10"
       x1="216.104"
       y1="297.44199"
       x2="222.52901"
       y2="297.44199"
       id="line321" /><line
       style="fill:none;stroke:#000000;stroke-miterlimit:10"
       stroke-miterlimit="10"
       x1="279.638"
       y1="288.55801"
       x2="289.37601"
       y2="288.55801"
       id="line323" /><line
       style="fill:none;stroke:#000000;stroke-miterlimit:10"
       stroke-miterlimit="10"
       x1="263.37399"
       y1="305.69199"
       x2="274.64099"
       y2="305.69199"
       id="line325" /><line
       style="fill:none;stroke:#000000;stroke-miterlimit:10"
       stroke-miterlimit="10"
       x1="210.394"
       y1="309.5"
       x2="222.52901"
       y2="309.5"
       id="line327" /><line
       style="fill:none;stroke:#000000;stroke-miterlimit:10"
       stroke-miterlimit="10"
       x1="248.78799"
       y1="305.69199"
       x2="256.08099"
       y2="305.69199"
       id="line329" /><line
       style="fill:none;stroke:#000000;stroke-miterlimit:10"
       stroke-miterlimit="10"
       x1="203.96899"
       y1="285.38501"
       x2="216.104"
       y2="285.38501"
       id="line331" /></g><g
     id="g333"><line
       style="fill:none;stroke:#000000;stroke-miterlimit:10"
       stroke-miterlimit="10"
       x1="221.45399"
       y1="273.96201"
       x2="241.392"
       y2="273.96201"
       id="line335" /><line
       style="fill:none;stroke:#000000;stroke-miterlimit:10"
       stroke-miterlimit="10"
       x1="235.59801"
       y1="283.48099"
       x2="250.873"
       y2="283.48099"
       id="line337" /><line
       style="fill:none;stroke:#000000;stroke-miterlimit:10"
       stroke-miterlimit="10"
       x1="214.011"
       y1="283.48099"
       x2="221.45399"
       y2="283.48099"
       id="line339" /><line
       style="fill:none;stroke:#000000;stroke-miterlimit:10"
       stroke-miterlimit="10"
       x1="263.14001"
       y1="273.96201"
       x2="279.35501"
       y2="273.96201"
       id="line341" /><line
       style="fill:none;stroke:#000000;stroke-miterlimit:10"
       stroke-miterlimit="10"
       x1="263.14001"
       y1="289.827"
       x2="273.561"
       y2="289.827"
       id="line343" /><line
       style="fill:none;stroke:#000000;stroke-miterlimit:10"
       stroke-miterlimit="10"
       x1="225.17599"
       y1="293"
       x2="241.392"
       y2="293"
       id="line345" /><line
       style="fill:none;stroke:#000000;stroke-miterlimit:10"
       stroke-miterlimit="10"
       x1="247.121"
       y1="268.88501"
       x2="263.14001"
       y2="268.88501"
       id="line347" /><line
       style="fill:none;stroke:#000000;stroke-miterlimit:10"
       stroke-miterlimit="10"
       x1="207.312"
       y1="268.88501"
       x2="217.73199"
       y2="268.88501"
       id="line349" /><line
       style="fill:none;stroke:#000000;stroke-miterlimit:10"
       stroke-miterlimit="10"
       x1="207.312"
       y1="289.827"
       x2="214.011"
       y2="289.827"
       id="line351" /><line
       style="fill:none;stroke:#000000;stroke-miterlimit:10"
       stroke-miterlimit="10"
       x1="273.561"
       y1="280.94199"
       x2="283.716"
       y2="280.94199"
       id="line353" /><line
       style="fill:none;stroke:#000000;stroke-miterlimit:10"
       stroke-miterlimit="10"
       x1="256.60199"
       y1="298.077"
       x2="268.35101"
       y2="298.077"
       id="line355" /><line
       style="fill:none;stroke:#000000;stroke-miterlimit:10"
       stroke-miterlimit="10"
       x1="201.356"
       y1="301.88501"
       x2="214.011"
       y2="301.88501"
       id="line357" /><line
       style="fill:none;stroke:#000000;stroke-miterlimit:10"
       stroke-miterlimit="10"
       x1="241.392"
       y1="298.077"
       x2="248.99699"
       y2="298.077"
       id="line359" /><line
       style="fill:none;stroke:#000000;stroke-miterlimit:10"
       stroke-miterlimit="10"
       x1="194.657"
       y1="277.76999"
       x2="207.312"
       y2="277.76999"
       id="line361" /></g><line
     style="fill:none;stroke:#000000;stroke-miterlimit:10"
     stroke-miterlimit="10"
     x1="285.194"
     y1="273.96201"
     x2="295.5"
     y2="273.96201"
     id="line363" /><line
     style="fill:none;stroke:#000000;stroke-miterlimit:10"
     stroke-miterlimit="10"
     x1="293.5"
     y1="280.94199"
     x2="300.5"
     y2="280.94199"
     id="line365" /><line
     style="fill:none;stroke:#000000;stroke-miterlimit:10"
     stroke-miterlimit="10"
     x1="300.5"
     y1="272"
     x2="310.5"
     y2="272"
     id="line367" /><line
     style="fill:none;stroke:#000000;stroke-miterlimit:10"
     stroke-miterlimit="10"
     x1="184.5"
     y1="268.88501"
     x2="190.5"
     y2="268.88501"
     id="line369" /><line
     style="fill:none;stroke:#000000;stroke-miterlimit:10"
     stroke-miterlimit="10"
     x1="180.5"
     y1="276.5"
     x2="187.5"
     y2="276.5"
     id="line371" /><line
     style="fill:none;stroke:#000000;stroke-miterlimit:10"
     stroke-miterlimit="10"
     x1="226.09801"
     y1="314.5"
     x2="235.59801"
     y2="314.5"
     id="line373" /><line
     style="fill:none;stroke:#000000;stroke-miterlimit:10"
     stroke-miterlimit="10"
     x1="247.121"
     y1="320.5"
     x2="255.13"
     y2="320.5"
     id="line375" /><line
     style="fill:none;stroke:#000000;stroke-miterlimit:10"
     stroke-miterlimit="10"
     x1="231.423"
     y1="322.97101"
     x2="238.5"
     y2="322.97101"
     id="line377" /><line
     style="fill:none;stroke:#000000;stroke-miterlimit:10"
     stroke-miterlimit="10"
     x1="241.01199"
     y1="326.5"
     x2="247.121"
     y2="326.5"
     id="line379" /><line
     style="fill:none;stroke:#000000;stroke-miterlimit:10"
     stroke-miterlimit="10"
     x1="243.231"
     y1="336.5"
     x2="248.75999"
     y2="336.5"
     id="line381" /><line
     style="fill:none;stroke:#000000;stroke-miterlimit:10"
     stroke-miterlimit="10"
     x1="256.60199"
     y1="317"
     x2="263.37399"
     y2="317"
     id="line383" /><line
     style="fill:none;stroke:#000000;stroke-miterlimit:10"
     stroke-miterlimit="10"
     x1="238.5"
     y1="309.5"
     x2="245.995"
     y2="309.5"
     id="line385" /><line
     style="fill:none;stroke:#000000;stroke-miterlimit:10"
     stroke-miterlimit="10"
     x1="222.52901"
     y1="305.66599"
     x2="229.55499"
     y2="305.66599"
     id="line387" /><line
     style="fill:none;stroke:#000000;stroke-miterlimit:10"
     stroke-miterlimit="10"
     x1="190.5"
     y1="288.55801"
     x2="200.98399"
     y2="288.55801"
     id="line389" /><line
     style="fill:none;stroke:#000000;stroke-miterlimit:10"
     stroke-miterlimit="10"
     x1="273.561"
     y1="201.605"
     x2="434.58401"
     y2="209.60001"
     id="line391" /><line
     style="fill:none;stroke:#000000;stroke-miterlimit:10"
     stroke-miterlimit="10"
     x1="259.98801"
     y1="285.38501"
     x2="458.58301"
     y2="297.44199"
     id="line393" /><line
     style="fill:none;stroke:#000000;stroke-miterlimit:10"
     stroke-miterlimit="10"
     x1="277.41901"
     y1="360.237"
     x2="422.58499"
     y2="369.98901"
     id="line395" /><line
     style="fill:none;stroke:#000000;stroke-miterlimit:10"
     stroke-miterlimit="10"
     x1="210.037"
     y1="447.5"
     x2="448.08401"
     y2="444.5"
     id="line397" /><line
     style="fill:none;stroke:#000000;stroke-miterlimit:10"
     stroke-miterlimit="10"
     x1="309.77701"
     y1="495.5"
     x2="445.078"
     y2="502.08499"
     id="line399" /><line
     style="fill:none;stroke:#000000;stroke-miterlimit:10"
     stroke-miterlimit="10"
     x1="331.77899"
     y1="601.66602"
     x2="445.85999"
     y2="601.66602"
     id="line401" /><line
     style="fill:none;stroke:#000000;stroke-miterlimit:10"
     stroke-miterlimit="10"
     x1="266.45901"
     y1="570.828"
     x2="445.078"
     y2="570.828"
     id="line403" /><text
     style="font-size:25px;font-family:MyriadPro-Regular"
     transform="translate(448.084,220.5)"
     font-size="25"
     id="text405">Glass jar</text>
<text
     style="font-size:25px;font-family:MyriadPro-Regular"
     transform="translate(458.583,305.6655)"
     font-size="25"
     id="text407">Cold water</text>
<text
     style="font-size:25px;font-family:MyriadPro-Regular"
     transform="translate(445.0781,601.666)"
     font-size="25"
     id="text409">Stand</text>
<text
     style="font-size:25px;font-family:MyriadPro-Regular"
     transform="translate(444.5811,575.666)"
     font-size="25"
     id="text411">Heat</text>
<text
     transform="translate(451.583,439.5)"
     id="text413"><tspan
       style="font-size:25px;font-family:MyriadPro-Regular"
       x="0"
       y="0"
       font-size="25"
       id="tspan415">Small hole</tspan><tspan
       style="font-size:25px;font-family:MyriadPro-Regular"
       x="0"
       y="30"
       font-size="25"
       id="tspan417">in lid</tspan></text>
<text
     transform="translate(451.583,511.5)"
     id="text419"><tspan
       style="font-size:25px;font-family:MyriadPro-Regular"
       x="0"
       y="0"
       font-size="25"
       id="tspan421">Tin can with</tspan><tspan
       style="font-size:25px;font-family:MyriadPro-Regular"
       x="0"
       y="30"
       font-size="25"
       id="tspan423">water</tspan></text>
<text
     style="font-size:30px;font-family:MyriadPro-Regular"
     transform="translate(422.585,379.6768)"
     font-size="30"
     id="text425">Q</text>
</g></svg>