<?xml version="1.0" encoding="UTF-8" standalone="no"?>
<!-- Generator: Adobe Illustrator 16.0.0, SVG Export Plug-In . SVG Version: 6.00 Build 0)  -->

<svg
   xmlns:dc="http://purl.org/dc/elements/1.1/"
   xmlns:cc="http://creativecommons.org/ns#"
   xmlns:rdf="http://www.w3.org/1999/02/22-rdf-syntax-ns#"
   xmlns:svg="http://www.w3.org/2000/svg"
   xmlns="http://www.w3.org/2000/svg"
   xmlns:sodipodi="http://sodipodi.sourceforge.net/DTD/sodipodi-0.dtd"
   xmlns:inkscape="http://www.inkscape.org/namespaces/inkscape"
   version="1.0"
   id="Layer_1"
   x="0px"
   y="0px"
   viewBox="0 0 328 242"
   enable-background="new 0 0 437 54"
   xml:space="preserve"
   inkscape:version="0.48.4 r9939"
   width="100%"
   height="100%"
   sodipodi:docname="canvas.svg"><metadata
   id="metadata110"><rdf:RDF><cc:Work
       rdf:about=""><dc:format>image/svg+xml</dc:format><dc:type
         rdf:resource="http://purl.org/dc/dcmitype/StillImage" /><dc:title></dc:title></cc:Work></rdf:RDF></metadata><defs
   id="defs108" /><sodipodi:namedview
   pagecolor="#ffffff"
   bordercolor="#666666"
   borderopacity="1"
   objecttolerance="10"
   gridtolerance="10"
   guidetolerance="10"
   inkscape:pageopacity="0"
   inkscape:pageshadow="2"
   inkscape:window-width="640"
   inkscape:window-height="480"
   id="namedview106"
   showgrid="false"
   inkscape:zoom="0.65446224"
   inkscape:cx="165.52797"
   inkscape:cy="120.4965"
   inkscape:window-x="0"
   inkscape:window-y="0"
   inkscape:window-maximized="0"
   inkscape:current-layer="Layer_1"
   fit-margin-top="0"
   fit-margin-left="0"
   fit-margin-right="0"
   fit-margin-bottom="0"
   showborder="false"
   inkscape:showpageshadow="false" />

<g
   id="g4280"
   transform="translate(-84.571426,-48.505058)"><path
     style="fill:#fefefe"
     d="m 84.571426,169.50506 0,-121.000002 164.000004,0 164,0 0,121.000002 0,121 -164,0 -164.000004,0 0,-121 z"
     id="path4292"
     inkscape:connector-curvature="0" /><path
     style="fill:#cbcbcb"
     d="m 232.07143,286.49659 c -79.2,-0.27966 -144.165831,-0.61716 -144.368508,-0.75 -0.202678,-0.13284 -0.09572,-25.10403 0.237685,-55.49153 0.333404,-30.3875 0.611731,-82.37112 0.618504,-115.51915 l 0.01232,-60.269146 158.749999,0.601008 c 87.3125,0.330555 159.37232,0.798 160.13293,1.038768 1.1689,0.370014 1.2898,13.163287 0.7812,82.66814 -0.33094,45.22671 -0.61577,97.13949 -0.63292,115.36173 l -0.0312,33.13134 -15.75,-0.13134 c -8.6625,-0.0722 -80.55,-0.36016 -159.75,-0.63982 z m 173.14342,-25.95217 c 0.10408,-17.44558 -0.17021,-24.04356 -1,-24.05467 -0.75272,-0.0101 -0.70755,-0.29193 0.13217,-0.82484 1.02375,-0.64969 1.18955,-18.16882 0.83975,-88.73469 -0.23972,-48.358838 -0.47624,-88.037662 -0.52559,-88.175162 -0.0494,-0.1375 -5.43482,-0.25 -11.96769,-0.25 l -11.87794,0 -3.18183,5.25 c -1.75001,2.8875 -3.15494,5.5875 -3.12206,6 0.0329,0.4125 -0.64958,1.5375 -1.51655,2.5 -4.39484,4.879051 -16.58443,27.37691 -22.62062,41.750002 -1.61686,3.85 -3.584,8.41801 -4.37141,10.15113 -0.78741,1.73312 -1.43165,3.41942 -1.43165,3.74733 0,0.32791 -1.34103,3.4099 -2.98007,6.84887 -7.89667,16.56849 -17.92632,26.27885 -32.10203,31.0801 -6.67793,2.26178 -25.12054,7.07054 -32.1577,8.38487 -1.50688,0.28143 -2.56362,0.7988 -2.3483,1.1497 0.21532,0.3509 -0.89447,0.68491 -2.46619,0.74225 -3.22346,0.1176 -19.04949,7.51567 -21.74556,10.16522 -0.96851,0.95179 -3.09724,2.40411 -4.73053,3.22737 -3.83654,1.93382 -20.05121,18.10951 -20.93063,20.88031 -0.37057,1.16757 -0.99642,2.12285 -1.39077,2.12285 -0.39435,0 -1.56294,1.4625 -2.59687,3.25 -11.16147,19.29647 -25.49036,39.86178 -32.78546,47.05481 -5.80254,5.72136 -16.69205,12.83696 -22.26589,14.54934 -2.2,0.67588 -8.275,1.44908 -13.5,1.71821 -5.225,0.26914 -13.1,1.26296 -17.5,2.20849 -7.88963,1.69543 -6.96525,1.72605 67,2.21915 41.25,0.275 103.8,0.63021 139,0.78936 l 64,0.28936 0.14342,-24.03936 z m -150.8157,0.49466 c -11.50177,-3.16857 -16.65754,-10.36791 -16.24208,-22.67988 0.25514,-7.56105 1.94612,-12.28235 5.45716,-15.2367 6.44694,-5.42474 12.30556,-4.00802 13.52185,3.26985 1.40229,8.3908 2.46949,10.24027 7.08771,12.28313 3.81435,1.68727 4.94094,1.79246 8.13746,0.75978 4.55663,-1.47209 11.5546,-6.46372 16.16529,-11.53068 3.99188,-4.38691 4.35769,-8.46287 1.51182,-16.84517 -2.40664,-7.08861 -2.42926,-13.82878 -0.0552,-16.45469 2.59706,-2.8726 7.29502,-5.09966 10.75766,-5.09966 3.48716,0 10.83061,2.19917 10.83061,3.24348 0,0.41609 0.58672,0.75652 1.30383,0.75652 2.14822,0 7.36416,6.21875 8.80681,10.5 0.78183,2.32018 1.33893,8.19955 1.32655,14 -0.019,8.91133 -0.32699,10.622 -2.82898,15.71336 -1.54421,3.14234 -4.00028,6.91332 -5.45793,8.37994 -3.77651,3.79974 -12.31681,9.4067 -14.32791,9.4067 -0.93739,0 -1.95879,0.41171 -2.26979,0.91492 -0.94529,1.52952 -15.99182,6.88833 -23.96574,8.53539 -8.8206,1.82195 -13.37929,1.84126 -19.75912,0.0837 z m 21.17228,-2.79573 c 1.375,-0.26167 5.65,-1.59659 9.5,-2.96648 26.22549,-9.33146 35.20521,-18.66183 35.56521,-36.954 0.15016,-7.63003 -1.6215,-16.81781 -3.24294,-16.81781 -0.51717,0 -0.69313,-0.39993 -0.39103,-0.88874 0.6217,-1.00594 -4.51335,-5.0625 -8.72829,-6.89512 -1.53838,-0.66888 -4.60547,-1.21614 -6.81574,-1.21614 -9.60109,0 -12.95241,5.74678 -9.45606,16.21505 1.8143,5.43212 3.49683,14.78495 2.65974,14.78495 -0.34985,0 -1.48486,1.57608 -2.52225,3.50241 -1.0374,1.92632 -3.50223,4.72251 -5.47741,6.21375 -1.97518,1.49124 -4.19636,3.30065 -4.93597,4.0209 -5.04808,4.91602 -15.94184,6.29199 -20.87976,2.63729 -3.1222,-2.31082 -5.57096,-6.63804 -5.87082,-10.37435 -0.39544,-4.92726 -1.56346,-7 -3.94459,-7 -3.36371,0 -8.24502,4.56489 -9.42526,8.81428 -1.34655,4.84822 -1.21917,12.84668 0.27161,17.05504 1.306,3.68673 7.97338,9.1254 11.51397,9.39211 1.19878,0.0903 2.17959,0.56319 2.17959,1.05087 0,0.84682 14.7599,0.4232 20,-0.57401 z m -23.5,-4.73829 c -0.3678,-0.59512 0.82295,-1 2.94098,-1 1.95746,0 3.55902,0.45 3.55902,1 0,0.55 -1.32344,1 -2.94098,1 -1.61754,0 -3.2191,-0.45 -3.55902,-1 z m 33,-4 c -0.35956,-0.58179 0.63661,-1 2.38197,-1 1.65,0 3.27811,0.45 3.61803,1 0.35956,0.58179 -0.63661,1 -2.38197,1 -1.65,0 -3.27811,-0.45 -3.61803,-1 z m -16.26166,-0.68708 c 0.95609,-0.25029 2.75609,-0.25937 4,-0.0202 1.24391,0.23919 0.46166,0.44398 -1.73834,0.45508 -2.2,0.0111 -3.21775,-0.18461 -2.26166,-0.4349 z m -25,-9 c 0.95609,-0.25029 2.75609,-0.25937 4,-0.0202 1.24391,0.23919 0.46166,0.44398 -1.73834,0.45508 -2.2,0.0111 -3.21775,-0.18461 -2.26166,-0.4349 z m 41,0 c 0.95609,-0.25029 2.75609,-0.25937 4,-0.0202 1.24391,0.23919 0.46166,0.44398 -1.73834,0.45508 -2.2,0.0111 -3.21775,-0.18461 -2.26166,-0.4349 z m 22,-3 c 0.95609,-0.25029 2.75609,-0.25937 4,-0.0202 1.24391,0.23919 0.46166,0.44398 -1.73834,0.45508 -2.2,0.0111 -3.21775,-0.18461 -2.26166,-0.4349 z m -59.73834,-7.31292 c 0.33992,-0.55 1.94148,-1 3.55902,-1 1.61754,0 2.94098,0.45 2.94098,1 0,0.55 -1.60156,1 -3.55902,1 -2.11803,0 -3.30878,-0.40488 -2.94098,-1 z m 47.73834,-2.68708 c 0.95609,-0.25029 2.75609,-0.25937 4,-0.0202 1.24391,0.23919 0.46166,0.44398 -1.73834,0.45508 -2.2,0.0111 -3.21775,-0.18461 -2.26166,-0.4349 z m 19,-5 c 0.95609,-0.25029 2.75609,-0.25937 4,-0.0202 1.24391,0.23919 0.46166,0.44398 -1.73834,0.45508 -2.2,0.0111 -3.21775,-0.18461 -2.26166,-0.4349 z m -16.73834,-7.31292 c -0.35956,-0.58179 0.63661,-1 2.38197,-1 1.65,0 3.27811,0.45 3.61803,1 0.35956,0.58179 -0.63661,1 -2.38197,1 -1.65,0 -3.27811,-0.45 -3.61803,-1 z m 1.5,-14 c 0,-0.55 1.35,-1 3,-1 1.65,0 3,0.45 3,1 0,0.55 -1.35,1 -3,1 -1.65,0 -3,-0.45 -3,-1 z m -32.83333,26 c 0.50335,-1.51005 2.11144,-1.66567 2.58333,-0.25 0.22917,0.6875 -0.33333,1.25 -1.25,1.25 -0.91667,0 -1.51667,-0.45 -1.33333,-1 z m -3.52719,-5.69385 c -1.12618,-1.12619 -0.68589,-2.30615 0.86052,-2.30615 0.825,0 1.5,0.42344 1.5,0.94098 0,1.26098 -1.56159,2.1641 -2.36052,1.36517 z m -28.97281,-0.97282 c -1.15064,-1.15063 -0.72824,-2.33333 0.83333,-2.33333 0.825,0 1.5,0.675 1.5,1.5 0,1.56157 -1.1827,1.98397 -2.33333,0.83333 z m 41.33333,-4.83333 c 0,-0.825 0.675,-1.5 1.5,-1.5 0.825,0 1.5,0.675 1.5,1.5 0,0.825 -0.675,1.5 -1.5,1.5 -0.825,0 -1.5,-0.675 -1.5,-1.5 z m -37,-3.03138 c 0,-0.80774 0.675,-1.46862 1.5,-1.46862 0.825,0 1.5,0.40186 1.5,0.89301 0,0.49116 -0.675,1.15203 -1.5,1.46862 -0.91371,0.35062 -1.5,0.002 -1.5,-0.89301 z m 90.5,-6.96862 c 0,-6.23129 0.10128,-6.5 2.45,-6.5 1.90556,0 2.18333,0.26667 1.25,1.2 -0.66,0.66 -1.2,3.19388 -1.2,5.63084 l 0,4.43084 3.5,-0.56797 c 1.925,-0.31238 3.5,-0.19441 3.5,0.26217 0,1.18677 -2.6557,2.04412 -6.33179,2.04412 l -3.16821,0 0,-6.5 z m 11.11806,5.68262 c -0.22919,-0.37544 -0.33597,-2.25406 -0.23731,-4.17472 0.1284,-2.49939 0.69851,-3.59207 2.00554,-3.84378 2.52283,-0.48585 3.68223,0.95509 4.06275,5.04932 0.3006,3.23441 0.11513,3.49459 -2.54503,3.57023 -1.57809,0.0449 -3.05677,-0.2256 -3.28595,-0.60105 z m 3.38194,-2.18262 c 0,-0.55 -0.45,-1 -1,-1 -0.55,0 -1,0.45 -1,1 0,0.55 0.45,1 1,1 0.55,0 1,-0.45 1,-1 z m 0,-3.55902 c 0,-0.24254 -0.45,-0.44098 -1,-0.44098 -0.55,0 -1,0.47656 -1,1.05902 0,0.58246 0.45,0.7809 1,0.44098 0.55,-0.33992 1,-0.81648 1,-1.05902 z m 6.1636,5.68129 c -0.85049,-0.5391 -1.2289,-2.33604 -1.04074,-4.94209 0.16262,-2.25224 -0.0113,-4.40192 -0.38641,-4.77706 -0.92541,-0.92542 0.0888,-2.40312 1.64937,-2.40312 0.8444,0 1.11833,1.01837 0.82024,3.04936 -0.42573,2.90068 -0.30758,3.01949 2.4232,2.43688 2.42958,-0.51836 2.59254,-0.43628 1.06041,0.53409 -1.69482,1.07341 -1.70567,1.30631 -0.1701,3.64989 1.86877,2.8521 0.99119,4.74877 -0.96157,2.07821 -1.56669,-2.14257 -2.7029,-2.28961 -1.91963,-0.24843 0.65627,1.71021 0.40731,1.81526 -1.47477,0.62227 z m 8.0364,-0.32227 c -1.57186,-1.57186 -1.52203,-3.97734 0.12917,-6.23548 1.10146,-1.50634 1.70105,-1.61871 3.5,-0.65595 2.94025,1.57358 2.73772,3.09143 -0.4125,3.09143 -1.63657,0 -2.42077,0.45811 -2.13977,1.25 0.24396,0.6875 1.40646,1.14281 2.58333,1.01179 2.48492,-0.27663 2.88185,1.23947 0.55798,2.13122 -2.23266,0.85675 -2.85609,0.76911 -4.21821,-0.59301 z m -99.03333,-1.8 c 0.50335,-1.51005 2.11144,-1.66567 2.58333,-0.25 0.22917,0.6875 -0.33333,1.25 -1.25,1.25 -0.91667,0 -1.51667,-0.45 -1.33333,-1 z m 19.37604,-5.9309 c -0.73955,-1.1966 1.14162,-2.38223 2.4736,-1.55902 1.11836,0.69118 0.38417,2.48992 -1.01631,2.48992 -0.48508,0 -1.14086,-0.41891 -1.45729,-0.9309 z m -28.54271,-1.5691 c 0,-0.825 0.7301,-1.5 1.62244,-1.5 1.3288,0 1.39713,0.27149 0.37756,1.5 -0.68469,0.825 -1.41479,1.5 -1.62244,1.5 -0.20766,0 -0.37756,-0.675 -0.37756,-1.5 z m 19.55385,-0.41287 c -1.04029,-1.68322 0.4312,-3.50208 1.75902,-2.17426 0.78284,0.78284 0.78284,1.39142 0,2.17426 -0.78285,0.78285 -1.2752,0.78285 -1.75902,0 z m -14.55385,-3.5038 c 0,-0.87083 0.7125,-1.58333 1.58333,-1.58333 1.76593,0 1.45839,2.15276 -0.39583,2.77083 -0.65313,0.21771 -1.1875,-0.31666 -1.1875,-1.1875 z m -6.30615,-5.22281 c -0.79893,-0.79893 0.10419,-2.36052 1.36517,-2.36052 0.51754,0 0.94098,0.675 0.94098,1.5 0,1.54641 -1.17996,1.9867 -2.30615,0.86052 z m 20.29701,-3.87153 c -1.02837,-1.23911 -0.87956,-1.48899 0.8867,-1.48899 1.16734,0 2.12244,0.42344 2.12244,0.94098 0,1.73246 -1.7601,2.053 -3.00914,0.54801 z m 10.00914,0.51101 c 0,-0.55 0.675,-1 1.5,-1 0.825,0 1.5,0.45 1.5,1 0,0.55 -0.675,1 -1.5,1 -0.825,0 -1.5,-0.45 -1.5,-1 z m 7.63948,0.30615 c -1.12618,-1.12619 -0.68589,-2.30615 0.86052,-2.30615 0.825,0 1.5,0.42344 1.5,0.94098 0,1.26098 -1.56159,2.1641 -2.36052,1.36517 z m 12.36052,-3.72282 c 0,-0.87083 0.7125,-1.58333 1.58333,-1.58333 1.76593,0 1.45839,2.15276 -0.39583,2.77083 -0.65313,0.21771 -1.1875,-0.31666 -1.1875,-1.1875 z m -1,-8.08333 c 0,-0.825 0.66088,-1.5 1.46862,-1.5 0.89459,0 1.24363,0.58629 0.89301,1.5 -0.31659,0.825 -0.97746,1.5 -1.46862,1.5 -0.49115,0 -0.89301,-0.675 -0.89301,-1.5 z m 17.66667,0.83333 c -1.15064,-1.15063 -0.72824,-2.33333 0.83333,-2.33333 0.825,0 1.5,0.675 1.5,1.5 0,1.56157 -1.1827,1.98397 -2.33333,0.83333 z M 128.57609,280.46357 c 7.39823,-2.36977 12.40811,-3.23073 22.68387,-3.8983 10.95191,-0.7115 14.10915,-1.29233 18.61713,-3.42495 5.41247,-2.56051 15.71579,-10.2791 18.84096,-14.11445 0.90564,-1.11145 2.81759,-3.37081 4.24878,-5.02081 1.43118,-1.65 2.60271,-3.30536 2.60338,-3.67857 6.7e-4,-0.37322 0.58914,-1.27322 1.30771,-2 1.32368,-1.33881 13.64219,-19.98465 21.46584,-32.49163 7.34033,-11.73434 17.20685,-22.19967 27.9694,-29.6669 11.99453,-8.322 20.64934,-11.77949 44.25827,-17.68067 19.91576,-4.97805 21.34062,-5.42509 25.78548,-8.09002 11.61233,-6.96221 17.562,-14.86058 26.66019,-35.39221 3.16838,-7.15 5.85612,-13.58271 5.97274,-14.29491 0.21845,-1.33401 10.6885,-22.312 11.58159,-23.205092 0.275,-0.275 0.98292,-1.4 1.57315,-2.5 4.61426,-8.599477 6.56531,-11.882842 11.11951,-18.712681 l 5.19265,-7.787319 -18.88138,0 -18.88138,0 -0.51432,4.25 c -0.28287,2.3375 -0.75305,6.95 -1.04485,10.25 -0.2918,3.3 -0.70988,6.9 -0.92906,8 -0.21919,1.1 -0.73342,4.025 -1.14273,6.5 -1.1037,6.673667 -5.41886,18.924532 -8.23994,23.393422 -3.38797,5.36687 -5.65832,7.49156 -15.37234,14.38605 -17.8406,12.66228 -28.89186,16.84754 -48.14494,18.23314 -14.42931,1.03845 -18.64758,1.96185 -24.88342,5.44713 -4.3984,2.45832 -14.20484,12.04703 -18.96124,18.54026 -3.63915,4.96802 -11.16805,20.17201 -14.36056,29 -7.91876,21.89706 -14.74811,31.39031 -30.51959,42.42427 -19.14901,13.39694 -35.13062,20.48621 -61.00956,27.06319 -13.03407,3.31254 -19.145059,6.49649 -21.352224,11.12496 -3.051577,6.39923 -3.072739,6.38758 11.606884,6.38758 12.01964,0 14.13941,-0.2834 22.75,-3.04149 z m 86.99534,-100.89949 c 0,-0.51754 0.45,-1.2191 1,-1.55902 0.55,-0.33992 1,0.0835 1,0.94098 0,0.85746 -0.45,1.55902 -1,1.55902 -0.55,0 -1,-0.42344 -1,-0.94098 z m 25.35992,-4.83237 c 0.26288,-0.42534 -0.5541,-2.91473 -1.81549,-5.53197 -2.18082,-4.52492 -2.20462,-4.80617 -0.48468,-5.72666 0.99482,-0.53241 3.22227,-0.96802 4.94988,-0.96802 2.92854,0 3.11908,0.21424 2.81574,3.16589 -0.27858,2.7106 0.0791,3.30083 2.48713,4.10417 3.73984,1.24764 4.44609,0.28414 2.36906,-3.232 -1.16494,-1.97208 -1.36687,-3.11451 -0.63091,-3.56937 0.59533,-0.36793 1.22024,-0.5114 1.3887,-0.31883 0.78599,0.8985 3.67077,7.05795 3.38439,7.22619 -4.81069,2.82622 -5.94874,2.98133 -8.93439,1.21766 -1.6653,-0.98372 -3.23225,-1.58414 -3.48212,-1.33427 -0.78355,0.78355 0.75111,3.73981 1.94976,3.75587 1.5686,0.021 -1.53291,1.95027 -3.16601,1.96938 -0.71996,0.008 -1.09393,-0.3327 -0.83106,-0.75804 z m 2.64008,-8.78567 c 0,-0.79254 -0.675,-1.44098 -1.5,-1.44098 -1.68232,0 -1.75048,0.18368 -0.89522,2.41247 0.7025,1.83068 2.39522,1.14412 2.39522,-0.97149 z m 12.70687,-1.34522 c -2.36778,-2.41487 -2.54568,-2.94364 -1.16821,-3.47222 2.23261,-0.85673 2.25626,-0.84712 2.77201,1.12646 0.28137,1.07666 0.50196,0.6919 0.57333,-1 0.19552,-4.63525 2.116,-3.04696 2.116,1.75 0,2.475 -0.3375,4.4875 -0.75,4.47222 -0.4125,-0.0153 -2.00691,-1.30968 -3.54313,-2.87646 z m 7.51315,-0.34576 c -2.59232,-3.16177 -1.53852,-7.75 1.77998,-7.75 2.02074,0 3.96426,2.16788 2.42705,2.70724 -3.04553,1.06858 -3.90047,2.21921 -2.60137,3.50112 1.07141,1.05723 1.56897,0.93936 2.74164,-0.64949 1.06852,-1.44773 1.43268,-1.56211 1.43268,-0.45 0,3.25158 -3.84061,5.00652 -5.77998,2.64113 z m 7.77998,-1.28138 c 0,-0.25774 0.0697,-0.58112 0.15496,-0.71862 0.0852,-0.1375 -0.59241,-1.69526 -1.50586,-3.46168 -1.58407,-3.06324 -1.57116,-3.25967 0.2793,-4.25 2.45114,-1.31181 4.0716,-1.32707 4.0716,-0.0383 0,0.55 -0.675,1 -1.5,1 -0.825,0 -1.5,0.6199 -1.5,1.37756 0,0.75765 0.675,1.93775 1.5,2.62244 0.825,0.68469 1.5,1.59164 1.5,2.01546 0,0.42381 -0.675,1.02958 -1.5,1.34617 -0.825,0.31658 -1.5,0.36472 -1.5,0.10699 z m -22,-3.46862 c 0,-0.55 0.45,-1 1,-1 0.55,0 1,0.45 1,1 0,0.55 -0.45,1 -1,1 -0.55,0 -1,-0.45 -1,-1 z m -142.5,106.53788 c 4.95,-1.4716 11.475,-3.34964 14.5,-4.17344 18.35708,-4.99919 34.26403,-12.1033 48.86396,-21.82287 17.18809,-11.44257 24.92496,-20.40501 30.64324,-35.49731 1.55369,-4.10066 3.42239,-8.60066 4.15268,-10 0.73029,-1.39934 1.33057,-3.09679 1.33396,-3.77211 0.008,-1.61321 5.28895,-12.67561 6.25616,-13.10548 0.4125,-0.18334 0.75,-0.81894 0.75,-1.41246 0,-0.99362 5.71724,-10.60828 6.98949,-11.75421 0.30532,-0.275 2.79508,-3.16448 5.53282,-6.42106 8.05295,-9.57914 18.24637,-15.261 28.97769,-16.15232 15.94252,-1.32414 25.63413,-2.62231 29.5,-3.95145 18.27352,-6.28274 38.9768,-21.24068 44.2568,-31.97517 3.56905,-7.256066 7.27459,-23.995577 8.5656,-38.694443 l 0.76364,-8.694442 -12.04302,-0.305558 C 319.49079,58.142559 263.83993,57.858879 202.44586,57.680215 L 90.820294,57.355372 90.94586,166.70929 l 0.125566,109.35392 3.5,-3.67232 c 2.809953,-2.9483 5.274408,-4.19984 12.500004,-6.34795 z m 69.5,-177.537882 c 0,-0.55 0.19844,-1 0.44098,-1 0.24254,0 0.7191,0.45 1.05902,1 0.33991,0.55 0.14147,1 -0.44099,1 -0.58246,0 -1.05901,-0.45 -1.05901,-1 z"
     id="path4290"
     inkscape:connector-curvature="0" /><path
     style="fill:#989898"
     d="m 246.07143,286.49732 c -86.9,-0.27926 -158.15021,-0.61676 -158.333796,-0.75 -0.183586,-0.13324 -0.07778,-19.02976 0.235118,-41.99226 0.312901,-22.9625 0.575608,-74.94123 0.583792,-115.5083 l 0.01488,-73.758293 153.250006,0.584176 c 84.2875,0.321297 156.175,0.687647 159.75,0.814112 l 6.5,0.229937 0,51.444188 c 0,28.2943 -0.225,80.20139 -0.5,115.34908 -0.43705,55.85865 -0.68886,63.91688 -2,64 -0.825,0.0523 -72.6,-0.13338 -159.5,-0.41264 z m 159.30016,-114.96705 -0.15787,-113.025212 -12.24013,0 -12.24013,0 -8.7065,14.75 c -4.78858,8.1125 -9.68404,16.325 -10.8788,18.25 -2.80541,4.520059 -7.48998,14.484112 -12.57414,26.745122 -8.41568,20.29537 -12.37778,27.51123 -18.96091,34.53203 -8.57041,9.14021 -16.76728,13.02912 -38.04168,18.04844 -5.775,1.36251 -13.2,3.20163 -16.5,4.08694 -6.71365,1.80111 -22.18367,9.1653 -28.04241,13.34903 -7.71776,5.51126 -20.97042,19.88553 -26.45759,28.69675 -6.1992,9.9546 -21.16806,32.57984 -24.38373,36.85568 -4.67801,6.22032 -12.96977,13.95325 -19.36184,18.05695 -8.78054,5.63709 -11.35634,6.32785 -28.25443,7.57703 -5.775,0.42692 -12.975,1.40077 -16,2.16412 -5.81617,1.46769 28.41917,1.9066 207.72902,2.66312 l 65.22902,0.2752 -0.15788,-113.0252 z m -150.30016,89.62361 c -13.44057,-3.88041 -18.44685,-12.20461 -16.40209,-27.27257 0.92387,-6.80796 3.18644,-10.2092 8.47953,-12.74695 3.42968,-1.64434 4.20174,-1.70234 6.38068,-0.47933 1.48524,0.83365 2.81899,2.78601 3.32738,4.87069 2.64962,10.86486 2.67914,10.92066 6.92507,13.08677 3.66447,1.86947 4.5876,1.97001 8.18684,0.89165 7.72419,-2.31423 19.05641,-12.07156 19.96979,-17.19451 0.26431,-1.48248 -0.17886,-5.08248 -0.98482,-8 -1.68175,-6.08777 -2.16338,-8.1233 -2.9114,-12.30457 -1.04536,-5.84326 5.71704,-12.5 12.69841,-12.5 3.48716,0 10.83061,2.19917 10.83061,3.24348 0,0.41609 0.60269,0.75652 1.33932,0.75652 2.10573,0 7.25655,6.25313 8.71039,10.57446 1.39961,4.16017 1.90409,19.22118 0.78465,23.42554 -2.3704,8.90269 -10.3328,18.60568 -18.3539,22.36611 -2.18925,1.02636 -5.10594,2.44813 -6.48153,3.15949 -8.59458,4.44453 -27.70595,9.57481 -34.92838,9.37622 -1.9638,-0.054 -5.37055,-0.61785 -7.57055,-1.253 z m 20.5,-2.87758 c 9.28244,-1.64414 29.77377,-10.91463 35.13379,-15.8949 3.38064,-3.14112 9.41999,-11.74516 9.03816,-12.87634 -0.0928,-0.275 0.13176,-2.075 0.49909,-4 2.10654,-11.03959 -0.67496,-24.28651 -5.9126,-28.15874 -4.89653,-3.62004 -8.34461,-4.84126 -13.66913,-4.84126 -8.88018,0 -12.19913,6.39656 -8.56128,16.5 3.61365,10.03623 2.7992,16.16364 -2.88556,21.70905 -9.85654,9.61494 -17.07012,12.82997 -24.37392,10.86326 -5.03595,-1.35604 -8.20424,-4.79667 -8.91279,-9.67891 -0.96598,-6.65599 -2.54336,-9.3934 -5.41278,-9.3934 -2.93245,0 -7.27371,4.06539 -8.87936,8.3151 -1.3356,3.53494 -1.36459,12.06129 -0.057,16.76835 1.15389,4.15388 7.54644,9.8192 11.44357,10.14174 1.40241,0.11606 2.54983,0.60765 2.54983,1.09242 0,0.82582 14.48738,0.43005 20,-0.54637 z m -23.5,-4.77124 c -0.3678,-0.59512 0.82295,-1 2.94098,-1 1.95746,0 3.55902,0.45 3.55902,1 0,0.55 -1.32344,1 -2.94098,1 -1.61754,0 -3.2191,-0.45 -3.55902,-1 z m 33,-4 c -0.36058,-0.58342 0.65628,-1 2.44098,-1 1.68246,0 3.05902,0.45 3.05902,1 0,0.55 -1.09844,1 -2.44098,1 -1.34254,0 -2.7191,-0.45 -3.05902,-1 z m -16.26166,-0.68708 c 0.95609,-0.25029 2.75609,-0.25937 4,-0.0202 1.24391,0.23919 0.46166,0.44398 -1.73834,0.45508 -2.2,0.0111 -3.21775,-0.18461 -2.26166,-0.4349 z m -25,-9 c 0.95609,-0.25029 2.75609,-0.25937 4,-0.0202 1.24391,0.23919 0.46166,0.44398 -1.73834,0.45508 -2.2,0.0111 -3.21775,-0.18461 -2.26166,-0.4349 z m 41,0 c 0.95609,-0.25029 2.75609,-0.25937 4,-0.0202 1.24391,0.23919 0.46166,0.44398 -1.73834,0.45508 -2.2,0.0111 -3.21775,-0.18461 -2.26166,-0.4349 z m 22,-3 c 0.95609,-0.25029 2.75609,-0.25937 4,-0.0202 1.24391,0.23919 0.46166,0.44398 -1.73834,0.45508 -2.2,0.0111 -3.21775,-0.18461 -2.26166,-0.4349 z m -59.73834,-7.31292 c 0.78111,-1.26386 3.54432,-1.26386 5.5,0 1.11348,0.71959 0.5185,0.97332 -2.30902,0.98469 -2.28797,0.009 -3.56222,-0.38402 -3.19098,-0.98469 z m 47.73834,-2.68708 c 0.95609,-0.25029 2.75609,-0.25937 4,-0.0202 1.24391,0.23919 0.46166,0.44398 -1.73834,0.45508 -2.2,0.0111 -3.21775,-0.18461 -2.26166,-0.4349 z m 19,-5 c 0.95609,-0.25029 2.75609,-0.25937 4,-0.0202 1.24391,0.23919 0.46166,0.44398 -1.73834,0.45508 -2.2,0.0111 -3.21775,-0.18461 -2.26166,-0.4349 z m -16.23834,-7.31292 c 0,-1.18717 1.7373,-1.18717 4.5,0 1.67602,0.72021 1.47353,0.87082 -1.25,0.92971 -1.7875,0.0387 -3.25,-0.37971 -3.25,-0.92971 z m 1,-14 c 0,-0.55 1.35,-1 3,-1 1.65,0 3,0.45 3,1 0,0.55 -1.35,1 -3,1 -1.65,0 -3,-0.45 -3,-1 z m -32.83333,26 c 0.50335,-1.51005 2.11144,-1.66567 2.58333,-0.25 0.22917,0.6875 -0.33333,1.25 -1.25,1.25 -0.91667,0 -1.51667,-0.45 -1.33333,-1 z m -3.52719,-5.69385 c -1.12618,-1.12619 -0.68589,-2.30615 0.86052,-2.30615 0.825,0 1.5,0.42344 1.5,0.94098 0,1.26098 -1.56159,2.1641 -2.36052,1.36517 z m -29.00111,-1.80615 c -0.35062,-0.91371 -0.002,-1.5 0.89301,-1.5 0.80774,0 1.46862,0.675 1.46862,1.5 0,0.825 -0.40186,1.5 -0.89301,1.5 -0.49116,0 -1.15203,-0.675 -1.46862,-1.5 z m 42.05548,-3.13948 c -0.79893,-0.79893 0.10419,-2.36052 1.36517,-2.36052 0.51754,0 0.94098,0.675 0.94098,1.5 0,1.54641 -1.17996,1.9867 -2.30615,0.86052 z m -37.69385,-4.36052 c 0,-0.55 0.42344,-1 0.94098,-1 0.51754,0 1.2191,0.45 1.55902,1 0.33992,0.55 -0.0835,1 -0.94098,1 -0.85746,0 -1.55902,-0.45 -1.55902,-1 z m 90.5,-6.5 c 0,-5.26132 0.30153,-6.5 1.58227,-6.5 1.31172,0 1.50212,0.96662 1.11348,5.653 l -0.46879,5.65299 3.63652,-0.59012 c 2.00009,-0.32457 3.63652,-0.21657 3.63652,0.24001 0,1.18677 -2.6557,2.04412 -6.33179,2.04412 l -3.16821,0 0,-6.5 z m 10.72948,4.65563 c -0.34659,-0.90321 0.29515,-2.09202 1.59534,-2.95531 1.19635,-0.79434 2.17518,-1.89448 2.17518,-2.44474 0,-0.55161 -0.68381,-0.43296 -1.52417,0.26448 -1.67671,1.39155 -3.06164,0.73682 -2.01695,-0.95353 0.9115,-1.47484 4.51967,-1.34207 4.98597,0.18347 0.21015,0.6875 0.61977,2.6375 0.91028,4.33333 0.49398,2.88356 0.33143,3.08334 -2.5088,3.08334 -1.78694,0 -3.27568,-0.62197 -3.61685,-1.51104 z m 3.77052,-1.15563 c 0,-0.55 -0.45,-1 -1,-1 -0.55,0 -1,0.45 -1,1 0,0.55 0.45,1 1,1 0.55,0 1,-0.45 1,-1 z m 6.36001,2.23469 c -0.67233,-0.43329 -1.00809,-2.68333 -0.81845,-5.48469 0.18184,-2.68626 -0.10883,-4.75 -0.66902,-4.75 -0.54482,0 -0.71246,-0.45 -0.37254,-1 1.22105,-1.9757 2.5,-0.94279 2.5,2.01905 0,2.76798 0.2287,2.97064 2.75,2.43688 2.35306,-0.49814 2.48869,-0.41667 0.93967,0.5644 -1.69482,1.07341 -1.70567,1.30631 -0.1701,3.64989 2.207,3.3683 0.85899,4.44207 -1.65065,1.31484 -1.93122,-2.40647 -1.97436,-2.4139 -1.36422,-0.23506 0.6846,2.44471 0.57185,2.59094 -1.14469,1.48469 z m 7.83999,-0.43469 c -1.57186,-1.57186 -1.52203,-3.97734 0.12917,-6.23548 1.10146,-1.50634 1.70105,-1.61871 3.5,-0.65595 2.94025,1.57358 2.73772,3.09143 -0.4125,3.09143 -1.63657,0 -2.42077,0.45811 -2.13977,1.25 0.24396,0.6875 1.40646,1.14281 2.58333,1.01179 2.48492,-0.27663 2.88185,1.23947 0.55798,2.13122 -2.23266,0.85675 -2.85609,0.76911 -4.21821,-0.59301 z m -99.2,-1.8 c 0,-0.55 0.675,-1 1.5,-1 0.825,0 1.5,0.45 1.5,1 0,0.55 -0.675,1 -1.5,1 -0.825,0 -1.5,-0.45 -1.5,-1 z m 19.54271,-5.9309 c -0.73955,-1.1966 1.14162,-2.38223 2.4736,-1.55902 1.11836,0.69118 0.38417,2.48992 -1.01631,2.48992 -0.48508,0 -1.14086,-0.41891 -1.45729,-0.9309 z m -28.54271,-1.51008 c 0,-0.85746 0.45,-1.55902 1,-1.55902 0.55,0 1,0.42344 1,0.94098 0,0.51754 -0.45,1.2191 -1,1.55902 -0.55,0.33992 -1,-0.0835 -1,-0.94098 z m 19.44615,-0.64615 c -0.36954,-0.59793 -0.17109,-1.58793 0.44098,-2.2 0.81716,-0.81716 1.11287,-0.52829 1.11287,1.08713 0,2.41451 -0.51946,2.78655 -1.55385,1.11287 z m -14.44615,-3.32954 c 0,-0.87083 0.7125,-1.58333 1.58333,-1.58333 1.76593,0 1.45839,2.15276 -0.39583,2.77083 -0.65313,0.21771 -1.1875,-0.31666 -1.1875,-1.1875 z m -6.30615,-5.22281 c -0.79893,-0.79893 0.10419,-2.36052 1.36517,-2.36052 0.51754,0 0.94098,0.675 0.94098,1.5 0,1.54641 -1.17996,1.9867 -2.30615,0.86052 z m 30.30615,-3.36052 c 0,-0.55 0.675,-1 1.5,-1 0.825,0 1.5,0.45 1.5,1 0,0.55 -0.675,1 -1.5,1 -0.825,0 -1.5,-0.45 -1.5,-1 z m 7.63948,0.30615 c -1.12618,-1.12619 -0.68589,-2.30615 0.86052,-2.30615 0.825,0 1.5,0.42344 1.5,0.94098 0,1.26098 -1.56159,2.1641 -2.36052,1.36517 z m -18.13948,-1.30615 c -0.33992,-0.55 0.057,-1 0.88197,-1 0.825,0 1.77811,0.45 2.11803,1 0.33992,0.55 -0.057,1 -0.88197,1 -0.825,0 -1.77811,-0.45 -2.11803,-1 z m 30.5,-2.5 c 0,-0.825 0.45,-1.5 1,-1.5 0.55,0 1,0.675 1,1.5 0,0.825 -0.45,1.5 -1,1.5 -0.55,0 -1,-0.675 -1,-1.5 z m -1,-8 c 0,-0.825 0.66088,-1.5 1.46862,-1.5 0.89459,0 1.24363,0.58629 0.89301,1.5 -0.31659,0.825 -0.97746,1.5 -1.46862,1.5 -0.49115,0 -0.89301,-0.675 -0.89301,-1.5 z m 17.66667,0.83333 c -1.15064,-1.15063 -0.72824,-2.33333 0.83333,-2.33333 0.825,0 1.5,0.675 1.5,1.5 0,1.56157 -1.1827,1.98397 -2.33333,0.83333 z M 128.57609,280.46357 c 7.3981,-2.36973 12.40814,-3.23073 22.68323,-3.89826 10.67462,-0.69349 14.20024,-1.32351 18.5,-3.30591 5.2496,-2.42032 15.76682,-10.31627 18.95873,-14.23353 0.90564,-1.11145 2.81759,-3.37081 4.24878,-5.02081 1.43118,-1.65 2.60271,-3.30536 2.60338,-3.67857 6.7e-4,-0.37322 0.57971,-1.27322 1.28675,-2 1.55839,-1.60191 6.24922,-8.37518 10.95712,-15.82143 1.91256,-3.025 5.67505,-8.875 8.36109,-13 2.68603,-4.125 5.11153,-7.97718 5.38998,-8.56039 2.01972,-4.23025 17.58003,-19.67292 24.93892,-24.75036 12.22407,-8.4343 21.29263,-12.06597 44.06736,-17.6476 19.01008,-4.65898 22.59339,-5.92231 29.07538,-10.25082 10.30589,-6.88201 15.51078,-14.68248 25.54971,-38.29083 2.10487,-4.95 3.80052,-9.225 3.76811,-9.5 -0.066,-0.5598 7.2634,-14.808201 13.11722,-25.500002 4.76108,-8.695934 13.22329,-22.413427 15.26809,-24.75 1.45184,-1.659011 0.54203,-1.75 -17.49852,-1.75 l -19.02999,0 -0.625,3.125 c -0.34375,1.71875 -0.63098,4.98125 -0.6383,7.25 -0.0198,6.153605 -3.47197,24.223868 -6.04162,31.625002 -3.85847,11.11319 -8.83554,17.05559 -21.94508,26.20145 -16.23604,11.32705 -30.51508,16.39873 -47.52737,16.88094 -9.50151,0.26931 -17.87727,2.06937 -23.13526,4.97207 -4.74161,2.61762 -13.30455,10.79087 -18.27733,17.44554 -4.7421,6.34597 -12.14212,20.79423 -15.62129,30.5 -2.45313,6.84344 -7.35709,17.62872 -10.93197,24.04269 -1.88928,3.3897 -13.84162,14.47428 -20.98053,19.45731 -16.83874,11.75361 -35.55347,19.9439 -59.27999,25.94323 -10.05898,2.54345 -16.641782,5.02271 -18.866589,7.10567 -1.638579,1.5341 -4.379675,7.10523 -4.379675,8.90144 0,1.3216 1.950627,1.54966 13.254664,1.54966 12.01964,0 14.13941,-0.2834 22.75,-3.04149 z m 86.99534,-100.89949 c 0,-0.51754 0.45,-1.2191 1,-1.55902 0.55,-0.33992 1,0.0835 1,0.94098 0,0.85746 -0.45,1.55902 -1,1.55902 -0.55,0 -1,-0.42344 -1,-0.94098 z m 25.16404,-4.80902 c 0.33192,-1.51759 -1.47537,-6.79925 -2.88131,-8.42042 -1.28191,-1.47814 -1.21647,-1.79467 0.56856,-2.75 1.10948,-0.59377 3.44789,-1.07958 5.19647,-1.07958 2.98331,0 3.15133,0.19017 2.72634,3.08581 -0.37448,2.5515 -0.0366,3.2441 1.9516,4 1.32247,0.5028 2.87399,0.91419 3.44781,0.91419 1.27854,0 0.12265,-5.19893 -1.35956,-6.11498 -0.6777,-0.41885 -0.62806,-0.88187 0.14582,-1.36016 0.64531,-0.39882 1.31112,-0.56757 1.47958,-0.375 0.78599,0.8985 3.67077,7.05795 3.38439,7.22619 -4.81069,2.82622 -5.94874,2.98133 -8.93439,1.21766 -1.6653,-0.98372 -3.23225,-1.58414 -3.48212,-1.33427 -0.78355,0.78355 0.75111,3.73981 1.94976,3.75587 1.53144,0.0205 -1.51237,1.94984 -3.10699,1.96938 -0.6875,0.008 -1.17618,-0.32219 -1.08596,-0.73469 z m 2.30781,-10.0884 c -2.16513,-0.44994 -2.66114,0.18154 -1.83456,2.33557 0.64869,1.69047 0.75677,1.6849 2.07365,-0.10687 1.20822,-1.64394 1.17706,-1.9344 -0.23909,-2.2287 z m 13.23502,-0.0658 c -2.36778,-2.41487 -2.54568,-2.94364 -1.16821,-3.47222 2.28223,-0.87578 2.46134,-0.812 2.46134,0.87646 0,0.825 0.42416,1.5 0.94258,1.5 0.51842,0 0.77108,-0.89054 0.56147,-1.97897 -0.20961,-1.08844 0.0412,-2.23999 0.55742,-2.55902 0.53229,-0.32897 0.93853,1.39333 0.93853,3.97897 0,2.50746 -0.3375,4.54652 -0.75,4.53124 -0.4125,-0.0153 -2.00691,-1.30968 -3.54313,-2.87646 z m 7.34332,-0.53529 c -0.65709,-0.79174 -1.04969,-2.70424 -0.87245,-4.25 0.25415,-2.21643 0.83307,-2.81047 2.73893,-2.81047 3.37002,0 3.79082,2.28433 0.56973,3.09277 -2.46002,0.61742 -2.53442,0.78591 -1.00992,2.28688 1.51822,1.49478 1.75726,1.46992 3.08464,-0.32078 1.07401,-1.4489 1.43888,-1.56301 1.43888,-0.45 0,3.39941 -3.84749,4.98475 -5.94981,2.4516 z m 7.94981,-1.09189 c 0,-0.25774 0.0697,-0.58112 0.15496,-0.71862 0.0852,-0.1375 -0.59241,-1.69526 -1.50586,-3.46168 -1.58407,-3.06324 -1.57116,-3.25967 0.2793,-4.25 2.87306,-1.53762 4.96728,-1.27508 2.8216,0.35373 -2.14488,1.62819 -2.21794,2.97471 -0.25,4.60795 0.825,0.68469 1.5,1.59164 1.5,2.01546 0,0.42381 -0.675,1.02958 -1.5,1.34617 -0.825,0.31658 -1.5,0.36472 -1.5,0.10699 z m -164.5,103.06926 c 4.95,-1.4716 11.475,-3.34297 14.5,-4.15861 11.37881,-3.0681 27.94681,-9.4841 36.07835,-13.97144 23.00426,-12.69475 36.47555,-25.37229 41.87518,-39.40783 1.82905,-4.75437 3.49775,-8.79745 5.42784,-13.15113 0.89025,-2.00812 1.61863,-4.13565 1.61863,-4.72785 0,-1.49619 5.3311,-12.54595 6.25,-12.95435 0.4125,-0.18334 0.75,-0.73908 0.75,-1.23498 0,-1.4079 5.83346,-10.53926 9.33678,-14.61526 11.90085,-13.84627 19.69794,-18.71222 31.76543,-19.82395 28.06013,-2.58506 27.40593,-2.45216 39.56077,-8.03655 15.54652,-7.14266 29.97301,-18.80762 34.57411,-27.95593 3.48507,-6.929315 6.6911,-20.743823 8.11912,-34.984571 l 1.20487,-12.015431 -10.03054,-0.571391 c -5.5168,-0.314264 -61.20004,-0.675017 -123.74055,-0.801673 l -113.710007,-0.230282 0.180133,109.362378 0.180132,109.36238 3.529874,-3.70395 c 2.843926,-2.98418 5.278813,-4.2239 12.529878,-6.37958 z m 69.5,-177.537882 c 0,-0.55 0.19844,-1 0.44098,-1 0.24254,0 0.7191,0.45 1.05902,1 0.33991,0.55 0.14147,1 -0.44099,1 -0.58246,0 -1.05901,-0.45 -1.05901,-1 z"
     id="path4288"
     inkscape:connector-curvature="0" /><path
     style="fill:#656565"
     d="m 88.965727,285.73975 c -0.773127,-0.51371 -1.013311,-8.40459 -0.798538,-26.23469 0.168939,-14.025 0.329004,-65.88096 0.3557,-115.23547 l 0.04854,-89.735463 151.250001,0.538722 c 83.1875,0.296298 155.075,0.662712 159.75,0.814255 l 8.5,0.275531 -0.19144,50.421215 c -0.1053,27.73166 -0.2178,79.55871 -0.25,115.17121 l -0.0586,64.75 -158.75,-0.0153 c -87.3125,-0.008 -159.247566,-0.34592 -159.8557,-0.75 z m 316.556953,-114.2091 -0.0635,-113.025592 -12.30876,0 -12.30876,0 -5.3851,8.747933 c -2.96181,4.811364 -5.88506,9.648864 -6.49611,10.75 -0.61105,1.101137 -2.8101,4.927067 -4.88677,8.502067 -5.88996,10.139566 -8.79627,15.851922 -12.46502,24.500002 -1.8666,4.4 -3.70494,8.45 -4.08519,9 -0.38026,0.55 -1.26218,2.8 -1.95982,5 -4.21488,13.29146 -15.40657,29.5032 -23.9922,34.75393 -1.925,1.17727 -3.725,2.44981 -4,2.82785 -0.90033,1.2377 -15.28947,5.73473 -25.5,7.9695 -18.83904,4.1233 -31.2534,8.77975 -41.39299,15.52593 -2.41614,1.60753 -5.15204,3.3761 -6.07977,3.93013 -6.37292,3.8059 -21.23397,21.08816 -27.51055,31.99266 -3.84674,6.68306 -14.36553,22.68148 -19.39592,29.5 -8.79768,11.92494 -21.99963,22.8827 -30.044,24.93686 -1.96723,0.50233 -5.42898,1.39704 -7.69279,1.98824 -2.26381,0.59119 -7.37443,1.0749 -11.35692,1.0749 -3.9825,0 -10.45529,0.7875 -14.38398,1.75 -7.06127,1.72996 -6.32983,1.75573 63.85692,2.25 39.05,0.275 101.71582,0.62401 139.25738,0.77559 l 68.25739,0.27558 -0.0635,-113.02558 z m -150.66889,89.57616 c -2.31971,-0.62537 -4.77221,-1.6916 -5.45,-2.36939 -0.6778,-0.6778 -1.72908,-1.23236 -2.33619,-1.23236 -1.87782,0 -7.20491,-6.34119 -7.93844,-9.44965 -0.38283,-1.62231 -0.6865,-5.97152 -0.67483,-9.66491 0.0281,-8.90373 2.25882,-13.59839 7.95364,-16.73913 3.86232,-2.1301 4.61269,-2.24385 6.86173,-1.0402 2.80713,1.50233 3.96103,3.84099 4.42092,8.96004 0.43065,4.79363 2.29261,7.36486 6.80764,9.40086 3.34157,1.50683 4.41885,1.57617 7.728,0.49739 7.13919,-2.32736 18.30068,-11.70414 19.77047,-16.60918 0.35348,-1.17963 -0.54891,-6.90022 -2.00531,-12.71242 -2.62246,-10.46571 -2.62994,-10.59855 -0.77531,-13.77411 4.11772,-7.05052 12.37861,-8.49449 21.76835,-3.80502 8.49168,4.24095 11.27136,9.21796 12.25152,21.93633 1.18812,15.41677 -6.24579,29.01805 -19.32682,35.36087 -2.11075,1.02347 -4.5911,2.24347 -5.51188,2.7111 -9.69028,4.92133 -28.45934,10.0643 -35.7553,9.79742 -1.9638,-0.0718 -5.46849,-0.64227 -7.78819,-1.26764 z m 29.71764,-5.45867 c 10.87844,-3.89189 21.69467,-9.17383 25.71732,-12.55867 2.79511,-2.35193 9.96492,-12.58441 8.8178,-12.58441 -0.24552,0 0.1459,-1.6875 0.86983,-3.75 1.68234,-4.79304 1.35469,-14.17563 -0.74643,-21.37487 -1.68664,-5.77908 -4.62565,-8.90679 -10.95557,-11.65899 -4.12409,-1.79313 -11.80646,-1.49485 -14.32268,0.5561 -3.77098,3.07368 -4.25038,5.06291 -2.68215,11.12932 3.27507,12.66903 3.66302,15.81236 2.34444,18.9957 -2.47233,5.96874 -15.55384,16.50648 -21.80138,17.56199 -8.06523,1.36261 -16.24118,-4.45683 -16.24118,-11.56008 0,-1.54279 -0.52223,-3.95124 -1.16052,-5.35212 -2.32568,-5.10433 -10.17845,-1.75065 -12.67588,5.41348 -1.4797,4.24468 -1.40582,13.52641 0.14284,17.94456 1.42926,4.07751 7.49207,9.23615 11.10038,9.44494 1.42547,0.0825 2.59209,0.5521 2.59247,1.04358 4e-4,0.50256 4.48626,0.65224 10.25071,0.34203 7.90136,-0.42519 12.19765,-1.24838 18.75,-3.59256 z m -32.5,-2.14308 c -0.3678,-0.59512 0.82295,-1 2.94098,-1 1.95746,0 3.55902,0.45 3.55902,1 0,0.55 -1.32344,1 -2.94098,1 -1.61754,0 -3.2191,-0.45 -3.55902,-1 z m 33.5,-4 c -1.13826,-0.7356 -0.71622,-0.97307 1.75,-0.98469 1.7875,-0.008 3.25,0.43469 3.25,0.98469 0,1.2702 -3.03451,1.2702 -5,0 z m -15.75,-0.68933 c 0.9625,-0.25152 2.5375,-0.25152 3.5,0 0.9625,0.25153 0.175,0.45733 -1.75,0.45733 -1.925,0 -2.7125,-0.2058 -1.75,-0.45733 z m -26.01166,-8.99775 c 0.95609,-0.25029 2.75609,-0.25937 4,-0.0202 1.24391,0.23919 0.46166,0.44398 -1.73834,0.45508 -2.2,0.0111 -3.21775,-0.18461 -2.26166,-0.4349 z m 42.01166,-0.002 c 0.9625,-0.25152 2.5375,-0.25152 3.5,0 0.9625,0.25153 0.175,0.45733 -1.75,0.45733 -1.925,0 -2.7125,-0.2058 -1.75,-0.45733 z m 20.02083,-2.91484 c 0.33229,-0.33229 1.19479,-0.36781 1.91667,-0.0789 0.79773,0.31922 0.56078,0.55618 -0.60417,0.60416 -1.05416,0.0434 -1.64479,-0.19293 -1.3125,-0.52522 z m 4,0 c 0.33229,-0.33229 1.19479,-0.36781 1.91667,-0.0789 0.79773,0.31922 0.56078,0.55618 -0.60417,0.60416 -1.05416,0.0434 -1.64479,-0.19293 -1.3125,-0.52522 z m -63.27083,-6.77945 c 0,-0.89093 3.68666,-1.24656 5.51597,-0.53209 1.51126,0.59024 1.09044,0.79164 -1.76597,0.84517 -2.0625,0.0387 -3.75,-0.10223 -3.75,-0.31308 z m 48.23834,-3.30371 c 0.95609,-0.25029 2.75609,-0.25937 4,-0.0202 1.24391,0.23919 0.46166,0.44398 -1.73834,0.45508 -2.2,0.0111 -3.21775,-0.18461 -2.26166,-0.4349 z m 19,-5 c 0.95609,-0.25029 2.75609,-0.25937 4,-0.0202 1.24391,0.23919 0.46166,0.44398 -1.73834,0.45508 -2.2,0.0111 -3.21775,-0.18461 -2.26166,-0.4349 z m -16.23834,-7.13973 c 0,-0.45474 1.35,-0.62867 3,-0.3865 1.65,0.24217 3,0.61423 3,0.82681 0,0.21257 -1.35,0.3865 -3,0.3865 -1.65,0 -3,-0.37206 -3,-0.82681 z m 1,-14.15731 c 0,-0.55873 1.35,-1.01588 3,-1.01588 1.65,0 3,0.35428 3,0.78729 0,0.43301 -1.35,0.89016 -3,1.01589 -1.65,0.12572 -3,-0.22856 -3,-0.7873 z m -32.83333,25.98412 c 0.50335,-1.51005 2.11144,-1.66567 2.58333,-0.25 0.22917,0.6875 -0.33333,1.25 -1.25,1.25 -0.91667,0 -1.51667,-0.45 -1.33333,-1 z m -4.16667,-7 c 0,-0.55 0.675,-1 1.5,-1 0.825,0 1.5,0.45 1.5,1 0,0.55 -0.675,1 -1.5,1 -0.825,0 -1.5,-0.45 -1.5,-1 z m -28.5,-1 c -0.33992,-0.55 0.0835,-1 0.94098,-1 0.85746,0 1.55902,0.45 1.55902,1 0,0.55 -0.42344,1 -0.94098,1 -0.51754,0 -1.2191,-0.45 -1.55902,-1 z m 42.19385,-2.63948 c -0.35171,-0.35171 -0.39562,-1.03405 -0.0976,-1.51631 0.63919,-1.03422 2.40372,-0.14245 2.40372,1.21481 0,1.07509 -1.35536,1.25229 -2.30615,0.3015 z m -37.69385,-4.36052 c 0,-0.55 0.42344,-1 0.94098,-1 0.51754,0 1.2191,0.45 1.55902,1 0.33992,0.55 -0.0835,1 -0.94098,1 -0.85746,0 -1.55902,-0.45 -1.55902,-1 z m 90.5,-6.5 c 0,-5.26132 0.30153,-6.5 1.58227,-6.5 1.31172,0 1.50212,0.96662 1.11348,5.653 l -0.46879,5.65299 3.63652,-0.59012 c 2.00009,-0.32457 3.63652,-0.21657 3.63652,0.24001 0,1.18677 -2.6557,2.04412 -6.33179,2.04412 l -3.16821,0 0,-6.5 z m 10.72948,4.65563 c -0.34659,-0.90321 0.29515,-2.09202 1.59534,-2.95531 1.19635,-0.79434 2.17518,-1.89448 2.17518,-2.44474 0,-0.55161 -0.68381,-0.43296 -1.52417,0.26448 -1.67671,1.39155 -3.06164,0.73682 -2.01695,-0.95353 0.9115,-1.47484 4.51967,-1.34207 4.98597,0.18347 0.21015,0.6875 0.61977,2.6375 0.91028,4.33333 0.49398,2.88356 0.33143,3.08334 -2.5088,3.08334 -1.78694,0 -3.27568,-0.62197 -3.61685,-1.51104 z m 3.77052,-1.15563 c 0,-0.55 -0.45,-1 -1,-1 -0.55,0 -1,0.45 -1,1 0,0.55 0.45,1 1,1 0.55,0 1,-0.45 1,-1 z m 6.44466,2.40261 c -0.58946,-0.24549 -0.94821,-2.63859 -0.81267,-5.42106 0.13661,-2.80454 -0.19275,-4.98155 -0.75368,-4.98155 -0.54799,0 -0.71823,-0.45 -0.37831,-1 1.31212,-2.12306 2.5,-0.84015 2.5,2.7 0,2.87778 0.26667,3.43333 1.2,2.5 0.66,-0.66 1.87101,-1.2 2.69113,-1.2 1.11497,0 1.0048,0.35561 -0.43673,1.40968 -1.89367,1.38469 -1.89421,1.44686 -0.0306,3.50613 1.04349,1.15305 1.56924,2.42447 1.16833,2.82538 -0.40091,0.40091 -1.62636,-0.38935 -2.72322,-1.75613 -1.93122,-2.40647 -1.97436,-2.4139 -1.36422,-0.23506 0.34654,1.2375 0.48725,2.21447 0.31269,2.17105 -0.17457,-0.0434 -0.79229,-0.27672 -1.37273,-0.51844 z m 7.75534,-0.60261 c -2.913,-2.913 -0.14049,-8.17718 3.55,-6.74041 2.98667,1.16276 2.87121,2.94041 -0.19098,2.94041 -1.34254,0 -2.69908,0.4176 -3.01452,0.928 -0.69711,1.12795 3.03285,2.45125 4.44655,1.57753 0.55492,-0.34296 1.00895,-0.19515 1.00895,0.32846 0,0.89301 -2.28139,2.16601 -3.88179,2.16601 -0.39501,0 -1.25821,-0.54 -1.91821,-1.2 z m -99.2,-1.8 c 0,-0.55 0.675,-1 1.5,-1 0.825,0 1.5,0.45 1.5,1 0,0.55 -0.675,1 -1.5,1 -0.825,0 -1.5,-0.45 -1.5,-1 z m 19.54271,-5.9309 c -0.73955,-1.1966 1.14162,-2.38223 2.4736,-1.55902 1.11836,0.69118 0.38417,2.48992 -1.01631,2.48992 -0.48508,0 -1.14086,-0.41891 -1.45729,-0.9309 z m -28.54271,-1.51008 c 0,-0.85746 0.45,-1.55902 1,-1.55902 0.55,0 1,0.42344 1,0.94098 0,0.51754 -0.45,1.2191 -1,1.55902 -0.55,0.33992 -1,-0.0835 -1,-0.94098 z m 19.44615,-0.64615 c -0.36954,-0.59793 -0.17109,-1.58793 0.44098,-2.2 0.81716,-0.81716 1.11287,-0.52829 1.11287,1.08713 0,2.41451 -0.51946,2.78655 -1.55385,1.11287 z m -14.44615,-3.32954 c 0,-0.87083 0.7125,-1.58333 1.58333,-1.58333 1.76593,0 1.45839,2.15276 -0.39583,2.77083 -0.65313,0.21771 -1.1875,-0.31666 -1.1875,-1.1875 z m -6.30615,-5.22281 c -0.79893,-0.79893 0.10419,-2.36052 1.36517,-2.36052 0.51754,0 0.94098,0.675 0.94098,1.5 0,1.54641 -1.17996,1.9867 -2.30615,0.86052 z m 30.30615,-3.36052 c 0,-0.55 0.675,-1 1.5,-1 0.825,0 1.5,0.45 1.5,1 0,0.55 -0.675,1 -1.5,1 -0.825,0 -1.5,-0.45 -1.5,-1 z m 7.63948,0.30615 c -1.12618,-1.12619 -0.68589,-2.30615 0.86052,-2.30615 0.825,0 1.5,0.42344 1.5,0.94098 0,1.26098 -1.56159,2.1641 -2.36052,1.36517 z m -17.63948,-1.30615 c 0,-0.55 0.45,-1 1,-1 0.55,0 1,0.45 1,1 0,0.55 -0.45,1 -1,1 -0.55,0 -1,-0.45 -1,-1 z m 30,-2.5 c 0,-0.825 0.45,-1.5 1,-1.5 0.55,0 1,0.675 1,1.5 0,0.825 -0.45,1.5 -1,1.5 -0.55,0 -1,-0.675 -1,-1.5 z m -1,-8 c 0,-0.825 0.66088,-1.5 1.46862,-1.5 0.89459,0 1.24363,0.58629 0.89301,1.5 -0.31659,0.825 -0.97746,1.5 -1.46862,1.5 -0.49115,0 -0.89301,-0.675 -0.89301,-1.5 z m 17.66667,0.83333 c -1.15064,-1.15063 -0.72824,-2.33333 0.83333,-2.33333 0.825,0 1.5,0.675 1.5,1.5 0,1.56157 -1.1827,1.98397 -2.33333,0.83333 z M 128.57609,280.46357 c 7.42744,-2.37912 12.40088,-3.23017 22.83694,-3.90782 11.91454,-0.77366 14.00033,-1.19346 19.5,-3.92467 3.38712,-1.68209 7.5084,-4.21045 9.1584,-5.61859 6.17979,-5.27393 12.70986,-12.12166 14.78803,-15.50743 1.18156,-1.925 2.96035,-4.38333 3.95286,-5.46296 0.99252,-1.07963 5.04333,-7.15463 9.00182,-13.5 3.95848,-6.34537 8.67325,-13.66992 10.47727,-16.27678 1.80401,-2.60686 3.28002,-4.92309 3.28002,-5.14718 0,-0.22408 1.2375,-1.89223 2.75,-3.70699 14.94856,-17.93588 28.51391,-27.51724 47.98458,-33.89203 3.17098,-1.03819 13.08988,-3.6945 22.042,-5.9029 18.93798,-4.67181 24.41642,-7.29908 32.74286,-15.70232 5.43514,-5.48529 12.18155,-16.87401 16.53253,-27.90884 0.43373,-1.1 1.92457,-4.5875 3.31299,-7.75 1.38841,-3.1625 2.34456,-5.75 2.12476,-5.75 -0.38867,0 2.97273,-6.57471 12.27032,-24.000002 4.7438,-8.890696 13.53516,-23.25067 16.0706,-26.25 1.4009,-1.657216 0.467,-1.75 -17.61438,-1.75 l -19.09371,0 -0.58713,4.25 c -0.32292,2.3375 -0.7578,6.5 -0.96639,9.25 -1.08819,14.34646 -5.51592,31.127872 -10.15812,38.500002 -6.63326,10.53405 -29.52776,25.66577 -45.55078,30.10597 -6.57543,1.82215 -10.28125,2.33325 -24.36013,3.35969 -3.85,0.2807 -7.95702,0.70423 -9.1267,0.94118 -5.34343,1.08248 -12.38928,5.38627 -18.54118,11.32543 -10.38293,10.02387 -18.0549,22.69249 -24.38568,40.26773 -8.32345,23.1072 -14.94234,31.83946 -33.47513,44.16354 -12.48443,8.30199 -12.72224,8.44664 -17.97131,10.93078 -15.56138,7.36448 -23.95956,10.38328 -39.79326,14.30406 -15.1622,3.7545 -19.507061,6.10417 -22.002282,11.89867 -2.443301,5.67394 -2.382003,5.70295 12.050202,5.70295 12.01964,0 14.13941,-0.2834 22.75,-3.04149 z m 86.99534,-100.89949 c 0,-0.51754 0.45,-1.2191 1,-1.55902 0.55,-0.33992 1,0.0835 1,0.94098 0,0.85746 -0.45,1.55902 -1,1.55902 -0.55,0 -1,-0.42344 -1,-0.94098 z m 25.25168,-4.64403 c 0.79249,-0.79249 -1.19234,-6.51801 -2.97625,-8.58541 -1.27541,-1.47809 -1.19585,-1.8018 0.69106,-2.81165 1.17283,-0.62767 3.34766,-1.00099 4.83296,-0.82958 2.23362,0.25777 2.7073,0.8153 2.73961,3.22457 0.0261,1.94277 0.69216,3.16831 2,3.67972 3.8285,1.49707 4.72185,1.08506 3.99541,-1.84264 -0.37529,-1.5125 -1.10188,-2.90093 -1.61464,-3.08541 -1.0747,-0.38665 -0.21935,-2.16459 1.04136,-2.16459 0.46374,0 1.4204,1.4625 2.12591,3.25 0.70552,1.7875 1.42531,3.47731 1.59954,3.75513 0.17423,0.27782 -1.09138,1.12845 -2.81247,1.89027 -2.76358,1.22328 -3.47299,1.18208 -6.07094,-0.35256 -1.61793,-0.95574 -3.14613,-1.53327 -3.396,-1.2834 -0.78355,0.78355 0.75111,3.73981 1.94976,3.75587 1.63634,0.0219 -1.57027,1.95097 -3.27366,1.96938 -0.77916,0.008 -1.15341,-0.24795 -0.83165,-0.5697 z m 2.22017,-10.25339 c -2.16513,-0.44994 -2.66114,0.18154 -1.83456,2.33557 0.64869,1.69047 0.75677,1.6849 2.07365,-0.10687 1.20822,-1.64394 1.17706,-1.9344 -0.23909,-2.2287 z m 13.04306,-0.26947 c -1.6418,-1.59067 -2.69111,-2.89213 -2.33179,-2.89213 0.35932,0 1.43893,-0.30147 2.39914,-0.66994 1.1041,-0.42368 1.50579,-0.28154 1.0928,0.38669 -0.35917,0.58115 0.0895,1.67012 0.99715,2.41994 1.47791,1.22099 1.59516,1.07374 1.1231,-1.41056 -0.2899,-1.52562 -0.13744,-3.01468 0.3388,-3.30901 0.47624,-0.29434 0.86589,1.5164 0.86589,4.02386 0,2.50746 -0.3375,4.51048 -0.75,4.45115 -0.4125,-0.0593 -2.09329,-1.40933 -3.73509,-3 z m 7.68509,-0.0921 c -1.45824,-1.45824 -1.58857,-6.44182 -0.19105,-7.30553 1.29176,-0.79835 4.99105,0.35335 4.99105,1.55387 0,0.50245 -1.16309,1.20547 -2.58464,1.56226 -2.39443,0.60096 -2.46352,0.76794 -0.93888,2.26905 1.51822,1.49478 1.75726,1.46992 3.08464,-0.32078 1.07401,-1.4489 1.43888,-1.56301 1.43888,-0.45 0,1.74877 -1.92701,3.89113 -3.5,3.89113 -0.605,0 -1.64,-0.54 -2.3,-1.2 z m 6.51147,-5.27887 c -1.58154,-3.31653 -1.56992,-3.52652 0.24904,-4.5 2.84819,-1.5243 4.92274,-1.24845 2.78949,0.37092 -2.14488,1.62819 -2.21794,2.97471 -0.25,4.60795 1.85107,1.53625 1.94144,3 0.18521,3 -0.72313,0 -2.06132,-1.56549 -2.97374,-3.47887 z M 100.23333,268.4313 c 2.47359,-1.12685 7.72409,-2.90428 11.66777,-3.94984 3.94368,-1.04556 9.84661,-2.6302 13.11763,-3.52142 31.69577,-8.63578 63.68018,-29.71205 72.3408,-47.6693 1.76655,-3.66281 3.2119,-6.9377 3.2119,-7.27753 0,-0.33983 0.8571,-2.50569 1.90467,-4.81301 1.04756,-2.30733 3.58588,-8.47014 5.64071,-13.69514 2.05483,-5.225 4.01023,-9.725 4.34534,-10 0.3351,-0.275 1.46126,-2.075 2.50258,-4 5.45966,-10.09286 17.47844,-22.97953 25.50764,-27.34957 5.00487,-2.72399 20.55691,-5.58219 30.63896,-5.63091 12.86936,-0.0622 36.81979,-11.69078 50.299,-24.42155 6.36703,-6.0135 11.66283,-17.765761 13.78802,-30.597972 1.19304,-7.203742 3.0959,-26.518742 2.65996,-27 -0.2491,-0.275 -55.97997,-0.647209 -123.84637,-0.827131 L 90.618483,57.350796 90.73535,167.03555 l 0.116867,109.68476 2.441841,-3.12009 c 1.343013,-1.71606 4.465688,-4.04207 6.939282,-5.16892 z"
     id="path4286"
     inkscape:connector-curvature="0" /><path
     style="fill:#323232"
     d="m 88.984884,285.36503 c -0.380842,-0.61621 -0.658162,-5.8993 -0.616266,-11.74018 0.04189,-5.84088 0.104666,-57.59367 0.139491,-115.0062 l 0.06332,-104.386407 63.750001,0.62428 c 35.0625,0.343354 106.06976,0.647615 157.79392,0.676136 51.72415,0.02852 95.07866,0.322447 96.34335,0.65317 l 2.29943,0.601314 -0.54423,32.108958 c -0.29933,17.659929 -0.56633,69.348099 -0.59335,114.862609 l -0.0491,82.75366 -158.94705,-0.0135 C 132.36494,286.48887 89.491382,286.1845 88.984907,285.365 z m 316.577846,-113.87081 -0.0104,-113.048773 -12.62377,0.279805 -12.62376,0.279806 -5.36668,8.805878 c -2.95167,4.843234 -5.36667,9.230734 -5.36667,9.75 0,0.519267 -0.3375,0.947633 -0.75,0.951924 -0.4125,0.0043 -1.24188,1.016791 -1.84308,2.25 -1.90171,3.900936 -4.88579,9.22167 -5.46338,9.741442 -0.64121,0.577019 -7.69022,15.116558 -10.90875,22.500758 -1.19864,2.75 -2.78731,6.35 -3.53038,8 -0.74308,1.65 -2.00511,4.90433 -2.80451,7.23184 -2.38137,6.93353 -9.59814,18.70401 -15.07502,24.58722 -8.59061,9.22793 -17.32684,13.40082 -37.12488,17.73282 -18.83584,4.12146 -31.25268,8.77867 -41.39299,15.52533 -2.41614,1.60753 -5.28206,3.44092 -6.36871,4.07419 -3.73809,2.17846 -12.96213,11.86318 -19.09475,20.04843 -5.13999,6.86037 -9.26994,13.15167 -17.15568,26.13391 -10.01707,16.49101 -23.26863,31.09046 -33.49936,36.90676 -6.36161,3.61666 -17.68901,6.2575 -26.84543,6.25868 -3.49631,4.5e-4 -9.57131,0.78832 -13.5,1.75082 -7.06126,1.72996 -6.32983,1.75573 63.85692,2.25 39.05,0.275 101.71289,0.62104 139.25086,0.76897 l 68.25086,0.26897 -0.0104,-113.04878 z m -150.70894,89.61259 c -2.31971,-0.62537 -4.77221,-1.6916 -5.45,-2.36939 -0.6778,-0.6778 -1.73317,-1.23236 -2.34527,-1.23236 -1.68921,0 -6.21725,-5.12269 -7.47903,-8.46122 -1.63712,-4.33167 -1.38598,-16.39601 0.43181,-20.74337 1.05541,-2.52409 3.00578,-4.55831 6.12054,-6.38368 4.12553,-2.41772 4.81987,-2.54617 7.11728,-1.31663 2.85404,1.52743 4.32231,4.58646 4.32231,9.00518 0,4.12026 2.35537,7.30528 6.92683,9.36673 3.34157,1.50683 4.41885,1.57617 7.728,0.49739 7.2118,-2.35103 18.29985,-11.70892 19.80356,-16.71343 0.37769,-1.25698 -0.21038,-5.668 -1.33319,-10 -3.18213,-12.27733 -3.26702,-13.48864 -1.18516,-16.91198 4.98055,-8.18986 17.95123,-7.70665 27.47819,1.02367 2.70686,2.48051 3.75422,4.5635 5.0027,9.94939 3.54334,15.28583 0.55669,26.99005 -9.34986,36.6406 -4.28649,4.17572 -7.34444,6.06303 -15.57107,9.61014 -1.65,0.71144 -5.19582,2.25558 -7.87961,3.43142 -5.88596,2.57879 -21.60042,6.05623 -26.54984,5.87518 -1.9638,-0.0718 -5.46849,-0.64227 -7.78819,-1.26764 z m 28.62406,-5.01987 c 11.29492,-3.91798 21.14949,-8.60529 25.71434,-12.23099 10.70567,-8.50316 14.59342,-22.80731 10.40446,-38.28099 -2.09996,-7.75706 -9.72813,-13.0743 -18.7431,-13.06493 -3.50059,0.004 -5.56114,0.62831 -7.6891,2.33104 -3.51184,2.81005 -3.61675,5.37466 -0.66062,16.14983 1.13718,4.14506 2.0676,8.48268 2.0676,9.63916 0,3.79645 -4.00647,9.29093 -10.48197,14.375 -7.49154,5.88179 -12.49851,7.84804 -17.73279,6.96372 -4.33325,-0.7321 -9.46059,-5.06471 -10.13186,-8.56143 -1.97414,-10.28366 -2.02577,-10.38981 -5.20496,-10.70085 -3.45406,-0.33794 -7.15075,2.51367 -9.19842,7.09561 -1.67319,3.74401 -1.58873,14.95648 0.14389,19.10325 1.50126,3.59301 6.28024,7.66446 11.10611,9.46183 5.1642,1.92338 21.90783,0.66773 30.40642,-2.28025 z m -31.40642,-2.58188 c -0.3678,-0.59512 0.82295,-1 2.94098,-1 1.95746,0 3.55902,0.45 3.55902,1 0,0.55 -1.32344,1 -2.94098,1 -1.61754,0 -3.2191,-0.45 -3.55902,-1 z m 17.75,-4.68933 c 0.9625,-0.25152 2.5375,-0.25152 3.5,0 0.9625,0.25153 0.175,0.45733 -1.75,0.45733 -1.925,0 -2.7125,-0.2058 -1.75,-0.45733 z m 16,0 c 0.9625,-0.25152 2.5375,-0.25152 3.5,0 0.9625,0.25153 0.175,0.45733 -1.75,0.45733 -1.925,0 -2.7125,-0.2058 -1.75,-0.45733 z m -42.01166,-8.99775 c 0.95609,-0.25029 2.75609,-0.25937 4,-0.0202 1.24391,0.23919 0.46166,0.44398 -1.73834,0.45508 -2.2,0.0111 -3.21775,-0.18461 -2.26166,-0.4349 z m 42.01166,-0.002 c 0.9625,-0.25152 2.5375,-0.25152 3.5,0 0.9625,0.25153 0.175,0.45733 -1.75,0.45733 -1.925,0 -2.7125,-0.2058 -1.75,-0.45733 z m 20.02083,-2.91484 c 0.33229,-0.33229 1.19479,-0.36781 1.91667,-0.0789 0.79773,0.31922 0.56078,0.55618 -0.60417,0.60416 -1.05416,0.0434 -1.64479,-0.19293 -1.3125,-0.52522 z m 4,0 c 0.33229,-0.33229 1.19479,-0.36781 1.91667,-0.0789 0.79773,0.31922 0.56078,0.55618 -0.60417,0.60416 -1.05416,0.0434 -1.64479,-0.19293 -1.3125,-0.52522 z m -62.03249,-7.08291 c 0.95609,-0.25029 2.75609,-0.25937 4,-0.0202 1.24391,0.23919 0.46166,0.44398 -1.73834,0.45508 -2.2,0.0111 -3.21775,-0.18461 -2.26166,-0.4349 z m 47,-3 c 0.95609,-0.25029 2.75609,-0.25937 4,-0.0202 1.24391,0.23919 0.46166,0.44398 -1.73834,0.45508 -2.2,0.0111 -3.21775,-0.18461 -2.26166,-0.4349 z m 19,-5 c 0.95609,-0.25029 2.75609,-0.25937 4,-0.0202 1.24391,0.23919 0.46166,0.44398 -1.73834,0.45508 -2.2,0.0111 -3.21775,-0.18461 -2.26166,-0.4349 z m -14.98834,-7.0025 c 0.9625,-0.25152 2.5375,-0.25152 3.5,0 0.9625,0.25153 0.175,0.45733 -1.75,0.45733 -1.925,0 -2.7125,-0.2058 -1.75,-0.45733 z m -0.25,-14.29479 c 0,-0.55873 1.35,-1.01588 3,-1.01588 1.65,0 3,0.35428 3,0.78729 0,0.43301 -1.35,0.89016 -3,1.01589 -1.65,0.12572 -3,-0.22856 -3,-0.7873 z m -32.83333,25.98412 c 0.50335,-1.51005 2.11144,-1.66567 2.58333,-0.25 0.22917,0.6875 -0.33333,1.25 -1.25,1.25 -0.91667,0 -1.51667,-0.45 -1.33333,-1 z m -4.16667,-7 c 0,-0.55 0.675,-1 1.5,-1 0.825,0 1.5,0.45 1.5,1 0,0.55 -0.675,1 -1.5,1 -0.825,0 -1.5,-0.45 -1.5,-1 z m -28.5,-1 c -0.33992,-0.55 0.0835,-1 0.94098,-1 0.85746,0 1.55902,0.45 1.55902,1 0,0.55 -0.42344,1 -0.94098,1 -0.51754,0 -1.2191,-0.45 -1.55902,-1 z m 42.19385,-2.63948 c -0.35171,-0.35171 -0.39562,-1.03405 -0.0976,-1.51631 0.63919,-1.03422 2.40372,-0.14245 2.40372,1.21481 0,1.07509 -1.35536,1.25229 -2.30615,0.3015 z m -37.69385,-4.36052 c 0,-0.55 0.45,-1 1,-1 0.55,0 1,0.45 1,1 0,0.55 -0.45,1 -1,1 -0.55,0 -1,-0.45 -1,-1 z m 90.5,-6.5 c 0,-5.26132 0.30153,-6.5 1.58227,-6.5 1.31172,0 1.50212,0.96662 1.11348,5.653 l -0.46879,5.65299 3.63652,-0.59012 c 2.00009,-0.32457 3.63652,-0.21657 3.63652,0.24001 0,1.18677 -2.6557,2.04412 -6.33179,2.04412 l -3.16821,0 0,-6.5 z m 11,5.66667 c -1.2315,-1.23151 -0.2839,-3.21602 2.14277,-4.48748 1.87261,-0.98116 2.27716,-1.61064 1.38819,-2.16005 -0.72087,-0.44553 -1.60928,-0.20143 -2.08839,0.57378 -0.4586,0.74204 -1.12835,1.05463 -1.48833,0.69465 -1.08307,-1.08307 0.52885,-2.78757 2.63616,-2.78757 2.07091,0 2.40661,0.57411 3.26473,5.58333 0.49087,2.86538 0.32026,3.08334 -2.41346,3.08334 -1.61792,0 -3.16667,-0.225 -3.44167,-0.5 z m 4,-2.16667 c 0.33992,-0.55 -0.0835,-1 -0.94098,-1 -0.85746,0 -1.55902,0.45 -1.55902,1 0,0.55 0.42344,1 0.94098,1 0.51754,0 1.2191,-0.45 1.55902,-1 z m 8.06575,0.75 c -1.18416,-1.58764 -1.52369,-1.73483 -1.15335,-0.5 0.29879,0.99628 -2e-5,1.75027 -0.69378,1.75062 -0.84195,4.3e-4 -1.11151,-1.54506 -0.87211,-5 0.22976,-3.31571 -0.0428,-5.00062 -0.80901,-5.00062 -0.63555,0 -0.87742,-0.45 -0.5375,-1 1.28712,-2.0826 2.5,-0.86972 2.5,2.5 0,1.925 0.45,3.5 1,3.5 0.55,0 1,-0.45 1,-1 0,-0.55 0.76101,-1 1.69113,-1 1.47622,0 1.44614,0.17914 -0.23673,1.40968 -1.83463,1.34152 -1.84387,1.50248 -0.19112,3.32874 0.95519,1.05548 1.73672,2.22113 1.73672,2.59032 0,1.41563 -1.82745,0.57554 -3.43425,-1.57874 z m 5.63425,1.05 c -2.913,-2.913 -0.14049,-8.17718 3.55,-6.74041 3.21121,1.25018 2.78009,2.94041 -0.75,2.94041 -1.65,0 -3,0.41968 -3,0.93261 0,1.25993 3.67507,2.35225 5.24105,1.55778 0.69242,-0.35129 0.38544,0.0697 -0.68218,0.93545 -2.33064,1.89004 -2.80249,1.93054 -4.35887,0.37416 z m -99.2,-1.8 c 0,-0.55 0.675,-1 1.5,-1 0.825,0 1.5,0.45 1.5,1 0,0.55 -0.675,1 -1.5,1 -0.825,0 -1.5,-0.45 -1.5,-1 z m 19.54271,-5.9309 c -0.73955,-1.1966 1.14162,-2.38223 2.4736,-1.55902 1.11836,0.69118 0.38417,2.48992 -1.01631,2.48992 -0.48508,0 -1.14086,-0.41891 -1.45729,-0.9309 z m -28.54271,-1.51008 c 0,-0.85746 0.45,-1.55902 1,-1.55902 0.55,0 1,0.42344 1,0.94098 0,0.51754 -0.45,1.2191 -1,1.55902 -0.55,0.33992 -1,-0.0835 -1,-0.94098 z m 19.44615,-0.64615 c -0.36954,-0.59793 -0.17109,-1.58793 0.44098,-2.2 0.81716,-0.81716 1.11287,-0.52829 1.11287,1.08713 0,2.41451 -0.51946,2.78655 -1.55385,1.11287 z m -14.44615,-3.32954 c 0,-0.87083 0.7125,-1.58333 1.58333,-1.58333 1.76593,0 1.45839,2.15276 -0.39583,2.77083 -0.65313,0.21771 -1.1875,-0.31666 -1.1875,-1.1875 z m -6,-6.08333 c 0,-0.825 0.45,-1.5 1,-1.5 0.55,0 1,0.675 1,1.5 0,0.825 -0.45,1.5 -1,1.5 -0.55,0 -1,-0.675 -1,-1.5 z m 30,-2.5 c 0,-0.55 0.675,-1 1.5,-1 0.825,0 1.5,0.45 1.5,1 0,0.55 -0.675,1 -1.5,1 -0.825,0 -1.5,-0.45 -1.5,-1 z m 7.59656,0.15623 c -0.34605,-0.55992 -0.1419,-1.31919 0.45366,-1.68727 1.53748,-0.95021 2.52947,0.35135 1.24598,1.63484 -0.71818,0.71818 -1.27752,0.73543 -1.69964,0.0524 z m -17.59656,-1.15623 c 0,-0.55 0.45,-1 1,-1 0.55,0 1,0.45 1,1 0,0.55 -0.45,1 -1,1 -0.55,0 -1,-0.45 -1,-1 z m 30,-2.5 c 0,-0.825 0.45,-1.5 1,-1.5 0.55,0 1,0.675 1,1.5 0,0.825 -0.45,1.5 -1,1.5 -0.55,0 -1,-0.675 -1,-1.5 z m -1,-8 c 0,-0.825 0.66088,-1.5 1.46862,-1.5 0.89459,0 1.24363,0.58629 0.89301,1.5 -0.31659,0.825 -0.97746,1.5 -1.46862,1.5 -0.49115,0 -0.89301,-0.675 -0.89301,-1.5 z m 17.66667,0.83333 c -1.15064,-1.15063 -0.72824,-2.33333 0.83333,-2.33333 0.825,0 1.5,0.675 1.5,1.5 0,1.56157 -1.1827,1.98397 -2.33333,0.83333 z M 128.57609,280.46357 c 7.42744,-2.37912 12.40088,-3.23017 22.83694,-3.90782 11.87664,-0.7712 14.01782,-1.20004 19.5,-3.90546 7.11941,-3.51339 14.59867,-9.59443 20.22059,-16.44043 2.1658,-2.63736 4.61281,-5.61597 5.43781,-6.61913 0.825,-1.00316 4.875,-7.0964 9,-13.54054 4.125,-6.44414 9.4125,-14.63825 11.75,-18.20914 2.3375,-3.57088 4.25,-6.63602 4.25,-6.81142 0,-0.56392 5.33278,-6.73967 11.5,-13.31785 13.14881,-14.02498 31.20467,-23.28778 56,-28.72846 12.56492,-2.75704 21.58878,-5.49733 26.82169,-8.145 8.04523,-4.07061 16.4811,-13.46919 22.28955,-24.83326 2.81118,-5.5 5.20596,-10.45 5.32172,-11 0.11576,-0.55 0.79645,-2.35 1.51266,-4 0.7162,-1.65 2.81299,-6.6 4.65955,-11 4.40492,-10.496156 18.48594,-36.722469 20.04441,-37.333335 0.46773,-0.183334 0.85042,-0.815858 0.85042,-1.405609 0,-0.589752 1.125,-2.547227 2.5,-4.349945 1.375,-1.802718 2.5,-3.757694 2.5,-4.344391 0,-0.586697 0.40186,-1.066722 0.89301,-1.066722 0.49116,0 1.15203,-0.675 1.46862,-1.5 0.49914,-1.300739 -1.93606,-1.5 -18.33174,-1.5 l -18.90734,0 -0.61411,4.25 c -0.33776,2.3375 -0.76308,6.275 -0.94516,8.75 -0.89621,12.18252 -4.14081,26.031725 -8.25192,35.222372 -4.15345,9.28533 -18.88756,21.4014 -35.53564,29.22147 -11.68517,5.48886 -16.67847,6.59305 -36.27572,8.02182 -9.35959,0.68238 -10.72715,1.00912 -16.93408,4.04589 -6.52389,3.19184 -15.78214,12.22641 -21.95045,21.42011 -4.38031,6.52874 -5.81437,9.92733 -3.61547,8.56834 0.55,-0.33992 1,-0.0933 1,0.54797 0,0.64795 -0.69648,0.89874 -1.56759,0.56447 -1.18857,-0.4561 -2.39747,1.19463 -5,6.82747 -1.88782,4.08595 -3.43241,7.83092 -3.43241,8.32214 0,0.9716 -4.05432,11.21146 -7.10609,17.94765 -2.917,6.43867 -7.17881,12.26144 -13.2041,18.0403 -3.01064,2.8875 -5.73666,5.25 -6.05782,5.25 -0.32117,0 -4.35863,2.7 -8.97213,6 -4.61349,3.3 -8.86716,6 -9.45259,6 -0.58543,0 -1.65906,0.57957 -2.38585,1.28794 -1.28217,1.24968 -2.77066,2.00393 -13.32142,6.75026 -4.88522,2.19764 -17.51375,6.82118 -20.5,7.50543 -9.41585,2.15747 -21.82533,5.78236 -25.45317,7.43503 -4.961687,2.26031 -7.178578,4.93006 -8.157289,9.82361 l -0.639545,3.19773 13.379664,0 c 12.1589,0 14.24602,-0.27751 22.875,-3.04149 z M 240.82311,174.92005 c 0.79249,-0.79249 -1.19234,-6.51801 -2.97625,-8.58541 -1.27541,-1.47809 -1.19585,-1.8018 0.69106,-2.81165 1.17283,-0.62767 3.34766,-1.00099 4.83296,-0.82958 2.23362,0.25777 2.7073,0.8153 2.73961,3.22457 0.0261,1.94277 0.69216,3.16831 2,3.67972 3.8285,1.49707 4.72185,1.08506 3.99541,-1.84264 -0.37529,-1.5125 -1.10188,-2.90093 -1.61464,-3.08541 -1.0747,-0.38665 -0.21935,-2.16459 1.04136,-2.16459 0.46374,0 1.4204,1.4625 2.12591,3.25 0.70552,1.7875 1.42531,3.47731 1.59954,3.75513 0.17423,0.27782 -1.09138,1.12845 -2.81247,1.89027 -2.76358,1.22328 -3.47299,1.18208 -6.07094,-0.35256 -1.61793,-0.95574 -3.14613,-1.53327 -3.396,-1.2834 -0.78355,0.78355 0.75111,3.73981 1.94976,3.75587 1.63634,0.0219 -1.57027,1.95097 -3.27366,1.96938 -0.77916,0.008 -1.15341,-0.24795 -0.83165,-0.5697 z m 3.41499,-8.95802 c 0,-0.80133 -0.825,-1.45697 -1.83334,-1.45697 -2.01955,0 -2.09777,0.14731 -1.25057,2.35507 0.70508,1.8374 3.08391,1.14463 3.08391,-0.8981 z m 11.979,-1.44673 c -1.99186,-1.93581 -2.45113,-2.90842 -1.51995,-3.21881 0.73391,-0.24464 2.16104,0.48971 3.1714,1.63189 1.83614,2.0757 1.83681,2.07537 1.40406,-0.69719 -0.23813,-1.52562 -0.0433,-3.01468 0.43293,-3.30901 0.47624,-0.29434 0.86589,1.5164 0.86589,4.02386 0,2.50746 -0.3375,4.51048 -0.75,4.45115 -0.4125,-0.0593 -2.03445,-1.35618 -3.60433,-2.88189 z m 7.55433,-0.21024 c -1.45824,-1.45824 -1.58857,-6.44182 -0.19105,-7.30553 1.29176,-0.79835 4.99105,0.35335 4.99105,1.55387 0,0.50245 -1.16309,1.20547 -2.58464,1.56226 -2.39443,0.60096 -2.46352,0.76794 -0.93888,2.26905 1.51822,1.49478 1.75726,1.46992 3.08464,-0.32078 1.07401,-1.4489 1.43888,-1.56301 1.43888,-0.45 0,1.74877 -1.92701,3.89113 -3.5,3.89113 -0.605,0 -1.64,-0.54 -2.3,-1.2 z m 6.61931,-5.32421 c -1.49951,-3.30829 -1.48567,-3.58398 0.22592,-4.5 2.82811,-1.51356 4.77428,-1.15429 2.61407,0.48257 -1.86679,1.41453 -1.56287,5.54164 0.40809,5.54164 0.51293,0 0.93261,0.45 0.93261,1 0,2.35289 -2.71239,0.71521 -4.18069,-2.52421 z M 100.37627,268.44654 c 4.2724,-1.91419 13.22701,-4.58953 23.69516,-7.07935 20.73868,-4.93262 51.58054,-21.78715 64.08304,-35.02024 6.68415,-7.07475 9.54619,-12.16899 15.45818,-27.51455 7.70527,-20.00031 12.98368,-29.62497 21.56813,-39.32734 6.4087,-7.24329 8.0443,-8.73056 13.37527,-12.16233 5.92888,-3.81666 8.78786,-4.49224 26.51538,-6.26556 15.05078,-1.50557 22.18291,-3.29756 31.24218,-7.84979 5.59055,-2.80921 9.55789,-5.02239 10.25782,-5.72232 0.275,-0.275 2.75,-2.03115 5.5,-3.90256 7.07305,-4.8133 13.20596,-10.89495 15.97712,-15.84359 4.27542,-7.63488 8.11053,-23.55486 9.09488,-37.753852 0.22877,-3.3 0.62366,-7.193778 0.87754,-8.65284 0.43712,-2.512188 0.21211,-2.677271 -4.24397,-3.113624 -2.58806,-0.253431 -58.36388,-0.53284 -123.94627,-0.620911 l -119.240695,-0.160127 0.01242,109.773754 0.01243,109.77375 2.533111,-3.22746 c 1.393211,-1.77511 4.645933,-4.17409 7.228274,-5.33106 z"
     id="path4284"
     inkscape:connector-curvature="0" /><path
     style="fill:#000000"
     d="M 89.189092,285.78939 C 88.849376,285.44968 88.571426,233.20513 88.571426,169.6904 l 0,-115.481322 56.250004,0.651029 c 30.9375,0.358066 100.575,0.674328 154.75,0.702805 54.175,0.02848 100.78981,0.305523 103.58846,0.615657 l 5.08847,0.563881 -0.30034,26.131304 c -0.16519,14.372217 -0.3175,66.076456 -0.33847,114.898316 l -0.0381,88.76701 -158.88233,-0.066 C 161.30383,286.43678 89.528828,286.12912 89.189112,285.7894 z m 316.382338,-114.28957 0,-113.054516 -12.68543,0.279877 -12.68542,0.279877 -8.83113,14.5 c -7.68629,12.620255 -21.79802,39.434512 -21.79802,41.419282 0,0.37974 -0.87651,2.61451 -1.94781,4.96615 -1.07129,2.35164 -2.82755,6.50763 -3.90279,9.23553 -5.72154,14.51568 -14.57942,26.01756 -24.82095,32.22979 -6.04379,3.666 -13.99569,6.3932 -26.82845,9.20113 -38.40699,8.40382 -56.53491,21.26846 -77.42892,54.94812 -2.90026,4.675 -6.46522,10.46116 -7.92214,12.85812 -9.25769,15.23104 -23.45626,30.35258 -33.26502,35.4274 -6.49428,3.35999 -17.09993,5.71448 -25.74047,5.71448 -3.49651,0 -9.57168,0.7875 -13.50037,1.75 -7.07233,1.73267 -6.46953,1.75495 60.85692,2.25 37.4,0.275 100.0625,0.62359 139.25,0.77464 l 71.25,0.27464 0,-113.05452 z m -150.71764,89.60699 c -2.31971,-0.62537 -4.77221,-1.6916 -5.45,-2.36939 -0.6778,-0.6778 -1.73317,-1.23236 -2.34527,-1.23236 -1.91705,0 -6.48119,-5.49681 -7.53543,-9.07528 -1.40892,-4.7824 -1.34587,-13.87693 0.13038,-18.8042 0.94454,-3.1526 2.32371,-4.86318 5.75166,-7.13376 5.23133,-3.46508 5.45201,-3.50089 8.65266,-1.40374 1.77245,1.16135 2.57827,2.82615 3.02523,6.25 0.92828,7.11096 2.0628,8.9862 6.84113,11.30769 4.16993,2.0259 4.62358,2.05537 8.94971,0.58131 5.1897,-1.76831 11.80019,-6.50107 16.19757,-11.59659 2.46686,-2.85852 2.97427,-4.28925 2.85519,-8.05086 -0.0796,-2.51602 -0.88648,-6.83781 -1.79296,-9.604 -3.3,-10.07017 -2.56007,-13.88269 3.46865,-17.87231 3.43308,-2.2719 4.25205,-2.40636 9.84311,-1.61607 10.24847,1.44861 16.34803,6.78829 18.48051,16.1782 4.97426,21.90309 -3.13133,37.03592 -24.8545,46.4024 -1.65,0.71144 -5.19582,2.25558 -7.87961,3.43142 -5.88596,2.57879 -21.60042,6.05623 -26.54984,5.87518 -1.9638,-0.0718 -5.46849,-0.64227 -7.78819,-1.26764 z m 27.71764,-4.40232 c 1.375,-0.55701 4.975,-2.01399 8,-3.23775 15.94611,-6.45096 21.81811,-10.56284 26.50479,-18.56006 3.34379,-5.70576 4.0162,-8.86386 3.91796,-18.40162 -0.0873,-8.47245 -1.6728,-14.38421 -4.79592,-17.88192 -5.45317,-6.10722 -18.13246,-8.16772 -23.23773,-3.77634 -3.64023,3.13119 -3.61162,5.508 0.23125,19.20805 1.01128,3.60528 1.41713,7.16473 1.00442,8.8091 -0.90904,3.6219 -7.33028,10.50601 -14.23594,15.26212 -4.66939,3.21593 -6.33333,3.80581 -10.70862,3.79627 -7.91577,-0.0172 -13.68021,-4.99049 -13.68021,-11.80252 0,-1.36651 -0.43886,-3.63886 -0.97525,-5.04966 -1.94533,-5.1166 -9.87521,-2.19209 -12.8308,4.73195 -1.82241,4.26934 -1.50175,15.58512 0.5576,19.67746 2.58821,5.14328 8.61319,8.89678 15.74845,9.81112 6.12708,0.78514 19.71951,-0.64967 24.5,-2.5862 z m -30,-3.19943 c 0,-0.55 1.35,-1 3,-1 1.65,0 3,0.45 3,1 0,0.55 -1.35,1 -3,1 -1.65,0 -3,-0.45 -3,-1 z m 17.25,-4.68933 c 0.9625,-0.25152 2.5375,-0.25152 3.5,0 0.9625,0.25153 0.175,0.45733 -1.75,0.45733 -1.925,0 -2.7125,-0.2058 -1.75,-0.45733 z m 16.48097,0.0334 c 0.67703,-0.27392 2.02703,-0.29059 3,-0.0371 0.97297,0.25354 0.41903,0.47766 -1.23097,0.49804 -1.65,0.0204 -2.44606,-0.18706 -1.76903,-0.46099 z m -42.48097,-9.0334 c 0.9625,-0.25152 2.5375,-0.25152 3.5,0 0.9625,0.25153 0.175,0.45733 -1.75,0.45733 -1.925,0 -2.7125,-0.2058 -1.75,-0.45733 z m 42,0 c 0.9625,-0.25152 2.5375,-0.25152 3.5,0 0.9625,0.25153 0.175,0.45733 -1.75,0.45733 -1.925,0 -2.7125,-0.2058 -1.75,-0.45733 z m 20.02083,-2.91484 c 0.33229,-0.33229 1.19479,-0.36781 1.91667,-0.0789 0.79773,0.31922 0.56078,0.55618 -0.60417,0.60416 -1.05416,0.0434 -1.64479,-0.19293 -1.3125,-0.52522 z m 4,0 c 0.33229,-0.33229 1.19479,-0.36781 1.91667,-0.0789 0.79773,0.31922 0.56078,0.55618 -0.60417,0.60416 -1.05416,0.0434 -1.64479,-0.19293 -1.3125,-0.52522 z m -62.03249,-7.08291 c 0.95609,-0.25029 2.75609,-0.25937 4,-0.0202 1.24391,0.23919 0.46166,0.44398 -1.73834,0.45508 -2.2,0.0111 -3.21775,-0.18461 -2.26166,-0.4349 z m 47,-3 c 0.95609,-0.25029 2.75609,-0.25937 4,-0.0202 1.24391,0.23919 0.46166,0.44398 -1.73834,0.45508 -2.2,0.0111 -3.21775,-0.18461 -2.26166,-0.4349 z m 19,-5 c 0.95609,-0.25029 2.75609,-0.25937 4,-0.0202 1.24391,0.23919 0.46166,0.44398 -1.73834,0.45508 -2.2,0.0111 -3.21775,-0.18461 -2.26166,-0.4349 z m -14.98834,-7.00225 c 0.9625,-0.25152 2.5375,-0.25152 3.5,0 0.9625,0.25153 0.175,0.45733 -1.75,0.45733 -1.925,0 -2.7125,-0.2058 -1.75,-0.45733 z m -0.25,-14.29479 c 0,-0.55873 1.35,-1.01588 3,-1.01588 1.65,0 3,0.35428 3,0.78729 0,0.43301 -1.35,0.89016 -3,1.01589 -1.65,0.12572 -3,-0.22856 -3,-0.7873 z m -32.83333,25.98412 c 0.50335,-1.51005 2.11144,-1.66567 2.58333,-0.25 0.22917,0.6875 -0.33333,1.25 -1.25,1.25 -0.91667,0 -1.51667,-0.45 -1.33333,-1 z m -4.16667,-7 c 0,-0.55 0.45,-1 1,-1 0.55,0 1,0.45 1,1 0,0.55 -0.45,1 -1,1 -0.55,0 -1,-0.45 -1,-1 z m -28.5,-1 c -0.33992,-0.55 0.0835,-1 0.94098,-1 0.85746,0 1.55902,0.45 1.55902,1 0,0.55 -0.42344,1 -0.94098,1 -0.51754,0 -1.2191,-0.45 -1.55902,-1 z m 42.04271,-2.9309 c -0.31644,-0.512 -0.11799,-1.21356 0.44098,-1.55902 0.55897,-0.34546 1.01631,0.0734 1.01631,0.9309 0,1.75653 -0.60006,2.01516 -1.45729,0.62812 z m -37.54271,-4.0691 c 0,-0.55 0.45,-1 1,-1 0.55,0 1,0.45 1,1 0,0.55 -0.45,1 -1,1 -0.55,0 -1,-0.45 -1,-1 z m 90.5,-6.50327 c 0,-5.25977 0.30151,-6.49788 1.58227,-6.49736 1.31167,5.2e-4 1.5021,0.96742 1.11348,5.65363 l -0.46879,5.65299 3.63652,-0.59012 c 2.00009,-0.32457 3.63652,-0.21657 3.63652,0.24001 0,1.18767 -2.65764,2.04454 -6.33179,2.04149 l -3.16821,-0.003 0,-6.49801 z m 11,5.66994 c -1.2315,-1.23151 -0.2839,-3.21602 2.14277,-4.48748 1.87261,-0.98116 2.27716,-1.61064 1.38819,-2.16005 -0.72087,-0.44553 -1.60928,-0.20143 -2.08839,0.57378 -0.4586,0.74204 -1.12835,1.05463 -1.48833,0.69465 -1.08307,-1.08307 0.52885,-2.78757 2.63616,-2.78757 2.07091,0 2.40661,0.57411 3.26473,5.58333 0.49087,2.86538 0.32026,3.08334 -2.41346,3.08334 -1.61792,0 -3.16667,-0.225 -3.44167,-0.5 z m 4,-2.16667 c 0.33992,-0.55 -0.0835,-1 -0.94098,-1 -0.85746,0 -1.55902,0.45 -1.55902,1 0,0.55 0.42344,1 0.94098,1 0.51754,0 1.2191,-0.45 1.55902,-1 z m 8.45306,0.81612 c -1.68344,-1.73442 -2.09331,-1.8766 -1.63194,-0.56612 0.36834,1.04624 0.12605,1.75025 -0.6025,1.75062 -0.84195,4.3e-4 -1.11151,-1.54506 -0.87211,-5 0.22976,-3.31571 -0.0428,-5.00062 -0.80901,-5.00062 -0.63555,0 -0.87742,-0.45 -0.5375,-1 1.37043,-2.21741 2.50176,-0.76516 2.5318,3.25 0.0281,3.74835 0.18861,4.04344 1.36025,2.5 0.73064,-0.9625 1.95383,-1.73632 2.71819,-1.71959 0.96423,0.0211 0.85392,0.3425 -0.36024,1.04969 -2.22512,1.29601 -2.22567,2.8516 -0.002,4.4779 0.96163,0.70316 1.45688,1.57002 1.10055,1.92635 -0.35633,0.35634 -1.6595,-0.39437 -2.89592,-1.66823 z m 5.24694,0.98388 c -2.03444,-2.03444 -1.43982,-4.79251 1.05,-4.87029 2.1469,-0.0671 2.15836,-0.10966 0.25,-0.92971 -1.7973,-0.77232 -1.73213,-0.86655 0.64301,-0.92971 1.47896,-0.0393 2.89652,0.59035 3.21862,1.42971 0.43198,1.12574 -0.16509,1.5 -2.39301,1.5 -1.63274,0 -2.96862,0.41968 -2.96862,0.93261 0,1.25993 3.67507,2.35225 5.24105,1.55778 0.69242,-0.35129 0.38544,0.0697 -0.68218,0.93545 -2.33064,1.89004 -2.80249,1.93054 -4.35887,0.37416 z m -99.2,-1.8 c 0,-0.55 0.675,-1 1.5,-1 0.825,0 1.5,0.45 1.5,1 0,0.55 -0.675,1 -1.5,1 -0.825,0 -1.5,-0.45 -1.5,-1 z m 19.5,-6 c -0.33992,-0.55 0.0835,-1 0.94098,-1 0.85746,0 1.55902,0.45 1.55902,1 0,0.55 -0.42344,1 -0.94098,1 -0.51754,0 -1.2191,-0.45 -1.55902,-1 z m -28.5,-1.44098 c 0,-0.85746 0.45,-1.55902 1,-1.55902 0.55,0 1,0.42344 1,0.94098 0,0.51754 -0.45,1.2191 -1,1.55902 -0.55,0.33992 -1,-0.0835 -1,-0.94098 z m 19.58295,-0.42481 c -0.43077,-0.697 -0.51316,-1.53733 -0.18309,-1.86741 0.89497,-0.89496 1.87077,0.4213 1.38739,1.87145 -0.33872,1.01617 -0.57427,1.01538 -1.2043,-0.004 z m -14.58295,-3.55088 c 0,-0.87083 0.7125,-1.58333 1.58333,-1.58333 1.76593,0 1.45839,2.15276 -0.39583,2.77083 -0.65313,0.21771 -1.1875,-0.31666 -1.1875,-1.1875 z m -6,-6.08333 c 0,-0.825 0.45,-1.5 1,-1.5 0.55,0 1,0.675 1,1.5 0,0.825 -0.45,1.5 -1,1.5 -0.55,0 -1,-0.675 -1,-1.5 z m 30,-2.5 c 0,-0.55 0.675,-1 1.5,-1 0.825,0 1.5,0.45 1.5,1 0,0.55 -0.675,1 -1.5,1 -0.825,0 -1.5,-0.45 -1.5,-1 z m -10,-1 c 0,-0.55 0.45,-1 1,-1 0.55,0 1,0.45 1,1 0,0.55 -0.45,1 -1,1 -0.55,0 -1,-0.45 -1,-1 z m 17.5,0 c 0.33992,-0.55 1.04148,-1 1.55902,-1 0.51754,0 0.94098,0.45 0.94098,1 0,0.55 -0.70156,1 -1.55902,1 -0.85746,0 -1.2809,-0.45 -0.94098,-1 z m 12.5,-2.5 c 0,-0.825 0.45,-1.5 1,-1.5 0.55,0 1,0.675 1,1.5 0,0.825 -0.45,1.5 -1,1.5 -0.55,0 -1,-0.675 -1,-1.5 z m -1,-8 c 0,-0.825 0.45,-1.5 1,-1.5 0.55,0 1,0.675 1,1.5 0,0.825 -0.45,1.5 -1,1.5 -0.55,0 -1,-0.675 -1,-1.5 z m 17.63948,0.80615 c -1.12618,-1.12619 -0.68589,-2.30615 0.86052,-2.30615 0.825,0 1.5,0.42344 1.5,0.94098 0,1.26098 -1.56159,2.1641 -2.36052,1.36517 z M 125.45072,281.46655 c 9.4581,-3.10493 14.56529,-4.02235 27.30972,-4.9057 13.65132,-0.94622 20.65647,-3.64759 29.63355,-11.42751 4.62028,-4.00413 6.84654,-6.41484 13.59241,-14.71855 1.46854,-1.80767 14.44476,-21.62103 19.58856,-29.90973 18.35596,-29.57869 39.0484,-44.07016 73.49647,-51.47153 30.15921,-6.47989 39.0838,-12.76257 49.992,-35.19306 3.16563,-6.50948 6.10053,-12.73541 6.52199,-13.83541 2.32224,-6.0609 7.44132,-18.13898 8.05283,-19 0.39061,-0.55 2.50807,-4.375002 4.70545,-8.500002 2.19739,-4.125 4.83506,-9.07466 5.86149,-10.999244 1.02643,-1.924585 2.09124,-3.724585 2.36624,-4 0.76171,-0.762866 2.76191,-4.139172 4.56447,-7.70476 0.89087,-1.762202 2.25331,-3.729802 3.02764,-4.372445 0.77434,-0.642642 1.40789,-1.78834 1.40789,-2.545996 0,-0.757655 0.40186,-1.377555 0.89301,-1.377555 0.49116,0 1.15203,-0.675 1.46862,-1.5 0.49912,-1.300693 -1.9331,-1.5 -18.30512,-1.5 l -18.88071,0 -0.58075,3.75 c -0.31942,2.0625 -0.82389,6.45 -1.12105,9.75 -0.29716,3.3 -0.75797,7.125 -1.02401,8.5 -0.26605,1.375 -0.69355,3.625 -0.94999,5 -4.08732,21.915302 -9.00191,29.796362 -25.61686,41.079352 -17.42466,11.83287 -30.28084,16.1649 -51.43165,17.33046 -14.78109,0.81455 -20.25287,3.25943 -30.24194,13.51259 -7.69634,7.89981 -17.56114,23.26703 -13.20955,20.5776 0.55,-0.33992 1,-0.0933 1,0.54797 0,0.6413 -0.67338,0.90761 -1.49639,0.59179 -1.8577,-0.71287 -4.31826,3.92771 -9.72318,18.33777 -8.39195,22.37377 -15.16229,31.23178 -33.33712,43.61678 -12.48072,8.50483 -35.09132,19.19716 -46.44331,21.96259 -24.1467,5.8823 -29.035801,7.81305 -31.969594,12.62507 -1.112613,1.82492 -2.024616,4.33053 -2.026672,5.56803 -0.0037,2.22103 0.167938,2.25 13.331106,2.25 10.72137,0 14.55185,-0.39952 19.54445,-2.03851 z M 240.52255,171.75506 c -0.66218,-2.0625 -1.85942,-4.50169 -2.66051,-5.42042 -1.29383,-1.48381 -1.21833,-1.7979 0.67588,-2.81165 1.17283,-0.62767 3.34766,-1.00099 4.83296,-0.82958 2.23362,0.25777 2.7073,0.8153 2.73961,3.22457 0.0378,2.82096 1.82187,4.33583 5.31935,4.51679 1.56965,0.0812 0.69715,-4.96832 -1.04446,-6.04469 -0.6777,-0.41885 -0.62806,-0.88187 0.14582,-1.36016 1.37671,-0.85085 1.29204,-0.93271 3.28533,3.17631 1.49321,3.07815 1.46205,3.26069 -0.81092,4.75 -2.90874,1.90588 -4.37322,1.90951 -6.87531,0.017 -3.42201,-2.58828 -5.06634,-1.11853 -2.08457,1.86324 1.29907,1.29907 1.28935,1.54528 -0.0818,2.07143 -2.22734,0.85471 -2.12444,0.94899 -3.44139,-3.15287 z m 4.04888,-5.88837 c 0,-1.48831 -2.68462,-3.01034 -3.63443,-2.06053 -0.3015,0.3015 -0.25906,1.45913 0.0943,2.57251 0.71391,2.24935 3.54011,1.84062 3.54011,-0.51198 z m 11.79976,-1.37212 c -2.11065,-2.19937 -2.38358,-2.93523 -1.25,-3.37023 0.82941,-0.31827 1.45024,0.0264 1.45024,0.80512 0,0.74889 0.7287,1.64125 1.61933,1.98302 1.29435,0.49668 1.52195,0.11198 1.13411,-1.91688 -0.26687,-1.39605 -0.0956,-2.77909 0.38067,-3.07342 0.47624,-0.29434 0.86589,1.5164 0.86589,4.02386 0,2.50746 -0.3375,4.51475 -0.75,4.46064 -0.4125,-0.0541 -1.96511,-1.36456 -3.45024,-2.91211 z m 7.40024,-0.18951 c -1.69325,-1.69325 -1.493,-6.47359 0.3,-7.16163 1.76828,-0.67855 4.5,0.20141 4.5,1.44957 0,0.48067 -1.09504,1.14879 -2.43343,1.48471 -1.55535,0.39037 -2.23842,1.11892 -1.89301,2.01905 0.74712,1.94695 3.01984,1.76407 4.24634,-0.3417 0.83906,-1.44057 1.02466,-1.47593 1.04969,-0.2 0.0351,1.78894 -1.86313,3.95 -3.46959,3.95 -0.605,0 -1.64,-0.54 -2.3,-1.2 z m 1.8,-5.85902 c 0,-0.58246 -0.45,-0.7809 -1,-0.44098 -0.55,0.33992 -1,0.81648 -1,1.05902 0,0.24254 0.45,0.44098 1,0.44098 0.55,0 1,-0.47656 1,-1.05902 z m 4.86381,0.50073 c -1.5436,-3.29549 -1.53317,-3.5483 0.18426,-4.46744 2.82591,-1.51238 4.77031,-1.15191 2.61123,0.48409 -1.86679,1.41453 -1.56287,5.54164 0.40809,5.54164 0.51293,0 0.93261,0.45 0.93261,1 0,2.29922 -2.61997,0.67873 -4.13619,-2.55829 z M 100.09062,268.65503 c 4.43511,-2.10852 12.46526,-4.5489 23.98081,-7.28784 21.3344,-5.07431 52.06666,-22.06592 64.81505,-35.83571 6.33263,-6.83999 10.76204,-15.30079 18.07534,-34.52642 5.9512,-15.64487 10.87478,-23.6594 21.12707,-34.39036 11.24637,-11.77145 16.23963,-13.84315 37.48254,-15.55156 15.45401,-1.24284 25.68,-4.17463 34.93147,-10.01482 2.21583,-1.39879 4.45023,-2.54326 4.96532,-2.54326 0.5151,0 1.08654,-0.3375 1.26988,-0.75 0.18333,-0.4125 2.58333,-2.28115 5.33333,-4.15256 7.09197,-4.82618 13.20791,-10.89842 16.00147,-15.88715 4.30896,-7.69493 9.03507,-28.388481 9.79166,-42.873357 l 0.32191,-6.163064 -3.55752,-0.479641 c -1.95664,-0.263802 -57.66781,-0.537512 -123.80261,-0.608243 l -120.245097,-0.128603 -8.5e-4,110.163168 -8.49e-4,110.16317 2.283975,-3.39186 c 1.31293,-1.94979 4.385574,-4.39099 7.227101,-5.74189 z"
     id="path4282"
     inkscape:connector-curvature="0" /></g></svg>