<?xml version="1.0" encoding="UTF-8" standalone="no"?>
<!-- Generator: Adobe Illustrator 16.0.0, SVG Export Plug-In . SVG Version: 6.00 Build 0)  -->

<svg
   xmlns:dc="http://purl.org/dc/elements/1.1/"
   xmlns:cc="http://creativecommons.org/ns#"
   xmlns:rdf="http://www.w3.org/1999/02/22-rdf-syntax-ns#"
   xmlns:svg="http://www.w3.org/2000/svg"
   xmlns="http://www.w3.org/2000/svg"
   xmlns:sodipodi="http://sodipodi.sourceforge.net/DTD/sodipodi-0.dtd"
   xmlns:inkscape="http://www.inkscape.org/namespaces/inkscape"
   version="1.0"
   id="Layer_1"
   x="0px"
   y="0px"
   viewBox="0 0 230.87106 212.21895"
   enable-background="new 0 0 437 54"
   xml:space="preserve"
   inkscape:version="0.48.4 r9939"
   width="100%"
   height="100%"
   sodipodi:docname="Qn21.svg"><metadata
   id="metadata3203"><rdf:RDF><cc:Work
       rdf:about=""><dc:format>image/svg+xml</dc:format><dc:type
         rdf:resource="http://purl.org/dc/dcmitype/StillImage" /><dc:title></dc:title></cc:Work></rdf:RDF></metadata><defs
   id="defs3201" /><sodipodi:namedview
   pagecolor="#ffffff"
   bordercolor="#666666"
   borderopacity="1"
   objecttolerance="10"
   gridtolerance="10"
   guidetolerance="10"
   inkscape:pageopacity="0"
   inkscape:pageshadow="2"
   inkscape:window-width="1280"
   inkscape:window-height="716"
   id="namedview3199"
   showgrid="false"
   inkscape:zoom="1.7803204"
   inkscape:cx="-39.859115"
   inkscape:cy="176.49623"
   inkscape:window-x="-8"
   inkscape:window-y="-8"
   inkscape:window-maximized="1"
   inkscape:current-layer="Layer_1"
   showborder="false"
   inkscape:showpageshadow="false"
   fit-margin-top="0"
   fit-margin-left="0"
   fit-margin-right="0"
   fit-margin-bottom="0" />
<g
   id="Intel_Skoool_Logo"
   transform="translate(-103.06447,79.109353)">
	<g
   id="g3097">
		<g
   id="g3099">
			<g
   id="g3101">
				<g
   id="g3103">
					<path
   d="M 38.236,43.095 C 25.511,44.276 12.238,42.43 10.381,32.489 9.472,27.559 11.706,22.373 14.675,19.144 V 17.415 C 9.329,22.082 6.431,28.021 8.103,35.025 10.235,43.988 21.619,49.088 39,47.39 45.889,46.725 54.882,44.506 61.15,41.077 v -4.871 c -5.692,3.369 -15.076,6.169 -22.914,6.889 z M 71.771,17.297 C 68.758,2.539 40.137,1.619 21.676,12.86 v 1.238 C 40.11,4.616 66.251,4.674 68.63,18.25 c 0.808,4.493 -1.73,9.192 -6.241,11.873 v 3.517 c 5.434,-1.99 11.009,-8.445 9.382,-16.343 z"
   id="path3105"
   inkscape:connector-curvature="0"
   style="fill:#ffffff" />
					<path
   d="m 60.114,15.165 h -3.346 v 14.843 c 0,1.758 0.851,3.258 3.346,3.516 V 15.165 z"
   id="path3107"
   inkscape:connector-curvature="0"
   style="fill:#ffffff" />
					<path
   d="m 20.365,20.584 h -3.343 v 9.713 c 0,1.73 0.852,3.258 3.343,3.487 v -13.2 z"
   id="path3109"
   inkscape:connector-curvature="0"
   style="fill:#ffffff" />
					<rect
   x="17.021999"
   y="15.597"
   width="3.3310001"
   height="3.1700001"
   id="rect3111"
   style="fill:#ffffff" />
					<path
   d="m 40.354,33.64 c -2.694,0 -3.833,-1.874 -3.833,-3.718 V 17.009 h 3.3 v 3.575 h 2.494 v 2.681 h -2.494 v 6.456 c 0,0.748 0.346,1.151 1.138,1.151 h 1.356 v 2.768 h -1.961"
   id="path3113"
   inkscape:connector-curvature="0"
   style="fill:#ffffff" />
					<path
   d="m 46.45,28.136 c 0,1.7 1.066,2.941 2.926,2.941 1.469,0 2.192,-0.406 3.039,-1.241 l 2.049,1.959 c -1.312,1.268 -2.683,2.076 -5.118,2.076 -3.156,0 -6.196,-1.729 -6.196,-6.773 0,-4.295 2.666,-6.745 6.141,-6.745 3.531,0 5.563,2.852 5.563,6.6 v 1.183 H 46.45 m 2.679,-5.046 c -1.122,0 -2.001,0.579 -2.362,1.384 -0.215,0.463 -0.301,0.835 -0.316,1.412 h 5.101 C 51.48,24.474 50.845,23.09 49.129,23.09 z"
   id="path3115"
   inkscape:connector-curvature="0"
   style="fill:#ffffff" />
					<path
   d="m 29.359,23.265 c 0.966,0 1.367,0.459 1.367,1.239 v 9.165 h 3.315 v -9.195 c 0,-1.844 -0.993,-3.89 -3.904,-3.89 h -6.832 v 13.085 h 3.314 V 23.265 h 2.74 z"
   id="path3117"
   inkscape:connector-curvature="0"
   style="fill:#ffffff" />
				</g>
			</g>
			<g
   id="g3119">
				<path
   d="m 64.003,19.056 c -1.08,0 -1.944,-0.866 -1.944,-1.961 0,-1.066 0.864,-1.93 1.944,-1.93 1.082,0 1.96,0.864 1.96,1.93 0,1.095 -0.879,1.961 -1.96,1.961 z m 0,-3.574 c -0.894,0 -1.614,0.719 -1.614,1.612 0,0.925 0.72,1.645 1.614,1.645 0.894,0 1.643,-0.719 1.643,-1.645 0,-0.892 -0.75,-1.612 -1.643,-1.612 z m 0.865,2.794 h -0.36 c -0.043,0 -0.057,0 -0.073,-0.058 l -0.504,-0.834 c -0.014,0 -0.058,-0.028 -0.07,-0.028 0,0 -0.074,0 -0.144,0 -0.03,0 -0.06,0 -0.073,0 v 0.834 c 0,0.028 -0.028,0.085 -0.086,0.085 h -0.332 c -0.043,0 -0.086,-0.058 -0.086,-0.085 v -2.104 c 0,-0.144 0.043,-0.174 0.159,-0.201 0.114,-0.028 0.418,-0.028 0.59,-0.028 0.62,0 0.98,0.171 0.98,0.748 v 0.03 c 0,0.374 -0.187,0.547 -0.445,0.633 l 0.517,0.893 c 0,0 0.014,0.029 0.014,0.057 -0.001,0.032 -0.016,0.058 -0.087,0.058 z m -0.475,-1.671 c 0,-0.23 -0.144,-0.316 -0.462,-0.316 -0.042,0 -0.145,0 -0.214,0 -0.043,0 -0.073,0 -0.101,0 v 0.69 c 0.057,0 0.272,0 0.315,0 0.319,0 0.462,-0.115 0.462,-0.344 v -0.03 z"
   id="path3121"
   inkscape:connector-curvature="0"
   style="fill:#ffffff" />
			</g>
		</g>
		<path
   d="m 148.08,16.8 v 2.097 h -0.41 V 16.8 h -0.753 v -0.325 h 1.92 V 16.8 h -0.757 z m 3.509,2.097 v -2.015 h -0.017 l -0.791,2.015 h -0.252 l -0.796,-2.015 h -0.011 v 2.015 h -0.396 v -2.422 h 0.617 l 0.722,1.841 0.712,-1.841 h 0.611 v 2.422 h -0.399 z"
   id="path3123"
   inkscape:connector-curvature="0"
   style="fill:#ffffff" />
		<g
   id="g3125">
			<path
   d="m 84.086,31.344 c 0.709,0 1.178,-0.1 1.414,-0.275 0.236,-0.186 0.352,-0.43 0.352,-0.746 0,-0.267 -0.076,-0.488 -0.228,-0.663 -0.151,-0.181 -0.418,-0.385 -0.802,-0.618 l -3.167,-1.949 c -0.601,-0.369 -1.069,-0.826 -1.43,-1.38 -0.351,-0.551 -0.523,-1.153 -0.523,-1.809 0,-2.317 1.471,-3.477 4.407,-3.477 1.522,0 2.874,0.254 4.053,0.759 0.173,0.069 0.299,0.145 0.373,0.23 0.074,0.088 0.113,0.211 0.113,0.37 v 1.415 c 0,0.34 -0.163,0.463 -0.486,0.374 -1.353,-0.432 -2.595,-0.645 -3.724,-0.645 -0.591,0 -1.016,0.063 -1.282,0.191 -0.266,0.129 -0.395,0.352 -0.395,0.668 0,0.176 0.036,0.314 0.104,0.427 0.074,0.109 0.174,0.207 0.291,0.299 0.12,0.091 0.299,0.202 0.535,0.34 l 3.035,1.856 c 0.878,0.535 1.473,1.072 1.775,1.613 0.302,0.536 0.451,1.121 0.451,1.75 0,0.729 -0.166,1.383 -0.507,1.961 -0.339,0.566 -0.857,1.018 -1.549,1.335 -0.688,0.315 -1.514,0.471 -2.482,0.471 -1.534,0 -2.895,-0.251 -4.083,-0.753 -0.2,-0.104 -0.329,-0.194 -0.391,-0.282 -0.073,-0.083 -0.106,-0.198 -0.106,-0.323 v -1.412 c 0,-0.34 0.168,-0.468 0.497,-0.373 1.364,0.425 2.615,0.646 3.755,0.646 z"
   id="path3127"
   inkscape:connector-curvature="0"
   style="fill:#ffffff" />
			<path
   d="m 101.676,33.38 c 0,0.075 -0.032,0.146 -0.091,0.2 -0.058,0.047 -0.134,0.073 -0.225,0.073 h -2.829 c -0.113,0 -0.235,-0.044 -0.362,-0.144 -0.13,-0.092 -0.23,-0.207 -0.307,-0.315 l -3.644,-5.286 v 5.262 c 0,0.133 -0.045,0.258 -0.132,0.346 -0.087,0.098 -0.198,0.138 -0.336,0.138 h -2.125 c -0.135,0 -0.247,-0.046 -0.334,-0.149 -0.086,-0.096 -0.127,-0.217 -0.127,-0.334 V 16.475 c 0,-0.111 0.043,-0.218 0.132,-0.317 0.091,-0.097 0.203,-0.146 0.33,-0.146 h 2.125 c 0.13,0 0.238,0.046 0.331,0.135 0.091,0.091 0.137,0.201 0.137,0.329 v 9.666 l 3.96,-5.272 c 0.151,-0.188 0.331,-0.284 0.534,-0.284 h 2.602 c 0.227,0 0.337,0.083 0.337,0.249 0,0.077 -0.028,0.155 -0.088,0.238 l -4.652,5.725 4.696,6.398 c 0.043,0.068 0.068,0.13 0.068,0.184 z"
   id="path3129"
   inkscape:connector-curvature="0"
   style="fill:#ffffff" />
			<path
   d="m 113.632,28.067 c 0,1.1 -0.216,2.095 -0.641,2.979 -0.425,0.877 -1.053,1.561 -1.883,2.061 -0.83,0.488 -1.838,0.731 -3.023,0.731 -1.168,0 -2.173,-0.243 -3.012,-0.731 -0.837,-0.5 -1.468,-1.184 -1.889,-2.061 -0.423,-0.885 -0.634,-1.88 -0.634,-2.979 v -1.869 c 0,-1.102 0.211,-2.095 0.634,-2.976 0.421,-0.883 1.052,-1.57 1.889,-2.06 0.839,-0.491 1.844,-0.737 3.012,-0.737 1.185,0 2.193,0.246 3.023,0.737 0.831,0.49 1.458,1.177 1.883,2.06 0.425,0.88 0.641,1.874 0.641,2.976 v 1.869 z m -3.058,0 v -1.869 c 0,-0.964 -0.211,-1.73 -0.64,-2.29 -0.426,-0.563 -1.043,-0.846 -1.85,-0.846 -0.801,0 -1.416,0.282 -1.838,0.846 -0.429,0.56 -0.641,1.326 -0.641,2.29 v 1.869 c 0,0.968 0.214,1.731 0.646,2.294 0.426,0.558 1.039,0.841 1.833,0.841 0.8,0 1.413,-0.283 1.844,-0.841 0.433,-0.562 0.646,-1.326 0.646,-2.294 z"
   id="path3131"
   inkscape:connector-curvature="0"
   style="fill:#ffffff" />
			<path
   d="m 126.617,28.067 c 0,1.1 -0.215,2.095 -0.643,2.979 -0.425,0.877 -1.055,1.561 -1.881,2.061 -0.833,0.488 -1.839,0.731 -3.027,0.731 -1.167,0 -2.172,-0.243 -3.009,-0.731 -0.838,-0.5 -1.468,-1.184 -1.889,-2.061 -0.423,-0.885 -0.635,-1.88 -0.635,-2.979 v -1.869 c 0,-1.102 0.211,-2.095 0.635,-2.976 0.421,-0.883 1.051,-1.57 1.889,-2.06 0.837,-0.491 1.842,-0.737 3.009,-0.737 1.188,0 2.193,0.246 3.027,0.737 0.827,0.49 1.456,1.177 1.881,2.06 0.428,0.88 0.643,1.874 0.643,2.976 v 1.869 z m -3.058,0 v -1.869 c 0,-0.964 -0.213,-1.73 -0.64,-2.29 -0.428,-0.563 -1.044,-0.846 -1.853,-0.846 -0.797,0 -1.41,0.282 -1.838,0.846 -0.427,0.56 -0.64,1.326 -0.64,2.29 v 1.869 c 0,0.968 0.218,1.731 0.647,2.294 0.43,0.558 1.042,0.841 1.832,0.841 0.803,0 1.417,-0.283 1.848,-0.841 0.428,-0.562 0.644,-1.326 0.644,-2.294 z"
   id="path3133"
   inkscape:connector-curvature="0"
   style="fill:#ffffff" />
			<path
   d="m 139.599,28.067 c 0,1.1 -0.213,2.095 -0.64,2.979 -0.424,0.877 -1.054,1.561 -1.884,2.061 -0.83,0.488 -1.838,0.731 -3.024,0.731 -1.167,0 -2.172,-0.243 -3.009,-0.731 -0.839,-0.5 -1.469,-1.184 -1.892,-2.061 -0.422,-0.885 -0.634,-1.88 -0.634,-2.979 v -1.869 c 0,-1.102 0.212,-2.095 0.634,-2.976 0.423,-0.883 1.053,-1.57 1.892,-2.06 0.837,-0.491 1.842,-0.737 3.009,-0.737 1.186,0 2.194,0.246 3.024,0.737 0.83,0.49 1.46,1.177 1.884,2.06 0.426,0.88 0.64,1.874 0.64,2.976 v 1.869 z m -3.056,0 v -1.869 c 0,-0.964 -0.211,-1.73 -0.638,-2.29 -0.428,-0.563 -1.044,-0.846 -1.854,-0.846 -0.798,0 -1.411,0.282 -1.838,0.846 -0.429,0.56 -0.642,1.326 -0.642,2.29 v 1.869 c 0,0.968 0.216,1.731 0.649,2.294 0.428,0.558 1.039,0.841 1.831,0.841 0.801,0 1.416,-0.283 1.846,-0.841 0.432,-0.562 0.646,-1.326 0.646,-2.294 z"
   id="path3135"
   inkscape:connector-curvature="0"
   style="fill:#ffffff" />
			<path
   d="m 144.999,33.17 c 0,0.124 -0.039,0.248 -0.123,0.34 -0.083,0.1 -0.188,0.144 -0.318,0.144 h -2.151 c -0.135,0 -0.244,-0.046 -0.333,-0.149 -0.086,-0.096 -0.13,-0.217 -0.13,-0.334 V 16.475 c 0,-0.111 0.045,-0.218 0.135,-0.317 0.093,-0.097 0.202,-0.146 0.329,-0.146 h 2.151 c 0.12,0 0.223,0.048 0.313,0.141 0.085,0.096 0.128,0.205 0.128,0.323 V 33.17 z"
   id="path3137"
   inkscape:connector-curvature="0"
   style="fill:#ffffff" />
		</g>
	</g>
	<g
   id="g3139">
		<g
   id="g3141">
			<path
   d="m 171.54,32.131 c 0,0.342 -0.17,0.51 -0.51,0.51 h -6.269 c -0.342,0 -0.513,-0.168 -0.513,-0.51 V 18.784 c 0,-0.341 0.171,-0.511 0.513,-0.511 h 1.238 c 0.34,0 0.51,0.17 0.51,0.511 v 11.812 h 4.521 c 0.34,0 0.51,0.17 0.51,0.51 v 1.025 z"
   id="path3143"
   inkscape:connector-curvature="0"
   style="fill:#ffffff" />
			<path
   d="m 180.389,27.523 c 0,0.342 -0.164,0.513 -0.489,0.513 h -5.16 c 0.041,0.954 0.233,1.641 0.575,2.069 0.382,0.499 1.015,0.746 1.897,0.746 0.538,0 1.215,-0.129 2.025,-0.385 0.056,-0.014 0.114,-0.021 0.17,-0.021 0.185,0 0.319,0.113 0.407,0.341 l 0.297,0.854 c 0.102,0.269 0,0.469 -0.297,0.598 -0.81,0.354 -1.758,0.531 -2.837,0.531 -1.451,0 -2.568,-0.451 -3.349,-1.354 -0.781,-0.901 -1.17,-2.228 -1.17,-3.975 0,-1.58 0.361,-2.847 1.087,-3.807 0.726,-0.96 1.697,-1.439 2.919,-1.439 2.617,0 3.925,1.778 3.925,5.329 z m -2.217,-1.043 c -0.058,-1.706 -0.612,-2.56 -1.663,-2.56 -1.024,0 -1.614,0.854 -1.77,2.56 h 3.433 z"
   id="path3145"
   inkscape:connector-curvature="0"
   style="fill:#ffffff" />
			<path
   d="m 189.793,32.15 c 0.069,0.329 -0.075,0.49 -0.428,0.49 h -1.11 c -0.298,0 -0.474,-0.161 -0.531,-0.49 l -0.129,-0.788 c -0.611,0.937 -1.578,1.407 -2.901,1.407 -0.88,0 -1.563,-0.277 -2.045,-0.832 -0.484,-0.554 -0.726,-1.327 -0.726,-2.323 0,-2.047 1.108,-3.147 3.326,-3.306 l 2.131,-0.148 c 0,-0.299 -0.014,-0.455 -0.042,-0.47 -0.028,-0.583 -0.156,-0.993 -0.382,-1.236 -0.225,-0.241 -0.659,-0.362 -1.295,-0.362 -0.551,0 -1.239,0.121 -2.057,0.362 -0.34,0.1 -0.544,-0.008 -0.616,-0.319 l -0.213,-0.94 c -0.069,-0.299 0.036,-0.489 0.321,-0.575 0.966,-0.284 1.862,-0.426 2.685,-0.426 1.578,0 2.653,0.447 3.22,1.343 0.372,0.583 0.555,1.479 0.555,2.687 v 3.584 c 0,0.779 0.035,1.348 0.107,1.704 l 0.13,0.638 z m -2.412,-2.962 v -1.492 l -1.214,0.044 c -1.351,0.041 -2.026,0.667 -2.026,1.875 0,0.909 0.396,1.364 1.194,1.364 0.567,0 1.059,-0.206 1.472,-0.617 0.384,-0.372 0.574,-0.761 0.574,-1.174 z"
   id="path3147"
   inkscape:connector-curvature="0"
   style="fill:#ffffff" />
			<path
   d="m 198.147,23.068 -0.319,1.195 c -0.084,0.325 -0.295,0.46 -0.635,0.404 -0.127,-0.015 -0.335,-0.08 -0.625,-0.192 -0.291,-0.113 -0.512,-0.171 -0.667,-0.171 -0.381,0 -0.692,0.221 -0.932,0.661 -0.284,0.499 -0.424,1.224 -0.424,2.177 v 5.008 c 0,0.329 -0.172,0.49 -0.518,0.49 h -1.183 c -0.345,0 -0.519,-0.161 -0.519,-0.49 v -9.338 c 0,-0.325 0.174,-0.489 0.513,-0.489 h 0.788 c 0.314,0 0.508,0.142 0.576,0.425 l 0.237,0.918 c 0.625,-0.98 1.419,-1.472 2.387,-1.472 1.038,0 1.478,0.293 1.321,0.874 z"
   id="path3149"
   inkscape:connector-curvature="0"
   style="fill:#ffffff" />
			<path
   d="m 207.081,32.15 c 0,0.329 -0.174,0.49 -0.519,0.49 h -1.203 c -0.331,0 -0.498,-0.161 -0.498,-0.49 v -6.843 c 0,-0.837 -0.365,-1.258 -1.092,-1.258 -0.576,0 -1.059,0.227 -1.451,0.683 -0.393,0.454 -0.59,1.023 -0.59,1.706 v 5.713 c 0,0.329 -0.165,0.49 -0.497,0.49 h -1.202 c -0.344,0 -0.518,-0.161 -0.518,-0.49 v -9.338 c 0,-0.325 0.168,-0.489 0.51,-0.489 h 0.833 c 0.297,0 0.474,0.136 0.533,0.405 l 0.192,0.875 c 0.839,-0.939 1.795,-1.408 2.876,-1.408 0.797,0 1.432,0.245 1.908,0.737 0.476,0.489 0.715,1.132 0.715,1.928 v 7.289 z"
   id="path3151"
   inkscape:connector-curvature="0"
   style="fill:#ffffff" />
			<path
   d="m 212.56,18.825 c 0,0.398 -0.138,0.736 -0.405,1.013 -0.27,0.277 -0.606,0.417 -1.001,0.417 -0.4,0 -0.729,-0.139 -0.993,-0.417 -0.263,-0.277 -0.394,-0.615 -0.394,-1.013 0,-0.397 0.13,-0.735 0.394,-1.01 0.264,-0.278 0.593,-0.417 0.993,-0.417 0.395,0 0.731,0.139 1.001,0.417 0.267,0.275 0.405,0.613 0.405,1.01 z m -0.254,13.325 c 0,0.329 -0.174,0.49 -0.517,0.49 h -1.185 c -0.346,0 -0.517,-0.161 -0.517,-0.49 v -9.338 c 0,-0.325 0.171,-0.489 0.517,-0.489 h 1.185 c 0.343,0 0.517,0.164 0.517,0.489 v 9.338 z"
   id="path3153"
   inkscape:connector-curvature="0"
   style="fill:#ffffff" />
			<path
   d="m 222.859,32.15 c 0,0.329 -0.174,0.49 -0.518,0.49 h -1.207 c -0.331,0 -0.494,-0.161 -0.494,-0.49 v -6.843 c 0,-0.837 -0.365,-1.258 -1.094,-1.258 -0.575,0 -1.061,0.227 -1.454,0.683 -0.391,0.454 -0.586,1.023 -0.586,1.706 v 5.713 c 0,0.329 -0.166,0.49 -0.496,0.49 h -1.205 c -0.344,0 -0.517,-0.161 -0.517,-0.49 v -9.338 c 0,-0.325 0.172,-0.489 0.513,-0.489 h 0.829 c 0.301,0 0.479,0.136 0.534,0.405 l 0.191,0.875 c 0.84,-0.939 1.798,-1.408 2.88,-1.408 0.794,0 1.43,0.245 1.908,0.737 0.475,0.489 0.715,1.132 0.715,1.928 v 7.289 z"
   id="path3155"
   inkscape:connector-curvature="0"
   style="fill:#ffffff" />
			<path
   d="m 233.561,33.558 c 0,1.165 -0.477,2.054 -1.43,2.665 -0.781,0.498 -1.748,0.747 -2.898,0.747 -1.222,0 -2.203,-0.212 -2.941,-0.64 -0.91,-0.527 -1.373,-1.33 -1.388,-2.41 0,-0.143 0.052,-0.262 0.149,-0.362 0.098,-0.099 0.221,-0.149 0.363,-0.149 l 1.193,0.044 c 0.271,0.014 0.435,0.17 0.49,0.468 0.142,0.84 0.875,1.259 2.196,1.259 0.669,0 1.204,-0.127 1.609,-0.384 0.406,-0.256 0.608,-0.598 0.608,-1.023 0,-0.825 -0.505,-1.236 -1.514,-1.236 h -2.111 c -1.605,0 -2.409,-0.582 -2.409,-1.749 0,-0.569 0.306,-1.143 0.917,-1.726 -0.994,-0.699 -1.493,-1.72 -1.493,-3.071 0,-1.18 0.356,-2.103 1.068,-2.771 0.71,-0.668 1.662,-1.003 2.854,-1.003 0.158,0 0.377,0.02 0.662,0.053 0.284,0.037 0.496,0.055 0.641,0.055 h 2.471 c 0.355,0 0.534,0.17 0.534,0.512 v 0.596 c 0,0.313 -0.137,0.482 -0.404,0.51 l -0.663,0.086 c 0.469,0.695 0.706,1.35 0.706,1.961 0,1.167 -0.356,2.085 -1.058,2.761 -0.702,0.678 -1.66,1.015 -2.867,1.015 -0.428,0 -0.771,-0.036 -1.043,-0.106 -0.199,0.195 -0.299,0.389 -0.299,0.574 0,0.355 0.318,0.533 0.957,0.533 h 1.834 c 1.01,0 1.807,0.24 2.389,0.723 0.584,0.484 0.877,1.172 0.877,2.068 z m -2.965,-7.61 c 0,-1.394 -0.583,-2.092 -1.748,-2.092 -0.553,0 -0.959,0.122 -1.214,0.364 -0.343,0.327 -0.513,0.903 -0.513,1.728 0,0.851 0.17,1.44 0.513,1.769 0.255,0.256 0.661,0.385 1.214,0.385 1.165,0 1.748,-0.719 1.748,-2.154 z"
   id="path3157"
   inkscape:connector-curvature="0"
   style="fill:#ffffff" />
			<path
   d="m 246.607,32.15 c 0.071,0.329 -0.071,0.49 -0.428,0.49 h -1.107 c -0.297,0 -0.475,-0.161 -0.533,-0.49 l -0.129,-0.788 c -0.609,0.937 -1.574,1.407 -2.898,1.407 -0.881,0 -1.564,-0.277 -2.045,-0.832 -0.484,-0.554 -0.727,-1.327 -0.727,-2.323 0,-2.047 1.108,-3.147 3.327,-3.306 l 2.132,-0.148 c 0,-0.299 -0.014,-0.455 -0.044,-0.47 -0.028,-0.583 -0.153,-0.993 -0.382,-1.236 -0.228,-0.241 -0.657,-0.362 -1.293,-0.362 -0.552,0 -1.238,0.121 -2.061,0.362 -0.338,0.1 -0.545,-0.008 -0.615,-0.319 l -0.211,-0.94 c -0.072,-0.299 0.035,-0.489 0.319,-0.575 0.968,-0.284 1.863,-0.426 2.687,-0.426 1.579,0 2.651,0.447 3.22,1.343 0.366,0.583 0.554,1.479 0.554,2.687 v 3.584 c 0,0.779 0.036,1.348 0.105,1.704 l 0.129,0.638 z m -2.408,-2.962 v -1.492 l -1.215,0.044 c -1.352,0.041 -2.027,0.667 -2.027,1.875 0,0.909 0.397,1.364 1.194,1.364 0.568,0 1.06,-0.206 1.472,-0.617 0.384,-0.372 0.576,-0.761 0.576,-1.174 z"
   id="path3159"
   inkscape:connector-curvature="0"
   style="fill:#ffffff" />
			<path
   d="m 256.712,32.15 c 0,0.329 -0.172,0.49 -0.517,0.49 h -1.205 c -0.328,0 -0.496,-0.161 -0.496,-0.49 v -6.843 c 0,-0.837 -0.364,-1.258 -1.093,-1.258 -0.575,0 -1.06,0.227 -1.451,0.683 -0.394,0.454 -0.59,1.023 -0.59,1.706 v 5.713 c 0,0.329 -0.165,0.49 -0.495,0.49 h -1.205 c -0.343,0 -0.517,-0.161 -0.517,-0.49 v -9.338 c 0,-0.325 0.17,-0.489 0.513,-0.489 h 0.83 c 0.299,0 0.476,0.136 0.533,0.405 l 0.191,0.875 c 0.84,-0.939 1.799,-1.408 2.879,-1.408 0.798,0 1.433,0.245 1.908,0.737 0.477,0.489 0.714,1.132 0.714,1.928 v 7.289 z"
   id="path3161"
   inkscape:connector-curvature="0"
   style="fill:#ffffff" />
			<path
   d="m 266.883,32.15 c 0,0.329 -0.17,0.49 -0.513,0.49 h -0.745 c -0.356,0 -0.568,-0.161 -0.641,-0.49 l -0.17,-0.852 c -0.525,0.98 -1.344,1.471 -2.45,1.471 -2.29,0 -3.435,-1.775 -3.435,-5.329 0,-1.906 0.385,-3.305 1.151,-4.201 0.599,-0.697 1.35,-1.045 2.26,-1.045 1.022,0 1.813,0.435 2.366,1.3 v -5.479 c 0,-0.327 0.164,-0.49 0.49,-0.49 h 1.173 c 0.343,0 0.513,0.163 0.513,0.49 V 32.15 z m -2.111,-4.627 c 0,-2.315 -0.583,-3.474 -1.748,-3.474 -0.583,0 -1.018,0.242 -1.302,0.726 -0.313,0.539 -0.467,1.45 -0.467,2.729 0,1.221 0.142,2.086 0.424,2.591 0.286,0.502 0.734,0.757 1.345,0.757 1.165,0 1.748,-1.11 1.748,-3.329 z"
   id="path3163"
   inkscape:connector-curvature="0"
   style="fill:#ffffff" />
			<path
   d="m 282.105,19.829 c 0,0.325 -0.164,0.49 -0.49,0.49 h -3.027 v 11.812 c 0,0.342 -0.171,0.51 -0.514,0.51 h -1.235 c -0.341,0 -0.511,-0.168 -0.511,-0.51 V 20.319 h -3.029 c -0.354,0 -0.531,-0.165 -0.531,-0.49 v -1.045 c 0,-0.341 0.177,-0.511 0.531,-0.511 h 8.316 c 0.326,0 0.49,0.17 0.49,0.511 v 1.045 z"
   id="path3165"
   inkscape:connector-curvature="0"
   style="fill:#ffffff" />
			<path
   d="m 290.803,27.523 c 0,0.342 -0.164,0.513 -0.49,0.513 h -5.16 c 0.045,0.954 0.236,1.641 0.576,2.069 0.385,0.499 1.016,0.746 1.898,0.746 0.541,0 1.215,-0.129 2.025,-0.385 0.057,-0.014 0.114,-0.021 0.171,-0.021 0.183,0 0.319,0.113 0.404,0.341 l 0.299,0.854 c 0.099,0.269 0,0.469 -0.299,0.598 -0.81,0.354 -1.755,0.531 -2.837,0.531 -1.447,0 -2.564,-0.451 -3.346,-1.354 -0.781,-0.901 -1.172,-2.228 -1.172,-3.975 0,-1.58 0.362,-2.847 1.086,-3.807 0.726,-0.959 1.7,-1.439 2.923,-1.439 2.613,0 3.922,1.778 3.922,5.329 z m -2.216,-1.043 c -0.058,-1.706 -0.613,-2.56 -1.665,-2.56 -1.021,0 -1.614,0.854 -1.77,2.56 h 3.435 z"
   id="path3167"
   inkscape:connector-curvature="0"
   style="fill:#ffffff" />
			<path
   d="m 300.206,32.15 c 0.068,0.329 -0.073,0.49 -0.428,0.49 h -1.108 c -0.299,0 -0.477,-0.161 -0.533,-0.49 l -0.128,-0.788 c -0.61,0.937 -1.577,1.407 -2.899,1.407 -0.883,0 -1.563,-0.277 -2.045,-0.832 -0.486,-0.554 -0.726,-1.327 -0.726,-2.323 0,-2.047 1.105,-3.147 3.323,-3.306 l 2.134,-0.148 c 0,-0.299 -0.015,-0.455 -0.045,-0.47 -0.026,-0.583 -0.153,-0.993 -0.381,-1.236 -0.226,-0.241 -0.658,-0.362 -1.294,-0.362 -0.551,0 -1.237,0.121 -2.059,0.362 -0.34,0.1 -0.545,-0.008 -0.615,-0.319 l -0.213,-0.94 c -0.07,-0.299 0.038,-0.489 0.322,-0.575 0.965,-0.284 1.859,-0.426 2.686,-0.426 1.577,0 2.65,0.447 3.219,1.343 0.369,0.583 0.553,1.479 0.553,2.687 v 3.584 c 0,0.779 0.037,1.348 0.107,1.704 l 0.13,0.638 z m -2.41,-2.962 v -1.492 l -1.216,0.044 c -1.352,0.041 -2.025,0.667 -2.025,1.875 0,0.909 0.396,1.364 1.195,1.364 0.567,0 1.059,-0.206 1.471,-0.617 0.382,-0.372 0.575,-0.761 0.575,-1.174 z"
   id="path3169"
   inkscape:connector-curvature="0"
   style="fill:#ffffff" />
			<path
   d="m 308.796,31.874 c 0.057,0.3 -0.056,0.498 -0.342,0.599 -0.583,0.196 -1.278,0.297 -2.089,0.297 -1.352,0 -2.402,-0.447 -3.155,-1.344 -0.796,-0.938 -1.192,-2.286 -1.192,-4.05 0,-1.507 0.398,-2.747 1.204,-3.719 0.804,-0.975 1.878,-1.462 3.229,-1.462 0.44,0 0.895,0.065 1.363,0.192 0.683,0.172 0.969,0.426 0.854,0.768 l -0.299,0.895 c -0.071,0.227 -0.198,0.343 -0.386,0.343 -0.142,0 -0.371,-0.052 -0.69,-0.149 -0.32,-0.103 -0.581,-0.15 -0.779,-0.15 -0.683,0 -1.22,0.284 -1.609,0.856 -0.392,0.568 -0.587,1.383 -0.587,2.436 0,2.282 0.773,3.424 2.325,3.424 0.452,0 0.923,-0.072 1.405,-0.213 0.329,-0.086 0.52,0.028 0.577,0.34 l 0.171,0.937 z"
   id="path3171"
   inkscape:connector-curvature="0"
   style="fill:#ffffff" />
			<path
   d="m 318.369,32.15 c 0,0.329 -0.173,0.49 -0.512,0.49 h -1.172 c -0.329,0 -0.492,-0.161 -0.492,-0.49 v -6.843 c 0,-0.837 -0.384,-1.258 -1.15,-1.258 -0.584,0 -1.074,0.227 -1.473,0.683 -0.398,0.454 -0.596,1.023 -0.596,1.706 v 5.713 c 0,0.329 -0.173,0.49 -0.513,0.49 h -1.151 c -0.338,0 -0.512,-0.161 -0.512,-0.49 V 18.015 c 0,-0.327 0.174,-0.49 0.512,-0.49 h 1.151 c 0.34,0 0.513,0.163 0.513,0.49 v 5.479 c 0.781,-0.866 1.707,-1.3 2.772,-1.3 0.796,0 1.431,0.245 1.908,0.737 0.474,0.489 0.714,1.132 0.714,1.928 v 7.291 z"
   id="path3173"
   inkscape:connector-curvature="0"
   style="fill:#ffffff" />
			<path
   d="m 323.849,18.825 c 0,0.398 -0.135,0.736 -0.405,1.013 -0.27,0.277 -0.604,0.417 -1.002,0.417 -0.396,0 -0.729,-0.139 -0.991,-0.417 -0.262,-0.278 -0.394,-0.615 -0.394,-1.013 0,-0.397 0.131,-0.735 0.394,-1.01 0.263,-0.278 0.595,-0.417 0.991,-0.417 0.398,0 0.732,0.139 1.002,0.417 0.27,0.275 0.405,0.613 0.405,1.01 z m -0.256,13.325 c 0,0.329 -0.172,0.49 -0.516,0.49 h -1.187 c -0.344,0 -0.516,-0.161 -0.516,-0.49 v -9.338 c 0,-0.325 0.172,-0.489 0.516,-0.489 h 1.187 c 0.344,0 0.516,0.164 0.516,0.489 v 9.338 z"
   id="path3175"
   inkscape:connector-curvature="0"
   style="fill:#ffffff" />
			<path
   d="m 334.145,32.15 c 0,0.329 -0.17,0.49 -0.516,0.49 h -1.207 c -0.329,0 -0.494,-0.161 -0.494,-0.49 v -6.843 c 0,-0.837 -0.363,-1.258 -1.093,-1.258 -0.576,0 -1.061,0.227 -1.452,0.683 -0.393,0.454 -0.588,1.023 -0.588,1.706 v 5.713 c 0,0.329 -0.168,0.49 -0.495,0.49 h -1.207 c -0.343,0 -0.517,-0.161 -0.517,-0.49 v -9.338 c 0,-0.325 0.172,-0.489 0.511,-0.489 h 0.833 c 0.299,0 0.476,0.136 0.533,0.405 l 0.193,0.875 c 0.838,-0.939 1.797,-1.408 2.877,-1.408 0.795,0 1.432,0.245 1.905,0.737 0.479,0.489 0.716,1.132 0.716,1.928 v 7.289 z"
   id="path3177"
   inkscape:connector-curvature="0"
   style="fill:#ffffff" />
			<path
   d="m 344.85,33.558 c 0,1.165 -0.478,2.054 -1.43,2.665 -0.781,0.498 -1.748,0.747 -2.9,0.747 -1.224,0 -2.203,-0.212 -2.941,-0.64 -0.91,-0.527 -1.371,-1.33 -1.385,-2.41 0,-0.143 0.049,-0.262 0.148,-0.362 0.1,-0.099 0.22,-0.149 0.363,-0.149 l 1.193,0.044 c 0.27,0.014 0.432,0.17 0.488,0.468 0.144,0.84 0.875,1.259 2.197,1.259 0.667,0 1.204,-0.127 1.609,-0.384 0.405,-0.256 0.609,-0.598 0.609,-1.023 0,-0.825 -0.508,-1.236 -1.516,-1.236 h -2.109 c -1.607,0 -2.411,-0.582 -2.411,-1.749 0,-0.569 0.306,-1.143 0.919,-1.726 -0.996,-0.699 -1.492,-1.72 -1.492,-3.071 0,-1.18 0.354,-2.103 1.065,-2.771 0.711,-0.668 1.663,-1.003 2.857,-1.003 0.155,0 0.376,0.02 0.661,0.053 0.281,0.037 0.496,0.055 0.637,0.055 h 2.475 c 0.354,0 0.535,0.17 0.535,0.512 v 0.596 c 0,0.313 -0.138,0.482 -0.408,0.51 l -0.662,0.086 c 0.472,0.695 0.706,1.35 0.706,1.961 0,1.167 -0.352,2.085 -1.056,2.761 -0.703,0.678 -1.66,1.015 -2.868,1.015 -0.426,0 -0.774,-0.036 -1.044,-0.106 -0.2,0.195 -0.298,0.389 -0.298,0.574 0,0.355 0.319,0.533 0.958,0.533 h 1.834 c 1.01,0 1.807,0.24 2.389,0.723 0.584,0.484 0.877,1.172 0.877,2.068 z m -2.965,-7.61 c 0,-1.394 -0.583,-2.092 -1.749,-2.092 -0.556,0 -0.958,0.122 -1.214,0.364 -0.341,0.327 -0.511,0.903 -0.511,1.728 0,0.851 0.17,1.44 0.511,1.769 0.256,0.256 0.658,0.385 1.214,0.385 1.166,0 1.749,-0.719 1.749,-2.154 z"
   id="path3179"
   inkscape:connector-curvature="0"
   style="fill:#ffffff" />
			<path
   d="m 360.667,31.98 c 0.043,0.129 0.064,0.234 0.064,0.318 0,0.23 -0.144,0.342 -0.429,0.342 h -1.555 c -0.326,0 -0.539,-0.148 -0.639,-0.446 -0.227,-0.726 -0.455,-1.458 -0.683,-2.196 -0.269,-0.811 -0.526,-1.447 -0.768,-1.921 -0.627,-1.192 -1.428,-1.789 -2.409,-1.789 h -0.874 v 5.862 c 0,0.329 -0.171,0.49 -0.513,0.49 h -1.235 c -0.343,0 -0.512,-0.161 -0.512,-0.49 V 18.784 c 0,-0.341 0.169,-0.511 0.512,-0.511 h 3.754 c 1.604,0 2.776,0.426 3.516,1.278 0.556,0.641 0.833,1.427 0.833,2.366 0,0.896 -0.242,1.651 -0.727,2.262 -0.523,0.667 -1.271,1.079 -2.238,1.234 -0.043,0.017 -0.1,0.023 -0.172,0.023 0.967,0.199 1.729,0.883 2.282,2.046 0.415,0.867 1.011,2.367 1.793,4.498 z m -3.24,-9.773 c 0,-0.559 -0.17,-1.017 -0.512,-1.374 -0.384,-0.399 -0.919,-0.602 -1.599,-0.602 h -1.94 v 4.223 h 1.705 c 0.726,0 1.296,-0.203 1.717,-0.612 0.418,-0.405 0.629,-0.952 0.629,-1.635 z"
   id="path3181"
   inkscape:connector-curvature="0"
   style="fill:#ffffff" />
			<path
   d="m 369.878,27.523 c 0,0.342 -0.163,0.513 -0.491,0.513 h -5.159 c 0.043,0.954 0.234,1.641 0.577,2.069 0.383,0.499 1.016,0.746 1.896,0.746 0.539,0 1.215,-0.129 2.023,-0.385 0.059,-0.014 0.114,-0.021 0.172,-0.021 0.186,0 0.322,0.113 0.404,0.341 l 0.301,0.854 c 0.098,0.269 0,0.469 -0.301,0.598 -0.808,0.354 -1.754,0.531 -2.834,0.531 -1.45,0 -2.564,-0.451 -3.348,-1.354 -0.78,-0.901 -1.176,-2.228 -1.176,-3.975 0,-1.58 0.364,-2.847 1.09,-3.807 0.725,-0.959 1.7,-1.439 2.922,-1.439 2.615,0 3.924,1.778 3.924,5.329 z M 367.66,26.48 c -0.058,-1.706 -0.612,-2.56 -1.664,-2.56 -1.021,0 -1.611,0.854 -1.769,2.56 h 3.433 z"
   id="path3183"
   inkscape:connector-curvature="0"
   style="fill:#ffffff" />
			<path
   d="m 378.152,29.699 c 0,0.867 -0.286,1.578 -0.854,2.133 -0.627,0.625 -1.492,0.938 -2.602,0.938 -1.11,0 -2.112,-0.207 -3.007,-0.619 -0.285,-0.125 -0.377,-0.34 -0.275,-0.638 l 0.275,-0.896 c 0.086,-0.255 0.227,-0.384 0.427,-0.384 0.071,0 0.136,0.017 0.194,0.043 0.935,0.396 1.717,0.598 2.342,0.598 0.854,0 1.28,-0.363 1.28,-1.089 0,-0.469 -0.364,-0.923 -1.089,-1.364 -1.348,-0.809 -2.031,-1.221 -2.045,-1.238 -0.725,-0.581 -1.088,-1.276 -1.088,-2.087 0,-0.868 0.292,-1.566 0.873,-2.1 0.583,-0.534 1.395,-0.8 2.432,-0.8 0.896,0 1.691,0.15 2.386,0.447 0.315,0.129 0.415,0.343 0.301,0.642 l -0.276,0.724 c -0.113,0.313 -0.306,0.419 -0.571,0.32 -0.722,-0.27 -1.302,-0.406 -1.737,-0.406 -0.792,0 -1.189,0.342 -1.189,1.024 0,0.383 0.367,0.796 1.104,1.235 1.131,0.669 1.803,1.097 2.016,1.279 0.734,0.627 1.103,1.373 1.103,2.238 z"
   id="path3185"
   inkscape:connector-curvature="0"
   style="fill:#ffffff" />
			<path
   d="m 387.976,27.46 c 0,1.649 -0.365,2.947 -1.097,3.892 -0.734,0.944 -1.758,1.418 -3.08,1.418 -1.324,0 -2.357,-0.471 -3.104,-1.407 -0.746,-0.938 -1.117,-2.239 -1.117,-3.902 0,-1.634 0.371,-2.919 1.117,-3.857 0.746,-0.939 1.779,-1.408 3.104,-1.408 1.307,0 2.33,0.469 3.068,1.408 0.738,0.937 1.109,2.222 1.109,3.856 z m -2.259,0 c 0,-2.288 -0.658,-3.432 -1.973,-3.432 -1.299,0 -1.949,1.144 -1.949,3.432 0,2.29 0.65,3.433 1.949,3.433 1.315,0 1.973,-1.143 1.973,-3.433 z"
   id="path3187"
   inkscape:connector-curvature="0"
   style="fill:#ffffff" />
			<path
   d="m 397.74,32.15 c 0,0.329 -0.162,0.49 -0.489,0.49 h -0.853 c -0.271,0 -0.441,-0.142 -0.513,-0.426 l -0.213,-0.896 c -0.91,0.967 -1.92,1.451 -3.028,1.451 -0.796,0 -1.431,-0.237 -1.905,-0.713 -0.478,-0.477 -0.716,-1.134 -0.716,-1.975 v -7.27 c 0,-0.325 0.17,-0.489 0.513,-0.489 h 1.193 c 0.342,0 0.512,0.164 0.512,0.489 v 6.887 c 0,0.811 0.38,1.217 1.144,1.217 0.634,0 1.149,-0.248 1.545,-0.736 0.396,-0.492 0.593,-1.17 0.593,-2.036 v -5.332 c 0,-0.325 0.173,-0.489 0.518,-0.489 h 1.206 c 0.33,0 0.494,0.164 0.494,0.489 v 9.339 z"
   id="path3189"
   inkscape:connector-curvature="0"
   style="fill:#ffffff" />
			<path
   d="m 406.332,23.068 -0.316,1.195 c -0.086,0.325 -0.297,0.46 -0.635,0.404 -0.129,-0.015 -0.337,-0.08 -0.627,-0.192 -0.291,-0.113 -0.512,-0.171 -0.668,-0.171 -0.383,0 -0.692,0.221 -0.932,0.661 -0.283,0.499 -0.426,1.224 -0.426,2.177 v 5.008 c 0,0.329 -0.174,0.49 -0.515,0.49 h -1.187 c -0.342,0 -0.514,-0.161 -0.514,-0.49 v -9.338 c 0,-0.325 0.17,-0.489 0.509,-0.489 h 0.79 c 0.312,0 0.506,0.142 0.576,0.425 l 0.234,0.918 c 0.624,-0.98 1.421,-1.472 2.388,-1.472 1.04,0 1.479,0.293 1.323,0.874 z"
   id="path3191"
   inkscape:connector-curvature="0"
   style="fill:#ffffff" />
			<path
   d="m 413.752,31.874 c 0.057,0.3 -0.056,0.498 -0.342,0.599 -0.582,0.196 -1.279,0.297 -2.088,0.297 -1.353,0 -2.404,-0.447 -3.156,-1.344 -0.795,-0.938 -1.193,-2.286 -1.193,-4.05 0,-1.507 0.4,-2.747 1.203,-3.719 0.803,-0.975 1.881,-1.462 3.23,-1.462 0.442,0 0.895,0.065 1.365,0.192 0.682,0.172 0.965,0.426 0.854,0.768 l -0.299,0.895 c -0.072,0.227 -0.2,0.343 -0.385,0.343 -0.143,0 -0.374,-0.052 -0.692,-0.149 -0.319,-0.103 -0.58,-0.15 -0.778,-0.15 -0.682,0 -1.221,0.284 -1.609,0.856 -0.392,0.568 -0.586,1.383 -0.586,2.436 0,2.282 0.772,3.424 2.323,3.424 0.452,0 0.925,-0.072 1.407,-0.213 0.328,-0.086 0.519,0.028 0.577,0.34 l 0.169,0.937 z"
   id="path3193"
   inkscape:connector-curvature="0"
   style="fill:#ffffff" />
			<path
   d="m 423.027,27.523 c 0,0.342 -0.167,0.513 -0.491,0.513 h -5.161 c 0.045,0.954 0.235,1.641 0.576,2.069 0.384,0.499 1.018,0.746 1.898,0.746 0.54,0 1.215,-0.129 2.025,-0.385 0.057,-0.014 0.111,-0.021 0.172,-0.021 0.182,0 0.318,0.113 0.404,0.341 l 0.297,0.854 c 0.102,0.269 0,0.469 -0.297,0.598 -0.812,0.354 -1.757,0.531 -2.837,0.531 -1.45,0 -2.563,-0.451 -3.348,-1.354 -0.781,-0.901 -1.173,-2.228 -1.173,-3.975 0,-1.58 0.361,-2.847 1.088,-3.807 0.727,-0.96 1.699,-1.439 2.922,-1.439 2.615,0 3.925,1.778 3.925,5.329 z m -2.218,-1.043 c -0.056,-1.706 -0.612,-2.56 -1.664,-2.56 -1.022,0 -1.612,0.854 -1.77,2.56 h 3.434 z"
   id="path3195"
   inkscape:connector-curvature="0"
   style="fill:#ffffff" />
			<path
   d="m 431.299,29.699 c 0,0.867 -0.285,1.578 -0.854,2.133 -0.627,0.625 -1.492,0.938 -2.6,0.938 -1.109,0 -2.112,-0.207 -3.007,-0.619 -0.285,-0.125 -0.378,-0.34 -0.276,-0.638 l 0.276,-0.896 c 0.085,-0.255 0.228,-0.384 0.425,-0.384 0.074,0 0.137,0.017 0.193,0.043 0.938,0.396 1.719,0.598 2.345,0.598 0.853,0 1.281,-0.363 1.281,-1.089 0,-0.469 -0.364,-0.923 -1.089,-1.364 -1.351,-0.809 -2.035,-1.221 -2.047,-1.238 -0.727,-0.581 -1.086,-1.276 -1.086,-2.087 0,-0.868 0.289,-1.566 0.872,-2.1 0.582,-0.534 1.394,-0.8 2.431,-0.8 0.895,0 1.691,0.15 2.387,0.447 0.314,0.129 0.413,0.343 0.3,0.642 l -0.276,0.724 c -0.113,0.313 -0.305,0.419 -0.57,0.32 -0.723,-0.27 -1.303,-0.406 -1.739,-0.406 -0.791,0 -1.188,0.342 -1.188,1.024 0,0.383 0.367,0.796 1.102,1.235 1.132,0.669 1.805,1.097 2.017,1.279 0.736,0.627 1.103,1.373 1.103,2.238 z"
   id="path3197"
   inkscape:connector-curvature="0"
   style="fill:#ffffff" />
		</g>
	</g>
</g>


<g
   id="g45042"
   transform="translate(9.800525,184.6877)"><g
     id="g44482">
	<path
   id="path44484"
   d="m 43.638,-73.363 c 0,0 2.638,1.126 4.766,2.095 2.813,1.28 3.134,2.606 3.134,4.652 -10e-4,9.863 -0.01,54.073 -0.012,56.307 0,2.701 -0.639,6.749 7.008,6.363 3.875,-0.195 41.357,0.001 50.501,0.001 7.138,0.002 7.141,-3.563 7.141,-6.165 0,-2.129 0.006,-46.012 0.01,-56.357 0,-4.288 1.752,-4.5 3.499,-5.29 1.746,-0.789 4.343,-1.961 4.343,-1.961"
   stroke-miterlimit="10"
   inkscape:connector-curvature="0"
   style="fill:none;stroke:#231f20;stroke-miterlimit:10" />
	<line
   id="line44486"
   y2="-62.750999"
   x2="115.593"
   y1="-62.750999"
   x1="51.146"
   stroke-miterlimit="10"
   style="fill:none;stroke:#231f20;stroke-miterlimit:10" />
	<line
   id="line44488"
   y2="-5.9320002"
   x2="84.030998"
   y1="-5.9320002"
   x1="79.418999"
   stroke-miterlimit="10"
   style="fill:none;stroke:#231f20;stroke-width:0.40000001;stroke-miterlimit:10" />
	<line
   id="line44490"
   y2="-5.9320002"
   x2="91.334999"
   y1="-5.9320002"
   x1="86.723"
   stroke-miterlimit="10"
   style="fill:none;stroke:#231f20;stroke-width:0.40000001;stroke-miterlimit:10" />
	<line
   id="line44492"
   y2="-7.2329998"
   x2="81.337997"
   y1="-7.2329998"
   x1="76.725998"
   stroke-miterlimit="10"
   style="fill:none;stroke:#231f20;stroke-width:0.40000001;stroke-miterlimit:10" />
	<line
   id="line44494"
   y2="-7.2329998"
   x2="95.946999"
   y1="-7.2329998"
   x1="91.334999"
   stroke-miterlimit="10"
   style="fill:none;stroke:#231f20;stroke-width:0.40000001;stroke-miterlimit:10" />
	<line
   id="line44496"
   y2="-7.2329998"
   x2="103.252"
   y1="-7.2329998"
   x1="98.639999"
   stroke-miterlimit="10"
   style="fill:none;stroke:#231f20;stroke-width:0.40000001;stroke-miterlimit:10" />
	<line
   id="line44498"
   y2="-8.6379995"
   x2="83.642998"
   y1="-8.6379995"
   x1="79.031998"
   stroke-miterlimit="10"
   style="fill:none;stroke:#231f20;stroke-width:0.40000001;stroke-miterlimit:10" />
	<line
   id="line44500"
   y2="-8.6379995"
   x2="90.947998"
   y1="-8.6379995"
   x1="86.335999"
   stroke-miterlimit="10"
   style="fill:none;stroke:#231f20;stroke-width:0.40000001;stroke-miterlimit:10" />
	<line
   id="line44502"
   y2="-8.6379995"
   x2="98.252998"
   y1="-8.6379995"
   x1="93.640999"
   stroke-miterlimit="10"
   style="fill:none;stroke:#231f20;stroke-width:0.40000001;stroke-miterlimit:10" />
	
		<line
   id="line44504"
   y2="-8.6379995"
   x2="103.252"
   y1="-8.6379995"
   x1="100.946"
   stroke-miterlimit="10"
   style="fill:none;stroke:#231f20;stroke-width:0.40000001;stroke-miterlimit:10" />
	<line
   id="line44506"
   y2="-9.9399996"
   x2="80.950996"
   y1="-9.9399996"
   x1="77.858002"
   stroke-miterlimit="10"
   style="fill:none;stroke:#231f20;stroke-width:0.40000001;stroke-miterlimit:10" />
	<line
   id="line44508"
   y2="-9.9399996"
   x2="88.255997"
   y1="-9.9399996"
   x1="83.642998"
   stroke-miterlimit="10"
   style="fill:none;stroke:#231f20;stroke-width:0.40000001;stroke-miterlimit:10" />
	<line
   id="line44510"
   y2="-9.9399996"
   x2="95.560997"
   y1="-9.9399996"
   x1="90.947998"
   stroke-miterlimit="10"
   style="fill:none;stroke:#231f20;stroke-width:0.40000001;stroke-miterlimit:10" />
	<line
   id="line44512"
   y2="-9.9399996"
   x2="99.785004"
   y1="-9.9399996"
   x1="98.252998"
   stroke-miterlimit="10"
   style="fill:none;stroke:#231f20;stroke-width:0.40000001;stroke-miterlimit:10" />
	<line
   id="line44514"
   y2="-5.9320002"
   x2="59.424"
   y1="-5.9320002"
   x1="54.812"
   stroke-miterlimit="10"
   style="fill:none;stroke:#231f20;stroke-width:0.40000001;stroke-miterlimit:10" />
	<line
   id="line44516"
   y2="-5.9320002"
   x2="66.728996"
   y1="-5.9320002"
   x1="62.116001"
   stroke-miterlimit="10"
   style="fill:none;stroke:#231f20;stroke-width:0.40000001;stroke-miterlimit:10" />
	<line
   id="line44518"
   y2="-5.9320002"
   x2="74.031998"
   y1="-5.9320002"
   x1="69.421997"
   stroke-miterlimit="10"
   style="fill:none;stroke:#231f20;stroke-width:0.40000001;stroke-miterlimit:10" />
	<line
   id="line44520"
   y2="-7.2329998"
   x2="71.341003"
   y1="-7.2329998"
   x1="66.728996"
   stroke-miterlimit="10"
   style="fill:none;stroke:#231f20;stroke-width:0.40000001;stroke-miterlimit:10" />
	<line
   id="line44522"
   y2="-8.6379995"
   x2="59.036999"
   y1="-8.6379995"
   x1="54.425999"
   stroke-miterlimit="10"
   style="fill:none;stroke:#231f20;stroke-width:0.40000001;stroke-miterlimit:10" />
	<line
   id="line44524"
   y2="-8.6379995"
   x2="66.342003"
   y1="-8.6379995"
   x1="61.73"
   stroke-miterlimit="10"
   style="fill:none;stroke:#231f20;stroke-width:0.40000001;stroke-miterlimit:10" />
	<line
   id="line44526"
   y2="-8.6379995"
   x2="73.646004"
   y1="-8.6379995"
   x1="69.033997"
   stroke-miterlimit="10"
   style="fill:none;stroke:#231f20;stroke-width:0.40000001;stroke-miterlimit:10" />
	<line
   id="line44528"
   y2="-9.9399996"
   x2="56.344002"
   y1="-9.9399996"
   x1="53.249001"
   stroke-miterlimit="10"
   style="fill:none;stroke:#231f20;stroke-width:0.40000001;stroke-miterlimit:10" />
	<line
   id="line44530"
   y2="-9.9399996"
   x2="63.650002"
   y1="-9.9399996"
   x1="59.036999"
   stroke-miterlimit="10"
   style="fill:none;stroke:#231f20;stroke-width:0.40000001;stroke-miterlimit:10" />
	<line
   id="line44532"
   y2="-9.9399996"
   x2="70.954002"
   y1="-9.9399996"
   x1="66.342003"
   stroke-miterlimit="10"
   style="fill:none;stroke:#231f20;stroke-width:0.40000001;stroke-miterlimit:10" />
	<line
   id="line44534"
   y2="-9.9399996"
   x2="75.179001"
   y1="-9.9399996"
   x1="73.646004"
   stroke-miterlimit="10"
   style="fill:none;stroke:#231f20;stroke-width:0.40000001;stroke-miterlimit:10" />
	
		<line
   id="line44536"
   y2="-5.9320002"
   x2="110.169"
   y1="-5.9320002"
   x1="105.557"
   stroke-miterlimit="10"
   style="fill:none;stroke:#231f20;stroke-width:0.40000001;stroke-miterlimit:10" />
	<line
   id="line44538"
   y2="-5.9320002"
   x2="115.19"
   y1="-5.9320002"
   x1="112.863"
   stroke-miterlimit="10"
   style="fill:none;stroke:#231f20;stroke-width:0.40000001;stroke-miterlimit:10" />
	<line
   id="line44540"
   y2="-5.697"
   x2="105.17"
   y1="-5.697"
   x1="100.559"
   stroke-miterlimit="10"
   style="fill:none;stroke:#231f20;stroke-width:0.40000001;stroke-miterlimit:10" />
	
		<line
   id="line44542"
   y2="-7.2329998"
   x2="114.781"
   y1="-7.2329998"
   x1="110.169"
   stroke-miterlimit="10"
   style="fill:none;stroke:#231f20;stroke-width:0.40000001;stroke-miterlimit:10" />
	<line
   id="line44544"
   y2="-8.6379995"
   x2="109.783"
   y1="-8.6379995"
   x1="105.17"
   stroke-miterlimit="10"
   style="fill:none;stroke:#231f20;stroke-width:0.40000001;stroke-miterlimit:10" />
	
		<line
   id="line44546"
   y2="-8.6379995"
   x2="116.095"
   y1="-8.6379995"
   x1="112.475"
   stroke-miterlimit="10"
   style="fill:none;stroke:#231f20;stroke-width:0.40000001;stroke-miterlimit:10" />
	<line
   id="line44548"
   y2="-9.9399996"
   x2="107.089"
   y1="-9.9399996"
   x1="103.995"
   stroke-miterlimit="10"
   style="fill:none;stroke:#231f20;stroke-width:0.40000001;stroke-miterlimit:10" />
	<line
   id="line44550"
   y2="-9.9399996"
   x2="114.396"
   y1="-9.9399996"
   x1="109.783"
   stroke-miterlimit="10"
   style="fill:none;stroke:#231f20;stroke-width:0.40000001;stroke-miterlimit:10" />
	
		<line
   id="line44552"
   y2="-12.512"
   x2="90.996002"
   y1="-12.512"
   x1="84.866997"
   stroke-miterlimit="10"
   style="fill:none;stroke:#231f20;stroke-width:0.40000001;stroke-miterlimit:10" />
	
		<line
   id="line44554"
   y2="-12.512"
   x2="100.703"
   y1="-12.512"
   x1="94.572998"
   stroke-miterlimit="10"
   style="fill:none;stroke:#231f20;stroke-width:0.40000001;stroke-miterlimit:10" />
	
		<line
   id="line44556"
   y2="-12.512"
   x2="110.408"
   y1="-12.512"
   x1="104.281"
   stroke-miterlimit="10"
   style="fill:none;stroke:#231f20;stroke-width:0.40000001;stroke-miterlimit:10" />
	
		<line
   id="line44558"
   y2="-13.813"
   x2="87.417999"
   y1="-13.813"
   x1="81.291"
   stroke-miterlimit="10"
   style="fill:none;stroke:#231f20;stroke-width:0.40000001;stroke-miterlimit:10" />
	
		<line
   id="line44560"
   y2="-13.813"
   x2="97.124001"
   y1="-13.813"
   x1="90.996002"
   stroke-miterlimit="10"
   style="fill:none;stroke:#231f20;stroke-width:0.40000001;stroke-miterlimit:10" />
	
		<line
   id="line44562"
   y2="-13.813"
   x2="106.829"
   y1="-13.813"
   x1="100.703"
   stroke-miterlimit="10"
   style="fill:none;stroke:#231f20;stroke-width:0.40000001;stroke-miterlimit:10" />
	
		<line
   id="line44564"
   y2="-13.813"
   x2="116.536"
   y1="-13.813"
   x1="110.408"
   stroke-miterlimit="10"
   style="fill:none;stroke:#231f20;stroke-width:0.40000001;stroke-miterlimit:10" />
	
		<line
   id="line44566"
   y2="-16.559"
   x2="86.904999"
   y1="-16.559"
   x1="80.776001"
   stroke-miterlimit="10"
   style="fill:none;stroke:#231f20;stroke-width:0.40000001;stroke-miterlimit:10" />
	
		<line
   id="line44568"
   y2="-16.559"
   x2="96.611"
   y1="-16.559"
   x1="90.482002"
   stroke-miterlimit="10"
   style="fill:none;stroke:#231f20;stroke-width:0.40000001;stroke-miterlimit:10" />
	
		<line
   id="line44570"
   y2="-16.559"
   x2="106.317"
   y1="-16.559"
   x1="100.189"
   stroke-miterlimit="10"
   style="fill:none;stroke:#231f20;stroke-width:0.40000001;stroke-miterlimit:10" />
	
		<line
   id="line44572"
   y2="-16.559"
   x2="116.022"
   y1="-16.559"
   x1="109.894"
   stroke-miterlimit="10"
   style="fill:none;stroke:#231f20;stroke-width:0.40000001;stroke-miterlimit:10" />
	<line
   id="line44574"
   y2="-18.125"
   x2="92.639999"
   y1="-18.125"
   x1="86.511002"
   stroke-miterlimit="10"
   style="fill:none;stroke:#231f20;stroke-width:0.40000001;stroke-miterlimit:10" />
	
		<line
   id="line44576"
   y2="-18.125"
   x2="102.345"
   y1="-18.125"
   x1="96.216003"
   stroke-miterlimit="10"
   style="fill:none;stroke:#231f20;stroke-width:0.40000001;stroke-miterlimit:10" />
	
		<line
   id="line44578"
   y2="-18.125"
   x2="112.051"
   y1="-18.125"
   x1="105.923"
   stroke-miterlimit="10"
   style="fill:none;stroke:#231f20;stroke-width:0.40000001;stroke-miterlimit:10" />
	
		<line
   id="line44580"
   y2="-19.427"
   x2="108.474"
   y1="-19.427"
   x1="102.345"
   stroke-miterlimit="10"
   style="fill:none;stroke:#231f20;stroke-width:0.40000001;stroke-miterlimit:10" />
	
		<line
   id="line44582"
   y2="-19.427"
   x2="116.52"
   y1="-19.427"
   x1="112.051"
   stroke-miterlimit="10"
   style="fill:none;stroke:#231f20;stroke-width:0.40000001;stroke-miterlimit:10" />
	
		<line
   id="line44584"
   y2="-20.868"
   x2="92.093002"
   y1="-20.868"
   x1="85.964996"
   stroke-miterlimit="10"
   style="fill:none;stroke:#231f20;stroke-width:0.40000001;stroke-miterlimit:10" />
	
		<line
   id="line44586"
   y2="-20.868"
   x2="100.703"
   y1="-20.868"
   x1="94.572998"
   stroke-miterlimit="10"
   style="fill:none;stroke:#231f20;stroke-width:0.40000001;stroke-miterlimit:10" />
	
		<line
   id="line44588"
   y2="-20.868"
   x2="110.408"
   y1="-20.868"
   x1="104.281"
   stroke-miterlimit="10"
   style="fill:none;stroke:#231f20;stroke-width:0.40000001;stroke-miterlimit:10" />
	<line
   id="line44590"
   y2="-22.17"
   x2="97.124001"
   y1="-22.17"
   x1="90.996002"
   stroke-miterlimit="10"
   style="fill:none;stroke:#231f20;stroke-width:0.40000001;stroke-miterlimit:10" />
	<line
   id="line44592"
   y2="-22.17"
   x2="116.52"
   y1="-22.17"
   x1="112.051"
   stroke-miterlimit="10"
   style="fill:none;stroke:#231f20;stroke-width:0.40000001;stroke-miterlimit:10" />
	
		<line
   id="line44594"
   y2="-23.632"
   x2="89.968002"
   y1="-23.632"
   x1="83.841003"
   stroke-miterlimit="10"
   style="fill:none;stroke:#231f20;stroke-width:0.40000001;stroke-miterlimit:10" />
	
		<line
   id="line44596"
   y2="-23.632"
   x2="99.674004"
   y1="-23.632"
   x1="93.546997"
   stroke-miterlimit="10"
   style="fill:none;stroke:#231f20;stroke-width:0.40000001;stroke-miterlimit:10" />
	
		<line
   id="line44598"
   y2="-23.632"
   x2="112.958"
   y1="-23.632"
   x1="106.829"
   stroke-miterlimit="10"
   style="fill:none;stroke:#231f20;stroke-width:0.40000001;stroke-miterlimit:10" />
	
		<line
   id="line44600"
   y2="-24.933001"
   x2="96.096001"
   y1="-24.933001"
   x1="89.968002"
   stroke-miterlimit="10"
   style="fill:none;stroke:#231f20;stroke-width:0.40000001;stroke-miterlimit:10" />
	
		<line
   id="line44602"
   y2="-24.933001"
   x2="105.803"
   y1="-24.933001"
   x1="99.674004"
   stroke-miterlimit="10"
   style="fill:none;stroke:#231f20;stroke-width:0.40000001;stroke-miterlimit:10" />
	
		<line
   id="line44604"
   y2="-24.933001"
   x2="115.507"
   y1="-24.933001"
   x1="109.379"
   stroke-miterlimit="10"
   style="fill:none;stroke:#231f20;stroke-width:0.40000001;stroke-miterlimit:10" />
	
		<line
   id="line44606"
   y2="-25.937"
   x2="89.454002"
   y1="-25.937"
   x1="83.327003"
   stroke-miterlimit="10"
   style="fill:none;stroke:#231f20;stroke-width:0.40000001;stroke-miterlimit:10" />
	
		<line
   id="line44608"
   y2="-27.238001"
   x2="95.583"
   y1="-27.238001"
   x1="89.454002"
   stroke-miterlimit="10"
   style="fill:none;stroke:#231f20;stroke-width:0.40000001;stroke-miterlimit:10" />
	
		<line
   id="line44610"
   y2="-27.238001"
   x2="105.289"
   y1="-27.238001"
   x1="99.160004"
   stroke-miterlimit="10"
   style="fill:none;stroke:#231f20;stroke-width:0.40000001;stroke-miterlimit:10" />
	<line
   id="line44612"
   y2="-28.264999"
   x2="94.059998"
   y1="-28.264999"
   x1="87.931999"
   stroke-miterlimit="10"
   style="fill:none;stroke:#231f20;stroke-width:0.40000001;stroke-miterlimit:10" />
	
		<line
   id="line44614"
   y2="-28.264999"
   x2="103.765"
   y1="-28.264999"
   x1="97.638"
   stroke-miterlimit="10"
   style="fill:none;stroke:#231f20;stroke-width:0.40000001;stroke-miterlimit:10" />
	
		<line
   id="line44616"
   y2="-28.264999"
   x2="113.471"
   y1="-28.264999"
   x1="107.343"
   stroke-miterlimit="10"
   style="fill:none;stroke:#231f20;stroke-width:0.40000001;stroke-miterlimit:10" />
	
		<line
   id="line44618"
   y2="-29.566999"
   x2="90.482002"
   y1="-29.566999"
   x1="84.352997"
   stroke-miterlimit="10"
   style="fill:none;stroke:#231f20;stroke-width:0.40000001;stroke-miterlimit:10" />
	
		<line
   id="line44620"
   y2="-29.566999"
   x2="109.894"
   y1="-29.566999"
   x1="103.765"
   stroke-miterlimit="10"
   style="fill:none;stroke:#231f20;stroke-width:0.40000001;stroke-miterlimit:10" />
	
		<line
   id="line44622"
   y2="-30.972"
   x2="103.252"
   y1="-30.972"
   x1="97.124001"
   stroke-miterlimit="10"
   style="fill:none;stroke:#231f20;stroke-width:0.40000001;stroke-miterlimit:10" />
	
		<line
   id="line44624"
   y2="-30.972"
   x2="112.958"
   y1="-30.972"
   x1="106.829"
   stroke-miterlimit="10"
   style="fill:none;stroke:#231f20;stroke-width:0.40000001;stroke-miterlimit:10" />
	
		<line
   id="line44626"
   y2="-32.272999"
   x2="89.968002"
   y1="-32.272999"
   x1="85.857002"
   stroke-miterlimit="10"
   style="fill:none;stroke:#231f20;stroke-width:0.40000001;stroke-miterlimit:10" />
	
		<line
   id="line44628"
   y2="-32.272999"
   x2="99.674004"
   y1="-32.272999"
   x1="93.546997"
   stroke-miterlimit="10"
   style="fill:none;stroke:#231f20;stroke-width:0.40000001;stroke-miterlimit:10" />
	
		<line
   id="line44630"
   y2="-32.272999"
   x2="114.993"
   y1="-32.272999"
   x1="112.958"
   stroke-miterlimit="10"
   style="fill:none;stroke:#231f20;stroke-width:0.40000001;stroke-miterlimit:10" />
	
		<line
   id="line44632"
   y2="-33.683998"
   x2="95.583"
   y1="-33.683998"
   x1="89.454002"
   stroke-miterlimit="10"
   style="fill:none;stroke:#231f20;stroke-width:0.40000001;stroke-miterlimit:10" />
	
		<line
   id="line44634"
   y2="-33.683998"
   x2="105.289"
   y1="-33.683998"
   x1="99.160004"
   stroke-miterlimit="10"
   style="fill:none;stroke:#231f20;stroke-width:0.40000001;stroke-miterlimit:10" />
	
		<line
   id="line44636"
   y2="-33.683998"
   x2="111.93"
   y1="-33.683998"
   x1="108.865"
   stroke-miterlimit="10"
   style="fill:none;stroke:#231f20;stroke-width:0.40000001;stroke-miterlimit:10" />
	
		<line
   id="line44638"
   y2="-33.683998"
   x2="116.338"
   y1="-33.683998"
   x1="113.975"
   stroke-miterlimit="10"
   style="fill:none;stroke:#231f20;stroke-width:0.40000001;stroke-miterlimit:10" />
	
		<line
   id="line44640"
   y2="-12.512"
   x2="58.299"
   y1="-12.512"
   x1="52.173"
   stroke-miterlimit="10"
   style="fill:none;stroke:#231f20;stroke-width:0.40000001;stroke-miterlimit:10" />
	
		<line
   id="line44642"
   y2="-12.512"
   x2="68.005997"
   y1="-12.512"
   x1="61.879002"
   stroke-miterlimit="10"
   style="fill:none;stroke:#231f20;stroke-width:0.40000001;stroke-miterlimit:10" />
	
		<line
   id="line44644"
   y2="-12.512"
   x2="77.712997"
   y1="-12.512"
   x1="71.584999"
   stroke-miterlimit="10"
   style="fill:none;stroke:#231f20;stroke-width:0.40000001;stroke-miterlimit:10" />
	
		<line
   id="line44646"
   y2="-13.813"
   x2="64.429001"
   y1="-13.813"
   x1="58.299"
   stroke-miterlimit="10"
   style="fill:none;stroke:#231f20;stroke-width:0.40000001;stroke-miterlimit:10" />
	
		<line
   id="line44648"
   y2="-13.813"
   x2="74.135002"
   y1="-13.813"
   x1="68.005997"
   stroke-miterlimit="10"
   style="fill:none;stroke:#231f20;stroke-width:0.40000001;stroke-miterlimit:10" />
	
		<line
   id="line44650"
   y2="-13.813"
   x2="83.841003"
   y1="-13.813"
   x1="77.712997"
   stroke-miterlimit="10"
   style="fill:none;stroke:#231f20;stroke-width:0.40000001;stroke-miterlimit:10" />
	
		<line
   id="line44652"
   y2="-16.559"
   x2="63.914001"
   y1="-16.559"
   x1="57.785999"
   stroke-miterlimit="10"
   style="fill:none;stroke:#231f20;stroke-width:0.40000001;stroke-miterlimit:10" />
	<line
   id="line44654"
   y2="-16.559"
   x2="73.620003"
   y1="-16.559"
   x1="67.491997"
   stroke-miterlimit="10"
   style="fill:none;stroke:#231f20;stroke-width:0.40000001;stroke-miterlimit:10" />
	
		<line
   id="line44656"
   y2="-18.125"
   x2="59.944"
   y1="-18.125"
   x1="53.816002"
   stroke-miterlimit="10"
   style="fill:none;stroke:#231f20;stroke-width:0.40000001;stroke-miterlimit:10" />
	<line
   id="line44658"
   y2="-18.125"
   x2="69.650002"
   y1="-18.125"
   x1="63.521999"
   stroke-miterlimit="10"
   style="fill:none;stroke:#231f20;stroke-width:0.40000001;stroke-miterlimit:10" />
	
		<line
   id="line44660"
   y2="-18.125"
   x2="82.814003"
   y1="-18.125"
   x1="76.683998"
   stroke-miterlimit="10"
   style="fill:none;stroke:#231f20;stroke-width:0.40000001;stroke-miterlimit:10" />
	
		<line
   id="line44662"
   y2="-19.427"
   x2="56.366001"
   y1="-19.427"
   x1="51.050999"
   stroke-miterlimit="10"
   style="fill:none;stroke:#231f20;stroke-width:0.40000001;stroke-miterlimit:10" />
	<line
   id="line44664"
   y2="-19.427"
   x2="75.777"
   y1="-19.427"
   x1="69.650002"
   stroke-miterlimit="10"
   style="fill:none;stroke:#231f20;stroke-width:0.40000001;stroke-miterlimit:10" />
	
		<line
   id="line44666"
   y2="-20.868"
   x2="58.299"
   y1="-20.868"
   x1="52.173"
   stroke-miterlimit="10"
   style="fill:none;stroke:#231f20;stroke-width:0.40000001;stroke-miterlimit:10" />
	
		<line
   id="line44668"
   y2="-20.868"
   x2="68.005997"
   y1="-20.868"
   x1="61.879002"
   stroke-miterlimit="10"
   style="fill:none;stroke:#231f20;stroke-width:0.40000001;stroke-miterlimit:10" />
	<line
   id="line44670"
   y2="-22.17"
   x2="64.429001"
   y1="-22.17"
   x1="58.299"
   stroke-miterlimit="10"
   style="fill:none;stroke:#231f20;stroke-width:0.40000001;stroke-miterlimit:10" />
	<line
   id="line44672"
   y2="-22.17"
   x2="74.135002"
   y1="-22.17"
   x1="68.005997"
   stroke-miterlimit="10"
   style="fill:none;stroke:#231f20;stroke-width:0.40000001;stroke-miterlimit:10" />
	
		<line
   id="line44674"
   y2="-20.868"
   x2="84.352997"
   y1="-20.868"
   x1="78.226997"
   stroke-miterlimit="10"
   style="fill:none;stroke:#231f20;stroke-width:0.40000001;stroke-miterlimit:10" />
	
		<line
   id="line44676"
   y2="-23.632"
   x2="57.272999"
   y1="-23.632"
   x1="51.146"
   stroke-miterlimit="10"
   style="fill:none;stroke:#231f20;stroke-width:0.40000001;stroke-miterlimit:10" />
	
		<line
   id="line44678"
   y2="-23.632"
   x2="76.683998"
   y1="-23.632"
   x1="70.556999"
   stroke-miterlimit="10"
   style="fill:none;stroke:#231f20;stroke-width:0.40000001;stroke-miterlimit:10" />
	<line
   id="line44680"
   y2="-23.632"
   x2="86.389999"
   y1="-23.632"
   x1="80.262001"
   stroke-miterlimit="10"
   style="fill:none;stroke:#231f20;stroke-width:0.40000001;stroke-miterlimit:10" />
	
		<line
   id="line44682"
   y2="-24.933001"
   x2="82.814003"
   y1="-24.933001"
   x1="76.683998"
   stroke-miterlimit="10"
   style="fill:none;stroke:#231f20;stroke-width:0.40000001;stroke-miterlimit:10" />
	<line
   id="line44684"
   y2="-25.937"
   x2="56.759998"
   y1="-25.937"
   x1="52.933998"
   stroke-miterlimit="10"
   style="fill:none;stroke:#231f20;stroke-width:0.40000001;stroke-miterlimit:10" />
	
		<line
   id="line44686"
   y2="-25.937"
   x2="66.466003"
   y1="-25.937"
   x1="60.338001"
   stroke-miterlimit="10"
   style="fill:none;stroke:#231f20;stroke-width:0.40000001;stroke-miterlimit:10" />
	
		<line
   id="line44688"
   y2="-25.937"
   x2="76.170998"
   y1="-25.937"
   x1="70.042999"
   stroke-miterlimit="10"
   style="fill:none;stroke:#231f20;stroke-width:0.40000001;stroke-miterlimit:10" />
	<line
   id="line44690"
   y2="-27.238001"
   x2="62.886002"
   y1="-27.238001"
   x1="56.759998"
   stroke-miterlimit="10"
   style="fill:none;stroke:#231f20;stroke-width:0.40000001;stroke-miterlimit:10" />
	
		<line
   id="line44692"
   y2="-27.238001"
   x2="82.297997"
   y1="-27.238001"
   x1="76.170998"
   stroke-miterlimit="10"
   style="fill:none;stroke:#231f20;stroke-width:0.40000001;stroke-miterlimit:10" />
	
		<line
   id="line44694"
   y2="-28.264999"
   x2="71.070999"
   y1="-28.264999"
   x1="64.942001"
   stroke-miterlimit="10"
   style="fill:none;stroke:#231f20;stroke-width:0.40000001;stroke-miterlimit:10" />
	
		<line
   id="line44696"
   y2="-29.566999"
   x2="57.785999"
   y1="-29.566999"
   x1="51.659"
   stroke-miterlimit="10"
   style="fill:none;stroke:#231f20;stroke-width:0.40000001;stroke-miterlimit:10" />
	
		<line
   id="line44698"
   y2="-29.566999"
   x2="77.198997"
   y1="-29.566999"
   x1="71.070999"
   stroke-miterlimit="10"
   style="fill:none;stroke:#231f20;stroke-width:0.40000001;stroke-miterlimit:10" />
	
		<line
   id="line44700"
   y2="-33.683998"
   x2="87.417999"
   y1="-33.683998"
   x1="81.291"
   stroke-miterlimit="10"
   style="fill:none;stroke:#231f20;stroke-width:0.40000001;stroke-miterlimit:10" />
	
		<line
   id="line44702"
   y2="-30.972"
   x2="60.851002"
   y1="-30.972"
   x1="54.723999"
   stroke-miterlimit="10"
   style="fill:none;stroke:#231f20;stroke-width:0.40000001;stroke-miterlimit:10" />
	
		<line
   id="line44704"
   y2="-30.972"
   x2="70.556999"
   y1="-30.972"
   x1="64.429001"
   stroke-miterlimit="10"
   style="fill:none;stroke:#231f20;stroke-width:0.40000001;stroke-miterlimit:10" />
	
		<line
   id="line44706"
   y2="-30.972"
   x2="80.262001"
   y1="-30.972"
   x1="74.135002"
   stroke-miterlimit="10"
   style="fill:none;stroke:#231f20;stroke-width:0.40000001;stroke-miterlimit:10" />
	
		<line
   id="line44708"
   y2="-32.272999"
   x2="66.978996"
   y1="-32.272999"
   x1="60.851002"
   stroke-miterlimit="10"
   style="fill:none;stroke:#231f20;stroke-width:0.40000001;stroke-miterlimit:10" />
	
		<line
   id="line44710"
   y2="-32.272999"
   x2="76.683998"
   y1="-32.272999"
   x1="70.556999"
   stroke-miterlimit="10"
   style="fill:none;stroke:#231f20;stroke-width:0.40000001;stroke-miterlimit:10" />
	
		<line
   id="line44712"
   y2="-32.272999"
   x2="82.297997"
   y1="-32.272999"
   x1="80.262001"
   stroke-miterlimit="10"
   style="fill:none;stroke:#231f20;stroke-width:0.40000001;stroke-miterlimit:10" />
	<line
   id="line44714"
   y2="-33.683998"
   x2="62.886002"
   y1="-33.683998"
   x1="56.759998"
   stroke-miterlimit="10"
   style="fill:none;stroke:#231f20;stroke-width:0.40000001;stroke-miterlimit:10" />
	
		<line
   id="line44716"
   y2="-33.683998"
   x2="79.235001"
   y1="-33.683998"
   x1="76.170998"
   stroke-miterlimit="10"
   style="fill:none;stroke:#231f20;stroke-width:0.40000001;stroke-miterlimit:10" />
	<line
   id="line44718"
   y2="-17.111"
   x2="79.749001"
   y1="-17.111"
   x1="73.620003"
   stroke-miterlimit="10"
   style="fill:none;stroke:#231f20;stroke-width:0.40000001;stroke-miterlimit:10" />
	
		<line
   id="line44720"
   y2="-34.845001"
   x2="92.272003"
   y1="-34.845001"
   x1="86.142998"
   stroke-miterlimit="10"
   style="fill:none;stroke:#231f20;stroke-width:0.40000001;stroke-miterlimit:10" />
	
		<line
   id="line44722"
   y2="-34.845001"
   x2="101.977"
   y1="-34.845001"
   x1="95.849998"
   stroke-miterlimit="10"
   style="fill:none;stroke:#231f20;stroke-width:0.40000001;stroke-miterlimit:10" />
	
		<line
   id="line44724"
   y2="-34.845001"
   x2="111.683"
   y1="-34.845001"
   x1="105.555"
   stroke-miterlimit="10"
   style="fill:none;stroke:#231f20;stroke-width:0.40000001;stroke-miterlimit:10" />
	
		<line
   id="line44726"
   y2="-36.146999"
   x2="88.693001"
   y1="-36.146999"
   x1="82.565002"
   stroke-miterlimit="10"
   style="fill:none;stroke:#231f20;stroke-width:0.40000001;stroke-miterlimit:10" />
	
		<line
   id="line44728"
   y2="-36.146999"
   x2="108.105"
   y1="-36.146999"
   x1="101.977"
   stroke-miterlimit="10"
   style="fill:none;stroke:#231f20;stroke-width:0.40000001;stroke-miterlimit:10" />
	
		<line
   id="line44730"
   y2="-36.146999"
   x2="116.104"
   y1="-36.146999"
   x1="111.55"
   stroke-miterlimit="10"
   style="fill:none;stroke:#231f20;stroke-width:0.40000001;stroke-miterlimit:10" />
	
		<line
   id="line44732"
   y2="-37.592999"
   x2="101.462"
   y1="-37.592999"
   x1="95.334"
   stroke-miterlimit="10"
   style="fill:none;stroke:#231f20;stroke-width:0.40000001;stroke-miterlimit:10" />
	<line
   id="line44734"
   y2="-38.894001"
   x2="88.18"
   y1="-38.894001"
   x1="82.052002"
   stroke-miterlimit="10"
   style="fill:none;stroke:#231f20;stroke-width:0.40000001;stroke-miterlimit:10" />
	
		<line
   id="line44736"
   y2="-38.894001"
   x2="97.885002"
   y1="-38.894001"
   x1="91.758003"
   stroke-miterlimit="10"
   style="fill:none;stroke:#231f20;stroke-width:0.40000001;stroke-miterlimit:10" />
	
		<line
   id="line44738"
   y2="-38.894001"
   x2="107.59"
   y1="-38.894001"
   x1="101.462"
   stroke-miterlimit="10"
   style="fill:none;stroke:#231f20;stroke-width:0.40000001;stroke-miterlimit:10" />
	
		<line
   id="line44740"
   y2="-38.894001"
   x2="115.722"
   y1="-38.894001"
   x1="111.169"
   stroke-miterlimit="10"
   style="fill:none;stroke:#231f20;stroke-width:0.40000001;stroke-miterlimit:10" />
	
		<line
   id="line44742"
   y2="-40.460999"
   x2="103.62"
   y1="-40.460999"
   x1="97.491997"
   stroke-miterlimit="10"
   style="fill:none;stroke:#231f20;stroke-width:0.40000001;stroke-miterlimit:10" />
	
		<line
   id="line44744"
   y2="-40.460999"
   x2="113.325"
   y1="-40.460999"
   x1="107.197"
   stroke-miterlimit="10"
   style="fill:none;stroke:#231f20;stroke-width:0.40000001;stroke-miterlimit:10" />
	
		<line
   id="line44746"
   y2="-41.761002"
   x2="95.334"
   y1="-41.761002"
   x1="89.207001"
   stroke-miterlimit="10"
   style="fill:none;stroke:#231f20;stroke-width:0.40000001;stroke-miterlimit:10" />
	
		<line
   id="line44748"
   y2="-41.761002"
   x2="109.748"
   y1="-41.761002"
   x1="103.62"
   stroke-miterlimit="10"
   style="fill:none;stroke:#231f20;stroke-width:0.40000001;stroke-miterlimit:10" />
	<line
   id="line44750"
   y2="-43.202999"
   x2="93.366997"
   y1="-43.202999"
   x1="87.239998"
   stroke-miterlimit="10"
   style="fill:none;stroke:#231f20;stroke-width:0.40000001;stroke-miterlimit:10" />
	
		<line
   id="line44752"
   y2="-43.202999"
   x2="101.977"
   y1="-43.202999"
   x1="95.849998"
   stroke-miterlimit="10"
   style="fill:none;stroke:#231f20;stroke-width:0.40000001;stroke-miterlimit:10" />
	
		<line
   id="line44754"
   y2="-43.202999"
   x2="111.683"
   y1="-43.202999"
   x1="105.555"
   stroke-miterlimit="10"
   style="fill:none;stroke:#231f20;stroke-width:0.40000001;stroke-miterlimit:10" />
	
		<line
   id="line44756"
   y2="-44.504002"
   x2="98.399002"
   y1="-44.504002"
   x1="92.272003"
   stroke-miterlimit="10"
   style="fill:none;stroke:#231f20;stroke-width:0.40000001;stroke-miterlimit:10" />
	
		<line
   id="line44758"
   y2="-44.504002"
   x2="108.105"
   y1="-44.504002"
   x1="101.977"
   stroke-miterlimit="10"
   style="fill:none;stroke:#231f20;stroke-width:0.40000001;stroke-miterlimit:10" />
	
		<line
   id="line44760"
   y2="-45.966"
   x2="91.244003"
   y1="-45.966"
   x1="85.114998"
   stroke-miterlimit="10"
   style="fill:none;stroke:#231f20;stroke-width:0.40000001;stroke-miterlimit:10" />
	
		<line
   id="line44762"
   y2="-47.266998"
   x2="97.371002"
   y1="-47.266998"
   x1="91.244003"
   stroke-miterlimit="10"
   style="fill:none;stroke:#231f20;stroke-width:0.40000001;stroke-miterlimit:10" />
	
		<line
   id="line44764"
   y2="-47.266998"
   x2="107.077"
   y1="-47.266998"
   x1="100.949"
   stroke-miterlimit="10"
   style="fill:none;stroke:#231f20;stroke-width:0.40000001;stroke-miterlimit:10" />
	
		<line
   id="line44766"
   y2="-47.266998"
   x2="115.19"
   y1="-47.266998"
   x1="110.656"
   stroke-miterlimit="10"
   style="fill:none;stroke:#231f20;stroke-width:0.40000001;stroke-miterlimit:10" />
	
		<line
   id="line44768"
   y2="-48.271"
   x2="90.727997"
   y1="-48.271"
   x1="84.600998"
   stroke-miterlimit="10"
   style="fill:none;stroke:#231f20;stroke-width:0.40000001;stroke-miterlimit:10" />
	
		<line
   id="line44770"
   y2="-48.271"
   x2="110.141"
   y1="-48.271"
   x1="104.013"
   stroke-miterlimit="10"
   style="fill:none;stroke:#231f20;stroke-width:0.40000001;stroke-miterlimit:10" />
	
		<line
   id="line44772"
   y2="-49.573002"
   x2="96.858002"
   y1="-49.573002"
   x1="90.727997"
   stroke-miterlimit="10"
   style="fill:none;stroke:#231f20;stroke-width:0.40000001;stroke-miterlimit:10" />
	
		<line
   id="line44774"
   y2="-49.573002"
   x2="106.564"
   y1="-49.573002"
   x1="100.435"
   stroke-miterlimit="10"
   style="fill:none;stroke:#231f20;stroke-width:0.40000001;stroke-miterlimit:10" />
	
		<line
   id="line44776"
   y2="-49.573002"
   x2="116.27"
   y1="-49.573002"
   x1="110.141"
   stroke-miterlimit="10"
   style="fill:none;stroke:#231f20;stroke-width:0.40000001;stroke-miterlimit:10" />
	
		<line
   id="line44778"
   y2="-50.601002"
   x2="114.748"
   y1="-50.601002"
   x1="108.619"
   stroke-miterlimit="10"
   style="fill:none;stroke:#231f20;stroke-width:0.40000001;stroke-miterlimit:10" />
	<line
   id="line44780"
   y2="-51.901001"
   x2="91.758003"
   y1="-51.901001"
   x1="85.629997"
   stroke-miterlimit="10"
   style="fill:none;stroke:#231f20;stroke-width:0.40000001;stroke-miterlimit:10" />
	
		<line
   id="line44782"
   y2="-51.901001"
   x2="101.462"
   y1="-51.901001"
   x1="95.334"
   stroke-miterlimit="10"
   style="fill:none;stroke:#231f20;stroke-width:0.40000001;stroke-miterlimit:10" />
	
		<line
   id="line44784"
   y2="-51.901001"
   x2="111.169"
   y1="-51.901001"
   x1="105.04"
   stroke-miterlimit="10"
   style="fill:none;stroke:#231f20;stroke-width:0.40000001;stroke-miterlimit:10" />
	
		<line
   id="line44786"
   y2="-53.306"
   x2="104.527"
   y1="-53.306"
   x1="98.399002"
   stroke-miterlimit="10"
   style="fill:none;stroke:#231f20;stroke-width:0.40000001;stroke-miterlimit:10" />
	
		<line
   id="line44788"
   y2="-53.306"
   x2="114.234"
   y1="-53.306"
   x1="108.105"
   stroke-miterlimit="10"
   style="fill:none;stroke:#231f20;stroke-width:0.40000001;stroke-miterlimit:10" />
	
		<line
   id="line44790"
   y2="-56.018002"
   x2="87.095001"
   y1="-56.018002"
   x1="82.484001"
   stroke-miterlimit="10"
   style="fill:none;stroke:#231f20;stroke-width:0.40000001;stroke-miterlimit:10" />
	<line
   id="line44792"
   y2="-56.018002"
   x2="94.400002"
   y1="-56.018002"
   x1="89.787003"
   stroke-miterlimit="10"
   style="fill:none;stroke:#231f20;stroke-width:0.40000001;stroke-miterlimit:10" />
	
		<line
   id="line44794"
   y2="-56.018002"
   x2="99.398003"
   y1="-56.018002"
   x1="97.093002"
   stroke-miterlimit="10"
   style="fill:none;stroke:#231f20;stroke-width:0.40000001;stroke-miterlimit:10" />
	
		<line
   id="line44796"
   y2="-49.573002"
   x2="88.926003"
   y1="-49.573002"
   x1="87.085999"
   stroke-miterlimit="10"
   style="fill:none;stroke:#231f20;stroke-width:0.40000001;stroke-miterlimit:10" />
	
		<line
   id="line44798"
   y2="-34.845001"
   x2="59.575001"
   y1="-34.845001"
   x1="53.448002"
   stroke-miterlimit="10"
   style="fill:none;stroke:#231f20;stroke-width:0.40000001;stroke-miterlimit:10" />
	
		<line
   id="line44800"
   y2="-34.845001"
   x2="69.281998"
   y1="-34.845001"
   x1="63.153999"
   stroke-miterlimit="10"
   style="fill:none;stroke:#231f20;stroke-width:0.40000001;stroke-miterlimit:10" />
	
		<line
   id="line44802"
   y2="-36.146999"
   x2="55.997002"
   y1="-36.146999"
   x1="52.221001"
   stroke-miterlimit="10"
   style="fill:none;stroke:#231f20;stroke-width:0.40000001;stroke-miterlimit:10" />
	
		<line
   id="line44804"
   y2="-36.146999"
   x2="75.408997"
   y1="-36.146999"
   x1="69.281998"
   stroke-miterlimit="10"
   style="fill:none;stroke:#231f20;stroke-width:0.40000001;stroke-miterlimit:10" />
	
		<line
   id="line44806"
   y2="-36.146999"
   x2="85.114998"
   y1="-36.146999"
   x1="78.987"
   stroke-miterlimit="10"
   style="fill:none;stroke:#231f20;stroke-width:0.40000001;stroke-miterlimit:10" />
	
		<line
   id="line44808"
   y2="-37.592999"
   x2="59.062"
   y1="-37.592999"
   x1="52.933998"
   stroke-miterlimit="10"
   style="fill:none;stroke:#231f20;stroke-width:0.40000001;stroke-miterlimit:10" />
	
		<line
   id="line44810"
   y2="-37.592999"
   x2="68.768997"
   y1="-37.592999"
   x1="62.639"
   stroke-miterlimit="10"
   style="fill:none;stroke:#231f20;stroke-width:0.40000001;stroke-miterlimit:10" />
	
		<line
   id="line44812"
   y2="-37.592999"
   x2="78.473"
   y1="-37.592999"
   x1="72.345001"
   stroke-miterlimit="10"
   style="fill:none;stroke:#231f20;stroke-width:0.40000001;stroke-miterlimit:10" />
	
		<line
   id="line44814"
   y2="-38.894001"
   x2="65.191002"
   y1="-38.894001"
   x1="59.062"
   stroke-miterlimit="10"
   style="fill:none;stroke:#231f20;stroke-width:0.40000001;stroke-miterlimit:10" />
	
		<line
   id="line44816"
   y2="-38.894001"
   x2="74.894997"
   y1="-38.894001"
   x1="68.768997"
   stroke-miterlimit="10"
   style="fill:none;stroke:#231f20;stroke-width:0.40000001;stroke-miterlimit:10" />
	
		<line
   id="line44818"
   y2="-40.460999"
   x2="55.247002"
   y1="-40.460999"
   x1="51.570999"
   stroke-miterlimit="10"
   style="fill:none;stroke:#231f20;stroke-width:0.40000001;stroke-miterlimit:10" />
	
		<line
   id="line44820"
   y2="-40.460999"
   x2="61.219002"
   y1="-40.460999"
   x1="55.091"
   stroke-miterlimit="10"
   style="fill:none;stroke:#231f20;stroke-width:0.40000001;stroke-miterlimit:10" />
	
		<line
   id="line44822"
   y2="-40.460999"
   x2="84.087997"
   y1="-40.460999"
   x1="77.959"
   stroke-miterlimit="10"
   style="fill:none;stroke:#231f20;stroke-width:0.40000001;stroke-miterlimit:10" />
	
		<line
   id="line44824"
   y2="-41.761002"
   x2="67.346001"
   y1="-41.761002"
   x1="61.219002"
   stroke-miterlimit="10"
   style="fill:none;stroke:#231f20;stroke-width:0.40000001;stroke-miterlimit:10" />
	
		<line
   id="line44826"
   y2="-41.761002"
   x2="77.052002"
   y1="-41.761002"
   x1="70.924004"
   stroke-miterlimit="10"
   style="fill:none;stroke:#231f20;stroke-width:0.40000001;stroke-miterlimit:10" />
	
		<line
   id="line44828"
   y2="-41.761002"
   x2="86.758003"
   y1="-41.761002"
   x1="80.630997"
   stroke-miterlimit="10"
   style="fill:none;stroke:#231f20;stroke-width:0.40000001;stroke-miterlimit:10" />
	
		<line
   id="line44830"
   y2="-43.202999"
   x2="59.575001"
   y1="-43.202999"
   x1="53.448002"
   stroke-miterlimit="10"
   style="fill:none;stroke:#231f20;stroke-width:0.40000001;stroke-miterlimit:10" />
	
		<line
   id="line44832"
   y2="-43.202999"
   x2="69.281998"
   y1="-43.202999"
   x1="63.153999"
   stroke-miterlimit="10"
   style="fill:none;stroke:#231f20;stroke-width:0.40000001;stroke-miterlimit:10" />
	
		<line
   id="line44834"
   y2="-44.504002"
   x2="65.704002"
   y1="-44.504002"
   x1="59.575001"
   stroke-miterlimit="10"
   style="fill:none;stroke:#231f20;stroke-width:0.40000001;stroke-miterlimit:10" />
	
		<line
   id="line44836"
   y2="-44.504002"
   x2="75.408997"
   y1="-44.504002"
   x1="69.281998"
   stroke-miterlimit="10"
   style="fill:none;stroke:#231f20;stroke-width:0.40000001;stroke-miterlimit:10" />
	<line
   id="line44838"
   y2="-43.202999"
   x2="85.629997"
   y1="-43.202999"
   x1="79.501999"
   stroke-miterlimit="10"
   style="fill:none;stroke:#231f20;stroke-width:0.40000001;stroke-miterlimit:10" />
	<line
   id="line44840"
   y2="-45.966"
   x2="58.548"
   y1="-45.966"
   x1="52.419998"
   stroke-miterlimit="10"
   style="fill:none;stroke:#231f20;stroke-width:0.40000001;stroke-miterlimit:10" />
	
		<line
   id="line44842"
   y2="-45.966"
   x2="68.254997"
   y1="-45.966"
   x1="62.125999"
   stroke-miterlimit="10"
   style="fill:none;stroke:#231f20;stroke-width:0.40000001;stroke-miterlimit:10" />
	
		<line
   id="line44844"
   y2="-45.966"
   x2="77.959"
   y1="-45.966"
   x1="71.831001"
   stroke-miterlimit="10"
   style="fill:none;stroke:#231f20;stroke-width:0.40000001;stroke-miterlimit:10" />
	
		<line
   id="line44846"
   y2="-45.966"
   x2="87.666"
   y1="-45.966"
   x1="81.538002"
   stroke-miterlimit="10"
   style="fill:none;stroke:#231f20;stroke-width:0.40000001;stroke-miterlimit:10" />
	
		<line
   id="line44848"
   y2="-47.266998"
   x2="64.677002"
   y1="-47.266998"
   x1="58.548"
   stroke-miterlimit="10"
   style="fill:none;stroke:#231f20;stroke-width:0.40000001;stroke-miterlimit:10" />
	
		<line
   id="line44850"
   y2="-47.266998"
   x2="74.383003"
   y1="-47.266998"
   x1="68.254997"
   stroke-miterlimit="10"
   style="fill:none;stroke:#231f20;stroke-width:0.40000001;stroke-miterlimit:10" />
	
		<line
   id="line44852"
   y2="-47.266998"
   x2="84.087997"
   y1="-47.266998"
   x1="77.959"
   stroke-miterlimit="10"
   style="fill:none;stroke:#231f20;stroke-width:0.40000001;stroke-miterlimit:10" />
	
		<line
   id="line44854"
   y2="-48.271"
   x2="58.034"
   y1="-48.271"
   x1="51.905998"
   stroke-miterlimit="10"
   style="fill:none;stroke:#231f20;stroke-width:0.40000001;stroke-miterlimit:10" />
	
		<line
   id="line44856"
   y2="-56.018002"
   x2="55.571999"
   y1="-56.018002"
   x1="52.173"
   stroke-miterlimit="10"
   style="fill:none;stroke:#231f20;stroke-width:0.40000001;stroke-miterlimit:10" />
	
		<line
   id="line44858"
   y2="-49.573002"
   x2="64.161003"
   y1="-49.573002"
   x1="58.034"
   stroke-miterlimit="10"
   style="fill:none;stroke:#231f20;stroke-width:0.40000001;stroke-miterlimit:10" />
	
		<line
   id="line44860"
   y2="-50.601002"
   x2="62.639"
   y1="-50.601002"
   x1="56.513"
   stroke-miterlimit="10"
   style="fill:none;stroke:#231f20;stroke-width:0.40000001;stroke-miterlimit:10" />
	
		<line
   id="line44862"
   y2="-50.601002"
   x2="72.345001"
   y1="-50.601002"
   x1="66.218002"
   stroke-miterlimit="10"
   style="fill:none;stroke:#231f20;stroke-width:0.40000001;stroke-miterlimit:10" />
	
		<line
   id="line44864"
   y2="-50.601002"
   x2="82.052002"
   y1="-50.601002"
   x1="75.924004"
   stroke-miterlimit="10"
   style="fill:none;stroke:#231f20;stroke-width:0.40000001;stroke-miterlimit:10" />
	
		<line
   id="line44866"
   y2="-51.901001"
   x2="59.062"
   y1="-51.901001"
   x1="52.933998"
   stroke-miterlimit="10"
   style="fill:none;stroke:#231f20;stroke-width:0.40000001;stroke-miterlimit:10" />
	
		<line
   id="line44868"
   y2="-51.901001"
   x2="68.768997"
   y1="-51.901001"
   x1="62.639"
   stroke-miterlimit="10"
   style="fill:none;stroke:#231f20;stroke-width:0.40000001;stroke-miterlimit:10" />
	<line
   id="line44870"
   y2="-56.018002"
   x2="80.950996"
   y1="-56.018002"
   x1="76.339996"
   stroke-miterlimit="10"
   style="fill:none;stroke:#231f20;stroke-width:0.40000001;stroke-miterlimit:10" />
	
		<line
   id="line44872"
   y2="-53.306"
   x2="62.125999"
   y1="-53.306"
   x1="55.997002"
   stroke-miterlimit="10"
   style="fill:none;stroke:#231f20;stroke-width:0.40000001;stroke-miterlimit:10" />
	
		<line
   id="line44874"
   y2="-53.306"
   x2="71.831001"
   y1="-53.306"
   x1="65.704002"
   stroke-miterlimit="10"
   style="fill:none;stroke:#231f20;stroke-width:0.40000001;stroke-miterlimit:10" />
	
		<line
   id="line44876"
   y2="-53.306"
   x2="81.538002"
   y1="-53.306"
   x1="75.408997"
   stroke-miterlimit="10"
   style="fill:none;stroke:#231f20;stroke-width:0.40000001;stroke-miterlimit:10" />
	<line
   id="line44878"
   y2="-53.306"
   x2="88.18"
   y1="-53.306"
   x1="85.114998"
   stroke-miterlimit="10"
   style="fill:none;stroke:#231f20;stroke-width:0.40000001;stroke-miterlimit:10" />
	
		<line
   id="line44880"
   y2="-56.018002"
   x2="62.488998"
   y1="-56.018002"
   x1="57.876999"
   stroke-miterlimit="10"
   style="fill:none;stroke:#231f20;stroke-width:0.40000001;stroke-miterlimit:10" />
	
		<line
   id="line44882"
   y2="-56.018002"
   x2="69.793999"
   y1="-56.018002"
   x1="65.181"
   stroke-miterlimit="10"
   style="fill:none;stroke:#231f20;stroke-width:0.40000001;stroke-miterlimit:10" />
	
		<line
   id="line44884"
   y2="-56.018002"
   x2="74.792"
   y1="-56.018002"
   x1="72.486"
   stroke-miterlimit="10"
   style="fill:none;stroke:#231f20;stroke-width:0.40000001;stroke-miterlimit:10" />
	
		<line
   id="line44886"
   y2="-56.018002"
   x2="113.235"
   y1="-56.018002"
   x1="108.622"
   stroke-miterlimit="10"
   style="fill:none;stroke:#231f20;stroke-width:0.40000001;stroke-miterlimit:10" />
	
		<line
   id="line44888"
   y2="-57.179001"
   x2="82.536003"
   y1="-57.179001"
   x1="77.925003"
   stroke-miterlimit="10"
   style="fill:none;stroke:#231f20;stroke-width:0.40000001;stroke-miterlimit:10" />
	
		<line
   id="line44890"
   y2="-57.179001"
   x2="89.841003"
   y1="-57.179001"
   x1="85.227997"
   stroke-miterlimit="10"
   style="fill:none;stroke:#231f20;stroke-width:0.40000001;stroke-miterlimit:10" />
	
		<line
   id="line44892"
   y2="-57.179001"
   x2="104.449"
   y1="-57.179001"
   x1="99.836998"
   stroke-miterlimit="10"
   style="fill:none;stroke:#231f20;stroke-width:0.40000001;stroke-miterlimit:10" />
	
		<line
   id="line44894"
   y2="-59.886002"
   x2="82.149002"
   y1="-59.886002"
   x1="79.055"
   stroke-miterlimit="10"
   style="fill:none;stroke:#231f20;stroke-width:0.40000001;stroke-miterlimit:10" />
	
		<line
   id="line44896"
   y2="-59.886002"
   x2="89.454002"
   y1="-59.886002"
   x1="84.843002"
   stroke-miterlimit="10"
   style="fill:none;stroke:#231f20;stroke-width:0.40000001;stroke-miterlimit:10" />
	
		<line
   id="line44898"
   y2="-59.886002"
   x2="100.983"
   y1="-59.886002"
   x1="99.450996"
   stroke-miterlimit="10"
   style="fill:none;stroke:#231f20;stroke-width:0.40000001;stroke-miterlimit:10" />
	
		<line
   id="line44900"
   y2="-61.294998"
   x2="86.375"
   y1="-61.294998"
   x1="81.762001"
   stroke-miterlimit="10"
   style="fill:none;stroke:#231f20;stroke-width:0.40000001;stroke-miterlimit:10" />
	<line
   id="line44902"
   y2="-61.294998"
   x2="93.68"
   y1="-61.294998"
   x1="89.068001"
   stroke-miterlimit="10"
   style="fill:none;stroke:#231f20;stroke-width:0.40000001;stroke-miterlimit:10" />
	
		<line
   id="line44904"
   y2="-61.294998"
   x2="98.678001"
   y1="-61.294998"
   x1="96.371002"
   stroke-miterlimit="10"
   style="fill:none;stroke:#231f20;stroke-width:0.40000001;stroke-miterlimit:10" />
	
		<line
   id="line44906"
   y2="-61.294998"
   x2="103.342"
   y1="-61.294998"
   x1="100.946"
   stroke-miterlimit="10"
   style="fill:none;stroke:#231f20;stroke-width:0.40000001;stroke-miterlimit:10" />
	<line
   id="line44908"
   y2="-61.294998"
   x2="54.849998"
   y1="-61.294998"
   x1="51.098999"
   stroke-miterlimit="10"
   style="fill:none;stroke:#231f20;stroke-width:0.40000001;stroke-miterlimit:10" />
	<line
   id="line44910"
   y2="-57.179001"
   x2="57.93"
   y1="-57.179001"
   x1="53.318001"
   stroke-miterlimit="10"
   style="fill:none;stroke:#231f20;stroke-width:0.40000001;stroke-miterlimit:10" />
	<line
   id="line44912"
   y2="-61.294998"
   x2="80.230003"
   y1="-61.294998"
   x1="75.617996"
   stroke-miterlimit="10"
   style="fill:none;stroke:#231f20;stroke-width:0.40000001;stroke-miterlimit:10" />
	
		<line
   id="line44914"
   y2="-59.886002"
   x2="57.542999"
   y1="-59.886002"
   x1="54.449001"
   stroke-miterlimit="10"
   style="fill:none;stroke:#231f20;stroke-width:0.40000001;stroke-miterlimit:10" />
	
		<line
   id="line44916"
   y2="-59.886002"
   x2="64.847"
   y1="-59.886002"
   x1="60.236"
   stroke-miterlimit="10"
   style="fill:none;stroke:#231f20;stroke-width:0.40000001;stroke-miterlimit:10" />
	<line
   id="line44918"
   y2="-59.886002"
   x2="72.152"
   y1="-59.886002"
   x1="67.540001"
   stroke-miterlimit="10"
   style="fill:none;stroke:#231f20;stroke-width:0.40000001;stroke-miterlimit:10" />
	
		<line
   id="line44920"
   y2="-61.294998"
   x2="61.769001"
   y1="-61.294998"
   x1="57.155998"
   stroke-miterlimit="10"
   style="fill:none;stroke:#231f20;stroke-width:0.40000001;stroke-miterlimit:10" />
	
		<line
   id="line44922"
   y2="-61.294998"
   x2="69.071999"
   y1="-61.294998"
   x1="64.460999"
   stroke-miterlimit="10"
   style="fill:none;stroke:#231f20;stroke-width:0.40000001;stroke-miterlimit:10" />
	
		<line
   id="line44924"
   y2="-61.294998"
   x2="74.071999"
   y1="-61.294998"
   x1="71.765999"
   stroke-miterlimit="10"
   style="fill:none;stroke:#231f20;stroke-width:0.40000001;stroke-miterlimit:10" />
	
		<line
   id="line44926"
   y2="-57.179001"
   x2="115.978"
   y1="-57.179001"
   x1="111.368"
   stroke-miterlimit="10"
   style="fill:none;stroke:#231f20;stroke-width:0.40000001;stroke-miterlimit:10" />
	
		<line
   id="line44928"
   y2="-59.886002"
   x2="108.289"
   y1="-59.886002"
   x1="105.195"
   stroke-miterlimit="10"
   style="fill:none;stroke:#231f20;stroke-width:0.40000001;stroke-miterlimit:10" />
	
		<line
   id="line44930"
   y2="-59.886002"
   x2="115.593"
   y1="-59.886002"
   x1="110.981"
   stroke-miterlimit="10"
   style="fill:none;stroke:#231f20;stroke-width:0.40000001;stroke-miterlimit:10" />
	
		<line
   id="line44932"
   y2="-61.294998"
   x2="112.514"
   y1="-61.294998"
   x1="107.902"
   stroke-miterlimit="10"
   style="fill:none;stroke:#231f20;stroke-width:0.40000001;stroke-miterlimit:10" />
</g><line
     id="line44934"
     y2="-33.683998"
     x2="64.990997"
     y1="-33.683998"
     x1="18.215"
     stroke-miterlimit="10"
     style="fill:none;stroke:#000000;stroke-width:0.75;stroke-miterlimit:10" /><line
     id="line44936"
     y2="-70.635002"
     x2="49.077"
     y1="-70.635002"
     x1="21.715"
     stroke-miterlimit="10"
     style="fill:none;stroke:#000000;stroke-width:0.75;stroke-miterlimit:10" /><text
     id="text44938"
     font-size="10"
     transform="translate(186.0803,-56.0178)"
     style="font-size:10px;font-family:TimesNewRomanPSMT">Support</text>
<text
     id="text44940"
     font-size="10"
     transform="translate(-10.0349,-68.885)"
     style="font-size:10px;font-family:TimesNewRomanPSMT">Tin can</text>
<text
     id="text44942"
     font-size="10"
     transform="translate(-6.6726,-30.9719)"
     style="font-size:10px;font-family:TimesNewRomanPSMT">Water</text>
<text
     id="text44944"
     font-size="10"
     transform="translate(6.8274,10.0198)"
     style="font-size:10px;font-family:TimesNewRomanPSMT">Stand</text>
<text
     id="text44946"
     font-size="10"
     transform="translate(75.7664,26.5315)"
     style="font-size:10px;font-family:TimesNewRomanPSMT">Heat</text>
<polyline
     id="polyline44948"
     points="31.049,26.531 40.215,26.531 51.051,-3.92   117.087,-3.92 126.882,26.531 134.215,26.531 "
     stroke-miterlimit="10"
     style="fill:none;stroke:#231f20;stroke-width:2;stroke-miterlimit:10" /><g
     id="g44950">
	<polygon
   id="polygon44952"
   points="61.719,-1.122 65.539,8.52 57.898,8.52 "
   style="fill:#231f20" />
	<line
   id="line44954"
   y2="18.74"
   x2="61.548"
   y1="7.4899998"
   x1="61.548"
   stroke-miterlimit="10"
   style="fill:none;stroke:#231f20;stroke-width:2;stroke-miterlimit:10" />
</g><g
     id="g44956">
	<polygon
   id="polygon44958"
   points="76.646,-1.122 80.467,8.52 72.825,8.52 "
   style="fill:#231f20" />
	<line
   id="line44960"
   y2="18.74"
   x2="76.474998"
   y1="7.4899998"
   x1="76.474998"
   stroke-miterlimit="10"
   style="fill:none;stroke:#231f20;stroke-width:2;stroke-miterlimit:10" />
</g><g
     id="g44962">
	<polygon
   id="polygon44964"
   points="91.573,-1.122 95.394,8.52 87.752,8.52 "
   style="fill:#231f20" />
	<line
   id="line44966"
   y2="18.74"
   x2="91.402"
   y1="7.4899998"
   x1="91.402"
   stroke-miterlimit="10"
   style="fill:none;stroke:#231f20;stroke-width:2;stroke-miterlimit:10" />
</g><g
     id="g44968">
	<polygon
   id="polygon44970"
   points="106.5,-1.122 110.321,8.52 102.68,8.52 "
   style="fill:#231f20" />
	<line
   id="line44972"
   y2="18.74"
   x2="106.329"
   y1="7.4899998"
   x1="106.329"
   stroke-miterlimit="10"
   style="fill:none;stroke:#231f20;stroke-width:2;stroke-miterlimit:10" />
</g><rect
     id="rect44974"
     height="189.875"
     width="5"
     stroke-miterlimit="10"
     y="-170.13499"
     x="165.68401"
     style="fill:#ffffff;stroke:#231f20;stroke-width:2;stroke-miterlimit:10" /><rect
     id="rect44976"
     height="6.572"
     width="51.799999"
     stroke-miterlimit="10"
     y="19.35"
     x="142.283"
     style="fill:#ffffff;stroke:#231f20;stroke-width:2;stroke-miterlimit:10" /><line
     id="line44978"
     y2="8.5200005"
     x2="31.049"
     y1="8.5200005"
     x1="46.624001"
     stroke-miterlimit="10"
     style="fill:none;stroke:#000000;stroke-width:0.75;stroke-miterlimit:10" /><rect
     id="rect44980"
     height="2.3340001"
     width="107.309"
     stroke-miterlimit="10"
     y="-117.868"
     x="73.107002"
     style="fill:#ffffff;stroke:#000000;stroke-miterlimit:10" /><rect
     id="rect44982"
     height="2.335"
     width="127.581"
     stroke-miterlimit="10"
     transform="matrix(-0.4287,0.9035,-0.9035,-0.4287,33.2006,-229.1915)"
     y="-105.265"
     x="25.277"
     style="fill:none;stroke:#000000;stroke-miterlimit:10" /><path
     id="path44984"
     d="m 172.09,-115.51 c 0,0.552 -0.447,1 -1,1 h -6 c -0.553,0 -1,-0.448 -1,-1 v -2.507 c 0,-0.552 0.447,-1 1,-1 h 6 c 0.553,0 1,0.448 1,1 v 2.507 z"
     stroke-miterlimit="10"
     inkscape:connector-curvature="0"
     style="fill:#ffffff;stroke:#000000;stroke-miterlimit:10" /><g
     id="g44986">
	<polygon
   id="polygon44988"
   points="141.163,-140.756 78.619,-53.558 77.334,-49.764 81.148,-53.079 143.061,-139.395 "
   stroke-miterlimit="10"
   style="fill:none;stroke:#000000;stroke-miterlimit:10" />
	
		<ellipse
   id="ellipse44990"
   ry="3.704"
   rx="0.72399998"
   cy="-140.342"
   cx="142.30299"
   stroke-miterlimit="10"
   transform="matrix(0.5827,-0.8127,0.8127,0.5827,173.4357,57.0835)"
   sodipodi:cx="142.30299"
   sodipodi:cy="-140.342"
   sodipodi:rx="0.72399998"
   sodipodi:ry="3.704"
   style="fill:#ffffff;stroke:#000000;stroke-width:0.5;stroke-miterlimit:10"
   d="m 143.02699,-140.342 c 0,2.04567 -0.32414,3.704 -0.724,3.704 -0.39985,0 -0.724,-1.65833 -0.724,-3.704 0,-2.04566 0.32415,-3.704 0.724,-3.704 0.39986,0 0.724,1.65834 0.724,3.704 z" />
	
		<ellipse
   id="ellipse44992"
   ry="3.7030001"
   rx="0.72399998"
   cy="-140.664"
   cx="142.534"
   stroke-miterlimit="10"
   transform="matrix(0.5829,-0.8126,0.8126,0.5829,173.7551,57.1433)"
   sodipodi:cx="142.534"
   sodipodi:cy="-140.664"
   sodipodi:rx="0.72399998"
   sodipodi:ry="3.7030001"
   style="fill:#ffffff;stroke:#000000;stroke-width:0.5;stroke-miterlimit:10"
   d="m 143.258,-140.664 c 0,2.04511 -0.32415,3.703 -0.724,3.703 -0.39986,0 -0.724,-1.65789 -0.724,-3.703 0,-2.04511 0.32414,-3.703 0.724,-3.703 0.39985,0 0.724,1.65789 0.724,3.703 z" />
</g><g
     id="g44994">
	<path
   id="path44996"
   d="m 96.353,-117.07 c 1.034,3.139 0.831,6.027 -0.456,6.451 -1.287,0.424 -0.577,-1.75 -1.611,-4.89 -1.034,-3.14 -3.421,-6.053 -2.135,-6.478 1.287,-0.422 3.168,1.778 4.202,4.917 z"
   stroke-miterlimit="10"
   inkscape:connector-curvature="0"
   style="fill:#ffffff;stroke:#000000;stroke-miterlimit:10" />
	<line
   id="line44998"
   y2="-120.331"
   x2="95.477997"
   y1="-117.51"
   x1="92.528"
   stroke-miterlimit="10"
   style="fill:none;stroke:#000000;stroke-miterlimit:10" />
	<line
   id="line45000"
   y2="-117.729"
   x2="96.653"
   y1="-115.198"
   x1="93.589996"
   stroke-miterlimit="10"
   style="fill:none;stroke:#000000;stroke-miterlimit:10" />
	<line
   id="line45002"
   y2="-114.604"
   x2="97.589996"
   y1="-112.847"
   x1="94.511002"
   stroke-miterlimit="10"
   style="fill:none;stroke:#000000;stroke-miterlimit:10" />
</g><g
     id="g45004">
	<path
   id="path45006"
   d="m 127.104,-117.07 c 1.034,3.139 0.831,6.027 -0.455,6.451 -1.287,0.424 -0.577,-1.75 -1.611,-4.89 -1.035,-3.139 -3.422,-6.053 -2.135,-6.478 1.286,-0.422 3.166,1.778 4.201,4.917 z"
   stroke-miterlimit="10"
   inkscape:connector-curvature="0"
   style="fill:#ffffff;stroke:#000000;stroke-miterlimit:10" />
	<line
   id="line45008"
   y2="-120.331"
   x2="126.229"
   y1="-117.51"
   x1="123.278"
   stroke-miterlimit="10"
   style="fill:none;stroke:#000000;stroke-miterlimit:10" />
	<line
   id="line45010"
   y2="-117.729"
   x2="127.403"
   y1="-115.198"
   x1="124.34"
   stroke-miterlimit="10"
   style="fill:none;stroke:#000000;stroke-miterlimit:10" />
	<line
   id="line45012"
   y2="-114.604"
   x2="128.34"
   y1="-112.847"
   x1="125.262"
   stroke-miterlimit="10"
   style="fill:none;stroke:#000000;stroke-miterlimit:10" />
</g><path
     id="path45014"
     d="m 109.075,-139.381 c 0,1.743 -2.333,2.781 -3.023,2.781 -0.69,0 2.063,-3.156 1.063,-3.104 -1.741,0.092 0.15,-4.153 0.841,-4.153 0.423,0 2.033,-0.71 2.233,0.377 0.126,0.687 -1.114,3.425 -1.114,4.099 z"
     stroke-miterlimit="10"
     inkscape:connector-curvature="0"
     style="stroke:#000000;stroke-miterlimit:10" /><path
     id="path45016"
     d="m 133.699,-123.113 c 0,1.743 -2.333,2.781 -3.023,2.781 -0.69,0 2.063,-3.156 1.063,-3.104 -1.741,0.092 0.15,-4.153 0.841,-4.153 0.423,0 2.033,-0.71 2.233,0.377 0.126,0.687 -1.114,3.425 -1.114,4.099 z"
     stroke-miterlimit="10"
     inkscape:connector-curvature="0"
     style="stroke:#000000;stroke-miterlimit:10" /><polyline
     id="polyline45018"
     points="110.981,-156.135 106.742,-168.385   66.766,-168.385 "
     stroke-miterlimit="10"
     style="fill:none;stroke:#000000;stroke-width:0.5;stroke-miterlimit:10" /><polyline
     id="polyline45020"
     points="142.303,-144.084 142.303,-173.969   154.115,-179.323 "
     stroke-miterlimit="10"
     style="fill:none;stroke:#000000;stroke-width:0.5;stroke-miterlimit:10" /><line
     id="line45022"
     y2="-58.179001"
     x2="186.08"
     y1="-58.179001"
     x1="172.09"
     stroke-miterlimit="10"
     style="fill:none;stroke:#000000;stroke-width:0.5;stroke-miterlimit:10" /><polyline
     id="polyline45024"
     points="108.069,-141.42 46.624,-124.073   132.693,-124.94 "
     stroke-miterlimit="10"
     style="fill:none;stroke:#000000;stroke-width:0.5;stroke-miterlimit:10" /><polyline
     id="polyline45026"
     points="128.34,-113.725 52.173,-95.26   95.121,-116.764 "
     stroke-miterlimit="10"
     style="fill:none;stroke:#000000;stroke-width:0.5;stroke-miterlimit:10" /><text
     id="text45028"
     font-size="10"
     transform="translate(24.052,-91.7366)"
     style="font-size:10px;font-family:TimesNewRomanPSMT">String</text>
<text
     id="text45030"
     font-size="10"
     transform="translate(25.6082,-120.3313)"
     style="font-size:10px;font-family:TimesNewRomanPSMT">Wax</text>
<text
     id="text45032"
     font-size="10"
     transform="translate(10.6921,-165.8567)"
     style="font-size:10px;font-family:TimesNewRomanPSMT">Biro pen tube</text>
<text
     id="text45034"
     font-size="10"
     transform="translate(156.6067,-177.5295)"
     style="font-size:10px;font-family:TimesNewRomanPSMT">Nail</text>
</g></svg>