<?xml version="1.0" encoding="UTF-8" standalone="no"?>
<!-- Generator: Adobe Illustrator 16.0.0, SVG Export Plug-In . SVG Version: 6.00 Build 0)  -->

<svg
   xmlns:dc="http://purl.org/dc/elements/1.1/"
   xmlns:cc="http://creativecommons.org/ns#"
   xmlns:rdf="http://www.w3.org/1999/02/22-rdf-syntax-ns#"
   xmlns:svg="http://www.w3.org/2000/svg"
   xmlns="http://www.w3.org/2000/svg"
   xmlns:sodipodi="http://sodipodi.sourceforge.net/DTD/sodipodi-0.dtd"
   xmlns:inkscape="http://www.inkscape.org/namespaces/inkscape"
   version="1.0"
   id="Layer_1"
   x="0px"
   y="0px"
   viewBox="0 0 598.875 259.58126"
   enable-background="new 0 0 437 54"
   xml:space="preserve"
   inkscape:version="0.48.4 r9939"
   width="100%"
   height="100%"
   sodipodi:docname="canvas.svg"><metadata
   id="metadata110"><rdf:RDF><cc:Work
       rdf:about=""><dc:format>image/svg+xml</dc:format><dc:type
         rdf:resource="http://purl.org/dc/dcmitype/StillImage" /><dc:title></dc:title></cc:Work></rdf:RDF></metadata><defs
   id="defs108" /><sodipodi:namedview
   pagecolor="#ffffff"
   bordercolor="#666666"
   borderopacity="1"
   objecttolerance="10"
   gridtolerance="10"
   guidetolerance="10"
   inkscape:pageopacity="0"
   inkscape:pageshadow="2"
   inkscape:window-width="792"
   inkscape:window-height="578"
   id="namedview106"
   showgrid="false"
   inkscape:zoom="0.65446224"
   inkscape:cx="407.38529"
   inkscape:cy="110.9671"
   inkscape:window-x="132"
   inkscape:window-y="6"
   inkscape:window-maximized="0"
   inkscape:current-layer="Layer_1"
   fit-margin-top="0"
   fit-margin-left="0"
   fit-margin-right="0"
   fit-margin-bottom="0"
   showborder="false"
   inkscape:showpageshadow="false" />

<g
   transform="translate(-5.15625,-257.44999)"
   id="Layer_3"><g
     id="g10"><path
       style="fill:#5d5e5e"
       inkscape:connector-curvature="0"
       d="m 15.167,512.499 c 24.667,-0.666 61.333,-6 84,-16 16,-7.333 26,-24 40.667,-34 8.667,-5.333 18,-10 25.333,-16.666 6.667,-7.334 11.333,-13.334 18.667,-19.334 30.667,-22 52.667,-53.333 88.667,-67.333 14.667,-6 28,-5.333 43.333,-6 6.667,0 16,-2.667 22.667,-0.667 8.666,2.667 13.333,11.333 22.666,14 20,7.333 32,14 44,33.333 8.667,14.666 15.334,30 24,44 9.334,15.333 24.667,10 39.334,20 8,5.333 10,14 16.666,19.333 5.334,4.667 18.667,8 26,11.333 14.667,5.334 25.334,9.334 38.667,17.334"
       id="path12" /><g
       id="g14"><g
         id="g16"><path
           inkscape:connector-curvature="0"
           d="m 15.167,512.499 c 4.032,0.854 6.808,1.283 11.617,0.954 0.651,-0.048 1.628,-0.12 2.839,-0.21 0.604,-0.053 1.268,-0.11 1.979,-0.173 0.814,-0.077 1.635,-0.154 2.463,-0.232 1.103,-0.098 2.211,-0.214 3.327,-0.345 2.234,-0.243 4.5,-0.501 6.791,-0.813 4.588,-0.577 9.281,-1.328 14.073,-2.146 4.781,-0.887 9.668,-1.813 14.598,-3.006 2.475,-0.544 4.942,-1.238 7.443,-1.871 2.479,-0.73 4.996,-1.393 7.487,-2.237 5.005,-1.637 10.012,-3.356 14.938,-5.956 4.836,-2.665 9.168,-6.146 13.215,-9.858 4.045,-3.727 7.813,-7.711 11.69,-11.548 3.852,-3.845 7.884,-7.548 12.224,-10.634 l 0.807,-0.585 0.869,-0.526 1.741,-1.049 3.543,-2.091 c 2.378,-1.389 4.761,-2.797 7.129,-4.243 2.358,-1.473 4.698,-2.987 6.956,-4.642 1.108,-0.859 2.266,-1.642 3.316,-2.584 l 1.605,-1.364 0.446,-0.379 0.404,-0.451 0.683,-0.767 c 1.818,-2.036 3.631,-4.067 5.438,-6.092 0.901,-1.003 1.8,-2.005 2.697,-3.004 0.928,-0.956 1.853,-1.909 2.777,-2.86 l 1.383,-1.425 c 0.463,-0.471 0.969,-0.878 1.45,-1.319 0.972,-0.867 1.941,-1.732 2.909,-2.596 l 0.724,-0.647 c 0.254,-0.208 0.529,-0.401 0.793,-0.603 l 1.595,-1.192 c 1.062,-0.794 2.121,-1.586 3.176,-2.376 8.378,-6.512 16.002,-13.468 23.266,-20.145 7.257,-6.687 14.169,-13.109 20.967,-18.798 6.785,-5.701 13.462,-10.648 19.908,-14.681 6.482,-3.979 12.723,-6.968 18.384,-9.275 2.853,-1.019 5.475,-2.1 8.021,-2.669 0.629,-0.167 1.245,-0.331 1.848,-0.491 0.6,-0.171 1.192,-0.315 1.784,-0.408 1.174,-0.218 2.292,-0.425 3.353,-0.622 1.054,-0.226 2.08,-0.309 3.034,-0.433 0.956,-0.116 1.851,-0.224 2.683,-0.325 1.67,-0.173 3.104,-0.241 4.256,-0.337 1.152,-0.094 2.039,-0.143 2.64,-0.161 0.599,-0.026 0.906,-0.039 0.906,-0.039 0,0 0.899,-0.039 3.285,-0.143 2.402,-0.079 6.303,-0.206 12.294,-0.402 3.12,-0.108 6.641,-0.671 10.664,-1.09 2.009,-0.2 4.152,-0.358 6.379,-0.253 2.257,0.07 4.426,0.575 6.678,1.684 2.244,1.086 4.429,2.763 6.747,4.665 2.325,1.907 4.807,4.091 7.911,5.924 1.563,0.887 3.254,1.718 5.113,2.262 0.809,0.3 1.628,0.604 2.458,0.912 0.859,0.317 1.726,0.646 2.594,0.996 3.496,1.358 7.12,2.888 10.78,4.748 h 10e-4 c 4.661,2.347 11.45,6.274 18.006,13.337 3.274,3.507 6.483,7.788 9.495,12.63 1.408,2.52 2.866,5.127 4.368,7.814 0.741,1.352 1.531,2.693 2.264,4.108 0.735,1.412 1.481,2.844 2.236,4.294 3.022,5.786 6.192,11.919 9.607,18.202 1.793,3.106 3.618,6.268 5.469,9.475 1.988,3.269 4.696,6.368 8.097,8.549 3.381,2.222 7.238,3.503 11.001,4.482 3.777,0.995 7.534,1.802 11.132,3.016 3.598,1.189 7.024,2.83 10.115,4.978 3.057,2.079 5.382,5.063 7.558,8.292 2.183,3.213 4.308,6.779 7.445,9.672 0.772,0.684 1.584,1.374 2.456,2.005 0.444,0.289 0.885,0.596 1.333,0.868 l 1.355,0.775 c 1.821,0.967 3.673,1.773 5.525,2.53 3.707,1.499 7.438,2.755 11.069,4.08 1.815,0.66 3.609,1.335 5.314,2.088 l 0.321,0.139 0.106,0.047 0.17,0.066 0.17,0.063 0.677,0.25 1.351,0.5 c 0.9,0.334 1.798,0.666 2.693,0.998 1.792,0.663 3.575,1.323 5.349,1.979 1.746,0.706 3.482,1.408 5.209,2.105 1.715,0.72 3.466,1.344 5.121,2.128 0.566,0.267 1.13,0.53 1.688,0.793 0.535,0.251 1.055,0.495 1.552,0.728 1.991,0.93 3.629,1.695 4.545,2.123 4.194,2.221 6.771,3.094 10.792,4.168 -2.998,-2.786 -5.128,-4.646 -9.384,-6.952 -0.932,-0.44 -2.599,-1.228 -4.625,-2.184 -0.507,-0.238 -1.036,-0.487 -1.582,-0.744 -0.569,-0.268 -1.144,-0.537 -1.722,-0.809 -1.689,-0.799 -3.454,-1.43 -5.194,-2.159 -1.75,-0.707 -3.509,-1.418 -5.278,-2.133 -1.782,-0.66 -3.573,-1.323 -5.373,-1.99 -0.9,-0.333 -1.802,-0.667 -2.706,-1.002 l -1.357,-0.502 -0.68,-0.252 -0.17,-0.063 c -0.045,-0.017 -0.007,-0.004 0.002,10e-4 0.023,0.011 -0.043,-0.019 -0.06,-0.025 l -0.344,-0.149 c -1.829,-0.807 -3.669,-1.496 -5.51,-2.166 -3.679,-1.341 -7.377,-2.589 -10.965,-4.04 -1.787,-0.729 -3.553,-1.502 -5.219,-2.387 l -1.215,-0.694 c -0.396,-0.241 -0.765,-0.501 -1.149,-0.749 -0.729,-0.528 -1.426,-1.119 -2.136,-1.745 -2.719,-2.49 -4.732,-5.802 -6.974,-9.124 -2.226,-3.308 -4.847,-6.712 -8.347,-9.097 -3.388,-2.357 -7.117,-4.128 -10.932,-5.391 -3.81,-1.281 -7.659,-2.104 -11.324,-3.071 -3.666,-0.953 -7.152,-2.142 -10.098,-4.081 -2.967,-1.913 -5.291,-4.553 -7.129,-7.555 -1.826,-3.164 -3.627,-6.283 -5.396,-9.35 -3.391,-6.236 -6.538,-12.324 -9.58,-18.146 -0.758,-1.454 -1.506,-2.89 -2.244,-4.307 -0.734,-1.418 -1.54,-2.79 -2.29,-4.156 -1.524,-2.726 -3.004,-5.369 -4.434,-7.924 -3.129,-5.031 -6.437,-9.443 -9.88,-13.135 -3.431,-3.694 -6.965,-6.618 -10.227,-8.876 -3.256,-2.28 -6.242,-3.882 -8.657,-5.117 l 0,0 c -3.794,-1.926 -7.506,-3.491 -11.055,-4.87 -0.886,-0.355 -1.763,-0.688 -2.631,-1.01 -0.434,-0.163 -0.865,-0.324 -1.293,-0.484 l -0.64,-0.24 -0.318,-0.119 -0.404,-0.136 c -1.59,-0.462 -3.054,-1.184 -4.442,-1.968 -2.762,-1.625 -5.143,-3.697 -7.502,-5.638 -2.366,-1.938 -4.743,-3.787 -7.353,-5.055 -0.663,-0.296 -1.292,-0.628 -1.972,-0.845 -0.334,-0.12 -0.666,-0.238 -0.994,-0.355 -0.335,-0.105 -0.684,-0.18 -1.021,-0.269 -1.355,-0.328 -2.664,-0.473 -3.913,-0.532 -2.5,-0.117 -4.771,0.06 -6.852,0.265 -4.159,0.437 -7.601,0.982 -10.474,1.078 -5.983,0.196 -9.879,0.324 -12.279,0.403 -2.415,0.105 -3.325,0.145 -3.325,0.145 0,0 -0.312,0.013 -0.917,0.04 -0.605,0.018 -1.506,0.068 -2.688,0.164 -1.181,0.098 -2.639,0.167 -4.357,0.345 -0.859,0.104 -1.784,0.215 -2.771,0.334 -0.986,0.128 -2.04,0.214 -3.142,0.448 -4.432,0.693 -9.789,2.064 -15.664,4.371 -5.798,2.359 -12.229,5.44 -18.867,9.516 -6.6,4.127 -13.404,9.172 -20.271,14.94 -6.88,5.757 -13.832,12.216 -21.078,18.892 -7.253,6.666 -14.815,13.561 -23.069,19.974 -1.053,0.786 -2.108,1.576 -3.167,2.367 l -1.59,1.189 c -0.264,0.201 -0.534,0.39 -0.794,0.603 l -0.766,0.681 c -1.021,0.908 -2.044,1.819 -3.07,2.732 -0.505,0.463 -1.043,0.902 -1.521,1.387 l -1.423,1.466 c -0.95,0.978 -1.901,1.959 -2.855,2.941 -0.907,1.01 -1.815,2.021 -2.726,3.036 -1.804,2.021 -3.616,4.05 -5.432,6.084 l -0.679,0.762 -0.279,0.313 -0.335,0.284 -1.521,1.291 c -0.987,0.89 -2.106,1.644 -3.164,2.465 -2.166,1.588 -4.442,3.062 -6.751,4.503 -2.328,1.422 -4.688,2.816 -7.068,4.206 l -3.578,2.111 -1.8,1.085 -0.898,0.546 -0.869,0.626 c -9.296,6.604 -16.384,15.219 -24.271,22.465 -3.939,3.614 -8.077,6.923 -12.593,9.411 -4.508,2.387 -9.524,4.139 -14.394,5.722 -2.437,0.827 -4.917,1.479 -7.352,2.197 -2.465,0.623 -4.892,1.307 -7.336,1.845 -4.862,1.177 -9.696,2.093 -14.425,2.971 -4.742,0.808 -9.388,1.553 -13.932,2.124 -2.269,0.31 -4.512,0.565 -6.724,0.807 -1.105,0.13 -2.203,0.245 -3.293,0.342 -0.819,0.077 -1.632,0.154 -2.438,0.23 -0.703,0.063 -1.359,0.122 -1.958,0.176 -1.198,0.095 -2.164,0.171 -2.808,0.222 -4.753,0.375 -7.413,1.021 -11.387,2.159 z"
           id="path18" /></g></g></g><g
     id="g20"><path
       style="fill:none;stroke:#000000;stroke-width:2;stroke-miterlimit:10"
       inkscape:connector-curvature="0"
       stroke-miterlimit="10"
       d="m 34.5,478.5 c 0,0 56,-1.746 101,-51.373"
       id="path22" /><polygon
       style="fill:#220c0d;stroke:#0f0d0d;stroke-width:2;stroke-miterlimit:10"
       stroke-miterlimit="10"
       points="132.5,422 140,432.127 148,416 "
       id="polygon24" /></g><g
     id="g26"><path
       style="fill:none;stroke:#000000;stroke-width:2;stroke-miterlimit:10"
       inkscape:connector-curvature="0"
       stroke-miterlimit="10"
       d="m 287.121,326.207 c 0,0 42.271,-5.294 79.623,13.714"
       id="path28" /><polygon
       style="fill:#220c0d;stroke:#0f0d0d;stroke-width:2;stroke-miterlimit:10"
       stroke-miterlimit="10"
       points="364.846,342.722 369.781,337.016 376.935,343.918 "
       id="polygon30" /></g><g
     id="g32"><path
       style="fill:none;stroke:#000000;stroke-width:2;stroke-miterlimit:10"
       inkscape:connector-curvature="0"
       stroke-miterlimit="10"
       d="m 455.014,432.127 c 0,0 20.743,31.486 60.662,42.33"
       id="path34" /><polygon
       style="fill:#220c0d;stroke:#0f0d0d;stroke-width:2;stroke-miterlimit:10"
       stroke-miterlimit="10"
       points="517.08,471.206 514.864,478.53 525.482,478.269 "
       id="polygon36" /></g><path
     style="fill:none;stroke:#000000;stroke-width:2;stroke-miterlimit:10"
     inkscape:connector-curvature="0"
     stroke-miterlimit="10"
     d="m 405,368 c 0,0 15,39.5 36,52.5"
     id="path38" /><g
     id="g40"><g
       id="g42"><g
         id="g44"><path
           inkscape:connector-curvature="0"
           d="m 210.5,287.667 c -2.011,-0.43 -3.309,-0.78 -5.629,-1.098 -0.306,-0.053 -0.769,-0.117 -1.315,-0.232 -0.276,-0.05 -0.569,-0.12 -0.878,-0.194 l -0.117,-0.028 c -0.297,-0.08 -0.787,-0.204 -1.149,-0.34 -0.393,-0.131 -0.777,-0.288 -1.115,-0.474 -0.371,-0.187 -0.592,-0.358 -0.87,-0.663 -1.062,-1.167 -1.783,-2.873 -1.827,-4.512 -0.012,-0.813 0.147,-1.625 0.599,-2.201 0.444,-0.586 1.103,-0.944 1.938,-1.09 1.67,-0.313 3.66,0.064 5.712,-0.083 0.273,-0.025 0.52,-0.019 0.859,-0.116 0.165,-0.053 0.304,-0.048 0.487,-0.157 0.175,-0.098 0.355,-0.205 0.509,-0.325 0.123,-0.139 0.242,-0.286 0.354,-0.436 0.114,-0.152 0.144,-0.265 0.219,-0.4 0.141,-0.274 0.22,-0.493 0.316,-0.726 0.401,-0.93 0.682,-1.798 1.2,-2.377 1.019,-1.232 2.905,-1.314 4.597,-0.771 0.874,0.276 1.636,0.62 2.5,1.154 l 1.214,0.8 0.596,0.397 c 0.076,-0.162 0.098,-0.453 0.149,-0.673 0.137,-0.749 0.273,-1.496 0.409,-2.241 0.168,-0.93 0.312,-1.817 0.713,-2.463 0.386,-0.655 0.965,-1.184 1.739,-1.551 1.458,-0.802 3.282,-1.179 4.772,-0.943 0.358,0.083 0.714,0.175 0.984,0.357 l 0.108,0.06 0.218,0.248 c 0.151,0.185 0.293,0.315 0.452,0.544 0.507,1.371 1.013,2.737 1.518,4.1 l 0.524,1.427 0.261,0.713 c 0.036,0.119 0,-0.067 0.003,-0.09 l -0.018,-0.183 -0.037,-0.365 -0.07,-0.691 c -0.055,-0.543 -0.109,-1.085 -0.164,-1.625 -0.077,-0.77 -0.154,-1.537 -0.231,-2.301 l -0.03,-0.303 -0.009,-0.223 -0.018,-0.442 -0.035,-0.883 c -0.021,-0.241 0.045,-0.347 0.064,-0.527 l 0.044,-0.244 0.027,-0.12 c 0.028,-0.14 0.073,-0.279 0.12,-0.417 0.082,-0.279 0.196,-0.55 0.308,-0.821 0.242,-0.536 0.514,-1.06 0.84,-1.542 0.631,-0.976 1.42,-1.818 2.254,-2.406 0.437,-0.279 0.809,-0.467 1.287,-0.566 0.478,-0.109 0.978,-0.17 1.458,-0.207 0.96,-0.06 1.863,0.011 2.558,0.205 0.158,0.062 0.36,0.085 0.47,0.168 l 0.184,0.103 0.092,0.047 0.046,0.022 0.006,0.003 0.06,0.042 0.009,0.008 0.018,0.016 c 0.095,0.089 0.198,0.152 0.288,0.238 0.082,0.101 0.161,0.198 0.237,0.291 0.278,0.437 0.483,0.917 0.661,1.279 0.084,0.178 0.182,0.343 0.242,0.458 0.058,0.113 0.108,0.196 0.173,0.265 0.118,0.129 -0.084,-0.061 -0.194,-0.304 v 0 c 0.056,0.179 0.428,0.571 0.669,0.875 0.133,0.161 0.311,0.295 0.463,0.443 l 0.237,0.218 c 0.04,0.031 0.08,0.084 0.119,0.097 l 0.114,-0.108 c 0.304,-0.287 0.609,-0.564 0.904,-0.912 l 0.3,-0.343 0.216,-0.262 c 0.568,-0.696 1.091,-1.367 1.658,-1.928 0.563,-0.562 1.168,-1.006 1.794,-1.205 0.621,-0.208 1.282,-0.124 1.924,0.119 1.167,0.441 1.766,1.853 2.186,3.282 0.22,0.72 0.41,1.463 0.664,2.214 l 0.097,0.282 0.209,0.485 c 0.141,0.336 0.298,0.664 0.457,0.989 l 0.118,0.244 c 0.044,0.065 0.145,-0.062 0.215,-0.083 l 0.462,-0.279 c 0.311,-0.179 0.609,-0.375 0.899,-0.584 1.388,-1.042 2.089,-2.344 2.861,-3.378 0.742,-1.064 1.552,-1.809 2.533,-2.135 0.948,-0.333 2.115,-0.293 2.766,0.062 0.667,0.37 1.049,1.211 1.342,2.104 0.15,0.462 0.294,0.909 0.434,1.34 0.08,0.225 0.157,0.446 0.234,0.663 l 0.134,0.325 c 0.048,0.109 0.074,0.19 0.173,0.393 0.203,0.348 0.401,0.688 0.595,1.021 0.212,0.322 0.419,0.638 0.623,0.946 0.094,0.289 0.201,-0.069 0.304,-0.192 0.104,-0.166 0.207,-0.33 0.308,-0.492 0.207,-0.34 0.403,-0.641 0.591,-0.9 0.226,-0.331 0.296,-0.414 0.393,-0.54 0.098,-0.123 0.193,-0.242 0.286,-0.358 0.188,-0.229 0.372,-0.439 0.55,-0.627 0.351,-0.384 0.679,-0.678 0.951,-0.917 0.553,-0.471 0.911,-0.657 0.996,-0.713 0.089,-0.042 -0.091,0.028 -0.535,0.351 0.437,-0.32 0.887,-0.575 1.312,-0.704 0.207,-0.058 0.412,-0.091 0.623,-0.096 0.231,0.001 0.461,-0.003 0.655,0.042 0.803,0.134 1.442,0.696 1.939,1.386 0.499,0.689 0.868,1.467 1.2,2.215 0.177,0.404 0.348,0.795 0.514,1.173 0.161,0.314 0.28,0.574 0.39,0.927 0.021,0.072 0.068,0.195 0.118,0.315 0.032,0.104 0.128,0.262 0.232,0.401 0.199,0.26 0.5,0.448 0.68,0.522 0.465,0.216 0.628,0.246 1.11,0.391 0.921,0.173 1.572,-0.075 2.081,-0.175 1.069,-0.272 1.454,-0.159 1.795,0.208 0.289,0.29 0.43,0.874 0.499,1.273 0.076,0.419 0.101,0.752 0.115,0.997 0.028,0.49 0.022,0.634 0.022,0.634 0,0 0,0.033 0,0.226 -0.003,0.194 -0.002,0.551 -0.055,1.202 -0.028,0.324 -0.064,0.724 -0.142,1.202 -0.024,0.128 -0.112,0.748 -0.313,1.376 -0.045,0.156 -0.091,0.315 -0.139,0.478 l -0.069,0.24 -0.036,0.122 -0.018,0.061 c 0.006,0.01 0.033,0.001 0.048,0.002 0.313,-0.018 0.638,-0.036 0.976,-0.054 0.333,-0.021 0.677,-0.038 1.065,-0.11 0.139,-0.023 0.28,-0.046 0.424,-0.07 0.101,-0.021 0.204,-0.042 0.308,-0.063 0.408,-0.087 0.845,-0.181 1.313,-0.281 0.911,-0.183 1.968,-0.421 3.03,-0.391 0.082,-0.005 0.167,0.015 0.355,0.033 0.179,0.022 0.468,0.079 0.718,0.254 0.029,0.023 0.06,0.045 0.096,0.066 l 0.053,0.048 0,10e-4 10e-4,0.002 0.002,0.004 0.006,0.008 0.013,0.015 0.032,0.027 c 0.039,0.063 0.091,0.144 0.136,0.275 0.09,0.263 0.146,0.672 0.151,1.179 0.002,0.255 -0.006,0.535 -0.026,0.843 -0.028,0.416 -0.059,0.859 -0.091,1.333 -0.005,0.178 -0.01,0.358 -0.016,0.542 0.028,0.155 -0.111,0.466 0.167,0.398 0.384,0.025 0.779,0.052 1.187,0.079 0.114,0.011 0.229,0.022 0.346,0.033 0.096,0.01 0.194,0.018 0.292,0.039 0.194,0.041 0.4,0.06 0.601,0.12 h 0 c 0.418,0.095 0.989,0.273 1.636,0.622 0.636,0.35 1.357,0.91 1.72,1.806 0.168,0.449 0.253,0.974 0.197,1.566 -0.077,0.592 -0.264,1.202 -0.621,1.77 -0.722,1.123 -2.235,1.878 -4.114,2.12 -0.936,0.13 -1.955,0.157 -3.029,0.107 -0.547,-0.039 -1.108,-0.079 -1.682,-0.119 -0.611,-0.037 -1.235,-0.069 -1.862,-0.042 -2.517,0.017 -5.166,0.553 -7.915,0.538 -1.364,-0.016 -2.758,-0.203 -3.964,-0.852 -1.205,-0.64 -2.194,-1.743 -2.893,-3.131 -0.18,-0.341 -0.31,-0.723 -0.47,-1.086 l -0.233,-0.554 c -3.045,0.516 -0.846,0.152 -1.526,0.272 l -0.002,0.017 -0.004,0.033 -0.009,0.066 -0.017,0.131 -0.031,0.264 c -0.061,0.713 -0.422,1.377 -0.863,2.005 -0.979,1.222 -2.496,2.152 -4.16,2.818 v 0 c -1.48,0.586 -3.16,1.006 -4.938,1.187 -0.889,0.096 -1.801,0.104 -2.711,0.039 -0.445,-0.064 -0.911,-0.094 -1.332,-0.224 l -0.324,-0.079 c -0.054,-10e-4 -0.094,-0.049 -0.189,-0.094 -0.153,-0.064 -0.336,-0.23 -0.51,-0.351 -0.368,-0.299 -0.745,-0.65 -1.23,-1 -0.113,-0.087 -0.269,-0.166 -0.403,-0.247 -0.13,-0.085 -0.284,-0.157 -0.466,-0.21 -0.179,-0.047 -0.33,-0.138 -0.536,-0.135 l -0.494,-0.02 c -0.917,0.071 -1.387,0.49 -1.882,0.809 -0.419,0.336 -0.841,0.674 -1.265,1.015 -0.387,0.331 -0.835,0.592 -1.111,0.718 -0.458,0.119 -0.986,0.237 -1.493,0.304 -1.025,0.153 -2.083,0.169 -3.103,0.037 l 0,0 c -0.758,-0.105 -1.497,-0.309 -2.13,-0.652 -0.318,-0.168 -0.6,-0.381 -0.85,-0.618 -0.071,-0.053 -0.116,-0.126 -0.172,-0.19 l -0.082,-0.099 -0.19,-0.275 -0.698,-1.07 c -0.016,-0.014 -0.027,-0.063 -0.045,-0.048 l -0.057,0.052 -0.113,0.103 -0.226,0.207 -0.453,0.413 c -0.286,0.263 -0.669,0.604 -0.758,0.707 l -0.913,0.923 c -0.594,0.611 -1.181,1.143 -1.837,1.532 -1.305,0.77 -2.954,0.998 -4.405,0.564 -1.472,-0.416 -2.665,-1.59 -3.796,-2.856 l -0.613,-0.704 -0.855,-0.999 -0.214,-0.25 -0.054,-0.062 c -0.013,0.014 -0.025,0.045 -0.038,0.067 l -0.074,0.145 -0.297,0.58 c -0.195,0.384 -0.396,0.771 -0.617,1.173 -0.397,0.676 -0.896,1.243 -1.507,1.625 -1.217,0.786 -2.896,0.805 -4.565,0.746 -0.848,-0.032 -1.683,-0.055 -2.48,-0.155 l -0.335,-0.04 c -0.154,-0.014 -0.288,-0.048 -0.43,-0.07 -1.13,-0.182 -1.851,-0.627 -2.151,-0.973 -0.71,-0.716 -1.09,-1.393 -1.272,-2.133 -0.09,-0.363 -0.129,-0.726 -0.04,-1.087 0.083,-0.358 0.338,-0.735 0.796,-0.989 -0.512,0.004 -1.038,0.243 -1.376,0.672 -0.344,0.425 -0.494,0.958 -0.522,1.479 -0.072,1.039 0.352,2.197 1.332,3.18 0.126,0.113 0.274,0.26 0.46,0.406 0.199,0.126 0.425,0.275 0.678,0.419 0.521,0.242 1.154,0.468 1.813,0.569 0.164,0.026 0.336,0.067 0.5,0.082 l 0.368,0.044 c 0.882,0.109 1.748,0.131 2.606,0.164 0.867,0.028 1.76,0.045 2.69,-0.065 0.924,-0.108 1.908,-0.375 2.767,-0.923 0.864,-0.54 1.534,-1.325 2.017,-2.148 -0.01,0.012 -0.005,0.011 -0.009,0.012 l -0.003,-0.004 c 0.013,0.014 -0.03,-0.034 0.028,0.031 l 0.224,0.25 c 1.171,1.303 2.57,2.748 4.513,3.314 1.909,0.565 3.983,0.275 5.669,-0.719 0.836,-0.498 1.538,-1.149 2.145,-1.772 l 0.903,-0.913 0.178,-0.177 0.042,-0.038 c -0.002,-0.003 0.002,0 -0.006,-0.007 -0.001,0 -0.014,-0.015 -0.004,-0.003 l 0.123,0.147 c 0.084,0.096 0.159,0.201 0.258,0.281 0.366,0.351 0.771,0.648 1.2,0.877 0.858,0.463 1.772,0.704 2.667,0.829 h 0 c 1.203,0.156 2.389,0.131 3.539,-0.038 0.584,-0.08 1.126,-0.198 1.721,-0.353 0.729,-0.29 1.19,-0.636 1.631,-0.989 0.414,-0.333 0.826,-0.663 1.234,-0.991 0.369,-0.274 0.796,-0.496 0.948,-0.498 -0.086,0.005 0.12,-0.009 0.1,-0.007 l 0.003,0 0.006,10e-4 0.012,0.002 0.024,0.004 0.047,0.005 c 0.032,0.002 0.063,0.002 0.095,0 0.061,-0.023 0.142,0.046 0.213,0.058 0.143,0.02 0.324,0.168 0.494,0.265 0.353,0.251 0.729,0.593 1.145,0.935 0.239,0.169 0.432,0.351 0.735,0.502 l 0.216,0.117 c 0.085,0.054 0.176,0.089 0.271,0.104 l 0.401,0.1 c 0.536,0.158 1.058,0.194 1.578,0.266 1.034,0.075 2.038,0.063 3.004,-0.041 1.935,-0.197 3.737,-0.647 5.366,-1.292 h 0 c 1.827,-0.74 3.562,-1.754 4.818,-3.316 0.281,-0.412 0.57,-0.832 0.771,-1.292 0.165,-0.48 0.387,-0.942 0.404,-1.453 l 0.043,-0.374 0.02,-0.187 0.009,-0.093 0.005,-0.046 0.002,-0.023 c -0.678,0.11 1.521,-0.279 -1.521,0.241 l 0.257,0.62 c 0.179,0.409 0.324,0.824 0.53,1.216 0.787,1.577 2.014,2.99 3.55,3.8 1.536,0.821 3.195,1.016 4.683,1.035 3.003,0.006 5.6,-0.531 7.964,-0.539 1.178,-0.053 2.254,0.1 3.439,0.159 1.148,0.053 2.258,0.027 3.32,-0.121 1.06,-0.148 2.078,-0.42 2.989,-0.884 0.91,-0.458 1.691,-1.136 2.215,-1.926 1.006,-1.61 1.114,-3.384 0.569,-4.774 -0.572,-1.391 -1.608,-2.145 -2.415,-2.593 -0.831,-0.448 -1.524,-0.656 -2.029,-0.773 l 0,0 c -0.245,-0.071 -0.489,-0.097 -0.723,-0.144 -0.117,-0.024 -0.234,-0.034 -0.35,-0.046 l -0.28,-0.03 c 0.019,0.002 0.006,10e-4 0.01,10e-4 0.018,-0.253 0.035,-0.49 0.051,-0.712 0.021,-0.331 0.031,-0.649 0.028,-0.952 -0.009,-0.606 -0.063,-1.158 -0.237,-1.673 -0.087,-0.258 -0.219,-0.506 -0.381,-0.726 -0.082,-0.087 -0.161,-0.171 -0.236,-0.25 -0.091,-0.074 -0.179,-0.144 -0.262,-0.21 -0.698,-0.477 -1.163,-0.498 -1.431,-0.55 -0.275,-0.031 -0.411,-0.052 -0.51,-0.048 -1.397,-0.031 -2.471,0.241 -3.424,0.424 -0.464,0.099 -0.897,0.192 -1.301,0.278 -0.154,0.03 -0.303,0.06 -0.446,0.087 l 0.003,0 0,0 c 0.018,-0.108 0.035,-0.208 0.05,-0.298 0.085,-0.531 0.125,-0.963 0.155,-1.318 0.057,-0.708 0.057,-1.103 0.06,-1.317 0,-0.215 0,-0.251 0,-0.251 0,0 0.007,-0.156 -0.025,-0.715 -0.017,-0.28 -0.043,-0.66 -0.138,-1.184 -0.042,-0.26 -0.119,-0.562 -0.226,-0.902 -0.132,-0.339 -0.284,-0.75 -0.667,-1.155 -0.198,-0.212 -0.393,-0.365 -0.641,-0.514 -0.259,-0.145 -0.565,-0.265 -0.879,-0.305 -0.64,-0.101 -1.237,0.034 -1.772,0.158 -0.533,0.129 -1.05,0.252 -1.387,0.17 -0.123,-0.038 -0.601,-0.177 -0.749,-0.263 -0.226,-0.148 -0.093,0.038 -0.25,-0.344 -0.106,-0.35 -0.292,-0.786 -0.495,-1.168 -0.148,-0.342 -0.301,-0.697 -0.459,-1.063 -0.351,-0.784 -0.746,-1.641 -1.366,-2.502 -0.317,-0.425 -0.683,-0.859 -1.172,-1.229 -0.486,-0.367 -1.094,-0.658 -1.751,-0.775 -0.335,-0.069 -0.651,-0.066 -0.974,-0.066 -0.345,0.009 -0.693,0.063 -1.036,0.164 -0.667,0.207 -1.244,0.548 -1.777,0.937 0.54,-0.393 0.795,-0.502 0.673,-0.442 -0.11,0.069 -0.581,0.324 -1.225,0.874 -0.317,0.277 -0.693,0.617 -1.083,1.044 -0.199,0.211 -0.402,0.443 -0.611,0.696 -0.103,0.128 -0.208,0.26 -0.317,0.395 -0.07,0.091 -0.142,0.186 -0.216,0.282 -0.036,0.048 -0.008,0.011 -0.015,0.025 -0.063,-0.152 -0.128,-0.307 -0.194,-0.466 -0.069,-0.196 -0.14,-0.396 -0.211,-0.6 -0.141,-0.434 -0.286,-0.885 -0.438,-1.351 -0.154,-0.478 -0.365,-1 -0.655,-1.53 -0.304,-0.531 -0.774,-1.068 -1.398,-1.432 -0.634,-0.357 -1.342,-0.472 -2.012,-0.49 -0.339,-0.013 -0.666,0.039 -1.006,0.06 -0.336,0.058 -0.689,0.135 -1.024,0.25 -1.378,0.442 -2.52,1.565 -3.293,2.696 -0.801,1.114 -1.529,2.306 -2.482,3.011 l 0.004,-10e-4 0,0 -0.092,-0.269 c -0.228,-0.669 -0.417,-1.404 -0.648,-2.166 -0.237,-0.76 -0.496,-1.561 -0.958,-2.349 -0.449,-0.78 -1.188,-1.56 -2.151,-1.934 -0.878,-0.347 -1.968,-0.49 -2.962,-0.159 -0.99,0.316 -1.78,0.94 -2.437,1.591 -0.662,0.657 -1.214,1.373 -1.765,2.045 l -0.341,0.41 0.003,-0.004 c 0,-0.002 0.004,0.005 0,-0.002 -0.025,-0.042 0.024,0.057 -0.106,-0.189 h 0 c 0.132,0.247 0.079,0.142 0.089,0.164 -0.03,-0.056 -0.122,-0.229 -0.267,-0.501 -0.165,-0.325 -0.358,-0.821 -0.773,-1.474 -0.128,-0.157 -0.262,-0.322 -0.401,-0.493 -0.159,-0.16 -0.359,-0.307 -0.554,-0.461 l -0.038,-0.028 -0.019,-0.015 -0.005,-0.003 c 0.023,0.016 -0.058,-0.04 0.05,0.035 l -0.01,-0.006 -0.08,-0.047 -0.164,-0.095 c -0.111,-0.062 -0.225,-0.125 -0.34,-0.188 -0.233,-0.139 -0.462,-0.168 -0.706,-0.258 -0.963,-0.266 -1.999,-0.329 -3.101,-0.264 -0.552,0.042 -1.118,0.109 -1.716,0.246 -0.61,0.121 -1.271,0.436 -1.807,0.794 -1.068,0.753 -1.958,1.729 -2.684,2.844 -0.373,0.552 -0.687,1.152 -0.967,1.776 -0.132,0.317 -0.265,0.635 -0.365,0.973 -0.056,0.165 -0.109,0.332 -0.146,0.507 l -0.027,0.115 0,-10e-4 0.001,-10e-4 c 0.001,-0.005 -0.001,-0.016 0.002,-0.006 l 0.002,0.003 -0.044,-0.037 -0.031,-0.023 -0.18,-0.104 c -0.476,-0.305 -0.998,-0.443 -1.508,-0.556 -1.025,-0.173 -2.029,-0.103 -2.995,0.09 -0.961,0.209 -1.918,0.5 -2.808,1.015 -0.902,0.427 -1.804,1.185 -2.359,2.157 -0.581,0.988 -0.718,2.033 -0.896,2.969 l -0.101,0.592 0.001,-0.005 c 0,-0.006 0.005,0.003 0.006,10e-4 -0.783,-0.477 -1.786,-0.96 -2.769,-1.257 -1.002,-0.303 -2.086,-0.481 -3.211,-0.338 -1.117,0.128 -2.273,0.685 -3.03,1.583 -0.375,0.443 -0.675,0.938 -0.884,1.434 -0.229,0.494 -0.396,0.927 -0.583,1.378 -0.089,0.218 -0.181,0.458 -0.268,0.617 -0.043,0.078 -0.085,0.205 -0.127,0.243 -0.041,0.042 -0.073,0.086 -0.101,0.139 -0.089,0.073 -0.448,0.179 -0.905,0.19 -0.917,0.051 -1.856,0.026 -2.828,-0.022 -0.979,-0.036 -2.004,-0.066 -3.066,0.13 -1.055,0.169 -2.213,0.741 -2.91,1.7 -0.723,0.952 -0.92,2.117 -0.906,3.162 0.081,2.116 0.892,4.035 2.253,5.56 0.322,0.374 0.833,0.761 1.269,0.969 0.449,0.246 0.899,0.425 1.347,0.576 0.224,0.08 0.448,0.154 0.671,0.212 l 0.334,0.095 0.167,0.046 0.108,0.026 0.126,0.03 c 0.335,0.08 0.653,0.154 0.945,0.207 0.585,0.121 1.07,0.186 1.395,0.238 2.435,0.302 3.872,0.113 5.861,-0.454 z"
           id="path46" /></g></g></g><g
     id="g48"><g
       id="g50"><g
         id="g52"><g
           id="g54"><g
             id="g56"><g
               id="g58"><rect
                 style="fill:none"
                 x="198.071"
                 y="292.828"
                 transform="matrix(0.1863,-0.9825,0.9825,0.1863,-128.8074,445.1221)"
                 width="12.524"
                 height="14.998"
                 id="rect60" /></g><rect
               style="fill-rule:evenodd"
               x="202.59"
               y="303.22501"
               transform="matrix(0.9825,0.1862,-0.1862,0.9825,60.2378,-32.5408)"
               clip-rule="evenodd"
               width="1.5"
               height="2.3239999"
               id="rect62" /><rect
               style="fill-rule:evenodd"
               x="203.367"
               y="299.129"
               transform="matrix(0.9825,0.1862,-0.1862,0.9825,59.4886,-32.7571)"
               clip-rule="evenodd"
               width="1.5"
               height="2.3239999"
               id="rect64" /><rect
               style="fill-rule:evenodd"
               x="204.14101"
               y="295.04599"
               transform="matrix(0.9824,0.1865,-0.1865,0.9824,58.8473,-33.0194)"
               clip-rule="evenodd"
               width="1.5"
               height="2.325"
               id="rect66" /></g></g><g
           id="g68"><g
             id="g70"><g
               id="g72"><rect
                 style="fill:none"
                 x="195.73801"
                 y="305.13199"
                 transform="matrix(0.1863,-0.9825,0.9825,0.1863,-142.7892,452.8545)"
                 width="12.523"
                 height="14.998"
                 id="rect74" /></g><rect
               style="fill-rule:evenodd"
               x="200.256"
               y="315.52899"
               transform="matrix(0.9825,0.1862,-0.1862,0.9825,62.4883,-31.8911)"
               clip-rule="evenodd"
               width="1.5"
               height="2.3239999"
               id="rect76" /><rect
               style="fill-rule:evenodd"
               x="201.033"
               y="311.43301"
               transform="matrix(0.9825,0.1862,-0.1862,0.9825,61.7182,-32.0989)"
               clip-rule="evenodd"
               width="1.5"
               height="2.3239999"
               id="rect78" /><rect
               style="fill-rule:evenodd"
               x="201.80701"
               y="307.35001"
               transform="matrix(0.9824,0.1865,-0.1865,0.9824,61.1014,-32.3682)"
               clip-rule="evenodd"
               width="1.5"
               height="2.325"
               id="rect80" /></g></g><g
           id="g82"><g
             id="g84"><g
               id="g86"><rect
                 style="fill:none"
                 x="193.405"
                 y="317.436"
                 transform="matrix(0.1863,-0.9825,0.9825,0.1863,-156.7818,460.5605)"
                 width="12.524"
                 height="14.998"
                 id="rect88" /></g><rect
               style="fill-rule:evenodd"
               x="197.923"
               y="327.83301"
               transform="matrix(0.9825,0.1862,-0.1862,0.9825,64.7386,-31.2414)"
               clip-rule="evenodd"
               width="1.5"
               height="2.3239999"
               id="rect90" /><rect
               style="fill-rule:evenodd"
               x="198.7"
               y="323.737"
               transform="matrix(0.9825,0.1862,-0.1862,0.9825,63.9895,-31.4577)"
               clip-rule="evenodd"
               width="1.5"
               height="2.3239999"
               id="rect92" /><rect
               style="fill-rule:evenodd"
               x="199.474"
               y="319.65399"
               transform="matrix(0.9825,0.1865,-0.1865,0.9825,63.3341,-31.7087)"
               clip-rule="evenodd"
               width="1.5"
               height="2.325"
               id="rect94" /></g></g><g
           id="g96"><g
             id="g98"><g
               id="g100"><rect
                 style="fill:none"
                 x="191.071"
                 y="329.741"
                 transform="matrix(0.1863,-0.9825,0.9825,0.1863,-170.7692,468.2794)"
                 width="12.524"
                 height="14.998"
                 id="rect102" /></g><rect
               style="fill-rule:evenodd"
               x="195.59"
               y="340.13699"
               transform="matrix(0.9825,0.1862,-0.1862,0.9825,66.989,-30.5916)"
               clip-rule="evenodd"
               width="1.5"
               height="2.3239999"
               id="rect104" /><rect
               style="fill-rule:evenodd"
               x="196.367"
               y="336.04099"
               transform="matrix(0.9825,0.1862,-0.1862,0.9825,66.2399,-30.808)"
               clip-rule="evenodd"
               width="1.5"
               height="2.3239999"
               id="rect106" /><rect
               style="fill-rule:evenodd"
               x="197.14101"
               y="331.95801"
               transform="matrix(0.9824,0.1865,-0.1865,0.9824,65.6097,-31.0659)"
               clip-rule="evenodd"
               width="1.5"
               height="2.325"
               id="rect108" /></g></g><g
           id="g110"><g
             id="g112"><g
               id="g114"><rect
                 style="fill:none"
                 x="188.73801"
                 y="342.04501"
                 transform="matrix(0.1863,-0.9825,0.9825,0.1863,-184.7516,476.0131)"
                 width="12.523"
                 height="14.998"
                 id="rect116" /></g><rect
               style="fill-rule:evenodd"
               x="193.256"
               y="352.44199"
               transform="matrix(0.9825,0.1862,-0.1862,0.9825,69.2395,-29.942)"
               clip-rule="evenodd"
               width="1.5"
               height="2.3239999"
               id="rect118" /><rect
               style="fill-rule:evenodd"
               x="194.033"
               y="348.345"
               transform="matrix(0.9825,0.1862,-0.1862,0.9825,68.4673,-30.1506)"
               clip-rule="evenodd"
               width="1.5"
               height="2.3239999"
               id="rect120" /><rect
               style="fill-rule:evenodd"
               x="194.80701"
               y="344.263"
               transform="matrix(0.9824,0.1865,-0.1865,0.9824,67.8638,-30.4147)"
               clip-rule="evenodd"
               width="1.5"
               height="2.325"
               id="rect122" /></g></g><g
           id="g124"><g
             id="g126"><g
               id="g128"><rect
                 style="fill:none"
                 x="186.405"
                 y="354.349"
                 transform="matrix(0.1863,-0.9825,0.9825,0.1863,-198.7437,483.7177)"
                 width="12.524"
                 height="14.998"
                 id="rect130" /></g><rect
               style="fill-rule:evenodd"
               x="190.923"
               y="364.746"
               transform="matrix(0.9825,0.1862,-0.1862,0.9825,71.4899,-29.2922)"
               clip-rule="evenodd"
               width="1.5"
               height="2.3239999"
               id="rect132" /><rect
               style="fill-rule:evenodd"
               x="191.7"
               y="360.64999"
               transform="matrix(0.9825,0.1862,-0.1862,0.9825,70.7407,-29.5085)"
               clip-rule="evenodd"
               width="1.5"
               height="2.3239999"
               id="rect134" /><rect
               style="fill-rule:evenodd"
               x="192.474"
               y="356.56699"
               transform="matrix(0.9825,0.1865,-0.1865,0.9825,70.0944,-29.756)"
               clip-rule="evenodd"
               width="1.5"
               height="2.325"
               id="rect136" /></g></g></g></g></g><g
     id="g138"><g
       id="g140"><g
         id="g142"><g
           id="g144"><g
             id="g146"><g
               id="g148"><rect
                 style="fill:none"
                 x="206.35699"
                 y="296.19199"
                 transform="matrix(0.1863,-0.9825,0.9825,0.1863,-125.3713,455.9996)"
                 width="12.524"
                 height="14.998"
                 id="rect150" /></g><rect
               style="fill-rule:evenodd"
               x="210.875"
               y="306.58899"
               transform="matrix(0.9825,0.1862,-0.1862,0.9825,61.0092,-34.0247)"
               clip-rule="evenodd"
               width="1.5"
               height="2.3239999"
               id="rect152" /><rect
               style="fill-rule:evenodd"
               x="211.65199"
               y="302.49301"
               transform="matrix(0.9825,0.1862,-0.1862,0.9825,60.26,-34.2411)"
               clip-rule="evenodd"
               width="1.5"
               height="2.3239999"
               id="rect154" /><rect
               style="fill-rule:evenodd"
               x="212.42599"
               y="298.41"
               transform="matrix(0.9824,0.1865,-0.1865,0.9824,59.6202,-34.5058)"
               clip-rule="evenodd"
               width="1.5"
               height="2.325"
               id="rect156" /></g></g><g
           id="g158"><g
             id="g160"><g
               id="g162"><rect
                 style="fill:none"
                 x="204.02299"
                 y="308.496"
                 transform="matrix(0.1863,-0.9825,0.9825,0.1863,-139.3529,463.7321)"
                 width="12.523"
                 height="14.998"
                 id="rect164" /></g><rect
               style="fill-rule:evenodd"
               x="208.54201"
               y="318.89301"
               transform="matrix(0.9825,0.1862,-0.1862,0.9825,63.2596,-33.3751)"
               clip-rule="evenodd"
               width="1.5"
               height="2.3239999"
               id="rect166" /><rect
               style="fill-rule:evenodd"
               x="209.31799"
               y="314.797"
               transform="matrix(0.9825,0.1862,-0.1862,0.9825,62.4893,-33.5824)"
               clip-rule="evenodd"
               width="1.5"
               height="2.3239999"
               id="rect168" /><rect
               style="fill-rule:evenodd"
               x="210.093"
               y="310.71399"
               transform="matrix(0.9824,0.1865,-0.1865,0.9824,61.8743,-33.8546)"
               clip-rule="evenodd"
               width="1.5"
               height="2.325"
               id="rect170" /></g></g><g
           id="g172"><g
             id="g174"><g
               id="g176"><rect
                 style="fill:none"
                 x="201.69"
                 y="320.80099"
                 transform="matrix(0.1863,-0.9825,0.9825,0.1863,-153.3458,471.4379)"
                 width="12.524"
                 height="14.998"
                 id="rect178" /></g><rect
               style="fill-rule:evenodd"
               x="206.20799"
               y="331.19699"
               transform="matrix(0.9825,0.1862,-0.1862,0.9825,65.51,-32.7253)"
               clip-rule="evenodd"
               width="1.5"
               height="2.3239999"
               id="rect180" /><rect
               style="fill-rule:evenodd"
               x="206.985"
               y="327.10101"
               transform="matrix(0.9825,0.1862,-0.1862,0.9825,64.7609,-32.9417)"
               clip-rule="evenodd"
               width="1.5"
               height="2.3239999"
               id="rect182" /><rect
               style="fill-rule:evenodd"
               x="207.759"
               y="323.01801"
               transform="matrix(0.9825,0.1865,-0.1865,0.9825,64.1068,-33.1947)"
               clip-rule="evenodd"
               width="1.5"
               height="2.325"
               id="rect184" /></g></g><g
           id="g186"><g
             id="g188"><g
               id="g190"><rect
                 style="fill:none"
                 x="199.35699"
                 y="333.10501"
                 transform="matrix(0.1863,-0.9825,0.9825,0.1863,-167.3332,479.1569)"
                 width="12.524"
                 height="14.998"
                 id="rect192" /></g><rect
               style="fill-rule:evenodd"
               x="203.875"
               y="343.50201"
               transform="matrix(0.9825,0.1862,-0.1862,0.9825,67.7605,-32.0756)"
               clip-rule="evenodd"
               width="1.5"
               height="2.3239999"
               id="rect194" /><rect
               style="fill-rule:evenodd"
               x="204.65199"
               y="339.405"
               transform="matrix(0.9825,0.1862,-0.1862,0.9825,67.0113,-32.2919)"
               clip-rule="evenodd"
               width="1.5"
               height="2.3239999"
               id="rect196" /><rect
               style="fill-rule:evenodd"
               x="205.42599"
               y="335.323"
               transform="matrix(0.9824,0.1865,-0.1865,0.9824,66.3826,-32.5523)"
               clip-rule="evenodd"
               width="1.5"
               height="2.325"
               id="rect198" /></g></g><g
           id="g200"><g
             id="g202"><g
               id="g204"><rect
                 style="fill:none"
                 x="197.02299"
                 y="345.409"
                 transform="matrix(0.1863,-0.9825,0.9825,0.1863,-181.3153,486.8907)"
                 width="12.523"
                 height="14.998"
                 id="rect206" /></g><rect
               style="fill-rule:evenodd"
               x="201.54201"
               y="355.806"
               transform="matrix(0.9825,0.1862,-0.1862,0.9825,70.0109,-31.4259)"
               clip-rule="evenodd"
               width="1.5"
               height="2.3239999"
               id="rect208" /><rect
               style="fill-rule:evenodd"
               x="202.31799"
               y="351.70999"
               transform="matrix(0.9825,0.1862,-0.1862,0.9825,69.2384,-31.6341)"
               clip-rule="evenodd"
               width="1.5"
               height="2.3239999"
               id="rect210" /><rect
               style="fill-rule:evenodd"
               x="203.093"
               y="347.62701"
               transform="matrix(0.9824,0.1865,-0.1865,0.9824,68.6367,-31.9011)"
               clip-rule="evenodd"
               width="1.5"
               height="2.325"
               id="rect212" /></g></g><g
           id="g214"><g
             id="g216"><g
               id="g218"><rect
                 style="fill:none"
                 x="194.69"
                 y="357.71301"
                 transform="matrix(0.1863,-0.9825,0.9825,0.1863,-195.3076,494.5952)"
                 width="12.524"
                 height="14.998"
                 id="rect220" /></g><rect
               style="fill-rule:evenodd"
               x="199.20799"
               y="368.10999"
               transform="matrix(0.9825,0.1862,-0.1862,0.9825,72.2613,-30.7762)"
               clip-rule="evenodd"
               width="1.5"
               height="2.3239999"
               id="rect222" /><rect
               style="fill-rule:evenodd"
               x="199.985"
               y="364.01401"
               transform="matrix(0.9825,0.1862,-0.1862,0.9825,71.5121,-30.9926)"
               clip-rule="evenodd"
               width="1.5"
               height="2.3239999"
               id="rect224" /><rect
               style="fill-rule:evenodd"
               x="200.759"
               y="359.931"
               transform="matrix(0.9825,0.1865,-0.1865,0.9825,70.8671,-31.242)"
               clip-rule="evenodd"
               width="1.5"
               height="2.325"
               id="rect226" /></g></g></g></g></g><g
     id="g228"><g
       id="g230"><g
         id="g232"><g
           id="g234"><g
             id="g236"><g
               id="g238"><rect
                 style="fill:none"
                 x="216.10699"
                 y="296.19199"
                 transform="matrix(0.1863,-0.9825,0.9825,0.1863,-117.438,465.5788)"
                 width="12.524"
                 height="14.998"
                 id="rect240" /></g><rect
               style="fill-rule:evenodd"
               x="220.625"
               y="306.58899"
               transform="matrix(0.9825,0.1862,-0.1862,0.9825,61.1798,-35.8403)"
               clip-rule="evenodd"
               width="1.5"
               height="2.3239999"
               id="rect242" /><rect
               style="fill-rule:evenodd"
               x="221.40199"
               y="302.49301"
               transform="matrix(0.9825,0.1862,-0.1862,0.9825,60.4306,-36.0566)"
               clip-rule="evenodd"
               width="1.5"
               height="2.3239999"
               id="rect244" /><rect
               style="fill-rule:evenodd"
               x="222.17599"
               y="298.41"
               transform="matrix(0.9824,0.1865,-0.1865,0.9824,59.7913,-36.3245)"
               clip-rule="evenodd"
               width="1.5"
               height="2.325"
               id="rect246" /></g></g><g
           id="g248"><g
             id="g250"><g
               id="g252"><rect
                 style="fill:none"
                 x="213.77299"
                 y="308.496"
                 transform="matrix(0.1863,-0.9825,0.9825,0.1863,-131.4193,473.3114)"
                 width="12.523"
                 height="14.998"
                 id="rect254" /></g><rect
               style="fill-rule:evenodd"
               x="218.29201"
               y="318.89301"
               transform="matrix(0.9825,0.1862,-0.1862,0.9825,63.4302,-35.1906)"
               clip-rule="evenodd"
               width="1.5"
               height="2.3239999"
               id="rect256" /><rect
               style="fill-rule:evenodd"
               x="219.06799"
               y="314.797"
               transform="matrix(0.9825,0.1862,-0.1862,0.9825,62.6597,-35.3974)"
               clip-rule="evenodd"
               width="1.5"
               height="2.3239999"
               id="rect258" /><rect
               style="fill-rule:evenodd"
               x="219.843"
               y="310.71399"
               transform="matrix(0.9824,0.1865,-0.1865,0.9824,62.0455,-35.6733)"
               clip-rule="evenodd"
               width="1.5"
               height="2.325"
               id="rect260" /></g></g><g
           id="g262"><g
             id="g264"><g
               id="g266"><rect
                 style="fill:none"
                 x="211.44"
                 y="320.80099"
                 transform="matrix(0.1863,-0.9825,0.9825,0.1863,-145.4125,481.0172)"
                 width="12.524"
                 height="14.998"
                 id="rect268" /></g><rect
               style="fill-rule:evenodd"
               x="215.95799"
               y="331.19699"
               transform="matrix(0.9825,0.1862,-0.1862,0.9825,65.6806,-34.541)"
               clip-rule="evenodd"
               width="1.5"
               height="2.3239999"
               id="rect270" /><rect
               style="fill-rule:evenodd"
               x="216.735"
               y="327.10101"
               transform="matrix(0.9825,0.1862,-0.1862,0.9825,64.9314,-34.7573)"
               clip-rule="evenodd"
               width="1.5"
               height="2.3239999"
               id="rect272" /><rect
               style="fill-rule:evenodd"
               x="217.509"
               y="323.01801"
               transform="matrix(0.9825,0.1865,-0.1865,0.9825,64.2778,-35.0128)"
               clip-rule="evenodd"
               width="1.5"
               height="2.325"
               id="rect274" /></g></g><g
           id="g276"><g
             id="g278"><g
               id="g280"><rect
                 style="fill:none"
                 x="209.10699"
                 y="333.10501"
                 transform="matrix(0.1863,-0.9825,0.9825,0.1863,-159.3999,488.7361)"
                 width="12.524"
                 height="14.998"
                 id="rect282" /></g><rect
               style="fill-rule:evenodd"
               x="213.625"
               y="343.50201"
               transform="matrix(0.9825,0.1862,-0.1862,0.9825,67.931,-33.8912)"
               clip-rule="evenodd"
               width="1.5"
               height="2.3239999"
               id="rect284" /><rect
               style="fill-rule:evenodd"
               x="214.40199"
               y="339.405"
               transform="matrix(0.9825,0.1862,-0.1862,0.9825,67.1818,-34.1075)"
               clip-rule="evenodd"
               width="1.5"
               height="2.3239999"
               id="rect286" /><rect
               style="fill-rule:evenodd"
               x="215.17599"
               y="335.323"
               transform="matrix(0.9824,0.1865,-0.1865,0.9824,66.5537,-34.3709)"
               clip-rule="evenodd"
               width="1.5"
               height="2.325"
               id="rect288" /></g></g><g
           id="g290"><g
             id="g292"><g
               id="g294"><rect
                 style="fill:none"
                 x="206.77299"
                 y="345.409"
                 transform="matrix(0.1863,-0.9825,0.9825,0.1863,-173.3816,496.4701)"
                 width="12.523"
                 height="14.998"
                 id="rect296" /></g><rect
               style="fill-rule:evenodd"
               x="211.29201"
               y="355.806"
               transform="matrix(0.9825,0.1862,-0.1862,0.9825,70.1814,-33.2415)"
               clip-rule="evenodd"
               width="1.5"
               height="2.3239999"
               id="rect298" /><rect
               style="fill-rule:evenodd"
               x="212.06799"
               y="351.70999"
               transform="matrix(0.9825,0.1862,-0.1862,0.9825,69.4088,-33.4491)"
               clip-rule="evenodd"
               width="1.5"
               height="2.3239999"
               id="rect300" /><rect
               style="fill-rule:evenodd"
               x="212.843"
               y="347.62701"
               transform="matrix(0.9824,0.1865,-0.1865,0.9824,68.8079,-33.7197)"
               clip-rule="evenodd"
               width="1.5"
               height="2.325"
               id="rect302" /></g></g><g
           id="g304"><g
             id="g306"><g
               id="g308"><rect
                 style="fill:none"
                 x="204.44"
                 y="357.71301"
                 transform="matrix(0.1863,-0.9825,0.9825,0.1863,-187.3743,504.1745)"
                 width="12.524"
                 height="14.998"
                 id="rect310" /></g><rect
               style="fill-rule:evenodd"
               x="208.95799"
               y="368.10999"
               transform="matrix(0.9825,0.1862,-0.1862,0.9825,72.4318,-32.5918)"
               clip-rule="evenodd"
               width="1.5"
               height="2.3239999"
               id="rect312" /><rect
               style="fill-rule:evenodd"
               x="209.735"
               y="364.01401"
               transform="matrix(0.9825,0.1862,-0.1862,0.9825,71.6826,-32.8081)"
               clip-rule="evenodd"
               width="1.5"
               height="2.3239999"
               id="rect314" /><rect
               style="fill-rule:evenodd"
               x="210.509"
               y="359.931"
               transform="matrix(0.9825,0.1865,-0.1865,0.9825,71.0381,-33.06)"
               clip-rule="evenodd"
               width="1.5"
               height="2.325"
               id="rect316" /></g></g></g></g></g><g
     id="g318"><g
       id="g320"><g
         id="g322"><g
           id="g324"><g
             id="g326"><g
               id="g328"><rect
                 style="fill:none"
                 x="228.10699"
                 y="296.19199"
                 transform="matrix(0.1863,-0.9825,0.9825,0.1863,-107.674,477.3687)"
                 width="12.524"
                 height="14.998"
                 id="rect330" /></g><rect
               style="fill-rule:evenodd"
               x="232.625"
               y="306.58899"
               transform="matrix(0.9825,0.1862,-0.1862,0.9825,61.3896,-38.0749)"
               clip-rule="evenodd"
               width="1.5"
               height="2.3239999"
               id="rect332" /><rect
               style="fill-rule:evenodd"
               x="233.40199"
               y="302.49301"
               transform="matrix(0.9825,0.1862,-0.1862,0.9825,60.6405,-38.2912)"
               clip-rule="evenodd"
               width="1.5"
               height="2.3239999"
               id="rect334" /><rect
               style="fill-rule:evenodd"
               x="234.17599"
               y="298.41"
               transform="matrix(0.9824,0.1865,-0.1865,0.9824,60.0019,-38.5628)"
               clip-rule="evenodd"
               width="1.5"
               height="2.325"
               id="rect336" /></g></g><g
           id="g338"><g
             id="g340"><g
               id="g342"><rect
                 style="fill:none"
                 x="225.77299"
                 y="308.496"
                 transform="matrix(0.1863,-0.9825,0.9825,0.1863,-121.6547,485.1014)"
                 width="12.523"
                 height="14.998"
                 id="rect344" /></g><rect
               style="fill-rule:evenodd"
               x="230.29201"
               y="318.89301"
               transform="matrix(0.9825,0.1862,-0.1862,0.9825,63.6401,-37.4252)"
               clip-rule="evenodd"
               width="1.5"
               height="2.3239999"
               id="rect346" /><rect
               style="fill-rule:evenodd"
               x="231.06799"
               y="314.797"
               transform="matrix(0.9825,0.1862,-0.1862,0.9825,62.8694,-37.6313)"
               clip-rule="evenodd"
               width="1.5"
               height="2.3239999"
               id="rect348" /><rect
               style="fill-rule:evenodd"
               x="231.843"
               y="310.71399"
               transform="matrix(0.9824,0.1865,-0.1865,0.9824,62.2561,-37.9116)"
               clip-rule="evenodd"
               width="1.5"
               height="2.325"
               id="rect350" /></g></g><g
           id="g352"><g
             id="g354"><g
               id="g356"><rect
                 style="fill:none"
                 x="223.44"
                 y="320.80099"
                 transform="matrix(0.1863,-0.9825,0.9825,0.1863,-135.6484,492.807)"
                 width="12.524"
                 height="14.998"
                 id="rect358" /></g><rect
               style="fill-rule:evenodd"
               x="227.95799"
               y="331.19699"
               transform="matrix(0.9825,0.1862,-0.1862,0.9825,65.8905,-36.7755)"
               clip-rule="evenodd"
               width="1.5"
               height="2.3239999"
               id="rect360" /><rect
               style="fill-rule:evenodd"
               x="228.735"
               y="327.10101"
               transform="matrix(0.9825,0.1862,-0.1862,0.9825,65.1413,-36.9918)"
               clip-rule="evenodd"
               width="1.5"
               height="2.3239999"
               id="rect362" /><rect
               style="fill-rule:evenodd"
               x="229.509"
               y="323.01801"
               transform="matrix(0.9825,0.1865,-0.1865,0.9825,64.4883,-37.2504)"
               clip-rule="evenodd"
               width="1.5"
               height="2.325"
               id="rect364" /></g></g><g
           id="g366"><g
             id="g368"><g
               id="g370"><rect
                 style="fill:none"
                 x="221.10699"
                 y="333.10501"
                 transform="matrix(0.1863,-0.9825,0.9825,0.1863,-149.6358,500.5259)"
                 width="12.524"
                 height="14.998"
                 id="rect372" /></g><rect
               style="fill-rule:evenodd"
               x="225.625"
               y="343.50201"
               transform="matrix(0.9825,0.1862,-0.1862,0.9825,68.1409,-36.1258)"
               clip-rule="evenodd"
               width="1.5"
               height="2.3239999"
               id="rect374" /><rect
               style="fill-rule:evenodd"
               x="226.40199"
               y="339.405"
               transform="matrix(0.9825,0.1862,-0.1862,0.9825,67.3917,-36.3421)"
               clip-rule="evenodd"
               width="1.5"
               height="2.3239999"
               id="rect376" /><rect
               style="fill-rule:evenodd"
               x="227.17599"
               y="335.323"
               transform="matrix(0.9824,0.1865,-0.1865,0.9824,66.7643,-36.6093)"
               clip-rule="evenodd"
               width="1.5"
               height="2.325"
               id="rect378" /></g></g><g
           id="g380"><g
             id="g382"><g
               id="g384"><rect
                 style="fill:none"
                 x="218.77299"
                 y="345.409"
                 transform="matrix(0.1863,-0.9825,0.9825,0.1863,-163.6171,508.26)"
                 width="12.523"
                 height="14.998"
                 id="rect386" /></g><rect
               style="fill-rule:evenodd"
               x="223.29201"
               y="355.806"
               transform="matrix(0.9825,0.1862,-0.1862,0.9825,70.3913,-35.4761)"
               clip-rule="evenodd"
               width="1.5"
               height="2.3239999"
               id="rect388" /><rect
               style="fill-rule:evenodd"
               x="224.06799"
               y="351.70999"
               transform="matrix(0.9825,0.1862,-0.1862,0.9825,69.6186,-35.683)"
               clip-rule="evenodd"
               width="1.5"
               height="2.3239999"
               id="rect390" /><rect
               style="fill-rule:evenodd"
               x="224.843"
               y="347.62701"
               transform="matrix(0.9824,0.1865,-0.1865,0.9824,69.0185,-35.958)"
               clip-rule="evenodd"
               width="1.5"
               height="2.325"
               id="rect392" /></g></g><g
           id="g394"><g
             id="g396"><g
               id="g398"><rect
                 style="fill:none"
                 x="216.44"
                 y="357.71301"
                 transform="matrix(0.1863,-0.9825,0.9825,0.1863,-177.6103,515.9643)"
                 width="12.524"
                 height="14.998"
                 id="rect400" /></g><rect
               style="fill-rule:evenodd"
               x="220.95799"
               y="368.10999"
               transform="matrix(0.9825,0.1862,-0.1862,0.9825,72.6417,-34.8264)"
               clip-rule="evenodd"
               width="1.5"
               height="2.3239999"
               id="rect402" /><rect
               style="fill-rule:evenodd"
               x="221.735"
               y="364.01401"
               transform="matrix(0.9825,0.1862,-0.1862,0.9825,71.8925,-35.0427)"
               clip-rule="evenodd"
               width="1.5"
               height="2.3239999"
               id="rect404" /><rect
               style="fill-rule:evenodd"
               x="222.509"
               y="359.931"
               transform="matrix(0.9825,0.1865,-0.1865,0.9825,71.2485,-35.2977)"
               clip-rule="evenodd"
               width="1.5"
               height="2.325"
               id="rect406" /></g></g></g></g></g><g
     id="g408"><g
       id="g410"><g
         id="g412"><g
           id="g414"><g
             id="g416"><g
               id="g418"><rect
                 style="fill:none"
                 x="245.394"
                 y="298.246"
                 transform="matrix(0.1863,-0.9825,0.9825,0.1863,-95.6262,496.0245)"
                 width="12.524"
                 height="14.998"
                 id="rect420" /></g><rect
               style="fill-rule:evenodd"
               x="249.912"
               y="308.64301"
               transform="matrix(0.9825,0.1862,-0.1862,0.9825,62.0745,-41.2581)"
               clip-rule="evenodd"
               width="1.5"
               height="2.3239999"
               id="rect422" /><rect
               style="fill-rule:evenodd"
               x="250.689"
               y="304.547"
               transform="matrix(0.9825,0.1862,-0.1862,0.9825,61.3253,-41.4744)"
               clip-rule="evenodd"
               width="1.5"
               height="2.3239999"
               id="rect424" /><rect
               style="fill-rule:evenodd"
               x="251.463"
               y="300.46399"
               transform="matrix(0.9824,0.1865,-0.1865,0.9824,60.6885,-41.7513)"
               clip-rule="evenodd"
               width="1.5"
               height="2.325"
               id="rect426" /></g></g><g
           id="g428"><g
             id="g430"><g
               id="g432"><rect
                 style="fill:none"
                 x="243.061"
                 y="310.55099"
                 transform="matrix(0.1863,-0.9825,0.9825,0.1863,-109.6063,503.7574)"
                 width="12.523"
                 height="14.998"
                 id="rect434" /></g><rect
               style="fill-rule:evenodd"
               x="247.57899"
               y="320.94699"
               transform="matrix(0.9825,0.1862,-0.1862,0.9825,64.3249,-40.6084)"
               clip-rule="evenodd"
               width="1.5"
               height="2.3239999"
               id="rect436" /><rect
               style="fill-rule:evenodd"
               x="248.355"
               y="316.85101"
               transform="matrix(0.9825,0.1862,-0.1862,0.9825,63.554,-40.8134)"
               clip-rule="evenodd"
               width="1.5"
               height="2.3239999"
               id="rect438" /><rect
               style="fill-rule:evenodd"
               x="249.13"
               y="312.76801"
               transform="matrix(0.9824,0.1865,-0.1865,0.9824,62.9426,-41.1001)"
               clip-rule="evenodd"
               width="1.5"
               height="2.325"
               id="rect440" /></g></g><g
           id="g442"><g
             id="g444"><g
               id="g446"><rect
                 style="fill:none"
                 x="240.72701"
                 y="322.85501"
                 transform="matrix(0.1863,-0.9825,0.9825,0.1863,-123.6006,511.4628)"
                 width="12.524"
                 height="14.998"
                 id="rect448" /></g><rect
               style="fill-rule:evenodd"
               x="245.245"
               y="333.25201"
               transform="matrix(0.9825,0.1862,-0.1862,0.9825,66.5754,-39.9587)"
               clip-rule="evenodd"
               width="1.5"
               height="2.3239999"
               id="rect450" /><rect
               style="fill-rule:evenodd"
               x="246.022"
               y="329.155"
               transform="matrix(0.9825,0.1862,-0.1862,0.9825,65.8262,-40.175)"
               clip-rule="evenodd"
               width="1.5"
               height="2.3239999"
               id="rect452" /><rect
               style="fill-rule:evenodd"
               x="246.79601"
               y="325.073"
               transform="matrix(0.9825,0.1865,-0.1865,0.9825,65.1745,-40.4378)"
               clip-rule="evenodd"
               width="1.5"
               height="2.325"
               id="rect454" /></g></g><g
           id="g456"><g
             id="g458"><g
               id="g460"><rect
                 style="fill:none"
                 x="238.394"
                 y="335.159"
                 transform="matrix(0.1863,-0.9825,0.9825,0.1863,-137.5881,519.1818)"
                 width="12.524"
                 height="14.998"
                 id="rect462" /></g><rect
               style="fill-rule:evenodd"
               x="242.912"
               y="345.556"
               transform="matrix(0.9825,0.1862,-0.1862,0.9825,68.8258,-39.309)"
               clip-rule="evenodd"
               width="1.5"
               height="2.3239999"
               id="rect464" /><rect
               style="fill-rule:evenodd"
               x="243.689"
               y="341.45999"
               transform="matrix(0.9825,0.1862,-0.1862,0.9825,68.0766,-39.5253)"
               clip-rule="evenodd"
               width="1.5"
               height="2.3239999"
               id="rect466" /><rect
               style="fill-rule:evenodd"
               x="244.463"
               y="337.37701"
               transform="matrix(0.9824,0.1865,-0.1865,0.9824,67.4509,-39.7978)"
               clip-rule="evenodd"
               width="1.5"
               height="2.325"
               id="rect468" /></g></g><g
           id="g470"><g
             id="g472"><g
               id="g474"><rect
                 style="fill:none"
                 x="236.061"
                 y="347.46301"
                 transform="matrix(0.1863,-0.9825,0.9825,0.1863,-151.5687,526.916)"
                 width="12.523"
                 height="14.998"
                 id="rect476" /></g><rect
               style="fill-rule:evenodd"
               x="240.57899"
               y="357.85999"
               transform="matrix(0.9825,0.1862,-0.1862,0.9825,71.0762,-38.6593)"
               clip-rule="evenodd"
               width="1.5"
               height="2.3239999"
               id="rect478" /><rect
               style="fill-rule:evenodd"
               x="241.355"
               y="353.76401"
               transform="matrix(0.9825,0.1862,-0.1862,0.9825,70.3031,-38.8651)"
               clip-rule="evenodd"
               width="1.5"
               height="2.3239999"
               id="rect480" /><rect
               style="fill-rule:evenodd"
               x="242.13"
               y="349.681"
               transform="matrix(0.9824,0.1865,-0.1865,0.9824,69.705,-39.1465)"
               clip-rule="evenodd"
               width="1.5"
               height="2.325"
               id="rect482" /></g></g><g
           id="g484"><g
             id="g486"><g
               id="g488"><rect
                 style="fill:none"
                 x="233.72701"
                 y="359.767"
                 transform="matrix(0.1863,-0.9825,0.9825,0.1863,-165.5625,534.6201)"
                 width="12.524"
                 height="14.998"
                 id="rect490" /></g><rect
               style="fill-rule:evenodd"
               x="238.245"
               y="370.164"
               transform="matrix(0.9825,0.1862,-0.1862,0.9825,73.3266,-38.0096)"
               clip-rule="evenodd"
               width="1.5"
               height="2.3239999"
               id="rect492" /><rect
               style="fill-rule:evenodd"
               x="239.022"
               y="366.06799"
               transform="matrix(0.9825,0.1862,-0.1862,0.9825,72.5774,-38.2259)"
               clip-rule="evenodd"
               width="1.5"
               height="2.3239999"
               id="rect494" /><rect
               style="fill-rule:evenodd"
               x="239.79601"
               y="361.98499"
               transform="matrix(0.9825,0.1865,-0.1865,0.9825,71.9348,-38.4852)"
               clip-rule="evenodd"
               width="1.5"
               height="2.325"
               id="rect496" /></g></g></g></g></g><g
     id="g498"><g
       id="g500"><g
         id="g502"><g
           id="g504"><g
             id="g506"><g
               id="g508"><rect
                 style="fill:none"
                 x="236.144"
                 y="298.246"
                 transform="matrix(0.1863,-0.9825,0.9825,0.1863,-103.1526,486.9365)"
                 width="12.524"
                 height="14.998"
                 id="rect510" /></g><rect
               style="fill-rule:evenodd"
               x="240.662"
               y="308.64301"
               transform="matrix(0.9825,0.1862,-0.1862,0.9825,61.9128,-39.5356)"
               clip-rule="evenodd"
               width="1.5"
               height="2.3239999"
               id="rect512" /><rect
               style="fill-rule:evenodd"
               x="241.439"
               y="304.547"
               transform="matrix(0.9825,0.1862,-0.1862,0.9825,61.1636,-39.7519)"
               clip-rule="evenodd"
               width="1.5"
               height="2.3239999"
               id="rect514" /><rect
               style="fill-rule:evenodd"
               x="242.213"
               y="300.46399"
               transform="matrix(0.9824,0.1865,-0.1865,0.9824,60.5262,-40.0259)"
               clip-rule="evenodd"
               width="1.5"
               height="2.325"
               id="rect516" /></g></g><g
           id="g518"><g
             id="g520"><g
               id="g522"><rect
                 style="fill:none"
                 x="233.811"
                 y="310.55099"
                 transform="matrix(0.1863,-0.9825,0.9825,0.1863,-117.1331,494.6693)"
                 width="12.523"
                 height="14.998"
                 id="rect524" /></g><rect
               style="fill-rule:evenodd"
               x="238.32899"
               y="320.94699"
               transform="matrix(0.9825,0.1862,-0.1862,0.9825,64.1631,-38.8859)"
               clip-rule="evenodd"
               width="1.5"
               height="2.3239999"
               id="rect526" /><rect
               style="fill-rule:evenodd"
               x="239.105"
               y="316.85101"
               transform="matrix(0.9825,0.1862,-0.1862,0.9825,63.3923,-39.0915)"
               clip-rule="evenodd"
               width="1.5"
               height="2.3239999"
               id="rect528" /><rect
               style="fill-rule:evenodd"
               x="239.88"
               y="312.76801"
               transform="matrix(0.9824,0.1865,-0.1865,0.9824,62.7803,-39.3747)"
               clip-rule="evenodd"
               width="1.5"
               height="2.325"
               id="rect530" /></g></g><g
           id="g532"><g
             id="g534"><g
               id="g536"><rect
                 style="fill:none"
                 x="231.47701"
                 y="322.85501"
                 transform="matrix(0.1863,-0.9825,0.9825,0.1863,-131.1271,502.3748)"
                 width="12.524"
                 height="14.998"
                 id="rect538" /></g><rect
               style="fill-rule:evenodd"
               x="235.995"
               y="333.25201"
               transform="matrix(0.9825,0.1862,-0.1862,0.9825,66.4136,-38.2362)"
               clip-rule="evenodd"
               width="1.5"
               height="2.3239999"
               id="rect540" /><rect
               style="fill-rule:evenodd"
               x="236.772"
               y="329.155"
               transform="matrix(0.9825,0.1862,-0.1862,0.9825,65.6644,-38.4525)"
               clip-rule="evenodd"
               width="1.5"
               height="2.3239999"
               id="rect542" /><rect
               style="fill-rule:evenodd"
               x="237.54601"
               y="325.073"
               transform="matrix(0.9825,0.1865,-0.1865,0.9825,65.0123,-38.713)"
               clip-rule="evenodd"
               width="1.5"
               height="2.325"
               id="rect544" /></g></g><g
           id="g546"><g
             id="g548"><g
               id="g550"><rect
                 style="fill:none"
                 x="229.144"
                 y="335.159"
                 transform="matrix(0.1863,-0.9825,0.9825,0.1863,-145.1145,510.0938)"
                 width="12.524"
                 height="14.998"
                 id="rect552" /></g><rect
               style="fill-rule:evenodd"
               x="233.662"
               y="345.556"
               transform="matrix(0.9825,0.1862,-0.1862,0.9825,68.664,-37.5865)"
               clip-rule="evenodd"
               width="1.5"
               height="2.3239999"
               id="rect554" /><rect
               style="fill-rule:evenodd"
               x="234.439"
               y="341.45999"
               transform="matrix(0.9825,0.1862,-0.1862,0.9825,67.9148,-37.8028)"
               clip-rule="evenodd"
               width="1.5"
               height="2.3239999"
               id="rect556" /><rect
               style="fill-rule:evenodd"
               x="235.213"
               y="337.37701"
               transform="matrix(0.9824,0.1865,-0.1865,0.9824,67.2886,-38.0724)"
               clip-rule="evenodd"
               width="1.5"
               height="2.325"
               id="rect558" /></g></g><g
           id="g560"><g
             id="g562"><g
               id="g564"><rect
                 style="fill:none"
                 x="226.811"
                 y="347.46301"
                 transform="matrix(0.1863,-0.9825,0.9825,0.1863,-159.0955,517.8279)"
                 width="12.523"
                 height="14.998"
                 id="rect566" /></g><rect
               style="fill-rule:evenodd"
               x="231.32899"
               y="357.85999"
               transform="matrix(0.9825,0.1862,-0.1862,0.9825,70.9144,-36.9368)"
               clip-rule="evenodd"
               width="1.5"
               height="2.3239999"
               id="rect568" /><rect
               style="fill-rule:evenodd"
               x="232.105"
               y="353.76401"
               transform="matrix(0.9825,0.1862,-0.1862,0.9825,70.1414,-37.1432)"
               clip-rule="evenodd"
               width="1.5"
               height="2.3239999"
               id="rect570" /><rect
               style="fill-rule:evenodd"
               x="232.88"
               y="349.681"
               transform="matrix(0.9824,0.1865,-0.1865,0.9824,69.5427,-37.4211)"
               clip-rule="evenodd"
               width="1.5"
               height="2.325"
               id="rect572" /></g></g><g
           id="g574"><g
             id="g576"><g
               id="g578"><rect
                 style="fill:none"
                 x="224.47701"
                 y="359.767"
                 transform="matrix(0.1863,-0.9825,0.9825,0.1863,-173.089,525.5321)"
                 width="12.524"
                 height="14.998"
                 id="rect580" /></g><rect
               style="fill-rule:evenodd"
               x="228.995"
               y="370.164"
               transform="matrix(0.9825,0.1862,-0.1862,0.9825,73.1648,-36.2871)"
               clip-rule="evenodd"
               width="1.5"
               height="2.3239999"
               id="rect582" /><rect
               style="fill-rule:evenodd"
               x="229.772"
               y="366.06799"
               transform="matrix(0.9825,0.1862,-0.1862,0.9825,72.4156,-36.5034)"
               clip-rule="evenodd"
               width="1.5"
               height="2.3239999"
               id="rect584" /><rect
               style="fill-rule:evenodd"
               x="230.54601"
               y="361.98499"
               transform="matrix(0.9825,0.1865,-0.1865,0.9825,71.7726,-36.7603)"
               clip-rule="evenodd"
               width="1.5"
               height="2.325"
               id="rect586" /></g></g></g></g></g><g
     id="g588"><g
       id="g590"><g
         id="g592"><g
           id="g594"><g
             id="g596"><g
               id="g598"><rect
                 style="fill:none"
                 x="257.53101"
                 y="296.19199"
                 transform="matrix(0.1863,-0.9825,0.9825,0.1863,-83.7323,506.2777)"
                 width="12.524"
                 height="14.998"
                 id="rect600" /></g><rect
               style="fill-rule:evenodd"
               x="262.04901"
               y="306.58899"
               transform="matrix(0.9825,0.1862,-0.1862,0.9825,61.9043,-43.5541)"
               clip-rule="evenodd"
               width="1.5"
               height="2.3239999"
               id="rect602" /><rect
               style="fill-rule:evenodd"
               x="262.82599"
               y="302.49301"
               transform="matrix(0.9825,0.1862,-0.1862,0.9825,61.1551,-43.7704)"
               clip-rule="evenodd"
               width="1.5"
               height="2.3239999"
               id="rect604" /><rect
               style="fill-rule:evenodd"
               x="263.60001"
               y="298.41"
               transform="matrix(0.9824,0.1865,-0.1865,0.9824,60.5183,-44.0513)"
               clip-rule="evenodd"
               width="1.5"
               height="2.325"
               id="rect606" /></g></g><g
           id="g608"><g
             id="g610"><g
               id="g612"><rect
                 style="fill:none"
                 x="255.198"
                 y="308.496"
                 transform="matrix(0.1863,-0.9825,0.9825,0.1863,-97.7119,514.0106)"
                 width="12.523"
                 height="14.998"
                 id="rect614" /></g><rect
               style="fill-rule:evenodd"
               x="259.716"
               y="318.89301"
               transform="matrix(0.9825,0.1862,-0.1862,0.9825,64.1547,-42.9044)"
               clip-rule="evenodd"
               width="1.5"
               height="2.3239999"
               id="rect616" /><rect
               style="fill-rule:evenodd"
               x="260.492"
               y="314.797"
               transform="matrix(0.9825,0.1862,-0.1862,0.9825,63.3838,-43.1088)"
               clip-rule="evenodd"
               width="1.5"
               height="2.3239999"
               id="rect618" /><rect
               style="fill-rule:evenodd"
               x="261.267"
               y="310.71399"
               transform="matrix(0.9824,0.1865,-0.1865,0.9824,62.7725,-43.4001)"
               clip-rule="evenodd"
               width="1.5"
               height="2.325"
               id="rect620" /></g></g><g
           id="g622"><g
             id="g624"><g
               id="g626"><rect
                 style="fill:none"
                 x="252.864"
                 y="320.80099"
                 transform="matrix(0.1863,-0.9825,0.9825,0.1863,-111.7067,521.7161)"
                 width="12.524"
                 height="14.998"
                 id="rect628" /></g><rect
               style="fill-rule:evenodd"
               x="257.383"
               y="331.19699"
               transform="matrix(0.9825,0.1862,-0.1862,0.9825,66.4051,-42.2548)"
               clip-rule="evenodd"
               width="1.5"
               height="2.3239999"
               id="rect630" /><rect
               style="fill-rule:evenodd"
               x="258.159"
               y="327.10101"
               transform="matrix(0.9825,0.1862,-0.1862,0.9825,65.6559,-42.4711)"
               clip-rule="evenodd"
               width="1.5"
               height="2.3239999"
               id="rect632" /><rect
               style="fill-rule:evenodd"
               x="258.93301"
               y="323.01801"
               transform="matrix(0.9825,0.1865,-0.1865,0.9825,65.0043,-42.7371)"
               clip-rule="evenodd"
               width="1.5"
               height="2.325"
               id="rect634" /></g></g><g
           id="g636"><g
             id="g638"><g
               id="g640"><rect
                 style="fill:none"
                 x="250.53101"
                 y="333.10501"
                 transform="matrix(0.1863,-0.9825,0.9825,0.1863,-125.6941,529.4349)"
                 width="12.524"
                 height="14.998"
                 id="rect642" /></g><rect
               style="fill-rule:evenodd"
               x="255.049"
               y="343.50201"
               transform="matrix(0.9825,0.1862,-0.1862,0.9825,68.6555,-41.605)"
               clip-rule="evenodd"
               width="1.5"
               height="2.3239999"
               id="rect644" /><rect
               style="fill-rule:evenodd"
               x="255.826"
               y="339.405"
               transform="matrix(0.9825,0.1862,-0.1862,0.9825,67.9063,-41.8213)"
               clip-rule="evenodd"
               width="1.5"
               height="2.3239999"
               id="rect646" /><rect
               style="fill-rule:evenodd"
               x="256.60001"
               y="335.323"
               transform="matrix(0.9824,0.1865,-0.1865,0.9824,67.2807,-42.0978)"
               clip-rule="evenodd"
               width="1.5"
               height="2.325"
               id="rect648" /></g></g><g
           id="g650"><g
             id="g652"><g
               id="g654"><rect
                 style="fill:none"
                 x="248.198"
                 y="345.409"
                 transform="matrix(0.1863,-0.9825,0.9825,0.1863,-139.6743,537.1693)"
                 width="12.523"
                 height="14.998"
                 id="rect656" /></g><rect
               style="fill-rule:evenodd"
               x="252.716"
               y="355.806"
               transform="matrix(0.9825,0.1862,-0.1862,0.9825,70.9059,-40.9553)"
               clip-rule="evenodd"
               width="1.5"
               height="2.3239999"
               id="rect658" /><rect
               style="fill-rule:evenodd"
               x="253.493"
               y="351.70999"
               transform="matrix(0.9825,0.1862,-0.1862,0.9825,70.1329,-41.1605)"
               clip-rule="evenodd"
               width="1.5"
               height="2.3239999"
               id="rect660" /><rect
               style="fill-rule:evenodd"
               x="254.267"
               y="347.62701"
               transform="matrix(0.9824,0.1865,-0.1865,0.9824,69.5349,-41.4465)"
               clip-rule="evenodd"
               width="1.5"
               height="2.325"
               id="rect662" /></g></g><g
           id="g664"><g
             id="g666"><g
               id="g668"><rect
                 style="fill:none"
                 x="245.864"
                 y="357.71301"
                 transform="matrix(0.1863,-0.9825,0.9825,0.1863,-153.6686,544.8733)"
                 width="12.524"
                 height="14.998"
                 id="rect670" /></g><rect
               style="fill-rule:evenodd"
               x="250.383"
               y="368.10999"
               transform="matrix(0.9825,0.1862,-0.1862,0.9825,73.1564,-40.3056)"
               clip-rule="evenodd"
               width="1.5"
               height="2.3239999"
               id="rect672" /><rect
               style="fill-rule:evenodd"
               x="251.159"
               y="364.01401"
               transform="matrix(0.9825,0.1862,-0.1862,0.9825,72.4072,-40.5219)"
               clip-rule="evenodd"
               width="1.5"
               height="2.3239999"
               id="rect674" /><rect
               style="fill-rule:evenodd"
               x="251.933"
               y="359.931"
               transform="matrix(0.9825,0.1865,-0.1865,0.9825,71.7646,-40.7844)"
               clip-rule="evenodd"
               width="1.5"
               height="2.325"
               id="rect676" /></g></g></g></g></g><g
     id="g678"><g
       id="g680"><g
         id="g682"><g
           id="g684"><g
             id="g686"><g
               id="g688"><rect
                 style="fill:none"
                 x="271.53101"
                 y="291.69501"
                 transform="matrix(0.1863,-0.9825,0.9825,0.1863,-67.9225,516.3734)"
                 width="12.524"
                 height="14.998"
                 id="rect690" /></g><rect
               style="fill-rule:evenodd"
               x="276.04901"
               y="302.09201"
               transform="matrix(0.9825,0.1862,-0.1862,0.9825,61.3118,-46.2398)"
               clip-rule="evenodd"
               width="1.5"
               height="2.3239999"
               id="rect692" /><rect
               style="fill-rule:evenodd"
               x="276.82599"
               y="297.996"
               transform="matrix(0.9825,0.1862,-0.1862,0.9825,60.5626,-46.4561)"
               clip-rule="evenodd"
               width="1.5"
               height="2.3239999"
               id="rect694" /><rect
               style="fill-rule:evenodd"
               x="277.60001"
               y="293.91299"
               transform="matrix(0.9824,0.1865,-0.1865,0.9824,59.9252,-46.7416)"
               clip-rule="evenodd"
               width="1.5"
               height="2.325"
               id="rect696" /></g></g><g
           id="g698"><g
             id="g700"><g
               id="g702"><rect
                 style="fill:none"
                 x="269.198"
                 y="303.99899"
                 transform="matrix(0.1863,-0.9825,0.9825,0.1863,-81.9017,524.1062)"
                 width="12.523"
                 height="14.998"
                 id="rect704" /></g><rect
               style="fill-rule:evenodd"
               x="273.716"
               y="314.396"
               transform="matrix(0.9825,0.1862,-0.1862,0.9825,63.5622,-45.5901)"
               clip-rule="evenodd"
               width="1.5"
               height="2.3239999"
               id="rect706" /><rect
               style="fill-rule:evenodd"
               x="274.492"
               y="310.29999"
               transform="matrix(0.9825,0.1862,-0.1862,0.9825,62.7913,-45.7935)"
               clip-rule="evenodd"
               width="1.5"
               height="2.3239999"
               id="rect708" /><rect
               style="fill-rule:evenodd"
               x="275.267"
               y="306.21701"
               transform="matrix(0.9824,0.1865,-0.1865,0.9824,62.1794,-46.0904)"
               clip-rule="evenodd"
               width="1.5"
               height="2.325"
               id="rect710" /></g></g><g
           id="g712"><g
             id="g714"><g
               id="g716"><rect
                 style="fill:none"
                 x="266.86401"
                 y="316.30399"
                 transform="matrix(0.1863,-0.9825,0.9825,0.1863,-95.897,531.8118)"
                 width="12.524"
                 height="14.998"
                 id="rect718" /></g><rect
               style="fill-rule:evenodd"
               x="271.383"
               y="326.70001"
               transform="matrix(0.9825,0.1862,-0.1862,0.9825,65.8126,-44.9404)"
               clip-rule="evenodd"
               width="1.5"
               height="2.3239999"
               id="rect720" /><rect
               style="fill-rule:evenodd"
               x="272.159"
               y="322.604"
               transform="matrix(0.9825,0.1862,-0.1862,0.9825,65.0634,-45.1567)"
               clip-rule="evenodd"
               width="1.5"
               height="2.3239999"
               id="rect722" /><rect
               style="fill-rule:evenodd"
               x="272.93301"
               y="318.521"
               transform="matrix(0.9825,0.1865,-0.1865,0.9825,64.4113,-45.4265)"
               clip-rule="evenodd"
               width="1.5"
               height="2.325"
               id="rect724" /></g></g><g
           id="g726"><g
             id="g728"><g
               id="g730"><rect
                 style="fill:none"
                 x="264.53101"
                 y="328.608"
                 transform="matrix(0.1863,-0.9825,0.9825,0.1863,-109.8844,539.5306)"
                 width="12.524"
                 height="14.998"
                 id="rect732" /></g><rect
               style="fill-rule:evenodd"
               x="269.04901"
               y="339.005"
               transform="matrix(0.9825,0.1862,-0.1862,0.9825,68.063,-44.2907)"
               clip-rule="evenodd"
               width="1.5"
               height="2.3239999"
               id="rect734" /><rect
               style="fill-rule:evenodd"
               x="269.82599"
               y="334.90799"
               transform="matrix(0.9825,0.1862,-0.1862,0.9825,67.3138,-44.507)"
               clip-rule="evenodd"
               width="1.5"
               height="2.3239999"
               id="rect736" /><rect
               style="fill-rule:evenodd"
               x="270.60001"
               y="330.82599"
               transform="matrix(0.9824,0.1865,-0.1865,0.9824,66.6876,-44.7881)"
               clip-rule="evenodd"
               width="1.5"
               height="2.325"
               id="rect738" /></g></g><g
           id="g740"><g
             id="g742"><g
               id="g744"><rect
                 style="fill:none"
                 x="262.198"
                 y="340.91199"
                 transform="matrix(0.1863,-0.9825,0.9825,0.1863,-123.864,547.2649)"
                 width="12.523"
                 height="14.998"
                 id="rect746" /></g><rect
               style="fill-rule:evenodd"
               x="266.716"
               y="351.30899"
               transform="matrix(0.9825,0.1862,-0.1862,0.9825,70.3134,-43.641)"
               clip-rule="evenodd"
               width="1.5"
               height="2.3239999"
               id="rect748" /><rect
               style="fill-rule:evenodd"
               x="267.492"
               y="347.21301"
               transform="matrix(0.9825,0.1862,-0.1862,0.9825,69.5405,-43.8452)"
               clip-rule="evenodd"
               width="1.5"
               height="2.3239999"
               id="rect750" /><rect
               style="fill-rule:evenodd"
               x="268.267"
               y="343.13"
               transform="matrix(0.9824,0.1865,-0.1865,0.9824,68.9417,-44.1369)"
               clip-rule="evenodd"
               width="1.5"
               height="2.325"
               id="rect752" /></g></g><g
           id="g754"><g
             id="g756"><g
               id="g758"><rect
                 style="fill:none"
                 x="259.86401"
                 y="353.216"
                 transform="matrix(0.1863,-0.9825,0.9825,0.1863,-137.8589,554.969)"
                 width="12.524"
                 height="14.998"
                 id="rect760" /></g><rect
               style="fill-rule:evenodd"
               x="264.383"
               y="363.61301"
               transform="matrix(0.9825,0.1862,-0.1862,0.9825,72.5638,-42.9913)"
               clip-rule="evenodd"
               width="1.5"
               height="2.3239999"
               id="rect762" /><rect
               style="fill-rule:evenodd"
               x="265.159"
               y="359.517"
               transform="matrix(0.9825,0.1862,-0.1862,0.9825,71.8146,-43.2076)"
               clip-rule="evenodd"
               width="1.5"
               height="2.3239999"
               id="rect764" /><rect
               style="fill-rule:evenodd"
               x="265.93301"
               y="355.43399"
               transform="matrix(0.9825,0.1865,-0.1865,0.9825,71.1716,-43.4738)"
               clip-rule="evenodd"
               width="1.5"
               height="2.325"
               id="rect766" /></g></g></g></g></g><g
     id="g768"><g
       id="g770"><g
         id="g772"><g
           id="g774"><g
             id="g776"><g
               id="g778"><rect
                 style="fill:none"
                 x="281.78299"
                 y="290.77899"
                 transform="matrix(0.2216,-0.9751,0.9751,0.2216,-66.6112,513.1069)"
                 width="12.633"
                 height="14.998"
                 id="rect780" /></g><rect
               style="fill-rule:evenodd"
               x="286.202"
               y="301.16299"
               transform="matrix(0.9751,0.2216,-0.2216,0.9751,74.1499,-56.0826)"
               clip-rule="evenodd"
               width="1.5"
               height="2.3440001"
               id="rect782" /><rect
               style="fill-rule:evenodd"
               x="287.134"
               y="297.06201"
               transform="matrix(0.9751,0.2216,-0.2216,0.9751,73.2641,-56.3912)"
               clip-rule="evenodd"
               width="1.5"
               height="2.345"
               id="rect784" /><rect
               style="fill-rule:evenodd"
               x="288.06299"
               y="292.974"
               transform="matrix(0.9751,0.2216,-0.2216,0.9751,72.3812,-56.6988)"
               clip-rule="evenodd"
               width="1.5"
               height="2.345"
               id="rect786" /></g></g><g
           id="g788"><g
             id="g790"><g
               id="g792"><rect
                 style="fill:none"
                 x="278.983"
                 y="303.09799"
                 transform="matrix(0.2217,-0.9751,0.9751,0.2217,-80.8126,519.9481)"
                 width="12.633"
                 height="14.998"
                 id="rect794" /></g><rect
               style="fill-rule:evenodd"
               x="283.40201"
               y="313.48099"
               transform="matrix(0.9751,0.2217,-0.2217,0.9751,76.8373,-55.1705)"
               clip-rule="evenodd"
               width="1.5"
               height="2.345"
               id="rect796" /><rect
               style="fill-rule:evenodd"
               x="284.33401"
               y="309.38"
               transform="matrix(0.9751,0.2217,-0.2217,0.9751,75.9512,-55.4792)"
               clip-rule="evenodd"
               width="1.5"
               height="2.345"
               id="rect798" /><rect
               style="fill-rule:evenodd"
               x="285.263"
               y="305.293"
               transform="matrix(0.9751,0.2217,-0.2217,0.9751,75.0681,-55.787)"
               clip-rule="evenodd"
               width="1.5"
               height="2.345"
               id="rect800" /></g></g><g
           id="g802"><g
             id="g804"><g
               id="g806"><rect
                 style="fill:none"
                 x="276.18301"
                 y="315.41599"
                 transform="matrix(0.2216,-0.9751,0.9751,0.2216,-94.9947,526.8231)"
                 width="12.633"
                 height="14.998"
                 id="rect808" /></g><rect
               style="fill-rule:evenodd"
               x="280.60199"
               y="325.79999"
               transform="matrix(0.9751,0.2216,-0.2216,0.9751,79.4715,-54.2285)"
               clip-rule="evenodd"
               width="1.5"
               height="2.345"
               id="rect810" /><rect
               style="fill-rule:evenodd"
               x="281.534"
               y="321.69901"
               transform="matrix(0.9751,0.2216,-0.2216,0.9751,78.5857,-54.5371)"
               clip-rule="evenodd"
               width="1.5"
               height="2.345"
               id="rect812" /><rect
               style="fill-rule:evenodd"
               x="282.46301"
               y="317.61099"
               transform="matrix(0.9752,0.2213,-0.2213,0.9752,77.5841,-54.7795)"
               clip-rule="evenodd"
               width="1.5"
               height="2.3440001"
               id="rect814" /></g></g><g
           id="g816"><g
             id="g818"><g
               id="g820"><rect
                 style="fill:none"
                 x="273.383"
                 y="327.73499"
                 transform="matrix(0.2217,-0.9751,0.9751,0.2217,-109.1956,533.6631)"
                 width="12.633"
                 height="14.998"
                 id="rect822" /></g><rect
               style="fill-rule:evenodd"
               x="277.802"
               y="338.11801"
               transform="matrix(0.9751,0.2217,-0.2217,0.9751,82.1605,-53.3156)"
               clip-rule="evenodd"
               width="1.5"
               height="2.345"
               id="rect824" /><rect
               style="fill-rule:evenodd"
               x="278.73401"
               y="334.01801"
               transform="matrix(0.9752,0.2213,-0.2213,0.9752,81.123,-53.5472)"
               clip-rule="evenodd"
               width="1.5"
               height="2.3440001"
               id="rect826" /><rect
               style="fill-rule:evenodd"
               x="279.66299"
               y="329.92999"
               transform="matrix(0.9751,0.2217,-0.2217,0.9751,80.3913,-53.9321)"
               clip-rule="evenodd"
               width="1.5"
               height="2.345"
               id="rect828" /></g></g><g
           id="g830"><g
             id="g832"><g
               id="g834"><rect
                 style="fill:none"
                 x="270.58301"
                 y="340.05301"
                 transform="matrix(0.2216,-0.9751,0.9751,0.2216,-123.3782,540.5392)"
                 width="12.633"
                 height="14.998"
                 id="rect836" /></g><rect
               style="fill-rule:evenodd"
               x="275.00201"
               y="350.43701"
               transform="matrix(0.9751,0.2216,-0.2216,0.9751,84.793,-52.3744)"
               clip-rule="evenodd"
               width="1.5"
               height="2.345"
               id="rect838" /><rect
               style="fill-rule:evenodd"
               x="275.93399"
               y="346.336"
               transform="matrix(0.9751,0.2217,-0.2217,0.9751,83.9361,-52.697)"
               clip-rule="evenodd"
               width="1.5"
               height="2.345"
               id="rect840" /><rect
               style="fill-rule:evenodd"
               x="276.86301"
               y="342.24899"
               transform="matrix(0.9751,0.2216,-0.2216,0.9751,83.0243,-52.9907)"
               clip-rule="evenodd"
               width="1.5"
               height="2.345"
               id="rect842" /></g></g></g></g></g><text
     style="font-size:18px;font-family:MyriadPro-Regular"
     transform="matrix(0.8459,-0.5333,0.5333,0.8459,64.3994,464.4063)"
     font-size="18"
     id="text844">winds</text>
<text
     style="font-size:18px;font-family:MyriadPro-Regular"
     transform="matrix(0.9572,0.2896,-0.2896,0.9572,319.5645,316.6641)"
     font-size="18"
     id="text846">winds</text>
<text
     style="font-size:18px;font-family:MyriadPro-Regular"
     transform="matrix(0.9995,-0.0303,0.0303,0.9995,537.3047,493.041)"
     font-size="18"
     id="text848">winds</text>
<text
     style="font-size:18px;font-family:MyriadPro-Regular"
     transform="translate(443.3613,432.127)"
     font-size="18"
     id="text850">X</text>
<text
     style="font-size:18px;font-family:MyriadPro-Regular"
     transform="translate(165.2544,322.915)"
     font-size="18"
     id="text852">Rain</text>
<polyline
     style="fill:none;stroke:#000000;stroke-width:4;stroke-miterlimit:10"
     stroke-miterlimit="10"
     points="7.167,261.166 7.167,515 604,509.833  "
     id="polyline854" /></g></svg>