<?xml version="1.0" encoding="UTF-8" standalone="no"?>
<!-- Generator: Adobe Illustrator 16.0.0, SVG Export Plug-In . SVG Version: 6.00 Build 0)  -->

<svg
   xmlns:dc="http://purl.org/dc/elements/1.1/"
   xmlns:cc="http://creativecommons.org/ns#"
   xmlns:rdf="http://www.w3.org/1999/02/22-rdf-syntax-ns#"
   xmlns:svg="http://www.w3.org/2000/svg"
   xmlns="http://www.w3.org/2000/svg"
   xmlns:sodipodi="http://sodipodi.sourceforge.net/DTD/sodipodi-0.dtd"
   xmlns:inkscape="http://www.inkscape.org/namespaces/inkscape"
   version="1.0"
   id="Layer_1"
   x="0px"
   y="0px"
   viewBox="0 0 365.5 432.34375"
   enable-background="new 0 0 437 54"
   xml:space="preserve"
   inkscape:version="0.48.4 r9939"
   width="100%"
   height="100%"
   sodipodi:docname="canvas.svg"><metadata
   id="metadata110"><rdf:RDF><cc:Work
       rdf:about=""><dc:format>image/svg+xml</dc:format><dc:type
         rdf:resource="http://purl.org/dc/dcmitype/StillImage" /><dc:title></dc:title></cc:Work></rdf:RDF></metadata><defs
   id="defs108" /><sodipodi:namedview
   pagecolor="#ffffff"
   bordercolor="#666666"
   borderopacity="1"
   objecttolerance="10"
   gridtolerance="10"
   guidetolerance="10"
   inkscape:pageopacity="0"
   inkscape:pageshadow="2"
   inkscape:window-width="786"
   inkscape:window-height="592"
   id="namedview106"
   showgrid="false"
   inkscape:zoom="0.65446224"
   inkscape:cx="164.41434"
   inkscape:cy="143.84981"
   inkscape:window-x="182"
   inkscape:window-y="43"
   inkscape:window-maximized="0"
   inkscape:current-layer="Layer_1"
   fit-margin-top="0"
   fit-margin-left="0"
   fit-margin-right="0"
   fit-margin-bottom="0"
   showborder="false"
   inkscape:showpageshadow="false" />

<g
   transform="translate(-111,-143.15625)"
   id="Layer_3"><path
     style="fill:none;stroke:#000000;stroke-miterlimit:10"
     inkscape:connector-curvature="0"
     stroke-miterlimit="10"
     d="m 186.5,149.5 -9,20 h -13 l -21,30 v 6.667 h 3 l 2,8.667 h 5.667 l 3.333,3.333 -2.333,5.667 2.667,8.333 1,7.333 6.167,4.667 2.833,10.333 12,20.667 -1,28.999 -1.667,9 -6.333,5 -9,2.667 -0.333,9 -3,7 -8.667,10 -6.333,6 -8.667,18.332 -3,11.333 v 25 l 9,6 4.667,2 10.333,3.333 -2,4.333 10,6 78.667,43 22.333,10.667 7.667,2 10.333,8 2.667,5.333 -8,5 -0.333,6 8.333,4.667 v 9.333 h 6.333 l 8.667,5.667 17,13.667 17.334,11.666 6.333,7.667 h 4.667 l 1.666,-8 4.667,-3 10,-1 v -11 l 10.667,-14.333 -2,-7.667 5.333,-8.333 -1.667,-10.334 -2,-8 6,-2.333 2,-5 7,-0.667 2.667,-8 9,-1 5.333,-7.333 6.667,0.333 2.333,-9.666 7.667,-3 4.667,-11.667 13,-2.333 1.666,-7 -22,-30 0.667,-149 49.333,-67.667 -10.666,8.333 -12.334,3.333 -9,1.667 c 0,0 -11.333,0 -13.333,-4 -2,-4 -4.667,-8.333 -12.667,-8 -8,0.333 -7.666,-1 -13.666,4 -6,5 -8.001,4.334 -13.334,7.667 -5.333,3.333 -8.333,5.666 -9.333,9.333 -1,3.667 -0.333,14 -4,14.667 -3.667,0.667 -8,-2.667 -12,-2.667 -4,0 -4.333,-1 -7,1.333 -2.667,2.333 -8.667,-2.333 -12.667,-3.333 -4,-1 -21.333,4 -21.333,4 l -15.333,-6.667 c 0,0 -3,-8.666 -13.667,-7.333 -10.667,1.333 -19.333,-14.333 -19.333,-14.333 l -6.667,-8.667 c 0,0 1,-0.667 -12.333,0.333 -13.333,1 -23.667,-4 -23.667,-4 0,0 -12,-8 -15.667,-3.333 -3.667,4.667 -7,-6 -7,-6 l -0.667,-22.665 -5,-5.336 c -0.001,10e-4 -7.334,7.006 -11.334,5.337 z"
     id="path10" /><line
     style="fill:none;stroke:#000000;stroke-miterlimit:10"
     stroke-miterlimit="10"
     x1="331.5"
     y1="574.5"
     x2="341.16699"
     y2="561.83099"
     id="line12" /><path
     style="fill:none;stroke:#000000;stroke-miterlimit:10"
     inkscape:connector-curvature="0"
     stroke-miterlimit="10"
     d="m 474.5,415.5 c 0,0 -9.5,9 -17,12 -7.5,3 -15.986,0.737 -17,4.998"
     id="path14" /><polyline
     style="fill:none;stroke:#000000;stroke-miterlimit:10"
     stroke-miterlimit="10"
     points="413.5,458 389,458 368,468 338.407,558.49  "
     id="polyline16" /><path
     style="fill:#5d5e5e;stroke:#000000;stroke-miterlimit:10"
     inkscape:connector-curvature="0"
     stroke-miterlimit="10"
     d="m 254,363 c -0.682,-4.846 -11.571,-22.666 -17.998,-19.924 -6.535,2.787 -4.267,23.208 -4,29.037 1.099,24.07 15.309,49.199 39.109,55.499 6.262,1.657 5.663,-2.314 10.392,-4.109 6.163,-2.34 8.733,2.52 9.997,-6.027 0.833,-5.635 0.765,-7.085 4.891,-11.074 1.893,-1.83 3.549,-3.265 5.135,-5.426 1.619,-2.207 1.873,-5.573 3.962,-7.482 3.843,-3.511 9.205,-1.798 9.012,-8.992 -0.136,-5.076 -3.033,-8.762 -6.516,-11.5 -7.142,-5.614 -9.223,-16.15 -18.484,-18 -4.055,-0.81 -7.551,-0.632 -10.648,-4 -2.477,-2.693 -2.354,-7.082 -4.437,-9.889 -2.176,-2.933 -4.5,-4.938 -6.542,-8.125 -3.521,-5.498 -5.737,-3.837 -8.982,1.123 -5.506,8.416 1.534,12.091 3.986,19.902 1.013,3.225 1.71,6.202 -0.254,9.085 -2.087,3.063 -6.732,4.299 -9.123,0.403"
     id="path18" /><path
     style="fill:none;stroke:#000000;stroke-miterlimit:10"
     inkscape:connector-curvature="0"
     stroke-miterlimit="10"
     d="m 113,358 c 4.174,-0.806 13.295,-2.194 16.924,-4.863 0.368,2.61 -0.346,5.212 -1.007,7.687 10.125,-5.808 9.885,4.881 12.448,10.703 2.246,5.103 6.183,12.143 12.084,12.922 0.091,-2.589 -0.072,-5.371 0.227,-7.873 4.574,-0.254 9.309,-0.749 11.312,4.023 5.026,-6.094 8.306,3.057 6.424,7.826 -3.815,0.187 -7.573,-0.909 -11.335,-0.349 -0.476,2.238 -0.062,7.008 -2.203,8.349 -4.821,3.02 -5.296,-4.457 -7.851,-5.571 -8.957,-3.908 -7.001,10.665 -7.021,14.647 -0.028,5.39 -4.471,12.878 -7.139,17.486 -1.726,2.982 -4.681,5.267 -4.361,8.989 0.33,3.847 4.288,4.365 2.839,8.838 -5.464,0.659 -8.874,-0.331 -13.339,-2.912 -2.81,3.104 -5.688,8.283 -9,10.599"
     id="path20" /><path
     style="fill:none;stroke:#000000;stroke-miterlimit:10"
     inkscape:connector-curvature="0"
     stroke-miterlimit="10"
     d="m 222,180 c 0.403,2.456 -5.806,5.522 -6.5,9 -0.758,3.802 0.5,8.823 0.5,12.863 0,7.204 -2.099,19.63 0.992,25.762 2.232,4.43 7.458,4.25 9.532,7.84 2.244,3.884 0.009,10.442 1.952,14.689 2.099,4.587 6.008,8.437 8.01,13.237 1.447,3.471 3.345,10.733 6.527,12.671 1.154,-1.153 2.297,-3.125 3.626,-4.06 1.248,-0.878 4.23,-0.767 5.385,-1.955 4.221,-4.339 -3.231,-9.265 -5.012,-12.021 -2.092,-3.237 -4.774,-8.261 -6.149,-12.01 -1.907,-5.202 -0.396,-9.999 -2.972,-15.042 -2.212,-4.33 -3.84,-8.238 -3.891,-13.339 -0.045,-4.547 0.875,-8.824 -0.137,-13.109 C 232.782,199.947 231.084,179.779 223.5,181"
     id="path22" /><g
     id="g24"><path
       style="fill:none;stroke:#000000;stroke-miterlimit:10"
       inkscape:connector-curvature="0"
       stroke-miterlimit="10"
       d="m 141.974,314.5 c 0,0 -13.474,43 20.526,51"
       id="path26" /><polygon
       style="fill:#180c16"
       points="164.329,361.847 168.021,369.152 159.849,368.697 "
       id="polygon28" /></g><text
     style="font-size:12px;font-family:MyriadPro-Bold"
     transform="translate(359.1191,516.5068)"
     font-size="12"
     id="text30">T</text>
<text
     style="font-size:12px;font-family:MyriadPro-Bold"
     transform="translate(268.6543,399.5068)"
     font-size="12"
     id="text32">Q</text>
<text
     style="font-size:12px;font-family:MyriadPro-Bold"
     transform="translate(236.9419,203)"
     font-size="12"
     id="text34">R</text>
<text
     style="font-size:12px;font-family:MyriadPro-Bold"
     transform="translate(143.2603,333.5)"
     font-size="12"
     id="text36">S</text>
<rect
     style="fill:none;stroke:#000000;stroke-width:2;stroke-miterlimit:10"
     x="112"
     y="144.164"
     stroke-miterlimit="10"
     width="363.5"
     height="430.336"
     id="rect38" /></g></svg>