<?xml version="1.0" encoding="UTF-8" standalone="no"?>
<!-- Generator: Adobe Illustrator 16.0.0, SVG Export Plug-In . SVG Version: 6.00 Build 0)  -->

<svg
   xmlns:dc="http://purl.org/dc/elements/1.1/"
   xmlns:cc="http://creativecommons.org/ns#"
   xmlns:rdf="http://www.w3.org/1999/02/22-rdf-syntax-ns#"
   xmlns:svg="http://www.w3.org/2000/svg"
   xmlns="http://www.w3.org/2000/svg"
   xmlns:xlink="http://www.w3.org/1999/xlink"
   xmlns:sodipodi="http://sodipodi.sourceforge.net/DTD/sodipodi-0.dtd"
   xmlns:inkscape="http://www.inkscape.org/namespaces/inkscape"
   version="1.0"
   id="Layer_1"
   x="0px"
   y="0px"
   viewBox="0 0 488.72616 282.78125"
   enable-background="new 0 0 437 54"
   xml:space="preserve"
   inkscape:version="0.48.4 r9939"
   width="100%"
   height="100%"
   sodipodi:docname="canvas.svg"><metadata
   id="metadata110"><rdf:RDF><cc:Work
       rdf:about=""><dc:format>image/svg+xml</dc:format><dc:type
         rdf:resource="http://purl.org/dc/dcmitype/StillImage" /><dc:title></dc:title></cc:Work></rdf:RDF></metadata><defs
   id="defs108" /><sodipodi:namedview
   pagecolor="#ffffff"
   bordercolor="#666666"
   borderopacity="1"
   objecttolerance="10"
   gridtolerance="10"
   guidetolerance="10"
   inkscape:pageopacity="0"
   inkscape:pageshadow="2"
   inkscape:window-width="640"
   inkscape:window-height="480"
   id="namedview106"
   showgrid="false"
   inkscape:zoom="0.65446224"
   inkscape:cx="332.98546"
   inkscape:cy="92.00163"
   inkscape:window-x="0"
   inkscape:window-y="0"
   inkscape:window-maximized="0"
   inkscape:current-layer="Layer_1"
   fit-margin-top="0"
   fit-margin-left="0"
   fit-margin-right="0"
   fit-margin-bottom="0"
   showborder="false"
   inkscape:showpageshadow="false" />

<g
   transform="translate(-51.920634,-257.9375)"
   id="g4"><g
     style="display:none"
     id="Layer_1_1_"
     display="none"><image
       id="image7"
       transform="matrix(1.4099,0,0,1.4099,23.5,203.5352)"
       height="273"
       width="400"
       overflow="visible"
       display="inline"
       style="display:inline;overflow:visible"
       xlink:href="C:\Users\jmomanyi\Desktop\New SVGs\Science\SCIENCE 2010 IMAGES\634A1794.jpg" /><path
       style="fill:none;display:inline"
       inkscape:connector-curvature="0"
       display="inline"
       enable-background="new    "
       d=""
       id="path9" /></g><g
     id="Layer_2"><rect
       style="fill:none;stroke:#010101"
       x="174.536"
       y="258.43201"
       width="8.46"
       height="276.36899"
       id="rect12" /><g
       id="g14"><g
         id="g16"><path
           style="fill:none"
           inkscape:connector-curvature="0"
           d="m 173.597,272.532 c 12.221,-2.82 21.62,11.28 31.961,16.92 12.221,5.641 25.38,8.46 35.72,16.921 19.741,15.98 30.081,42.301 47.001,61.101 15.041,18.8 28.201,38.541 34.782,62.042 5.642,21.62 -4.701,49.821 -31.961,43.241 -33.841,-7.521 -36.661,-73.322 -47.001,-101.522 -7.521,-19.741 -44.182,-102.463 -68.623,-97.764"
           id="path18" /><path
           style="fill:#010101"
           inkscape:connector-curvature="0"
           d="m 173.391,273.215 c 10.028,-1.655 17.677,6.826 24.774,12.555 6.957,5.613 15.565,8.073 23.783,11.275 19.143,7.462 30.942,21.721 42.002,38.399 4.939,7.448 9.648,15.036 14.856,22.303 5.803,8.101 12.511,15.509 18.364,23.591 11.252,15.541 22.268,34.048 25.492,53.261 2.387,14.233 -2.449,33.404 -17.984,37.811 -14.97,4.25 -27.928,-7.244 -34.838,-19.039 -13.294,-22.692 -15.224,-50.557 -22.138,-75.468 -6.217,-22.397 -18.276,-44.384 -29.803,-64.383 -6.356,-11.029 -13.369,-21.991 -22.259,-31.167 -5.15,-5.317 -12.096,-10.784 -19.96,-9.565 -1.243,0.191 -2.304,1.659 -0.41,1.366 9.344,-1.447 17.768,8.721 23.029,15.038 8.511,10.222 15.287,21.909 21.635,33.55 10.037,18.404 20.284,38.129 25.752,58.482 6.751,25.133 8.989,52.754 22.916,75.348 10.686,17.332 36.175,25.84 50.452,7.584 12.189,-15.59 5.857,-36.968 -1.211,-53.055 -10.186,-23.186 -27.608,-40.969 -41.558,-61.679 -13.41,-19.906 -25.011,-41.542 -47.858,-51.843 -5.688,-2.564 -11.644,-4.532 -17.429,-6.86 -5.704,-2.296 -10.173,-5.825 -14.842,-9.723 -6.561,-5.475 -13.396,-10.626 -22.354,-9.146 -1.237,0.203 -2.302,1.678 -0.411,1.365 l 0,0 z"
           id="path20" /></g></g><g
       id="g22"><g
         id="g24"><path
           style="fill:none"
           inkscape:connector-curvature="0"
           d="m 235.403,302.965 c -8.686,-0.876 -26.262,8.813 -15.08,16.09 9.475,6.167 26.058,-14.88 11.292,-17.505"
           id="path26" /><path
           style="fill:#010101"
           inkscape:connector-curvature="0"
           d="m 235.917,302.131 c -6.577,-0.468 -14.522,2.621 -18.803,7.69 -4.294,5.084 0.673,10.848 6.371,11.193 9.82,0.595 23.321,-17.287 8.951,-20.255 -0.95,-0.196 -3.226,1.255 -1.64,1.582 11.302,2.333 1.74,15.938 -5.523,16.967 -5.348,0.756 -8.974,-5.351 -5.528,-9.432 3.372,-3.992 10.013,-6.44 15.148,-6.076 1.12,0.079 2.869,-1.538 1.024,-1.669 l 0,0 z"
           id="path28" /></g></g><path
       style="fill:none;stroke:#010101"
       inkscape:connector-curvature="0"
       d="m 238.576,353.903 c 5.659,3.36 11.54,-2.204 16.259,-4.816 2.968,-1.645 5.589,-3.15 7.62,-6.107 0.791,-1.149 1.609,-2.141 2.22,-3.341 0.566,-1.106 0.611,-2.281 1.573,-3.186"
       id="path30" /><path
       style="fill:none;stroke:#010101"
       inkscape:connector-curvature="0"
       d="m 240.515,359.014 c 5.659,3.36 11.54,-2.204 16.26,-4.816 2.968,-1.644 5.589,-3.15 7.62,-6.107 0.791,-1.149 1.609,-2.141 2.22,-3.341 0.566,-1.106 0.611,-2.281 1.573,-3.186"
       id="path32" /><path
       style="fill:none;stroke:#010101"
       inkscape:connector-curvature="0"
       d="m 251.795,394.716 c 7.606,4.737 15.509,-3.105 21.852,-6.789 3.991,-2.317 7.512,-4.441 10.241,-8.608 1.063,-1.62 2.164,-3.018 2.984,-4.709 0.76,-1.561 0.822,-3.216 2.114,-4.492"
       id="path34" /><path
       style="fill:none;stroke:#010101"
       inkscape:connector-curvature="0"
       d="m 252.5,401.97 c 8.47,5.218 17.273,-3.421 24.336,-7.477 4.445,-2.552 8.366,-4.893 11.406,-9.481 1.183,-1.785 2.408,-3.323 3.323,-5.188 0.846,-1.719 0.915,-3.542 2.354,-4.946"
       id="path36" /><path
       style="fill:none;stroke:#010101"
       inkscape:connector-curvature="0"
       d="m 261.137,437.755 c 10.993,5.763 22.418,-3.776 31.585,-8.257 5.769,-2.818 10.857,-5.402 14.804,-10.469 1.535,-1.972 3.127,-3.671 4.313,-5.729 1.097,-1.898 1.188,-3.911 3.056,-5.464"
       id="path38" /><path
       style="fill:none;stroke:#010101"
       inkscape:connector-curvature="0"
       d="m 264.662,443.926 c 10.993,5.762 22.418,-3.779 31.585,-8.258 5.769,-2.818 10.857,-5.402 14.804,-10.469 1.535,-1.972 3.127,-3.671 4.313,-5.729 1.097,-1.897 1.188,-3.911 3.056,-5.464"
       id="path40" /><line
       style="fill:none;stroke:#010101"
       x1="143.75101"
       y1="540.20502"
       x2="217.073"
       y2="539.5"
       id="line42" /><polygon
       style="fill:none;stroke:#010101"
       points="161.964,539.264 197.978,539.734 183.584,534.447 174.889,534.918 "
       id="polygon44" /><g
       id="g46"><g
         id="g48"><path
           style="fill:none"
           inkscape:connector-curvature="0"
           d="m 173.597,273.002 c 3.76,-1.879 7.991,-1.41 12.221,-1.41"
           id="path50" /><path
           style="fill:#010101"
           inkscape:connector-curvature="0"
           d="m 174.399,273.246 c 3.369,-1.535 7.25,-1.064 10.845,-1.042 0.813,0.005 2.967,-1.214 1.147,-1.226 -4.711,-0.03 -9.213,-0.218 -13.596,1.778 -1.647,0.752 0.892,0.814 1.604,0.49 l 0,0 z"
           id="path52" /></g></g><line
       style="fill:none;stroke:#010101;stroke-width:2"
       x1="173.597"
       y1="359.01401"
       x2="142.576"
       y2="359.01401"
       id="line54" /><line
       style="fill:none;stroke:#010101;stroke-width:2"
       x1="331.05099"
       y1="361.36499"
       x2="285.931"
       y2="361.36499"
       id="line56" /><line
       style="fill:none;stroke:#010101;stroke-width:2"
       x1="357.375"
       y1="464.297"
       x2="312.25201"
       y2="464.297"
       id="line58" /><line
       style="fill:none;stroke:#010101;stroke-width:2"
       x1="292.98099"
       y1="315.77301"
       x2="231.409"
       y2="315.77301"
       id="line60" /><line
       style="fill:none;stroke:#010101;stroke-width:2"
       x1="229.058"
       y1="310.13199"
       x2="262.42999"
       y2="285.69199"
       id="line62" /><text
       style="font-size:19.74060059px;fill:#010101;font-family:MyriadPro-Regular"
       transform="translate(51.8628,344.4429)"
       font-size="19.7406"
       id="text64">Strong</text>
<text
       style="font-size:19.74060059px;fill:#010101;font-family:MyriadPro-Regular"
       transform="translate(51.8628,368.1328)"
       font-size="19.7406"
       id="text66">wooden</text>
<text
       style="font-size:19.74060059px;fill:#010101;font-family:MyriadPro-Regular"
       transform="translate(51.8628,391.8213)"
       font-size="19.7406"
       id="text68">pole</text>
<text
       style="font-size:19.74060059px;fill:#010101;font-family:MyriadPro-Regular"
       transform="translate(310.8408,318.5938)"
       font-size="19.7406"
       id="text70">Strong wire</text>
<text
       style="font-size:19.74060059px;fill:#010101;font-family:MyriadPro-Regular"
       transform="translate(337.6309,369.354)"
       font-size="19.7406"
       id="text72">Strong polythene sheet</text>
<text
       style="font-size:19.74060059px;fill:#010101;font-family:MyriadPro-Regular"
       transform="translate(272.7695,289.9224)"
       font-size="19.7406"
       id="text74">End P</text>
<text
       style="font-size:19.74060059px;fill:#010101;font-family:MyriadPro-Regular"
       transform="translate(362.543,471.8203)"
       font-size="19.7406"
       id="text76">End Q</text>
</g></g></svg>