<?xml version="1.0" encoding="UTF-8" standalone="no"?>
<!-- Generator: Adobe Illustrator 16.0.0, SVG Export Plug-In . SVG Version: 6.00 Build 0)  -->

<svg
   xmlns:dc="http://purl.org/dc/elements/1.1/"
   xmlns:cc="http://creativecommons.org/ns#"
   xmlns:rdf="http://www.w3.org/1999/02/22-rdf-syntax-ns#"
   xmlns:svg="http://www.w3.org/2000/svg"
   xmlns="http://www.w3.org/2000/svg"
   xmlns:xlink="http://www.w3.org/1999/xlink"
   xmlns:sodipodi="http://sodipodi.sourceforge.net/DTD/sodipodi-0.dtd"
   xmlns:inkscape="http://www.inkscape.org/namespaces/inkscape"
   version="1.0"
   id="Layer_1"
   x="0px"
   y="0px"
   viewBox="0 0 462.25 581.875"
   enable-background="new 0 0 437 54"
   xml:space="preserve"
   inkscape:version="0.48.4 r9939"
   width="100%"
   height="100%"
   sodipodi:docname="canvas.svg"><metadata
   id="metadata110"><rdf:RDF><cc:Work
       rdf:about=""><dc:format>image/svg+xml</dc:format><dc:type
         rdf:resource="http://purl.org/dc/dcmitype/StillImage" /><dc:title></dc:title></cc:Work></rdf:RDF></metadata><defs
   id="defs108" /><sodipodi:namedview
   pagecolor="#ffffff"
   bordercolor="#666666"
   borderopacity="1"
   objecttolerance="10"
   gridtolerance="10"
   guidetolerance="10"
   inkscape:pageopacity="0"
   inkscape:pageshadow="2"
   inkscape:window-width="640"
   inkscape:window-height="480"
   id="namedview106"
   showgrid="false"
   inkscape:zoom="0.65446224"
   inkscape:cx="549.1852"
   inkscape:cy="180.41502"
   inkscape:window-x="0"
   inkscape:window-y="0"
   inkscape:window-maximized="0"
   inkscape:current-layer="Layer_1"
   fit-margin-top="0"
   fit-margin-left="0"
   fit-margin-right="0"
   fit-margin-bottom="0"
   showborder="false"
   inkscape:showpageshadow="false" />

<g
   transform="translate(-72.0625,-105.5625)"
   id="g4"><g
     style="display:none"
     id="Layer_1_1_"
     display="none"><image
       id="image7"
       transform="matrix(1.1854,0,0,1.1854,68.4033,102.5)"
       height="496"
       width="400"
       overflow="visible"
       display="inline"
       style="display:inline;overflow:visible"
       xlink:href="C:\Users\jmomanyi\Desktop\New SVGs\Science\SCIENCE 2010 IMAGES\7EB8F39E.jpg" /><path
       style="fill:none;display:inline"
       inkscape:connector-curvature="0"
       display="inline"
       enable-background="new    "
       d=""
       id="path9" /></g><g
     id="Layer_2"><rect
       style="fill:none;stroke:#010101"
       x="74.332001"
       y="106.057"
       width="457.603"
       height="308.23001"
       id="rect12" /><line
       style="fill:none;stroke:#010101"
       x1="75.516998"
       y1="153.47701"
       x2="533.12"
       y2="153.47701"
       id="line14" /><line
       style="fill:none;stroke:#010101"
       x1="75.516998"
       y1="206.82401"
       x2="533.12"
       y2="206.82401"
       id="line16" /><line
       style="fill:none;stroke:#010101"
       x1="76.702003"
       y1="258.98599"
       x2="534.30603"
       y2="258.98599"
       id="line18" /><line
       style="fill:none;stroke:#010101"
       x1="76.702003"
       y1="312.33401"
       x2="534.30603"
       y2="312.33401"
       id="line20" /><line
       style="fill:none;stroke:#010101"
       x1="73.146004"
       y1="362.125"
       x2="530.74902"
       y2="362.125"
       id="line22" /><line
       style="fill:none;stroke:#010101"
       x1="227.261"
       y1="106.057"
       x2="227.261"
       y2="416.65799"
       id="line24" /><line
       style="fill:none;stroke:#010101"
       x1="381.37601"
       y1="106.057"
       x2="381.37601"
       y2="416.65799"
       id="line26" /><rect
       style="fill:none;stroke:#010101"
       x="72.553001"
       y="462.29999"
       width="174.269"
       height="224.653"
       id="rect28" /><g
       id="g30"><circle
         d="m 119.973,491.04901 c 0,7.03832 -5.70569,12.744 -12.744,12.744 -7.03832,0 -12.744004,-5.70568 -12.744004,-12.744 0,-7.03832 5.705684,-12.744 12.744004,-12.744 7.03831,0 12.744,5.70568 12.744,12.744 z"
         style="fill:none;stroke:#010101"
         sodipodi:ry="12.744"
         sodipodi:rx="12.744"
         sodipodi:cy="491.04901"
         sodipodi:cx="107.229"
         cx="107.229"
         cy="491.04901"
         r="12.744"
         id="circle32" /><line
         style="fill:none;stroke:#010101"
         x1="97.152"
         y1="482.75"
         x2="90.039001"
         y2="476.526"
         id="line34" /><line
         style="fill:none;stroke:#010101"
         x1="107.229"
         y1="503.793"
         x2="107.525"
         y2="511.79501"
         id="line36" /><line
         style="fill:none;stroke:#010101"
         x1="116.713"
         y1="482.75"
         x2="122.048"
         y2="477.71201"
         id="line38" /><line
         style="fill:none;stroke:#010101"
         x1="107.525"
         y1="469.70901"
         x2="107.229"
         y2="478.30499"
         id="line40" /><line
         style="fill:none;stroke:#010101"
         x1="94.780998"
         y1="489.56601"
         x2="83.815002"
         y2="489.56601"
         id="line42" /><line
         style="fill:none;stroke:#010101"
         x1="94.188004"
         y1="493.41901"
         x2="87.667999"
         y2="494.901"
         id="line44" /><line
         style="fill:none;stroke:#010101"
         x1="95.676003"
         y1="498.25601"
         x2="89.737"
         y2="501.32599"
         id="line46" /><line
         style="fill:none;stroke:#010101"
         x1="99.126999"
         y1="501.65302"
         x2="94.584"
         y2="508.896"
         id="line48" /><line
         style="fill:none;stroke:#010101"
         x1="102.19"
         y1="478.60101"
         x2="100.413"
         y2="474.74799"
         id="line50" /><line
         style="fill:none;stroke:#010101"
         x1="119.084"
         y1="485.41699"
         x2="123.826"
         y2="484.23099"
         id="line52" /><line
         style="fill:none;stroke:#010101"
         x1="117.306"
         y1="499.34698"
         x2="122.937"
         y2="505.57001"
         id="line54" /><line
         style="fill:none;stroke:#010101"
         x1="111.675"
         y1="502.90302"
         x2="113.749"
         y2="508.23801"
         id="line56" /><line
         style="fill:none;stroke:#010101"
         x1="119.677"
         y1="489.56601"
         x2="128.271"
         y2="489.56601"
         id="line58" /><line
         style="fill:none;stroke:#010101"
         x1="111.971"
         y1="478.897"
         x2="116.713"
         y2="472.673"
         id="line60" /><line
         style="fill:none;stroke:#010101"
         x1="119.084"
         y1="494.30899"
         x2="124.715"
         y2="496.67999"
         id="line62" /><line
         style="fill:none;stroke:#010101"
         x1="89.150002"
         y1="483.34299"
         x2="94.780998"
         y2="485.71399"
         id="line64" /></g><g
       id="g66"><circle
         d="m 270.82802,179.854 c 0,7.03832 -5.70569,12.744 -12.74401,12.744 -7.03831,0 -12.744,-5.70568 -12.744,-12.744 0,-7.03831 5.70569,-12.744 12.744,-12.744 7.03832,0 12.74401,5.70569 12.74401,12.744 z"
         style="fill:none;stroke:#010101"
         sodipodi:ry="12.744"
         sodipodi:rx="12.744"
         sodipodi:cy="179.854"
         sodipodi:cx="258.08401"
         cx="258.08401"
         cy="179.854"
         r="12.744"
         id="circle68" /><line
         style="fill:none;stroke:#010101"
         x1="248.007"
         y1="171.556"
         x2="240.895"
         y2="165.332"
         id="line70" /><line
         style="fill:none;stroke:#010101"
         x1="258.08401"
         y1="192.59801"
         x2="258.38"
         y2="200.601"
         id="line72" /><line
         style="fill:none;stroke:#010101"
         x1="267.56799"
         y1="171.556"
         x2="272.90302"
         y2="166.517"
         id="line74" /><line
         style="fill:none;stroke:#010101"
         x1="258.38"
         y1="158.515"
         x2="258.08401"
         y2="167.11"
         id="line76" /><line
         style="fill:none;stroke:#010101"
         x1="245.636"
         y1="178.37199"
         x2="234.67"
         y2="178.37199"
         id="line78" /><line
         style="fill:none;stroke:#010101"
         x1="245.043"
         y1="182.22501"
         x2="238.52299"
         y2="183.707"
         id="line80" /><line
         style="fill:none;stroke:#010101"
         x1="246.53101"
         y1="187.062"
         x2="240.592"
         y2="190.132"
         id="line82" /><line
         style="fill:none;stroke:#010101"
         x1="249.98199"
         y1="190.45799"
         x2="245.439"
         y2="197.702"
         id="line84" /><line
         style="fill:none;stroke:#010101"
         x1="253.04601"
         y1="167.40601"
         x2="251.26801"
         y2="163.55299"
         id="line86" /><line
         style="fill:none;stroke:#010101"
         x1="269.939"
         y1="174.22301"
         x2="274.681"
         y2="173.037"
         id="line88" /><line
         style="fill:none;stroke:#010101"
         x1="268.16101"
         y1="188.15199"
         x2="273.79199"
         y2="194.37601"
         id="line90" /><line
         style="fill:none;stroke:#010101"
         x1="262.53"
         y1="191.709"
         x2="264.604"
         y2="197.04401"
         id="line92" /><line
         style="fill:none;stroke:#010101"
         x1="270.53201"
         y1="178.37199"
         x2="279.12701"
         y2="178.37199"
         id="line94" /><line
         style="fill:none;stroke:#010101"
         x1="262.82599"
         y1="167.703"
         x2="267.56799"
         y2="161.479"
         id="line96" /><line
         style="fill:none;stroke:#010101"
         x1="269.939"
         y1="183.114"
         x2="275.57001"
         y2="185.485"
         id="line98" /><line
         style="fill:none;stroke:#010101"
         x1="240.005"
         y1="172.14799"
         x2="245.636"
         y2="174.52"
         id="line100" /></g><g
       id="g102"><circle
         d="m 273.19899,284.17801 c 0,7.03832 -5.70569,12.744 -12.744,12.744 -7.03832,0 -12.744,-5.70568 -12.744,-12.744 0,-7.03832 5.70568,-12.744 12.744,-12.744 7.03831,0 12.744,5.70568 12.744,12.744 z"
         style="fill:none;stroke:#010101"
         sodipodi:ry="12.744"
         sodipodi:rx="12.744"
         sodipodi:cy="284.17801"
         sodipodi:cx="260.45499"
         cx="260.45499"
         cy="284.17801"
         r="12.744"
         id="circle104" /><line
         style="fill:none;stroke:#010101"
         x1="250.37801"
         y1="275.88"
         x2="243.26601"
         y2="269.65601"
         id="line106" /><line
         style="fill:none;stroke:#010101"
         x1="260.45499"
         y1="296.922"
         x2="260.75101"
         y2="304.92401"
         id="line108" /><line
         style="fill:none;stroke:#010101"
         x1="269.939"
         y1="275.88"
         x2="275.27399"
         y2="270.841"
         id="line110" /><line
         style="fill:none;stroke:#010101"
         x1="260.75101"
         y1="262.83899"
         x2="260.45499"
         y2="271.43399"
         id="line112" /><line
         style="fill:none;stroke:#010101"
         x1="248.007"
         y1="282.69601"
         x2="237.04201"
         y2="282.69601"
         id="line114" /><line
         style="fill:none;stroke:#010101"
         x1="247.41499"
         y1="286.54901"
         x2="240.895"
         y2="288.03101"
         id="line116" /><line
         style="fill:none;stroke:#010101"
         x1="248.90199"
         y1="291.38599"
         x2="242.963"
         y2="294.457"
         id="line118" /><line
         style="fill:none;stroke:#010101"
         x1="252.354"
         y1="294.78201"
         x2="247.811"
         y2="302.026"
         id="line120" /><line
         style="fill:none;stroke:#010101"
         x1="255.41701"
         y1="271.73001"
         x2="253.63901"
         y2="267.87701"
         id="line122" /><line
         style="fill:none;stroke:#010101"
         x1="272.31"
         y1="278.547"
         x2="277.052"
         y2="277.36099"
         id="line124" /><line
         style="fill:none;stroke:#010101"
         x1="270.53201"
         y1="292.47699"
         x2="276.16299"
         y2="298.70099"
         id="line126" /><line
         style="fill:none;stroke:#010101"
         x1="264.901"
         y1="296.03299"
         x2="266.97601"
         y2="301.36801"
         id="line128" /><line
         style="fill:none;stroke:#010101"
         x1="272.90302"
         y1="282.69601"
         x2="281.49799"
         y2="282.69601"
         id="line130" /><line
         style="fill:none;stroke:#010101"
         x1="265.19699"
         y1="272.02701"
         x2="269.939"
         y2="265.80301"
         id="line132" /><line
         style="fill:none;stroke:#010101"
         x1="272.31"
         y1="287.43799"
         x2="277.94101"
         y2="289.81"
         id="line134" /><line
         style="fill:none;stroke:#010101"
         x1="242.37601"
         y1="276.47299"
         x2="248.007"
         y2="278.84399"
         id="line136" /></g><g
       id="g138"><circle
         d="m 280.31199,338.711 c 0,7.03832 -5.70568,12.744 -12.744,12.744 -7.03831,0 -12.744,-5.70568 -12.744,-12.744 0,-7.03832 5.70569,-12.744 12.744,-12.744 7.03832,0 12.744,5.70568 12.744,12.744 z"
         style="fill:none;stroke:#010101"
         sodipodi:ry="12.744"
         sodipodi:rx="12.744"
         sodipodi:cy="338.711"
         sodipodi:cx="267.56799"
         cx="267.56799"
         cy="338.711"
         r="12.744"
         id="circle140" /><line
         style="fill:none;stroke:#010101"
         x1="257.491"
         y1="330.41299"
         x2="250.37801"
         y2="324.189"
         id="line142" /><line
         style="fill:none;stroke:#010101"
         x1="267.56799"
         y1="351.45599"
         x2="267.86499"
         y2="359.45801"
         id="line144" /><line
         style="fill:none;stroke:#010101"
         x1="277.052"
         y1="330.41299"
         x2="282.38699"
         y2="325.375"
         id="line146" /><line
         style="fill:none;stroke:#010101"
         x1="267.86499"
         y1="317.37201"
         x2="267.56799"
         y2="325.96701"
         id="line148" /><line
         style="fill:none;stroke:#010101"
         x1="255.121"
         y1="337.229"
         x2="244.15401"
         y2="337.229"
         id="line150" /><line
         style="fill:none;stroke:#010101"
         x1="254.528"
         y1="341.08301"
         x2="248.007"
         y2="342.564"
         id="line152" /><line
         style="fill:none;stroke:#010101"
         x1="256.01501"
         y1="345.91901"
         x2="250.076"
         y2="348.98999"
         id="line154" /><line
         style="fill:none;stroke:#010101"
         x1="259.466"
         y1="349.315"
         x2="254.924"
         y2="356.55899"
         id="line156" /><line
         style="fill:none;stroke:#010101"
         x1="262.53"
         y1="326.26401"
         x2="260.75101"
         y2="322.41101"
         id="line158" /><line
         style="fill:none;stroke:#010101"
         x1="279.423"
         y1="333.07999"
         x2="284.16501"
         y2="331.89499"
         id="line160" /><line
         style="fill:none;stroke:#010101"
         x1="277.64499"
         y1="347.01001"
         x2="283.276"
         y2="353.23401"
         id="line162" /><line
         style="fill:none;stroke:#010101"
         x1="272.01401"
         y1="350.56601"
         x2="274.08801"
         y2="355.901"
         id="line164" /><line
         style="fill:none;stroke:#010101"
         x1="280.01599"
         y1="337.229"
         x2="288.61099"
         y2="337.229"
         id="line166" /><line
         style="fill:none;stroke:#010101"
         x1="272.31"
         y1="326.56"
         x2="277.052"
         y2="320.336"
         id="line168" /><line
         style="fill:none;stroke:#010101"
         x1="279.423"
         y1="341.97198"
         x2="285.05399"
         y2="344.34201"
         id="line170" /><line
         style="fill:none;stroke:#010101"
         x1="249.489"
         y1="331.005"
         x2="255.121"
         y2="333.37601"
         id="line172" /></g><g
       id="g174"><circle
         d="m 427.31401,284.17801 c 0,7.03832 -5.70569,12.744 -12.744,12.744 -7.03832,0 -12.744,-5.70568 -12.744,-12.744 0,-7.03832 5.70568,-12.744 12.744,-12.744 7.03831,0 12.744,5.70568 12.744,12.744 z"
         style="fill:none;stroke:#010101"
         sodipodi:ry="12.744"
         sodipodi:rx="12.744"
         sodipodi:cy="284.17801"
         sodipodi:cx="414.57001"
         cx="414.57001"
         cy="284.17801"
         r="12.744"
         id="circle176" /><line
         style="fill:none;stroke:#010101"
         x1="404.49301"
         y1="275.88"
         x2="397.38"
         y2="269.65601"
         id="line178" /><line
         style="fill:none;stroke:#010101"
         x1="414.57001"
         y1="296.922"
         x2="414.866"
         y2="304.92401"
         id="line180" /><line
         style="fill:none;stroke:#010101"
         x1="424.05399"
         y1="275.88"
         x2="429.38901"
         y2="270.841"
         id="line182" /><line
         style="fill:none;stroke:#010101"
         x1="414.866"
         y1="262.83899"
         x2="414.57001"
         y2="271.43399"
         id="line184" /><line
         style="fill:none;stroke:#010101"
         x1="402.12201"
         y1="282.69601"
         x2="391.15601"
         y2="282.69601"
         id="line186" /><line
         style="fill:none;stroke:#010101"
         x1="401.52899"
         y1="286.54901"
         x2="395.009"
         y2="288.03101"
         id="line188" /><line
         style="fill:none;stroke:#010101"
         x1="403.01901"
         y1="291.38599"
         x2="397.077"
         y2="294.457"
         id="line190" /><line
         style="fill:none;stroke:#010101"
         x1="406.46799"
         y1="294.78201"
         x2="401.92599"
         y2="302.026"
         id="line192" /><line
         style="fill:none;stroke:#010101"
         x1="409.53101"
         y1="271.73001"
         x2="407.75299"
         y2="267.87701"
         id="line194" /><line
         style="fill:none;stroke:#010101"
         x1="426.42499"
         y1="278.547"
         x2="431.16699"
         y2="277.36099"
         id="line196" /><line
         style="fill:none;stroke:#010101"
         x1="424.646"
         y1="292.47699"
         x2="430.27701"
         y2="298.70099"
         id="line198" /><line
         style="fill:none;stroke:#010101"
         x1="419.01599"
         y1="296.03299"
         x2="421.09"
         y2="301.36801"
         id="line200" /><line
         style="fill:none;stroke:#010101"
         x1="427.01801"
         y1="282.69601"
         x2="435.612"
         y2="282.69601"
         id="line202" /><line
         style="fill:none;stroke:#010101"
         x1="419.31201"
         y1="272.02701"
         x2="424.05399"
         y2="265.80301"
         id="line204" /><line
         style="fill:none;stroke:#010101"
         x1="426.42499"
         y1="287.43799"
         x2="432.056"
         y2="289.81"
         id="line206" /><line
         style="fill:none;stroke:#010101"
         x1="396.491"
         y1="276.47299"
         x2="402.12201"
         y2="278.84399"
         id="line208" /></g><g
       id="g210"><circle
         d="m 429.68501,384.94601 c 0,7.03832 -5.70568,12.744 -12.744,12.744 -7.03832,0 -12.744,-5.70568 -12.744,-12.744 0,-7.03831 5.70568,-12.744 12.744,-12.744 7.03832,0 12.744,5.70569 12.744,12.744 z"
         style="fill:none;stroke:#010101"
         sodipodi:ry="12.744"
         sodipodi:rx="12.744"
         sodipodi:cy="384.94601"
         sodipodi:cx="416.94101"
         cx="416.94101"
         cy="384.94601"
         r="12.744"
         id="circle212" /><line
         style="fill:none;stroke:#010101"
         x1="406.86401"
         y1="376.647"
         x2="399.75101"
         y2="370.423"
         id="line214" /><line
         style="fill:none;stroke:#010101"
         x1="416.94101"
         y1="397.69"
         x2="417.237"
         y2="405.69199"
         id="line216" /><line
         style="fill:none;stroke:#010101"
         x1="426.42499"
         y1="376.647"
         x2="431.76001"
         y2="371.60901"
         id="line218" /><line
         style="fill:none;stroke:#010101"
         x1="417.237"
         y1="363.60699"
         x2="416.94101"
         y2="372.202"
         id="line220" /><line
         style="fill:none;stroke:#010101"
         x1="404.49301"
         y1="383.46399"
         x2="393.52701"
         y2="383.46399"
         id="line222" /><line
         style="fill:none;stroke:#010101"
         x1="403.89999"
         y1="387.31699"
         x2="397.38"
         y2="388.79901"
         id="line224" /><line
         style="fill:none;stroke:#010101"
         x1="405.39001"
         y1="392.15399"
         x2="399.448"
         y2="395.224"
         id="line226" /><line
         style="fill:none;stroke:#010101"
         x1="408.83899"
         y1="395.54999"
         x2="404.29599"
         y2="402.793"
         id="line228" /><line
         style="fill:none;stroke:#010101"
         x1="411.90201"
         y1="372.49799"
         x2="410.12399"
         y2="368.646"
         id="line230" /><line
         style="fill:none;stroke:#010101"
         x1="428.79599"
         y1="379.315"
         x2="433.53799"
         y2="378.129"
         id="line232" /><line
         style="fill:none;stroke:#010101"
         x1="427.01801"
         y1="393.245"
         x2="432.64801"
         y2="399.46899"
         id="line234" /><line
         style="fill:none;stroke:#010101"
         x1="421.38699"
         y1="396.80099"
         x2="423.461"
         y2="402.13599"
         id="line236" /><line
         style="fill:none;stroke:#010101"
         x1="429.38901"
         y1="383.46399"
         x2="437.983"
         y2="383.46399"
         id="line238" /><line
         style="fill:none;stroke:#010101"
         x1="421.68301"
         y1="372.79401"
         x2="426.42499"
         y2="366.57101"
         id="line240" /><line
         style="fill:none;stroke:#010101"
         x1="428.79599"
         y1="388.20599"
         x2="434.427"
         y2="390.577"
         id="line242" /><line
         style="fill:none;stroke:#010101"
         x1="398.862"
         y1="377.23999"
         x2="404.49301"
         y2="379.61099"
         id="line244" /></g><g
       id="g246"><g
         id="g248"><g
           id="g250"><line
             style="fill:none;stroke:#010101;stroke-width:0.75"
             x1="98.249001"
             y1="531.17499"
             x2="95.846001"
             y2="537.23798"
             id="line252" /><line
             style="fill:none;stroke:#010101;stroke-width:0.75"
             x1="93.596001"
             y1="538.57202"
             x2="91.192001"
             y2="544.63702"
             id="line254" /><line
             style="fill:none;stroke:#010101;stroke-width:0.75"
             x1="99.621002"
             y1="539.18402"
             x2="97.218002"
             y2="545.24799"
             id="line256" /><line
             style="fill:none;stroke:#010101;stroke-width:0.75"
             x1="105.875"
             y1="534.68597"
             x2="103.472"
             y2="540.74902"
             id="line258" /><line
             style="fill:none;stroke:#010101;stroke-width:0.75"
             x1="104.579"
             y1="544.14398"
             x2="102.173"
             y2="550.20502"
             id="line260" /><line
             style="fill:none;stroke:#010101;stroke-width:0.75"
             x1="99.084"
             y1="546.81299"
             x2="96.681999"
             y2="552.875"
             id="line262" /><line
             style="fill:none;stroke:#010101;stroke-width:0.75"
             x1="93.821999"
             y1="545.36102"
             x2="91.418999"
             y2="551.42603"
             id="line264" /><line
             style="fill:none;stroke:#010101;stroke-width:0.75"
             x1="106.941"
             y1="549.17798"
             x2="104.537"
             y2="555.23901"
             id="line266" /><line
             style="fill:none;stroke:#010101;stroke-width:0.75"
             x1="110.528"
             y1="539.18701"
             x2="108.124"
             y2="545.25"
             id="line268" /></g><line
           style="fill:none;stroke:#010101;stroke-width:0.75"
           x1="106.078"
           y1="535.87299"
           x2="103.439"
           y2="542.40198"
           id="line270" /><line
           style="fill:none;stroke:#010101;stroke-width:0.75"
           x1="101"
           y1="543.854"
           x2="98.362999"
           y2="550.38599"
           id="line272" /><line
           style="fill:none;stroke:#010101;stroke-width:0.75"
           x1="107.505"
           y1="544.46997"
           x2="104.867"
           y2="551.00201"
           id="line274" /><line
           style="fill:none;stroke:#010101;stroke-width:0.75"
           x1="114.293"
           y1="539.59302"
           x2="111.656"
           y2="546.12701"
           id="line276" /><line
           style="fill:none;stroke:#010101;stroke-width:0.75"
           x1="112.827"
           y1="549.76599"
           x2="110.189"
           y2="556.29901"
           id="line278" /><line
           style="fill:none;stroke:#010101;stroke-width:0.75"
           x1="106.875"
           y1="552.66901"
           x2="104.238"
           y2="559.203"
           id="line280" /><line
           style="fill:none;stroke:#010101;stroke-width:0.75"
           x1="101.2"
           y1="551.14697"
           x2="98.560997"
           y2="557.67999"
           id="line282" /><line
           style="fill:none;stroke:#010101;stroke-width:0.75"
           x1="119.288"
           y1="544.39899"
           x2="116.652"
           y2="550.93298"
           id="line284" /><line
           style="fill:none;stroke:#010101;stroke-width:0.75"
           x1="120.894"
           y1="536.56702"
           x2="118.419"
           y2="541.79303"
           id="line286" /><line
           style="fill:none;stroke:#010101;stroke-width:0.75"
           x1="113.744"
           y1="533.26801"
           x2="111.819"
           y2="539.04303"
           id="line288" /></g><path
         style="fill:#333333"
         inkscape:connector-curvature="0"
         d="m 91.966,534.615 34.528,-1.037 c 0,0 2.815,-2.815 1.63,-4.742 -1.186,-1.926 -1.63,-5.334 -2.964,-3.853 -1.333,1.481 -0.741,-3.408 -2.964,-4.742 -2.223,-1.333 -5.334,-1.186 -6.076,-0.148 -0.741,1.038 0,0.148 -2.371,-2.223 -2.371,-2.371 -3.853,-1.333 -4.594,-0.444 -0.741,0.889 -3.26,0.889 -3.26,0.889 0,0 -0.593,-4.445 -2.667,-4.148 -2.075,0.296 -3.705,2.815 -3.557,3.557 0.148,0.74 -3.705,-0.297 -4.001,0.74 -0.296,1.037 -3.26,1.186 -2.519,2.52 0.741,1.334 -2.52,1.037 -2.075,2.815 0.444,1.778 -2.816,0.593 -3.112,2.815 -0.296,2.223 0,3.705 -0.741,4.149 -0.741,0.444 -0.889,2.964 -0.889,2.964 l 0.741,1.334 4.891,-0.446 z"
         id="path290" /></g><g
       id="g292"><g
         id="g294"><g
           id="g296"><line
             style="fill:none;stroke:#010101;stroke-width:0.75"
             x1="408.258"
             y1="330.233"
             x2="405.854"
             y2="336.29501"
             id="line298" /><line
             style="fill:none;stroke:#010101;stroke-width:0.75"
             x1="403.604"
             y1="337.63"
             x2="401.20001"
             y2="343.694"
             id="line300" /><line
             style="fill:none;stroke:#010101;stroke-width:0.75"
             x1="409.629"
             y1="338.242"
             x2="407.22699"
             y2="344.306"
             id="line302" /><line
             style="fill:none;stroke:#010101;stroke-width:0.75"
             x1="415.884"
             y1="333.74301"
             x2="413.48099"
             y2="339.80701"
             id="line304" /><line
             style="fill:none;stroke:#010101;stroke-width:0.75"
             x1="414.58701"
             y1="343.20099"
             x2="412.18201"
             y2="349.263"
             id="line306" /><line
             style="fill:none;stroke:#010101;stroke-width:0.75"
             x1="409.09399"
             y1="345.87"
             x2="406.69"
             y2="351.93201"
             id="line308" /><line
             style="fill:none;stroke:#010101;stroke-width:0.75"
             x1="403.83099"
             y1="344.418"
             x2="401.42801"
             y2="350.48199"
             id="line310" /><line
             style="fill:none;stroke:#010101;stroke-width:0.75"
             x1="416.95001"
             y1="348.23499"
             x2="414.54599"
             y2="354.297"
             id="line312" /><line
             style="fill:none;stroke:#010101;stroke-width:0.75"
             x1="420.53699"
             y1="338.24301"
             x2="418.134"
             y2="344.30701"
             id="line314" /></g><line
           style="fill:none;stroke:#010101;stroke-width:0.75"
           x1="416.08701"
           y1="334.931"
           x2="413.448"
           y2="341.45999"
           id="line316" /><line
           style="fill:none;stroke:#010101;stroke-width:0.75"
           x1="411.009"
           y1="342.91199"
           x2="408.371"
           y2="349.44299"
           id="line318" /><line
           style="fill:none;stroke:#010101;stroke-width:0.75"
           x1="417.51401"
           y1="343.52802"
           x2="414.87601"
           y2="350.05899"
           id="line320" /><line
           style="fill:none;stroke:#010101;stroke-width:0.75"
           x1="424.302"
           y1="338.64999"
           x2="421.664"
           y2="345.18399"
           id="line322" /><line
           style="fill:none;stroke:#010101;stroke-width:0.75"
           x1="422.836"
           y1="348.82199"
           x2="420.19901"
           y2="355.35599"
           id="line324" /><line
           style="fill:none;stroke:#010101;stroke-width:0.75"
           x1="416.883"
           y1="351.72699"
           x2="414.24701"
           y2="358.26099"
           id="line326" /><line
           style="fill:none;stroke:#010101;stroke-width:0.75"
           x1="411.20801"
           y1="350.20499"
           x2="408.569"
           y2="356.737"
           id="line328" /><line
           style="fill:none;stroke:#010101;stroke-width:0.75"
           x1="429.29599"
           y1="343.457"
           x2="426.659"
           y2="349.98901"
           id="line330" /><line
           style="fill:none;stroke:#010101;stroke-width:0.75"
           x1="430.90302"
           y1="335.625"
           x2="428.42801"
           y2="340.85001"
           id="line332" /><line
           style="fill:none;stroke:#010101;stroke-width:0.75"
           x1="423.75299"
           y1="332.32501"
           x2="421.82599"
           y2="338.10001"
           id="line334" /></g><path
         style="fill:#333333"
         inkscape:connector-curvature="0"
         d="m 401.974,333.673 34.528,-1.037 c 0,0 2.815,-2.816 1.63,-4.742 -1.185,-1.926 -1.63,-5.334 -2.964,-3.853 -1.334,1.482 -0.741,-3.408 -2.964,-4.742 -2.223,-1.334 -5.335,-1.186 -6.075,-0.148 -0.741,1.038 0,0.148 -2.371,-2.223 -2.371,-2.371 -3.854,-1.333 -4.594,-0.444 -0.741,0.889 -3.261,0.889 -3.261,0.889 0,0 -0.593,-4.445 -2.667,-4.149 -2.074,0.296 -3.705,2.815 -3.557,3.556 0.148,0.741 -3.705,-0.296 -4.001,0.741 -0.297,1.037 -3.26,1.186 -2.52,2.519 0.741,1.334 -2.519,1.038 -2.074,2.816 0.444,1.778 -2.815,0.592 -3.112,2.815 -0.296,2.223 0,3.705 -0.74,4.149 -0.741,0.445 -0.89,2.964 -0.89,2.964 l 0.741,1.334 4.891,-0.445 z"
         id="path336" /></g><g
       id="g338"><g
         id="g340"><g
           id="g342"><line
             style="fill:none;stroke:#010101;stroke-width:0.75"
             x1="414.186"
             y1="224.72301"
             x2="411.78201"
             y2="230.786"
             id="line344" /><line
             style="fill:none;stroke:#010101;stroke-width:0.75"
             x1="409.53101"
             y1="232.12"
             x2="407.12799"
             y2="238.185"
             id="line346" /><line
             style="fill:none;stroke:#010101;stroke-width:0.75"
             x1="415.55701"
             y1="232.73199"
             x2="413.15399"
             y2="238.79601"
             id="line348" /><line
             style="fill:none;stroke:#010101;stroke-width:0.75"
             x1="421.81201"
             y1="228.233"
             x2="419.409"
             y2="234.297"
             id="line350" /><line
             style="fill:none;stroke:#010101;stroke-width:0.75"
             x1="420.51501"
             y1="237.69099"
             x2="418.10901"
             y2="243.754"
             id="line352" /><line
             style="fill:none;stroke:#010101;stroke-width:0.75"
             x1="415.021"
             y1="240.36"
             x2="412.61801"
             y2="246.422"
             id="line354" /><line
             style="fill:none;stroke:#010101;stroke-width:0.75"
             x1="409.759"
             y1="238.909"
             x2="407.35501"
             y2="244.97301"
             id="line356" /><line
             style="fill:none;stroke:#010101;stroke-width:0.75"
             x1="422.87799"
             y1="242.72501"
             x2="420.47299"
             y2="248.787"
             id="line358" /><line
             style="fill:none;stroke:#010101;stroke-width:0.75"
             x1="426.46399"
             y1="232.733"
             x2="424.061"
             y2="238.797"
             id="line360" /></g><line
           style="fill:none;stroke:#010101;stroke-width:0.75"
           x1="422.01401"
           y1="229.42101"
           x2="419.37601"
           y2="235.951"
           id="line362" /><line
           style="fill:none;stroke:#010101;stroke-width:0.75"
           x1="416.93701"
           y1="237.40199"
           x2="414.29901"
           y2="243.93401"
           id="line364" /><line
           style="fill:none;stroke:#010101;stroke-width:0.75"
           x1="423.44101"
           y1="238.019"
           x2="420.80301"
           y2="244.55"
           id="line366" /><line
           style="fill:none;stroke:#010101;stroke-width:0.75"
           x1="430.229"
           y1="233.14"
           x2="427.59201"
           y2="239.674"
           id="line368" /><line
           style="fill:none;stroke:#010101;stroke-width:0.75"
           x1="428.76401"
           y1="243.313"
           x2="426.12601"
           y2="249.84599"
           id="line370" /><line
           style="fill:none;stroke:#010101;stroke-width:0.75"
           x1="422.811"
           y1="246.217"
           x2="420.17499"
           y2="252.75101"
           id="line372" /><line
           style="fill:none;stroke:#010101;stroke-width:0.75"
           x1="417.13599"
           y1="244.69501"
           x2="414.49701"
           y2="251.228"
           id="line374" /><line
           style="fill:none;stroke:#010101;stroke-width:0.75"
           x1="435.224"
           y1="237.94701"
           x2="432.586"
           y2="244.479"
           id="line376" /><line
           style="fill:none;stroke:#010101;stroke-width:0.75"
           x1="436.82999"
           y1="230.11501"
           x2="434.35501"
           y2="235.34"
           id="line378" /><line
           style="fill:none;stroke:#010101;stroke-width:0.75"
           x1="429.681"
           y1="226.815"
           x2="427.754"
           y2="232.59"
           id="line380" /></g><path
         style="fill:#333333"
         inkscape:connector-curvature="0"
         d="m 407.901,228.163 34.528,-1.037 c 0,0 2.815,-2.815 1.63,-4.742 -1.186,-1.926 -1.63,-5.334 -2.964,-3.853 -1.334,1.481 -0.741,-3.409 -2.964,-4.742 -2.223,-1.334 -5.335,-1.186 -6.076,-0.148 -0.74,1.038 0,0.148 -2.37,-2.223 -2.371,-2.371 -3.854,-1.333 -4.595,-0.444 -0.74,0.889 -3.26,0.889 -3.26,0.889 0,0 -0.593,-4.445 -2.667,-4.149 -2.075,0.296 -3.705,2.815 -3.557,3.556 0.148,0.741 -3.705,-0.296 -4.001,0.741 -0.297,1.037 -3.261,1.186 -2.52,2.519 0.741,1.334 -2.52,1.038 -2.074,2.816 0.444,1.778 -2.815,0.593 -3.112,2.815 -0.296,2.223 0,3.705 -0.741,4.149 -0.74,0.444 -0.889,2.963 -0.889,2.963 l 0.741,1.334 4.891,-0.444 z"
         id="path382" /></g><g
       id="g384"><g
         id="g386"><g
           id="g388"><line
             style="fill:none;stroke:#010101;stroke-width:0.75"
             x1="415.371"
             y1="173.15401"
             x2="412.96799"
             y2="179.216"
             id="line390" /><line
             style="fill:none;stroke:#010101;stroke-width:0.75"
             x1="410.71701"
             y1="180.55099"
             x2="408.31299"
             y2="186.61501"
             id="line392" /><line
             style="fill:none;stroke:#010101;stroke-width:0.75"
             x1="416.742"
             y1="181.16299"
             x2="414.34"
             y2="187.22701"
             id="line394" /><line
             style="fill:none;stroke:#010101;stroke-width:0.75"
             x1="422.99701"
             y1="176.664"
             x2="420.595"
             y2="182.728"
             id="line396" /><line
             style="fill:none;stroke:#010101;stroke-width:0.75"
             x1="421.70001"
             y1="186.12199"
             x2="419.29501"
             y2="192.185"
             id="line398" /><line
             style="fill:none;stroke:#010101;stroke-width:0.75"
             x1="416.207"
             y1="188.791"
             x2="413.80399"
             y2="194.853"
             id="line400" /><line
             style="fill:none;stroke:#010101;stroke-width:0.75"
             x1="410.944"
             y1="187.339"
             x2="408.54099"
             y2="193.403"
             id="line402" /><line
             style="fill:none;stroke:#010101;stroke-width:0.75"
             x1="424.06299"
             y1="191.15601"
             x2="421.65799"
             y2="197.218"
             id="line404" /><line
             style="fill:none;stroke:#010101;stroke-width:0.75"
             x1="427.64899"
             y1="181.164"
             x2="425.246"
             y2="187.228"
             id="line406" /></g><line
           style="fill:none;stroke:#010101;stroke-width:0.75"
           x1="423.19901"
           y1="177.85201"
           x2="420.56201"
           y2="184.381"
           id="line408" /><line
           style="fill:none;stroke:#010101;stroke-width:0.75"
           x1="418.12201"
           y1="185.83299"
           x2="415.48401"
           y2="192.364"
           id="line410" /><line
           style="fill:none;stroke:#010101;stroke-width:0.75"
           x1="424.62701"
           y1="186.44901"
           x2="421.98801"
           y2="192.98"
           id="line412" /><line
           style="fill:none;stroke:#010101;stroke-width:0.75"
           x1="431.41501"
           y1="181.571"
           x2="428.77701"
           y2="188.105"
           id="line414" /><line
           style="fill:none;stroke:#010101;stroke-width:0.75"
           x1="429.94901"
           y1="191.743"
           x2="427.31201"
           y2="198.27699"
           id="line416" /><line
           style="fill:none;stroke:#010101;stroke-width:0.75"
           x1="423.996"
           y1="194.64799"
           x2="421.35999"
           y2="201.18201"
           id="line418" /><line
           style="fill:none;stroke:#010101;stroke-width:0.75"
           x1="418.32101"
           y1="193.125"
           x2="415.68301"
           y2="199.658"
           id="line420" /><line
           style="fill:none;stroke:#010101;stroke-width:0.75"
           x1="436.409"
           y1="186.37801"
           x2="433.771"
           y2="192.91"
           id="line422" /><line
           style="fill:none;stroke:#010101;stroke-width:0.75"
           x1="438.01599"
           y1="178.545"
           x2="435.54099"
           y2="183.771"
           id="line424" /><line
           style="fill:none;stroke:#010101;stroke-width:0.75"
           x1="430.866"
           y1="175.246"
           x2="428.939"
           y2="181.021"
           id="line426" /></g><path
         style="fill:#333333"
         inkscape:connector-curvature="0"
         d="m 409.087,176.594 34.528,-1.037 c 0,0 2.815,-2.815 1.63,-4.742 -1.186,-1.926 -1.63,-5.335 -2.964,-3.853 -1.334,1.481 -0.741,-3.409 -2.964,-4.742 -2.223,-1.334 -5.335,-1.186 -6.076,-0.148 -0.74,1.038 0,0.148 -2.37,-2.223 -2.371,-2.371 -3.854,-1.333 -4.595,-0.444 -0.74,0.889 -3.26,0.889 -3.26,0.889 0,0 -0.593,-4.445 -2.667,-4.149 -2.075,0.296 -3.705,2.815 -3.557,3.556 0.148,0.741 -3.705,-0.296 -4.001,0.741 -0.297,1.037 -3.261,1.186 -2.52,2.519 0.741,1.334 -2.52,1.038 -2.074,2.816 0.444,1.778 -2.816,0.593 -3.112,2.815 -0.297,2.223 0,3.705 -0.741,4.149 -0.74,0.444 -0.889,2.963 -0.889,2.963 l 0.741,1.334 4.891,-0.444 z"
         id="path428" /></g><g
       id="g430"><g
         id="g432"><path
           style="fill:#4e4e4e"
           inkscape:connector-curvature="0"
           d="m 100.413,565.735 c 5.927,-0.89 -2.667,-4.742 -4.446,-4.742 -3.853,-0.593 -6.224,2.371 -7.706,5.928 0.593,0.593 0.889,1.481 1.482,2.074 -11.262,8.595 7.706,14.522 13.041,8.595 -2.667,-2.371 0.296,-3.557 0,-5.928 0,-2.074 -2.371,-2.963 -2.371,-5.038"
           id="path434" /><g
           id="g436"><path
             style="fill:none"
             inkscape:connector-curvature="0"
             d="m 100.413,565.735 c 5.927,-0.89 -2.667,-4.742 -4.446,-4.742 -3.853,-0.593 -6.224,2.371 -7.706,5.928 0.593,0.593 0.889,1.481 1.482,2.074 -11.262,8.595 7.706,14.522 13.041,8.595 -2.667,-2.371 0.296,-3.557 0,-5.928 0,-2.074 -2.371,-2.963 -2.371,-5.038"
             id="path438" /><path
             style="fill:#010101"
             inkscape:connector-curvature="0"
             d="m 100.327,566.026 c 5.143,-0.992 0.92,-3.688 -1.883,-4.78 -5.083,-1.979 -8.743,1.233 -10.753,5.753 -0.016,0.054 -0.002,0.1 0.036,0.14 1.554,2.017 0.673,2.338 -0.725,3.945 -0.687,0.789 -1.31,1.942 -1.332,3.006 -0.048,2.448 1.886,3.935 3.909,4.914 4.036,1.949 10.329,2.032 13.658,-1.338 0.079,-0.078 0.179,-0.184 0.08,-0.291 -2.013,-2.179 0.008,-3.502 0.039,-5.865 0.025,-1.957 -2.102,-3.123 -2.371,-5.038 -0.05,-0.35 -1.201,-0.091 -1.145,0.308 0.186,1.324 0.852,2.104 1.66,3.142 1.557,2.003 -0.01,3.686 -0.406,5.686 -0.202,1.015 1.333,1.885 0.501,2.589 -1.51,1.278 -3.752,1.485 -5.641,1.483 -2.792,-0.005 -5.844,-0.908 -7.906,-2.84 -2.837,-2.657 -0.137,-5.931 2.15,-7.768 0.096,-0.076 0.164,-0.183 0.08,-0.291 -3.086,-4.006 2.636,-8.454 6.749,-7.183 1.146,0.356 7.219,3.123 3.472,3.846 -0.518,0.099 -0.962,0.736 -0.172,0.582 l 0,0 z"
             id="path440" /></g></g><rect
         style="fill:none;stroke:#010101;stroke-width:0.75"
         x="94.287003"
         y="580.159"
         width="3.26"
         height="16.597"
         id="rect442" /></g><g
       id="g444"><g
         id="g446"><path
           style="fill:#4e4e4e"
           inkscape:connector-curvature="0"
           d="m 339.291,323.893 c 5.927,-0.889 -2.668,-4.742 -4.446,-4.742 -3.853,-0.593 -6.224,2.371 -7.706,5.928 0.593,0.593 0.89,1.482 1.482,2.075 -11.263,8.595 7.706,14.522 13.04,8.595 -2.667,-2.371 0.297,-3.557 0,-5.928 0,-2.074 -2.37,-2.963 -2.37,-5.038"
           id="path448" /><g
           id="g450"><path
             style="fill:none"
             inkscape:connector-curvature="0"
             d="m 339.291,323.893 c 5.927,-0.889 -2.668,-4.742 -4.446,-4.742 -3.853,-0.593 -6.224,2.371 -7.706,5.928 0.593,0.593 0.89,1.482 1.482,2.075 -11.263,8.595 7.706,14.522 13.04,8.595 -2.667,-2.371 0.297,-3.557 0,-5.928 0,-2.074 -2.37,-2.963 -2.37,-5.038"
             id="path452" /><path
             style="fill:#010101"
             inkscape:connector-curvature="0"
             d="m 339.206,324.184 c 5.144,-0.992 0.92,-3.688 -1.884,-4.78 -5.081,-1.98 -8.743,1.233 -10.753,5.753 -0.016,0.053 -0.002,0.1 0.037,0.138 1.555,2.018 0.672,2.339 -0.726,3.946 -0.686,0.79 -1.31,1.942 -1.33,3.006 -0.048,2.447 1.887,3.934 3.91,4.913 4.034,1.95 10.327,2.034 13.656,-1.337 0.079,-0.078 0.181,-0.183 0.079,-0.292 -2.012,-2.179 0.01,-3.501 0.038,-5.864 0.024,-1.957 -2.101,-3.123 -2.371,-5.039 -0.048,-0.35 -1.199,-0.09 -1.144,0.308 0.185,1.324 0.853,2.103 1.659,3.141 1.556,2.003 -0.012,3.687 -0.407,5.687 -0.202,1.015 1.333,1.885 0.502,2.588 -1.511,1.278 -3.753,1.486 -5.643,1.483 -2.792,-0.004 -5.844,-0.908 -7.906,-2.84 -2.837,-2.657 -0.138,-5.932 2.15,-7.768 0.095,-0.076 0.164,-0.182 0.078,-0.292 -3.085,-4.006 2.638,-8.453 6.749,-7.182 1.146,0.356 7.219,3.124 3.473,3.846 -0.512,0.101 -0.958,0.738 -0.167,0.585 l 0,0 z"
             id="path454" /></g></g><rect
         style="fill:none;stroke:#010101;stroke-width:0.75"
         x="333.16599"
         y="338.31601"
         width="3.2609999"
         height="16.597"
         id="rect456" /></g><g
       id="g458"><g
         id="g460"><path
           style="fill:#4e4e4e"
           inkscape:connector-curvature="0"
           d="m 336.327,270.545 c 5.927,-0.889 -2.668,-4.742 -4.446,-4.742 -3.853,-0.593 -6.224,2.371 -7.705,5.928 0.593,0.593 0.889,1.482 1.481,2.075 -11.263,8.595 7.706,14.522 13.041,8.595 -2.668,-2.371 0.296,-3.556 0,-5.927 0,-2.075 -2.371,-2.964 -2.371,-5.039"
           id="path462" /><g
           id="g464"><path
             style="fill:none"
             inkscape:connector-curvature="0"
             d="m 336.327,270.545 c 5.927,-0.889 -2.668,-4.742 -4.446,-4.742 -3.853,-0.593 -6.224,2.371 -7.705,5.928 0.593,0.593 0.889,1.482 1.481,2.075 -11.263,8.595 7.706,14.522 13.041,8.595 -2.668,-2.371 0.296,-3.556 0,-5.927 0,-2.075 -2.371,-2.964 -2.371,-5.039"
             id="path466" /><path
             style="fill:#010101"
             inkscape:connector-curvature="0"
             d="m 336.242,270.837 c 5.144,-0.992 0.921,-3.688 -1.884,-4.78 -5.081,-1.98 -8.743,1.233 -10.753,5.753 -0.016,0.054 -0.002,0.1 0.037,0.138 1.555,2.018 0.672,2.339 -0.726,3.946 -0.686,0.79 -1.31,1.942 -1.33,3.007 -0.048,2.447 1.887,3.934 3.91,4.913 4.034,1.95 10.327,2.034 13.657,-1.337 0.078,-0.078 0.181,-0.183 0.078,-0.292 -2.012,-2.179 0.01,-3.501 0.038,-5.865 0.024,-1.956 -2.101,-3.123 -2.371,-5.038 -0.048,-0.35 -1.199,-0.09 -1.144,0.308 0.185,1.324 0.853,2.103 1.659,3.141 1.556,2.004 -0.012,3.687 -0.407,5.687 -0.202,1.015 1.333,1.885 0.502,2.588 -1.511,1.278 -3.753,1.486 -5.643,1.483 -2.792,-0.004 -5.844,-0.907 -7.906,-2.84 -2.837,-2.657 -0.138,-5.932 2.15,-7.768 0.095,-0.076 0.164,-0.182 0.078,-0.292 -3.085,-4.005 2.638,-8.452 6.749,-7.182 1.146,0.356 7.219,3.124 3.473,3.846 -0.512,0.1 -0.958,0.736 -0.167,0.584 l 0,0 z"
             id="path468" /></g></g><rect
         style="fill:none;stroke:#010101;stroke-width:0.75"
         x="330.202"
         y="284.96899"
         width="3.2609999"
         height="16.597"
         id="rect470" /></g><g
       id="g472"><g
         id="g474"><path
           style="fill:#4e4e4e"
           inkscape:connector-curvature="0"
           d="m 492.813,217.197 c 5.927,-0.889 -2.668,-4.742 -4.446,-4.742 -3.853,-0.593 -6.224,2.371 -7.705,5.928 0.593,0.593 0.889,1.482 1.481,2.075 -11.263,8.595 7.706,14.522 13.04,8.595 -2.667,-2.371 0.297,-3.556 0,-5.927 0,-2.075 -2.37,-2.964 -2.37,-5.039"
           id="path476" /><g
           id="g478"><path
             style="fill:none"
             inkscape:connector-curvature="0"
             d="m 492.813,217.197 c 5.927,-0.889 -2.668,-4.742 -4.446,-4.742 -3.853,-0.593 -6.224,2.371 -7.705,5.928 0.593,0.593 0.889,1.482 1.481,2.075 -11.263,8.595 7.706,14.522 13.04,8.595 -2.667,-2.371 0.297,-3.556 0,-5.927 0,-2.075 -2.37,-2.964 -2.37,-5.039"
             id="path480" /><path
             style="fill:#010101"
             inkscape:connector-curvature="0"
             d="m 492.728,217.489 c 5.145,-0.992 0.922,-3.688 -1.883,-4.78 -5.082,-1.98 -8.743,1.233 -10.753,5.753 -0.016,0.054 -0.002,0.1 0.037,0.138 1.557,2.018 0.672,2.339 -0.727,3.947 -0.684,0.789 -1.309,1.941 -1.329,3.006 -0.047,2.447 1.887,3.934 3.91,4.913 4.034,1.95 10.327,2.034 13.657,-1.337 0.078,-0.078 0.181,-0.183 0.078,-0.292 -2.012,-2.179 0.01,-3.501 0.039,-5.864 0.023,-1.956 -2.102,-3.123 -2.37,-5.039 -0.049,-0.35 -1.202,-0.09 -1.146,0.308 0.186,1.324 0.854,2.104 1.66,3.142 1.556,2.003 -0.012,3.686 -0.407,5.686 -0.202,1.015 1.333,1.885 0.502,2.588 -1.512,1.278 -3.753,1.486 -5.643,1.484 -2.792,-0.005 -5.844,-0.908 -7.905,-2.841 -2.838,-2.657 -0.139,-5.932 2.149,-7.768 0.095,-0.076 0.164,-0.182 0.078,-0.292 -3.086,-4.006 2.638,-8.453 6.747,-7.182 1.149,0.356 7.22,3.124 3.476,3.846 -0.515,0.1 -0.96,0.737 -0.17,0.584 l 0,0 z"
             id="path482" /></g></g><rect
         style="fill:none;stroke:#010101;stroke-width:0.75"
         x="486.68799"
         y="231.621"
         width="3.2609999"
         height="16.597"
         id="rect484" /></g><g
       id="g486"><path
         style="fill:none;stroke:#010101;stroke-width:0.75"
         inkscape:connector-curvature="0"
         d="m 109.304,634.001 c 0,0 -0.593,-14.82 8.298,-18.573 l 1.778,2.174 c 0,0 -9.484,6.125 -6.915,15.214 l 4.544,5.335 c 0,0 -4.347,-3.755 -4.94,-3.755 -0.593,0 0.593,4.149 0.593,4.149 l -2.371,-3.557 -5.137,2.768 4.15,-3.755 z"
         id="path488" /><g
         id="g490"><path
           style="fill:#333333"
           inkscape:connector-curvature="0"
           d="m 118.393,617.997 c 2.766,-0.988 2.173,3.161 3.951,4.347 2.766,1.778 3.754,-0.791 5.729,-2.568 1.778,-1.977 3.754,-2.371 5.927,-3.755 3.162,-1.778 2.569,-4.346 4.544,-6.915 1.58,-1.977 6.52,-2.766 2.173,-4.742 0,-0.198 -1.186,0.593 -1.778,0.593 -0.987,-0.198 -1.976,-1.58 -2.964,-1.58 -1.58,-0.198 -2.766,0.593 -4.149,0.593 -3.359,0 -3.754,-1.384 -6.718,0.196 -2.964,1.384 -9.089,1.384 -11.262,4.348 -0.593,0.593 0.198,2.173 0,2.569 -0.988,0.987 -2.766,1.186 -4.149,1.58 2.173,2.371 6.521,1.778 8.298,4.939"
           id="path492" /><g
           id="g494"><path
             style="fill:none"
             inkscape:connector-curvature="0"
             d="m 118.393,617.997 c 2.766,-0.988 2.173,3.161 3.951,4.347 2.766,1.778 3.754,-0.791 5.729,-2.568 1.778,-1.977 3.754,-2.371 5.927,-3.755 3.162,-1.778 2.569,-4.346 4.544,-6.915 1.58,-1.977 6.52,-2.766 2.173,-4.742 0,-0.198 -1.186,0.593 -1.778,0.593 -0.987,-0.198 -1.976,-1.58 -2.964,-1.58 -1.58,-0.198 -2.766,0.593 -4.149,0.593 -3.359,0 -3.754,-1.384 -6.718,0.196 -2.964,1.384 -9.089,1.384 -11.262,4.348 -0.593,0.593 0.198,2.173 0,2.569 -0.988,0.987 -2.766,1.186 -4.149,1.58 2.173,2.371 6.521,1.778 8.298,4.939"
             id="path496" /><path
             style="fill:#010101"
             inkscape:connector-curvature="0"
             d="m 118.349,618.442 c 1.823,-0.242 2.858,4.578 5.272,4.929 3.169,0.459 6.83,-4.98 9.047,-6.096 4.373,-2.195 3.73,-5.548 7.11,-8.667 1.271,-1.174 4.069,-1.646 2.794,-3.724 -0.772,-1.261 -4.521,-1.268 -5.283,-1.551 -1.091,-0.405 -1.63,-0.626 -2.897,-0.314 -2.96,0.728 -4.989,-0.224 -7.726,0.07 -3.316,0.355 -7.976,2.103 -11.125,3.474 -3.024,1.313 -2.483,4.813 -5.958,5.676 -0.327,0.081 -0.668,0.485 -0.325,0.767 2.545,2.068 6.057,2.128 8.214,4.854 0.345,0.437 1.429,-0.032 1.044,-0.519 -1.393,-1.762 -2.748,-2.401 -4.877,-3.143 -3.613,-1.258 -1.356,-1.604 0.592,-2.834 0.087,-0.055 0.203,-0.209 0.195,-0.321 -0.366,-5.919 13.483,-6.924 17.206,-6.638 2.365,0.183 4.686,-0.202 6.979,0.953 0.12,0.06 0.313,0.057 0.437,0.016 1.04,-0.347 3.432,0.387 0.989,1.985 -1.764,1.153 -2.567,2.297 -3.401,4.204 -1.779,4.069 -5.901,5.194 -8.953,7.925 -1.162,1.038 -3.273,4.222 -5.456,1.929 -0.728,-0.766 -0.595,-1.925 -1.161,-2.759 -0.766,-1.13 -1.286,-1.289 -2.635,-1.109 -0.646,0.089 -0.857,0.997 -0.082,0.893 l 0,0 z"
             id="path498" /></g></g><line
         style="fill:none;stroke:#010101;stroke-width:0.75"
         x1="83.419998"
         y1="606.73401"
         x2="108.316"
         y2="606.73401"
         id="line500" /><line
         style="fill:none;stroke:#010101;stroke-width:0.75"
         x1="77.492996"
         y1="611.67499"
         x2="96.263"
         y2="611.67499"
         id="line502" /><line
         style="fill:none;stroke:#010101;stroke-width:0.75"
         x1="97.646004"
         y1="613.84802"
         x2="103.969"
         y2="613.84802"
         id="line504" /><line
         style="fill:none;stroke:#010101;stroke-width:0.75"
         x1="84.013"
         y1="616.021"
         x2="108.909"
         y2="616.021"
         id="line506" /><line
         style="fill:none;stroke:#010101;stroke-width:0.75"
         x1="79.072998"
         y1="620.565"
         x2="96.856003"
         y2="620.565"
         id="line508" /></g><g
       id="g510"><path
         style="fill:none;stroke:#010101;stroke-width:0.75"
         inkscape:connector-curvature="0"
         d="m 341.068,402.235 c 0,0 -0.593,-14.82 8.299,-18.573 l 1.778,2.174 c 0,0 -9.484,6.124 -6.916,15.213 l 4.545,5.335 c 0,0 -4.346,-3.755 -4.938,-3.755 -0.592,0 0.593,4.149 0.593,4.149 l -2.371,-3.557 -5.138,2.768 4.148,-3.754 z"
         id="path512" /><g
         id="g514"><path
           style="fill:#333333"
           inkscape:connector-curvature="0"
           d="m 350.157,386.231 c 2.767,-0.987 2.174,3.162 3.952,4.347 2.767,1.778 3.753,-0.791 5.73,-2.569 1.778,-1.976 3.754,-2.371 5.928,-3.754 3.16,-1.778 2.567,-4.346 4.543,-6.915 1.581,-1.977 6.521,-2.766 2.174,-4.742 0,-0.198 -1.186,0.593 -1.778,0.593 -0.988,-0.198 -1.975,-1.58 -2.964,-1.58 -1.581,-0.198 -2.767,0.593 -4.148,0.593 -3.36,0 -3.754,-1.384 -6.718,0.197 -2.964,1.383 -9.09,1.383 -11.262,4.347 -0.593,0.593 0.196,2.173 0,2.569 -0.989,0.988 -2.768,1.186 -4.149,1.581 2.172,2.371 6.521,1.778 8.299,4.94"
           id="path516" /><g
           id="g518"><path
             style="fill:none"
             inkscape:connector-curvature="0"
             d="m 350.157,386.231 c 2.767,-0.987 2.174,3.162 3.952,4.347 2.767,1.778 3.753,-0.791 5.73,-2.569 1.778,-1.976 3.754,-2.371 5.928,-3.754 3.16,-1.778 2.567,-4.346 4.543,-6.915 1.581,-1.977 6.521,-2.766 2.174,-4.742 0,-0.198 -1.186,0.593 -1.778,0.593 -0.988,-0.198 -1.975,-1.58 -2.964,-1.58 -1.581,-0.198 -2.767,0.593 -4.148,0.593 -3.36,0 -3.754,-1.384 -6.718,0.197 -2.964,1.383 -9.09,1.383 -11.262,4.347 -0.593,0.593 0.196,2.173 0,2.569 -0.989,0.988 -2.768,1.186 -4.149,1.581 2.172,2.371 6.521,1.778 8.299,4.94"
             id="path520" /><path
             style="fill:#010101"
             inkscape:connector-curvature="0"
             d="m 350.115,386.677 c 1.822,-0.242 2.857,4.578 5.272,4.928 3.167,0.46 6.828,-4.98 9.046,-6.095 4.374,-2.196 3.73,-5.548 7.111,-8.667 1.27,-1.174 4.069,-1.647 2.793,-3.725 -0.771,-1.26 -4.521,-1.267 -5.282,-1.55 -1.092,-0.405 -1.629,-0.625 -2.896,-0.315 -2.96,0.728 -4.987,-0.223 -7.726,0.071 -3.316,0.356 -7.976,2.103 -11.125,3.473 -3.023,1.313 -2.481,4.814 -5.957,5.677 -0.327,0.081 -0.67,0.485 -0.324,0.766 2.545,2.069 6.057,2.128 8.214,4.854 0.345,0.437 1.429,-0.033 1.044,-0.519 -1.392,-1.761 -2.747,-2.401 -4.875,-3.142 -3.612,-1.259 -1.358,-1.605 0.591,-2.834 0.088,-0.055 0.203,-0.21 0.196,-0.322 -0.367,-5.918 13.483,-6.923 17.206,-6.637 2.366,0.182 4.687,-0.203 6.98,0.953 0.119,0.061 0.313,0.058 0.438,0.016 1.039,-0.346 3.433,0.388 0.988,1.986 -1.763,1.153 -2.567,2.297 -3.401,4.204 -1.779,4.069 -5.9,5.194 -8.952,7.924 -1.163,1.039 -3.274,4.222 -5.456,1.929 -0.729,-0.765 -0.597,-1.923 -1.162,-2.758 -0.767,-1.131 -1.285,-1.288 -2.635,-1.109 -0.653,0.087 -0.862,0.995 -0.088,0.892 l 0,0 z"
             id="path522" /></g></g><line
         style="fill:none;stroke:#010101;stroke-width:0.75"
         x1="315.18701"
         y1="374.96899"
         x2="340.07999"
         y2="374.96899"
         id="line524" /><line
         style="fill:none;stroke:#010101;stroke-width:0.75"
         x1="309.26001"
         y1="379.909"
         x2="328.02802"
         y2="379.909"
         id="line526" /><line
         style="fill:none;stroke:#010101;stroke-width:0.75"
         x1="329.41"
         y1="382.082"
         x2="335.73401"
         y2="382.082"
         id="line528" /><line
         style="fill:none;stroke:#010101;stroke-width:0.75"
         x1="315.77899"
         y1="384.25601"
         x2="340.673"
         y2="384.25601"
         id="line530" /><line
         style="fill:none;stroke:#010101;stroke-width:0.75"
         x1="310.83899"
         y1="388.79999"
         x2="328.621"
         y2="388.79999"
         id="line532" /></g><g
       id="g534"><path
         style="fill:none;stroke:#010101;stroke-width:0.75"
         inkscape:connector-curvature="0"
         d="m 486.886,399.864 c 0,0 -0.593,-14.82 8.298,-18.573 l 1.778,2.174 c 0,0 -9.483,6.124 -6.916,15.213 l 4.546,5.335 c 0,0 -4.347,-3.755 -4.939,-3.755 -0.592,0 0.593,4.149 0.593,4.149 l -2.371,-3.557 -5.138,2.768 4.149,-3.754 z"
         id="path536" /><g
         id="g538"><path
           style="fill:#333333"
           inkscape:connector-curvature="0"
           d="m 495.974,383.86 c 2.767,-0.987 2.174,3.162 3.952,4.347 2.768,1.778 3.754,-0.791 5.731,-2.569 1.778,-1.976 3.753,-2.371 5.927,-3.754 3.161,-1.778 2.568,-4.346 4.543,-6.915 1.582,-1.976 6.521,-2.766 2.175,-4.742 0,-0.198 -1.186,0.593 -1.778,0.593 -0.989,-0.198 -1.976,-1.58 -2.964,-1.58 -1.582,-0.198 -2.768,0.593 -4.149,0.593 -3.359,0 -3.753,-1.384 -6.717,0.197 -2.964,1.383 -9.091,1.383 -11.263,4.347 -0.593,0.593 0.197,2.173 0,2.569 -0.988,0.988 -2.767,1.186 -4.149,1.581 2.172,2.371 6.521,1.778 8.299,4.94"
           id="path540" /><g
           id="g542"><path
             style="fill:none"
             inkscape:connector-curvature="0"
             d="m 495.974,383.86 c 2.767,-0.987 2.174,3.162 3.952,4.347 2.768,1.778 3.754,-0.791 5.731,-2.569 1.778,-1.976 3.753,-2.371 5.927,-3.754 3.161,-1.778 2.568,-4.346 4.543,-6.915 1.582,-1.976 6.521,-2.766 2.175,-4.742 0,-0.198 -1.186,0.593 -1.778,0.593 -0.989,-0.198 -1.976,-1.58 -2.964,-1.58 -1.582,-0.198 -2.768,0.593 -4.149,0.593 -3.359,0 -3.753,-1.384 -6.717,0.197 -2.964,1.383 -9.091,1.383 -11.263,4.347 -0.593,0.593 0.197,2.173 0,2.569 -0.988,0.988 -2.767,1.186 -4.149,1.581 2.172,2.371 6.521,1.778 8.299,4.94"
             id="path544" /><path
             style="fill:#010101"
             inkscape:connector-curvature="0"
             d="m 495.932,384.306 c 1.822,-0.242 2.857,4.578 5.272,4.928 3.168,0.46 6.828,-4.98 9.047,-6.095 4.374,-2.195 3.729,-5.548 7.11,-8.667 1.271,-1.174 4.068,-1.647 2.792,-3.725 -0.771,-1.26 -4.52,-1.267 -5.281,-1.55 -1.093,-0.405 -1.628,-0.625 -2.896,-0.314 -2.959,0.728 -4.987,-0.224 -7.725,0.07 -3.317,0.356 -7.977,2.103 -11.125,3.473 -3.024,1.313 -2.482,4.814 -5.958,5.677 -0.326,0.081 -0.669,0.485 -0.324,0.766 2.545,2.069 6.058,2.128 8.213,4.854 0.345,0.436 1.429,-0.033 1.047,-0.519 -1.395,-1.761 -2.749,-2.401 -4.877,-3.142 -3.611,-1.259 -1.358,-1.605 0.591,-2.834 0.088,-0.055 0.204,-0.21 0.197,-0.322 -0.368,-5.917 13.482,-6.923 17.206,-6.637 2.366,0.182 4.686,-0.203 6.979,0.953 0.12,0.061 0.314,0.058 0.438,0.016 1.039,-0.346 3.434,0.388 0.988,1.986 -1.762,1.153 -2.567,2.297 -3.401,4.204 -1.778,4.069 -5.899,5.195 -8.951,7.925 -1.162,1.038 -3.274,4.221 -5.455,1.929 -0.729,-0.766 -0.598,-1.924 -1.162,-2.758 -0.767,-1.131 -1.285,-1.289 -2.636,-1.11 -0.654,0.087 -0.865,0.995 -0.089,0.892 l 0,0 z"
             id="path546" /></g></g><line
         style="fill:none;stroke:#010101;stroke-width:0.75"
         x1="461.00101"
         y1="372.59799"
         x2="485.896"
         y2="372.59799"
         id="line548" /><line
         style="fill:none;stroke:#010101;stroke-width:0.75"
         x1="455.07401"
         y1="377.53799"
         x2="473.845"
         y2="377.53799"
         id="line550" /><line
         style="fill:none;stroke:#010101;stroke-width:0.75"
         x1="475.228"
         y1="379.711"
         x2="481.55099"
         y2="379.711"
         id="line552" /><line
         style="fill:none;stroke:#010101;stroke-width:0.75"
         x1="461.59399"
         y1="381.88501"
         x2="486.48901"
         y2="381.88501"
         id="line554" /><line
         style="fill:none;stroke:#010101;stroke-width:0.75"
         x1="456.655"
         y1="386.42899"
         x2="474.43799"
         y2="386.42899"
         id="line556" /></g><g
       id="g558"><path
         style="fill:none;stroke:#010101;stroke-width:0.75"
         inkscape:connector-curvature="0"
         d="m 486.886,350.073 c 0,0 -0.593,-14.82 8.298,-18.573 l 1.778,2.174 c 0,0 -9.483,6.124 -6.916,15.213 l 4.546,5.335 c 0,0 -4.347,-3.755 -4.939,-3.755 -0.592,0 0.593,4.149 0.593,4.149 l -2.371,-3.557 -5.138,2.767 4.149,-3.753 z"
         id="path560" /><g
         id="g562"><path
           style="fill:#333333"
           inkscape:connector-curvature="0"
           d="m 495.974,334.069 c 2.767,-0.987 2.174,3.162 3.952,4.347 2.768,1.778 3.754,-0.791 5.731,-2.569 1.778,-1.976 3.753,-2.371 5.927,-3.754 3.161,-1.778 2.568,-4.346 4.543,-6.915 1.582,-1.977 6.521,-2.766 2.175,-4.742 0,-0.198 -1.186,0.593 -1.778,0.593 -0.989,-0.198 -1.976,-1.58 -2.964,-1.58 -1.582,-0.198 -2.768,0.593 -4.149,0.593 -3.359,0 -3.753,-1.384 -6.717,0.197 -2.964,1.383 -9.091,1.383 -11.263,4.347 -0.593,0.593 0.197,2.173 0,2.569 -0.988,0.988 -2.767,1.186 -4.149,1.58 2.172,2.371 6.521,1.778 8.299,4.94"
           id="path564" /><g
           id="g566"><path
             style="fill:none"
             inkscape:connector-curvature="0"
             d="m 495.974,334.069 c 2.767,-0.987 2.174,3.162 3.952,4.347 2.768,1.778 3.754,-0.791 5.731,-2.569 1.778,-1.976 3.753,-2.371 5.927,-3.754 3.161,-1.778 2.568,-4.346 4.543,-6.915 1.582,-1.977 6.521,-2.766 2.175,-4.742 0,-0.198 -1.186,0.593 -1.778,0.593 -0.989,-0.198 -1.976,-1.58 -2.964,-1.58 -1.582,-0.198 -2.768,0.593 -4.149,0.593 -3.359,0 -3.753,-1.384 -6.717,0.197 -2.964,1.383 -9.091,1.383 -11.263,4.347 -0.593,0.593 0.197,2.173 0,2.569 -0.988,0.988 -2.767,1.186 -4.149,1.58 2.172,2.371 6.521,1.778 8.299,4.94"
             id="path568" /><path
             style="fill:#010101"
             inkscape:connector-curvature="0"
             d="m 495.932,334.515 c 1.822,-0.242 2.857,4.578 5.272,4.928 3.168,0.46 6.828,-4.98 9.047,-6.095 4.374,-2.195 3.729,-5.548 7.11,-8.667 1.271,-1.174 4.068,-1.647 2.792,-3.725 -0.771,-1.26 -4.52,-1.267 -5.281,-1.55 -1.093,-0.405 -1.628,-0.625 -2.896,-0.315 -2.959,0.728 -4.987,-0.223 -7.725,0.071 -3.317,0.356 -7.977,2.103 -11.125,3.473 -3.024,1.313 -2.482,4.814 -5.958,5.677 -0.326,0.081 -0.669,0.485 -0.324,0.766 2.545,2.069 6.058,2.128 8.213,4.854 0.345,0.437 1.429,-0.033 1.047,-0.519 -1.395,-1.761 -2.749,-2.401 -4.877,-3.142 -3.611,-1.259 -1.358,-1.605 0.591,-2.834 0.088,-0.055 0.204,-0.21 0.197,-0.322 -0.368,-5.918 13.482,-6.923 17.206,-6.637 2.366,0.182 4.686,-0.203 6.979,0.953 0.12,0.061 0.314,0.058 0.438,0.016 1.039,-0.346 3.434,0.388 0.988,1.985 -1.762,1.154 -2.567,2.298 -3.401,4.205 -1.778,4.069 -5.899,5.194 -8.951,7.924 -1.162,1.039 -3.274,4.222 -5.455,1.929 -0.729,-0.765 -0.598,-1.923 -1.162,-2.758 -0.767,-1.131 -1.285,-1.288 -2.636,-1.109 -0.654,0.087 -0.865,0.995 -0.089,0.892 l 0,0 z"
             id="path570" /></g></g><line
         style="fill:none;stroke:#010101;stroke-width:0.75"
         x1="461.00101"
         y1="322.80701"
         x2="485.896"
         y2="322.80701"
         id="line572" /><line
         style="fill:none;stroke:#010101;stroke-width:0.75"
         x1="455.07401"
         y1="327.74701"
         x2="473.845"
         y2="327.74701"
         id="line574" /><line
         style="fill:none;stroke:#010101;stroke-width:0.75"
         x1="475.228"
         y1="329.91901"
         x2="481.55099"
         y2="329.91901"
         id="line576" /><line
         style="fill:none;stroke:#010101;stroke-width:0.75"
         x1="461.59399"
         y1="332.09399"
         x2="486.48901"
         y2="332.09399"
         id="line578" /><line
         style="fill:none;stroke:#010101;stroke-width:0.75"
         x1="456.655"
         y1="336.638"
         x2="474.43799"
         y2="336.638"
         id="line580" /></g><g
       id="g582"><path
         style="fill:none;stroke:#010101;stroke-width:0.75"
         inkscape:connector-curvature="0"
         d="m 490.442,294.354 c 0,0 -0.593,-14.82 8.298,-18.573 l 1.778,2.174 c 0,0 -9.483,6.124 -6.916,15.213 l 4.545,5.335 c 0,0 -4.346,-3.754 -4.938,-3.754 -0.592,0 0.593,4.149 0.593,4.149 l -2.371,-3.556 -5.138,2.767 4.149,-3.755 z"
         id="path584" /><g
         id="g586"><path
           style="fill:#333333"
           inkscape:connector-curvature="0"
           d="m 499.53,278.35 c 2.767,-0.987 2.174,3.162 3.952,4.347 2.768,1.778 3.754,-0.791 5.73,-2.569 1.778,-1.976 3.754,-2.371 5.928,-3.754 3.161,-1.778 2.568,-4.346 4.543,-6.915 1.582,-1.976 6.521,-2.766 2.174,-4.742 0,-0.198 -1.185,0.593 -1.777,0.593 -0.989,-0.198 -1.976,-1.58 -2.964,-1.58 -1.582,-0.198 -2.768,0.593 -4.149,0.593 -3.359,0 -3.754,-1.384 -6.717,0.197 -2.964,1.383 -9.091,1.383 -11.263,4.347 -0.593,0.593 0.196,2.173 0,2.569 -0.988,0.988 -2.767,1.186 -4.149,1.581 2.172,2.371 6.521,1.778 8.299,4.94"
           id="path588" /><g
           id="g590"><path
             style="fill:none"
             inkscape:connector-curvature="0"
             d="m 499.53,278.35 c 2.767,-0.987 2.174,3.162 3.952,4.347 2.768,1.778 3.754,-0.791 5.73,-2.569 1.778,-1.976 3.754,-2.371 5.928,-3.754 3.161,-1.778 2.568,-4.346 4.543,-6.915 1.582,-1.976 6.521,-2.766 2.174,-4.742 0,-0.198 -1.185,0.593 -1.777,0.593 -0.989,-0.198 -1.976,-1.58 -2.964,-1.58 -1.582,-0.198 -2.768,0.593 -4.149,0.593 -3.359,0 -3.754,-1.384 -6.717,0.197 -2.964,1.383 -9.091,1.383 -11.263,4.347 -0.593,0.593 0.196,2.173 0,2.569 -0.988,0.988 -2.767,1.186 -4.149,1.581 2.172,2.371 6.521,1.778 8.299,4.94"
             id="path592" /><path
             style="fill:#010101"
             inkscape:connector-curvature="0"
             d="m 499.488,278.796 c 1.822,-0.242 2.857,4.578 5.272,4.929 3.167,0.459 6.828,-4.98 9.046,-6.095 4.374,-2.196 3.73,-5.549 7.111,-8.667 1.271,-1.174 4.068,-1.647 2.792,-3.725 -0.771,-1.26 -4.52,-1.267 -5.281,-1.55 -1.093,-0.405 -1.628,-0.625 -2.896,-0.314 -2.959,0.728 -4.987,-0.224 -7.725,0.07 -3.317,0.356 -7.977,2.103 -11.125,3.473 -3.024,1.313 -2.482,4.814 -5.958,5.678 -0.326,0.08 -0.669,0.484 -0.324,0.766 2.545,2.069 6.058,2.128 8.213,4.854 0.345,0.437 1.429,-0.033 1.047,-0.519 -1.395,-1.761 -2.749,-2.401 -4.877,-3.143 -3.611,-1.259 -1.358,-1.605 0.591,-2.834 0.088,-0.055 0.204,-0.21 0.196,-0.322 -0.367,-5.917 13.483,-6.923 17.206,-6.637 2.367,0.183 4.687,-0.203 6.979,0.953 0.12,0.061 0.314,0.057 0.438,0.016 1.039,-0.347 3.434,0.388 0.988,1.985 -1.762,1.153 -2.567,2.297 -3.401,4.204 -1.778,4.069 -5.899,5.195 -8.951,7.925 -1.162,1.038 -3.274,4.221 -5.455,1.929 -0.729,-0.766 -0.598,-1.924 -1.163,-2.758 -0.766,-1.131 -1.284,-1.289 -2.635,-1.11 -0.652,0.087 -0.863,0.995 -0.088,0.892 l 0,0 z"
             id="path594" /></g></g><line
         style="fill:none;stroke:#010101;stroke-width:0.75"
         x1="464.55801"
         y1="267.08801"
         x2="489.453"
         y2="267.08801"
         id="line596" /><line
         style="fill:none;stroke:#010101;stroke-width:0.75"
         x1="458.63"
         y1="272.02802"
         x2="477.401"
         y2="272.02802"
         id="line598" /><line
         style="fill:none;stroke:#010101;stroke-width:0.75"
         x1="478.784"
         y1="274.20099"
         x2="485.10699"
         y2="274.20099"
         id="line600" /><line
         style="fill:none;stroke:#010101;stroke-width:0.75"
         x1="465.14999"
         y1="276.375"
         x2="490.04599"
         y2="276.375"
         id="line602" /><line
         style="fill:none;stroke:#010101;stroke-width:0.75"
         x1="460.21201"
         y1="280.91901"
         x2="477.99399"
         y2="280.91901"
         id="line604" /></g><g
       id="g606"><path
         style="fill:none;stroke:#010101;stroke-width:0.75"
         inkscape:connector-curvature="0"
         d="m 489.85,192.401 c 0,0 -0.593,-14.82 8.298,-18.573 l 1.778,2.174 c 0,0 -9.483,6.124 -6.916,15.213 l 4.545,5.335 c 0,0 -4.346,-3.755 -4.938,-3.755 -0.592,0 0.593,4.149 0.593,4.149 l -2.371,-3.557 -5.138,2.767 4.149,-3.753 z"
         id="path608" /><g
         id="g610"><path
           style="fill:#333333"
           inkscape:connector-curvature="0"
           d="m 498.938,176.397 c 2.767,-0.987 2.174,3.162 3.952,4.347 2.768,1.778 3.754,-0.791 5.73,-2.569 1.778,-1.976 3.754,-2.371 5.928,-3.754 3.161,-1.778 2.568,-4.346 4.543,-6.915 1.582,-1.977 6.521,-2.766 2.175,-4.742 0,-0.198 -1.186,0.593 -1.778,0.593 -0.989,-0.198 -1.976,-1.58 -2.964,-1.58 -1.582,-0.198 -2.768,0.593 -4.149,0.593 -3.36,0 -3.754,-1.384 -6.717,0.197 -2.964,1.383 -9.091,1.383 -11.263,4.347 -0.593,0.593 0.197,2.173 0,2.569 -0.988,0.988 -2.767,1.186 -4.149,1.581 2.172,2.371 6.521,1.778 8.299,4.94"
           id="path612" /><g
           id="g614"><path
             style="fill:none"
             inkscape:connector-curvature="0"
             d="m 498.938,176.397 c 2.767,-0.987 2.174,3.162 3.952,4.347 2.768,1.778 3.754,-0.791 5.73,-2.569 1.778,-1.976 3.754,-2.371 5.928,-3.754 3.161,-1.778 2.568,-4.346 4.543,-6.915 1.582,-1.977 6.521,-2.766 2.175,-4.742 0,-0.198 -1.186,0.593 -1.778,0.593 -0.989,-0.198 -1.976,-1.58 -2.964,-1.58 -1.582,-0.198 -2.768,0.593 -4.149,0.593 -3.36,0 -3.754,-1.384 -6.717,0.197 -2.964,1.383 -9.091,1.383 -11.263,4.347 -0.593,0.593 0.197,2.173 0,2.569 -0.988,0.988 -2.767,1.186 -4.149,1.581 2.172,2.371 6.521,1.778 8.299,4.94"
             id="path616" /><path
             style="fill:#010101"
             inkscape:connector-curvature="0"
             d="m 498.896,176.843 c 1.822,-0.242 2.857,4.577 5.272,4.929 3.168,0.459 6.828,-4.981 9.047,-6.095 4.373,-2.195 3.729,-5.548 7.11,-8.667 1.271,-1.174 4.068,-1.647 2.792,-3.725 -0.771,-1.26 -4.52,-1.267 -5.281,-1.55 -1.093,-0.405 -1.628,-0.625 -2.896,-0.314 -2.959,0.728 -4.987,-0.223 -7.725,0.07 -3.317,0.356 -7.977,2.103 -11.125,3.473 -3.024,1.313 -2.482,4.814 -5.958,5.677 -0.326,0.081 -0.669,0.485 -0.324,0.766 2.545,2.069 6.058,2.128 8.213,4.854 0.345,0.436 1.429,-0.033 1.047,-0.519 -1.395,-1.761 -2.749,-2.401 -4.877,-3.142 -3.611,-1.259 -1.358,-1.605 0.591,-2.834 0.088,-0.055 0.204,-0.21 0.197,-0.322 -0.369,-5.917 13.482,-6.923 17.205,-6.637 2.367,0.183 4.687,-0.203 6.979,0.953 0.12,0.061 0.314,0.058 0.438,0.016 1.039,-0.346 3.434,0.388 0.988,1.986 -1.762,1.153 -2.567,2.297 -3.401,4.204 -1.778,4.069 -5.899,5.194 -8.951,7.925 -1.162,1.038 -3.274,4.221 -5.455,1.929 -0.729,-0.766 -0.598,-1.924 -1.162,-2.759 -0.767,-1.131 -1.285,-1.288 -2.636,-1.109 -0.653,0.086 -0.864,0.994 -0.088,0.891 l 0,0 z"
             id="path618" /></g></g><line
         style="fill:none;stroke:#010101;stroke-width:0.75"
         x1="463.965"
         y1="165.13499"
         x2="488.85999"
         y2="165.13499"
         id="line620" /><line
         style="fill:none;stroke:#010101;stroke-width:0.75"
         x1="458.03699"
         y1="170.075"
         x2="476.80899"
         y2="170.075"
         id="line622" /><line
         style="fill:none;stroke:#010101;stroke-width:0.75"
         x1="478.19101"
         y1="172.248"
         x2="484.51501"
         y2="172.248"
         id="line624" /><line
         style="fill:none;stroke:#010101;stroke-width:0.75"
         x1="464.55801"
         y1="174.422"
         x2="489.453"
         y2="174.422"
         id="line626" /><line
         style="fill:none;stroke:#010101;stroke-width:0.75"
         x1="459.61899"
         y1="178.966"
         x2="477.401"
         y2="178.966"
         id="line628" /></g><g
       id="g630"><path
         style="fill:none;stroke:#010101;stroke-width:0.75"
         inkscape:connector-curvature="0"
         d="m 329.807,194.18 c 0,0 -0.593,-14.82 8.299,-18.573 l 1.777,2.174 c 0,0 -9.483,6.125 -6.916,15.214 l 4.546,5.335 c 0,0 -4.347,-3.755 -4.939,-3.755 -0.592,0 0.593,4.149 0.593,4.149 l -2.371,-3.557 -5.138,2.767 4.149,-3.754 z"
         id="path632" /><g
         id="g634"><path
           style="fill:#333333"
           inkscape:connector-curvature="0"
           d="m 338.895,178.175 c 2.767,-0.988 2.174,3.162 3.952,4.347 2.768,1.778 3.754,-0.791 5.731,-2.569 1.778,-1.976 3.753,-2.371 5.927,-3.754 3.161,-1.778 2.568,-4.346 4.543,-6.915 1.582,-1.977 6.521,-2.766 2.175,-4.742 0,-0.198 -1.186,0.593 -1.778,0.593 -0.989,-0.198 -1.976,-1.58 -2.964,-1.58 -1.582,-0.198 -2.768,0.593 -4.149,0.593 -3.359,0 -3.753,-1.384 -6.717,0.197 -2.964,1.383 -9.091,1.383 -11.263,4.347 -0.593,0.593 0.197,2.173 0,2.569 -0.988,0.988 -2.767,1.186 -4.149,1.581 2.172,2.371 6.521,1.778 8.299,4.939"
           id="path636" /><g
           id="g638"><path
             style="fill:none"
             inkscape:connector-curvature="0"
             d="m 338.895,178.175 c 2.767,-0.988 2.174,3.162 3.952,4.347 2.768,1.778 3.754,-0.791 5.731,-2.569 1.778,-1.976 3.753,-2.371 5.927,-3.754 3.161,-1.778 2.568,-4.346 4.543,-6.915 1.582,-1.977 6.521,-2.766 2.175,-4.742 0,-0.198 -1.186,0.593 -1.778,0.593 -0.989,-0.198 -1.976,-1.58 -2.964,-1.58 -1.582,-0.198 -2.768,0.593 -4.149,0.593 -3.359,0 -3.753,-1.384 -6.717,0.197 -2.964,1.383 -9.091,1.383 -11.263,4.347 -0.593,0.593 0.197,2.173 0,2.569 -0.988,0.988 -2.767,1.186 -4.149,1.581 2.172,2.371 6.521,1.778 8.299,4.939"
             id="path640" /><path
             style="fill:#010101"
             inkscape:connector-curvature="0"
             d="m 338.853,178.621 c 1.822,-0.242 2.857,4.577 5.272,4.928 3.168,0.459 6.828,-4.98 9.047,-6.095 4.373,-2.196 3.729,-5.548 7.11,-8.667 1.271,-1.174 4.069,-1.646 2.794,-3.725 -0.772,-1.26 -4.521,-1.267 -5.283,-1.55 -1.092,-0.405 -1.629,-0.625 -2.896,-0.315 -2.959,0.728 -4.987,-0.223 -7.726,0.071 -3.315,0.356 -7.976,2.103 -11.124,3.473 -3.024,1.313 -2.482,4.814 -5.958,5.677 -0.326,0.081 -0.669,0.485 -0.324,0.766 2.545,2.069 6.058,2.128 8.214,4.854 0.346,0.437 1.429,-0.033 1.045,-0.519 -1.392,-1.761 -2.748,-2.401 -4.875,-3.142 -3.612,-1.259 -1.358,-1.605 0.59,-2.834 0.088,-0.055 0.204,-0.21 0.197,-0.322 -0.367,-5.917 13.482,-6.923 17.206,-6.637 2.366,0.182 4.687,-0.203 6.979,0.953 0.119,0.061 0.313,0.057 0.438,0.016 1.04,-0.346 3.433,0.388 0.988,1.986 -1.763,1.153 -2.567,2.297 -3.4,4.204 -1.78,4.069 -5.901,5.194 -8.953,7.924 -1.162,1.039 -3.274,4.222 -5.455,1.929 -0.729,-0.766 -0.598,-1.924 -1.162,-2.759 -0.767,-1.131 -1.285,-1.288 -2.636,-1.109 -0.653,0.088 -0.863,0.996 -0.088,0.893 l 0,0 z"
             id="path642" /></g></g><line
         style="fill:none;stroke:#010101;stroke-width:0.75"
         x1="303.923"
         y1="166.91299"
         x2="328.81699"
         y2="166.91299"
         id="line644" /><line
         style="fill:none;stroke:#010101;stroke-width:0.75"
         x1="297.995"
         y1="171.853"
         x2="316.76599"
         y2="171.853"
         id="line646" /><line
         style="fill:none;stroke:#010101;stroke-width:0.75"
         x1="318.14801"
         y1="174.026"
         x2="324.47198"
         y2="174.026"
         id="line648" /><line
         style="fill:none;stroke:#010101;stroke-width:0.75"
         x1="304.51599"
         y1="176.2"
         x2="329.41"
         y2="176.2"
         id="line650" /><line
         style="fill:none;stroke:#010101;stroke-width:0.75"
         x1="299.577"
         y1="180.744"
         x2="317.358"
         y2="180.744"
         id="line652" /></g><g
       id="g654"><g
         id="g656"><path
           style="fill:none"
           inkscape:connector-curvature="0"
           d="m 134.594,679.248 c -4.94,0 -9.682,-1.186 -14.621,-1.384 -4.939,-0.197 -9.682,0.988 -14.819,0.791 -5.927,-0.198 -12.053,-0.593 -18.177,-0.593 -5.927,0 -8.298,-2.569 -7.311,-8.694 0.395,-2.964 2.569,-7.113 5.928,-3.951 0.987,-4.94 4.742,-13.831 10.077,-6.719 0.395,-1.778 1.383,-5.729 3.358,-6.717 3.358,-1.384 4.94,2.567 6.915,3.753 1.976,1.186 3.754,-0.395 6.521,0 3.556,0.396 3.358,3.162 5.533,5.139 2.766,-5.335 9.286,-4.546 10.669,1.382 0.198,0.791 -0.395,2.569 0,2.964 0.791,1.186 1.778,0.396 3.162,0.791 2.173,0.79 4.347,2.964 2.371,5.335 2.964,0.395 5.335,2.37 4.742,5.729 -0.593,3.161 -4.544,2.371 -7.311,1.186"
           id="path658" /><path
           style="fill:#010101"
           inkscape:connector-curvature="0"
           d="m 134.82,678.937 c -4.903,-0.154 -9.73,-1.062 -14.621,-1.384 -5.669,-0.373 -11.355,0.917 -17.051,0.709 -5.316,-0.197 -10.624,-0.469 -15.946,-0.511 -3.298,-0.025 -6.04,-0.979 -7.019,-4.299 -0.246,-1.38 -0.228,-2.767 0.053,-4.16 0.135,-2.343 1.743,-3.561 4.824,-3.656 0.267,0.183 1.018,0.082 1.104,-0.295 0.855,-3.747 4.006,-12.135 8.973,-6.424 0.223,0.259 1.028,0.025 1.104,-0.295 0.479,-2.012 2.027,-9.257 6.676,-5.078 1.347,1.21 2.013,2.262 3.741,2.877 0.767,0.272 2.05,-0.075 2.803,-0.213 5.365,-0.979 5.473,2.017 8.003,4.884 0.223,0.255 0.911,0.027 1.063,-0.216 2.231,-3.521 7.19,-3.378 9.118,0.156 0.771,1.414 0.193,2.851 0.448,4.34 0.507,2.954 8.79,-0.233 5.574,5.967 -0.09,0.172 0,0.264 0.177,0.304 3.215,0.423 4.723,2.258 4.524,5.507 -2.023,1.869 -4.117,2.149 -6.281,0.84 -0.332,-0.126 -1.375,0.364 -0.916,0.539 4.346,1.654 11.539,0.708 7.264,-5.652 -0.514,-0.763 -3.722,-1.5 -2.985,-2.917 0.722,-1.392 -0.995,-2.843 -1.82,-3.54 -0.856,-0.722 -1.783,-0.809 -2.836,-0.839 -1.482,-0.043 -1.974,-5.238 -2.674,-6.077 -1.337,-1.599 -3.206,-2.904 -5.427,-2.452 -0.882,0.179 -1.757,0.327 -2.515,0.87 -2.222,1.595 -2.191,2.349 -3.897,-0.43 -2.546,-4.149 -8.395,-0.304 -11.453,-3.482 -1.713,-1.779 -3.454,-3.31 -6.022,-2.248 -0.935,0.384 -1.424,1.226 -1.971,2 -0.694,0.984 -1.064,4.222 -1.753,3.431 -1.088,-1.253 -3.299,-1.982 -4.822,-1.058 -2.927,1.777 -4.094,5.088 -4.986,8.246 0.18,-0.641 -3.388,-0.118 -3.757,0.247 -2.637,2.619 -3.191,6.719 -2.161,10.213 0.903,3.059 4.806,3.424 7.393,3.532 7.402,0.313 15.26,1.126 22.643,0.478 8.563,-0.751 16.489,0.441 24.975,0.708 0.417,0.013 1.227,-0.598 0.453,-0.622 l 0,0 z"
           id="path660" /></g></g><g
       id="g662"><g
         id="g664"><path
           style="fill:none"
           inkscape:connector-curvature="0"
           d="m 291.08,245.354 c -4.94,0 -9.682,-1.185 -14.621,-1.383 -4.939,-0.198 -9.682,0.987 -14.819,0.791 -5.927,-0.198 -12.053,-0.593 -18.177,-0.593 -5.928,0 -8.298,-2.569 -7.311,-8.695 0.395,-2.963 2.569,-7.113 5.928,-3.951 0.987,-4.94 4.742,-13.832 10.077,-6.718 0.395,-1.778 1.383,-5.729 3.358,-6.717 3.358,-1.384 4.94,2.567 6.915,3.753 1.976,1.186 3.754,-0.395 6.521,0 3.556,0.396 3.358,3.162 5.533,5.138 2.766,-5.335 9.286,-4.545 10.669,1.382 0.198,0.791 -0.395,2.569 0,2.964 0.791,1.186 1.778,0.396 3.162,0.791 2.173,0.791 4.347,2.964 2.371,5.334 2.964,0.395 5.335,2.371 4.742,5.729 -0.593,3.162 -4.544,2.371 -7.311,1.186"
           id="path666" /><path
           style="fill:#010101"
           inkscape:connector-curvature="0"
           d="m 291.307,245.042 c -4.903,-0.154 -9.73,-1.061 -14.621,-1.383 -5.669,-0.374 -11.355,0.917 -17.051,0.709 -5.316,-0.197 -10.624,-0.469 -15.946,-0.511 -3.298,-0.024 -6.04,-0.979 -7.019,-4.298 -0.246,-1.379 -0.228,-2.767 0.053,-4.16 0.135,-2.343 1.743,-3.56 4.824,-3.656 0.267,0.183 1.018,0.082 1.104,-0.295 0.855,-3.748 4.006,-12.135 8.973,-6.423 0.223,0.257 1.028,0.025 1.104,-0.295 0.479,-2.013 2.027,-9.258 6.676,-5.079 1.347,1.21 2.013,2.262 3.741,2.877 0.767,0.273 2.05,-0.075 2.803,-0.213 5.365,-0.979 5.473,2.018 8.003,4.884 0.224,0.253 0.911,0.027 1.064,-0.216 2.231,-3.521 7.19,-3.379 9.118,0.156 0.771,1.414 0.193,2.851 0.448,4.339 0.507,2.955 8.79,-0.232 5.575,5.967 -0.09,0.173 0,0.264 0.176,0.304 3.215,0.422 4.723,2.258 4.524,5.506 -2.023,1.871 -4.117,2.15 -6.281,0.84 -0.332,-0.125 -1.375,0.364 -0.916,0.54 4.346,1.654 11.539,0.708 7.264,-5.653 -0.514,-0.763 -3.722,-1.501 -2.985,-2.917 0.722,-1.392 -0.995,-2.841 -1.82,-3.538 -0.856,-0.724 -1.783,-0.81 -2.836,-0.84 -1.482,-0.042 -1.974,-5.238 -2.674,-6.077 -1.337,-1.599 -3.206,-2.905 -5.427,-2.453 -0.882,0.179 -1.757,0.328 -2.515,0.87 -2.222,1.595 -2.191,2.349 -3.897,-0.43 -2.546,-4.149 -8.395,-0.302 -11.453,-3.482 -1.713,-1.779 -3.454,-3.31 -6.022,-2.249 -0.935,0.385 -1.424,1.227 -1.971,2.001 -0.694,0.984 -1.064,4.222 -1.753,3.431 -1.088,-1.253 -3.299,-1.982 -4.822,-1.058 -2.927,1.777 -4.094,5.087 -4.986,8.245 0.18,-0.64 -3.388,-0.118 -3.757,0.248 -2.637,2.619 -3.191,6.718 -2.161,10.212 0.903,3.059 4.806,3.425 7.393,3.533 7.402,0.313 15.26,1.126 22.643,0.478 8.563,-0.751 16.489,0.441 24.975,0.708 0.415,0.014 1.226,-0.597 0.452,-0.622 l 0,0 z"
           id="path668" /></g></g><g
       id="g670"><g
         id="g672"><path
           style="fill:none"
           inkscape:connector-curvature="0"
           d="m 362.211,244.169 c -4.941,0 -9.683,-1.186 -14.622,-1.384 -4.938,-0.198 -9.681,0.987 -14.818,0.791 -5.928,-0.198 -12.052,-0.593 -18.177,-0.593 -5.927,0 -8.299,-2.569 -7.312,-8.695 0.396,-2.963 2.57,-7.113 5.927,-3.951 0.989,-4.94 4.742,-13.831 10.077,-6.718 0.396,-1.778 1.383,-5.729 3.359,-6.717 3.357,-1.384 4.939,2.567 6.914,3.753 1.978,1.186 3.756,-0.395 6.521,0 3.557,0.396 3.359,3.162 5.534,5.138 2.765,-5.335 9.284,-4.545 10.669,1.382 0.197,0.791 -0.396,2.569 0,2.964 0.79,1.186 1.778,0.396 3.161,0.791 2.174,0.791 4.346,2.964 2.371,5.334 2.964,0.395 5.334,2.371 4.741,5.73 -0.593,3.162 -4.545,2.371 -7.31,1.185"
           id="path674" /><path
           style="fill:#010101"
           inkscape:connector-curvature="0"
           d="m 362.437,243.856 c -4.902,-0.154 -9.73,-1.061 -14.62,-1.383 -5.669,-0.374 -11.355,0.917 -17.052,0.709 -5.315,-0.197 -10.624,-0.469 -15.946,-0.511 -3.297,-0.024 -6.039,-0.979 -7.019,-4.298 -0.246,-1.379 -0.229,-2.767 0.053,-4.16 0.136,-2.343 1.742,-3.56 4.824,-3.656 0.267,0.183 1.017,0.082 1.104,-0.295 0.855,-3.748 4.006,-12.135 8.974,-6.423 0.222,0.257 1.027,0.024 1.104,-0.295 0.477,-2.013 2.027,-9.258 6.675,-5.079 1.348,1.21 2.015,2.262 3.741,2.877 0.768,0.273 2.05,-0.074 2.803,-0.213 5.364,-0.979 5.472,2.018 8.004,4.884 0.223,0.254 0.91,0.027 1.062,-0.216 2.231,-3.521 7.191,-3.379 9.119,0.156 0.77,1.414 0.19,2.851 0.447,4.339 0.508,2.955 8.79,-0.232 5.573,5.967 -0.089,0.173 0,0.264 0.177,0.304 3.216,0.422 4.723,2.258 4.523,5.506 -2.023,1.871 -4.116,2.15 -6.281,0.84 -0.331,-0.125 -1.374,0.364 -0.915,0.54 4.347,1.654 11.538,0.708 7.264,-5.652 -0.513,-0.764 -3.721,-1.501 -2.984,-2.918 0.72,-1.392 -0.996,-2.841 -1.82,-3.538 -0.856,-0.724 -1.782,-0.81 -2.836,-0.84 -1.482,-0.042 -1.973,-5.238 -2.675,-6.077 -1.338,-1.599 -3.206,-2.905 -5.427,-2.453 -0.883,0.179 -1.758,0.328 -2.515,0.87 -2.221,1.595 -2.191,2.349 -3.897,-0.43 -2.546,-4.149 -8.393,-0.302 -11.452,-3.482 -1.713,-1.779 -3.453,-3.31 -6.022,-2.249 -0.934,0.385 -1.424,1.227 -1.97,2.001 -0.695,0.984 -1.065,4.222 -1.753,3.431 -1.089,-1.253 -3.3,-1.982 -4.823,-1.058 -2.927,1.777 -4.094,5.087 -4.986,8.246 0.18,-0.64 -3.389,-0.119 -3.757,0.248 -2.637,2.619 -3.191,6.718 -2.161,10.212 0.904,3.058 4.806,3.424 7.393,3.533 7.401,0.313 15.261,1.126 22.643,0.478 8.564,-0.751 16.49,0.441 24.976,0.708 0.413,0.013 1.228,-0.597 0.452,-0.623 l 0,0 z"
           id="path676" /></g></g><g
       id="g678"><g
         id="g680"><path
           style="fill:none"
           inkscape:connector-curvature="0"
           d="m 288.71,404.212 c -4.941,0 -9.683,-1.186 -14.622,-1.384 -4.939,-0.198 -9.681,0.987 -14.819,0.791 -5.927,-0.198 -12.053,-0.593 -18.177,-0.593 -5.927,0 -8.298,-2.569 -7.311,-8.695 0.395,-2.964 2.569,-7.113 5.928,-3.951 0.987,-4.94 4.742,-13.832 10.077,-6.718 0.396,-1.778 1.382,-5.729 3.36,-6.717 3.357,-1.383 4.938,2.568 6.914,3.753 1.978,1.186 3.756,-0.395 6.521,0 3.557,0.396 3.36,3.162 5.534,5.138 2.765,-5.335 9.285,-4.545 10.669,1.382 0.197,0.791 -0.396,2.569 0,2.963 0.79,1.186 1.778,0.396 3.161,0.791 2.174,0.791 4.346,2.963 2.371,5.334 2.964,0.395 5.335,2.371 4.742,5.729 -0.593,3.162 -4.545,2.371 -7.31,1.186"
           id="path682" /><path
           style="fill:#010101"
           inkscape:connector-curvature="0"
           d="m 288.936,403.9 c -4.903,-0.155 -9.73,-1.062 -14.621,-1.385 -5.669,-0.373 -11.355,0.918 -17.051,0.71 -5.317,-0.197 -10.625,-0.47 -15.947,-0.511 -3.297,-0.025 -6.04,-0.979 -7.019,-4.3 -0.246,-1.379 -0.228,-2.767 0.053,-4.159 0.135,-2.343 1.743,-3.56 4.824,-3.656 0.267,0.183 1.018,0.082 1.104,-0.295 0.855,-3.748 4.005,-12.134 8.973,-6.423 0.223,0.257 1.028,0.025 1.105,-0.295 0.478,-2.013 2.027,-9.257 6.675,-5.079 1.348,1.21 2.015,2.262 3.741,2.877 0.767,0.272 2.05,-0.075 2.802,-0.213 5.365,-0.979 5.473,2.018 8.004,4.884 0.223,0.253 0.911,0.027 1.063,-0.216 2.231,-3.521 7.19,-3.379 9.118,0.156 0.771,1.414 0.191,2.85 0.448,4.339 0.507,2.955 8.79,-0.232 5.574,5.967 -0.089,0.173 0,0.265 0.176,0.305 3.216,0.422 4.723,2.258 4.524,5.506 -2.024,1.871 -4.118,2.15 -6.281,0.841 -0.332,-0.126 -1.375,0.363 -0.916,0.539 4.346,1.653 11.539,0.708 7.264,-5.652 -0.513,-0.764 -3.721,-1.501 -2.984,-2.918 0.721,-1.392 -0.997,-2.841 -1.82,-3.539 -0.856,-0.724 -1.783,-0.81 -2.837,-0.839 -1.482,-0.043 -1.973,-5.239 -2.674,-6.077 -1.338,-1.6 -3.206,-2.905 -5.427,-2.453 -0.882,0.179 -1.757,0.328 -2.514,0.87 -2.221,1.595 -2.192,2.349 -3.898,-0.43 -2.545,-4.149 -8.393,-0.302 -11.452,-3.482 -1.713,-1.779 -3.453,-3.31 -6.022,-2.249 -0.935,0.386 -1.424,1.227 -1.971,2.001 -0.695,0.984 -1.064,4.221 -1.753,3.431 -1.088,-1.253 -3.299,-1.982 -4.822,-1.058 -2.927,1.777 -4.094,5.087 -4.986,8.245 0.18,-0.64 -3.388,-0.119 -3.757,0.248 -2.637,2.619 -3.191,6.718 -2.162,10.212 0.904,3.058 4.807,3.425 7.394,3.532 7.402,0.313 15.259,1.127 22.643,0.479 8.563,-0.752 16.489,0.44 24.975,0.707 0.416,0.014 1.229,-0.595 0.454,-0.62 l 0,0 z"
           id="path684" /></g></g><text
       style="font-size:24.89550018px;fill:#010101;font-family:MyriadPro-Regular"
       transform="translate(85.5142,189.751)"
       font-size="24.8955"
       id="text686">Monday</text>
<text
       style="font-size:24.89550018px;fill:#010101;font-family:MyriadPro-Regular"
       transform="translate(85.5391,243.4932)"
       font-size="24.8955"
       id="text688">Tuesday</text>
<text
       style="font-size:24.89550018px;fill:#010101;font-family:MyriadPro-Regular"
       transform="translate(85.5142,295.2603)"
       font-size="24.8955"
       id="text690">Wednesday</text>
<text
       style="font-size:24.89550018px;fill:#010101;font-family:MyriadPro-Regular"
       transform="translate(85.5391,345.8423)"
       font-size="24.8955"
       id="text692">Thursday</text>
<text
       style="font-size:24.89550018px;fill:#010101;font-family:MyriadPro-Regular"
       transform="translate(85.5142,398.3994)"
       font-size="24.8955"
       id="text694">Friday</text>
<text
       style="font-size:21.3390007px;fill:#010101;font-family:MyriadPro-Regular"
       transform="translate(149.1362,497.9814)"
       font-size="21.339"
       id="text696">Sunny</text>
<text
       style="font-size:21.3390007px;fill:#010101;font-family:MyriadPro-Regular"
       transform="translate(149.1362,539.0801)"
       font-size="21.339"
       id="text698">Rainy</text>
<text
       style="font-size:21.3390007px;fill:#010101;font-family:MyriadPro-Regular"
       transform="translate(149.1362,584.1289)"
       font-size="21.339"
       id="text700">Calm</text>
<text
       style="font-size:21.3390007px;fill:#010101;font-family:MyriadPro-Regular"
       transform="translate(149.1362,628.3887)"
       font-size="21.339"
       id="text702">Windy</text>
<text
       style="font-size:21.3390007px;fill:#010101;font-family:MyriadPro-Regular"
       transform="translate(149.1362,669.4854)"
       font-size="21.339"
       id="text704">Cloudy</text>
<text
       style="font-size:24.89550018px;fill:#010101;font-family:MyriadPro-Regular"
       transform="translate(130.563,141.541)"
       font-size="24.8955"
       id="text706">Day</text>
<text
       style="font-size:24.89550018px;fill:#010101;font-family:MyriadPro-Regular"
       transform="translate(260.9697,139.96)"
       font-size="24.8955"
       id="text708">Morning</text>
<text
       style="font-size:24.89550018px;fill:#010101;font-family:MyriadPro-Regular"
       transform="translate(406.3906,140.75)"
       font-size="24.8955"
       id="text710">Afternoon</text>
</g></g></svg>