<?xml version="1.0" encoding="UTF-8" standalone="no"?>
<!-- Generator: Adobe Illustrator 16.0.0, SVG Export Plug-In . SVG Version: 6.00 Build 0)  -->

<svg
   xmlns:dc="http://purl.org/dc/elements/1.1/"
   xmlns:cc="http://creativecommons.org/ns#"
   xmlns:rdf="http://www.w3.org/1999/02/22-rdf-syntax-ns#"
   xmlns:svg="http://www.w3.org/2000/svg"
   xmlns="http://www.w3.org/2000/svg"
   xmlns:sodipodi="http://sodipodi.sourceforge.net/DTD/sodipodi-0.dtd"
   xmlns:inkscape="http://www.inkscape.org/namespaces/inkscape"
   version="1.0"
   id="Layer_1"
   x="0px"
   y="0px"
   viewBox="0 0 292.75537 337.23216"
   enable-background="new 0 0 437 54"
   xml:space="preserve"
   inkscape:version="0.48.4 r9939"
   width="100%"
   height="100%"
   sodipodi:docname="canvas.svg"><metadata
   id="metadata3203"><rdf:RDF><cc:Work
       rdf:about=""><dc:format>image/svg+xml</dc:format><dc:type
         rdf:resource="http://purl.org/dc/dcmitype/StillImage" /><dc:title></dc:title></cc:Work></rdf:RDF></metadata><defs
   id="defs3201" /><sodipodi:namedview
   pagecolor="#ffffff"
   bordercolor="#666666"
   borderopacity="1"
   objecttolerance="10"
   gridtolerance="10"
   guidetolerance="10"
   inkscape:pageopacity="0"
   inkscape:pageshadow="2"
   inkscape:window-width="914"
   inkscape:window-height="571"
   id="namedview3199"
   showgrid="false"
   inkscape:zoom="1"
   inkscape:cx="146.42457"
   inkscape:cy="168.63298"
   inkscape:window-x="256"
   inkscape:window-y="209"
   inkscape:window-maximized="0"
   inkscape:current-layer="Layer_1"
   fit-margin-top="0"
   fit-margin-left="0"
   fit-margin-right="0"
   fit-margin-bottom="0"
   showborder="false"
   inkscape:showpageshadow="false" />
<g
   id="Intel_Skoool_Logo"
   transform="translate(-72.075434,141.59918)">
	<g
   id="g3097">
		<g
   id="g3099">
			<g
   id="g3101">
				<g
   id="g3103">
					<path
   d="M 38.236,43.095 C 25.511,44.276 12.238,42.43 10.381,32.489 9.472,27.559 11.706,22.373 14.675,19.144 V 17.415 C 9.329,22.082 6.431,28.021 8.103,35.025 10.235,43.988 21.619,49.088 39,47.39 45.889,46.725 54.882,44.506 61.15,41.077 v -4.871 c -5.692,3.369 -15.076,6.169 -22.914,6.889 z M 71.771,17.297 C 68.758,2.539 40.137,1.619 21.676,12.86 v 1.238 C 40.11,4.616 66.251,4.674 68.63,18.25 c 0.808,4.493 -1.73,9.192 -6.241,11.873 v 3.517 c 5.434,-1.99 11.009,-8.445 9.382,-16.343 z"
   id="path3105"
   inkscape:connector-curvature="0"
   style="fill:#ffffff" />
					<path
   d="m 60.114,15.165 h -3.346 v 14.843 c 0,1.758 0.851,3.258 3.346,3.516 V 15.165 z"
   id="path3107"
   inkscape:connector-curvature="0"
   style="fill:#ffffff" />
					<path
   d="m 20.365,20.584 h -3.343 v 9.713 c 0,1.73 0.852,3.258 3.343,3.487 v -13.2 z"
   id="path3109"
   inkscape:connector-curvature="0"
   style="fill:#ffffff" />
					<rect
   x="17.021999"
   y="15.597"
   width="3.3310001"
   height="3.1700001"
   id="rect3111"
   style="fill:#ffffff" />
					<path
   d="m 40.354,33.64 c -2.694,0 -3.833,-1.874 -3.833,-3.718 V 17.009 h 3.3 v 3.575 h 2.494 v 2.681 h -2.494 v 6.456 c 0,0.748 0.346,1.151 1.138,1.151 h 1.356 v 2.768 h -1.961"
   id="path3113"
   inkscape:connector-curvature="0"
   style="fill:#ffffff" />
					<path
   d="m 46.45,28.136 c 0,1.7 1.066,2.941 2.926,2.941 1.469,0 2.192,-0.406 3.039,-1.241 l 2.049,1.959 c -1.312,1.268 -2.683,2.076 -5.118,2.076 -3.156,0 -6.196,-1.729 -6.196,-6.773 0,-4.295 2.666,-6.745 6.141,-6.745 3.531,0 5.563,2.852 5.563,6.6 v 1.183 H 46.45 m 2.679,-5.046 c -1.122,0 -2.001,0.579 -2.362,1.384 -0.215,0.463 -0.301,0.835 -0.316,1.412 h 5.101 C 51.48,24.474 50.845,23.09 49.129,23.09 z"
   id="path3115"
   inkscape:connector-curvature="0"
   style="fill:#ffffff" />
					<path
   d="m 29.359,23.265 c 0.966,0 1.367,0.459 1.367,1.239 v 9.165 h 3.315 v -9.195 c 0,-1.844 -0.993,-3.89 -3.904,-3.89 h -6.832 v 13.085 h 3.314 V 23.265 h 2.74 z"
   id="path3117"
   inkscape:connector-curvature="0"
   style="fill:#ffffff" />
				</g>
			</g>
			<g
   id="g3119">
				<path
   d="m 64.003,19.056 c -1.08,0 -1.944,-0.866 -1.944,-1.961 0,-1.066 0.864,-1.93 1.944,-1.93 1.082,0 1.96,0.864 1.96,1.93 0,1.095 -0.879,1.961 -1.96,1.961 z m 0,-3.574 c -0.894,0 -1.614,0.719 -1.614,1.612 0,0.925 0.72,1.645 1.614,1.645 0.894,0 1.643,-0.719 1.643,-1.645 0,-0.892 -0.75,-1.612 -1.643,-1.612 z m 0.865,2.794 h -0.36 c -0.043,0 -0.057,0 -0.073,-0.058 l -0.504,-0.834 c -0.014,0 -0.058,-0.028 -0.07,-0.028 0,0 -0.074,0 -0.144,0 -0.03,0 -0.06,0 -0.073,0 v 0.834 c 0,0.028 -0.028,0.085 -0.086,0.085 h -0.332 c -0.043,0 -0.086,-0.058 -0.086,-0.085 v -2.104 c 0,-0.144 0.043,-0.174 0.159,-0.201 0.114,-0.028 0.418,-0.028 0.59,-0.028 0.62,0 0.98,0.171 0.98,0.748 v 0.03 c 0,0.374 -0.187,0.547 -0.445,0.633 l 0.517,0.893 c 0,0 0.014,0.029 0.014,0.057 -0.001,0.032 -0.016,0.058 -0.087,0.058 z m -0.475,-1.671 c 0,-0.23 -0.144,-0.316 -0.462,-0.316 -0.042,0 -0.145,0 -0.214,0 -0.043,0 -0.073,0 -0.101,0 v 0.69 c 0.057,0 0.272,0 0.315,0 0.319,0 0.462,-0.115 0.462,-0.344 v -0.03 z"
   id="path3121"
   inkscape:connector-curvature="0"
   style="fill:#ffffff" />
			</g>
		</g>
		<path
   d="m 148.08,16.8 v 2.097 h -0.41 V 16.8 h -0.753 v -0.325 h 1.92 V 16.8 h -0.757 z m 3.509,2.097 v -2.015 h -0.017 l -0.791,2.015 h -0.252 l -0.796,-2.015 h -0.011 v 2.015 h -0.396 v -2.422 h 0.617 l 0.722,1.841 0.712,-1.841 h 0.611 v 2.422 h -0.399 z"
   id="path3123"
   inkscape:connector-curvature="0"
   style="fill:#ffffff" />
		<g
   id="g3125">
			<path
   d="m 84.086,31.344 c 0.709,0 1.178,-0.1 1.414,-0.275 0.236,-0.186 0.352,-0.43 0.352,-0.746 0,-0.267 -0.076,-0.488 -0.228,-0.663 -0.151,-0.181 -0.418,-0.385 -0.802,-0.618 l -3.167,-1.949 c -0.601,-0.369 -1.069,-0.826 -1.43,-1.38 -0.351,-0.551 -0.523,-1.153 -0.523,-1.809 0,-2.317 1.471,-3.477 4.407,-3.477 1.522,0 2.874,0.254 4.053,0.759 0.173,0.069 0.299,0.145 0.373,0.23 0.074,0.088 0.113,0.211 0.113,0.37 v 1.415 c 0,0.34 -0.163,0.463 -0.486,0.374 -1.353,-0.432 -2.595,-0.645 -3.724,-0.645 -0.591,0 -1.016,0.063 -1.282,0.191 -0.266,0.129 -0.395,0.352 -0.395,0.668 0,0.176 0.036,0.314 0.104,0.427 0.074,0.109 0.174,0.207 0.291,0.299 0.12,0.091 0.299,0.202 0.535,0.34 l 3.035,1.856 c 0.878,0.535 1.473,1.072 1.775,1.613 0.302,0.536 0.451,1.121 0.451,1.75 0,0.729 -0.166,1.383 -0.507,1.961 -0.339,0.566 -0.857,1.018 -1.549,1.335 -0.688,0.315 -1.514,0.471 -2.482,0.471 -1.534,0 -2.895,-0.251 -4.083,-0.753 -0.2,-0.104 -0.329,-0.194 -0.391,-0.282 -0.073,-0.083 -0.106,-0.198 -0.106,-0.323 v -1.412 c 0,-0.34 0.168,-0.468 0.497,-0.373 1.364,0.425 2.615,0.646 3.755,0.646 z"
   id="path3127"
   inkscape:connector-curvature="0"
   style="fill:#ffffff" />
			<path
   d="m 101.676,33.38 c 0,0.075 -0.032,0.146 -0.091,0.2 -0.058,0.047 -0.134,0.073 -0.225,0.073 h -2.829 c -0.113,0 -0.235,-0.044 -0.362,-0.144 -0.13,-0.092 -0.23,-0.207 -0.307,-0.315 l -3.644,-5.286 v 5.262 c 0,0.133 -0.045,0.258 -0.132,0.346 -0.087,0.098 -0.198,0.138 -0.336,0.138 h -2.125 c -0.135,0 -0.247,-0.046 -0.334,-0.149 -0.086,-0.096 -0.127,-0.217 -0.127,-0.334 V 16.475 c 0,-0.111 0.043,-0.218 0.132,-0.317 0.091,-0.097 0.203,-0.146 0.33,-0.146 h 2.125 c 0.13,0 0.238,0.046 0.331,0.135 0.091,0.091 0.137,0.201 0.137,0.329 v 9.666 l 3.96,-5.272 c 0.151,-0.188 0.331,-0.284 0.534,-0.284 h 2.602 c 0.227,0 0.337,0.083 0.337,0.249 0,0.077 -0.028,0.155 -0.088,0.238 l -4.652,5.725 4.696,6.398 c 0.043,0.068 0.068,0.13 0.068,0.184 z"
   id="path3129"
   inkscape:connector-curvature="0"
   style="fill:#ffffff" />
			<path
   d="m 113.632,28.067 c 0,1.1 -0.216,2.095 -0.641,2.979 -0.425,0.877 -1.053,1.561 -1.883,2.061 -0.83,0.488 -1.838,0.731 -3.023,0.731 -1.168,0 -2.173,-0.243 -3.012,-0.731 -0.837,-0.5 -1.468,-1.184 -1.889,-2.061 -0.423,-0.885 -0.634,-1.88 -0.634,-2.979 v -1.869 c 0,-1.102 0.211,-2.095 0.634,-2.976 0.421,-0.883 1.052,-1.57 1.889,-2.06 0.839,-0.491 1.844,-0.737 3.012,-0.737 1.185,0 2.193,0.246 3.023,0.737 0.831,0.49 1.458,1.177 1.883,2.06 0.425,0.88 0.641,1.874 0.641,2.976 v 1.869 z m -3.058,0 v -1.869 c 0,-0.964 -0.211,-1.73 -0.64,-2.29 -0.426,-0.563 -1.043,-0.846 -1.85,-0.846 -0.801,0 -1.416,0.282 -1.838,0.846 -0.429,0.56 -0.641,1.326 -0.641,2.29 v 1.869 c 0,0.968 0.214,1.731 0.646,2.294 0.426,0.558 1.039,0.841 1.833,0.841 0.8,0 1.413,-0.283 1.844,-0.841 0.433,-0.562 0.646,-1.326 0.646,-2.294 z"
   id="path3131"
   inkscape:connector-curvature="0"
   style="fill:#ffffff" />
			<path
   d="m 126.617,28.067 c 0,1.1 -0.215,2.095 -0.643,2.979 -0.425,0.877 -1.055,1.561 -1.881,2.061 -0.833,0.488 -1.839,0.731 -3.027,0.731 -1.167,0 -2.172,-0.243 -3.009,-0.731 -0.838,-0.5 -1.468,-1.184 -1.889,-2.061 -0.423,-0.885 -0.635,-1.88 -0.635,-2.979 v -1.869 c 0,-1.102 0.211,-2.095 0.635,-2.976 0.421,-0.883 1.051,-1.57 1.889,-2.06 0.837,-0.491 1.842,-0.737 3.009,-0.737 1.188,0 2.193,0.246 3.027,0.737 0.827,0.49 1.456,1.177 1.881,2.06 0.428,0.88 0.643,1.874 0.643,2.976 v 1.869 z m -3.058,0 v -1.869 c 0,-0.964 -0.213,-1.73 -0.64,-2.29 -0.428,-0.563 -1.044,-0.846 -1.853,-0.846 -0.797,0 -1.41,0.282 -1.838,0.846 -0.427,0.56 -0.64,1.326 -0.64,2.29 v 1.869 c 0,0.968 0.218,1.731 0.647,2.294 0.43,0.558 1.042,0.841 1.832,0.841 0.803,0 1.417,-0.283 1.848,-0.841 0.428,-0.562 0.644,-1.326 0.644,-2.294 z"
   id="path3133"
   inkscape:connector-curvature="0"
   style="fill:#ffffff" />
			<path
   d="m 139.599,28.067 c 0,1.1 -0.213,2.095 -0.64,2.979 -0.424,0.877 -1.054,1.561 -1.884,2.061 -0.83,0.488 -1.838,0.731 -3.024,0.731 -1.167,0 -2.172,-0.243 -3.009,-0.731 -0.839,-0.5 -1.469,-1.184 -1.892,-2.061 -0.422,-0.885 -0.634,-1.88 -0.634,-2.979 v -1.869 c 0,-1.102 0.212,-2.095 0.634,-2.976 0.423,-0.883 1.053,-1.57 1.892,-2.06 0.837,-0.491 1.842,-0.737 3.009,-0.737 1.186,0 2.194,0.246 3.024,0.737 0.83,0.49 1.46,1.177 1.884,2.06 0.426,0.88 0.64,1.874 0.64,2.976 v 1.869 z m -3.056,0 v -1.869 c 0,-0.964 -0.211,-1.73 -0.638,-2.29 -0.428,-0.563 -1.044,-0.846 -1.854,-0.846 -0.798,0 -1.411,0.282 -1.838,0.846 -0.429,0.56 -0.642,1.326 -0.642,2.29 v 1.869 c 0,0.968 0.216,1.731 0.649,2.294 0.428,0.558 1.039,0.841 1.831,0.841 0.801,0 1.416,-0.283 1.846,-0.841 0.432,-0.562 0.646,-1.326 0.646,-2.294 z"
   id="path3135"
   inkscape:connector-curvature="0"
   style="fill:#ffffff" />
			<path
   d="m 144.999,33.17 c 0,0.124 -0.039,0.248 -0.123,0.34 -0.083,0.1 -0.188,0.144 -0.318,0.144 h -2.151 c -0.135,0 -0.244,-0.046 -0.333,-0.149 -0.086,-0.096 -0.13,-0.217 -0.13,-0.334 V 16.475 c 0,-0.111 0.045,-0.218 0.135,-0.317 0.093,-0.097 0.202,-0.146 0.329,-0.146 h 2.151 c 0.12,0 0.223,0.048 0.313,0.141 0.085,0.096 0.128,0.205 0.128,0.323 V 33.17 z"
   id="path3137"
   inkscape:connector-curvature="0"
   style="fill:#ffffff" />
		</g>
	</g>
	<g
   id="g3139">
		<g
   id="g3141">
			<path
   d="m 171.54,32.131 c 0,0.342 -0.17,0.51 -0.51,0.51 h -6.269 c -0.342,0 -0.513,-0.168 -0.513,-0.51 V 18.784 c 0,-0.341 0.171,-0.511 0.513,-0.511 h 1.238 c 0.34,0 0.51,0.17 0.51,0.511 v 11.812 h 4.521 c 0.34,0 0.51,0.17 0.51,0.51 v 1.025 z"
   id="path3143"
   inkscape:connector-curvature="0"
   style="fill:#ffffff" />
			<path
   d="m 180.389,27.523 c 0,0.342 -0.164,0.513 -0.489,0.513 h -5.16 c 0.041,0.954 0.233,1.641 0.575,2.069 0.382,0.499 1.015,0.746 1.897,0.746 0.538,0 1.215,-0.129 2.025,-0.385 0.056,-0.014 0.114,-0.021 0.17,-0.021 0.185,0 0.319,0.113 0.407,0.341 l 0.297,0.854 c 0.102,0.269 0,0.469 -0.297,0.598 -0.81,0.354 -1.758,0.531 -2.837,0.531 -1.451,0 -2.568,-0.451 -3.349,-1.354 -0.781,-0.901 -1.17,-2.228 -1.17,-3.975 0,-1.58 0.361,-2.847 1.087,-3.807 0.726,-0.96 1.697,-1.439 2.919,-1.439 2.617,0 3.925,1.778 3.925,5.329 z m -2.217,-1.043 c -0.058,-1.706 -0.612,-2.56 -1.663,-2.56 -1.024,0 -1.614,0.854 -1.77,2.56 h 3.433 z"
   id="path3145"
   inkscape:connector-curvature="0"
   style="fill:#ffffff" />
			<path
   d="m 189.793,32.15 c 0.069,0.329 -0.075,0.49 -0.428,0.49 h -1.11 c -0.298,0 -0.474,-0.161 -0.531,-0.49 l -0.129,-0.788 c -0.611,0.937 -1.578,1.407 -2.901,1.407 -0.88,0 -1.563,-0.277 -2.045,-0.832 -0.484,-0.554 -0.726,-1.327 -0.726,-2.323 0,-2.047 1.108,-3.147 3.326,-3.306 l 2.131,-0.148 c 0,-0.299 -0.014,-0.455 -0.042,-0.47 -0.028,-0.583 -0.156,-0.993 -0.382,-1.236 -0.225,-0.241 -0.659,-0.362 -1.295,-0.362 -0.551,0 -1.239,0.121 -2.057,0.362 -0.34,0.1 -0.544,-0.008 -0.616,-0.319 l -0.213,-0.94 c -0.069,-0.299 0.036,-0.489 0.321,-0.575 0.966,-0.284 1.862,-0.426 2.685,-0.426 1.578,0 2.653,0.447 3.22,1.343 0.372,0.583 0.555,1.479 0.555,2.687 v 3.584 c 0,0.779 0.035,1.348 0.107,1.704 l 0.13,0.638 z m -2.412,-2.962 v -1.492 l -1.214,0.044 c -1.351,0.041 -2.026,0.667 -2.026,1.875 0,0.909 0.396,1.364 1.194,1.364 0.567,0 1.059,-0.206 1.472,-0.617 0.384,-0.372 0.574,-0.761 0.574,-1.174 z"
   id="path3147"
   inkscape:connector-curvature="0"
   style="fill:#ffffff" />
			<path
   d="m 198.147,23.068 -0.319,1.195 c -0.084,0.325 -0.295,0.46 -0.635,0.404 -0.127,-0.015 -0.335,-0.08 -0.625,-0.192 -0.291,-0.113 -0.512,-0.171 -0.667,-0.171 -0.381,0 -0.692,0.221 -0.932,0.661 -0.284,0.499 -0.424,1.224 -0.424,2.177 v 5.008 c 0,0.329 -0.172,0.49 -0.518,0.49 h -1.183 c -0.345,0 -0.519,-0.161 -0.519,-0.49 v -9.338 c 0,-0.325 0.174,-0.489 0.513,-0.489 h 0.788 c 0.314,0 0.508,0.142 0.576,0.425 l 0.237,0.918 c 0.625,-0.98 1.419,-1.472 2.387,-1.472 1.038,0 1.478,0.293 1.321,0.874 z"
   id="path3149"
   inkscape:connector-curvature="0"
   style="fill:#ffffff" />
			<path
   d="m 207.081,32.15 c 0,0.329 -0.174,0.49 -0.519,0.49 h -1.203 c -0.331,0 -0.498,-0.161 -0.498,-0.49 v -6.843 c 0,-0.837 -0.365,-1.258 -1.092,-1.258 -0.576,0 -1.059,0.227 -1.451,0.683 -0.393,0.454 -0.59,1.023 -0.59,1.706 v 5.713 c 0,0.329 -0.165,0.49 -0.497,0.49 h -1.202 c -0.344,0 -0.518,-0.161 -0.518,-0.49 v -9.338 c 0,-0.325 0.168,-0.489 0.51,-0.489 h 0.833 c 0.297,0 0.474,0.136 0.533,0.405 l 0.192,0.875 c 0.839,-0.939 1.795,-1.408 2.876,-1.408 0.797,0 1.432,0.245 1.908,0.737 0.476,0.489 0.715,1.132 0.715,1.928 v 7.289 z"
   id="path3151"
   inkscape:connector-curvature="0"
   style="fill:#ffffff" />
			<path
   d="m 212.56,18.825 c 0,0.398 -0.138,0.736 -0.405,1.013 -0.27,0.277 -0.606,0.417 -1.001,0.417 -0.4,0 -0.729,-0.139 -0.993,-0.417 -0.263,-0.277 -0.394,-0.615 -0.394,-1.013 0,-0.397 0.13,-0.735 0.394,-1.01 0.264,-0.278 0.593,-0.417 0.993,-0.417 0.395,0 0.731,0.139 1.001,0.417 0.267,0.275 0.405,0.613 0.405,1.01 z m -0.254,13.325 c 0,0.329 -0.174,0.49 -0.517,0.49 h -1.185 c -0.346,0 -0.517,-0.161 -0.517,-0.49 v -9.338 c 0,-0.325 0.171,-0.489 0.517,-0.489 h 1.185 c 0.343,0 0.517,0.164 0.517,0.489 v 9.338 z"
   id="path3153"
   inkscape:connector-curvature="0"
   style="fill:#ffffff" />
			<path
   d="m 222.859,32.15 c 0,0.329 -0.174,0.49 -0.518,0.49 h -1.207 c -0.331,0 -0.494,-0.161 -0.494,-0.49 v -6.843 c 0,-0.837 -0.365,-1.258 -1.094,-1.258 -0.575,0 -1.061,0.227 -1.454,0.683 -0.391,0.454 -0.586,1.023 -0.586,1.706 v 5.713 c 0,0.329 -0.166,0.49 -0.496,0.49 h -1.205 c -0.344,0 -0.517,-0.161 -0.517,-0.49 v -9.338 c 0,-0.325 0.172,-0.489 0.513,-0.489 h 0.829 c 0.301,0 0.479,0.136 0.534,0.405 l 0.191,0.875 c 0.84,-0.939 1.798,-1.408 2.88,-1.408 0.794,0 1.43,0.245 1.908,0.737 0.475,0.489 0.715,1.132 0.715,1.928 v 7.289 z"
   id="path3155"
   inkscape:connector-curvature="0"
   style="fill:#ffffff" />
			<path
   d="m 233.561,33.558 c 0,1.165 -0.477,2.054 -1.43,2.665 -0.781,0.498 -1.748,0.747 -2.898,0.747 -1.222,0 -2.203,-0.212 -2.941,-0.64 -0.91,-0.527 -1.373,-1.33 -1.388,-2.41 0,-0.143 0.052,-0.262 0.149,-0.362 0.098,-0.099 0.221,-0.149 0.363,-0.149 l 1.193,0.044 c 0.271,0.014 0.435,0.17 0.49,0.468 0.142,0.84 0.875,1.259 2.196,1.259 0.669,0 1.204,-0.127 1.609,-0.384 0.406,-0.256 0.608,-0.598 0.608,-1.023 0,-0.825 -0.505,-1.236 -1.514,-1.236 h -2.111 c -1.605,0 -2.409,-0.582 -2.409,-1.749 0,-0.569 0.306,-1.143 0.917,-1.726 -0.994,-0.699 -1.493,-1.72 -1.493,-3.071 0,-1.18 0.356,-2.103 1.068,-2.771 0.71,-0.668 1.662,-1.003 2.854,-1.003 0.158,0 0.377,0.02 0.662,0.053 0.284,0.037 0.496,0.055 0.641,0.055 h 2.471 c 0.355,0 0.534,0.17 0.534,0.512 v 0.596 c 0,0.313 -0.137,0.482 -0.404,0.51 l -0.663,0.086 c 0.469,0.695 0.706,1.35 0.706,1.961 0,1.167 -0.356,2.085 -1.058,2.761 -0.702,0.678 -1.66,1.015 -2.867,1.015 -0.428,0 -0.771,-0.036 -1.043,-0.106 -0.199,0.195 -0.299,0.389 -0.299,0.574 0,0.355 0.318,0.533 0.957,0.533 h 1.834 c 1.01,0 1.807,0.24 2.389,0.723 0.584,0.484 0.877,1.172 0.877,2.068 z m -2.965,-7.61 c 0,-1.394 -0.583,-2.092 -1.748,-2.092 -0.553,0 -0.959,0.122 -1.214,0.364 -0.343,0.327 -0.513,0.903 -0.513,1.728 0,0.851 0.17,1.44 0.513,1.769 0.255,0.256 0.661,0.385 1.214,0.385 1.165,0 1.748,-0.719 1.748,-2.154 z"
   id="path3157"
   inkscape:connector-curvature="0"
   style="fill:#ffffff" />
			<path
   d="m 246.607,32.15 c 0.071,0.329 -0.071,0.49 -0.428,0.49 h -1.107 c -0.297,0 -0.475,-0.161 -0.533,-0.49 l -0.129,-0.788 c -0.609,0.937 -1.574,1.407 -2.898,1.407 -0.881,0 -1.564,-0.277 -2.045,-0.832 -0.484,-0.554 -0.727,-1.327 -0.727,-2.323 0,-2.047 1.108,-3.147 3.327,-3.306 l 2.132,-0.148 c 0,-0.299 -0.014,-0.455 -0.044,-0.47 -0.028,-0.583 -0.153,-0.993 -0.382,-1.236 -0.228,-0.241 -0.657,-0.362 -1.293,-0.362 -0.552,0 -1.238,0.121 -2.061,0.362 -0.338,0.1 -0.545,-0.008 -0.615,-0.319 l -0.211,-0.94 c -0.072,-0.299 0.035,-0.489 0.319,-0.575 0.968,-0.284 1.863,-0.426 2.687,-0.426 1.579,0 2.651,0.447 3.22,1.343 0.366,0.583 0.554,1.479 0.554,2.687 v 3.584 c 0,0.779 0.036,1.348 0.105,1.704 l 0.129,0.638 z m -2.408,-2.962 v -1.492 l -1.215,0.044 c -1.352,0.041 -2.027,0.667 -2.027,1.875 0,0.909 0.397,1.364 1.194,1.364 0.568,0 1.06,-0.206 1.472,-0.617 0.384,-0.372 0.576,-0.761 0.576,-1.174 z"
   id="path3159"
   inkscape:connector-curvature="0"
   style="fill:#ffffff" />
			<path
   d="m 256.712,32.15 c 0,0.329 -0.172,0.49 -0.517,0.49 h -1.205 c -0.328,0 -0.496,-0.161 -0.496,-0.49 v -6.843 c 0,-0.837 -0.364,-1.258 -1.093,-1.258 -0.575,0 -1.06,0.227 -1.451,0.683 -0.394,0.454 -0.59,1.023 -0.59,1.706 v 5.713 c 0,0.329 -0.165,0.49 -0.495,0.49 h -1.205 c -0.343,0 -0.517,-0.161 -0.517,-0.49 v -9.338 c 0,-0.325 0.17,-0.489 0.513,-0.489 h 0.83 c 0.299,0 0.476,0.136 0.533,0.405 l 0.191,0.875 c 0.84,-0.939 1.799,-1.408 2.879,-1.408 0.798,0 1.433,0.245 1.908,0.737 0.477,0.489 0.714,1.132 0.714,1.928 v 7.289 z"
   id="path3161"
   inkscape:connector-curvature="0"
   style="fill:#ffffff" />
			<path
   d="m 266.883,32.15 c 0,0.329 -0.17,0.49 -0.513,0.49 h -0.745 c -0.356,0 -0.568,-0.161 -0.641,-0.49 l -0.17,-0.852 c -0.525,0.98 -1.344,1.471 -2.45,1.471 -2.29,0 -3.435,-1.775 -3.435,-5.329 0,-1.906 0.385,-3.305 1.151,-4.201 0.599,-0.697 1.35,-1.045 2.26,-1.045 1.022,0 1.813,0.435 2.366,1.3 v -5.479 c 0,-0.327 0.164,-0.49 0.49,-0.49 h 1.173 c 0.343,0 0.513,0.163 0.513,0.49 V 32.15 z m -2.111,-4.627 c 0,-2.315 -0.583,-3.474 -1.748,-3.474 -0.583,0 -1.018,0.242 -1.302,0.726 -0.313,0.539 -0.467,1.45 -0.467,2.729 0,1.221 0.142,2.086 0.424,2.591 0.286,0.502 0.734,0.757 1.345,0.757 1.165,0 1.748,-1.11 1.748,-3.329 z"
   id="path3163"
   inkscape:connector-curvature="0"
   style="fill:#ffffff" />
			<path
   d="m 282.105,19.829 c 0,0.325 -0.164,0.49 -0.49,0.49 h -3.027 v 11.812 c 0,0.342 -0.171,0.51 -0.514,0.51 h -1.235 c -0.341,0 -0.511,-0.168 -0.511,-0.51 V 20.319 h -3.029 c -0.354,0 -0.531,-0.165 -0.531,-0.49 v -1.045 c 0,-0.341 0.177,-0.511 0.531,-0.511 h 8.316 c 0.326,0 0.49,0.17 0.49,0.511 v 1.045 z"
   id="path3165"
   inkscape:connector-curvature="0"
   style="fill:#ffffff" />
			<path
   d="m 290.803,27.523 c 0,0.342 -0.164,0.513 -0.49,0.513 h -5.16 c 0.045,0.954 0.236,1.641 0.576,2.069 0.385,0.499 1.016,0.746 1.898,0.746 0.541,0 1.215,-0.129 2.025,-0.385 0.057,-0.014 0.114,-0.021 0.171,-0.021 0.183,0 0.319,0.113 0.404,0.341 l 0.299,0.854 c 0.099,0.269 0,0.469 -0.299,0.598 -0.81,0.354 -1.755,0.531 -2.837,0.531 -1.447,0 -2.564,-0.451 -3.346,-1.354 -0.781,-0.901 -1.172,-2.228 -1.172,-3.975 0,-1.58 0.362,-2.847 1.086,-3.807 0.726,-0.959 1.7,-1.439 2.923,-1.439 2.613,0 3.922,1.778 3.922,5.329 z m -2.216,-1.043 c -0.058,-1.706 -0.613,-2.56 -1.665,-2.56 -1.021,0 -1.614,0.854 -1.77,2.56 h 3.435 z"
   id="path3167"
   inkscape:connector-curvature="0"
   style="fill:#ffffff" />
			<path
   d="m 300.206,32.15 c 0.068,0.329 -0.073,0.49 -0.428,0.49 h -1.108 c -0.299,0 -0.477,-0.161 -0.533,-0.49 l -0.128,-0.788 c -0.61,0.937 -1.577,1.407 -2.899,1.407 -0.883,0 -1.563,-0.277 -2.045,-0.832 -0.486,-0.554 -0.726,-1.327 -0.726,-2.323 0,-2.047 1.105,-3.147 3.323,-3.306 l 2.134,-0.148 c 0,-0.299 -0.015,-0.455 -0.045,-0.47 -0.026,-0.583 -0.153,-0.993 -0.381,-1.236 -0.226,-0.241 -0.658,-0.362 -1.294,-0.362 -0.551,0 -1.237,0.121 -2.059,0.362 -0.34,0.1 -0.545,-0.008 -0.615,-0.319 l -0.213,-0.94 c -0.07,-0.299 0.038,-0.489 0.322,-0.575 0.965,-0.284 1.859,-0.426 2.686,-0.426 1.577,0 2.65,0.447 3.219,1.343 0.369,0.583 0.553,1.479 0.553,2.687 v 3.584 c 0,0.779 0.037,1.348 0.107,1.704 l 0.13,0.638 z m -2.41,-2.962 v -1.492 l -1.216,0.044 c -1.352,0.041 -2.025,0.667 -2.025,1.875 0,0.909 0.396,1.364 1.195,1.364 0.567,0 1.059,-0.206 1.471,-0.617 0.382,-0.372 0.575,-0.761 0.575,-1.174 z"
   id="path3169"
   inkscape:connector-curvature="0"
   style="fill:#ffffff" />
			<path
   d="m 308.796,31.874 c 0.057,0.3 -0.056,0.498 -0.342,0.599 -0.583,0.196 -1.278,0.297 -2.089,0.297 -1.352,0 -2.402,-0.447 -3.155,-1.344 -0.796,-0.938 -1.192,-2.286 -1.192,-4.05 0,-1.507 0.398,-2.747 1.204,-3.719 0.804,-0.975 1.878,-1.462 3.229,-1.462 0.44,0 0.895,0.065 1.363,0.192 0.683,0.172 0.969,0.426 0.854,0.768 l -0.299,0.895 c -0.071,0.227 -0.198,0.343 -0.386,0.343 -0.142,0 -0.371,-0.052 -0.69,-0.149 -0.32,-0.103 -0.581,-0.15 -0.779,-0.15 -0.683,0 -1.22,0.284 -1.609,0.856 -0.392,0.568 -0.587,1.383 -0.587,2.436 0,2.282 0.773,3.424 2.325,3.424 0.452,0 0.923,-0.072 1.405,-0.213 0.329,-0.086 0.52,0.028 0.577,0.34 l 0.171,0.937 z"
   id="path3171"
   inkscape:connector-curvature="0"
   style="fill:#ffffff" />
			<path
   d="m 318.369,32.15 c 0,0.329 -0.173,0.49 -0.512,0.49 h -1.172 c -0.329,0 -0.492,-0.161 -0.492,-0.49 v -6.843 c 0,-0.837 -0.384,-1.258 -1.15,-1.258 -0.584,0 -1.074,0.227 -1.473,0.683 -0.398,0.454 -0.596,1.023 -0.596,1.706 v 5.713 c 0,0.329 -0.173,0.49 -0.513,0.49 h -1.151 c -0.338,0 -0.512,-0.161 -0.512,-0.49 V 18.015 c 0,-0.327 0.174,-0.49 0.512,-0.49 h 1.151 c 0.34,0 0.513,0.163 0.513,0.49 v 5.479 c 0.781,-0.866 1.707,-1.3 2.772,-1.3 0.796,0 1.431,0.245 1.908,0.737 0.474,0.489 0.714,1.132 0.714,1.928 v 7.291 z"
   id="path3173"
   inkscape:connector-curvature="0"
   style="fill:#ffffff" />
			<path
   d="m 323.849,18.825 c 0,0.398 -0.135,0.736 -0.405,1.013 -0.27,0.277 -0.604,0.417 -1.002,0.417 -0.396,0 -0.729,-0.139 -0.991,-0.417 -0.262,-0.278 -0.394,-0.615 -0.394,-1.013 0,-0.397 0.131,-0.735 0.394,-1.01 0.263,-0.278 0.595,-0.417 0.991,-0.417 0.398,0 0.732,0.139 1.002,0.417 0.27,0.275 0.405,0.613 0.405,1.01 z m -0.256,13.325 c 0,0.329 -0.172,0.49 -0.516,0.49 h -1.187 c -0.344,0 -0.516,-0.161 -0.516,-0.49 v -9.338 c 0,-0.325 0.172,-0.489 0.516,-0.489 h 1.187 c 0.344,0 0.516,0.164 0.516,0.489 v 9.338 z"
   id="path3175"
   inkscape:connector-curvature="0"
   style="fill:#ffffff" />
			<path
   d="m 334.145,32.15 c 0,0.329 -0.17,0.49 -0.516,0.49 h -1.207 c -0.329,0 -0.494,-0.161 -0.494,-0.49 v -6.843 c 0,-0.837 -0.363,-1.258 -1.093,-1.258 -0.576,0 -1.061,0.227 -1.452,0.683 -0.393,0.454 -0.588,1.023 -0.588,1.706 v 5.713 c 0,0.329 -0.168,0.49 -0.495,0.49 h -1.207 c -0.343,0 -0.517,-0.161 -0.517,-0.49 v -9.338 c 0,-0.325 0.172,-0.489 0.511,-0.489 h 0.833 c 0.299,0 0.476,0.136 0.533,0.405 l 0.193,0.875 c 0.838,-0.939 1.797,-1.408 2.877,-1.408 0.795,0 1.432,0.245 1.905,0.737 0.479,0.489 0.716,1.132 0.716,1.928 v 7.289 z"
   id="path3177"
   inkscape:connector-curvature="0"
   style="fill:#ffffff" />
			<path
   d="m 344.85,33.558 c 0,1.165 -0.478,2.054 -1.43,2.665 -0.781,0.498 -1.748,0.747 -2.9,0.747 -1.224,0 -2.203,-0.212 -2.941,-0.64 -0.91,-0.527 -1.371,-1.33 -1.385,-2.41 0,-0.143 0.049,-0.262 0.148,-0.362 0.1,-0.099 0.22,-0.149 0.363,-0.149 l 1.193,0.044 c 0.27,0.014 0.432,0.17 0.488,0.468 0.144,0.84 0.875,1.259 2.197,1.259 0.667,0 1.204,-0.127 1.609,-0.384 0.405,-0.256 0.609,-0.598 0.609,-1.023 0,-0.825 -0.508,-1.236 -1.516,-1.236 h -2.109 c -1.607,0 -2.411,-0.582 -2.411,-1.749 0,-0.569 0.306,-1.143 0.919,-1.726 -0.996,-0.699 -1.492,-1.72 -1.492,-3.071 0,-1.18 0.354,-2.103 1.065,-2.771 0.711,-0.668 1.663,-1.003 2.857,-1.003 0.155,0 0.376,0.02 0.661,0.053 0.281,0.037 0.496,0.055 0.637,0.055 h 2.475 c 0.354,0 0.535,0.17 0.535,0.512 v 0.596 c 0,0.313 -0.138,0.482 -0.408,0.51 l -0.662,0.086 c 0.472,0.695 0.706,1.35 0.706,1.961 0,1.167 -0.352,2.085 -1.056,2.761 -0.703,0.678 -1.66,1.015 -2.868,1.015 -0.426,0 -0.774,-0.036 -1.044,-0.106 -0.2,0.195 -0.298,0.389 -0.298,0.574 0,0.355 0.319,0.533 0.958,0.533 h 1.834 c 1.01,0 1.807,0.24 2.389,0.723 0.584,0.484 0.877,1.172 0.877,2.068 z m -2.965,-7.61 c 0,-1.394 -0.583,-2.092 -1.749,-2.092 -0.556,0 -0.958,0.122 -1.214,0.364 -0.341,0.327 -0.511,0.903 -0.511,1.728 0,0.851 0.17,1.44 0.511,1.769 0.256,0.256 0.658,0.385 1.214,0.385 1.166,0 1.749,-0.719 1.749,-2.154 z"
   id="path3179"
   inkscape:connector-curvature="0"
   style="fill:#ffffff" />
			<path
   d="m 360.667,31.98 c 0.043,0.129 0.064,0.234 0.064,0.318 0,0.23 -0.144,0.342 -0.429,0.342 h -1.555 c -0.326,0 -0.539,-0.148 -0.639,-0.446 -0.227,-0.726 -0.455,-1.458 -0.683,-2.196 -0.269,-0.811 -0.526,-1.447 -0.768,-1.921 -0.627,-1.192 -1.428,-1.789 -2.409,-1.789 h -0.874 v 5.862 c 0,0.329 -0.171,0.49 -0.513,0.49 h -1.235 c -0.343,0 -0.512,-0.161 -0.512,-0.49 V 18.784 c 0,-0.341 0.169,-0.511 0.512,-0.511 h 3.754 c 1.604,0 2.776,0.426 3.516,1.278 0.556,0.641 0.833,1.427 0.833,2.366 0,0.896 -0.242,1.651 -0.727,2.262 -0.523,0.667 -1.271,1.079 -2.238,1.234 -0.043,0.017 -0.1,0.023 -0.172,0.023 0.967,0.199 1.729,0.883 2.282,2.046 0.415,0.867 1.011,2.367 1.793,4.498 z m -3.24,-9.773 c 0,-0.559 -0.17,-1.017 -0.512,-1.374 -0.384,-0.399 -0.919,-0.602 -1.599,-0.602 h -1.94 v 4.223 h 1.705 c 0.726,0 1.296,-0.203 1.717,-0.612 0.418,-0.405 0.629,-0.952 0.629,-1.635 z"
   id="path3181"
   inkscape:connector-curvature="0"
   style="fill:#ffffff" />
			<path
   d="m 369.878,27.523 c 0,0.342 -0.163,0.513 -0.491,0.513 h -5.159 c 0.043,0.954 0.234,1.641 0.577,2.069 0.383,0.499 1.016,0.746 1.896,0.746 0.539,0 1.215,-0.129 2.023,-0.385 0.059,-0.014 0.114,-0.021 0.172,-0.021 0.186,0 0.322,0.113 0.404,0.341 l 0.301,0.854 c 0.098,0.269 0,0.469 -0.301,0.598 -0.808,0.354 -1.754,0.531 -2.834,0.531 -1.45,0 -2.564,-0.451 -3.348,-1.354 -0.78,-0.901 -1.176,-2.228 -1.176,-3.975 0,-1.58 0.364,-2.847 1.09,-3.807 0.725,-0.959 1.7,-1.439 2.922,-1.439 2.615,0 3.924,1.778 3.924,5.329 z M 367.66,26.48 c -0.058,-1.706 -0.612,-2.56 -1.664,-2.56 -1.021,0 -1.611,0.854 -1.769,2.56 h 3.433 z"
   id="path3183"
   inkscape:connector-curvature="0"
   style="fill:#ffffff" />
			<path
   d="m 378.152,29.699 c 0,0.867 -0.286,1.578 -0.854,2.133 -0.627,0.625 -1.492,0.938 -2.602,0.938 -1.11,0 -2.112,-0.207 -3.007,-0.619 -0.285,-0.125 -0.377,-0.34 -0.275,-0.638 l 0.275,-0.896 c 0.086,-0.255 0.227,-0.384 0.427,-0.384 0.071,0 0.136,0.017 0.194,0.043 0.935,0.396 1.717,0.598 2.342,0.598 0.854,0 1.28,-0.363 1.28,-1.089 0,-0.469 -0.364,-0.923 -1.089,-1.364 -1.348,-0.809 -2.031,-1.221 -2.045,-1.238 -0.725,-0.581 -1.088,-1.276 -1.088,-2.087 0,-0.868 0.292,-1.566 0.873,-2.1 0.583,-0.534 1.395,-0.8 2.432,-0.8 0.896,0 1.691,0.15 2.386,0.447 0.315,0.129 0.415,0.343 0.301,0.642 l -0.276,0.724 c -0.113,0.313 -0.306,0.419 -0.571,0.32 -0.722,-0.27 -1.302,-0.406 -1.737,-0.406 -0.792,0 -1.189,0.342 -1.189,1.024 0,0.383 0.367,0.796 1.104,1.235 1.131,0.669 1.803,1.097 2.016,1.279 0.734,0.627 1.103,1.373 1.103,2.238 z"
   id="path3185"
   inkscape:connector-curvature="0"
   style="fill:#ffffff" />
			<path
   d="m 387.976,27.46 c 0,1.649 -0.365,2.947 -1.097,3.892 -0.734,0.944 -1.758,1.418 -3.08,1.418 -1.324,0 -2.357,-0.471 -3.104,-1.407 -0.746,-0.938 -1.117,-2.239 -1.117,-3.902 0,-1.634 0.371,-2.919 1.117,-3.857 0.746,-0.939 1.779,-1.408 3.104,-1.408 1.307,0 2.33,0.469 3.068,1.408 0.738,0.937 1.109,2.222 1.109,3.856 z m -2.259,0 c 0,-2.288 -0.658,-3.432 -1.973,-3.432 -1.299,0 -1.949,1.144 -1.949,3.432 0,2.29 0.65,3.433 1.949,3.433 1.315,0 1.973,-1.143 1.973,-3.433 z"
   id="path3187"
   inkscape:connector-curvature="0"
   style="fill:#ffffff" />
			<path
   d="m 397.74,32.15 c 0,0.329 -0.162,0.49 -0.489,0.49 h -0.853 c -0.271,0 -0.441,-0.142 -0.513,-0.426 l -0.213,-0.896 c -0.91,0.967 -1.92,1.451 -3.028,1.451 -0.796,0 -1.431,-0.237 -1.905,-0.713 -0.478,-0.477 -0.716,-1.134 -0.716,-1.975 v -7.27 c 0,-0.325 0.17,-0.489 0.513,-0.489 h 1.193 c 0.342,0 0.512,0.164 0.512,0.489 v 6.887 c 0,0.811 0.38,1.217 1.144,1.217 0.634,0 1.149,-0.248 1.545,-0.736 0.396,-0.492 0.593,-1.17 0.593,-2.036 v -5.332 c 0,-0.325 0.173,-0.489 0.518,-0.489 h 1.206 c 0.33,0 0.494,0.164 0.494,0.489 v 9.339 z"
   id="path3189"
   inkscape:connector-curvature="0"
   style="fill:#ffffff" />
			<path
   d="m 406.332,23.068 -0.316,1.195 c -0.086,0.325 -0.297,0.46 -0.635,0.404 -0.129,-0.015 -0.337,-0.08 -0.627,-0.192 -0.291,-0.113 -0.512,-0.171 -0.668,-0.171 -0.383,0 -0.692,0.221 -0.932,0.661 -0.283,0.499 -0.426,1.224 -0.426,2.177 v 5.008 c 0,0.329 -0.174,0.49 -0.515,0.49 h -1.187 c -0.342,0 -0.514,-0.161 -0.514,-0.49 v -9.338 c 0,-0.325 0.17,-0.489 0.509,-0.489 h 0.79 c 0.312,0 0.506,0.142 0.576,0.425 l 0.234,0.918 c 0.624,-0.98 1.421,-1.472 2.388,-1.472 1.04,0 1.479,0.293 1.323,0.874 z"
   id="path3191"
   inkscape:connector-curvature="0"
   style="fill:#ffffff" />
			<path
   d="m 413.752,31.874 c 0.057,0.3 -0.056,0.498 -0.342,0.599 -0.582,0.196 -1.279,0.297 -2.088,0.297 -1.353,0 -2.404,-0.447 -3.156,-1.344 -0.795,-0.938 -1.193,-2.286 -1.193,-4.05 0,-1.507 0.4,-2.747 1.203,-3.719 0.803,-0.975 1.881,-1.462 3.23,-1.462 0.442,0 0.895,0.065 1.365,0.192 0.682,0.172 0.965,0.426 0.854,0.768 l -0.299,0.895 c -0.072,0.227 -0.2,0.343 -0.385,0.343 -0.143,0 -0.374,-0.052 -0.692,-0.149 -0.319,-0.103 -0.58,-0.15 -0.778,-0.15 -0.682,0 -1.221,0.284 -1.609,0.856 -0.392,0.568 -0.586,1.383 -0.586,2.436 0,2.282 0.772,3.424 2.323,3.424 0.452,0 0.925,-0.072 1.407,-0.213 0.328,-0.086 0.519,0.028 0.577,0.34 l 0.169,0.937 z"
   id="path3193"
   inkscape:connector-curvature="0"
   style="fill:#ffffff" />
			<path
   d="m 423.027,27.523 c 0,0.342 -0.167,0.513 -0.491,0.513 h -5.161 c 0.045,0.954 0.235,1.641 0.576,2.069 0.384,0.499 1.018,0.746 1.898,0.746 0.54,0 1.215,-0.129 2.025,-0.385 0.057,-0.014 0.111,-0.021 0.172,-0.021 0.182,0 0.318,0.113 0.404,0.341 l 0.297,0.854 c 0.102,0.269 0,0.469 -0.297,0.598 -0.812,0.354 -1.757,0.531 -2.837,0.531 -1.45,0 -2.563,-0.451 -3.348,-1.354 -0.781,-0.901 -1.173,-2.228 -1.173,-3.975 0,-1.58 0.361,-2.847 1.088,-3.807 0.727,-0.96 1.699,-1.439 2.922,-1.439 2.615,0 3.925,1.778 3.925,5.329 z m -2.218,-1.043 c -0.056,-1.706 -0.612,-2.56 -1.664,-2.56 -1.022,0 -1.612,0.854 -1.77,2.56 h 3.434 z"
   id="path3195"
   inkscape:connector-curvature="0"
   style="fill:#ffffff" />
			<path
   d="m 431.299,29.699 c 0,0.867 -0.285,1.578 -0.854,2.133 -0.627,0.625 -1.492,0.938 -2.6,0.938 -1.109,0 -2.112,-0.207 -3.007,-0.619 -0.285,-0.125 -0.378,-0.34 -0.276,-0.638 l 0.276,-0.896 c 0.085,-0.255 0.228,-0.384 0.425,-0.384 0.074,0 0.137,0.017 0.193,0.043 0.938,0.396 1.719,0.598 2.345,0.598 0.853,0 1.281,-0.363 1.281,-1.089 0,-0.469 -0.364,-0.923 -1.089,-1.364 -1.351,-0.809 -2.035,-1.221 -2.047,-1.238 -0.727,-0.581 -1.086,-1.276 -1.086,-2.087 0,-0.868 0.289,-1.566 0.872,-2.1 0.582,-0.534 1.394,-0.8 2.431,-0.8 0.895,0 1.691,0.15 2.387,0.447 0.314,0.129 0.413,0.343 0.3,0.642 l -0.276,0.724 c -0.113,0.313 -0.305,0.419 -0.57,0.32 -0.723,-0.27 -1.303,-0.406 -1.739,-0.406 -0.791,0 -1.188,0.342 -1.188,1.024 0,0.383 0.367,0.796 1.102,1.235 1.132,0.669 1.805,1.097 2.017,1.279 0.736,0.627 1.103,1.373 1.103,2.238 z"
   id="path3197"
   inkscape:connector-curvature="0"
   style="fill:#ffffff" />
		</g>
	</g>
</g>


<g
   transform="translate(-1.15625,0.01340729)"
   id="Layer_2"><path
     style="fill:none;stroke:#000000"
     inkscape:connector-curvature="0"
     d="m 18,123.427 c 0,0 6,1 6,4.25 0,3.25 -0.5,84.75 -0.5,84.75 0,0 0.5,6.25 5.75,6.25 5.25,0 81.5,0.5 81.5,0.5 0,0 5,1.5 5,-9 0,-10.5 0,-82 0,-82 0,0 2,-5.25 5.25,-4.25"
     id="path241" /><path
     style="fill:#999999;stroke:#000000;stroke-width:0.5"
     inkscape:connector-curvature="0"
     d="m 24.25,159.427 -0.75,53 c 0,0 0.75,7 7.5,6.5 6.75,-0.5 79.75,0.25 79.75,0.25 0,0 5.5,4.25 4.75,-19.75 -0.75,-24 0,-39.75 0,-39.75 l -91.25,-0.25 z"
     id="path243" /><line
     style="fill:#999999;stroke:#000000;stroke-width:3"
     x1="18"
     y1="222.427"
     x2="118"
     y2="222.427"
     id="line245" /><polygon
     style="fill:none;stroke:#000000"
     points="31.75,223.177 23,222.677 1.75,335.927 9.5,336.677 "
     id="polygon247" /><polygon
     style="fill:none;stroke:#000000"
     points="106,222.927 114.75,222.427 136,335.677 128.25,336.427 "
     id="polygon249" /><path
     style="fill:none;stroke:#000000"
     inkscape:connector-curvature="0"
     d="m 84.5,224.427 c 0,0 -6.5,15.5 -4,21 2.5,5.5 -6.25,16 -6.25,16"
     id="path251" /><path
     style="fill:none;stroke:#000000"
     inkscape:connector-curvature="0"
     d="m 51,223.677 c 0,0 6.5,15.5 4,21 -2.5,5.5 6.25,16 6.25,16"
     id="path253" /><rect
     style="fill:none;stroke:#000000"
     x="63"
     y="264.927"
     width="9.5"
     height="11.75"
     id="rect255" /><rect
     style="fill:none;stroke:#000000"
     x="64.75"
     y="276.677"
     width="5.25"
     height="21.75"
     id="rect257" /><rect
     style="fill:none;stroke:#000000"
     x="59.5"
     y="298.427"
     width="15.75"
     height="13.75"
     id="rect259" /><rect
     style="fill:none;stroke:#000000"
     x="61"
     y="312.677"
     width="13"
     height="3.25"
     id="rect261" /><path
     style="fill:none;stroke:#000000"
     inkscape:connector-curvature="0"
     d="m 62,315.927 -1.5,6.25 c 0,0 -20,6.5 -14,13.25 l 42.75,0.75 c 0,0 6.75,-6 -13.5,-14 L 74,315.927 H 62 z"
     id="path263" /><path
     style="fill:none;stroke:#000000;stroke-width:4"
     inkscape:connector-curvature="0"
     d="m 61.5,319.177 c 0,0 -19.75,-8 -32,11.25"
     id="path265" /><path
     style="fill:none;stroke:#000000;stroke-width:0.75"
     inkscape:connector-curvature="0"
     d="m 63.625,263.552 c 0,0 -1.5,-6.75 4,-13.625 0,0 6.75,5.125 4.5,12.625 l -1,0.875 c 0,0 -1.625,-6.5 -2.75,-7 -1.125,-0.5 1.375,5.5 0.25,6 -1.125,0.5 -2.125,3.625 -5,1.125 z"
     id="path267" /><ellipse
     sodipodi:ry="4"
     sodipodi:rx="2.5"
     sodipodi:cy="306.177"
     sodipodi:cx="67.5"
     d="m 70,306.177 c 0,2.20914 -1.119288,4 -2.5,4 -1.380712,0 -2.5,-1.79086 -2.5,-4 0,-2.20914 1.119288,-4 2.5,-4 1.380712,0 2.5,1.79086 2.5,4 z"
     cx="67.5"
     cy="306.177"
     rx="2.5"
     ry="4"
     id="ellipse269" /><path
     style="fill:none;stroke:#000000;stroke-width:0.75"
     inkscape:connector-curvature="0"
     d="m 73.25,100.302 c 0,0 -1.125,5.875 -3,6.625 -1.875,0.75 1.875,8.5 6.375,2.25 0,0 1.25,-5 -3.375,-8.875 z"
     id="path271" /><path
     style="fill:none;stroke:#000000;stroke-width:0.75"
     inkscape:connector-curvature="0"
     d="m 82.75,87.427 c 0,0 -1.125,5.875 -3,6.625 -1.875,0.75 1.875,8.5 6.375,2.25 0,0 1.25,-5 -3.375,-8.875 z"
     id="path273" /><path
     style="fill:none;stroke:#000000;stroke-width:0.75"
     inkscape:connector-curvature="0"
     d="m 92.75,81.427 c 0,0 -1.125,5.875 -3,6.625 -1.875,0.75 1.875,8.5 6.375,2.25 0,0 1.25,-5 -3.375,-8.875 z"
     id="path275" /><path
     style="fill:none;stroke:#000000;stroke-width:0.75"
     inkscape:connector-curvature="0"
     d="m 104.75,74.677 c 0,0 -1.125,5.875 -3,6.625 -1.875,0.75 1.875,8.5 6.375,2.25 0,0 1.25,-5 -3.375,-8.875 z"
     id="path277" /><path
     style="fill:none;stroke:#000000;stroke-width:0.5"
     inkscape:connector-curvature="0"
     d="m 114.25,68.927 c 0,0 -1.125,5.875 -3,6.625 -1.875,0.75 1.875,8.5 6.375,2.25 0,0 1.25,-5 -3.375,-8.875 z"
     id="path279" /><path
     style="fill:none;stroke:#000000;stroke-width:0.75"
     inkscape:connector-curvature="0"
     d="m 102.25,87.302 c 0,0 -1.125,5.875 -3,6.625 -1.875,0.75 1.875,8.5 6.375,2.25 0,0 1.25,-5 -3.375,-8.875 z"
     id="path281" /><g
     id="g283"><g
       id="g285"><path
         style="fill:none"
         inkscape:connector-curvature="0"
         d="m 41.75,106.302 c -1.375,3.125 -3.75,4.875 -3.75,8.75 -0.125,3.125 2.625,7.875 3.875,10.875 1.75,4.25 1.5,7.5 0.125,11.75 -1,2.875 -3.5,6.875 -2.5,9.875"
         id="path287" /><path
         inkscape:connector-curvature="0"
         d="m 41.511,106.342 c -1.518,2.999 -3.45,5.335 -3.753,8.774 -0.289,3.286 2.08,6.961 3.409,9.815 2.148,4.612 1.977,9.207 0.158,13.913 -1.138,2.944 -2.678,5.542 -2.067,8.772 0.022,0.115 0.508,10e-4 0.483,-0.129 -0.669,-3.539 1.265,-6.663 2.497,-9.851 1.535,-3.971 1.282,-7.838 -0.122,-11.774 -1.047,-2.934 -2.678,-5.582 -3.581,-8.588 -1.281,-4.266 1.677,-7.505 3.453,-11.012 0.044,-0.086 -0.413,-0.048 -0.477,0.08 l 0,0 z"
         id="path289" /></g></g><g
     id="g291"><g
       id="g293"><path
         style="fill:none"
         inkscape:connector-curvature="0"
         d="m 52.375,108.552 c -0.25,2.625 -2.25,4.375 -3.25,6.625 -0.125,0.5 -0.625,1.375 -0.5,2 0.25,0.75 0.75,0.25 1,0.625 0.75,1.625 1,3.5 1.625,5.125 0.875,2.625 3,4.875 3.25,7.625 0.125,3.375 -2.125,5.5 -1.625,8.875 0.375,2.875 1.375,5.75 3.25,8"
         id="path295" /><path
         inkscape:connector-curvature="0"
         d="m 52.135,108.589 c -0.45,1.972 -4.36,6.381 -3.752,8.652 0.128,0.197 0.3,0.355 0.516,0.477 0.506,0.266 0.829,0.735 0.967,1.406 0.831,2.166 1.232,4.311 2.319,6.4 0.892,1.715 1.692,3.178 2.074,5.092 0.445,2.231 -1.355,5.236 -1.684,7.47 -0.475,3.234 1.481,6.928 3.325,9.428 0.081,0.109 0.546,-0.048 0.452,-0.176 -2.518,-3.416 -3.969,-7.591 -2.768,-11.796 1.013,-3.542 1.541,-5.421 -0.232,-8.915 -0.854,-1.682 -1.681,-3.222 -2.271,-5.023 -0.293,-0.896 -0.48,-3.257 -1.229,-3.891 -2.333,-1.978 2.185,-6.663 2.764,-9.199 0.031,-0.143 -0.449,-0.064 -0.481,0.075 l 0,0 z"
         id="path297" /></g></g><g
     id="g299"><g
       id="g301"><path
         style="fill:none"
         inkscape:connector-curvature="0"
         d="m 67,115.802 c -1.875,4 -2,6.5 0.25,10.375 -0.25,0 -0.5,0.125 -0.75,0.25 -0.125,2.625 1.875,5.5 2.25,8.25 0.25,2.5 -0.25,4.5 -1,6.875 -0.875,2.25 -2.125,4.125 -1.75,6.625 0.375,2.25 2.25,5.25 4.375,6.125"
         id="path303" /><path
         inkscape:connector-curvature="0"
         d="m 66.762,115.846 c -0.665,1.561 -1.128,2.912 -1.401,4.563 -0.112,0.678 1.17,5.929 1.057,5.967 -0.042,0.014 -0.164,0.054 -0.16,0.115 0.179,2.444 1.166,4.568 1.945,6.867 1.22,3.601 -0.373,7.529 -1.793,10.822 -1.69,3.919 0.162,8.128 3.737,10.203 0.119,0.069 0.511,-0.13 0.456,-0.162 -6.339,-3.679 -3.71,-8.994 -2.107,-14.438 0.639,-2.168 0.676,-4.356 0.19,-6.555 -0.203,-0.92 -3.078,-6.427 -1.354,-7.001 0.022,-0.007 0.185,-0.066 0.16,-0.115 -1.942,-3.75 -1.948,-6.376 -0.254,-10.354 0.031,-0.073 -0.425,-0.033 -0.476,0.088 l 0,0 z"
         id="path305" /></g></g><g
     id="g307"><g
       id="g309"><path
         style="fill:none"
         inkscape:connector-curvature="0"
         d="m 81.5,105.677 c 0,3.5 3.125,6.25 2.25,10.25 -0.75,3.75 -4.375,6.125 -5.375,10 -1,4 2,8.75 3.25,12.5 1.375,3.75 1.75,7.5 -0.125,11.125"
         id="path311" /><path
         inkscape:connector-curvature="0"
         d="m 81.258,105.741 c 0.377,3.644 2.656,6.407 2.249,10.212 -0.386,3.615 -4.171,6.571 -5.375,10 -0.952,2.713 0.637,6.079 1.631,8.52 2.068,5.077 3.83,9.658 1.51,15.066 -0.099,0.23 0.385,0.184 0.453,0.024 3.788,-8.831 -4.323,-15.118 -3.109,-23.664 0.52,-3.659 4.299,-6.424 5.375,-10 1.034,-3.437 -1.905,-6.941 -2.251,-10.288 -0.019,-0.179 -0.504,-0.069 -0.483,0.13 l 0,0 z"
         id="path313" /></g></g><g
     id="g315"><g
       id="g317"><path
         style="fill:none"
         inkscape:connector-curvature="0"
         d="m 101.125,104.677 c 0.5,0.375 2.375,5 2.75,6.5 1,3.625 -1.5,4.625 -3.875,6.875 -1.75,1.75 -2.5,3.625 -2.75,6 -0.25,2.5 1.5,4 2.125,6.5 -2.125,0.5 -3,4.875 -3.25,6.875 -0.5,3.625 2.375,8 4.5,10.75"
         id="path319" /><path
         inkscape:connector-curvature="0"
         d="m 100.899,104.768 c 1.054,1.393 1.607,3.265 2.216,4.878 1.474,3.905 -0.485,5.876 -3.307,8.376 -2.919,2.586 -3.362,6.603 -1.766,9.947 1.358,2.843 -1.461,5.63 -2.035,8.643 -0.832,4.368 1.904,8.328 4.391,11.656 0.089,0.12 0.555,-0.041 0.45,-0.182 -2.162,-2.894 -3.942,-5.742 -4.521,-9.334 -0.392,-2.43 0.905,-7.036 3.192,-8.14 0.037,-0.018 0.113,-0.073 0.095,-0.125 -1.181,-3.398 -2.632,-5.292 -1.554,-9.104 0.912,-3.226 4.449,-4.001 5.695,-6.722 1.365,-2.978 -0.529,-7.595 -2.408,-10.076 -0.088,-0.118 -0.554,0.043 -0.448,0.183 l 0,0 z"
         id="path321" /></g></g><path
     style="fill:none;stroke:#000000"
     inkscape:connector-curvature="0"
     d="m 46.25,53.177 60.25,-32.75 c 0,0 22.25,-15.25 43,-6.25 l 19.75,-10.25 c 0,0 -1.5,9.5 7,12.75 l -19,11.75 c 0,0 -2.75,15.5 -20.5,27 -17.75,11.5 -49.25,28 -49.25,28 l -20.25,10.75 c 0,0 -4.5,3.5 -11.5,-3.5 -7,-7 -21,-18.25 -9.5,-37.5 z"
     id="path323" /><path
     style="fill:#999999;stroke:#000000"
     inkscape:connector-curvature="0"
     d="m 100.5,23.177 63,1 -6.25,4.25 c 0,0 -6.25,18.25 -20.5,27 C 122.5,64.177 65,94.677 65,94.677 c 0,0 -35.5,-9.5 -18.75,-41.5 l 54.25,-30 z"
     id="path325" /><g
     id="g327"><g
       id="g329"><path
         style="fill:none"
         inkscape:connector-curvature="0"
         d="m 89,47.677 c 1.5,0 3.5,-0.5 5,-1"
         id="path331" /><path
         inkscape:connector-curvature="0"
         d="m 88.623,48.221 c 1.879,-0.038 3.725,-0.484 5.505,-1.065 0.268,-0.087 0.948,-0.327 0.837,-0.738 -0.104,-0.392 -0.828,-0.308 -1.094,-0.221 -1.448,0.473 -2.962,0.904 -4.495,0.935 -0.438,0.009 -1.007,0.139 -1.275,0.526 -0.258,0.372 0.216,0.57 0.522,0.563 l 0,0 z"
         id="path333" /></g></g><g
     id="g335"><g
       id="g337"><path
         style="fill:none"
         inkscape:connector-curvature="0"
         d="m 116.5,44.177 c 1,0 2,0 3.5,0"
         id="path339" /><path
         inkscape:connector-curvature="0"
         d="m 116.114,44.688 c 1.167,0 2.333,0 3.5,0 0.429,0 1.007,-0.152 1.279,-0.512 0.276,-0.366 -0.233,-0.51 -0.508,-0.51 -1.167,0 -2.333,0 -3.5,0 -0.429,0 -1.007,0.152 -1.279,0.512 -0.276,0.365 0.233,0.51 0.508,0.51 l 0,0 z"
         id="path341" /></g></g><g
     id="g343"><g
       id="g345"><path
         style="fill:none"
         inkscape:connector-curvature="0"
         d="m 97,55.677 c 1.5,0 3.5,0 5,0"
         id="path347" /><path
         inkscape:connector-curvature="0"
         d="m 96.64,56.284 c 1.667,0 3.333,0 5,0 0.45,0 1.019,-0.131 1.269,-0.552 0.231,-0.39 -0.195,-0.663 -0.549,-0.663 -1.667,0 -3.333,0 -5,0 -0.45,0 -1.019,0.131 -1.269,0.552 -0.232,0.39 0.195,0.663 0.549,0.663 l 0,0 z"
         id="path349" /></g></g><g
     id="g351"><g
       id="g353"><path
         style="fill:none"
         inkscape:connector-curvature="0"
         d="m 62,67.677 c 1.5,0 3.5,0 5,0.5"
         id="path355" /><path
         inkscape:connector-curvature="0"
         d="m 61.628,68.241 c 1.608,0.001 3.232,-0.002 4.783,0.474 0.634,0.194 2.273,-0.739 1.176,-1.076 -1.684,-0.517 -3.471,-0.525 -5.217,-0.526 -0.439,0 -1.013,0.14 -1.273,0.534 -0.251,0.38 0.212,0.594 0.531,0.594 l 0,0 z"
         id="path357" /></g></g><g
     id="g359"><g
       id="g361"><path
         style="fill:none"
         inkscape:connector-curvature="0"
         d="m 64,80.677 c 1.5,0 3.5,0 5,-0.5"
         id="path363" /><path
         inkscape:connector-curvature="0"
         d="m 63.605,81.155 c 1.847,0 3.723,-0.03 5.502,-0.576 0.223,-0.068 0.957,-0.294 0.858,-0.661 -0.095,-0.356 -0.852,-0.212 -1.074,-0.144 -1.454,0.446 -2.991,0.424 -4.498,0.424 -0.422,0 -1.002,0.159 -1.283,0.499 -0.291,0.354 0.25,0.458 0.495,0.458 l 0,0 z"
         id="path365" /></g></g><g
     id="g367"><g
       id="g369"><path
         style="fill:none"
         inkscape:connector-curvature="0"
         d="m 69,61.677 c 2,-0.5 4,-0.5 6.5,-0.5"
         id="path371" /><path
         inkscape:connector-curvature="0"
         d="m 69.132,62.17 c 1.967,-0.459 3.986,-0.437 5.994,-0.437 0.438,0 1.013,-0.142 1.274,-0.531 0.254,-0.378 -0.214,-0.582 -0.527,-0.582 -2.359,0 -4.697,0.024 -7.006,0.563 -1.177,0.275 -0.898,1.259 0.265,0.987 l 0,0 z"
         id="path373" /></g></g><g
     id="g375"><g
       id="g377"><path
         style="fill:none"
         inkscape:connector-curvature="0"
         d="m 80,70.677 c 2,0 4.5,0 6.5,0"
         id="path379" /><path
         inkscape:connector-curvature="0"
         d="m 79.911,71.374 c 2.167,0 4.333,0 6.5,0 1.096,0 1.489,-1.394 0.177,-1.394 -2.167,0 -4.333,0 -6.5,0 -1.096,0 -1.489,1.394 -0.177,1.394 l 0,0 z"
         id="path381" /></g></g><g
     id="g383"><g
       id="g385"><path
         style="fill:none"
         inkscape:connector-curvature="0"
         d="m 133,32.677 c 2,0.5 4,0 5.5,-0.5"
         id="path387" /><path
         inkscape:connector-curvature="0"
         d="m 132.216,33.09 c 2.274,0.495 4.455,0.09 6.637,-0.62 0.151,-0.049 0.853,-0.392 0.551,-0.643 -0.317,-0.263 -0.929,-0.051 -1.259,0.056 -1.425,0.464 -2.878,0.703 -4.363,0.38 -0.456,-0.099 -0.948,0.003 -1.357,0.219 -0.164,0.087 -0.669,0.508 -0.209,0.608 l 0,0 z"
         id="path389" /></g></g><g
     id="g391"><g
       id="g393"><path
         style="fill:none"
         inkscape:connector-curvature="0"
         d="m 104.5,37.177 c 2.5,0 5,0 7.5,0"
         id="path395" /><path
         inkscape:connector-curvature="0"
         d="m 104.097,37.623 c 2.5,0 5,0 7.5,0 0.588,0 2.099,-0.892 0.806,-0.892 -2.5,0 -5,0 -7.5,0 -0.589,0 -2.1,0.892 -0.806,0.892 l 0,0 z"
         id="path397" /></g></g><g
     id="g399"><g
       id="g401"><path
         style="fill:none"
         inkscape:connector-curvature="0"
         d="m 61,50.677 c 0.5,0 0.5,0 1,0"
         id="path403" /><path
         inkscape:connector-curvature="0"
         d="m 60.919,51.406 c 0.333,0 0.667,0 1,0 0.432,0 1.009,-0.329 1.06,-0.796 0.056,-0.511 -0.508,-0.662 -0.9,-0.662 -0.333,0 -0.667,0 -1,0 -0.432,0 -1.009,0.329 -1.06,0.796 -0.055,0.511 0.508,0.662 0.9,0.662 l 0,0 z"
         id="path405" /></g></g><g
     id="g407"><g
       id="g409"><path
         style="fill:none"
         inkscape:connector-curvature="0"
         d="m 53,64.677 c 0.5,0 0.5,0 1,0"
         id="path411" /><path
         inkscape:connector-curvature="0"
         d="m 52.596,65.122 c 0.333,0 0.667,0 1,0 0.417,0 0.998,-0.166 1.287,-0.485 0.308,-0.339 -0.266,-0.406 -0.48,-0.406 -0.333,0 -0.667,0 -1,0 -0.417,0 -0.998,0.166 -1.287,0.485 -0.308,0.34 0.266,0.406 0.48,0.406 l 0,0 z"
         id="path413" /></g></g><g
     id="g415"><g
       id="g417"><path
         style="fill:none"
         inkscape:connector-curvature="0"
         d="m 119,53.677 c 2.5,0 5,0 7.5,0"
         id="path419" /><path
         inkscape:connector-curvature="0"
         d="m 118.648,54.316 c 2.5,0 5,0 7.5,0 0.458,0 1.022,-0.125 1.265,-0.565 0.218,-0.396 -0.185,-0.714 -0.563,-0.714 -2.5,0 -5,0 -7.5,0 -0.458,0 -1.022,0.125 -1.265,0.565 -0.217,0.396 0.186,0.714 0.563,0.714 l 0,0 z"
         id="path421" /></g></g><g
     id="g423"><g
       id="g425"><path
         style="fill:none"
         inkscape:connector-curvature="0"
         d="m 94.5,64.677 c 1.5,0 2.5,0 4,0"
         id="path427" /><path
         inkscape:connector-curvature="0"
         d="m 94.423,65.419 c 1.333,0 2.667,0 4,0 1.129,0 1.46,-1.484 0.152,-1.484 -1.333,0 -2.667,0 -4,0 -1.129,0 -1.46,1.484 -0.152,1.484 l 0,0 z"
         id="path429" /></g></g><g
     id="g431"><g
       id="g433"><path
         style="fill:none"
         inkscape:connector-curvature="0"
         d="m 83,42.677 c 0.5,-1 2,-1 3,-1"
         id="path435" /><path
         inkscape:connector-curvature="0"
         d="m 83.959,42.534 c 0.283,-0.498 1.071,-0.378 1.646,-0.379 0.423,0 1.002,-0.159 1.283,-0.499 0.292,-0.354 -0.25,-0.458 -0.494,-0.458 -1.525,10e-4 -3.514,0.139 -4.354,1.621 -0.208,0.366 0.692,0.332 0.807,0.315 0.409,-0.061 0.898,-0.22 1.112,-0.6 l 0,0 z"
         id="path437" /></g></g><g
     id="g439"><g
       id="g441"><path
         style="fill:none"
         inkscape:connector-curvature="0"
         d="m 114,29.677 c 1,0 2,0 3,0"
         id="path443" /><path
         inkscape:connector-curvature="0"
         d="m 113.625,30.231 c 1,0 2,0 3,0 0.438,0 1.012,-0.142 1.274,-0.53 0.256,-0.378 -0.215,-0.579 -0.526,-0.579 -1,0 -2,0 -3,0 -0.438,0 -1.012,0.142 -1.274,0.53 -0.256,0.379 0.215,0.579 0.526,0.579 l 0,0 z"
         id="path445" /></g></g><g
     id="g447"><g
       id="g449"><path
         style="fill:none"
         inkscape:connector-curvature="0"
         d="m 94.5,33.177 c 1.5,0 2.5,0 4,0"
         id="path451" /><path
         inkscape:connector-curvature="0"
         d="m 94.108,33.668 c 1.333,0 2.667,0 4,0 0.425,0 1.004,-0.156 1.282,-0.504 0.286,-0.359 -0.243,-0.479 -0.5,-0.479 -1.333,0 -2.667,0 -4,0 -0.425,0 -1.004,0.156 -1.282,0.504 -0.285,0.359 0.244,0.479 0.5,0.479 l 0,0 z"
         id="path453" /></g></g><g
     id="g455"><g
       id="g457"><path
         style="fill:none"
         inkscape:connector-curvature="0"
         d="m 100,43.677 c 1.5,0 3,0 4.5,1"
         id="path459" /><path
         inkscape:connector-curvature="0"
         d="m 99.618,44.202 c 1.492,0.001 2.815,0.119 4.109,0.929 0.509,0.318 2.302,-0.434 1.545,-0.908 -1.503,-0.94 -3.159,-1.069 -4.891,-1.071 -0.431,0 -1.009,0.148 -1.278,0.518 -0.269,0.37 0.228,0.532 0.515,0.532 l 0,0 z"
         id="path461" /></g></g><g
     id="g463"><g
       id="g465"><path
         style="fill:none"
         inkscape:connector-curvature="0"
         d="m 135.5,40.677 c 1,0 1.5,0 2.5,0"
         id="path467" /><path
         inkscape:connector-curvature="0"
         d="m 135.091,41.102 c 0.833,0 1.667,0 2.5,0 0.413,0 0.994,-0.17 1.289,-0.476 0.317,-0.33 -0.277,-0.374 -0.472,-0.374 -0.833,0 -1.667,0 -2.5,0 -0.413,0 -0.994,0.17 -1.289,0.476 -0.317,0.33 0.277,0.374 0.472,0.374 l 0,0 z"
         id="path469" /></g></g><g
     id="g471"><g
       id="g473"><line
         style="fill:none"
         x1="75"
         y1="79.177002"
         x2="75.5"
         y2="79.177002"
         id="line475" /><path
         inkscape:connector-curvature="0"
         d="m 74.919,79.904 c 0.167,0 0.333,0 0.5,0 0.431,0 1.009,-0.328 1.061,-0.795 0.056,-0.51 -0.508,-0.659 -0.899,-0.659 -0.167,0 -0.333,0 -0.5,0 -0.431,0 -1.009,0.328 -1.061,0.795 -0.057,0.51 0.508,0.659 0.899,0.659 l 0,0 z"
         id="path477" /></g></g><g
     id="g479"><g
       id="g481"><line
         style="fill:none"
         x1="49"
         y1="77.677002"
         x2="49.5"
         y2="77.677002"
         id="line483" /><path
         inkscape:connector-curvature="0"
         d="m 48.926,78.431 c 0.167,0 0.333,0 0.5,0 0.442,0 1.01,-0.338 1.055,-0.815 0.05,-0.516 -0.5,-0.694 -0.909,-0.694 -0.167,0 -0.333,0 -0.5,0 -0.442,0 -1.01,0.338 -1.055,0.815 -0.049,0.516 0.5,0.694 0.909,0.694 l 0,0 z"
         id="path485" /></g></g><g
     id="g487"><line
       style="fill:none;stroke:#000000"
       x1="31.5"
       y1="164.677"
       x2="40.5"
       y2="164.677"
       id="line489" /><line
       style="fill:none;stroke:#000000"
       x1="38.5"
       y1="169.177"
       x2="47.5"
       y2="169.177"
       id="line491" /><line
       style="fill:none;stroke:#000000"
       x1="48"
       y1="164.677"
       x2="57"
       y2="164.677"
       id="line493" /><line
       style="fill:none;stroke:#000000"
       x1="56.5"
       y1="171.177"
       x2="65.5"
       y2="171.177"
       id="line495" /><line
       style="fill:none;stroke:#000000"
       x1="39"
       y1="175.177"
       x2="48"
       y2="175.177"
       id="line497" /><line
       style="fill:none;stroke:#000000"
       x1="62"
       y1="177.177"
       x2="71"
       y2="177.177"
       id="line499" /><line
       style="fill:none;stroke:#000000"
       x1="63.5"
       y1="164.677"
       x2="72.5"
       y2="164.677"
       id="line501" /><line
       style="fill:none;stroke:#000000"
       x1="46.5"
       y1="179.177"
       x2="55.5"
       y2="179.177"
       id="line503" /><line
       style="fill:none;stroke:#000000"
       x1="28"
       y1="173.177"
       x2="37"
       y2="173.177"
       id="line505" /><line
       style="fill:none;stroke:#000000"
       x1="31.5"
       y1="181.677"
       x2="40.5"
       y2="181.677"
       id="line507" /><line
       style="fill:none;stroke:#000000"
       x1="29.5"
       y1="186.177"
       x2="38.5"
       y2="186.177"
       id="line509" /><line
       style="fill:none;stroke:#000000"
       x1="36.5"
       y1="190.677"
       x2="45.5"
       y2="190.677"
       id="line511" /><line
       style="fill:none;stroke:#000000"
       x1="46"
       y1="186.177"
       x2="55"
       y2="186.177"
       id="line513" /><line
       style="fill:none;stroke:#000000"
       x1="54.5"
       y1="192.677"
       x2="63.5"
       y2="192.677"
       id="line515" /><line
       style="fill:none;stroke:#000000"
       x1="37"
       y1="196.677"
       x2="46"
       y2="196.677"
       id="line517" /><line
       style="fill:none;stroke:#000000"
       x1="60"
       y1="198.677"
       x2="69"
       y2="198.677"
       id="line519" /><line
       style="fill:none;stroke:#000000"
       x1="61.5"
       y1="186.177"
       x2="70.5"
       y2="186.177"
       id="line521" /><line
       style="fill:none;stroke:#000000"
       x1="44.5"
       y1="200.677"
       x2="53.5"
       y2="200.677"
       id="line523" /><line
       style="fill:none;stroke:#000000"
       x1="26"
       y1="194.677"
       x2="35"
       y2="194.677"
       id="line525" /><line
       style="fill:none;stroke:#000000"
       x1="29.5"
       y1="203.177"
       x2="38.5"
       y2="203.177"
       id="line527" /></g><g
     id="g529"><line
       style="fill:none;stroke:#000000"
       x1="73"
       y1="171.677"
       x2="82"
       y2="171.677"
       id="line531" /><line
       style="fill:none;stroke:#000000"
       x1="80"
       y1="176.177"
       x2="89"
       y2="176.177"
       id="line533" /><line
       style="fill:none;stroke:#000000"
       x1="89.5"
       y1="171.677"
       x2="98.5"
       y2="171.677"
       id="line535" /><line
       style="fill:none;stroke:#000000"
       x1="98"
       y1="178.177"
       x2="107"
       y2="178.177"
       id="line537" /><line
       style="fill:none;stroke:#000000"
       x1="80.5"
       y1="182.177"
       x2="89.5"
       y2="182.177"
       id="line539" /><line
       style="fill:none;stroke:#000000"
       x1="103.5"
       y1="184.177"
       x2="112.5"
       y2="184.177"
       id="line541" /><line
       style="fill:none;stroke:#000000"
       x1="105"
       y1="171.677"
       x2="114"
       y2="171.677"
       id="line543" /><line
       style="fill:none;stroke:#000000"
       x1="88"
       y1="186.177"
       x2="97"
       y2="186.177"
       id="line545" /><line
       style="fill:none;stroke:#000000"
       x1="69.5"
       y1="180.177"
       x2="78.5"
       y2="180.177"
       id="line547" /><line
       style="fill:none;stroke:#000000"
       x1="73"
       y1="188.677"
       x2="82"
       y2="188.677"
       id="line549" /><line
       style="fill:none;stroke:#000000"
       x1="71"
       y1="193.177"
       x2="80"
       y2="193.177"
       id="line551" /><line
       style="fill:none;stroke:#000000"
       x1="78"
       y1="197.677"
       x2="87"
       y2="197.677"
       id="line553" /><line
       style="fill:none;stroke:#000000"
       x1="87.5"
       y1="193.177"
       x2="96.5"
       y2="193.177"
       id="line555" /><line
       style="fill:none;stroke:#000000"
       x1="96"
       y1="199.677"
       x2="105"
       y2="199.677"
       id="line557" /><line
       style="fill:none;stroke:#000000"
       x1="78.5"
       y1="203.677"
       x2="87.5"
       y2="203.677"
       id="line559" /><line
       style="fill:none;stroke:#000000"
       x1="101.5"
       y1="205.677"
       x2="110.5"
       y2="205.677"
       id="line561" /><line
       style="fill:none;stroke:#000000"
       x1="103"
       y1="193.177"
       x2="112"
       y2="193.177"
       id="line563" /><line
       style="fill:none;stroke:#000000"
       x1="86"
       y1="207.677"
       x2="95"
       y2="207.677"
       id="line565" /><line
       style="fill:none;stroke:#000000"
       x1="67.5"
       y1="201.677"
       x2="76.5"
       y2="201.677"
       id="line567" /><line
       style="fill:none;stroke:#000000"
       x1="71"
       y1="210.177"
       x2="80"
       y2="210.177"
       id="line569" /></g><line
     style="fill:none;stroke:#000000"
     x1="35"
     y1="213.177"
     x2="43"
     y2="213.177"
     id="line571" /><line
     style="fill:none;stroke:#000000"
     x1="52"
     y1="207.177"
     x2="60"
     y2="207.177"
     id="line573" /><line
     style="fill:none;stroke:#000000"
     x1="61"
     y1="213.677"
     x2="65.5"
     y2="213.677"
     id="line575" /><line
     style="fill:none;stroke:#000000"
     x1="82.5"
     y1="166.677"
     x2="92"
     y2="166.677"
     id="line577" /><line
     style="fill:none;stroke:#000000"
     x1="103.5"
     y1="165.177"
     x2="109.5"
     y2="165.177"
     id="line579" /><line
     style="fill:none;stroke:#000000"
     x1="88.5"
     y1="162.177"
     x2="100"
     y2="162.177"
     id="line581" /><line
     style="fill:none;stroke:#000000"
     x1="97.5"
     y1="212.177"
     x2="106"
     y2="212.177"
     id="line583" /><line
     style="fill:none;stroke:#000000"
     x1="26.5"
     y1="209.177"
     x2="32.5"
     y2="209.177"
     id="line585" /><line
     style="fill:none;stroke:#000000"
     x1="25"
     y1="178.177"
     x2="31"
     y2="178.177"
     id="line587" /><line
     style="fill:none;stroke:#000000"
     x1="47.5"
     y1="216.677"
     x2="55"
     y2="216.677"
     id="line589" /><line
     style="fill:none;stroke:#000000"
     x1="83.5"
     y1="214.677"
     x2="95"
     y2="214.677"
     id="line591" /><line
     style="fill:none;stroke:#000000"
     x1="153.5"
     y1="33.676998"
     x2="198.5"
     y2="33.676998"
     id="line593" /><line
     style="fill:none;stroke:#000000"
     x1="127.833"
     y1="55.676998"
     x2="179.83299"
     y2="55.676998"
     id="line595" /><line
     style="fill:none;stroke:#000000"
     x1="107.166"
     y1="82.677002"
     x2="172.16701"
     y2="82.677002"
     id="line597" /><line
     style="fill:none;stroke:#000000"
     x1="104.499"
     y1="110.344"
     x2="169.5"
     y2="110.344"
     id="line599" /><line
     style="fill:none;stroke:#000000"
     x1="116.166"
     y1="178.677"
     x2="161.16701"
     y2="178.677"
     id="line601" /><line
     style="fill:none;stroke:#000000"
     x1="108.166"
     y1="209.00999"
     x2="161.5"
     y2="209.00999"
     id="line603" /><line
     style="fill:none;stroke:#000000"
     x1="73.166"
     y1="253.677"
     x2="159.83299"
     y2="253.677"
     id="line605" /><text
     style="font-size:18px;font-family:MyriadPro-Regular"
     transform="translate(200.8335,38.0132)"
     font-size="18"
     id="text607">Bottle</text>
<text
     style="font-size:18px;font-family:MyriadPro-Regular"
     transform="translate(197.5005,63.3472)"
     font-size="18"
     id="text609">Cold water</text>
<text
     style="font-size:18px;font-family:MyriadPro-Regular"
     transform="translate(177.5005,87.3472)"
     font-size="18"
     id="text611">Water droplets</text>
<text
     style="font-size:18px;font-family:MyriadPro-Regular"
     transform="translate(168.8335,116.6802)"
     font-size="18"
     id="text613">Water vapour</text>
<text
     style="font-size:18px;font-family:MyriadPro-Regular"
     transform="translate(167.5005,184.6787)"
     font-size="18"
     id="text615">Sufuria</text>
<text
     style="font-size:18px;font-family:MyriadPro-Regular"
     transform="translate(169.1675,214.6787)"
     font-size="18"
     id="text617">Water</text>
<text
     style="font-size:18px;font-family:MyriadPro-Regular"
     transform="translate(166.1675,258.6787)"
     font-size="18"
     id="text619">Heat</text>
<ellipse
     style="fill:none;stroke:#000000"
     sodipodi:ry="8.3330002"
     sodipodi:rx="4.3330002"
     sodipodi:cy="8.4060001"
     sodipodi:cx="174.19099"
     d="m 178.52399,8.4060001 c 0,4.6021889 -1.93995,8.3329999 -4.333,8.3329999 -2.39305,0 -4.333,-3.730811 -4.333,-8.3329999 0,-4.6021889 1.93995,-8.33300015 4.333,-8.33300015 2.39305,0 4.333,3.73081125 4.333,8.33300015 z"
     transform="matrix(0.9286,-0.371,0.371,0.9286,9.3107,65.2184)"
     cx="174.19099"
     cy="8.4060001"
     rx="4.3330002"
     ry="8.3330002"
     id="ellipse621" /></g></svg>