<?xml version="1.0" encoding="UTF-8" standalone="no"?>
<!-- Generator: Adobe Illustrator 16.0.0, SVG Export Plug-In . SVG Version: 6.00 Build 0)  -->

<svg
   xmlns:dc="http://purl.org/dc/elements/1.1/"
   xmlns:cc="http://creativecommons.org/ns#"
   xmlns:rdf="http://www.w3.org/1999/02/22-rdf-syntax-ns#"
   xmlns:svg="http://www.w3.org/2000/svg"
   xmlns="http://www.w3.org/2000/svg"
   xmlns:sodipodi="http://sodipodi.sourceforge.net/DTD/sodipodi-0.dtd"
   xmlns:inkscape="http://www.inkscape.org/namespaces/inkscape"
   version="1.0"
   id="Layer_1"
   x="0px"
   y="0px"
   viewBox="0 0 571.2524 263.71875"
   enable-background="new 0 0 437 54"
   xml:space="preserve"
   inkscape:version="0.48.4 r9939"
   width="100%"
   height="100%"
   sodipodi:docname="canvas.svg"><metadata
   id="metadata110"><rdf:RDF><cc:Work
       rdf:about=""><dc:format>image/svg+xml</dc:format><dc:type
         rdf:resource="http://purl.org/dc/dcmitype/StillImage" /><dc:title></dc:title></cc:Work></rdf:RDF></metadata><defs
   id="defs108" /><sodipodi:namedview
   pagecolor="#ffffff"
   bordercolor="#666666"
   borderopacity="1"
   objecttolerance="10"
   gridtolerance="10"
   guidetolerance="10"
   inkscape:pageopacity="0"
   inkscape:pageshadow="2"
   inkscape:window-width="640"
   inkscape:window-height="480"
   id="namedview106"
   showgrid="false"
   inkscape:zoom="0.65446224"
   inkscape:cx="357.44088"
   inkscape:cy="111.71712"
   inkscape:window-x="199"
   inkscape:window-y="0"
   inkscape:window-maximized="0"
   inkscape:current-layer="Layer_1"
   fit-margin-top="0"
   fit-margin-left="0"
   fit-margin-right="0"
   fit-margin-bottom="0"
   showborder="false"
   inkscape:showpageshadow="false" />

<g
   transform="translate(-23.764398,-265)"
   id="Layer_2"><path
     style="fill:none;stroke:#010101"
     inkscape:connector-curvature="0"
     d="m 154.841,466.826 8.565,-1.902 0.478,63.293 28.553,-0.951 V 428.28 c 0,0 11.421,-9.043 5.71,-13.325 -5.71,-4.284 -14.277,-0.951 -14.277,-0.951 0,0 0,7.612 -2.854,8.089 -2.856,0.477 -7.138,1.427 -7.138,1.427 0,0 -1.425,-0.473 -5.234,0.954 -3.81,1.427 -11.421,0.474 -11.421,0.474 l 2.854,9.044 -2.381,10.943 -4.757,9.995 1.902,11.896 z"
     id="path15" /><path
     style="fill:none;stroke:#010101"
     inkscape:connector-curvature="0"
     d="m 176.732,410.197 c 0,0 -25.694,-12.373 1.905,-57.583 0,0 14.75,31.405 2.379,49.491 l -4.76,-17.131 0.476,25.223 z"
     id="path17" /><path
     style="fill:none;stroke:#010101"
     inkscape:connector-curvature="0"
     d="m 226.224,378.787 c 0,0 68.528,16.656 84.71,-39.022 16.179,-55.678 100.413,-42.83 100.413,-42.83 0,0 -6.186,6.663 -2.856,12.849 3.331,6.186 0.475,1.902 0.475,1.902 0,0 -70.433,-9.516 -84.231,31.885 0,0 -12.849,65.67 -97.082,49.492 -0.001,0.001 2.854,-7.614 -1.429,-14.276 z"
     id="path19" /><path
     style="fill:none;stroke:#010101"
     inkscape:connector-curvature="0"
     d="m 226.224,378.312 c 0,0 -5.711,12.373 1.905,15.229"
     id="path21" /><path
     style="fill:none;stroke:#010101"
     inkscape:connector-curvature="0"
     d="m 411.347,296.935 c 0,0 6.187,3.807 0,17.608"
     id="path23" /><path
     style="fill:none;stroke:#010101"
     inkscape:connector-curvature="0"
     d="m 449.893,265.052 c 0,0 -3.33,30.933 36.169,37.119"
     id="path25" /><path
     style="fill:none;stroke:#010101"
     inkscape:connector-curvature="0"
     d="m 483.678,312.639 c 0,0 -29.026,-6.662 -32.357,27.603"
     id="path27" /><ellipse
     d="m 465.614,306.215 c 0,8.01641 -2.21843,14.515 -4.955,14.515 -2.73657,0 -4.955,-6.49859 -4.955,-14.515 0,-8.01642 2.21843,-14.515 4.955,-14.515 2.73657,0 4.955,6.49858 4.955,14.515 z"
     style="fill:#010101"
     sodipodi:ry="14.515"
     sodipodi:rx="4.9549999"
     sodipodi:cy="306.215"
     sodipodi:cx="460.659"
     cx="460.659"
     cy="306.215"
     rx="4.9549999"
     ry="14.515"
     id="ellipse29" /><g
     id="g31"><g
       id="g33"><path
         style="fill:none"
         inkscape:connector-curvature="0"
         d="m 455.604,291.701 c 6.187,0.951 22.841,7.615 23.793,14.752 0.953,10.946 -16.656,6.186 -21.89,11.896"
         id="path35" /><path
         style="fill:#010101"
         inkscape:connector-curvature="0"
         d="m 455.423,291.842 c 7.48,1.329 25.732,7.38 23.448,17.491 -1.666,7.379 -16.586,4.214 -21.59,8.984 -0.232,0.223 0.332,0.178 0.451,0.066 5.396,-5.144 21.112,-0.95 21.982,-10.928 0.785,-9.013 -17.427,-14.739 -23.934,-15.895 -0.157,-0.028 -0.668,0.227 -0.357,0.282 l 0,0 z"
         id="path37" /></g></g><line
     style="fill:none;stroke:#010101"
     x1="318.07001"
     y1="362.13101"
     x2="360.427"
     y2="360.22699"
     id="line39" /><text
     style="font-size:28.55319977px;fill:#010101;font-family:MyriadPro-Regular"
     transform="translate(376.1289,373.0771)"
     font-size="28.5532"
     id="text41">Copper</text>
<text
     style="font-size:28.55319977px;fill:#010101;font-family:MyriadPro-Regular"
     transform="translate(376.1289,407.3408)"
     font-size="28.5532"
     id="text43">pipe</text>
<text
     style="font-size:28.55319977px;fill:#010101;font-family:MyriadPro-Regular"
     transform="translate(546.9727,316.4473)"
     font-size="28.5532"
     id="text45">Eye</text>
<line
     style="fill:none;stroke:#010101"
     x1="490.81601"
     y1="305.97699"
     x2="537.93103"
     y2="305.026"
     id="line47" /><line
     style="fill:none;stroke:#010101"
     x1="116.294"
     y1="383.07001"
     x2="163.407"
     y2="382.11899"
     id="line49" /><text
     style="font-size:28.55319977px;fill:#010101;font-family:MyriadPro-Regular"
     transform="translate(23.4995,387.8286)"
     font-size="28.5532"
     id="text51">Candle</text>
<text
     style="font-size:28.55319977px;fill:#010101;font-family:MyriadPro-Regular"
     transform="translate(23.4995,422.0918)"
     font-size="28.5532"
     id="text53">flame</text>
</g></svg>