<?xml version="1.0" encoding="UTF-8" standalone="no"?>
<!-- Generator: Adobe Illustrator 16.0.0, SVG Export Plug-In . SVG Version: 6.00 Build 0)  -->

<svg
   xmlns:dc="http://purl.org/dc/elements/1.1/"
   xmlns:cc="http://creativecommons.org/ns#"
   xmlns:rdf="http://www.w3.org/1999/02/22-rdf-syntax-ns#"
   xmlns:svg="http://www.w3.org/2000/svg"
   xmlns="http://www.w3.org/2000/svg"
   xmlns:xlink="http://www.w3.org/1999/xlink"
   xmlns:sodipodi="http://sodipodi.sourceforge.net/DTD/sodipodi-0.dtd"
   xmlns:inkscape="http://www.inkscape.org/namespaces/inkscape"
   version="1.0"
   id="Layer_1"
   x="0px"
   y="0px"
   viewBox="0 0 590.2352 296.35323"
   enable-background="new 0 0 437 54"
   xml:space="preserve"
   inkscape:version="0.48.4 r9939"
   width="100%"
   height="100%"
   sodipodi:docname="canvas.svg"><metadata
   id="metadata110"><rdf:RDF><cc:Work
       rdf:about=""><dc:format>image/svg+xml</dc:format><dc:type
         rdf:resource="http://purl.org/dc/dcmitype/StillImage" /><dc:title></dc:title></cc:Work></rdf:RDF></metadata><defs
   id="defs108" /><sodipodi:namedview
   pagecolor="#ffffff"
   bordercolor="#666666"
   borderopacity="1"
   objecttolerance="10"
   gridtolerance="10"
   guidetolerance="10"
   inkscape:pageopacity="0"
   inkscape:pageshadow="2"
   inkscape:window-width="640"
   inkscape:window-height="480"
   id="namedview106"
   showgrid="false"
   inkscape:zoom="0.65446224"
   inkscape:cx="608.35186"
   inkscape:cy="40.682574"
   inkscape:window-x="0"
   inkscape:window-y="0"
   inkscape:window-maximized="0"
   inkscape:current-layer="Layer_1"
   fit-margin-top="0"
   fit-margin-left="0"
   fit-margin-right="0"
   fit-margin-bottom="0"
   showborder="false"
   inkscape:showpageshadow="false" />

<g
   transform="translate(-14.248407,-246.25)"
   id="g14"><g
     style="display:none"
     id="Layer_1_3_"
     display="none"><image
       id="image17"
       transform="matrix(1.4696,0,0,1.4696,10.5,245.355)"
       height="205"
       width="400"
       overflow="visible"
       display="inline"
       style="display:inline;overflow:visible"
       xlink:href="C:\Users\jmomanyi\Desktop\New SVGs\Science\SCIENCE 2010 IMAGES\448BF1AB.jpg" /><path
       style="fill:none;display:inline"
       inkscape:connector-curvature="0"
       display="inline"
       enable-background="new    "
       d=""
       id="path19" /></g><g
     id="Layer_2"><g
       id="g22"><path
         style="fill:#333333"
         inkscape:connector-curvature="0"
         d="m 206.341,333.54 c 7.716,0 17.637,-5.879 24.619,-9.186 5.879,-2.572 10.656,-4.777 15.8,-8.451 8.451,-5.879 18.372,-5.879 27.558,-9.921 9.554,-3.674 18.004,-9.921 27.19,-13.228 10.656,-4.042 20.945,-5.879 29.764,-12.86 5.145,-3.674 12.493,-5.511 16.534,1.837 15.8,-9.553 28.293,30.13 27.926,40.418 0,9.554 -12.126,14.698 -19.107,18.74 -4.409,2.939 -8.818,4.042 -13.227,6.246 -4.042,1.837 -6.981,6.247 -11.023,8.083 -16.535,8.451 -31.601,20.209 -46.666,31.232 -6.614,4.777 -13.595,8.819 -20.577,12.493 -6.981,4.041 -18.004,9.186 -23.148,15.064"
         id="path24" /><g
         id="g26"><path
           style="fill:none"
           inkscape:connector-curvature="0"
           d="m 206.341,333.54 c 7.716,0 17.637,-5.879 24.619,-9.186 5.879,-2.572 10.656,-4.777 15.8,-8.451 8.451,-5.879 18.372,-5.879 27.558,-9.921 9.554,-3.674 18.004,-9.921 27.19,-13.228 10.656,-4.042 20.945,-5.879 29.764,-12.86 5.145,-3.674 12.493,-5.511 16.534,1.837 15.8,-9.553 28.293,30.13 27.926,40.418 0,9.554 -12.126,14.698 -19.107,18.74 -4.409,2.939 -8.818,4.042 -13.227,6.246 -4.042,1.837 -6.981,6.247 -11.023,8.083 -16.535,8.451 -31.601,20.209 -46.666,31.232 -6.614,4.777 -13.595,8.819 -20.577,12.493 -6.981,4.041 -18.004,9.186 -23.148,15.064"
           id="path28" /><path
           style="fill:#010101"
           inkscape:connector-curvature="0"
           d="m 205.721,334.093 c 9.441,-0.563 17.729,-5.531 26.051,-9.569 4.83,-2.345 9.599,-4.409 14.156,-7.281 7.821,-4.931 15.723,-6.32 24.229,-9.229 13.441,-4.596 25.11,-12.826 38.624,-17.326 5.224,-1.738 10.403,-3.429 15.408,-5.73 7.179,-3.3 15.897,-12.356 22.195,-2.847 0.41,0.621 2.048,-0.108 2.504,-0.354 12.4,-6.664 21.311,21.219 23.435,28.773 1.511,5.375 3.028,11.434 0.841,16.806 -3.388,8.323 -18.536,14.562 -26.175,17.684 -2.933,1.199 -5.577,2.45 -8.122,4.318 -4.782,3.505 -9.385,6.725 -14.58,9.668 -10.176,5.765 -19.666,12.709 -29.083,19.619 -10.089,7.405 -20.097,14.404 -31.158,20.293 -8.084,4.306 -16.939,8.518 -23.348,15.209 -0.575,0.6 2.106,0.244 2.565,-0.236 8.036,-8.389 19.913,-13.109 29.917,-18.731 12.5,-7.025 23.608,-16.238 35.289,-24.494 10.104,-7.142 22.249,-12.078 31.442,-20.273 5.036,-4.487 12.069,-6.023 17.793,-9.477 3.594,-2.169 7.458,-3.886 10.871,-6.36 6.298,-4.566 9.301,-9.531 8.212,-17.317 -1.047,-7.498 -3.696,-14.902 -6.863,-21.739 -4.324,-9.343 -12.128,-19.747 -23.206,-13.796 0.836,-0.118 1.671,-0.237 2.504,-0.354 -3.844,-5.806 -10.105,-6.455 -16.044,-3.262 -7.078,3.803 -13.191,7.925 -20.933,10.541 -6.216,2.103 -12.401,4.061 -18.333,6.9 -7.543,3.611 -14.608,7.941 -22.394,11.082 -6.134,2.475 -12.907,3.036 -18.995,5.661 -6.378,2.75 -11.858,7.046 -18.155,10.023 -8.498,4.02 -17.882,10.122 -27.411,10.691 -0.719,0.045 -3.109,1.22 -1.236,1.107 l 0,0 z"
           id="path30" /></g></g><g
       id="g32"><path
         style="fill:#818181"
         inkscape:connector-curvature="0"
         d="m 198.625,336.112 c -16.902,7.716 -29.027,29.028 -22.046,46.665 7.348,18.738 13.595,33.804 35.642,36.376 7.716,0.734 18.739,5.145 25.353,-1.103 6.247,-5.879 6.614,-17.27 7.716,-24.986 3.307,-19.106 -3.674,-34.906 -16.167,-48.869 -4.042,-4.41 -29.395,-16.535 -31.967,-7.349"
         id="path34" /><g
         id="g36"><path
           style="fill:none"
           inkscape:connector-curvature="0"
           d="m 198.625,336.112 c -16.902,7.716 -29.027,29.028 -22.046,46.665 7.348,18.738 13.595,33.804 35.642,36.376 7.716,0.734 18.739,5.145 25.353,-1.103 6.247,-5.879 6.614,-17.27 7.716,-24.986 3.307,-19.106 -3.674,-34.906 -16.167,-48.869 -4.042,-4.41 -29.395,-16.535 -31.967,-7.349"
           id="path38" /><path
           style="fill:#010101"
           inkscape:connector-curvature="0"
           d="m 198.039,335.433 c -10.023,4.91 -18.673,13.479 -22.462,24.156 -4.843,13.65 -0.451,25.126 5.546,37.609 4.282,8.912 10.818,17.177 20.463,20.514 6.346,2.196 13.122,2.819 19.716,3.95 5.314,0.91 10.434,0.887 15.258,-1.67 9.553,-5.059 9.146,-20.416 10.518,-29.447 2.176,-14.337 -2.762,-28.154 -10.878,-39.789 -6.06,-8.686 -13.568,-13.045 -23.502,-16.418 -4.818,-1.636 -14.357,-3.954 -16.876,2.431 -0.55,1.392 2.287,1.132 2.67,0.16 2.69,-6.813 18.33,1.233 22.23,3.204 7.54,3.809 12.167,10.247 16.497,17.37 6.126,10.08 8.276,21.702 7.006,33.344 -1.226,11.24 -1.698,29.906 -17.337,29.563 -9.405,-0.21 -21.599,-2.504 -29.58,-7.442 -7.721,-4.776 -12.126,-13.541 -15.646,-21.547 -4.149,-9.438 -6.95,-17.947 -4.475,-28.309 2.735,-11.451 11.646,-21.231 22.028,-26.318 1.757,-0.864 0.155,-2.015 -1.176,-1.361 l 0,0 z"
           id="path40" /></g></g><g
       id="g42"><g
         id="g44"><path
           style="fill:none"
           inkscape:connector-curvature="0"
           d="m 215.895,383.145 c -11.758,-3.307 -3.674,-17.27 5.512,-12.125 9.554,5.512 8.083,17.637 0,22.414 -20.209,11.758 -34.172,-24.986 -13.962,-34.172 7.349,-3.307 21.311,2.205 24.986,8.819 3.307,6.247 4.409,20.209 2.572,26.456 -5.879,22.781 -38.581,10.655 -43.725,-6.981 -0.368,0 -0.368,-0.368 -0.368,-0.735 0.368,-0.367 0.735,-0.367 1.47,-0.735 -1.837,-9.186 -9.553,-20.943 -2.572,-29.027 7.349,-8.819 19.842,-10.289 29.027,-4.409"
           id="path46" /><path
           style="fill:#010101"
           inkscape:connector-curvature="0"
           d="m 216.456,382.79 c -4.436,-1.587 -7.101,-4.76 -4.706,-9.355 3.845,-7.378 10.719,-1.354 13.238,1.576 1.501,1.744 1.953,3.901 2.285,6.063 1.992,12.881 -14.83,17.642 -22.894,9.905 -4.708,-4.517 -6.457,-11.716 -5.957,-18.012 1.012,-12.771 13.474,-16.24 24.128,-11.932 9.558,3.865 11.615,12.12 12.465,21.473 0.833,9.153 -0.855,20.121 -10.81,23.42 -7.857,2.602 -17.043,-1.58 -23.234,-6.22 -1.751,-1.312 -11.947,-11.777 -8.31,-13.308 0.183,-0.076 0.481,-0.263 0.423,-0.505 -1.719,-7.315 -5.427,-14.132 -5.41,-21.788 0.034,-14.896 20.994,-16.649 30.594,-11.104 0.426,0.246 1.729,-0.361 1.124,-0.711 -8.309,-4.799 -19.683,-5.106 -27.183,1.669 -4.574,4.131 -6.395,8.15 -5.757,14.351 0.332,3.227 6.792,16.562 4.006,18.277 -0.156,0.096 -0.281,0.231 -0.264,0.421 0.826,9.078 12.576,16.323 20.141,18.99 8.218,2.899 17.614,1.609 22.89,-5.738 6.402,-8.918 4.684,-28.629 -3.184,-36.018 -7.483,-7.03 -20.093,-8.873 -27.952,-1.897 -14.458,12.831 1.27,41.128 19.756,31.319 10.35,-5.491 8.266,-21.169 -2.857,-24.071 -7.26,-1.895 -12.824,7.595 -6.832,12.472 0.895,0.729 2.116,1.058 3.17,1.435 0.46,0.161 1.742,-0.492 1.13,-0.712 l 0,0 z"
           id="path48" /></g></g><g
       id="g50"><path
         style="fill:#676767"
         inkscape:connector-curvature="0"
         d="m 295.813,351.544 c 1.286,6.43 -22.414,4.593 -25.721,5.144 0.368,0.184 0.551,0.551 0.551,0.735 -3.674,0.551 -7.533,0 -11.207,-0.735 -0.367,2.389 0.735,9.737 2.572,10.656 2.756,1.102 9.002,-1.103 11.942,-1.47 3.674,-0.368 7.533,-0.368 11.023,0 1.653,0.184 4.042,0.551 5.695,1.47 2.388,1.102 3.307,3.674 5.328,5.144 0,-0.184 -0.184,-0.184 -0.184,-0.184 2.021,4.409 3.307,8.818 4.96,13.412 2.205,5.878 5.696,6.797 10.473,2.755 3.674,-3.123 7.348,-4.777 12.125,-6.063 2.204,-0.552 5.145,-0.184 5.879,-2.756 0.367,-1.47 -0.734,-4.593 -1.103,-6.063 -0.734,-4.593 -1.47,-9.554 -0.551,-13.963 1.103,-4.593 3.675,-8.819 5.328,-13.228 1.837,-4.41 4.776,-8.268 6.613,-12.677 1.838,-4.226 2.021,-9.737 2.021,-14.331 0,-3.123 -0.367,-5.695 -0.919,-8.818 -1.652,0.551 -4.593,2.204 -6.43,3.123 -2.572,1.286 -2.389,2.572 -2.572,5.695 -0.184,4.593 -0.184,8.268 -2.572,12.31 -2.389,4.409 -6.063,9.37 -11.207,11.023 -2.021,0.551 -4.041,-0.368 -5.878,0.551 -2.021,1.103 -3.675,4.042 -5.513,5.512 -2.756,2.388 -6.063,2.939 -9.737,2.755"
         id="path52" /><g
         id="g54"><path
           style="fill:none"
           inkscape:connector-curvature="0"
           d="m 295.813,351.544 c 1.286,6.43 -22.414,4.593 -25.721,5.144 0.368,0.184 0.551,0.551 0.551,0.735 -3.674,0.551 -7.533,0 -11.207,-0.735 -0.367,2.389 0.735,9.737 2.572,10.656 2.756,1.102 9.002,-1.103 11.942,-1.47 3.674,-0.368 7.533,-0.368 11.023,0 1.653,0.184 4.042,0.551 5.695,1.47 2.388,1.102 3.307,3.674 5.328,5.144 0,-0.184 -0.184,-0.184 -0.184,-0.184 2.021,4.409 3.307,8.818 4.96,13.412 2.205,5.878 5.696,6.797 10.473,2.755 3.674,-3.123 7.348,-4.777 12.125,-6.063 2.204,-0.552 5.145,-0.184 5.879,-2.756 0.367,-1.47 -0.734,-4.593 -1.103,-6.063 -0.734,-4.593 -1.47,-9.554 -0.551,-13.963 1.103,-4.593 3.675,-8.819 5.328,-13.228 1.837,-4.41 4.776,-8.268 6.613,-12.677 1.838,-4.226 2.021,-9.737 2.021,-14.331 0,-3.123 -0.367,-5.695 -0.919,-8.818 -1.652,0.551 -4.593,2.204 -6.43,3.123 -2.572,1.286 -2.389,2.572 -2.572,5.695 -0.184,4.593 -0.184,8.268 -2.572,12.31 -2.389,4.409 -6.063,9.37 -11.207,11.023 -2.021,0.551 -4.041,-0.368 -5.878,0.551 -2.021,1.103 -3.675,4.042 -5.513,5.512 -2.756,2.388 -6.063,2.939 -9.737,2.755"
           id="path56" /><path
           style="fill:#010101"
           inkscape:connector-curvature="0"
           d="m 294.747,351.831 c 0.325,5.71 -20.719,3.749 -24.532,4.185 -0.424,0.048 -1.566,0.5 -1.106,1.115 0.184,0.245 0.368,0.489 0.551,0.735 0.368,-0.372 0.737,-0.744 1.105,-1.115 -3.834,0.354 -6.922,-0.003 -10.694,-0.702 -0.486,-0.091 -1.663,0.056 -1.707,0.751 -0.205,3.214 -0.175,11.596 4.624,11.511 3.732,-0.066 7.175,-1.113 10.838,-1.761 3.508,-0.62 7.226,-0.266 10.751,0.006 5.45,0.42 6.984,3.129 10.436,6.374 0.599,0.563 2.627,-0.217 1.964,-0.881 -0.062,-0.062 -0.122,-0.123 -0.184,-0.184 -0.458,-0.458 -2.405,-0.099 -2.048,0.726 1.843,4.256 4.358,20.729 11.833,18.957 4.816,-1.142 8.271,-5.176 12.784,-7.165 4.107,-1.811 8.403,-0.771 10.888,-4.661 1.277,-2.002 -1.433,-8.976 -1.716,-11.096 -1.195,-8.988 2.732,-16.406 6.391,-24.32 2.422,-5.237 5.688,-9.56 7.022,-15.264 1.407,-6.017 0.76,-12.725 -0.244,-18.751 -0.103,-0.606 -1.17,-0.376 -1.509,-0.238 -2.944,1.205 -6.729,2.55 -8.822,5.069 -1.874,2.26 -0.939,7.994 -1.266,10.744 -0.984,8.255 -8.077,15.481 -16.112,16.309 -7.481,0.77 -6.714,8.754 -16.871,8.69 -0.899,-0.006 -2.23,1.352 -0.788,1.361 4.981,0.031 8.739,-0.979 12.354,-4.526 4.537,-4.45 10.704,-3.38 15.214,-7.788 4.607,-4.502 7.816,-9.845 8.587,-16.294 0.507,-4.265 -0.99,-7.771 3.708,-10.194 1.64,-0.844 3.309,-2.958 3.751,-0.306 0.481,2.896 0.542,5.82 0.515,8.75 -0.16,17.283 -15.716,29.607 -14.056,47.328 0.232,2.484 3.503,11.386 -1.172,12.239 -3.093,0.564 -5.902,1.524 -8.788,2.796 -4.979,2.195 -11.022,9.186 -14.611,1.202 -1.946,-4.324 -3.069,-9.041 -4.96,-13.412 -0.682,0.242 -1.366,0.483 -2.048,0.726 0.062,0.062 0.123,0.122 0.184,0.184 0.655,-0.293 1.31,-0.586 1.965,-0.881 -2.591,-2.438 -3.93,-4.636 -7.317,-6.012 -2.947,-1.196 -6.656,-1.041 -9.736,-1.117 -3.175,-0.079 -6.236,0.285 -9.311,0.98 -8.673,1.957 -10.565,-2.113 -10.106,-9.32 -0.569,0.25 -1.137,0.5 -1.706,0.751 3.932,0.728 7.725,1.138 11.72,0.769 0.428,-0.04 1.563,-0.507 1.105,-1.115 -0.184,-0.245 -0.368,-0.489 -0.551,-0.735 -0.368,0.372 -0.737,0.744 -1.105,1.115 4.817,-0.549 27.393,2.43 26.908,-6.104 -0.048,-0.818 -2.184,-0.346 -2.132,0.569 l 0,0 z"
           id="path58" /></g></g><g
       id="g60"><path
         style="fill:#4e4e4e"
         inkscape:connector-curvature="0"
         d="m 303.896,390.493 c -3.858,0.735 -9.921,1.837 -12.861,4.96 -2.572,2.572 4.96,9.737 6.798,12.676 2.572,4.042 2.939,11.023 9.002,7.166 2.206,-1.47 4.227,-3.675 6.431,-4.961 2.205,-1.47 4.593,-2.94 6.981,-4.226 2.205,-1.47 2.205,-2.939 4.409,-0.185 1.286,1.47 1.47,2.757 2.756,4.594 0.919,1.286 2.021,2.388 3.124,3.49 1.837,1.654 2.204,2.021 4.225,1.103 2.939,-1.285 5.696,-4.776 8.636,-6.614 3.49,-2.388 7.715,-2.388 11.206,-4.409 -0.552,-1.837 -7.164,-9.002 -8.084,-8.451 0,-4.042 -7.164,-9.737 -10.104,-12.493 -1.838,-1.47 -3.859,-4.593 -5.879,-3.858 -1.654,0.551 -3.308,3.858 -4.777,4.96 -3.124,2.204 -7.166,3.307 -11.023,4.225 -2.939,0.735 -6.981,2.021 -9.921,1.653"
         id="path62" /><g
         id="g64"><path
           style="fill:none"
           inkscape:connector-curvature="0"
           d="m 303.896,390.493 c -3.858,0.735 -9.921,1.837 -12.861,4.96 -2.572,2.572 4.96,9.737 6.798,12.676 2.572,4.042 2.939,11.023 9.002,7.166 2.206,-1.47 4.227,-3.675 6.431,-4.961 2.205,-1.47 4.593,-2.94 6.981,-4.226 2.205,-1.47 2.205,-2.939 4.409,-0.185 1.286,1.47 1.47,2.757 2.756,4.594 0.919,1.286 2.021,2.388 3.124,3.49 1.837,1.654 2.204,2.021 4.225,1.103 2.939,-1.285 5.696,-4.776 8.636,-6.614 3.49,-2.388 7.715,-2.388 11.206,-4.409 -0.552,-1.837 -7.164,-9.002 -8.084,-8.451 0,-4.042 -7.164,-9.737 -10.104,-12.493 -1.838,-1.47 -3.859,-4.593 -5.879,-3.858 -1.654,0.551 -3.308,3.858 -4.777,4.96 -3.124,2.204 -7.166,3.307 -11.023,4.225 -2.939,0.735 -6.981,2.021 -9.921,1.653"
           id="path66" /><path
           style="fill:#010101"
           inkscape:connector-curvature="0"
           d="m 303.721,389.844 c -4.327,0.834 -17.763,3.022 -13.224,10.262 2.699,4.305 6.191,7.629 8.204,12.369 0.895,2.108 2.245,4.912 5.002,4.647 4.103,-0.395 7.057,-4.187 10.248,-6.37 1.866,-1.275 7.717,-6.436 9.723,-4.379 2.271,2.325 3.522,5.659 5.88,8.084 1.789,1.837 3.348,2.259 5.658,1.206 2.143,-0.979 3.856,-2.619 5.598,-4.155 4.371,-3.857 9.243,-4.552 14.244,-6.868 0.242,-0.112 0.783,-0.484 0.614,-0.836 -1.602,-3.332 -4.734,-6.733 -7.883,-8.688 -0.733,-0.456 -0.446,-1.54 -1.054,-2.513 -1.927,-3.081 -4.483,-5.507 -7.156,-7.937 -2.26,-2.052 -5.555,-7.011 -9.215,-6.031 -1.915,0.513 -3.244,2.776 -4.344,4.191 -3.218,4.135 -15.657,6.703 -20.816,6.594 -0.936,-0.019 -2.217,1.38 -0.773,1.411 7.357,0.156 15.756,-2.37 22.017,-6.167 0.935,-0.566 1.878,-2.034 2.509,-2.847 2.416,-3.104 7.12,2.362 8.661,3.744 3.103,2.78 7.14,6.033 7.84,10.361 0.048,0.295 0.442,0.391 0.677,0.42 2.22,0.271 5.229,4.871 6.525,6.558 0.25,0.321 -10.627,5.673 -11.695,6.449 -1.702,1.241 -3.557,3.092 -5.144,4.34 -4.303,3.377 -7.886,-4.916 -9.18,-6.776 -1.026,-1.471 -2.018,-3.379 -4.071,-3.184 -2.546,0.244 -5.479,3.355 -7.73,4.725 -1.933,1.171 -3.729,2.446 -5.474,3.873 -4.279,3.5 -7.187,2.744 -9.123,-1.814 -1.183,-2.787 -3.034,-4.96 -4.929,-7.288 -1.309,-1.608 -2.464,-3.232 -3.381,-5.104 -2.173,-4.443 9.495,-6.464 12.141,-6.976 1.334,-0.258 0.955,-1.552 -0.349,-1.301 l 0,0 z"
           id="path68" /></g></g><g
       id="g70"><g
         id="g72"><path
           style="fill:none"
           inkscape:connector-curvature="0"
           d="m 289.934,398.025 c -3.491,0.552 -13.962,4.594 -14.697,8.084 -0.551,2.572 2.205,5.512 2.939,7.532 0.918,2.204 1.286,4.961 0.735,7.349 2.021,0.735 6.981,1.287 9.002,0.735 3.307,-0.918 2.572,-7.899 -1.103,-7.717 2.94,0.552 6.43,1.287 9.186,-0.367 -0.184,-0.184 -0.367,-0.918 -0.551,-1.103 6.063,-3.307 -2.939,-12.309 -4.96,-15.799"
           id="path74" /><path
           style="fill:#010101"
           inkscape:connector-curvature="0"
           d="m 289.738,397.298 c -4.637,0.899 -10.931,3.03 -14.186,6.621 -1.373,1.515 -1.624,2.75 -1.167,4.739 0.281,1.224 1.196,2.48 1.814,3.525 1.652,2.784 2.12,5.686 1.632,8.891 -0.046,0.294 0.195,0.554 0.463,0.634 3.465,1.039 8.912,2.227 11.83,-0.571 2.712,-2.602 0.339,-7.532 -2.945,-7.899 -1.03,-0.115 -2.181,1.277 -0.737,1.544 3.605,0.666 6.631,1.004 10.025,-0.513 0.454,-0.203 0.736,-0.629 0.504,-1.094 -0.403,-0.81 0.783,-1.498 1.278,-2.349 0.781,-1.346 0.181,-3.248 -0.283,-4.556 -1.334,-3.759 -4.424,-6.675 -6.505,-10 -0.51,-0.814 -2.542,-0.006 -1.95,0.936 2.057,3.288 10.411,11.364 5.23,14.848 -0.345,0.231 -0.449,0.593 -0.27,0.953 0.184,0.367 0.368,0.734 0.551,1.102 0.168,-0.364 0.337,-0.729 0.505,-1.094 -2.958,1.318 -5.506,0.747 -8.347,0.222 -0.245,0.515 -0.491,1.027 -0.738,1.544 2.719,0.305 2.736,3.471 2.193,5.204 -0.687,2.184 -5.821,0.984 -7.38,0.735 -1.218,-0.198 -1.84,-7.267 -2.526,-8.466 -1.084,-1.896 -3.11,-4.288 -2.245,-6.645 0.628,-1.718 3.546,-2.989 4.989,-3.75 2.694,-1.415 5.667,-2.528 8.658,-3.107 1.346,-0.258 0.927,-1.708 -0.393,-1.454 l 0,0 z"
           id="path76" /></g></g><g
       id="g78"><g
         id="g80"><path
           style="fill:none"
           inkscape:connector-curvature="0"
           d="m 335.681,414.744 c 3.49,3.674 7.165,6.431 9.921,10.288 0.735,1.103 0.184,1.103 1.286,2.021 0.734,0.551 2.388,0.735 3.49,1.103 2.389,1.103 2.756,2.204 4.776,0.367 2.939,-2.389 2.389,-7.9 1.47,-11.023 -1.47,-4.594 -5.327,-7.9 -7.899,-11.942"
           id="path82" /><path
           style="fill:#010101"
           inkscape:connector-curvature="0"
           d="m 334.693,415.172 c 2.247,2.296 4.63,4.449 6.898,6.723 1.452,1.453 2.638,4.869 4.451,5.693 1.981,0.903 6.45,3.751 8.735,2.058 9.39,-6.954 -0.715,-18.073 -5.069,-24.513 -0.428,-0.633 -2.488,0.09 -1.972,0.854 4.173,6.173 11.237,12.692 7.694,20.915 -1.198,2.784 -4,0.759 -5.644,0.324 -2.396,-0.637 -2.896,-2.21 -4.155,-3.866 -2.558,-3.356 -6.028,-6.036 -8.971,-9.04 -0.547,-0.565 -2.57,0.238 -1.967,0.852 l 0,0 z"
           id="path84" /></g></g><g
       id="g86"><path
         style="fill:#010101"
         inkscape:connector-curvature="0"
         d="m 342.662,426.502 c -0.184,4.227 1.286,7.9 -0.734,12.126 -0.92,2.021 -2.572,3.307 -3.675,5.144 -1.103,1.838 -1.286,4.042 -3.307,5.512 -0.185,-0.184 -0.735,-0.551 -0.92,-0.734 -0.55,3.857 3.308,9.186 5.88,11.758 4.226,4.042 8.634,2.939 13.228,0 5.512,-3.123 -1.103,-8.635 -4.776,-9.921 -3.857,-1.47 -7.899,-1.286 -11.574,-2.939"
         id="path88" /><g
         id="g90"><path
           style="fill:none"
           inkscape:connector-curvature="0"
           d="m 342.662,426.502 c -0.184,4.227 1.286,7.9 -0.734,12.126 -0.92,2.021 -2.572,3.307 -3.675,5.144 -1.103,1.838 -1.286,4.042 -3.307,5.512 -0.185,-0.184 -0.735,-0.551 -0.92,-0.734 -0.55,3.857 3.308,9.186 5.88,11.758 4.226,4.042 8.634,2.939 13.228,0 5.512,-3.123 -1.103,-8.635 -4.776,-9.921 -3.857,-1.47 -7.899,-1.286 -11.574,-2.939"
           id="path92" /><path
           style="fill:#010101"
           inkscape:connector-curvature="0"
           d="m 341.229,426.636 c 0.044,4.065 0.776,7.909 -0.647,11.879 -0.154,0.432 -2.977,4.187 -3.675,5.144 -1.352,1.858 -1.341,3.469 -3.132,5.275 0.76,-0.141 1.519,-0.28 2.276,-0.419 -0.305,-0.248 -0.611,-0.492 -0.918,-0.735 -0.615,-0.493 -2.531,-0.033 -2.538,0.902 -0.073,9.845 10.239,18.711 19.5,13.327 3.57,-2.075 5.781,-3.955 3.4,-7.951 -3.469,-5.828 -12.412,-5.552 -17.875,-7.501 -1.093,-0.391 -3.337,1.187 -1.678,1.776 5.993,2.136 12.448,1.759 16.938,6.924 0.587,5.911 -2.763,7.813 -10.048,5.706 -1.429,-1.025 -2.662,-2.238 -3.705,-3.636 -2.099,-2.545 -3.696,-5.552 -3.674,-8.912 -0.845,0.302 -1.69,0.602 -2.538,0.903 0.308,0.246 0.611,0.49 0.919,0.734 0.619,0.498 1.793,0.066 2.276,-0.419 2.392,-2.406 4.3,-6.225 6.04,-9.068 2.913,-4.764 1.995,-8.851 1.937,-14.196 -0.01,-1.391 -2.869,-0.877 -2.858,0.267 l 0,0 z"
           id="path94" /></g></g><g
       id="g96"><g
         id="g98"><path
           style="fill:none"
           inkscape:connector-curvature="0"
           d="m 353.685,428.891 c -2.021,6.614 -7.348,12.677 -7.348,19.842"
           id="path100" /><path
           style="fill:#010101"
           inkscape:connector-curvature="0"
           d="m 352.275,429.108 c -2.283,6.813 -7.044,12.607 -7.36,20.004 -0.026,0.622 2.8,0.2 2.839,-0.761 0.311,-7.24 5.105,-13.011 7.341,-19.679 0.249,-0.753 -2.545,-0.381 -2.82,0.436 l 0,0 z"
           id="path102" /></g></g><g
       id="g104"><g
         id="g106"><path
           style="fill:none"
           inkscape:connector-curvature="0"
           d="m 279.462,421.909 c 0.918,1.47 3.49,6.798 1.47,8.084 -2.572,1.47 -6.981,-4.961 -9.37,-5.512 -2.94,-0.552 -6.247,2.939 -5.512,5.695 0.735,3.307 5.144,6.43 6.981,9.002 -0.735,-0.368 -1.103,-0.551 -1.654,-1.103 4.226,2.389 7.716,6.063 12.493,7.716 4.776,1.654 6.063,-3.674 5.695,-7.899 -0.367,-3.857 -0.735,-7.532 -0.551,-11.573 0.184,-4.962 -4.226,-5.329 -8.634,-4.777"
           id="path108" /><path
           style="fill:#010101"
           inkscape:connector-curvature="0"
           d="m 278.145,422.467 c 0.904,1.556 1.546,3.189 1.989,4.929 0.991,3.906 -2.801,-0.096 -3.82,-1.012 -1.707,-1.528 -3.547,-3.325 -6.054,-2.646 -2.903,0.786 -5.063,2.51 -5.725,5.555 -0.829,3.824 5.196,7.954 7.179,10.441 0.815,-0.415 1.631,-0.831 2.447,-1.247 -0.488,-0.324 -0.976,-0.646 -1.465,-0.97 -0.816,0.415 -1.631,0.832 -2.447,1.248 5.085,3.065 17.273,14.336 20.485,3.242 0.711,-2.458 0.171,-5.301 -0.052,-7.772 -0.31,-3.471 0.297,-7.205 -0.576,-10.569 -0.966,-3.724 -6.793,-3.2 -9.534,-2.917 -1.389,0.147 -2.353,1.789 -0.385,1.585 4.919,-0.514 7.501,0.729 7.36,5.871 -0.091,3.357 0.282,6.731 0.598,10.068 0.135,1.422 -0.003,2.708 -0.251,4.089 -0.68,3.767 -4.917,1.938 -6.9,0.797 -2.96,-1.705 -5.556,-4.007 -8.486,-5.773 -0.659,-0.397 -3.27,0.574 -2.447,1.247 0.784,0.645 0.94,0.752 1.841,1.237 0.613,0.33 3.203,-0.298 2.447,-1.248 -1.342,-1.685 -2.901,-3.165 -4.373,-4.737 -0.845,-0.898 -1.556,-1.896 -2.136,-2.994 -0.862,-1.569 0.117,-6.673 3.177,-5.494 2.957,1.138 4.448,4.853 7.743,5.541 6.474,1.35 3.671,-6.743 2.019,-9.585 -0.47,-0.81 -3.236,0.081 -2.634,1.114 l 0,0 z"
           id="path110" /></g></g><g
       id="g112"><path
         style="fill:#ffffff"
         inkscape:connector-curvature="0"
         d="m 291.036,321.415 c 3.675,-4.409 8.084,-5.695 13.779,-4.042 5.329,1.47 8.819,3.858 9.921,9.186 1.103,5.328 -1.103,8.084 -3.122,12.677 -1.838,4.042 -4.778,9.001 -9.188,10.656 -2.205,0.735 -5.512,1.469 -7.349,0 -2.205,-1.654 -1.837,-4.593 -4.226,-6.247 2.939,-2.572 -3.858,-2.389 -4.593,-3.307 -1.286,-2.388 3.124,-4.777 3.307,-6.981 0.368,-3.123 -3.123,-4.593 -3.123,-7.716 0,-2.388 2.388,-4.777 4.409,-5.879"
         id="path114" /><g
         id="g116"><path
           style="fill:none"
           inkscape:connector-curvature="0"
           d="m 291.036,321.415 c 3.675,-4.409 8.084,-5.695 13.779,-4.042 5.329,1.47 8.819,3.858 9.921,9.186 1.103,5.328 -1.103,8.084 -3.122,12.677 -1.838,4.042 -4.778,9.001 -9.188,10.656 -2.205,0.735 -5.512,1.469 -7.349,0 -2.205,-1.654 -1.837,-4.593 -4.226,-6.247 2.939,-2.572 -3.858,-2.389 -4.593,-3.307 -1.286,-2.388 3.124,-4.777 3.307,-6.981 0.368,-3.123 -3.123,-4.593 -3.123,-7.716 0,-2.388 2.388,-4.777 4.409,-5.879"
           id="path118" /><path
           style="fill:#010101"
           inkscape:connector-curvature="0"
           d="m 292.316,321.292 c 9.124,-9.864 23.129,0.067 20.891,11.308 -1.315,6.605 -13.439,26.175 -19.051,13.103 -1.611,-3.75 -1.196,-4.49 -5.512,-5.404 -3.183,-0.674 2.417,-6.272 2.34,-7.321 -0.416,-5.773 -6.887,-7.874 0.946,-13.198 1.153,-0.784 -1.686,-0.354 -2.161,-0.031 -2.467,1.677 -4.037,3.138 -4.726,6.156 -0.783,3.432 4.125,4.903 2.725,8.833 -0.3,0.843 -4.836,4.879 -2.851,6.08 1.234,0.747 6.492,0.771 4.536,3.092 -0.048,0.09 -0.03,0.16 0.057,0.214 2.907,2.858 2.586,6.504 7.14,7.151 1.974,0.281 4.415,-0.44 6.257,-1.092 7.158,-2.53 10.841,-11.53 13.095,-18.099 3.003,-8.752 -4.663,-13.96 -11.868,-15.679 -5.459,-1.303 -10.755,1.223 -14.379,5.141 -0.555,0.595 2.117,0.225 2.561,-0.254 l 0,0 z"
           id="path120" /></g></g><g
       id="g122"><path
         style="fill:#010101"
         inkscape:connector-curvature="0"
         d="m 289.934,317.924 c -2.389,1.286 -3.491,3.491 -0.735,4.777 2.021,1.286 4.777,-0.184 6.797,-0.184 3.491,0.184 2.021,1.653 2.94,4.226 0.735,2.388 2.939,2.756 4.96,4.593 0.735,0.551 1.47,2.389 2.205,2.939 0.918,0.735 1.654,0.184 2.573,0.735 2.572,1.47 2.756,4.042 4.41,0.368 2.388,-4.96 3.122,-9.186 -0.552,-13.595 -2.756,-3.491 -6.799,-6.063 -11.208,-6.614 -3.674,-0.367 -8.635,-1.102 -11.023,2.204"
         id="path124" /><g
         id="g126"><path
           style="fill:none"
           inkscape:connector-curvature="0"
           d="m 289.934,317.924 c -2.389,1.286 -3.491,3.491 -0.735,4.777 2.021,1.286 4.777,-0.184 6.797,-0.184 3.491,0.184 2.021,1.653 2.94,4.226 0.735,2.388 2.939,2.756 4.96,4.593 0.735,0.551 1.47,2.389 2.205,2.939 0.918,0.735 1.654,0.184 2.573,0.735 2.572,1.47 2.756,4.042 4.41,0.368 2.388,-4.96 3.122,-9.186 -0.552,-13.595 -2.756,-3.491 -6.799,-6.063 -11.208,-6.614 -3.674,-0.367 -8.635,-1.102 -11.023,2.204"
           id="path128" /><path
           style="fill:#010101"
           inkscape:connector-curvature="0"
           d="m 288.847,317.886 c -1.925,1.273 -4.341,4.067 -0.815,5.364 1.793,0.661 3.166,0.534 5.016,0.225 5.197,-0.872 3.467,1.486 4.95,4.69 0.735,1.589 3.252,2.611 4.561,3.654 1.33,1.061 1.382,2.98 3.247,3.399 2.415,0.544 3.771,3.285 6.325,2.365 2.914,-1.051 3.731,-5.464 4.249,-8.115 1.005,-5.148 -3.055,-9.433 -6.866,-12.183 -5.144,-3.709 -15.833,-4.974 -20.496,0.196 -0.586,0.65 2.116,0.285 2.569,-0.217 3.195,-3.539 10.528,-1.473 13.981,0.223 3.492,1.713 6.386,5.029 7.735,8.618 1.179,3.139 -0.334,6.684 -1.619,9.523 -0.967,2.133 0.646,0.857 -0.13,0.092 -0.813,-0.796 -1.529,-1.202 -2.583,-1.531 -2.003,-0.626 -2.423,-1.873 -3.736,-3.336 -2.183,-2.434 -4.803,-2.585 -5.253,-6.422 -0.222,-1.896 -0.962,-2.223 -2.817,-2.463 -0.616,-0.079 -1.225,0.055 -1.84,0.122 -2.738,0.303 -9.962,-0.383 -4.304,-4.127 1.18,-0.779 -1.672,-0.409 -2.174,-0.077 l 0,0 z"
           id="path130" /></g></g><g
       id="g132"><g
         id="g134"><path
           style="fill:none"
           inkscape:connector-curvature="0"
           d="m 290.668,330.784 c 1.102,-0.184 2.205,0 3.123,0.551"
           id="path136" /><path
           style="fill:#010101"
           inkscape:connector-curvature="0"
           d="m 290.503,331.678 c 0.794,-0.112 1.47,0.008 2.173,0.401 0.605,0.338 1.478,0.137 2.021,-0.226 0.427,-0.283 0.813,-0.92 0.209,-1.259 -1.25,-0.701 -2.662,-0.9 -4.072,-0.701 -0.57,0.081 -1.469,0.367 -1.592,1.04 -0.123,0.661 0.809,0.808 1.261,0.745 l 0,0 z"
           id="path138" /></g></g><g
       id="g140"><g
         id="g142"><path
           style="fill:none"
           inkscape:connector-curvature="0"
           d="m 293.24,345.666 c 1.47,-0.735 2.756,-0.735 4.41,-0.735"
           id="path144" /><path
           style="fill:#010101"
           inkscape:connector-curvature="0"
           d="m 293.827,346.342 c 1.061,-0.501 2.137,-0.521 3.294,-0.523 0.659,0 1.497,-0.194 1.865,-0.81 0.343,-0.571 -0.289,-0.965 -0.804,-0.965 -1.924,0.001 -3.756,0.111 -5.524,0.946 -0.397,0.188 -1.175,0.738 -0.727,1.257 0.426,0.496 1.384,0.337 1.896,0.095 l 0,0 z"
           id="path146" /></g></g><g
       id="g148"><g
         id="g150"><path
           style="fill:none"
           inkscape:connector-curvature="0"
           d="m 291.771,333.356 c 0,1.103 0.551,1.653 1.654,2.021 0,-0.368 0,-0.735 0.184,-1.103"
           id="path152" /><path
           style="fill:#010101"
           inkscape:connector-curvature="0"
           d="m 290.351,333.737 c 0.04,1.225 0.83,1.86 1.922,2.247 0.625,0.222 2.565,-0.104 2.571,-0.986 0.001,-0.343 0.043,-0.625 0.172,-0.942 0.22,-0.544 -0.963,-0.445 -1.172,-0.413 -0.509,0.082 -1.42,0.305 -1.644,0.853 -0.17,0.415 -0.193,0.821 -0.195,1.263 0.856,-0.329 1.713,-0.657 2.57,-0.986 -0.899,-0.32 -1.354,-0.821 -1.385,-1.795 -0.021,-0.664 -2.868,-0.165 -2.839,0.759 l 0,0 z"
           id="path154" /></g></g><g
       id="g156"><path
         style="fill:#ffffff"
         inkscape:connector-curvature="0"
         d="m 334.026,313.331 c -1.47,-2.021 -2.571,-4.226 -4.225,-6.246 -2.389,-3.307 -2.205,-5.145 1.837,-3.307 1.103,-2.389 0.918,-6.247 2.572,-8.451 2.756,-3.307 3.308,2.756 3.308,5.328 1.102,-0.735 3.674,-4.409 4.96,-3.858 1.653,0.735 0.551,4.409 -0.184,5.328 1.285,-0.367 3.123,-2.939 4.593,-2.021 1.837,1.47 -0.735,3.491 -1.653,4.226 -2.572,2.572 -4.961,5.512 -8.084,7.532 0,-0.367 0,-0.551 0.184,-0.918 -0.551,0 -0.735,0.368 -1.103,0.551"
         id="path158" /><g
         id="g160"><path
           style="fill:none"
           inkscape:connector-curvature="0"
           d="m 334.026,313.331 c -1.47,-2.021 -2.571,-4.226 -4.225,-6.246 -2.389,-3.307 -2.205,-5.145 1.837,-3.307 1.103,-2.389 0.918,-6.247 2.572,-8.451 2.756,-3.307 3.308,2.756 3.308,5.328 1.102,-0.735 3.674,-4.409 4.96,-3.858 1.653,0.735 0.551,4.409 -0.184,5.328 1.285,-0.367 3.123,-2.939 4.593,-2.021 1.837,1.47 -0.735,3.491 -1.653,4.226 -2.572,2.572 -4.961,5.512 -8.084,7.532 0,-0.367 0,-0.551 0.184,-0.918 -0.551,0 -0.735,0.368 -1.103,0.551"
           id="path162" /><path
           style="fill:#010101"
           inkscape:connector-curvature="0"
           d="m 334.736,313.142 c -1.436,-2.071 -2.692,-4.247 -4.226,-6.247 -1.109,-1.446 -2.938,-4.264 0.459,-2.876 0.304,0.124 1.229,-0.006 1.37,-0.367 0.952,-2.493 1.037,-5.193 2.083,-7.659 1.197,-2.822 2.024,0.985 2.099,1.347 0.237,1.143 0.271,2.341 0.285,3.505 0.007,0.34 1.231,-0.147 1.354,-0.246 1.083,-0.878 1.967,-1.988 2.975,-2.949 1.524,-1.451 1.481,1.205 1.479,1.559 -0.006,1.033 -0.469,2.175 -1.019,3.042 -0.176,0.276 1.021,0.004 1.107,-0.035 0.556,-0.264 0.953,-0.484 1.449,-0.867 2.651,0.121 3.148,0.832 1.491,2.135 -0.336,0.318 -0.686,0.617 -1.05,0.903 -2.853,2.321 -4.914,5.322 -7.985,7.459 0.417,-0.058 0.835,-0.115 1.254,-0.173 0.057,-0.285 0.114,-0.57 0.173,-0.854 0.109,-0.318 -0.854,-0.063 -0.944,-0.031 -0.648,0.216 -0.855,0.3 -1.4,0.691 -0.581,0.413 0.841,0.211 1.085,0.035 0.267,-0.137 0.535,-0.274 0.804,-0.412 -0.316,-0.01 -0.63,-0.021 -0.946,-0.031 -0.193,0.557 -0.161,0.406 -0.193,0.982 -0.015,0.297 1.148,-0.099 1.253,-0.171 2.422,-1.685 4.458,-3.717 6.485,-5.852 0.818,-0.859 4.278,-3.238 4.058,-4.764 -0.566,-3.863 -4.953,0.107 -6.348,0.769 0.368,-0.011 0.738,-0.023 1.107,-0.035 0.788,-1.241 2.186,-5.772 -0.631,-5.53 -2.391,0.206 -3.81,2.879 -5.487,4.242 0.452,-0.083 0.9,-0.164 1.353,-0.246 -0.03,-1.94 0.165,-6.835 -2.835,-6.277 -3.707,0.689 -3.434,7.05 -4.455,9.716 0.456,-0.122 0.913,-0.245 1.369,-0.368 -1.374,-0.561 -3.256,-1.322 -4.552,-0.137 -1.548,1.415 4.711,8.893 5.561,10.123 0.24,0.346 1.528,-0.224 1.418,-0.381 l 0,0 z"
           id="path164" /></g></g><g
       id="g166"><path
         style="fill:#ffffff"
         inkscape:connector-curvature="0"
         d="m 259.987,357.791 c -1.837,-2.572 -3.307,-4.042 -2.939,-7.349 0.184,-2.021 1.837,-4.593 0.367,-6.246 -1.837,1.286 -0.367,2.939 -2.205,4.226 -1.286,0.735 -4.409,0.735 -5.879,0.55 -1.286,0 -5.695,-1.653 -5.879,0.368 0,1.47 4.593,2.756 5.511,3.307 -1.836,2.572 -6.797,4.96 -0.551,5.144 -0.367,0.735 -0.551,1.837 -0.918,2.388 0.734,0.184 0.734,0.735 1.654,0.551 -0.368,3.124 1.285,1.103 2.939,0.919 1.837,-0.368 3.858,0 5.512,1.102 -0.735,-0.184 -1.286,-0.551 -1.654,-0.918 0.184,0 0.551,0 0.735,0 -1.653,-1.837 -0.551,-4.042 1.837,-3.674"
         id="path168" /><g
         id="g170"><path
           style="fill:none"
           inkscape:connector-curvature="0"
           d="m 259.987,357.791 c -1.837,-2.572 -3.307,-4.042 -2.939,-7.349 0.184,-2.021 1.837,-4.593 0.367,-6.246 -1.837,1.286 -0.367,2.939 -2.205,4.226 -1.286,0.735 -4.409,0.735 -5.879,0.55 -1.286,0 -5.695,-1.653 -5.879,0.368 0,1.47 4.593,2.756 5.511,3.307 -1.836,2.572 -6.797,4.96 -0.551,5.144 -0.367,0.735 -0.551,1.837 -0.918,2.388 0.734,0.184 0.734,0.735 1.654,0.551 -0.368,3.124 1.285,1.103 2.939,0.919 1.837,-0.368 3.858,0 5.512,1.102 -0.735,-0.184 -1.286,-0.551 -1.654,-0.918 0.184,0 0.551,0 0.735,0 -1.653,-1.837 -0.551,-4.042 1.837,-3.674"
           id="path172" /><path
           style="fill:#010101"
           inkscape:connector-curvature="0"
           d="m 260.315,357.643 c -1.908,-2.62 -3.347,-4.711 -2.754,-8.129 0.356,-2.055 1.326,-3.539 0.183,-5.466 -0.116,-0.193 -0.508,-0.056 -0.62,0.063 0.203,-0.214 -0.717,0.604 -0.825,0.929 -0.837,2.563 -2.347,3.773 -5.255,3.798 -1.927,0.016 -3.775,-0.581 -5.684,-0.735 -1.457,-0.12 -2.937,0.836 -1.749,2.241 0.807,0.954 2.417,1.386 3.548,1.841 2.303,0.93 -0.858,2.725 -1.793,3.842 -0.246,0.293 -0.601,0.981 -0.173,1.303 1.537,1.153 3.186,0.146 1.966,2.82 -0.035,0.078 -0.031,0.175 0.059,0.217 1.247,0.6 1.065,1.71 1.986,2.264 0.179,0.108 0.544,0.072 0.714,0.012 2.151,-0.758 4.369,-0.578 6.635,-0.578 0.161,0 0.627,-0.132 0.457,-0.384 0.46,-1.096 0.92,-2.194 1.38,-3.291 0.309,0.003 0.739,-0.464 0.258,-0.468 -1.164,-0.01 -1.79,0.116 -2.667,0.862 -0.419,0.358 -0.721,2.812 0.095,2.812 -0.176,0 -0.704,0.197 -0.406,0.425 0.933,0.716 0.539,0.469 1.72,0.948 0.21,0.085 0.808,-0.231 0.488,-0.41 -1.483,-0.824 -2.844,-1.212 -4.539,-1.279 -0.786,-0.031 -3.924,1.272 -3.831,-0.586 0.006,-0.128 -0.11,-0.196 -0.229,-0.201 -1.853,-0.056 -0.921,-1.665 -0.527,-2.679 0.061,-0.154 -0.053,-0.25 -0.208,-0.26 -4.566,-0.282 -0.425,-3.396 0.714,-4.825 0.067,-0.084 0.111,-0.214 -0.015,-0.276 -1.005,-0.497 -2.072,-0.864 -3.099,-1.31 -0.246,-0.12 -0.49,-0.239 -0.735,-0.358 -1.176,-0.39 -1.028,-1.108 0.443,-2.157 0.924,0.075 1.88,0.348 2.8,0.516 1.762,0.318 4.36,0.433 6.058,-0.272 0.724,-0.301 1.158,-0.444 1.598,-1.238 0.303,-0.545 0.344,-1.206 0.428,-1.805 0.285,0.305 0.57,0.609 0.857,0.914 -0.126,0.642 -0.288,1.274 -0.488,1.897 -1.106,3.848 0.342,6.25 2.56,9.296 0.166,0.237 0.847,-0.021 0.65,-0.293 l 0,0 z"
           id="path174" /></g></g><g
       id="g176"><g
         id="g178"><path
           style="fill:none"
           inkscape:connector-curvature="0"
           d="m 280.197,429.259 c 0.367,0.183 0.735,0.367 1.102,0.367 -0.367,-0.367 -0.551,-0.367 -1.47,-0.735 1.286,1.47 2.94,4.042 4.593,5.145 1.653,1.103 3.491,1.103 5.144,2.205"
           id="path180" /><path
           style="fill:#010101"
           inkscape:connector-curvature="0"
           d="m 279.378,430.22 c 0.517,0.235 0.877,0.327 1.432,0.443 0.945,0.197 2.667,-0.931 1.584,-1.858 -0.51,-0.437 -1.125,-0.635 -1.745,-0.872 -0.752,-0.291 -3.02,0.521 -2.118,1.585 1.312,1.552 2.428,3.339 3.974,4.679 1.767,1.529 4.015,1.71 5.97,2.864 1.077,0.64 3.567,-0.827 2.188,-1.643 -1.769,-1.044 -3.901,-1.285 -5.558,-2.509 -1.605,-1.186 -2.699,-3.138 -3.975,-4.645 -0.706,0.527 -1.413,1.058 -2.118,1.587 0.45,0.173 0.83,0.285 1.195,0.595 0.528,-0.617 1.057,-1.237 1.584,-1.857 -0.257,-0.095 -0.516,-0.194 -0.773,-0.289 -1.192,-0.547 -3.288,1.165 -1.64,1.92 l 0,0 z"
           id="path182" /></g></g><g
       id="g184"><path
         style="fill:#010101"
         inkscape:connector-curvature="0"
         d="m 273.032,426.319 c 3.123,1.837 5.879,4.409 9.186,6.062 2.204,1.103 4.409,1.838 6.062,3.859 3.307,3.857 0.919,9.552 -4.409,9.185 -2.572,-0.183 -4.593,-2.572 -6.614,-3.675 -2.021,-1.102 -4.41,-1.47 -6.247,-2.571 -3.858,-2.572 -7.716,-9.186 -2.205,-12.31 1.653,-0.918 3.123,-0.918 4.593,0.552"
         id="path186" /><g
         id="g188"><path
           style="fill:none"
           inkscape:connector-curvature="0"
           d="m 273.032,426.319 c 3.123,1.837 5.879,4.409 9.186,6.062 2.204,1.103 4.409,1.838 6.062,3.859 3.307,3.857 0.919,9.552 -4.409,9.185 -2.572,-0.183 -4.593,-2.572 -6.614,-3.675 -2.021,-1.102 -4.41,-1.47 -6.247,-2.571 -3.858,-2.572 -7.716,-9.186 -2.205,-12.31 1.653,-0.918 3.123,-0.918 4.593,0.552"
           id="path190" /><path
           style="fill:#010101"
           inkscape:connector-curvature="0"
           d="m 271.692,426.798 c 4.196,2.601 8.021,5.377 12.424,7.647 2.151,1.111 3.679,2.941 4.199,5.29 0.79,3.565 -2.876,5.941 -6.152,4.036 -1.984,-1.152 -3.492,-2.564 -5.676,-3.41 -2.014,-0.778 -3.829,-1.312 -5.484,-2.723 -1.604,-1.368 -2.678,-3.227 -3.31,-5.204 -0.812,-2.536 1.277,-7.018 4.367,-4.534 0.597,0.479 3.074,-0.64 2.678,-0.956 -3.689,-2.965 -9.668,0.014 -10.099,4.587 -0.278,2.954 2.281,5.868 4.352,7.633 1.583,1.351 4.005,1.842 5.888,2.569 2.054,0.796 3.678,2.458 5.569,3.556 3.882,2.255 9.778,-0.326 10.692,-4.605 0.679,-3.176 -1.929,-5.708 -4.348,-7.195 -2.076,-1.277 -4.348,-2.126 -6.396,-3.484 -2.04,-1.35 -3.947,-2.873 -6.029,-4.164 -0.679,-0.424 -3.025,0.738 -2.675,0.957 l 0,0 z"
           id="path192" /></g></g><path
       style="fill:none;stroke:#010101"
       inkscape:connector-curvature="0"
       d="m 229.49,336.235 c 1.628,0.175 3.692,-2.526 4.887,-3.478 1.862,-1.479 3.601,-2.164 5.604,-3.198 3.908,-2.017 6.843,-4.355 11.614,-4.104 -0.461,-0.636 -1.206,-1.389 -1.871,-1.901 0.954,-1.421 2.795,-1.726 2.791,-3.978"
       id="path194" /><path
       style="fill:none;stroke:#010101"
       inkscape:connector-curvature="0"
       d="m 244.188,338.44 c 4.289,-2.215 8.81,-4.017 13.022,-6.045 1.95,-0.941 10.133,-2.367 9.514,-5.713"
       id="path196" /><path
       style="fill:none;stroke:#010101"
       inkscape:connector-curvature="0"
       d="m 263.051,343.094 c 2.119,-0.317 3.59,-2.534 5.42,-3.619 2.017,-1.195 3.945,-2.779 5.738,-3.905 1.527,-0.958 4.897,-0.355 5.744,-2.028"
       id="path198" /><path
       style="fill:none;stroke:#010101"
       inkscape:connector-curvature="0"
       d="m 299.549,307.575 c 6.02,-2.119 10.195,-7.547 16.114,-9.114 5.088,-1.344 13.674,-3.596 16.711,-8.279"
       id="path200" /><path
       style="fill:none;stroke:#010101"
       inkscape:connector-curvature="0"
       d="m 364.708,317.619 c -0.474,2.851 -2.311,4.88 -4.088,6.859 -2.029,2.26 -4.208,4.093 -6.857,5.645 -2.546,1.492 -5.248,2.615 -7.483,4.496 -1.091,0.915 -2.096,2.447 -3.13,3.331"
       id="path202" /><path
       style="fill:none;stroke:#010101"
       inkscape:connector-curvature="0"
       d="m 255.945,384.492 c 7.628,-1.657 13.904,-6.467 21.066,-9.064"
       id="path204" /><path
       style="fill:none;stroke:#010101;stroke-width:0.5"
       inkscape:connector-curvature="0"
       d="m 280.197,379.838 c -0.766,1.59 -2.778,2.228 -4.201,3.238 -2.878,2.042 -5.427,3.931 -8.656,5.275 -1.941,0.806 -5.304,1.107 -6.74,2.51"
       id="path206" /><path
       style="fill:none;stroke:#010101;stroke-width:0.5"
       inkscape:connector-curvature="0"
       d="m 293.424,307.33 c -1.778,2.375 -4.759,5.484 -7.159,7.225 -2.059,1.494 -4.686,1.336 -6.56,2.574"
       id="path208" /><path
       style="fill:none;stroke:#010101;stroke-width:0.5"
       inkscape:connector-curvature="0"
       d="m 312.287,309.29 c 1.656,-0.903 2.938,-1.634 4.903,-2.39 1.187,-0.456 3.968,-0.995 4.404,-2.02"
       id="path210" /><path
       style="fill:none;stroke:#010101;stroke-width:0.5"
       inkscape:connector-curvature="0"
       d="m 313.267,322.763 c 2.027,-0.466 3.836,-2.477 5.879,-3.226 2.362,-0.866 8.811,-0.54 10.041,-3.143"
       id="path212" /><path
       style="fill:none;stroke:#010101;stroke-width:0.5"
       inkscape:connector-curvature="0"
       d="m 317.186,331.581 c 1.513,-0.24 6.915,-4.112 7.592,-5.633"
       id="path214" /><path
       style="fill:none;stroke:#010101;stroke-width:0.5"
       inkscape:connector-curvature="0"
       d="m 365.932,305.615 c -3.192,1.43 -6.45,4.997 -9.211,7.246 -2.994,2.438 -4.481,3.316 -8.181,4.512"
       id="path216" /><path
       style="fill:none;stroke:#010101;stroke-width:0.5"
       inkscape:connector-curvature="0"
       d="m 287.301,342.85 c -2.779,3.394 -9.5,1.499 -12.866,5.008 -1.413,1.473 -1.314,2.146 -3.363,3.01 -1.609,0.679 -3.161,1.422 -4.838,1.536"
       id="path218" /><path
       style="fill:none;stroke:#010101;stroke-width:0.5"
       inkscape:connector-curvature="0"
       d="m 247.862,375.919 c 4.151,0.049 6.961,-6.125 11.269,-5.39"
       id="path220" /><path
       style="fill:none;stroke:#010101;stroke-width:0.5"
       inkscape:connector-curvature="0"
       d="m 248.353,401.149 c 1.968,-0.762 2.991,-3.246 4.851,-4.158 1.283,-0.629 2.549,-0.752 3.967,-1.477"
       id="path222" /><path
       style="fill:none;stroke:#010101;stroke-width:0.5"
       inkscape:connector-curvature="0"
       d="m 288.771,368.08 c -3.155,1.645 -5.187,3.564 -6.848,5.946 -1.609,2.308 -3.699,5.633 -7.115,3.607"
       id="path224" /><path
       style="fill:none;stroke:#010101;stroke-width:0.5"
       inkscape:connector-curvature="0"
       d="m 371.322,325.948 c -1.662,4.215 -9.298,5.762 -12.798,7.974 -1.142,0.723 -1.615,1.314 -2.385,2.368 -0.754,1.035 -1.235,2.985 -2.701,3.129"
       id="path226" /><path
       style="fill:none;stroke:#010101;stroke-width:0.5"
       inkscape:connector-curvature="0"
       d="m 349.52,311.004 c 2.681,-0.25 4.681,-5.297 7.521,-6.429 2.325,-0.926 7.252,-1.545 7.668,-4.838"
       id="path228" /><path
       style="fill:none;stroke:#010101;stroke-width:0.5"
       inkscape:connector-curvature="0"
       d="m 354.908,284.548 c -2.585,1.006 -4.844,5.085 -6.783,7.044 -2.722,2.744 -2.868,0.22 -5.954,0.796"
       id="path230" /><path
       style="fill:none;stroke:#010101;stroke-width:0.5"
       inkscape:connector-curvature="0"
       d="m 297.59,302.921 c 1.562,0.103 2.567,-1.177 3.865,-1.806 1.286,-0.625 2.991,-1.086 4.381,-1.493 3.367,-0.98 4.943,-1.213 7.675,-3.559"
       id="path232" /><path
       style="fill:none;stroke:#010101;stroke-width:0.5"
       inkscape:connector-curvature="0"
       d="m 268.929,315.659 c 4.279,-1.444 8.588,-3.98 12.911,-5.009 -0.384,0.119 -0.768,0.237 -1.152,0.354"
       id="path234" /><path
       style="fill:none;stroke:#010101;stroke-width:0.5"
       inkscape:connector-curvature="0"
       d="m 192.502,354.852 c 1.097,-0.651 1.287,-2.972 1.781,-4.083 1.011,-2.281 2.578,-3.971 1.158,-6.695"
       id="path236" /><path
       style="fill:none;stroke:#010101;stroke-width:0.5"
       inkscape:connector-curvature="0"
       d="m 206.954,341.624 c -0.833,2.863 3.576,5.415 5.39,7.348"
       id="path238" /><path
       style="fill:none;stroke:#010101;stroke-width:0.5"
       inkscape:connector-curvature="0"
       d="m 209.404,359.752 c 2.386,0.55 1.322,3.955 3.185,5.144"
       id="path240" /><path
       style="fill:none;stroke:#010101;stroke-width:0.5"
       inkscape:connector-curvature="0"
       d="m 180.744,376.654 c 1.504,-0.289 4.39,1.122 5.882,1.605 -0.03,0.277 -0.194,0.312 -0.494,0.11"
       id="path242" /><path
       style="fill:none;stroke:#010101;stroke-width:0.5"
       inkscape:connector-curvature="0"
       d="m 191.276,391.595 c -0.309,-0.374 -0.509,-0.395 -0.602,-0.062 0.268,0.795 0.301,1.445 0.356,2.266"
       id="path244" /><path
       style="fill:none;stroke:#010101;stroke-width:0.5"
       inkscape:connector-curvature="0"
       d="m 201.075,400.17 c 0.823,1.271 1.373,7.888 -0.98,7.595"
       id="path246" /><path
       style="fill:none;stroke:#010101;stroke-width:0.5"
       inkscape:connector-curvature="0"
       d="m 222.632,395.27 c -1.235,2.242 0.32,4.14 1.224,6.125"
       id="path248" /><path
       style="fill:none;stroke:#010101;stroke-width:0.5"
       inkscape:connector-curvature="0"
       d="m 226.061,408.254 c 0.289,1.501 0.47,3.092 1.333,4.365 0.65,0.962 1.833,1.506 2.342,2.737"
       id="path250" /><path
       style="fill:none;stroke:#010101;stroke-width:0.5"
       inkscape:connector-curvature="0"
       d="m 214.792,406.784 c -1.122,1.553 -1.502,5.745 -4.246,4.111 -0.162,0.444 -0.294,1.222 -0.163,1.766"
       id="path252" /><path
       style="fill:none;stroke:#010101;stroke-width:0.5"
       inkscape:connector-curvature="0"
       d="m 222.387,381.798 c -1.279,0.8 -3.384,0.489 -4.725,0.489 1.905,-0.125 3.79,0.36 5.568,0.68 1.051,0.19 4.307,1.276 4.301,1.28"
       id="path254" /><path
       style="fill:none;stroke:#010101;stroke-width:0.5"
       inkscape:connector-curvature="0"
       d="m 228.02,362.2 c -0.247,-4.128 3.035,-4.229 5.879,-5.879"
       id="path256" /><path
       style="fill:none;stroke:#010101;stroke-width:0.5"
       inkscape:connector-curvature="0"
       d="m 180.744,352.647 c 2.142,0.373 4.713,3.279 5.633,4.899"
       id="path258" /><polygon
       style="fill:none;stroke:#010101;stroke-width:2"
       points="71.002,287.488 428.643,247.315 507.028,455.041 147.429,497.174 "
       id="polygon260" /><line
       style="fill:none;stroke:#010101;stroke-width:2"
       x1="183.68401"
       y1="395.26999"
       x2="95.498001"
       y2="427.604"
       id="line262" /><line
       style="fill:none;stroke:#010101;stroke-width:2"
       x1="440.39999"
       y1="324.72198"
       x2="514.867"
       y2="300.22699"
       id="line264" /><line
       style="fill:none;stroke:#010101;stroke-width:2"
       x1="298.32501"
       y1="435.444"
       x2="250.312"
       y2="501.09201"
       id="line266" /><text
       style="font-size:26.45560074px;fill:#010101;font-family:MyriadPro-Regular"
       transform="translate(14.1709,421.7256)"
       font-size="26.4556"
       id="text268">Log of</text>
<text
       style="font-size:26.45560074px;fill:#010101;font-family:MyriadPro-Regular"
       transform="translate(14.1709,453.4736)"
       font-size="26.4556"
       id="text270">wood</text>
<text
       style="font-size:26.45560074px;fill:#010101;font-family:MyriadPro-Regular"
       transform="translate(199.3594,537.3457)"
       font-size="26.4556"
       id="text272">A person</text>
<text
       style="font-size:26.45560074px;fill:#010101;font-family:MyriadPro-Regular"
       transform="translate(518.7871,292.3877)"
       font-size="26.4556"
       id="text274">Flat</text>
<text
       style="font-size:26.45560074px;fill:#010101;font-family:MyriadPro-Regular"
       transform="translate(518.7871,324.1348)"
       font-size="26.4556"
       id="text276">surface</text>
</g></g></svg>