<?xml version="1.0" encoding="UTF-8" standalone="no"?>
<!-- Generator: Adobe Illustrator 16.0.0, SVG Export Plug-In . SVG Version: 6.00 Build 0)  -->

<svg
   xmlns:dc="http://purl.org/dc/elements/1.1/"
   xmlns:cc="http://creativecommons.org/ns#"
   xmlns:rdf="http://www.w3.org/1999/02/22-rdf-syntax-ns#"
   xmlns:svg="http://www.w3.org/2000/svg"
   xmlns="http://www.w3.org/2000/svg"
   xmlns:xlink="http://www.w3.org/1999/xlink"
   xmlns:sodipodi="http://sodipodi.sourceforge.net/DTD/sodipodi-0.dtd"
   xmlns:inkscape="http://www.inkscape.org/namespaces/inkscape"
   version="1.0"
   id="Layer_1"
   x="0px"
   y="0px"
   viewBox="0 0 382.74659 520.00778"
   enable-background="new 0 0 437 54"
   xml:space="preserve"
   inkscape:version="0.48.4 r9939"
   width="100%"
   height="100%"
   sodipodi:docname="canvas.svg"><metadata
   id="metadata110"><rdf:RDF><cc:Work
       rdf:about=""><dc:format>image/svg+xml</dc:format><dc:type
         rdf:resource="http://purl.org/dc/dcmitype/StillImage" /><dc:title></dc:title></cc:Work></rdf:RDF></metadata><defs
   id="defs108" /><sodipodi:namedview
   pagecolor="#ffffff"
   bordercolor="#666666"
   borderopacity="1"
   objecttolerance="10"
   gridtolerance="10"
   guidetolerance="10"
   inkscape:pageopacity="0"
   inkscape:pageshadow="2"
   inkscape:window-width="640"
   inkscape:window-height="480"
   id="namedview106"
   showgrid="false"
   inkscape:zoom="0.65446224"
   inkscape:cx="304.43782"
   inkscape:cy="176.9899"
   inkscape:window-x="0"
   inkscape:window-y="0"
   inkscape:window-maximized="0"
   inkscape:current-layer="Layer_1"
   fit-margin-top="0"
   fit-margin-left="0"
   fit-margin-right="0"
   fit-margin-bottom="0"
   showborder="false"
   inkscape:showpageshadow="false" />

<g
   transform="translate(-115.97327,-136.26272)"
   id="g14"><g
     style="display:none"
     id="Layer_1_4_"
     display="none"><image
       id="image17"
       transform="matrix(1.9549,0,0,1.9549,109.998,123.5)"
       height="278"
       width="200"
       overflow="visible"
       display="inline"
       style="display:inline;overflow:visible"
       xlink:href="C:\Users\jmomanyi\Desktop\New SVGs\Science\SCIENCE 2010 IMAGES\77826B67.jpg" /><path
       style="fill:none;display:inline"
       inkscape:connector-curvature="0"
       display="inline"
       enable-background="new    "
       d=""
       id="path19" /></g><g
     id="Layer_2_1_"><path
       style="fill:none;stroke:#010101;stroke-width:3"
       inkscape:connector-curvature="0"
       d="m 214.598,477.376 1.955,-61.586 -24.439,-22.484 4.888,-25.417 23.461,13.686 -11.73,-36.169 c 0,0 -2.933,-69.407 30.304,-85.047 33.237,-15.641 102.642,-24.439 119.261,-13.686 16.618,10.753 47.9,18.574 46.923,67.452 -0.977,48.878 -13.687,60.608 -13.687,60.608 l 1.955,8.798 22.484,-18.573 8.798,32.26 -27.371,21.505 -1.955,54.743 c 0,0 11.73,45.945 -31.282,54.743 0,0 -26.395,8.798 -26.395,23.462 0,0 -47.899,23.461 -59.63,-6.843 0,0 -13.686,-12.709 -19.551,-9.776 0,0 -49.855,-16.618 -43.989,-57.676 z"
       id="path22" /><path
       style="fill:none;stroke:#010101;stroke-width:3"
       inkscape:connector-curvature="0"
       d="M 212.643,301.416 181.361,279.91 c 0,0 -3.91,-52.788 -28.349,-32.259 -24.439,20.529 -4.888,29.327 -4.888,29.327 0,0 -26.394,-21.506 -30.304,0.978 -3.91,22.484 25.417,34.215 43.99,22.484 l 45.945,41.058"
       id="path24" /><path
       style="fill:none;stroke:#010101;stroke-width:3"
       inkscape:connector-curvature="0"
       d="m 405.221,314.124 30.304,-27.372 c 0,0 0.978,-37.147 15.642,-31.282 14.663,5.866 17.596,22.484 17.596,22.484 0,0 57.676,-6.843 8.798,42.035 0,0 -29.326,14.663 -33.236,-4.888 0,0 -31.282,24.439 -36.17,30.304"
       id="path26" /><path
       style="fill:none;stroke:#010101;stroke-width:3"
       inkscape:connector-curvature="0"
       d="m 212.551,471.881 -55.463,45.823 c 0,0 -23.739,-13.09 -33.791,8.859 -10.052,21.953 8.271,26.903 15.379,22.409 0,0 3.981,33.518 24.385,19.003 0,0 42.961,-15.194 20.639,-36.039 l 35.648,-24.422"
       id="path28" /><path
       style="fill:none;stroke:#010101;stroke-width:3"
       inkscape:connector-curvature="0"
       d="m 394.468,454.893 51.811,41.057 c 0,0 43.012,-24.438 42.034,11.731 -0.978,36.169 -31.281,14.663 -31.281,14.663 0,0 35.191,32.26 -14.664,31.282 0,0 -29.326,-16.619 -10.753,-37.147 L 394.469,492.04"
       id="path30" /><ellipse
       d="m 292.80201,371.79999 c 0,12.41757 -12.03593,22.484 -26.883,22.484 -14.84707,0 -26.883,-10.06643 -26.883,-22.484 0,-12.41757 12.03593,-22.484 26.883,-22.484 14.84707,0 26.883,10.06643 26.883,22.484 z"
       style="fill:#010101;stroke:#010101"
       sodipodi:ry="22.483999"
       sodipodi:rx="26.882999"
       sodipodi:cy="371.79999"
       sodipodi:cx="265.91901"
       cx="265.91901"
       cy="371.79999"
       rx="26.882999"
       ry="22.483999"
       id="ellipse32" /><ellipse
       d="m 372.961,370.82199 c 0,12.41757 -12.03593,22.484 -26.883,22.484 -14.84707,0 -26.883,-10.06643 -26.883,-22.484 0,-12.41757 12.03593,-22.484 26.883,-22.484 14.84707,0 26.883,10.06643 26.883,22.484 z"
       style="fill:#010101;stroke:#010101"
       sodipodi:ry="22.483999"
       sodipodi:rx="26.882999"
       sodipodi:cy="370.82199"
       sodipodi:cx="346.078"
       cx="346.078"
       cy="370.82199"
       rx="26.882999"
       ry="22.483999"
       id="ellipse34" /><path
       style="fill:#010101;stroke:#010101"
       inkscape:connector-curvature="0"
       d="m 300.623,393.306 -12.708,25.417 13.686,18.573 13.685,-2.933 5.865,-16.618 -8.798,-21.506 c 0,0 -5.865,-5.865 -11.73,-2.933 z"
       id="path36" /><g
       id="g38"><line
         style="fill:none;stroke:#010101;stroke-width:3"
         x1="235.65199"
         y1="474.142"
         x2="381.23199"
         y2="474.142"
         id="line40" /><line
         style="fill:none;stroke:#010101;stroke-width:3"
         x1="250.54201"
         y1="461.73499"
         x2="250.54201"
         y2="493.99399"
         id="line42" /><line
         style="fill:none;stroke:#010101;stroke-width:3"
         x1="263.31699"
         y1="461.73499"
         x2="263.31699"
         y2="493.99399"
         id="line44" /><line
         style="fill:none;stroke:#010101;stroke-width:3"
         x1="276.09201"
         y1="461.73499"
         x2="276.09201"
         y2="493.99399"
         id="line46" /><line
         style="fill:none;stroke:#010101;stroke-width:3"
         x1="288.86401"
         y1="461.73499"
         x2="288.86401"
         y2="493.99399"
         id="line48" /><line
         style="fill:none;stroke:#010101;stroke-width:3"
         x1="301.64099"
         y1="461.73499"
         x2="301.64099"
         y2="493.99399"
         id="line50" /><line
         style="fill:none;stroke:#010101;stroke-width:3"
         x1="314.418"
         y1="461.73499"
         x2="314.418"
         y2="493.99399"
         id="line52" /><line
         style="fill:none;stroke:#010101;stroke-width:3"
         x1="327.19101"
         y1="461.73499"
         x2="327.19101"
         y2="493.99399"
         id="line54" /><line
         style="fill:none;stroke:#010101;stroke-width:3"
         x1="339.96899"
         y1="461.73499"
         x2="339.96899"
         y2="493.99399"
         id="line56" /><line
         style="fill:none;stroke:#010101;stroke-width:3"
         x1="352.741"
         y1="461.73499"
         x2="352.741"
         y2="493.99399"
         id="line58" /><line
         style="fill:none;stroke:#010101;stroke-width:3"
         x1="365.517"
         y1="461.73499"
         x2="365.517"
         y2="493.99399"
         id="line60" /></g><text
       style="font-size:46.92279816px;fill:#010101;font-family:MyriadPro-Regular"
       transform="translate(207.7544,170.4238)"
       font-size="46.9228"
       id="text62">DANGER</text>
<text
       style="font-size:46.92279816px;fill:#010101;font-family:MyriadPro-Regular"
       transform="translate(237.0806,656.2705)"
       font-size="46.9228"
       id="text64">HATARI</text>
</g></g></svg>