<?xml version="1.0" encoding="UTF-8" standalone="no"?>
<!-- Generator: Adobe Illustrator 16.0.0, SVG Export Plug-In . SVG Version: 6.00 Build 0)  -->

<svg
   xmlns:dc="http://purl.org/dc/elements/1.1/"
   xmlns:cc="http://creativecommons.org/ns#"
   xmlns:rdf="http://www.w3.org/1999/02/22-rdf-syntax-ns#"
   xmlns:svg="http://www.w3.org/2000/svg"
   xmlns="http://www.w3.org/2000/svg"
   xmlns:sodipodi="http://sodipodi.sourceforge.net/DTD/sodipodi-0.dtd"
   xmlns:inkscape="http://www.inkscape.org/namespaces/inkscape"
   version="1.0"
   id="Layer_1"
   x="0px"
   y="0px"
   viewBox="0 0 718.97656 396.2812"
   enable-background="new 0 0 437 54"
   xml:space="preserve"
   inkscape:version="0.48.4 r9939"
   width="100%"
   height="100%"
   sodipodi:docname="canvas.svg"><metadata
   id="metadata110"><rdf:RDF><cc:Work
       rdf:about=""><dc:format>image/svg+xml</dc:format><dc:type
         rdf:resource="http://purl.org/dc/dcmitype/StillImage" /><dc:title></dc:title></cc:Work></rdf:RDF></metadata><defs
   id="defs108" /><sodipodi:namedview
   pagecolor="#ffffff"
   bordercolor="#666666"
   borderopacity="1"
   objecttolerance="10"
   gridtolerance="10"
   guidetolerance="10"
   inkscape:pageopacity="0"
   inkscape:pageshadow="2"
   inkscape:window-width="779"
   inkscape:window-height="513"
   id="namedview106"
   showgrid="false"
   inkscape:zoom="0.65446224"
   inkscape:cx="348.79585"
   inkscape:cy="133.46675"
   inkscape:window-x="0"
   inkscape:window-y="0"
   inkscape:window-maximized="0"
   inkscape:current-layer="Layer_1"
   fit-margin-top="0"
   fit-margin-left="0"
   fit-margin-right="0"
   fit-margin-bottom="0"
   showborder="false"
   inkscape:showpageshadow="false" />

<g
   transform="translate(-38.40625,-108.82031)"
   id="Layer_2"><polyline
     style="fill:none;stroke:#000000;stroke-width:3"
     points="150.783,175.261 41,174.174 39.913,490.479 81.217,491.565  "
     id="polyline239" /><polyline
     style="fill:none;stroke:#000000;stroke-width:3"
     points="433.392,173.087 595.348,176.348 595.348,491.565    407.305,490.479 406.218,464.392 370.348,461.131  "
     id="polyline241" /><polyline
     style="fill:none;stroke:#000000;stroke-width:2"
     points="332.999,491 151.87,489.392 330.13,490.479  "
     id="polyline243" /><ellipse
     d="m 385.66599,435.66699 c 0,16.93637 -14.32689,30.666 -32,30.666 -17.67312,0 -32,-13.72963 -32,-30.666 0,-16.93636 14.32688,-30.666 32,-30.666 17.67311,0 32,13.72964 32,30.666 z"
     style="fill:none;stroke:#000000"
     sodipodi:ry="30.666"
     sodipodi:rx="32"
     sodipodi:cy="435.66699"
     sodipodi:cx="353.66599"
     cx="353.66599"
     cy="435.66699"
     rx="32"
     ry="30.666"
     id="ellipse245" /><path
     style="fill:none;stroke:#000000;stroke-width:2"
     inkscape:connector-curvature="0"
     d="M 334.333,461 333,497.667 c 0,0 10e-4,5.5 9.501,6.167 9.5,0.667 19.667,-0.167 19.667,-0.167 0,0 7.333,2 7.167,-6.5 -0.166,-8.5 1.167,-34.166 1.167,-34.166"
     id="path247" /><path
     style="fill:none;stroke:#000000"
     inkscape:connector-curvature="0"
     d="m 344.667,463.834 0.167,-14.5 c 0,0 -10.5,-9.333 -8.667,-14.833 1.833,-5.5 6,-9 11.167,-4 5.167,5 6.167,12.5 -1.333,10.333 -7.5,-2.167 2.167,-14 6.333,-13 4.166,1 7.333,2.166 8.333,4.833 1,2.667 5.5,11.501 -5.667,7.334 0,0 -1.166,-12.668 9.167,-11.834 10.333,0.834 3.667,13.5 3.667,13.5 l -6.5,7 0.666,15.334"
     id="path249" /><rect
     style="fill:none;stroke:#000000;stroke-width:2"
     x="152.5"
     y="145"
     width="128"
     height="59.5"
     id="rect251" /><rect
     style="fill:none;stroke:#000000;stroke-width:2"
     x="292"
     y="144.5"
     width="130"
     height="62"
     id="rect253" /><rect
     style="fill:none;stroke:#000000;stroke-width:2"
     x="282"
     y="163"
     width="9"
     height="22"
     id="rect255" /><rect
     style="fill:none;stroke:#000000;stroke-width:2"
     x="421.5"
     y="162"
     width="12"
     height="24.5"
     id="rect257" /><line
     style="fill:none;stroke:#000000;stroke-width:2"
     x1="168.5"
     y1="165.5"
     x2="168.5"
     y2="183"
     id="line259" /><line
     style="fill:none;stroke:#000000;stroke-width:2"
     x1="312.5"
     y1="165.5"
     x2="312.5"
     y2="183"
     id="line261" /><line
     style="fill:none;stroke:#000000;stroke-width:2"
     x1="403.5"
     y1="165.5"
     x2="403.5"
     y2="183"
     id="line263" /><line
     style="fill:none;stroke:#000000;stroke-width:2"
     x1="253.5"
     y1="174.5"
     x2="270.5"
     y2="174.5"
     id="line265" /><line
     style="fill:none;stroke:#000000;stroke-width:2"
     x1="263"
     y1="166.5"
     x2="263"
     y2="183.5"
     id="line267" /><ellipse
     d="m 91.5,490.5 c 0,2.89949 -2.462434,5.25 -5.5,5.25 -3.037566,0 -5.5,-2.35051 -5.5,-5.25 0,-2.89949 2.462434,-5.25 5.5,-5.25 3.037566,0 5.5,2.35051 5.5,5.25 z"
     sodipodi:ry="5.25"
     sodipodi:rx="5.5"
     sodipodi:cy="490.5"
     sodipodi:cx="86"
     cx="86"
     cy="490.5"
     rx="5.5"
     ry="5.25"
     id="ellipse269" /><ellipse
     d="m 151,491 c 0,2.89949 -2.46243,5.25 -5.5,5.25 -3.03757,0 -5.5,-2.35051 -5.5,-5.25 0,-2.89949 2.46243,-5.25 5.5,-5.25 3.03757,0 5.5,2.35051 5.5,5.25 z"
     sodipodi:ry="5.25"
     sodipodi:rx="5.5"
     sodipodi:cy="491"
     sodipodi:cx="145.5"
     cx="145.5"
     cy="491"
     rx="5.5"
     ry="5.25"
     id="ellipse271" /><line
     style="fill:none;stroke:#000000;stroke-width:2"
     x1="394.5"
     y1="173.5"
     x2="411.5"
     y2="173.5"
     id="line273" /><line
     style="fill:none;stroke:#000000;stroke-width:2"
     x1="595.5"
     y1="336.5"
     x2="625"
     y2="336.5"
     id="line275" /><text
     style="font-size:24px;font-family:MyriadPro-Regular"
     transform="translate(409.5,427.5)"
     font-size="24"
     id="text277">Bulb</text>
<text
     transform="translate(637.5,348)"
     id="text279"><tspan
       style="font-size:24px;font-family:MyriadPro-Regular"
       x="0"
       y="0"
       font-size="24"
       id="tspan281">Connecting</tspan><tspan
       style="font-size:24px;font-family:MyriadPro-Regular"
       x="0"
       y="28.799999"
       font-size="24"
       id="tspan283">Wire</tspan></text>
<text
     style="font-size:24px;font-family:MyriadPro-Regular"
     transform="translate(241.5,126)"
     font-size="24"
     id="text285">Dry cells</text>
<text
     style="font-size:24px;font-family:MyriadPro-Regular"
     transform="translate(111,497)"
     font-size="24"
     id="text287">K</text>
</g></svg>