<?xml version="1.0" encoding="UTF-8" standalone="no"?>
<!-- Generator: Adobe Illustrator 16.0.0, SVG Export Plug-In . SVG Version: 6.00 Build 0)  -->

<svg
   xmlns:dc="http://purl.org/dc/elements/1.1/"
   xmlns:cc="http://creativecommons.org/ns#"
   xmlns:rdf="http://www.w3.org/1999/02/22-rdf-syntax-ns#"
   xmlns:svg="http://www.w3.org/2000/svg"
   xmlns="http://www.w3.org/2000/svg"
   xmlns:sodipodi="http://sodipodi.sourceforge.net/DTD/sodipodi-0.dtd"
   xmlns:inkscape="http://www.inkscape.org/namespaces/inkscape"
   version="1.0"
   id="Layer_1"
   x="0px"
   y="0px"
   viewBox="0 0 475.57058 506.29465"
   enable-background="new 0 0 437 54"
   xml:space="preserve"
   inkscape:version="0.48.4 r9939"
   width="100%"
   height="100%"
   sodipodi:docname="2010-7.svg"><metadata
   id="metadata3203"><rdf:RDF><cc:Work
       rdf:about=""><dc:format>image/svg+xml</dc:format><dc:type
         rdf:resource="http://purl.org/dc/dcmitype/StillImage" /><dc:title /></cc:Work></rdf:RDF></metadata><defs
   id="defs3201" /><sodipodi:namedview
   pagecolor="#ffffff"
   bordercolor="#666666"
   borderopacity="1"
   objecttolerance="10"
   gridtolerance="10"
   guidetolerance="10"
   inkscape:pageopacity="0"
   inkscape:pageshadow="2"
   inkscape:window-width="914"
   inkscape:window-height="571"
   id="namedview3199"
   showgrid="false"
   inkscape:zoom="1"
   inkscape:cx="237.60692"
   inkscape:cy="253.41645"
   inkscape:window-x="256"
   inkscape:window-y="209"
   inkscape:window-maximized="0"
   inkscape:current-layer="Layer_1"
   fit-margin-top="0"
   fit-margin-left="0"
   fit-margin-right="0"
   fit-margin-bottom="0"
   showborder="false"
   inkscape:showpageshadow="false" />
<g
   id="Intel_Skoool_Logo"
   transform="translate(19.106915,225.8782)">
	<g
   id="g3097">
		<g
   id="g3099">
			<g
   id="g3101">
				<g
   id="g3103">
					<path
   d="M 38.236,43.095 C 25.511,44.276 12.238,42.43 10.381,32.489 9.472,27.559 11.706,22.373 14.675,19.144 V 17.415 C 9.329,22.082 6.431,28.021 8.103,35.025 10.235,43.988 21.619,49.088 39,47.39 45.889,46.725 54.882,44.506 61.15,41.077 v -4.871 c -5.692,3.369 -15.076,6.169 -22.914,6.889 z M 71.771,17.297 C 68.758,2.539 40.137,1.619 21.676,12.86 v 1.238 C 40.11,4.616 66.251,4.674 68.63,18.25 c 0.808,4.493 -1.73,9.192 -6.241,11.873 v 3.517 c 5.434,-1.99 11.009,-8.445 9.382,-16.343 z"
   id="path3105"
   inkscape:connector-curvature="0"
   style="fill:#ffffff" />
					<path
   d="m 60.114,15.165 h -3.346 v 14.843 c 0,1.758 0.851,3.258 3.346,3.516 V 15.165 z"
   id="path3107"
   inkscape:connector-curvature="0"
   style="fill:#ffffff" />
					<path
   d="m 20.365,20.584 h -3.343 v 9.713 c 0,1.73 0.852,3.258 3.343,3.487 v -13.2 z"
   id="path3109"
   inkscape:connector-curvature="0"
   style="fill:#ffffff" />
					<rect
   x="17.021999"
   y="15.597"
   width="3.3310001"
   height="3.1700001"
   id="rect3111"
   style="fill:#ffffff" />
					<path
   d="m 40.354,33.64 c -2.694,0 -3.833,-1.874 -3.833,-3.718 V 17.009 h 3.3 v 3.575 h 2.494 v 2.681 h -2.494 v 6.456 c 0,0.748 0.346,1.151 1.138,1.151 h 1.356 v 2.768 h -1.961"
   id="path3113"
   inkscape:connector-curvature="0"
   style="fill:#ffffff" />
					<path
   d="m 46.45,28.136 c 0,1.7 1.066,2.941 2.926,2.941 1.469,0 2.192,-0.406 3.039,-1.241 l 2.049,1.959 c -1.312,1.268 -2.683,2.076 -5.118,2.076 -3.156,0 -6.196,-1.729 -6.196,-6.773 0,-4.295 2.666,-6.745 6.141,-6.745 3.531,0 5.563,2.852 5.563,6.6 v 1.183 H 46.45 m 2.679,-5.046 c -1.122,0 -2.001,0.579 -2.362,1.384 -0.215,0.463 -0.301,0.835 -0.316,1.412 h 5.101 C 51.48,24.474 50.845,23.09 49.129,23.09 z"
   id="path3115"
   inkscape:connector-curvature="0"
   style="fill:#ffffff" />
					<path
   d="m 29.359,23.265 c 0.966,0 1.367,0.459 1.367,1.239 v 9.165 h 3.315 v -9.195 c 0,-1.844 -0.993,-3.89 -3.904,-3.89 h -6.832 v 13.085 h 3.314 V 23.265 h 2.74 z"
   id="path3117"
   inkscape:connector-curvature="0"
   style="fill:#ffffff" />
				</g>
			</g>
			<g
   id="g3119">
				<path
   d="m 64.003,19.056 c -1.08,0 -1.944,-0.866 -1.944,-1.961 0,-1.066 0.864,-1.93 1.944,-1.93 1.082,0 1.96,0.864 1.96,1.93 0,1.095 -0.879,1.961 -1.96,1.961 z m 0,-3.574 c -0.894,0 -1.614,0.719 -1.614,1.612 0,0.925 0.72,1.645 1.614,1.645 0.894,0 1.643,-0.719 1.643,-1.645 0,-0.892 -0.75,-1.612 -1.643,-1.612 z m 0.865,2.794 h -0.36 c -0.043,0 -0.057,0 -0.073,-0.058 l -0.504,-0.834 c -0.014,0 -0.058,-0.028 -0.07,-0.028 0,0 -0.074,0 -0.144,0 -0.03,0 -0.06,0 -0.073,0 v 0.834 c 0,0.028 -0.028,0.085 -0.086,0.085 h -0.332 c -0.043,0 -0.086,-0.058 -0.086,-0.085 v -2.104 c 0,-0.144 0.043,-0.174 0.159,-0.201 0.114,-0.028 0.418,-0.028 0.59,-0.028 0.62,0 0.98,0.171 0.98,0.748 v 0.03 c 0,0.374 -0.187,0.547 -0.445,0.633 l 0.517,0.893 c 0,0 0.014,0.029 0.014,0.057 -0.001,0.032 -0.016,0.058 -0.087,0.058 z m -0.475,-1.671 c 0,-0.23 -0.144,-0.316 -0.462,-0.316 -0.042,0 -0.145,0 -0.214,0 -0.043,0 -0.073,0 -0.101,0 v 0.69 c 0.057,0 0.272,0 0.315,0 0.319,0 0.462,-0.115 0.462,-0.344 v -0.03 z"
   id="path3121"
   inkscape:connector-curvature="0"
   style="fill:#ffffff" />
			</g>
		</g>
		<path
   d="m 148.08,16.8 v 2.097 h -0.41 V 16.8 h -0.753 v -0.325 h 1.92 V 16.8 h -0.757 z m 3.509,2.097 v -2.015 h -0.017 l -0.791,2.015 h -0.252 l -0.796,-2.015 h -0.011 v 2.015 h -0.396 v -2.422 h 0.617 l 0.722,1.841 0.712,-1.841 h 0.611 v 2.422 h -0.399 z"
   id="path3123"
   inkscape:connector-curvature="0"
   style="fill:#ffffff" />
		<g
   id="g3125">
			<path
   d="m 84.086,31.344 c 0.709,0 1.178,-0.1 1.414,-0.275 0.236,-0.186 0.352,-0.43 0.352,-0.746 0,-0.267 -0.076,-0.488 -0.228,-0.663 -0.151,-0.181 -0.418,-0.385 -0.802,-0.618 l -3.167,-1.949 c -0.601,-0.369 -1.069,-0.826 -1.43,-1.38 -0.351,-0.551 -0.523,-1.153 -0.523,-1.809 0,-2.317 1.471,-3.477 4.407,-3.477 1.522,0 2.874,0.254 4.053,0.759 0.173,0.069 0.299,0.145 0.373,0.23 0.074,0.088 0.113,0.211 0.113,0.37 v 1.415 c 0,0.34 -0.163,0.463 -0.486,0.374 -1.353,-0.432 -2.595,-0.645 -3.724,-0.645 -0.591,0 -1.016,0.063 -1.282,0.191 -0.266,0.129 -0.395,0.352 -0.395,0.668 0,0.176 0.036,0.314 0.104,0.427 0.074,0.109 0.174,0.207 0.291,0.299 0.12,0.091 0.299,0.202 0.535,0.34 l 3.035,1.856 c 0.878,0.535 1.473,1.072 1.775,1.613 0.302,0.536 0.451,1.121 0.451,1.75 0,0.729 -0.166,1.383 -0.507,1.961 -0.339,0.566 -0.857,1.018 -1.549,1.335 -0.688,0.315 -1.514,0.471 -2.482,0.471 -1.534,0 -2.895,-0.251 -4.083,-0.753 -0.2,-0.104 -0.329,-0.194 -0.391,-0.282 -0.073,-0.083 -0.106,-0.198 -0.106,-0.323 v -1.412 c 0,-0.34 0.168,-0.468 0.497,-0.373 1.364,0.425 2.615,0.646 3.755,0.646 z"
   id="path3127"
   inkscape:connector-curvature="0"
   style="fill:#ffffff" />
			<path
   d="m 101.676,33.38 c 0,0.075 -0.032,0.146 -0.091,0.2 -0.058,0.047 -0.134,0.073 -0.225,0.073 h -2.829 c -0.113,0 -0.235,-0.044 -0.362,-0.144 -0.13,-0.092 -0.23,-0.207 -0.307,-0.315 l -3.644,-5.286 v 5.262 c 0,0.133 -0.045,0.258 -0.132,0.346 -0.087,0.098 -0.198,0.138 -0.336,0.138 h -2.125 c -0.135,0 -0.247,-0.046 -0.334,-0.149 -0.086,-0.096 -0.127,-0.217 -0.127,-0.334 V 16.475 c 0,-0.111 0.043,-0.218 0.132,-0.317 0.091,-0.097 0.203,-0.146 0.33,-0.146 h 2.125 c 0.13,0 0.238,0.046 0.331,0.135 0.091,0.091 0.137,0.201 0.137,0.329 v 9.666 l 3.96,-5.272 c 0.151,-0.188 0.331,-0.284 0.534,-0.284 h 2.602 c 0.227,0 0.337,0.083 0.337,0.249 0,0.077 -0.028,0.155 -0.088,0.238 l -4.652,5.725 4.696,6.398 c 0.043,0.068 0.068,0.13 0.068,0.184 z"
   id="path3129"
   inkscape:connector-curvature="0"
   style="fill:#ffffff" />
			<path
   d="m 113.632,28.067 c 0,1.1 -0.216,2.095 -0.641,2.979 -0.425,0.877 -1.053,1.561 -1.883,2.061 -0.83,0.488 -1.838,0.731 -3.023,0.731 -1.168,0 -2.173,-0.243 -3.012,-0.731 -0.837,-0.5 -1.468,-1.184 -1.889,-2.061 -0.423,-0.885 -0.634,-1.88 -0.634,-2.979 v -1.869 c 0,-1.102 0.211,-2.095 0.634,-2.976 0.421,-0.883 1.052,-1.57 1.889,-2.06 0.839,-0.491 1.844,-0.737 3.012,-0.737 1.185,0 2.193,0.246 3.023,0.737 0.831,0.49 1.458,1.177 1.883,2.06 0.425,0.88 0.641,1.874 0.641,2.976 v 1.869 z m -3.058,0 v -1.869 c 0,-0.964 -0.211,-1.73 -0.64,-2.29 -0.426,-0.563 -1.043,-0.846 -1.85,-0.846 -0.801,0 -1.416,0.282 -1.838,0.846 -0.429,0.56 -0.641,1.326 -0.641,2.29 v 1.869 c 0,0.968 0.214,1.731 0.646,2.294 0.426,0.558 1.039,0.841 1.833,0.841 0.8,0 1.413,-0.283 1.844,-0.841 0.433,-0.562 0.646,-1.326 0.646,-2.294 z"
   id="path3131"
   inkscape:connector-curvature="0"
   style="fill:#ffffff" />
			<path
   d="m 126.617,28.067 c 0,1.1 -0.215,2.095 -0.643,2.979 -0.425,0.877 -1.055,1.561 -1.881,2.061 -0.833,0.488 -1.839,0.731 -3.027,0.731 -1.167,0 -2.172,-0.243 -3.009,-0.731 -0.838,-0.5 -1.468,-1.184 -1.889,-2.061 -0.423,-0.885 -0.635,-1.88 -0.635,-2.979 v -1.869 c 0,-1.102 0.211,-2.095 0.635,-2.976 0.421,-0.883 1.051,-1.57 1.889,-2.06 0.837,-0.491 1.842,-0.737 3.009,-0.737 1.188,0 2.193,0.246 3.027,0.737 0.827,0.49 1.456,1.177 1.881,2.06 0.428,0.88 0.643,1.874 0.643,2.976 v 1.869 z m -3.058,0 v -1.869 c 0,-0.964 -0.213,-1.73 -0.64,-2.29 -0.428,-0.563 -1.044,-0.846 -1.853,-0.846 -0.797,0 -1.41,0.282 -1.838,0.846 -0.427,0.56 -0.64,1.326 -0.64,2.29 v 1.869 c 0,0.968 0.218,1.731 0.647,2.294 0.43,0.558 1.042,0.841 1.832,0.841 0.803,0 1.417,-0.283 1.848,-0.841 0.428,-0.562 0.644,-1.326 0.644,-2.294 z"
   id="path3133"
   inkscape:connector-curvature="0"
   style="fill:#ffffff" />
			<path
   d="m 139.599,28.067 c 0,1.1 -0.213,2.095 -0.64,2.979 -0.424,0.877 -1.054,1.561 -1.884,2.061 -0.83,0.488 -1.838,0.731 -3.024,0.731 -1.167,0 -2.172,-0.243 -3.009,-0.731 -0.839,-0.5 -1.469,-1.184 -1.892,-2.061 -0.422,-0.885 -0.634,-1.88 -0.634,-2.979 v -1.869 c 0,-1.102 0.212,-2.095 0.634,-2.976 0.423,-0.883 1.053,-1.57 1.892,-2.06 0.837,-0.491 1.842,-0.737 3.009,-0.737 1.186,0 2.194,0.246 3.024,0.737 0.83,0.49 1.46,1.177 1.884,2.06 0.426,0.88 0.64,1.874 0.64,2.976 v 1.869 z m -3.056,0 v -1.869 c 0,-0.964 -0.211,-1.73 -0.638,-2.29 -0.428,-0.563 -1.044,-0.846 -1.854,-0.846 -0.798,0 -1.411,0.282 -1.838,0.846 -0.429,0.56 -0.642,1.326 -0.642,2.29 v 1.869 c 0,0.968 0.216,1.731 0.649,2.294 0.428,0.558 1.039,0.841 1.831,0.841 0.801,0 1.416,-0.283 1.846,-0.841 0.432,-0.562 0.646,-1.326 0.646,-2.294 z"
   id="path3135"
   inkscape:connector-curvature="0"
   style="fill:#ffffff" />
			<path
   d="m 144.999,33.17 c 0,0.124 -0.039,0.248 -0.123,0.34 -0.083,0.1 -0.188,0.144 -0.318,0.144 h -2.151 c -0.135,0 -0.244,-0.046 -0.333,-0.149 -0.086,-0.096 -0.13,-0.217 -0.13,-0.334 V 16.475 c 0,-0.111 0.045,-0.218 0.135,-0.317 0.093,-0.097 0.202,-0.146 0.329,-0.146 h 2.151 c 0.12,0 0.223,0.048 0.313,0.141 0.085,0.096 0.128,0.205 0.128,0.323 V 33.17 z"
   id="path3137"
   inkscape:connector-curvature="0"
   style="fill:#ffffff" />
		</g>
	</g>
	<g
   id="g3139">
		<g
   id="g3141">
			<path
   d="m 171.54,32.131 c 0,0.342 -0.17,0.51 -0.51,0.51 h -6.269 c -0.342,0 -0.513,-0.168 -0.513,-0.51 V 18.784 c 0,-0.341 0.171,-0.511 0.513,-0.511 h 1.238 c 0.34,0 0.51,0.17 0.51,0.511 v 11.812 h 4.521 c 0.34,0 0.51,0.17 0.51,0.51 v 1.025 z"
   id="path3143"
   inkscape:connector-curvature="0"
   style="fill:#ffffff" />
			<path
   d="m 180.389,27.523 c 0,0.342 -0.164,0.513 -0.489,0.513 h -5.16 c 0.041,0.954 0.233,1.641 0.575,2.069 0.382,0.499 1.015,0.746 1.897,0.746 0.538,0 1.215,-0.129 2.025,-0.385 0.056,-0.014 0.114,-0.021 0.17,-0.021 0.185,0 0.319,0.113 0.407,0.341 l 0.297,0.854 c 0.102,0.269 0,0.469 -0.297,0.598 -0.81,0.354 -1.758,0.531 -2.837,0.531 -1.451,0 -2.568,-0.451 -3.349,-1.354 -0.781,-0.901 -1.17,-2.228 -1.17,-3.975 0,-1.58 0.361,-2.847 1.087,-3.807 0.726,-0.96 1.697,-1.439 2.919,-1.439 2.617,0 3.925,1.778 3.925,5.329 z m -2.217,-1.043 c -0.058,-1.706 -0.612,-2.56 -1.663,-2.56 -1.024,0 -1.614,0.854 -1.77,2.56 h 3.433 z"
   id="path3145"
   inkscape:connector-curvature="0"
   style="fill:#ffffff" />
			<path
   d="m 189.793,32.15 c 0.069,0.329 -0.075,0.49 -0.428,0.49 h -1.11 c -0.298,0 -0.474,-0.161 -0.531,-0.49 l -0.129,-0.788 c -0.611,0.937 -1.578,1.407 -2.901,1.407 -0.88,0 -1.563,-0.277 -2.045,-0.832 -0.484,-0.554 -0.726,-1.327 -0.726,-2.323 0,-2.047 1.108,-3.147 3.326,-3.306 l 2.131,-0.148 c 0,-0.299 -0.014,-0.455 -0.042,-0.47 -0.028,-0.583 -0.156,-0.993 -0.382,-1.236 -0.225,-0.241 -0.659,-0.362 -1.295,-0.362 -0.551,0 -1.239,0.121 -2.057,0.362 -0.34,0.1 -0.544,-0.008 -0.616,-0.319 l -0.213,-0.94 c -0.069,-0.299 0.036,-0.489 0.321,-0.575 0.966,-0.284 1.862,-0.426 2.685,-0.426 1.578,0 2.653,0.447 3.22,1.343 0.372,0.583 0.555,1.479 0.555,2.687 v 3.584 c 0,0.779 0.035,1.348 0.107,1.704 l 0.13,0.638 z m -2.412,-2.962 v -1.492 l -1.214,0.044 c -1.351,0.041 -2.026,0.667 -2.026,1.875 0,0.909 0.396,1.364 1.194,1.364 0.567,0 1.059,-0.206 1.472,-0.617 0.384,-0.372 0.574,-0.761 0.574,-1.174 z"
   id="path3147"
   inkscape:connector-curvature="0"
   style="fill:#ffffff" />
			<path
   d="m 198.147,23.068 -0.319,1.195 c -0.084,0.325 -0.295,0.46 -0.635,0.404 -0.127,-0.015 -0.335,-0.08 -0.625,-0.192 -0.291,-0.113 -0.512,-0.171 -0.667,-0.171 -0.381,0 -0.692,0.221 -0.932,0.661 -0.284,0.499 -0.424,1.224 -0.424,2.177 v 5.008 c 0,0.329 -0.172,0.49 -0.518,0.49 h -1.183 c -0.345,0 -0.519,-0.161 -0.519,-0.49 v -9.338 c 0,-0.325 0.174,-0.489 0.513,-0.489 h 0.788 c 0.314,0 0.508,0.142 0.576,0.425 l 0.237,0.918 c 0.625,-0.98 1.419,-1.472 2.387,-1.472 1.038,0 1.478,0.293 1.321,0.874 z"
   id="path3149"
   inkscape:connector-curvature="0"
   style="fill:#ffffff" />
			<path
   d="m 207.081,32.15 c 0,0.329 -0.174,0.49 -0.519,0.49 h -1.203 c -0.331,0 -0.498,-0.161 -0.498,-0.49 v -6.843 c 0,-0.837 -0.365,-1.258 -1.092,-1.258 -0.576,0 -1.059,0.227 -1.451,0.683 -0.393,0.454 -0.59,1.023 -0.59,1.706 v 5.713 c 0,0.329 -0.165,0.49 -0.497,0.49 h -1.202 c -0.344,0 -0.518,-0.161 -0.518,-0.49 v -9.338 c 0,-0.325 0.168,-0.489 0.51,-0.489 h 0.833 c 0.297,0 0.474,0.136 0.533,0.405 l 0.192,0.875 c 0.839,-0.939 1.795,-1.408 2.876,-1.408 0.797,0 1.432,0.245 1.908,0.737 0.476,0.489 0.715,1.132 0.715,1.928 v 7.289 z"
   id="path3151"
   inkscape:connector-curvature="0"
   style="fill:#ffffff" />
			<path
   d="m 212.56,18.825 c 0,0.398 -0.138,0.736 -0.405,1.013 -0.27,0.277 -0.606,0.417 -1.001,0.417 -0.4,0 -0.729,-0.139 -0.993,-0.417 -0.263,-0.277 -0.394,-0.615 -0.394,-1.013 0,-0.397 0.13,-0.735 0.394,-1.01 0.264,-0.278 0.593,-0.417 0.993,-0.417 0.395,0 0.731,0.139 1.001,0.417 0.267,0.275 0.405,0.613 0.405,1.01 z m -0.254,13.325 c 0,0.329 -0.174,0.49 -0.517,0.49 h -1.185 c -0.346,0 -0.517,-0.161 -0.517,-0.49 v -9.338 c 0,-0.325 0.171,-0.489 0.517,-0.489 h 1.185 c 0.343,0 0.517,0.164 0.517,0.489 v 9.338 z"
   id="path3153"
   inkscape:connector-curvature="0"
   style="fill:#ffffff" />
			<path
   d="m 222.859,32.15 c 0,0.329 -0.174,0.49 -0.518,0.49 h -1.207 c -0.331,0 -0.494,-0.161 -0.494,-0.49 v -6.843 c 0,-0.837 -0.365,-1.258 -1.094,-1.258 -0.575,0 -1.061,0.227 -1.454,0.683 -0.391,0.454 -0.586,1.023 -0.586,1.706 v 5.713 c 0,0.329 -0.166,0.49 -0.496,0.49 h -1.205 c -0.344,0 -0.517,-0.161 -0.517,-0.49 v -9.338 c 0,-0.325 0.172,-0.489 0.513,-0.489 h 0.829 c 0.301,0 0.479,0.136 0.534,0.405 l 0.191,0.875 c 0.84,-0.939 1.798,-1.408 2.88,-1.408 0.794,0 1.43,0.245 1.908,0.737 0.475,0.489 0.715,1.132 0.715,1.928 v 7.289 z"
   id="path3155"
   inkscape:connector-curvature="0"
   style="fill:#ffffff" />
			<path
   d="m 233.561,33.558 c 0,1.165 -0.477,2.054 -1.43,2.665 -0.781,0.498 -1.748,0.747 -2.898,0.747 -1.222,0 -2.203,-0.212 -2.941,-0.64 -0.91,-0.527 -1.373,-1.33 -1.388,-2.41 0,-0.143 0.052,-0.262 0.149,-0.362 0.098,-0.099 0.221,-0.149 0.363,-0.149 l 1.193,0.044 c 0.271,0.014 0.435,0.17 0.49,0.468 0.142,0.84 0.875,1.259 2.196,1.259 0.669,0 1.204,-0.127 1.609,-0.384 0.406,-0.256 0.608,-0.598 0.608,-1.023 0,-0.825 -0.505,-1.236 -1.514,-1.236 h -2.111 c -1.605,0 -2.409,-0.582 -2.409,-1.749 0,-0.569 0.306,-1.143 0.917,-1.726 -0.994,-0.699 -1.493,-1.72 -1.493,-3.071 0,-1.18 0.356,-2.103 1.068,-2.771 0.71,-0.668 1.662,-1.003 2.854,-1.003 0.158,0 0.377,0.02 0.662,0.053 0.284,0.037 0.496,0.055 0.641,0.055 h 2.471 c 0.355,0 0.534,0.17 0.534,0.512 v 0.596 c 0,0.313 -0.137,0.482 -0.404,0.51 l -0.663,0.086 c 0.469,0.695 0.706,1.35 0.706,1.961 0,1.167 -0.356,2.085 -1.058,2.761 -0.702,0.678 -1.66,1.015 -2.867,1.015 -0.428,0 -0.771,-0.036 -1.043,-0.106 -0.199,0.195 -0.299,0.389 -0.299,0.574 0,0.355 0.318,0.533 0.957,0.533 h 1.834 c 1.01,0 1.807,0.24 2.389,0.723 0.584,0.484 0.877,1.172 0.877,2.068 z m -2.965,-7.61 c 0,-1.394 -0.583,-2.092 -1.748,-2.092 -0.553,0 -0.959,0.122 -1.214,0.364 -0.343,0.327 -0.513,0.903 -0.513,1.728 0,0.851 0.17,1.44 0.513,1.769 0.255,0.256 0.661,0.385 1.214,0.385 1.165,0 1.748,-0.719 1.748,-2.154 z"
   id="path3157"
   inkscape:connector-curvature="0"
   style="fill:#ffffff" />
			<path
   d="m 246.607,32.15 c 0.071,0.329 -0.071,0.49 -0.428,0.49 h -1.107 c -0.297,0 -0.475,-0.161 -0.533,-0.49 l -0.129,-0.788 c -0.609,0.937 -1.574,1.407 -2.898,1.407 -0.881,0 -1.564,-0.277 -2.045,-0.832 -0.484,-0.554 -0.727,-1.327 -0.727,-2.323 0,-2.047 1.108,-3.147 3.327,-3.306 l 2.132,-0.148 c 0,-0.299 -0.014,-0.455 -0.044,-0.47 -0.028,-0.583 -0.153,-0.993 -0.382,-1.236 -0.228,-0.241 -0.657,-0.362 -1.293,-0.362 -0.552,0 -1.238,0.121 -2.061,0.362 -0.338,0.1 -0.545,-0.008 -0.615,-0.319 l -0.211,-0.94 c -0.072,-0.299 0.035,-0.489 0.319,-0.575 0.968,-0.284 1.863,-0.426 2.687,-0.426 1.579,0 2.651,0.447 3.22,1.343 0.366,0.583 0.554,1.479 0.554,2.687 v 3.584 c 0,0.779 0.036,1.348 0.105,1.704 l 0.129,0.638 z m -2.408,-2.962 v -1.492 l -1.215,0.044 c -1.352,0.041 -2.027,0.667 -2.027,1.875 0,0.909 0.397,1.364 1.194,1.364 0.568,0 1.06,-0.206 1.472,-0.617 0.384,-0.372 0.576,-0.761 0.576,-1.174 z"
   id="path3159"
   inkscape:connector-curvature="0"
   style="fill:#ffffff" />
			<path
   d="m 256.712,32.15 c 0,0.329 -0.172,0.49 -0.517,0.49 h -1.205 c -0.328,0 -0.496,-0.161 -0.496,-0.49 v -6.843 c 0,-0.837 -0.364,-1.258 -1.093,-1.258 -0.575,0 -1.06,0.227 -1.451,0.683 -0.394,0.454 -0.59,1.023 -0.59,1.706 v 5.713 c 0,0.329 -0.165,0.49 -0.495,0.49 h -1.205 c -0.343,0 -0.517,-0.161 -0.517,-0.49 v -9.338 c 0,-0.325 0.17,-0.489 0.513,-0.489 h 0.83 c 0.299,0 0.476,0.136 0.533,0.405 l 0.191,0.875 c 0.84,-0.939 1.799,-1.408 2.879,-1.408 0.798,0 1.433,0.245 1.908,0.737 0.477,0.489 0.714,1.132 0.714,1.928 v 7.289 z"
   id="path3161"
   inkscape:connector-curvature="0"
   style="fill:#ffffff" />
			<path
   d="m 266.883,32.15 c 0,0.329 -0.17,0.49 -0.513,0.49 h -0.745 c -0.356,0 -0.568,-0.161 -0.641,-0.49 l -0.17,-0.852 c -0.525,0.98 -1.344,1.471 -2.45,1.471 -2.29,0 -3.435,-1.775 -3.435,-5.329 0,-1.906 0.385,-3.305 1.151,-4.201 0.599,-0.697 1.35,-1.045 2.26,-1.045 1.022,0 1.813,0.435 2.366,1.3 v -5.479 c 0,-0.327 0.164,-0.49 0.49,-0.49 h 1.173 c 0.343,0 0.513,0.163 0.513,0.49 V 32.15 z m -2.111,-4.627 c 0,-2.315 -0.583,-3.474 -1.748,-3.474 -0.583,0 -1.018,0.242 -1.302,0.726 -0.313,0.539 -0.467,1.45 -0.467,2.729 0,1.221 0.142,2.086 0.424,2.591 0.286,0.502 0.734,0.757 1.345,0.757 1.165,0 1.748,-1.11 1.748,-3.329 z"
   id="path3163"
   inkscape:connector-curvature="0"
   style="fill:#ffffff" />
			<path
   d="m 282.105,19.829 c 0,0.325 -0.164,0.49 -0.49,0.49 h -3.027 v 11.812 c 0,0.342 -0.171,0.51 -0.514,0.51 h -1.235 c -0.341,0 -0.511,-0.168 -0.511,-0.51 V 20.319 h -3.029 c -0.354,0 -0.531,-0.165 -0.531,-0.49 v -1.045 c 0,-0.341 0.177,-0.511 0.531,-0.511 h 8.316 c 0.326,0 0.49,0.17 0.49,0.511 v 1.045 z"
   id="path3165"
   inkscape:connector-curvature="0"
   style="fill:#ffffff" />
			<path
   d="m 290.803,27.523 c 0,0.342 -0.164,0.513 -0.49,0.513 h -5.16 c 0.045,0.954 0.236,1.641 0.576,2.069 0.385,0.499 1.016,0.746 1.898,0.746 0.541,0 1.215,-0.129 2.025,-0.385 0.057,-0.014 0.114,-0.021 0.171,-0.021 0.183,0 0.319,0.113 0.404,0.341 l 0.299,0.854 c 0.099,0.269 0,0.469 -0.299,0.598 -0.81,0.354 -1.755,0.531 -2.837,0.531 -1.447,0 -2.564,-0.451 -3.346,-1.354 -0.781,-0.901 -1.172,-2.228 -1.172,-3.975 0,-1.58 0.362,-2.847 1.086,-3.807 0.726,-0.959 1.7,-1.439 2.923,-1.439 2.613,0 3.922,1.778 3.922,5.329 z m -2.216,-1.043 c -0.058,-1.706 -0.613,-2.56 -1.665,-2.56 -1.021,0 -1.614,0.854 -1.77,2.56 h 3.435 z"
   id="path3167"
   inkscape:connector-curvature="0"
   style="fill:#ffffff" />
			<path
   d="m 300.206,32.15 c 0.068,0.329 -0.073,0.49 -0.428,0.49 h -1.108 c -0.299,0 -0.477,-0.161 -0.533,-0.49 l -0.128,-0.788 c -0.61,0.937 -1.577,1.407 -2.899,1.407 -0.883,0 -1.563,-0.277 -2.045,-0.832 -0.486,-0.554 -0.726,-1.327 -0.726,-2.323 0,-2.047 1.105,-3.147 3.323,-3.306 l 2.134,-0.148 c 0,-0.299 -0.015,-0.455 -0.045,-0.47 -0.026,-0.583 -0.153,-0.993 -0.381,-1.236 -0.226,-0.241 -0.658,-0.362 -1.294,-0.362 -0.551,0 -1.237,0.121 -2.059,0.362 -0.34,0.1 -0.545,-0.008 -0.615,-0.319 l -0.213,-0.94 c -0.07,-0.299 0.038,-0.489 0.322,-0.575 0.965,-0.284 1.859,-0.426 2.686,-0.426 1.577,0 2.65,0.447 3.219,1.343 0.369,0.583 0.553,1.479 0.553,2.687 v 3.584 c 0,0.779 0.037,1.348 0.107,1.704 l 0.13,0.638 z m -2.41,-2.962 v -1.492 l -1.216,0.044 c -1.352,0.041 -2.025,0.667 -2.025,1.875 0,0.909 0.396,1.364 1.195,1.364 0.567,0 1.059,-0.206 1.471,-0.617 0.382,-0.372 0.575,-0.761 0.575,-1.174 z"
   id="path3169"
   inkscape:connector-curvature="0"
   style="fill:#ffffff" />
			<path
   d="m 308.796,31.874 c 0.057,0.3 -0.056,0.498 -0.342,0.599 -0.583,0.196 -1.278,0.297 -2.089,0.297 -1.352,0 -2.402,-0.447 -3.155,-1.344 -0.796,-0.938 -1.192,-2.286 -1.192,-4.05 0,-1.507 0.398,-2.747 1.204,-3.719 0.804,-0.975 1.878,-1.462 3.229,-1.462 0.44,0 0.895,0.065 1.363,0.192 0.683,0.172 0.969,0.426 0.854,0.768 l -0.299,0.895 c -0.071,0.227 -0.198,0.343 -0.386,0.343 -0.142,0 -0.371,-0.052 -0.69,-0.149 -0.32,-0.103 -0.581,-0.15 -0.779,-0.15 -0.683,0 -1.22,0.284 -1.609,0.856 -0.392,0.568 -0.587,1.383 -0.587,2.436 0,2.282 0.773,3.424 2.325,3.424 0.452,0 0.923,-0.072 1.405,-0.213 0.329,-0.086 0.52,0.028 0.577,0.34 l 0.171,0.937 z"
   id="path3171"
   inkscape:connector-curvature="0"
   style="fill:#ffffff" />
			<path
   d="m 318.369,32.15 c 0,0.329 -0.173,0.49 -0.512,0.49 h -1.172 c -0.329,0 -0.492,-0.161 -0.492,-0.49 v -6.843 c 0,-0.837 -0.384,-1.258 -1.15,-1.258 -0.584,0 -1.074,0.227 -1.473,0.683 -0.398,0.454 -0.596,1.023 -0.596,1.706 v 5.713 c 0,0.329 -0.173,0.49 -0.513,0.49 h -1.151 c -0.338,0 -0.512,-0.161 -0.512,-0.49 V 18.015 c 0,-0.327 0.174,-0.49 0.512,-0.49 h 1.151 c 0.34,0 0.513,0.163 0.513,0.49 v 5.479 c 0.781,-0.866 1.707,-1.3 2.772,-1.3 0.796,0 1.431,0.245 1.908,0.737 0.474,0.489 0.714,1.132 0.714,1.928 v 7.291 z"
   id="path3173"
   inkscape:connector-curvature="0"
   style="fill:#ffffff" />
			<path
   d="m 323.849,18.825 c 0,0.398 -0.135,0.736 -0.405,1.013 -0.27,0.277 -0.604,0.417 -1.002,0.417 -0.396,0 -0.729,-0.139 -0.991,-0.417 -0.262,-0.278 -0.394,-0.615 -0.394,-1.013 0,-0.397 0.131,-0.735 0.394,-1.01 0.263,-0.278 0.595,-0.417 0.991,-0.417 0.398,0 0.732,0.139 1.002,0.417 0.27,0.275 0.405,0.613 0.405,1.01 z m -0.256,13.325 c 0,0.329 -0.172,0.49 -0.516,0.49 h -1.187 c -0.344,0 -0.516,-0.161 -0.516,-0.49 v -9.338 c 0,-0.325 0.172,-0.489 0.516,-0.489 h 1.187 c 0.344,0 0.516,0.164 0.516,0.489 v 9.338 z"
   id="path3175"
   inkscape:connector-curvature="0"
   style="fill:#ffffff" />
			<path
   d="m 334.145,32.15 c 0,0.329 -0.17,0.49 -0.516,0.49 h -1.207 c -0.329,0 -0.494,-0.161 -0.494,-0.49 v -6.843 c 0,-0.837 -0.363,-1.258 -1.093,-1.258 -0.576,0 -1.061,0.227 -1.452,0.683 -0.393,0.454 -0.588,1.023 -0.588,1.706 v 5.713 c 0,0.329 -0.168,0.49 -0.495,0.49 h -1.207 c -0.343,0 -0.517,-0.161 -0.517,-0.49 v -9.338 c 0,-0.325 0.172,-0.489 0.511,-0.489 h 0.833 c 0.299,0 0.476,0.136 0.533,0.405 l 0.193,0.875 c 0.838,-0.939 1.797,-1.408 2.877,-1.408 0.795,0 1.432,0.245 1.905,0.737 0.479,0.489 0.716,1.132 0.716,1.928 v 7.289 z"
   id="path3177"
   inkscape:connector-curvature="0"
   style="fill:#ffffff" />
			<path
   d="m 344.85,33.558 c 0,1.165 -0.478,2.054 -1.43,2.665 -0.781,0.498 -1.748,0.747 -2.9,0.747 -1.224,0 -2.203,-0.212 -2.941,-0.64 -0.91,-0.527 -1.371,-1.33 -1.385,-2.41 0,-0.143 0.049,-0.262 0.148,-0.362 0.1,-0.099 0.22,-0.149 0.363,-0.149 l 1.193,0.044 c 0.27,0.014 0.432,0.17 0.488,0.468 0.144,0.84 0.875,1.259 2.197,1.259 0.667,0 1.204,-0.127 1.609,-0.384 0.405,-0.256 0.609,-0.598 0.609,-1.023 0,-0.825 -0.508,-1.236 -1.516,-1.236 h -2.109 c -1.607,0 -2.411,-0.582 -2.411,-1.749 0,-0.569 0.306,-1.143 0.919,-1.726 -0.996,-0.699 -1.492,-1.72 -1.492,-3.071 0,-1.18 0.354,-2.103 1.065,-2.771 0.711,-0.668 1.663,-1.003 2.857,-1.003 0.155,0 0.376,0.02 0.661,0.053 0.281,0.037 0.496,0.055 0.637,0.055 h 2.475 c 0.354,0 0.535,0.17 0.535,0.512 v 0.596 c 0,0.313 -0.138,0.482 -0.408,0.51 l -0.662,0.086 c 0.472,0.695 0.706,1.35 0.706,1.961 0,1.167 -0.352,2.085 -1.056,2.761 -0.703,0.678 -1.66,1.015 -2.868,1.015 -0.426,0 -0.774,-0.036 -1.044,-0.106 -0.2,0.195 -0.298,0.389 -0.298,0.574 0,0.355 0.319,0.533 0.958,0.533 h 1.834 c 1.01,0 1.807,0.24 2.389,0.723 0.584,0.484 0.877,1.172 0.877,2.068 z m -2.965,-7.61 c 0,-1.394 -0.583,-2.092 -1.749,-2.092 -0.556,0 -0.958,0.122 -1.214,0.364 -0.341,0.327 -0.511,0.903 -0.511,1.728 0,0.851 0.17,1.44 0.511,1.769 0.256,0.256 0.658,0.385 1.214,0.385 1.166,0 1.749,-0.719 1.749,-2.154 z"
   id="path3179"
   inkscape:connector-curvature="0"
   style="fill:#ffffff" />
			<path
   d="m 360.667,31.98 c 0.043,0.129 0.064,0.234 0.064,0.318 0,0.23 -0.144,0.342 -0.429,0.342 h -1.555 c -0.326,0 -0.539,-0.148 -0.639,-0.446 -0.227,-0.726 -0.455,-1.458 -0.683,-2.196 -0.269,-0.811 -0.526,-1.447 -0.768,-1.921 -0.627,-1.192 -1.428,-1.789 -2.409,-1.789 h -0.874 v 5.862 c 0,0.329 -0.171,0.49 -0.513,0.49 h -1.235 c -0.343,0 -0.512,-0.161 -0.512,-0.49 V 18.784 c 0,-0.341 0.169,-0.511 0.512,-0.511 h 3.754 c 1.604,0 2.776,0.426 3.516,1.278 0.556,0.641 0.833,1.427 0.833,2.366 0,0.896 -0.242,1.651 -0.727,2.262 -0.523,0.667 -1.271,1.079 -2.238,1.234 -0.043,0.017 -0.1,0.023 -0.172,0.023 0.967,0.199 1.729,0.883 2.282,2.046 0.415,0.867 1.011,2.367 1.793,4.498 z m -3.24,-9.773 c 0,-0.559 -0.17,-1.017 -0.512,-1.374 -0.384,-0.399 -0.919,-0.602 -1.599,-0.602 h -1.94 v 4.223 h 1.705 c 0.726,0 1.296,-0.203 1.717,-0.612 0.418,-0.405 0.629,-0.952 0.629,-1.635 z"
   id="path3181"
   inkscape:connector-curvature="0"
   style="fill:#ffffff" />
			<path
   d="m 369.878,27.523 c 0,0.342 -0.163,0.513 -0.491,0.513 h -5.159 c 0.043,0.954 0.234,1.641 0.577,2.069 0.383,0.499 1.016,0.746 1.896,0.746 0.539,0 1.215,-0.129 2.023,-0.385 0.059,-0.014 0.114,-0.021 0.172,-0.021 0.186,0 0.322,0.113 0.404,0.341 l 0.301,0.854 c 0.098,0.269 0,0.469 -0.301,0.598 -0.808,0.354 -1.754,0.531 -2.834,0.531 -1.45,0 -2.564,-0.451 -3.348,-1.354 -0.78,-0.901 -1.176,-2.228 -1.176,-3.975 0,-1.58 0.364,-2.847 1.09,-3.807 0.725,-0.959 1.7,-1.439 2.922,-1.439 2.615,0 3.924,1.778 3.924,5.329 z M 367.66,26.48 c -0.058,-1.706 -0.612,-2.56 -1.664,-2.56 -1.021,0 -1.611,0.854 -1.769,2.56 h 3.433 z"
   id="path3183"
   inkscape:connector-curvature="0"
   style="fill:#ffffff" />
			<path
   d="m 378.152,29.699 c 0,0.867 -0.286,1.578 -0.854,2.133 -0.627,0.625 -1.492,0.938 -2.602,0.938 -1.11,0 -2.112,-0.207 -3.007,-0.619 -0.285,-0.125 -0.377,-0.34 -0.275,-0.638 l 0.275,-0.896 c 0.086,-0.255 0.227,-0.384 0.427,-0.384 0.071,0 0.136,0.017 0.194,0.043 0.935,0.396 1.717,0.598 2.342,0.598 0.854,0 1.28,-0.363 1.28,-1.089 0,-0.469 -0.364,-0.923 -1.089,-1.364 -1.348,-0.809 -2.031,-1.221 -2.045,-1.238 -0.725,-0.581 -1.088,-1.276 -1.088,-2.087 0,-0.868 0.292,-1.566 0.873,-2.1 0.583,-0.534 1.395,-0.8 2.432,-0.8 0.896,0 1.691,0.15 2.386,0.447 0.315,0.129 0.415,0.343 0.301,0.642 l -0.276,0.724 c -0.113,0.313 -0.306,0.419 -0.571,0.32 -0.722,-0.27 -1.302,-0.406 -1.737,-0.406 -0.792,0 -1.189,0.342 -1.189,1.024 0,0.383 0.367,0.796 1.104,1.235 1.131,0.669 1.803,1.097 2.016,1.279 0.734,0.627 1.103,1.373 1.103,2.238 z"
   id="path3185"
   inkscape:connector-curvature="0"
   style="fill:#ffffff" />
			<path
   d="m 387.976,27.46 c 0,1.649 -0.365,2.947 -1.097,3.892 -0.734,0.944 -1.758,1.418 -3.08,1.418 -1.324,0 -2.357,-0.471 -3.104,-1.407 -0.746,-0.938 -1.117,-2.239 -1.117,-3.902 0,-1.634 0.371,-2.919 1.117,-3.857 0.746,-0.939 1.779,-1.408 3.104,-1.408 1.307,0 2.33,0.469 3.068,1.408 0.738,0.937 1.109,2.222 1.109,3.856 z m -2.259,0 c 0,-2.288 -0.658,-3.432 -1.973,-3.432 -1.299,0 -1.949,1.144 -1.949,3.432 0,2.29 0.65,3.433 1.949,3.433 1.315,0 1.973,-1.143 1.973,-3.433 z"
   id="path3187"
   inkscape:connector-curvature="0"
   style="fill:#ffffff" />
			<path
   d="m 397.74,32.15 c 0,0.329 -0.162,0.49 -0.489,0.49 h -0.853 c -0.271,0 -0.441,-0.142 -0.513,-0.426 l -0.213,-0.896 c -0.91,0.967 -1.92,1.451 -3.028,1.451 -0.796,0 -1.431,-0.237 -1.905,-0.713 -0.478,-0.477 -0.716,-1.134 -0.716,-1.975 v -7.27 c 0,-0.325 0.17,-0.489 0.513,-0.489 h 1.193 c 0.342,0 0.512,0.164 0.512,0.489 v 6.887 c 0,0.811 0.38,1.217 1.144,1.217 0.634,0 1.149,-0.248 1.545,-0.736 0.396,-0.492 0.593,-1.17 0.593,-2.036 v -5.332 c 0,-0.325 0.173,-0.489 0.518,-0.489 h 1.206 c 0.33,0 0.494,0.164 0.494,0.489 v 9.339 z"
   id="path3189"
   inkscape:connector-curvature="0"
   style="fill:#ffffff" />
			<path
   d="m 406.332,23.068 -0.316,1.195 c -0.086,0.325 -0.297,0.46 -0.635,0.404 -0.129,-0.015 -0.337,-0.08 -0.627,-0.192 -0.291,-0.113 -0.512,-0.171 -0.668,-0.171 -0.383,0 -0.692,0.221 -0.932,0.661 -0.283,0.499 -0.426,1.224 -0.426,2.177 v 5.008 c 0,0.329 -0.174,0.49 -0.515,0.49 h -1.187 c -0.342,0 -0.514,-0.161 -0.514,-0.49 v -9.338 c 0,-0.325 0.17,-0.489 0.509,-0.489 h 0.79 c 0.312,0 0.506,0.142 0.576,0.425 l 0.234,0.918 c 0.624,-0.98 1.421,-1.472 2.388,-1.472 1.04,0 1.479,0.293 1.323,0.874 z"
   id="path3191"
   inkscape:connector-curvature="0"
   style="fill:#ffffff" />
			<path
   d="m 413.752,31.874 c 0.057,0.3 -0.056,0.498 -0.342,0.599 -0.582,0.196 -1.279,0.297 -2.088,0.297 -1.353,0 -2.404,-0.447 -3.156,-1.344 -0.795,-0.938 -1.193,-2.286 -1.193,-4.05 0,-1.507 0.4,-2.747 1.203,-3.719 0.803,-0.975 1.881,-1.462 3.23,-1.462 0.442,0 0.895,0.065 1.365,0.192 0.682,0.172 0.965,0.426 0.854,0.768 l -0.299,0.895 c -0.072,0.227 -0.2,0.343 -0.385,0.343 -0.143,0 -0.374,-0.052 -0.692,-0.149 -0.319,-0.103 -0.58,-0.15 -0.778,-0.15 -0.682,0 -1.221,0.284 -1.609,0.856 -0.392,0.568 -0.586,1.383 -0.586,2.436 0,2.282 0.772,3.424 2.323,3.424 0.452,0 0.925,-0.072 1.407,-0.213 0.328,-0.086 0.519,0.028 0.577,0.34 l 0.169,0.937 z"
   id="path3193"
   inkscape:connector-curvature="0"
   style="fill:#ffffff" />
			<path
   d="m 423.027,27.523 c 0,0.342 -0.167,0.513 -0.491,0.513 h -5.161 c 0.045,0.954 0.235,1.641 0.576,2.069 0.384,0.499 1.018,0.746 1.898,0.746 0.54,0 1.215,-0.129 2.025,-0.385 0.057,-0.014 0.111,-0.021 0.172,-0.021 0.182,0 0.318,0.113 0.404,0.341 l 0.297,0.854 c 0.102,0.269 0,0.469 -0.297,0.598 -0.812,0.354 -1.757,0.531 -2.837,0.531 -1.45,0 -2.563,-0.451 -3.348,-1.354 -0.781,-0.901 -1.173,-2.228 -1.173,-3.975 0,-1.58 0.361,-2.847 1.088,-3.807 0.727,-0.96 1.699,-1.439 2.922,-1.439 2.615,0 3.925,1.778 3.925,5.329 z m -2.218,-1.043 c -0.056,-1.706 -0.612,-2.56 -1.664,-2.56 -1.022,0 -1.612,0.854 -1.77,2.56 h 3.434 z"
   id="path3195"
   inkscape:connector-curvature="0"
   style="fill:#ffffff" />
			<path
   d="m 431.299,29.699 c 0,0.867 -0.285,1.578 -0.854,2.133 -0.627,0.625 -1.492,0.938 -2.6,0.938 -1.109,0 -2.112,-0.207 -3.007,-0.619 -0.285,-0.125 -0.378,-0.34 -0.276,-0.638 l 0.276,-0.896 c 0.085,-0.255 0.228,-0.384 0.425,-0.384 0.074,0 0.137,0.017 0.193,0.043 0.938,0.396 1.719,0.598 2.345,0.598 0.853,0 1.281,-0.363 1.281,-1.089 0,-0.469 -0.364,-0.923 -1.089,-1.364 -1.351,-0.809 -2.035,-1.221 -2.047,-1.238 -0.727,-0.581 -1.086,-1.276 -1.086,-2.087 0,-0.868 0.289,-1.566 0.872,-2.1 0.582,-0.534 1.394,-0.8 2.431,-0.8 0.895,0 1.691,0.15 2.387,0.447 0.314,0.129 0.413,0.343 0.3,0.642 l -0.276,0.724 c -0.113,0.313 -0.305,0.419 -0.57,0.32 -0.723,-0.27 -1.303,-0.406 -1.739,-0.406 -0.791,0 -1.188,0.342 -1.188,1.024 0,0.383 0.367,0.796 1.102,1.235 1.132,0.669 1.805,1.097 2.017,1.279 0.736,0.627 1.103,1.373 1.103,2.238 z"
   id="path3197"
   inkscape:connector-curvature="0"
   style="fill:#ffffff" />
		</g>
	</g>
</g>


<g
   transform="translate(-83.343755,-218.90625)"
   id="Layer_1-1"
   sodipodi:docname="canvas.svg"
   inkscape:version="0.48.4 r9939"><sodipodi:namedview
   inkscape:cy="27"
   objecttolerance="10"
   showgrid="false"
   guidetolerance="10"
   pagecolor="#ffffff"
   borderopacity="1"
   bordercolor="#666666"
   inkscape:zoom="0.65446224"
   gridtolerance="10"
   id="namedview106"
   inkscape:cx="218.5"
   inkscape:current-layer="Layer_1"
   inkscape:pageshadow="2"
   inkscape:window-maximized="0"
   inkscape:window-width="640"
   inkscape:window-y="0"
   inkscape:window-height="480"
   inkscape:pageopacity="0"
   inkscape:window-x="0" /><g
   style="display:none"
   id="Layer_1_1_"
   display="none" /><path
   style="fill:none;stroke:#010101;stroke-width:3"
   inkscape:connector-curvature="0"
   d="m 85.216,221.868 3.333,4 -0.333,94 c 0,0 0.333,6 7,6 6.667,0 80.667,-0.667 80.667,-0.667 0,0 5.667,1.666 6,-8.667 0.333,-10.333 0,-88.333 0,-88.333 0,0 1.333,-5 5.333,-4.333"
   id="path7" /><path
   style="fill:none;stroke:#010101;stroke-width:3"
   inkscape:connector-curvature="0"
   d="m 344.216,219.868 3.334,4 -0.334,94 c 0,0 0.334,6 7,6 6.668,0 80.668,-0.667 80.668,-0.667 0,0 5.666,1.666 6,-8.667 0.332,-10.333 0,-88.333 0,-88.333 0,0 1.332,-5 5.332,-4.333"
   id="path9" /><path
   style="fill:none;stroke:#010101;stroke-width:3"
   inkscape:connector-curvature="0"
   d="m 85.216,400.868 3.334,4 -0.334,94 c 0,0 0.334,6 7,6 6.668,0 80.668,-0.666 80.668,-0.666 0,0 5.666,1.666 6,-8.668 0.332,-10.332 0,-88.333 0,-88.333 0,0 1.332,-5 5.332,-4.333"
   id="path11" /><path
   style="fill:none;stroke:#010101;stroke-width:3"
   inkscape:connector-curvature="0"
   d="m 341.216,399.868 3.334,4 -0.334,94 c 0,0 0.334,6 7,6 6.668,0 80.668,-0.666 80.668,-0.666 0,0 5.666,1.666 6,-8.668 0.332,-10.332 0,-88.333 0,-88.333 0,0 1.332,-5 5.332,-4.333"
   id="path13" /><path
   style="fill:none;stroke:#010101;stroke-width:3"
   inkscape:connector-curvature="0"
   d="m 84.487,595.5 3.334,4 -0.334,94 c 0,0 0.334,6 7,6 6.668,0 80.668,-0.666 80.668,-0.666 0,0 5.666,1.666 6,-8.668 0.332,-10.332 0,-88.333 0,-88.333 0,0 1.332,-5 5.332,-4.333"
   id="path15" /><g
   id="g17"><path
     style="fill:#010101"
     inkscape:connector-curvature="0"
     d="m 108.883,309.201 c 7.333,-3 -1.333,-11 -6.333,-10 -6.333,1 -7,7.667 -6.667,13 0.333,6 4,11 11,10 9.667,-1.333 4.333,-8.667 2,-13.333"
     id="path19" /></g><g
   id="g21"><path
     style="fill:#010101"
     inkscape:connector-curvature="0"
     d="m 106.883,475.202 c 7.333,-3 -1.333,-11 -6.333,-10 -6.333,1 -7,7.666 -6.667,13 0.333,6 4,11 11,10 9.667,-1.334 4.333,-8.668 2,-13.334"
     id="path23" /></g><g
   id="g25"><path
     style="fill:#010101"
     inkscape:connector-curvature="0"
     d="m 141.383,461.702 c 7.333,-3 -1.333,-11 -6.333,-10 -6.333,1 -7,7.666 -6.667,13 0.333,6 4,11 11,10 9.667,-1.334 4.333,-8.668 2,-13.334"
     id="path27" /></g><g
   id="g29"><path
     style="fill:#010101"
     inkscape:connector-curvature="0"
     d="m 164.383,487.702 c 7.333,-3 -1.333,-11 -6.333,-10 -6.333,1 -7,7.666 -6.667,13 0.333,6 4,11 11,10 9.667,-1.334 4.333,-8.668 2,-13.334"
     id="path31" /></g><g
   id="g33"><path
     style="fill:#010101"
     inkscape:connector-curvature="0"
     d="m 113.107,666.702 c 7.333,-3 -1.333,-11 -6.333,-10 -6.333,1 -7,7.666 -6.667,13 0.333,6 4,11 11,10 9.667,-1.334 4.333,-8.668 2,-13.334"
     id="path35" /></g><g
   id="g37"><path
     style="fill:#010101"
     inkscape:connector-curvature="0"
     d="m 143.708,653.094 c 7.333,-3 -1.333,-11 -6.333,-10 -6.333,1 -7,7.666 -6.667,13 0.333,6 4,11 11,10 9.667,-1.334 4.333,-8.668 2,-13.334"
     id="path39" /></g><g
   id="g41"><path
     style="fill:#010101"
     inkscape:connector-curvature="0"
     d="m 161.294,681.309 c 7.333,-3 -1.333,-11 -6.333,-10 -6.333,1 -7,7.666 -6.667,13 0.333,6 4,11 11,10 9.667,-1.334 4.333,-8.668 2,-13.334"
     id="path43" /></g><g
   id="g45"><path
     style="fill:#010101"
     inkscape:connector-curvature="0"
     d="m 135.383,300.701 c 7.333,-3 -1.333,-11 -6.333,-10 -6.333,1 -7,7.667 -6.667,13 0.333,6 4,11 11,10 9.667,-1.333 4.333,-8.667 2,-13.333"
     id="path47" /></g><g
   id="g49"><path
     style="fill:#010101"
     inkscape:connector-curvature="0"
     d="m 366.884,304.201 c 7.332,-3 -1.334,-11 -6.334,-10 -6.334,1 -7,7.667 -6.666,13 0.332,6 4,11 11,10 9.666,-1.333 4.332,-8.667 2,-13.333"
     id="path51" /></g><g
   id="g53"><path
     style="fill:#010101"
     inkscape:connector-curvature="0"
     d="m 387.529,302.463 c 6.012,-2.482 -1.095,-9.104 -5.192,-8.276 -5.191,0.828 -5.738,6.345 -5.465,10.76 0.271,4.966 3.278,9.104 9.019,8.277 7.925,-1.104 3.552,-7.174 1.641,-11.036"
     id="path55" /></g><g
   id="g57"><path
     style="fill:#010101"
     inkscape:connector-curvature="0"
     d="m 419.029,308.464 c 6.011,-2.483 -1.095,-9.104 -5.192,-8.277 -5.192,0.828 -5.738,6.345 -5.466,10.76 0.271,4.966 3.279,9.104 9.02,8.277 7.925,-1.104 3.552,-7.173 1.641,-11.036"
     id="path59" /></g><g
   id="g61"><path
     style="fill:#010101"
     inkscape:connector-curvature="0"
     d="m 160.883,308.701 c 7.333,-3 -1.333,-11 -6.333,-10 -6.333,1 -7,7.667 -6.667,13 0.333,6 4,11 11,10 9.667,-1.333 4.333,-8.667 2,-13.333"
     id="path63" /></g><path
   style="fill:none;stroke:#010101"
   inkscape:connector-curvature="0"
   d="m 136.05,289.868 c -4.022,-0.115 -6.378,-5.653 -8.863,-8.1 -3.439,-3.388 -7.45,-5.617 -12.262,-5.898 -4.248,-0.249 -9.876,-0.685 -13.261,1.637 -1.84,1.264 -2.274,3.23 -3.979,4.957 -1.027,1.041 -4.743,2.9 -5.282,3.759 -2.021,3.218 -0.805,10.422 2.635,11.145 3.596,0.756 9.146,-3.391 12.649,-4.209 8.039,-1.879 21.051,3.097 26.863,-3.789"
   id="path65" /><path
   style="fill:none;stroke:#010101"
   inkscape:connector-curvature="0"
   d="m 136.55,289.868 c 3.822,-2.791 8.091,-2.456 12.54,-3.96 3.673,-1.242 7.634,-4.332 12.247,-2.439 3.144,1.288 6.093,5.847 9.34,7.735 4.688,2.728 4.854,4.96 4.186,10.615 -5.102,0.342 -11.115,-0.795 -16.345,-1.674 -2.347,-0.396 -3.72,-1.743 -6.494,-1.325 -2.385,0.359 -3.156,2.821 -6.387,1.851 -1.676,-3.161 -3.158,-3.904 -6.087,-6.039 -2.657,-1.935 -6.8,-5.048 -1.5,-7.263"
   id="path67" /><path
   style="fill:none;stroke:#010101"
   inkscape:connector-curvature="0"
   d="m 96.55,297.868 c -0.614,6.337 -6.869,10.266 -5.024,17.554 1.686,6.654 9.043,8.832 15.138,9.446 7.329,0.74 14.901,-0.366 22.263,0 8.798,0.439 13.451,-1.653 20.062,-7.901 0.395,6.612 5.902,7.637 11.577,8.014 5.467,0.362 6.752,-1.333 10.623,-5.363 2.361,-2.459 8.186,-5.928 7.369,-9.772 -1.13,-5.328 -8.571,-5.104 -12.447,-6.062 -1.218,-2.699 -15.074,-3.739 -18.568,-3.204 -1.5,0.229 -1.813,1.738 -4.115,1.286 -3.697,-0.727 -1.276,-1.502 -2.961,-3.66 -1.748,-2.238 -4.791,-5.951 -7.915,-5.859 -2.55,0.073 -4.353,3.067 -6.998,3.634 -3.404,0.729 -6.905,-0.369 -10.363,-0.724 -7.898,-0.808 -12.172,1.013 -19.139,3.611"
   id="path69" /><g
   id="g71"><g
     id="g73"><path
       style="fill:none"
       inkscape:connector-curvature="0"
       d="m 122.55,319.368 c 2,0 4,0 6.5,0 -1.5,0 -3,0 -4,0"
       id="path75" /><path
       style="fill:#010101"
       inkscape:connector-curvature="0"
       d="m 122.172,319.91 c 2.167,0 4.333,0 6.5,0 0.714,0 2.06,-1.084 0.755,-1.084 -1.333,0 -2.667,0 -4,0 -0.714,0 -2.06,1.084 -0.755,1.084 1.333,0 2.667,0 4,0 0.714,0 2.06,-1.084 0.755,-1.084 -2.167,0 -4.333,0 -6.5,0 -0.714,0 -2.06,1.084 -0.755,1.084 l 0,0 z"
       id="path77" /></g></g><g
   id="g79"><g
     id="g81"><path
       style="fill:none"
       inkscape:connector-curvature="0"
       d="m 115.55,303.368 c 1.5,0.5 3,0.5 4.5,0"
       id="path83" /><path
       style="fill:#010101"
       inkscape:connector-curvature="0"
       d="m 114.989,304.005 c 1.74,0.539 3.492,0.544 5.233,0.006 1.168,-0.362 0.838,-1.652 -0.345,-1.286 -1.279,0.396 -2.486,0.401 -3.768,0.005 -0.462,-0.144 -1.042,-0.002 -1.365,0.366 -0.289,0.329 -0.186,0.776 0.245,0.909 l 0,0 z"
       id="path85" /></g></g><g
   id="g87"><g
     id="g89"><line
       style="fill:none"
       x1="114.05"
       y1="281.86801"
       x2="114.55"
       y2="281.86801"
       id="line91" /><path
       style="fill:#010101"
       inkscape:connector-curvature="0"
       d="m 113.663,282.373 c 0.167,0 0.333,0 0.5,0 0.428,0 1.006,-0.152 1.279,-0.51 0.279,-0.364 -0.235,-0.501 -0.505,-0.501 -0.167,0 -0.333,0 -0.5,0 -0.428,0 -1.006,0.153 -1.279,0.51 -0.28,0.364 0.235,0.501 0.505,0.501 l 0,0 z"
       id="path93" /></g></g><g
   id="g95"><g
     id="g97"><path
       style="fill:none"
       inkscape:connector-curvature="0"
       d="m 123.55,284.868 c -2.5,-0.5 -5.5,0 -7.5,0.5"
       id="path99" /><path
       style="fill:#010101"
       inkscape:connector-curvature="0"
       d="m 124.135,284.318 c -2.755,-0.479 -5.527,-0.122 -8.224,0.531 -1.179,0.284 -0.891,1.318 0.276,1.036 2.21,-0.535 4.516,-0.861 6.776,-0.47 0.655,0.115 2.287,-0.903 1.172,-1.097 l 0,0 z"
       id="path101" /></g></g><g
   id="g103"><g
     id="g105"><path
       style="fill:none"
       inkscape:connector-curvature="0"
       d="m 101.05,288.868 c 2,-2.5 6.5,-2 8,-0.5"
       id="path107" /><path
       style="fill:#010101"
       inkscape:connector-curvature="0"
       d="m 101.852,289.13 c 1.556,-1.765 4.724,-1.777 6.449,-0.221 0.604,0.545 2.311,-0.35 1.498,-1.083 -2.557,-2.307 -7.364,-1.705 -9.551,0.779 -0.802,0.91 1.055,1.148 1.604,0.525 l 0,0 z"
       id="path109" /></g></g><g
   id="g111"><g
     id="g113"><path
       style="fill:none"
       inkscape:connector-curvature="0"
       d="m 150.55,288.868 c 2.5,0 5,1 6,2"
       id="path115" /><path
       style="fill:#010101"
       inkscape:connector-curvature="0"
       d="m 150.166,289.384 c 1.893,0.044 4.051,0.534 5.484,1.853 0.477,0.438 2.282,-0.293 1.8,-0.736 -1.706,-1.568 -4.271,-2.096 -6.516,-2.147 -0.685,-0.018 -2.073,1 -0.768,1.03 l 0,0 z"
       id="path117" /></g></g><g
   id="g119"><g
     id="g121"><path
       style="fill:none"
       inkscape:connector-curvature="0"
       d="m 169.05,307.868 c 0.5,1 1,2 1.5,3 -1,0 -2,0 -3,0"
       id="path123" /><path
       style="fill:#010101"
       inkscape:connector-curvature="0"
       d="m 168.084,308.127 c 0.5,1 1,2 1.5,3 0.531,-0.219 1.062,-0.437 1.592,-0.653 -1,0 -2,0 -3,0 -0.464,0 -0.97,0.116 -1.366,0.366 -0.301,0.188 -0.264,0.423 0.113,0.423 1,0 2,0 3,0 0.186,0 1.792,-0.253 1.592,-0.653 -0.5,-1 -1,-2 -1.5,-3 -0.238,-0.478 -2.087,0.204 -1.931,0.517 l 0,0 z"
       id="path125" /></g></g><g
   id="g127"><g
     id="g129"><path
       style="fill:none"
       inkscape:connector-curvature="0"
       d="m 142.55,306.868 c 1.5,3 1.5,6 -1.5,7"
       id="path131" /><path
       style="fill:#010101"
       inkscape:connector-curvature="0"
       d="m 141.584,307.127 c 0.997,2.084 1.854,5.245 -0.929,6.298 -1.258,0.476 -0.117,1.229 0.788,0.887 3.522,-1.332 3.508,-4.701 2.072,-7.702 -0.342,-0.718 -2.235,-0.118 -1.931,0.517 l 0,0 z"
       id="path133" /></g></g><g
   id="g135"><g
     id="g137"><path
       style="fill:none"
       inkscape:connector-curvature="0"
       d="m 117.05,313.368 c -0.5,0 -1,0 -1,-0.5"
       id="path139" /><path
       style="fill:#010101"
       inkscape:connector-curvature="0"
       d="m 117.442,312.885 c -0.27,-10e-4 -0.396,0.026 -0.427,-0.275 -0.051,-0.533 -1.995,-0.133 -1.932,0.519 0.071,0.741 1.014,0.724 1.572,0.725 0.424,0.001 1.004,-0.158 1.282,-0.501 0.292,-0.359 -0.245,-0.468 -0.495,-0.468 l 0,0 z"
       id="path141" /></g></g><line
   style="fill:none;stroke:#010101;stroke-width:2"
   x1="143.05"
   y1="299.36801"
   x2="198.55"
   y2="273.36801"
   id="line143" /><line
   style="fill:none;stroke:#010101"
   x1="89.050003"
   y1="448.86801"
   x2="181.05"
   y2="448.36801"
   id="line145" /><line
   style="fill:none;stroke:#010101"
   x1="344.04999"
   y1="448.86801"
   x2="436.04999"
   y2="448.36801"
   id="line147" /><line
   style="fill:none;stroke:#010101"
   x1="88.911003"
   y1="641.703"
   x2="180.911"
   y2="641.203"
   id="line149" /><line
   style="fill:none;stroke:#010101"
   x1="344.54999"
   y1="444.86801"
   x2="436.54999"
   y2="444.36801"
   id="line151" /><line
   style="fill:none;stroke:#010101;stroke-width:2"
   x1="140.55"
   y1="479.36801"
   x2="198.55"
   y2="467.36801"
   id="line153" /><line
   style="fill:none;stroke:#010101;stroke-width:2"
   x1="169.55"
   y1="672.22198"
   x2="227.55"
   y2="660.22198"
   id="line155" /><path
   style="fill:none;stroke:#010101;stroke-width:2"
   inkscape:connector-curvature="0"
   d="m 104.55,455.368 c 2.409,0 4.899,0.151 7.225,-0.226 0.603,-0.451 0.527,-0.709 -0.225,-0.774"
   id="path157" /><path
   style="fill:none;stroke:#010101;stroke-width:2"
   inkscape:connector-curvature="0"
   d="m 95.55,462.368 c 3.193,-0.802 6.141,-0.968 9.5,-1"
   id="path159" /><path
   style="fill:none;stroke:#010101;stroke-width:2"
   inkscape:connector-curvature="0"
   d="m 119.55,471.368 c 2.341,-0.24 4.631,0.272 6.91,0.487 -0.959,-0.09 -1.521,0.396 -2.41,0.513"
   id="path161" /><path
   style="fill:none;stroke:#010101;stroke-width:2"
   inkscape:connector-curvature="0"
   d="m 125.55,480.868 c 2.513,0.007 5.051,-0.056 7.545,0.075 -0.131,0.498 -0.479,0.807 -1.045,0.925"
   id="path163" /><path
   style="fill:none;stroke:#010101;stroke-width:2"
   inkscape:connector-curvature="0"
   d="m 121.05,494.868 c 2.875,0 5.808,0 8.646,0 -0.882,0 -1.764,0 -2.646,0"
   id="path165" /><path
   style="fill:none;stroke:#010101;stroke-width:2"
   inkscape:connector-curvature="0"
   d="m 96.05,492.368 c 4.701,-0.163 9.306,0.651 14,0.5"
   id="path167" /><path
   style="fill:none;stroke:#010101;stroke-width:2"
   inkscape:connector-curvature="0"
   d="m 153.05,465.368 c 2.333,0 4.667,0 7,0"
   id="path169" /><path
   style="fill:none;stroke:#010101;stroke-width:2"
   inkscape:connector-curvature="0"
   d="m 170.05,465.868 c 1.311,0 7.266,0 6,0"
   id="path171" /><path
   style="fill:none;stroke:#010101;stroke-width:2"
   inkscape:connector-curvature="0"
   d="m 169.55,478.368 c 1.332,1.25 3.853,1.121 5.5,1.5"
   id="path173" /><path
   style="fill:none;stroke:#010101;stroke-width:2"
   inkscape:connector-curvature="0"
   d="m 124.05,455.868 c 1.833,0 3.667,0 5.5,0"
   id="path175" /><path
   style="fill:none;stroke:#010101"
   inkscape:connector-curvature="0"
   d="m 397.55,289.868 c 4.479,2.248 5.246,6.739 10.498,8.002 3.684,0.885 7.247,0.616 10.894,1.998 3.91,1.482 16.635,5.974 16.632,-3.083 -0.002,-4.248 -5.155,-4.065 -8.063,-5.402 -2.777,-1.276 -4.742,-3.826 -7.184,-5.292 -8.521,-5.115 -13.909,1.686 -21.717,3.594 -5.956,1.457 -14.961,0.005 -21.173,-0.316 -4.117,-0.212 -12.688,-1.439 -16.304,0.474 -3.938,2.087 -5.696,7.509 -11.085,8.026"
   id="path177" /><path
   style="fill:none;stroke:#010101"
   inkscape:connector-curvature="0"
   d="m 407.55,298.368 c -7.305,4.23 -22.636,14.324 -8.488,19.488 9.091,3.318 16.289,4.792 25.864,2.525 5.271,-1.248 6.07,-1.635 8.959,-6.179 2.808,-4.416 4.063,-6.018 -1.199,-9.171 -3.465,-2.075 -7.646,-2.803 -11.14,-4.038 -5.117,-1.81 -9.302,-3.338 -14.938,-3.041 0.087,0.704 -0.271,0.6 -0.561,0.915"
   id="path179" /><path
   style="fill:none;stroke:#010101"
   inkscape:connector-curvature="0"
   d="m 350.55,297.868 c 0,2.56 0.404,5.49 0,8.014 -0.362,2.264 -1.948,4.437 -1.524,6.514 0.929,4.528 7.791,6.318 11.375,7.599 8.934,3.192 20.632,3.969 28.774,-1.866 4.519,-3.235 3.863,-7.861 7.459,-11.622 2.342,-2.448 10.226,-7.062 8.697,-11.426 -2.038,-5.83 -24.554,-6.495 -29.796,-6.713 -6.153,-0.256 -10.979,-0.588 -15.976,2.502 -3.711,2.296 -10.578,5.457 -9.512,10.498"
   id="path181" /><path
   style="fill:none"
   inkscape:connector-curvature="0"
   d="m 368.05,293.368 c 1.707,0.521 3.533,0.84 5,1.5"
   id="path183" /><path
   style="fill:none"
   inkscape:connector-curvature="0"
   d="m 372.55,305.868 c 2.312,1.071 3.148,3.539 2.5,6"
   id="path185" /><path
   style="fill:none"
   inkscape:connector-curvature="0"
   d="m 379.55,319.868 c 1.48,-0.719 2.975,-1.382 4.5,-2"
   id="path187" /><path
   style="fill:none;stroke:#010101"
   inkscape:connector-curvature="0"
   d="m 395.05,294.368 c 2.039,0.643 3.453,1.487 5.5,2"
   id="path189" /><path
   style="fill:none;stroke:#010101"
   inkscape:connector-curvature="0"
   d="m 370.55,294.868 c 0.833,0 1.667,0 2.5,0"
   id="path191" /><path
   style="fill:none;stroke:#010101"
   inkscape:connector-curvature="0"
   d="m 424.55,294.368 c 2.525,-0.466 4.817,0.363 4,2.5"
   id="path193" /><path
   style="fill:none;stroke:#010101"
   inkscape:connector-curvature="0"
   d="m 427.55,306.368 c 1.771,1.242 2.273,3.379 1.5,5.5"
   id="path195" /><path
   style="fill:none;stroke:#010101"
   inkscape:connector-curvature="0"
   d="m 373.55,314.868 c 0.833,0 1.667,0 2.5,0"
   id="path197" /><path
   style="fill:none;stroke:#010101"
   inkscape:connector-curvature="0"
   d="m 397.55,320.868 c 2.667,0 5.333,0 8,0"
   id="path199" /><path
   style="fill:none;stroke:#010101"
   inkscape:connector-curvature="0"
   d="m 402.05,308.868 c -1.455,-0.134 -2.724,-0.097 -3.85,0.625 2.581,1.469 4.97,3.555 7.35,4.875"
   id="path201" /><g
   id="g203"><path
     style="fill:#010101"
     inkscape:connector-curvature="0"
     d="m 365.55,477.868 c 0,5.5 1.5,11 -5.5,10.5 -5,-0.5 -8,-7 -7.5,-12 0.5,-4.5 4,-11 9.5,-9.5 7,2 1.5,7.5 2.5,12.5"
     id="path205" /></g><g
   id="g207"><path
     style="fill:#010101"
     inkscape:connector-curvature="0"
     d="m 402.55,463.368 c 0,5.5 1.5,11 -5.5,10.5 -5,-0.5 -8,-7 -7.5,-12 0.5,-4.5 4,-11 9.5,-9.5 7,2 1.5,7.5 2.5,12.5"
     id="path209" /></g><g
   id="g211"><path
     style="fill:#010101"
     inkscape:connector-curvature="0"
     d="m 421.55,490.368 c 0,5.5 1.5,11 -5.5,10.5 -5,-0.5 -8,-7 -7.5,-12 0.5,-4.5 4,-11 9.5,-9.5 7,2 1.5,7.5 2.5,12.5"
     id="path213" /></g><line
   style="fill:none;stroke:#010101;stroke-width:2"
   x1="394.54999"
   y1="300.86801"
   x2="452.04999"
   y2="271.86801"
   id="line215" /><path
   style="fill:none;stroke:#010101;stroke-width:2"
   inkscape:connector-curvature="0"
   d="m 360.05,454.868 c 2.333,0 4.667,0 7,0"
   id="path217" /><path
   style="fill:none;stroke:#010101;stroke-width:2"
   inkscape:connector-curvature="0"
   d="m 352.55,462.368 c 2.833,0 5.667,0 8.5,0"
   id="path219" /><path
   style="fill:none;stroke:#010101;stroke-width:2"
   inkscape:connector-curvature="0"
   d="m 375.55,471.868 c 2.928,-0.763 5.979,-0.491 9,-0.5"
   id="path221" /><path
   style="fill:none;stroke:#010101;stroke-width:2"
   inkscape:connector-curvature="0"
   d="m 382.55,484.368 c 2.65,0 5.302,0 7.952,0 -2.15,0 -4.302,0 -6.452,0"
   id="path223" /><path
   style="fill:none;stroke:#010101;stroke-width:2"
   inkscape:connector-curvature="0"
   d="m 357.05,493.868 c 1.667,0 3.333,0 5,0"
   id="path225" /><path
   style="fill:none;stroke:#010101;stroke-width:2"
   inkscape:connector-curvature="0"
   d="m 377.393,496.729 c 4.341,0.262 10.1,0.781 14.314,0.277"
   id="path227" /><path
   style="fill:none;stroke:#010101;stroke-width:2"
   inkscape:connector-curvature="0"
   d="m 409.05,463.368 c 2.217,-0.816 5.36,-0.5 8,-0.5"
   id="path229" /><path
   style="fill:none;stroke:#010101;stroke-width:2"
   inkscape:connector-curvature="0"
   d="m 426.55,465.868 c 1.833,0 3.667,0 5.5,0"
   id="path231" /><path
   style="fill:none;stroke:#010101;stroke-width:2"
   inkscape:connector-curvature="0"
   d="m 426.05,478.368 c 1.167,0 2.333,0 3.5,0"
   id="path233" /><line
   style="fill:none;stroke:#010101;stroke-width:2"
   x1="413.54999"
   y1="445.36801"
   x2="461.04999"
   y2="434.86801"
   id="line235" /><line
   style="fill:none;stroke:#010101;stroke-width:2"
   x1="398.54999"
   y1="477.86801"
   x2="461.04999"
   y2="467.36801"
   id="line237" /><text
   style="font-size:18px;fill:#010101;font-family:MyriadPro-Regular"
   transform="translate(204.2146,280.199)"
   font-size="18"
   id="text239">Seeds in</text>

<text
   style="font-size:18px;fill:#010101;font-family:MyriadPro-Regular"
   transform="translate(204.2146,301.7986)"
   font-size="18"
   id="text241">moist cotton</text>

<text
   style="font-size:18px;fill:#010101;font-family:MyriadPro-Regular"
   transform="translate(204.2146,323.4001)"
   font-size="18"
   id="text243">wool</text>

<text
   style="font-size:18px;fill:#010101;font-family:MyriadPro-Regular"
   transform="translate(457.2151,278.199)"
   font-size="18"
   id="text245">Seeds in</text>

<text
   style="font-size:18px;fill:#010101;font-family:MyriadPro-Regular"
   transform="translate(457.2151,299.8005)"
   font-size="18"
   id="text247">dry cotton</text>

<text
   style="font-size:18px;fill:#010101;font-family:MyriadPro-Regular"
   transform="translate(457.2151,321.4001)"
   font-size="18"
   id="text249">wool</text>

<text
   style="font-size:18px;fill:#010101;font-family:MyriadPro-Regular"
   transform="translate(202.8816,473.533)"
   font-size="18"
   id="text251">Seeds in</text>

<text
   style="font-size:18px;fill:#010101;font-family:MyriadPro-Regular"
   transform="translate(202.8816,495.1326)"
   font-size="18"
   id="text253">boiled water</text>

<text
   transform="translate(227.55,673.4998)"
   enable-background="new    "
   id="text255"><tspan
     style="font-size:18px;fill:#010101;font-family:MyriadPro-Regular"
     x="0"
     y="0"
     font-size="18"
     id="tspan257">Seeds in</tspan><tspan
     style="font-size:18px;fill:#010101;font-family:MyriadPro-Regular"
     x="0"
     y="21.6"
     font-size="18"
     id="tspan259">water</tspan></text>

<text
   style="font-size:18px;fill:#010101;font-family:MyriadPro-Regular"
   transform="translate(461.5491,473.533)"
   font-size="18"
   id="text261">Seeds in</text>

<text
   style="font-size:18px;fill:#010101;font-family:MyriadPro-Regular"
   transform="translate(461.5491,495.1326)"
   font-size="18"
   id="text263">boiled water</text>

<text
   style="font-size:18px;fill:#010101;font-family:MyriadPro-Regular"
   transform="translate(464.8811,440.199)"
   font-size="18"
   id="text265">oil</text>

<text
   style="font-size:18px;fill:#010101;font-family:MyriadPro-Regular"
   transform="translate(127.5481,349.533)"
   font-size="18"
   id="text267">P</text>

<text
   style="font-size:18px;fill:#010101;font-family:MyriadPro-Regular"
   transform="translate(385.5471,349.533)"
   font-size="18"
   id="text269">Q</text>

<text
   style="font-size:18px;fill:#010101;font-family:MyriadPro-Regular"
   transform="translate(126.8811,528.2009)"
   font-size="18"
   id="text271">R</text>

<text
   style="font-size:18px;fill:#010101;font-family:MyriadPro-Regular"
   transform="translate(129.05,725.2009)"
   font-size="18"
   id="text273">T</text>

<text
   style="font-size:18px;fill:#010101;font-family:MyriadPro-Regular"
   transform="translate(383.5471,528.8669)"
   font-size="18"
   id="text275">S</text>

</g><g
   transform="translate(-83.343755,-218.90625)"
   id="Layer_2"><path
     style="fill:none;stroke:#010101;stroke-width:2"
     inkscape:connector-curvature="0"
     d="m 103,692.5 c 2.5,0 5,0 7.5,0"
     id="path278" /><path
     style="fill:none;stroke:#010101;stroke-width:2"
     inkscape:connector-curvature="0"
     d="m 121,677.5 c 3.017,-0.245 5.708,0.696 8.5,1"
     id="path280" /><path
     style="fill:none;stroke:#010101;stroke-width:2"
     inkscape:connector-curvature="0"
     d="m 156.5,662 c 1.875,-2.17 5.273,-1.489 8,-1.5"
     id="path282" /><path
     style="fill:none;stroke:#010101;stroke-width:2"
     inkscape:connector-curvature="0"
     d="m 97,649.5 c 2.289,-1.024 6.559,-0.5 9.5,-0.5"
     id="path284" /><path
     style="fill:none;stroke:#010101;stroke-width:2"
     inkscape:connector-curvature="0"
     d="m 118,659.5 c 3.32,0.921 6.451,0.979 10,1"
     id="path286" /><path
     style="fill:none;stroke:#010101;stroke-width:2"
     inkscape:connector-curvature="0"
     d="m 132.5,672.5 c 3.667,0 7.333,0 11,0"
     id="path288" /><path
     style="fill:none;stroke:#010101;stroke-width:2"
     inkscape:connector-curvature="0"
     d="m 89,676.5 c 3.297,0.013 6.488,-0.214 9.5,1"
     id="path290" /><path
     style="fill:none;stroke:#010101;stroke-width:2"
     inkscape:connector-curvature="0"
     d="m 96.5,664 c -0.495,-0.188 -0.864,-0.536 -1,-1"
     id="path292" /><path
     style="fill:none;stroke:#010101;stroke-width:2"
     inkscape:connector-curvature="0"
     d="m 88,692 c 2.167,0 4.333,0 6.5,0"
     id="path294" /><path
     style="fill:none;stroke:#010101;stroke-width:2"
     inkscape:connector-curvature="0"
     d="m 89.5,658 c 0.996,-1.173 3.078,-1.389 5,-1"
     id="path296" /><path
     style="fill:none;stroke:#010101;stroke-width:2"
     inkscape:connector-curvature="0"
     d="m 154,650 c 2.333,0 4.667,0 7,0"
     id="path298" /><path
     style="fill:none;stroke:#010101;stroke-width:2"
     inkscape:connector-curvature="0"
     d="m 167,673 c 1.57,-0.243 3.461,-0.041 4.5,0.5"
     id="path300" /><path
     style="fill:none;stroke:#010101;stroke-width:2"
     inkscape:connector-curvature="0"
     d="m 126.5,689.5 c 3,0 6,0 9,0"
     id="path302" /><path
     style="fill:none;stroke:#010101;stroke-width:2"
     inkscape:connector-curvature="0"
     d="m 172,686.5 c 1.167,0 2.333,0 3.5,0"
     id="path304" /><path
     style="fill:none;stroke:#010101;stroke-width:2"
     inkscape:connector-curvature="0"
     d="m 106.5,686 c 1.538,-0.652 4.017,-0.355 6,-1"
     id="path306" /><path
     style="fill:none;stroke:#010101;stroke-width:2"
     inkscape:connector-curvature="0"
     d="m 116.5,650.5 c 2,0 4,0 6,0"
     id="path308" /><path
     style="fill:none;stroke:#010101;stroke-width:2"
     inkscape:connector-curvature="0"
     d="m 171.5,647.5 c 1.403,0.132 2.637,0.286 4,0.5"
     id="path310" /><path
     style="fill:none;stroke:#010101;stroke-width:2"
     inkscape:connector-curvature="0"
     d="m 173.5,658.5 c 1.016,0 3.801,0 5.5,0"
     id="path312" /><path
     style="fill:none;stroke:#010101;stroke-width:2"
     inkscape:connector-curvature="0"
     d="m 170,694.5 c 1,0 2,0 3,0"
     id="path314" /><path
     style="fill:none;stroke:#010101;stroke-width:2"
     inkscape:connector-curvature="0"
     d="m 140,694.5 c 2.197,-0.245 4.353,0.285 6.5,0.5"
     id="path316" /><path
     style="fill:none;stroke:#010101;stroke-width:2"
     inkscape:connector-curvature="0"
     d="m 104,654.5 c -0.936,0.682 0.238,0.563 1,0.5"
     id="path318" /><path
     style="fill:none;stroke:#010101;stroke-width:2"
     inkscape:connector-curvature="0"
     d="m 90,647.5 c 0.727,-2.256 3.751,-1.563 6,-1.5"
     id="path320" /><path
     style="fill:none;stroke:#010101;stroke-width:2"
     inkscape:connector-curvature="0"
     d="m 120,644.5 c 2,0 4,0 6,0"
     id="path322" /></g></svg>