<?xml version="1.0" encoding="UTF-8" standalone="no"?>
<!-- Generator: Adobe Illustrator 16.0.0, SVG Export Plug-In . SVG Version: 6.00 Build 0)  -->

<svg
   xmlns:dc="http://purl.org/dc/elements/1.1/"
   xmlns:cc="http://creativecommons.org/ns#"
   xmlns:rdf="http://www.w3.org/1999/02/22-rdf-syntax-ns#"
   xmlns:svg="http://www.w3.org/2000/svg"
   xmlns="http://www.w3.org/2000/svg"
   xmlns:xlink="http://www.w3.org/1999/xlink"
   xmlns:sodipodi="http://sodipodi.sourceforge.net/DTD/sodipodi-0.dtd"
   xmlns:inkscape="http://www.inkscape.org/namespaces/inkscape"
   version="1.0"
   id="Layer_1"
   x="0px"
   y="0px"
   viewBox="0 0 577.74987 328.125"
   enable-background="new 0 0 437 54"
   xml:space="preserve"
   inkscape:version="0.48.4 r9939"
   width="100%"
   height="100%"
   sodipodi:docname="canvas.svg"><metadata
   id="metadata110"><rdf:RDF><cc:Work
       rdf:about=""><dc:format>image/svg+xml</dc:format><dc:type
         rdf:resource="http://purl.org/dc/dcmitype/StillImage" /><dc:title></dc:title></cc:Work></rdf:RDF></metadata><defs
   id="defs108" /><sodipodi:namedview
   pagecolor="#ffffff"
   bordercolor="#666666"
   borderopacity="1"
   objecttolerance="10"
   gridtolerance="10"
   guidetolerance="10"
   inkscape:pageopacity="0"
   inkscape:pageshadow="2"
   inkscape:window-width="640"
   inkscape:window-height="480"
   id="namedview106"
   showgrid="false"
   inkscape:zoom="0.65446224"
   inkscape:cx="625.68328"
   inkscape:cy="58.12018"
   inkscape:window-x="0"
   inkscape:window-y="0"
   inkscape:window-maximized="0"
   inkscape:current-layer="Layer_1"
   fit-margin-top="0"
   fit-margin-left="0"
   fit-margin-right="0"
   fit-margin-bottom="0"
   showborder="false"
   inkscape:showpageshadow="false" />

<g
   transform="translate(-23.5,-229.40625)"
   id="g4"><g
     style="display:none"
     id="Layer_1_1_"
     display="none"><image
       id="image7"
       transform="matrix(1.8799,0,0,1.8799,25.3345,232.7329)"
       height="176"
       width="300"
       overflow="visible"
       display="inline"
       style="display:inline;overflow:visible"
       xlink:href="C:\Users\jmomanyi\Desktop\New SVGs\Science\SCIENCE 2010 IMAGES\D912FA3E.jpg" /><path
       style="fill:none;display:inline"
       inkscape:connector-curvature="0"
       display="inline"
       enable-background="new    "
       d=""
       id="path9" /><polyline
       style="fill:none;stroke:#010101;display:inline"
       display="inline"
       points="388.158,330.497 387.218,557.042 183.232,558.922   "
       id="polyline11" /></g><g
     id="Layer_2"><polygon
       style="fill:none;stroke:#010101"
       points="25.335,229.913 186.993,326.737 388.158,327.677 216.133,230.855 "
       id="polygon14" /><polyline
       style="fill:none;stroke:#010101"
       points="25.335,229.913 27.188,457.399 183.232,556.102 185.113,326.737   "
       id="polyline16" /><polyline
       style="fill:none;stroke:#010101"
       points="390.978,328.617 390.038,555.162 186.053,557.042   "
       id="polyline18" /><polyline
       style="fill:none;stroke:#010101"
       points="25.309,255.295 184.172,351.178 388.158,350.237   "
       id="polyline20" /><polyline
       style="fill:none;stroke:#010101"
       points="28.128,297.597 186.993,393.479 390.978,392.539   "
       id="polyline22" /><polyline
       style="fill:none;stroke:#010101"
       points="26.249,342.717 185.113,438.6 389.098,437.659   "
       id="polyline24" /><polyline
       style="fill:none;stroke:#010101"
       points="27.188,396.298 186.053,492.181 390.038,491.24   "
       id="polyline26" /><path
       style="fill:#333333;stroke:#010101;stroke-width:0.75"
       inkscape:connector-curvature="0"
       d="m 111.791,261.875 c -1.028,1.795 -3.758,5.007 -6.135,4.721 -2.252,-0.271 -2.521,-2.349 -3.976,-3.888 -3.169,-3.353 -8.923,-5.065 -8.609,-10.175 4.593,-1.236 14.027,-6.806 19.197,-4.298 2.653,1.288 2.04,4.359 4.104,6.718 2.264,2.587 5.416,2.266 4.756,6.851 -3.173,1.019 -6,-0.584 -9.339,0.542"
       id="path28" /><path
       style="fill:#333333;stroke:#010101;stroke-width:0.75"
       inkscape:connector-curvature="0"
       d="m 174.302,278.796 c -2.045,4.804 -3.181,9.59 -8.944,10.822 -2.833,0.605 -6.209,-0.206 -9.112,-0.012 -3.394,0.23 -6.456,1.151 -9.898,0.952 7.432,-2.299 5.62,-10.582 10.694,-14.216 2.488,-1.781 6.811,-2.025 10.224,-1.775 3.95,0.29 6.537,3.095 10.328,3.29"
       id="path30" /><path
       style="fill:#333333;stroke:#010101;stroke-width:0.75"
       inkscape:connector-curvature="0"
       d="m 195.923,244.015 c -3.986,0 -8.602,-0.477 -12.299,0.366 -3.902,0.888 -6.62,3.231 -10.713,4.063 1.724,2.106 6.071,2.657 8.572,4.867 2.552,2.258 4.247,5.629 7.405,7.127 2.911,1.379 4.745,1.063 7.73,-0.303 3.825,-1.752 4.995,-2.769 9.585,-3.019 -0.203,-3.897 -8.004,-12.204 -12.158,-13.103"
       id="path32" /><path
       style="fill:#333333;stroke:#010101;stroke-width:0.75"
       inkscape:connector-curvature="0"
       d="m 218.954,263.755 c 3.362,0.316 4.955,-3.346 7.615,-4.146 2.949,-0.888 6.278,0.616 8.885,1.773 2.544,1.128 5.33,2.414 7.61,4.659 1.98,1.95 2.983,4.561 5.484,5.599 -2.584,0.222 -6.383,-0.671 -8.822,0.203 -3.095,1.109 -3.678,3.014 -7.512,3.194 -7.125,0.337 -8.218,-5.824 -12.793,-10.34"
       id="path34" /><path
       style="fill:#333333;stroke:#010101;stroke-width:0.75"
       inkscape:connector-curvature="0"
       d="m 231.644,299.477 c 7.129,0.092 10.579,3.817 16.865,5.227 2.26,4.693 1.033,11.288 -1.827,15.548 -2.217,-5.495 -7.663,-3.711 -11.339,-7.979 -2.863,-3.328 -4.553,-9.034 -2.289,-13.268"
       id="path36" /><path
       style="fill:#333333;stroke:#010101;stroke-width:0.75"
       inkscape:connector-curvature="0"
       d="m 272.535,291.956 c 2.904,-2.579 12.016,-5.26 16.084,-3.807 6.126,2.188 5.963,10.098 10.199,13.365 -2.535,-0.874 -6.589,-1.173 -8.774,0.09 -10.033,7.524 -16.107,-1.519 -22.652,-9.346 1.994,-1.327 4.637,-2.129 7.025,-2.185"
       id="path38" /><path
       style="fill:#333333;stroke:#010101;stroke-width:0.75"
       inkscape:connector-curvature="0"
       d="m 321.887,300.887 c 13.901,-4.24 20.952,5.599 26.742,15.883 -6.842,0.502 -13.311,-0.545 -19.771,-2.702 -2.551,-0.852 -7.71,-2.974 -9.123,-5.272 -1.371,-2.229 -0.228,-5.952 -1.139,-8.381"
       id="path40" /><path
       style="fill:#333333;stroke:#010101;stroke-width:0.75"
       inkscape:connector-curvature="0"
       d="m 207.203,307.937 c -5.857,-0.971 -10.677,5.789 -16.829,3.089 -3.697,-1.622 -9.248,-10.005 -10.852,-13.334 2.091,-1.295 12.07,-0.892 14.965,-0.118 5.488,1.462 6.554,7.442 11.305,9.894"
       id="path42" /><line
       style="fill:none;stroke:#010101;stroke-width:2"
       x1="343.97699"
       y1="302.29599"
       x2="437.979"
       y2="282.242"
       id="line44" /><line
       style="fill:none;stroke:#010101;stroke-width:2"
       x1="384.711"
       y1="338.01801"
       x2="451.14001"
       y2="332.37701"
       id="line46" /><line
       style="fill:none;stroke:#010101;stroke-width:2"
       x1="388.47198"
       y1="373.73801"
       x2="437.979"
       y2="373.112"
       id="line48" /><line
       style="fill:none;stroke:#010101;stroke-width:2"
       x1="390.35199"
       y1="415.72699"
       x2="439.85901"
       y2="415.099"
       id="line50" /><line
       style="fill:none;stroke:#010101;stroke-width:2"
       x1="388.47198"
       y1="467.73999"
       x2="437.979"
       y2="467.116"
       id="line52" /><line
       style="fill:none;stroke:#010101;stroke-width:2"
       x1="389.10001"
       y1="529.78101"
       x2="438.60599"
       y2="529.15698"
       id="line54" /><text
       style="font-size:31.35149956px;fill:#010101;font-family:MyriadPro-Regular"
       transform="translate(454.2744,291.6396)"
       font-size="31.3515"
       id="text56">Dry leaves</text>
<text
       style="font-size:31.35149956px;fill:#010101;font-family:MyriadPro-Regular"
       transform="translate(459.2871,342.4004)"
       font-size="31.3515"
       id="text58">Top soil</text>
<text
       style="font-size:33.84090042px;fill:#010101;font-family:MyriadPro-Regular"
       transform="translate(455.5264,386.8989)"
       font-size="33.8409"
       id="text60">K</text>
<text
       style="font-size:33.84090042px;fill:#010101;font-family:MyriadPro-Regular"
       transform="translate(456.7803,428.8848)"
       font-size="33.8409"
       id="text62">L</text>
<text
       style="font-size:33.84090042px;fill:#010101;font-family:MyriadPro-Regular"
       transform="translate(455.5264,477.1426)"
       font-size="33.8409"
       id="text64">M</text>
<text
       style="font-size:33.84090042px;fill:#010101;font-family:MyriadPro-Regular"
       transform="translate(455.5264,543.5684)"
       font-size="33.8409"
       id="text66">N</text>
</g></g></svg>