<?xml version="1.0" encoding="UTF-8" standalone="no"?>
<!-- Generator: Adobe Illustrator 16.0.0, SVG Export Plug-In . SVG Version: 6.00 Build 0)  -->

<svg
   xmlns:dc="http://purl.org/dc/elements/1.1/"
   xmlns:cc="http://creativecommons.org/ns#"
   xmlns:rdf="http://www.w3.org/1999/02/22-rdf-syntax-ns#"
   xmlns:svg="http://www.w3.org/2000/svg"
   xmlns="http://www.w3.org/2000/svg"
   xmlns:sodipodi="http://sodipodi.sourceforge.net/DTD/sodipodi-0.dtd"
   xmlns:inkscape="http://www.inkscape.org/namespaces/inkscape"
   version="1.0"
   id="Layer_1"
   x="0px"
   y="0px"
   viewBox="0 0 189.9 130.65625"
   enable-background="new 0 0 437 54"
   xml:space="preserve"
   inkscape:version="0.48.4 r9939"
   width="100%"
   height="100%"
   sodipodi:docname="Qn45d.svg"><metadata
   id="metadata3203"><rdf:RDF><cc:Work
       rdf:about=""><dc:format>image/svg+xml</dc:format><dc:type
         rdf:resource="http://purl.org/dc/dcmitype/StillImage" /><dc:title></dc:title></cc:Work></rdf:RDF></metadata><defs
   id="defs3201" /><sodipodi:namedview
   pagecolor="#ffffff"
   bordercolor="#666666"
   borderopacity="1"
   objecttolerance="10"
   gridtolerance="10"
   guidetolerance="10"
   inkscape:pageopacity="0"
   inkscape:pageshadow="2"
   inkscape:window-width="1280"
   inkscape:window-height="716"
   id="namedview3199"
   showgrid="false"
   inkscape:zoom="1.7803204"
   inkscape:cx="95.04075"
   inkscape:cy="65.322746"
   inkscape:window-x="-8"
   inkscape:window-y="-8"
   inkscape:window-maximized="1"
   inkscape:current-layer="Layer_1"
   inkscape:snap-page="true"
   inkscape:showpageshadow="false"
   showborder="false"
   fit-margin-top="0"
   fit-margin-left="-0.1"
   fit-margin-right="0"
   fit-margin-bottom="0" />
<g
   id="Intel_Skoool_Logo"
   transform="translate(-123.45925,38.333504)">
	<g
   id="g3097">
		<g
   id="g3099">
			<g
   id="g3101">
				<g
   id="g3103">
					<path
   d="M 38.236,43.095 C 25.511,44.276 12.238,42.43 10.381,32.489 9.472,27.559 11.706,22.373 14.675,19.144 V 17.415 C 9.329,22.082 6.431,28.021 8.103,35.025 10.235,43.988 21.619,49.088 39,47.39 45.889,46.725 54.882,44.506 61.15,41.077 v -4.871 c -5.692,3.369 -15.076,6.169 -22.914,6.889 z M 71.771,17.297 C 68.758,2.539 40.137,1.619 21.676,12.86 v 1.238 C 40.11,4.616 66.251,4.674 68.63,18.25 c 0.808,4.493 -1.73,9.192 -6.241,11.873 v 3.517 c 5.434,-1.99 11.009,-8.445 9.382,-16.343 z"
   id="path3105"
   inkscape:connector-curvature="0"
   style="fill:#ffffff" />
					<path
   d="m 60.114,15.165 h -3.346 v 14.843 c 0,1.758 0.851,3.258 3.346,3.516 V 15.165 z"
   id="path3107"
   inkscape:connector-curvature="0"
   style="fill:#ffffff" />
					<path
   d="m 20.365,20.584 h -3.343 v 9.713 c 0,1.73 0.852,3.258 3.343,3.487 v -13.2 z"
   id="path3109"
   inkscape:connector-curvature="0"
   style="fill:#ffffff" />
					<rect
   x="17.021999"
   y="15.597"
   width="3.3310001"
   height="3.1700001"
   id="rect3111"
   style="fill:#ffffff" />
					<path
   d="m 40.354,33.64 c -2.694,0 -3.833,-1.874 -3.833,-3.718 V 17.009 h 3.3 v 3.575 h 2.494 v 2.681 h -2.494 v 6.456 c 0,0.748 0.346,1.151 1.138,1.151 h 1.356 v 2.768 h -1.961"
   id="path3113"
   inkscape:connector-curvature="0"
   style="fill:#ffffff" />
					<path
   d="m 46.45,28.136 c 0,1.7 1.066,2.941 2.926,2.941 1.469,0 2.192,-0.406 3.039,-1.241 l 2.049,1.959 c -1.312,1.268 -2.683,2.076 -5.118,2.076 -3.156,0 -6.196,-1.729 -6.196,-6.773 0,-4.295 2.666,-6.745 6.141,-6.745 3.531,0 5.563,2.852 5.563,6.6 v 1.183 H 46.45 m 2.679,-5.046 c -1.122,0 -2.001,0.579 -2.362,1.384 -0.215,0.463 -0.301,0.835 -0.316,1.412 h 5.101 C 51.48,24.474 50.845,23.09 49.129,23.09 z"
   id="path3115"
   inkscape:connector-curvature="0"
   style="fill:#ffffff" />
					<path
   d="m 29.359,23.265 c 0.966,0 1.367,0.459 1.367,1.239 v 9.165 h 3.315 v -9.195 c 0,-1.844 -0.993,-3.89 -3.904,-3.89 h -6.832 v 13.085 h 3.314 V 23.265 h 2.74 z"
   id="path3117"
   inkscape:connector-curvature="0"
   style="fill:#ffffff" />
				</g>
			</g>
			<g
   id="g3119">
				<path
   d="m 64.003,19.056 c -1.08,0 -1.944,-0.866 -1.944,-1.961 0,-1.066 0.864,-1.93 1.944,-1.93 1.082,0 1.96,0.864 1.96,1.93 0,1.095 -0.879,1.961 -1.96,1.961 z m 0,-3.574 c -0.894,0 -1.614,0.719 -1.614,1.612 0,0.925 0.72,1.645 1.614,1.645 0.894,0 1.643,-0.719 1.643,-1.645 0,-0.892 -0.75,-1.612 -1.643,-1.612 z m 0.865,2.794 h -0.36 c -0.043,0 -0.057,0 -0.073,-0.058 l -0.504,-0.834 c -0.014,0 -0.058,-0.028 -0.07,-0.028 0,0 -0.074,0 -0.144,0 -0.03,0 -0.06,0 -0.073,0 v 0.834 c 0,0.028 -0.028,0.085 -0.086,0.085 h -0.332 c -0.043,0 -0.086,-0.058 -0.086,-0.085 v -2.104 c 0,-0.144 0.043,-0.174 0.159,-0.201 0.114,-0.028 0.418,-0.028 0.59,-0.028 0.62,0 0.98,0.171 0.98,0.748 v 0.03 c 0,0.374 -0.187,0.547 -0.445,0.633 l 0.517,0.893 c 0,0 0.014,0.029 0.014,0.057 -0.001,0.032 -0.016,0.058 -0.087,0.058 z m -0.475,-1.671 c 0,-0.23 -0.144,-0.316 -0.462,-0.316 -0.042,0 -0.145,0 -0.214,0 -0.043,0 -0.073,0 -0.101,0 v 0.69 c 0.057,0 0.272,0 0.315,0 0.319,0 0.462,-0.115 0.462,-0.344 v -0.03 z"
   id="path3121"
   inkscape:connector-curvature="0"
   style="fill:#ffffff" />
			</g>
		</g>
		<path
   d="m 148.08,16.8 v 2.097 h -0.41 V 16.8 h -0.753 v -0.325 h 1.92 V 16.8 h -0.757 z m 3.509,2.097 v -2.015 h -0.017 l -0.791,2.015 h -0.252 l -0.796,-2.015 h -0.011 v 2.015 h -0.396 v -2.422 h 0.617 l 0.722,1.841 0.712,-1.841 h 0.611 v 2.422 h -0.399 z"
   id="path3123"
   inkscape:connector-curvature="0"
   style="fill:#ffffff" />
		<g
   id="g3125">
			<path
   d="m 84.086,31.344 c 0.709,0 1.178,-0.1 1.414,-0.275 0.236,-0.186 0.352,-0.43 0.352,-0.746 0,-0.267 -0.076,-0.488 -0.228,-0.663 -0.151,-0.181 -0.418,-0.385 -0.802,-0.618 l -3.167,-1.949 c -0.601,-0.369 -1.069,-0.826 -1.43,-1.38 -0.351,-0.551 -0.523,-1.153 -0.523,-1.809 0,-2.317 1.471,-3.477 4.407,-3.477 1.522,0 2.874,0.254 4.053,0.759 0.173,0.069 0.299,0.145 0.373,0.23 0.074,0.088 0.113,0.211 0.113,0.37 v 1.415 c 0,0.34 -0.163,0.463 -0.486,0.374 -1.353,-0.432 -2.595,-0.645 -3.724,-0.645 -0.591,0 -1.016,0.063 -1.282,0.191 -0.266,0.129 -0.395,0.352 -0.395,0.668 0,0.176 0.036,0.314 0.104,0.427 0.074,0.109 0.174,0.207 0.291,0.299 0.12,0.091 0.299,0.202 0.535,0.34 l 3.035,1.856 c 0.878,0.535 1.473,1.072 1.775,1.613 0.302,0.536 0.451,1.121 0.451,1.75 0,0.729 -0.166,1.383 -0.507,1.961 -0.339,0.566 -0.857,1.018 -1.549,1.335 -0.688,0.315 -1.514,0.471 -2.482,0.471 -1.534,0 -2.895,-0.251 -4.083,-0.753 -0.2,-0.104 -0.329,-0.194 -0.391,-0.282 -0.073,-0.083 -0.106,-0.198 -0.106,-0.323 v -1.412 c 0,-0.34 0.168,-0.468 0.497,-0.373 1.364,0.425 2.615,0.646 3.755,0.646 z"
   id="path3127"
   inkscape:connector-curvature="0"
   style="fill:#ffffff" />
			<path
   d="m 101.676,33.38 c 0,0.075 -0.032,0.146 -0.091,0.2 -0.058,0.047 -0.134,0.073 -0.225,0.073 h -2.829 c -0.113,0 -0.235,-0.044 -0.362,-0.144 -0.13,-0.092 -0.23,-0.207 -0.307,-0.315 l -3.644,-5.286 v 5.262 c 0,0.133 -0.045,0.258 -0.132,0.346 -0.087,0.098 -0.198,0.138 -0.336,0.138 h -2.125 c -0.135,0 -0.247,-0.046 -0.334,-0.149 -0.086,-0.096 -0.127,-0.217 -0.127,-0.334 V 16.475 c 0,-0.111 0.043,-0.218 0.132,-0.317 0.091,-0.097 0.203,-0.146 0.33,-0.146 h 2.125 c 0.13,0 0.238,0.046 0.331,0.135 0.091,0.091 0.137,0.201 0.137,0.329 v 9.666 l 3.96,-5.272 c 0.151,-0.188 0.331,-0.284 0.534,-0.284 h 2.602 c 0.227,0 0.337,0.083 0.337,0.249 0,0.077 -0.028,0.155 -0.088,0.238 l -4.652,5.725 4.696,6.398 c 0.043,0.068 0.068,0.13 0.068,0.184 z"
   id="path3129"
   inkscape:connector-curvature="0"
   style="fill:#ffffff" />
			<path
   d="m 113.632,28.067 c 0,1.1 -0.216,2.095 -0.641,2.979 -0.425,0.877 -1.053,1.561 -1.883,2.061 -0.83,0.488 -1.838,0.731 -3.023,0.731 -1.168,0 -2.173,-0.243 -3.012,-0.731 -0.837,-0.5 -1.468,-1.184 -1.889,-2.061 -0.423,-0.885 -0.634,-1.88 -0.634,-2.979 v -1.869 c 0,-1.102 0.211,-2.095 0.634,-2.976 0.421,-0.883 1.052,-1.57 1.889,-2.06 0.839,-0.491 1.844,-0.737 3.012,-0.737 1.185,0 2.193,0.246 3.023,0.737 0.831,0.49 1.458,1.177 1.883,2.06 0.425,0.88 0.641,1.874 0.641,2.976 v 1.869 z m -3.058,0 v -1.869 c 0,-0.964 -0.211,-1.73 -0.64,-2.29 -0.426,-0.563 -1.043,-0.846 -1.85,-0.846 -0.801,0 -1.416,0.282 -1.838,0.846 -0.429,0.56 -0.641,1.326 -0.641,2.29 v 1.869 c 0,0.968 0.214,1.731 0.646,2.294 0.426,0.558 1.039,0.841 1.833,0.841 0.8,0 1.413,-0.283 1.844,-0.841 0.433,-0.562 0.646,-1.326 0.646,-2.294 z"
   id="path3131"
   inkscape:connector-curvature="0"
   style="fill:#ffffff" />
			<path
   d="m 126.617,28.067 c 0,1.1 -0.215,2.095 -0.643,2.979 -0.425,0.877 -1.055,1.561 -1.881,2.061 -0.833,0.488 -1.839,0.731 -3.027,0.731 -1.167,0 -2.172,-0.243 -3.009,-0.731 -0.838,-0.5 -1.468,-1.184 -1.889,-2.061 -0.423,-0.885 -0.635,-1.88 -0.635,-2.979 v -1.869 c 0,-1.102 0.211,-2.095 0.635,-2.976 0.421,-0.883 1.051,-1.57 1.889,-2.06 0.837,-0.491 1.842,-0.737 3.009,-0.737 1.188,0 2.193,0.246 3.027,0.737 0.827,0.49 1.456,1.177 1.881,2.06 0.428,0.88 0.643,1.874 0.643,2.976 v 1.869 z m -3.058,0 v -1.869 c 0,-0.964 -0.213,-1.73 -0.64,-2.29 -0.428,-0.563 -1.044,-0.846 -1.853,-0.846 -0.797,0 -1.41,0.282 -1.838,0.846 -0.427,0.56 -0.64,1.326 -0.64,2.29 v 1.869 c 0,0.968 0.218,1.731 0.647,2.294 0.43,0.558 1.042,0.841 1.832,0.841 0.803,0 1.417,-0.283 1.848,-0.841 0.428,-0.562 0.644,-1.326 0.644,-2.294 z"
   id="path3133"
   inkscape:connector-curvature="0"
   style="fill:#ffffff" />
			<path
   d="m 139.599,28.067 c 0,1.1 -0.213,2.095 -0.64,2.979 -0.424,0.877 -1.054,1.561 -1.884,2.061 -0.83,0.488 -1.838,0.731 -3.024,0.731 -1.167,0 -2.172,-0.243 -3.009,-0.731 -0.839,-0.5 -1.469,-1.184 -1.892,-2.061 -0.422,-0.885 -0.634,-1.88 -0.634,-2.979 v -1.869 c 0,-1.102 0.212,-2.095 0.634,-2.976 0.423,-0.883 1.053,-1.57 1.892,-2.06 0.837,-0.491 1.842,-0.737 3.009,-0.737 1.186,0 2.194,0.246 3.024,0.737 0.83,0.49 1.46,1.177 1.884,2.06 0.426,0.88 0.64,1.874 0.64,2.976 v 1.869 z m -3.056,0 v -1.869 c 0,-0.964 -0.211,-1.73 -0.638,-2.29 -0.428,-0.563 -1.044,-0.846 -1.854,-0.846 -0.798,0 -1.411,0.282 -1.838,0.846 -0.429,0.56 -0.642,1.326 -0.642,2.29 v 1.869 c 0,0.968 0.216,1.731 0.649,2.294 0.428,0.558 1.039,0.841 1.831,0.841 0.801,0 1.416,-0.283 1.846,-0.841 0.432,-0.562 0.646,-1.326 0.646,-2.294 z"
   id="path3135"
   inkscape:connector-curvature="0"
   style="fill:#ffffff" />
			<path
   d="m 144.999,33.17 c 0,0.124 -0.039,0.248 -0.123,0.34 -0.083,0.1 -0.188,0.144 -0.318,0.144 h -2.151 c -0.135,0 -0.244,-0.046 -0.333,-0.149 -0.086,-0.096 -0.13,-0.217 -0.13,-0.334 V 16.475 c 0,-0.111 0.045,-0.218 0.135,-0.317 0.093,-0.097 0.202,-0.146 0.329,-0.146 h 2.151 c 0.12,0 0.223,0.048 0.313,0.141 0.085,0.096 0.128,0.205 0.128,0.323 V 33.17 z"
   id="path3137"
   inkscape:connector-curvature="0"
   style="fill:#ffffff" />
		</g>
	</g>
	<g
   id="g3139">
		<g
   id="g3141">
			<path
   d="m 171.54,32.131 c 0,0.342 -0.17,0.51 -0.51,0.51 h -6.269 c -0.342,0 -0.513,-0.168 -0.513,-0.51 V 18.784 c 0,-0.341 0.171,-0.511 0.513,-0.511 h 1.238 c 0.34,0 0.51,0.17 0.51,0.511 v 11.812 h 4.521 c 0.34,0 0.51,0.17 0.51,0.51 v 1.025 z"
   id="path3143"
   inkscape:connector-curvature="0"
   style="fill:#ffffff" />
			<path
   d="m 180.389,27.523 c 0,0.342 -0.164,0.513 -0.489,0.513 h -5.16 c 0.041,0.954 0.233,1.641 0.575,2.069 0.382,0.499 1.015,0.746 1.897,0.746 0.538,0 1.215,-0.129 2.025,-0.385 0.056,-0.014 0.114,-0.021 0.17,-0.021 0.185,0 0.319,0.113 0.407,0.341 l 0.297,0.854 c 0.102,0.269 0,0.469 -0.297,0.598 -0.81,0.354 -1.758,0.531 -2.837,0.531 -1.451,0 -2.568,-0.451 -3.349,-1.354 -0.781,-0.901 -1.17,-2.228 -1.17,-3.975 0,-1.58 0.361,-2.847 1.087,-3.807 0.726,-0.96 1.697,-1.439 2.919,-1.439 2.617,0 3.925,1.778 3.925,5.329 z m -2.217,-1.043 c -0.058,-1.706 -0.612,-2.56 -1.663,-2.56 -1.024,0 -1.614,0.854 -1.77,2.56 h 3.433 z"
   id="path3145"
   inkscape:connector-curvature="0"
   style="fill:#ffffff" />
			<path
   d="m 189.793,32.15 c 0.069,0.329 -0.075,0.49 -0.428,0.49 h -1.11 c -0.298,0 -0.474,-0.161 -0.531,-0.49 l -0.129,-0.788 c -0.611,0.937 -1.578,1.407 -2.901,1.407 -0.88,0 -1.563,-0.277 -2.045,-0.832 -0.484,-0.554 -0.726,-1.327 -0.726,-2.323 0,-2.047 1.108,-3.147 3.326,-3.306 l 2.131,-0.148 c 0,-0.299 -0.014,-0.455 -0.042,-0.47 -0.028,-0.583 -0.156,-0.993 -0.382,-1.236 -0.225,-0.241 -0.659,-0.362 -1.295,-0.362 -0.551,0 -1.239,0.121 -2.057,0.362 -0.34,0.1 -0.544,-0.008 -0.616,-0.319 l -0.213,-0.94 c -0.069,-0.299 0.036,-0.489 0.321,-0.575 0.966,-0.284 1.862,-0.426 2.685,-0.426 1.578,0 2.653,0.447 3.22,1.343 0.372,0.583 0.555,1.479 0.555,2.687 v 3.584 c 0,0.779 0.035,1.348 0.107,1.704 l 0.13,0.638 z m -2.412,-2.962 v -1.492 l -1.214,0.044 c -1.351,0.041 -2.026,0.667 -2.026,1.875 0,0.909 0.396,1.364 1.194,1.364 0.567,0 1.059,-0.206 1.472,-0.617 0.384,-0.372 0.574,-0.761 0.574,-1.174 z"
   id="path3147"
   inkscape:connector-curvature="0"
   style="fill:#ffffff" />
			<path
   d="m 198.147,23.068 -0.319,1.195 c -0.084,0.325 -0.295,0.46 -0.635,0.404 -0.127,-0.015 -0.335,-0.08 -0.625,-0.192 -0.291,-0.113 -0.512,-0.171 -0.667,-0.171 -0.381,0 -0.692,0.221 -0.932,0.661 -0.284,0.499 -0.424,1.224 -0.424,2.177 v 5.008 c 0,0.329 -0.172,0.49 -0.518,0.49 h -1.183 c -0.345,0 -0.519,-0.161 -0.519,-0.49 v -9.338 c 0,-0.325 0.174,-0.489 0.513,-0.489 h 0.788 c 0.314,0 0.508,0.142 0.576,0.425 l 0.237,0.918 c 0.625,-0.98 1.419,-1.472 2.387,-1.472 1.038,0 1.478,0.293 1.321,0.874 z"
   id="path3149"
   inkscape:connector-curvature="0"
   style="fill:#ffffff" />
			<path
   d="m 207.081,32.15 c 0,0.329 -0.174,0.49 -0.519,0.49 h -1.203 c -0.331,0 -0.498,-0.161 -0.498,-0.49 v -6.843 c 0,-0.837 -0.365,-1.258 -1.092,-1.258 -0.576,0 -1.059,0.227 -1.451,0.683 -0.393,0.454 -0.59,1.023 -0.59,1.706 v 5.713 c 0,0.329 -0.165,0.49 -0.497,0.49 h -1.202 c -0.344,0 -0.518,-0.161 -0.518,-0.49 v -9.338 c 0,-0.325 0.168,-0.489 0.51,-0.489 h 0.833 c 0.297,0 0.474,0.136 0.533,0.405 l 0.192,0.875 c 0.839,-0.939 1.795,-1.408 2.876,-1.408 0.797,0 1.432,0.245 1.908,0.737 0.476,0.489 0.715,1.132 0.715,1.928 v 7.289 z"
   id="path3151"
   inkscape:connector-curvature="0"
   style="fill:#ffffff" />
			<path
   d="m 212.56,18.825 c 0,0.398 -0.138,0.736 -0.405,1.013 -0.27,0.277 -0.606,0.417 -1.001,0.417 -0.4,0 -0.729,-0.139 -0.993,-0.417 -0.263,-0.277 -0.394,-0.615 -0.394,-1.013 0,-0.397 0.13,-0.735 0.394,-1.01 0.264,-0.278 0.593,-0.417 0.993,-0.417 0.395,0 0.731,0.139 1.001,0.417 0.267,0.275 0.405,0.613 0.405,1.01 z m -0.254,13.325 c 0,0.329 -0.174,0.49 -0.517,0.49 h -1.185 c -0.346,0 -0.517,-0.161 -0.517,-0.49 v -9.338 c 0,-0.325 0.171,-0.489 0.517,-0.489 h 1.185 c 0.343,0 0.517,0.164 0.517,0.489 v 9.338 z"
   id="path3153"
   inkscape:connector-curvature="0"
   style="fill:#ffffff" />
			<path
   d="m 222.859,32.15 c 0,0.329 -0.174,0.49 -0.518,0.49 h -1.207 c -0.331,0 -0.494,-0.161 -0.494,-0.49 v -6.843 c 0,-0.837 -0.365,-1.258 -1.094,-1.258 -0.575,0 -1.061,0.227 -1.454,0.683 -0.391,0.454 -0.586,1.023 -0.586,1.706 v 5.713 c 0,0.329 -0.166,0.49 -0.496,0.49 h -1.205 c -0.344,0 -0.517,-0.161 -0.517,-0.49 v -9.338 c 0,-0.325 0.172,-0.489 0.513,-0.489 h 0.829 c 0.301,0 0.479,0.136 0.534,0.405 l 0.191,0.875 c 0.84,-0.939 1.798,-1.408 2.88,-1.408 0.794,0 1.43,0.245 1.908,0.737 0.475,0.489 0.715,1.132 0.715,1.928 v 7.289 z"
   id="path3155"
   inkscape:connector-curvature="0"
   style="fill:#ffffff" />
			<path
   d="m 233.561,33.558 c 0,1.165 -0.477,2.054 -1.43,2.665 -0.781,0.498 -1.748,0.747 -2.898,0.747 -1.222,0 -2.203,-0.212 -2.941,-0.64 -0.91,-0.527 -1.373,-1.33 -1.388,-2.41 0,-0.143 0.052,-0.262 0.149,-0.362 0.098,-0.099 0.221,-0.149 0.363,-0.149 l 1.193,0.044 c 0.271,0.014 0.435,0.17 0.49,0.468 0.142,0.84 0.875,1.259 2.196,1.259 0.669,0 1.204,-0.127 1.609,-0.384 0.406,-0.256 0.608,-0.598 0.608,-1.023 0,-0.825 -0.505,-1.236 -1.514,-1.236 h -2.111 c -1.605,0 -2.409,-0.582 -2.409,-1.749 0,-0.569 0.306,-1.143 0.917,-1.726 -0.994,-0.699 -1.493,-1.72 -1.493,-3.071 0,-1.18 0.356,-2.103 1.068,-2.771 0.71,-0.668 1.662,-1.003 2.854,-1.003 0.158,0 0.377,0.02 0.662,0.053 0.284,0.037 0.496,0.055 0.641,0.055 h 2.471 c 0.355,0 0.534,0.17 0.534,0.512 v 0.596 c 0,0.313 -0.137,0.482 -0.404,0.51 l -0.663,0.086 c 0.469,0.695 0.706,1.35 0.706,1.961 0,1.167 -0.356,2.085 -1.058,2.761 -0.702,0.678 -1.66,1.015 -2.867,1.015 -0.428,0 -0.771,-0.036 -1.043,-0.106 -0.199,0.195 -0.299,0.389 -0.299,0.574 0,0.355 0.318,0.533 0.957,0.533 h 1.834 c 1.01,0 1.807,0.24 2.389,0.723 0.584,0.484 0.877,1.172 0.877,2.068 z m -2.965,-7.61 c 0,-1.394 -0.583,-2.092 -1.748,-2.092 -0.553,0 -0.959,0.122 -1.214,0.364 -0.343,0.327 -0.513,0.903 -0.513,1.728 0,0.851 0.17,1.44 0.513,1.769 0.255,0.256 0.661,0.385 1.214,0.385 1.165,0 1.748,-0.719 1.748,-2.154 z"
   id="path3157"
   inkscape:connector-curvature="0"
   style="fill:#ffffff" />
			<path
   d="m 246.607,32.15 c 0.071,0.329 -0.071,0.49 -0.428,0.49 h -1.107 c -0.297,0 -0.475,-0.161 -0.533,-0.49 l -0.129,-0.788 c -0.609,0.937 -1.574,1.407 -2.898,1.407 -0.881,0 -1.564,-0.277 -2.045,-0.832 -0.484,-0.554 -0.727,-1.327 -0.727,-2.323 0,-2.047 1.108,-3.147 3.327,-3.306 l 2.132,-0.148 c 0,-0.299 -0.014,-0.455 -0.044,-0.47 -0.028,-0.583 -0.153,-0.993 -0.382,-1.236 -0.228,-0.241 -0.657,-0.362 -1.293,-0.362 -0.552,0 -1.238,0.121 -2.061,0.362 -0.338,0.1 -0.545,-0.008 -0.615,-0.319 l -0.211,-0.94 c -0.072,-0.299 0.035,-0.489 0.319,-0.575 0.968,-0.284 1.863,-0.426 2.687,-0.426 1.579,0 2.651,0.447 3.22,1.343 0.366,0.583 0.554,1.479 0.554,2.687 v 3.584 c 0,0.779 0.036,1.348 0.105,1.704 l 0.129,0.638 z m -2.408,-2.962 v -1.492 l -1.215,0.044 c -1.352,0.041 -2.027,0.667 -2.027,1.875 0,0.909 0.397,1.364 1.194,1.364 0.568,0 1.06,-0.206 1.472,-0.617 0.384,-0.372 0.576,-0.761 0.576,-1.174 z"
   id="path3159"
   inkscape:connector-curvature="0"
   style="fill:#ffffff" />
			<path
   d="m 256.712,32.15 c 0,0.329 -0.172,0.49 -0.517,0.49 h -1.205 c -0.328,0 -0.496,-0.161 -0.496,-0.49 v -6.843 c 0,-0.837 -0.364,-1.258 -1.093,-1.258 -0.575,0 -1.06,0.227 -1.451,0.683 -0.394,0.454 -0.59,1.023 -0.59,1.706 v 5.713 c 0,0.329 -0.165,0.49 -0.495,0.49 h -1.205 c -0.343,0 -0.517,-0.161 -0.517,-0.49 v -9.338 c 0,-0.325 0.17,-0.489 0.513,-0.489 h 0.83 c 0.299,0 0.476,0.136 0.533,0.405 l 0.191,0.875 c 0.84,-0.939 1.799,-1.408 2.879,-1.408 0.798,0 1.433,0.245 1.908,0.737 0.477,0.489 0.714,1.132 0.714,1.928 v 7.289 z"
   id="path3161"
   inkscape:connector-curvature="0"
   style="fill:#ffffff" />
			<path
   d="m 266.883,32.15 c 0,0.329 -0.17,0.49 -0.513,0.49 h -0.745 c -0.356,0 -0.568,-0.161 -0.641,-0.49 l -0.17,-0.852 c -0.525,0.98 -1.344,1.471 -2.45,1.471 -2.29,0 -3.435,-1.775 -3.435,-5.329 0,-1.906 0.385,-3.305 1.151,-4.201 0.599,-0.697 1.35,-1.045 2.26,-1.045 1.022,0 1.813,0.435 2.366,1.3 v -5.479 c 0,-0.327 0.164,-0.49 0.49,-0.49 h 1.173 c 0.343,0 0.513,0.163 0.513,0.49 V 32.15 z m -2.111,-4.627 c 0,-2.315 -0.583,-3.474 -1.748,-3.474 -0.583,0 -1.018,0.242 -1.302,0.726 -0.313,0.539 -0.467,1.45 -0.467,2.729 0,1.221 0.142,2.086 0.424,2.591 0.286,0.502 0.734,0.757 1.345,0.757 1.165,0 1.748,-1.11 1.748,-3.329 z"
   id="path3163"
   inkscape:connector-curvature="0"
   style="fill:#ffffff" />
			<path
   d="m 282.105,19.829 c 0,0.325 -0.164,0.49 -0.49,0.49 h -3.027 v 11.812 c 0,0.342 -0.171,0.51 -0.514,0.51 h -1.235 c -0.341,0 -0.511,-0.168 -0.511,-0.51 V 20.319 h -3.029 c -0.354,0 -0.531,-0.165 -0.531,-0.49 v -1.045 c 0,-0.341 0.177,-0.511 0.531,-0.511 h 8.316 c 0.326,0 0.49,0.17 0.49,0.511 v 1.045 z"
   id="path3165"
   inkscape:connector-curvature="0"
   style="fill:#ffffff" />
			<path
   d="m 290.803,27.523 c 0,0.342 -0.164,0.513 -0.49,0.513 h -5.16 c 0.045,0.954 0.236,1.641 0.576,2.069 0.385,0.499 1.016,0.746 1.898,0.746 0.541,0 1.215,-0.129 2.025,-0.385 0.057,-0.014 0.114,-0.021 0.171,-0.021 0.183,0 0.319,0.113 0.404,0.341 l 0.299,0.854 c 0.099,0.269 0,0.469 -0.299,0.598 -0.81,0.354 -1.755,0.531 -2.837,0.531 -1.447,0 -2.564,-0.451 -3.346,-1.354 -0.781,-0.901 -1.172,-2.228 -1.172,-3.975 0,-1.58 0.362,-2.847 1.086,-3.807 0.726,-0.959 1.7,-1.439 2.923,-1.439 2.613,0 3.922,1.778 3.922,5.329 z m -2.216,-1.043 c -0.058,-1.706 -0.613,-2.56 -1.665,-2.56 -1.021,0 -1.614,0.854 -1.77,2.56 h 3.435 z"
   id="path3167"
   inkscape:connector-curvature="0"
   style="fill:#ffffff" />
			<path
   d="m 300.206,32.15 c 0.068,0.329 -0.073,0.49 -0.428,0.49 h -1.108 c -0.299,0 -0.477,-0.161 -0.533,-0.49 l -0.128,-0.788 c -0.61,0.937 -1.577,1.407 -2.899,1.407 -0.883,0 -1.563,-0.277 -2.045,-0.832 -0.486,-0.554 -0.726,-1.327 -0.726,-2.323 0,-2.047 1.105,-3.147 3.323,-3.306 l 2.134,-0.148 c 0,-0.299 -0.015,-0.455 -0.045,-0.47 -0.026,-0.583 -0.153,-0.993 -0.381,-1.236 -0.226,-0.241 -0.658,-0.362 -1.294,-0.362 -0.551,0 -1.237,0.121 -2.059,0.362 -0.34,0.1 -0.545,-0.008 -0.615,-0.319 l -0.213,-0.94 c -0.07,-0.299 0.038,-0.489 0.322,-0.575 0.965,-0.284 1.859,-0.426 2.686,-0.426 1.577,0 2.65,0.447 3.219,1.343 0.369,0.583 0.553,1.479 0.553,2.687 v 3.584 c 0,0.779 0.037,1.348 0.107,1.704 l 0.13,0.638 z m -2.41,-2.962 v -1.492 l -1.216,0.044 c -1.352,0.041 -2.025,0.667 -2.025,1.875 0,0.909 0.396,1.364 1.195,1.364 0.567,0 1.059,-0.206 1.471,-0.617 0.382,-0.372 0.575,-0.761 0.575,-1.174 z"
   id="path3169"
   inkscape:connector-curvature="0"
   style="fill:#ffffff" />
			<path
   d="m 308.796,31.874 c 0.057,0.3 -0.056,0.498 -0.342,0.599 -0.583,0.196 -1.278,0.297 -2.089,0.297 -1.352,0 -2.402,-0.447 -3.155,-1.344 -0.796,-0.938 -1.192,-2.286 -1.192,-4.05 0,-1.507 0.398,-2.747 1.204,-3.719 0.804,-0.975 1.878,-1.462 3.229,-1.462 0.44,0 0.895,0.065 1.363,0.192 0.683,0.172 0.969,0.426 0.854,0.768 l -0.299,0.895 c -0.071,0.227 -0.198,0.343 -0.386,0.343 -0.142,0 -0.371,-0.052 -0.69,-0.149 -0.32,-0.103 -0.581,-0.15 -0.779,-0.15 -0.683,0 -1.22,0.284 -1.609,0.856 -0.392,0.568 -0.587,1.383 -0.587,2.436 0,2.282 0.773,3.424 2.325,3.424 0.452,0 0.923,-0.072 1.405,-0.213 0.329,-0.086 0.52,0.028 0.577,0.34 l 0.171,0.937 z"
   id="path3171"
   inkscape:connector-curvature="0"
   style="fill:#ffffff" />
			<path
   d="m 318.369,32.15 c 0,0.329 -0.173,0.49 -0.512,0.49 h -1.172 c -0.329,0 -0.492,-0.161 -0.492,-0.49 v -6.843 c 0,-0.837 -0.384,-1.258 -1.15,-1.258 -0.584,0 -1.074,0.227 -1.473,0.683 -0.398,0.454 -0.596,1.023 -0.596,1.706 v 5.713 c 0,0.329 -0.173,0.49 -0.513,0.49 h -1.151 c -0.338,0 -0.512,-0.161 -0.512,-0.49 V 18.015 c 0,-0.327 0.174,-0.49 0.512,-0.49 h 1.151 c 0.34,0 0.513,0.163 0.513,0.49 v 5.479 c 0.781,-0.866 1.707,-1.3 2.772,-1.3 0.796,0 1.431,0.245 1.908,0.737 0.474,0.489 0.714,1.132 0.714,1.928 v 7.291 z"
   id="path3173"
   inkscape:connector-curvature="0"
   style="fill:#ffffff" />
			<path
   d="m 323.849,18.825 c 0,0.398 -0.135,0.736 -0.405,1.013 -0.27,0.277 -0.604,0.417 -1.002,0.417 -0.396,0 -0.729,-0.139 -0.991,-0.417 -0.262,-0.278 -0.394,-0.615 -0.394,-1.013 0,-0.397 0.131,-0.735 0.394,-1.01 0.263,-0.278 0.595,-0.417 0.991,-0.417 0.398,0 0.732,0.139 1.002,0.417 0.27,0.275 0.405,0.613 0.405,1.01 z m -0.256,13.325 c 0,0.329 -0.172,0.49 -0.516,0.49 h -1.187 c -0.344,0 -0.516,-0.161 -0.516,-0.49 v -9.338 c 0,-0.325 0.172,-0.489 0.516,-0.489 h 1.187 c 0.344,0 0.516,0.164 0.516,0.489 v 9.338 z"
   id="path3175"
   inkscape:connector-curvature="0"
   style="fill:#ffffff" />
			<path
   d="m 334.145,32.15 c 0,0.329 -0.17,0.49 -0.516,0.49 h -1.207 c -0.329,0 -0.494,-0.161 -0.494,-0.49 v -6.843 c 0,-0.837 -0.363,-1.258 -1.093,-1.258 -0.576,0 -1.061,0.227 -1.452,0.683 -0.393,0.454 -0.588,1.023 -0.588,1.706 v 5.713 c 0,0.329 -0.168,0.49 -0.495,0.49 h -1.207 c -0.343,0 -0.517,-0.161 -0.517,-0.49 v -9.338 c 0,-0.325 0.172,-0.489 0.511,-0.489 h 0.833 c 0.299,0 0.476,0.136 0.533,0.405 l 0.193,0.875 c 0.838,-0.939 1.797,-1.408 2.877,-1.408 0.795,0 1.432,0.245 1.905,0.737 0.479,0.489 0.716,1.132 0.716,1.928 v 7.289 z"
   id="path3177"
   inkscape:connector-curvature="0"
   style="fill:#ffffff" />
			<path
   d="m 344.85,33.558 c 0,1.165 -0.478,2.054 -1.43,2.665 -0.781,0.498 -1.748,0.747 -2.9,0.747 -1.224,0 -2.203,-0.212 -2.941,-0.64 -0.91,-0.527 -1.371,-1.33 -1.385,-2.41 0,-0.143 0.049,-0.262 0.148,-0.362 0.1,-0.099 0.22,-0.149 0.363,-0.149 l 1.193,0.044 c 0.27,0.014 0.432,0.17 0.488,0.468 0.144,0.84 0.875,1.259 2.197,1.259 0.667,0 1.204,-0.127 1.609,-0.384 0.405,-0.256 0.609,-0.598 0.609,-1.023 0,-0.825 -0.508,-1.236 -1.516,-1.236 h -2.109 c -1.607,0 -2.411,-0.582 -2.411,-1.749 0,-0.569 0.306,-1.143 0.919,-1.726 -0.996,-0.699 -1.492,-1.72 -1.492,-3.071 0,-1.18 0.354,-2.103 1.065,-2.771 0.711,-0.668 1.663,-1.003 2.857,-1.003 0.155,0 0.376,0.02 0.661,0.053 0.281,0.037 0.496,0.055 0.637,0.055 h 2.475 c 0.354,0 0.535,0.17 0.535,0.512 v 0.596 c 0,0.313 -0.138,0.482 -0.408,0.51 l -0.662,0.086 c 0.472,0.695 0.706,1.35 0.706,1.961 0,1.167 -0.352,2.085 -1.056,2.761 -0.703,0.678 -1.66,1.015 -2.868,1.015 -0.426,0 -0.774,-0.036 -1.044,-0.106 -0.2,0.195 -0.298,0.389 -0.298,0.574 0,0.355 0.319,0.533 0.958,0.533 h 1.834 c 1.01,0 1.807,0.24 2.389,0.723 0.584,0.484 0.877,1.172 0.877,2.068 z m -2.965,-7.61 c 0,-1.394 -0.583,-2.092 -1.749,-2.092 -0.556,0 -0.958,0.122 -1.214,0.364 -0.341,0.327 -0.511,0.903 -0.511,1.728 0,0.851 0.17,1.44 0.511,1.769 0.256,0.256 0.658,0.385 1.214,0.385 1.166,0 1.749,-0.719 1.749,-2.154 z"
   id="path3179"
   inkscape:connector-curvature="0"
   style="fill:#ffffff" />
			<path
   d="m 360.667,31.98 c 0.043,0.129 0.064,0.234 0.064,0.318 0,0.23 -0.144,0.342 -0.429,0.342 h -1.555 c -0.326,0 -0.539,-0.148 -0.639,-0.446 -0.227,-0.726 -0.455,-1.458 -0.683,-2.196 -0.269,-0.811 -0.526,-1.447 -0.768,-1.921 -0.627,-1.192 -1.428,-1.789 -2.409,-1.789 h -0.874 v 5.862 c 0,0.329 -0.171,0.49 -0.513,0.49 h -1.235 c -0.343,0 -0.512,-0.161 -0.512,-0.49 V 18.784 c 0,-0.341 0.169,-0.511 0.512,-0.511 h 3.754 c 1.604,0 2.776,0.426 3.516,1.278 0.556,0.641 0.833,1.427 0.833,2.366 0,0.896 -0.242,1.651 -0.727,2.262 -0.523,0.667 -1.271,1.079 -2.238,1.234 -0.043,0.017 -0.1,0.023 -0.172,0.023 0.967,0.199 1.729,0.883 2.282,2.046 0.415,0.867 1.011,2.367 1.793,4.498 z m -3.24,-9.773 c 0,-0.559 -0.17,-1.017 -0.512,-1.374 -0.384,-0.399 -0.919,-0.602 -1.599,-0.602 h -1.94 v 4.223 h 1.705 c 0.726,0 1.296,-0.203 1.717,-0.612 0.418,-0.405 0.629,-0.952 0.629,-1.635 z"
   id="path3181"
   inkscape:connector-curvature="0"
   style="fill:#ffffff" />
			<path
   d="m 369.878,27.523 c 0,0.342 -0.163,0.513 -0.491,0.513 h -5.159 c 0.043,0.954 0.234,1.641 0.577,2.069 0.383,0.499 1.016,0.746 1.896,0.746 0.539,0 1.215,-0.129 2.023,-0.385 0.059,-0.014 0.114,-0.021 0.172,-0.021 0.186,0 0.322,0.113 0.404,0.341 l 0.301,0.854 c 0.098,0.269 0,0.469 -0.301,0.598 -0.808,0.354 -1.754,0.531 -2.834,0.531 -1.45,0 -2.564,-0.451 -3.348,-1.354 -0.78,-0.901 -1.176,-2.228 -1.176,-3.975 0,-1.58 0.364,-2.847 1.09,-3.807 0.725,-0.959 1.7,-1.439 2.922,-1.439 2.615,0 3.924,1.778 3.924,5.329 z M 367.66,26.48 c -0.058,-1.706 -0.612,-2.56 -1.664,-2.56 -1.021,0 -1.611,0.854 -1.769,2.56 h 3.433 z"
   id="path3183"
   inkscape:connector-curvature="0"
   style="fill:#ffffff" />
			<path
   d="m 378.152,29.699 c 0,0.867 -0.286,1.578 -0.854,2.133 -0.627,0.625 -1.492,0.938 -2.602,0.938 -1.11,0 -2.112,-0.207 -3.007,-0.619 -0.285,-0.125 -0.377,-0.34 -0.275,-0.638 l 0.275,-0.896 c 0.086,-0.255 0.227,-0.384 0.427,-0.384 0.071,0 0.136,0.017 0.194,0.043 0.935,0.396 1.717,0.598 2.342,0.598 0.854,0 1.28,-0.363 1.28,-1.089 0,-0.469 -0.364,-0.923 -1.089,-1.364 -1.348,-0.809 -2.031,-1.221 -2.045,-1.238 -0.725,-0.581 -1.088,-1.276 -1.088,-2.087 0,-0.868 0.292,-1.566 0.873,-2.1 0.583,-0.534 1.395,-0.8 2.432,-0.8 0.896,0 1.691,0.15 2.386,0.447 0.315,0.129 0.415,0.343 0.301,0.642 l -0.276,0.724 c -0.113,0.313 -0.306,0.419 -0.571,0.32 -0.722,-0.27 -1.302,-0.406 -1.737,-0.406 -0.792,0 -1.189,0.342 -1.189,1.024 0,0.383 0.367,0.796 1.104,1.235 1.131,0.669 1.803,1.097 2.016,1.279 0.734,0.627 1.103,1.373 1.103,2.238 z"
   id="path3185"
   inkscape:connector-curvature="0"
   style="fill:#ffffff" />
			<path
   d="m 387.976,27.46 c 0,1.649 -0.365,2.947 -1.097,3.892 -0.734,0.944 -1.758,1.418 -3.08,1.418 -1.324,0 -2.357,-0.471 -3.104,-1.407 -0.746,-0.938 -1.117,-2.239 -1.117,-3.902 0,-1.634 0.371,-2.919 1.117,-3.857 0.746,-0.939 1.779,-1.408 3.104,-1.408 1.307,0 2.33,0.469 3.068,1.408 0.738,0.937 1.109,2.222 1.109,3.856 z m -2.259,0 c 0,-2.288 -0.658,-3.432 -1.973,-3.432 -1.299,0 -1.949,1.144 -1.949,3.432 0,2.29 0.65,3.433 1.949,3.433 1.315,0 1.973,-1.143 1.973,-3.433 z"
   id="path3187"
   inkscape:connector-curvature="0"
   style="fill:#ffffff" />
			<path
   d="m 397.74,32.15 c 0,0.329 -0.162,0.49 -0.489,0.49 h -0.853 c -0.271,0 -0.441,-0.142 -0.513,-0.426 l -0.213,-0.896 c -0.91,0.967 -1.92,1.451 -3.028,1.451 -0.796,0 -1.431,-0.237 -1.905,-0.713 -0.478,-0.477 -0.716,-1.134 -0.716,-1.975 v -7.27 c 0,-0.325 0.17,-0.489 0.513,-0.489 h 1.193 c 0.342,0 0.512,0.164 0.512,0.489 v 6.887 c 0,0.811 0.38,1.217 1.144,1.217 0.634,0 1.149,-0.248 1.545,-0.736 0.396,-0.492 0.593,-1.17 0.593,-2.036 v -5.332 c 0,-0.325 0.173,-0.489 0.518,-0.489 h 1.206 c 0.33,0 0.494,0.164 0.494,0.489 v 9.339 z"
   id="path3189"
   inkscape:connector-curvature="0"
   style="fill:#ffffff" />
			<path
   d="m 406.332,23.068 -0.316,1.195 c -0.086,0.325 -0.297,0.46 -0.635,0.404 -0.129,-0.015 -0.337,-0.08 -0.627,-0.192 -0.291,-0.113 -0.512,-0.171 -0.668,-0.171 -0.383,0 -0.692,0.221 -0.932,0.661 -0.283,0.499 -0.426,1.224 -0.426,2.177 v 5.008 c 0,0.329 -0.174,0.49 -0.515,0.49 h -1.187 c -0.342,0 -0.514,-0.161 -0.514,-0.49 v -9.338 c 0,-0.325 0.17,-0.489 0.509,-0.489 h 0.79 c 0.312,0 0.506,0.142 0.576,0.425 l 0.234,0.918 c 0.624,-0.98 1.421,-1.472 2.388,-1.472 1.04,0 1.479,0.293 1.323,0.874 z"
   id="path3191"
   inkscape:connector-curvature="0"
   style="fill:#ffffff" />
			<path
   d="m 413.752,31.874 c 0.057,0.3 -0.056,0.498 -0.342,0.599 -0.582,0.196 -1.279,0.297 -2.088,0.297 -1.353,0 -2.404,-0.447 -3.156,-1.344 -0.795,-0.938 -1.193,-2.286 -1.193,-4.05 0,-1.507 0.4,-2.747 1.203,-3.719 0.803,-0.975 1.881,-1.462 3.23,-1.462 0.442,0 0.895,0.065 1.365,0.192 0.682,0.172 0.965,0.426 0.854,0.768 l -0.299,0.895 c -0.072,0.227 -0.2,0.343 -0.385,0.343 -0.143,0 -0.374,-0.052 -0.692,-0.149 -0.319,-0.103 -0.58,-0.15 -0.778,-0.15 -0.682,0 -1.221,0.284 -1.609,0.856 -0.392,0.568 -0.586,1.383 -0.586,2.436 0,2.282 0.772,3.424 2.323,3.424 0.452,0 0.925,-0.072 1.407,-0.213 0.328,-0.086 0.519,0.028 0.577,0.34 l 0.169,0.937 z"
   id="path3193"
   inkscape:connector-curvature="0"
   style="fill:#ffffff" />
			<path
   d="m 423.027,27.523 c 0,0.342 -0.167,0.513 -0.491,0.513 h -5.161 c 0.045,0.954 0.235,1.641 0.576,2.069 0.384,0.499 1.018,0.746 1.898,0.746 0.54,0 1.215,-0.129 2.025,-0.385 0.057,-0.014 0.111,-0.021 0.172,-0.021 0.182,0 0.318,0.113 0.404,0.341 l 0.297,0.854 c 0.102,0.269 0,0.469 -0.297,0.598 -0.812,0.354 -1.757,0.531 -2.837,0.531 -1.45,0 -2.563,-0.451 -3.348,-1.354 -0.781,-0.901 -1.173,-2.228 -1.173,-3.975 0,-1.58 0.361,-2.847 1.088,-3.807 0.727,-0.96 1.699,-1.439 2.922,-1.439 2.615,0 3.925,1.778 3.925,5.329 z m -2.218,-1.043 c -0.056,-1.706 -0.612,-2.56 -1.664,-2.56 -1.022,0 -1.612,0.854 -1.77,2.56 h 3.434 z"
   id="path3195"
   inkscape:connector-curvature="0"
   style="fill:#ffffff" />
			<path
   d="m 431.299,29.699 c 0,0.867 -0.285,1.578 -0.854,2.133 -0.627,0.625 -1.492,0.938 -2.6,0.938 -1.109,0 -2.112,-0.207 -3.007,-0.619 -0.285,-0.125 -0.378,-0.34 -0.276,-0.638 l 0.276,-0.896 c 0.085,-0.255 0.228,-0.384 0.425,-0.384 0.074,0 0.137,0.017 0.193,0.043 0.938,0.396 1.719,0.598 2.345,0.598 0.853,0 1.281,-0.363 1.281,-1.089 0,-0.469 -0.364,-0.923 -1.089,-1.364 -1.351,-0.809 -2.035,-1.221 -2.047,-1.238 -0.727,-0.581 -1.086,-1.276 -1.086,-2.087 0,-0.868 0.289,-1.566 0.872,-2.1 0.582,-0.534 1.394,-0.8 2.431,-0.8 0.895,0 1.691,0.15 2.387,0.447 0.314,0.129 0.413,0.343 0.3,0.642 l -0.276,0.724 c -0.113,0.313 -0.305,0.419 -0.57,0.32 -0.723,-0.27 -1.303,-0.406 -1.739,-0.406 -0.791,0 -1.188,0.342 -1.188,1.024 0,0.383 0.367,0.796 1.102,1.235 1.132,0.669 1.805,1.097 2.017,1.279 0.736,0.627 1.103,1.373 1.103,2.238 z"
   id="path3197"
   inkscape:connector-curvature="0"
   style="fill:#ffffff" />
		</g>
	</g>
</g>


<g
   id="g9100"
   transform="translate(-5.25625,-6.5)"><rect
     id="rect8746"
     height="129.66701"
     width="189"
     stroke-miterlimit="10"
     y="7"
     x="5.6669998"
     style="fill:none;stroke:#000000;stroke-miterlimit:10" /><path
     id="path8748"
     d="m 5.667,74.332 c 3.105,-0.119 17.456,4.478 20.458,5.352 3.268,0.95 6.576,1.256 9.883,1.991 6.401,1.424 10.692,4.172 13.99,8.677 3.737,5.104 8.941,8.176 14.059,11.721 1.691,1.171 4.147,1.885 5.643,3.078 1.649,1.316 2.058,3.155 3.154,4.874 1.745,2.734 6.912,5.377 9.568,7.581 6.355,5.271 11.488,4.837 19.103,7.143 7.282,2.204 10.887,5.173 18.466,5.902 3.826,0.368 7.712,1.282 11.733,1.675 4.504,0.439 9.052,0.341 13.6,0.341 12,0 12.488,-2.833 24.278,-1.333 7.854,0.999 17.118,0.542 25.064,0.542"
     stroke-miterlimit="10"
     inkscape:connector-curvature="0"
     style="fill:none;stroke:#000000;stroke-width:0.75;stroke-miterlimit:10" /><line
     id="line8750"
     y2="111.083"
     x2="78.703003"
     y1="111.083"
     x1="74.593002"
     stroke-miterlimit="10"
     style="fill:none;stroke:#000000;stroke-miterlimit:10" /><line
     id="line8752"
     y2="111.083"
     x2="93.537003"
     y1="111.083"
     x1="86.537003"
     stroke-miterlimit="10"
     style="fill:none;stroke:#000000;stroke-miterlimit:10" /><line
     id="line8754"
     y2="111.083"
     x2="108.37"
     y1="111.083"
     x1="101.37"
     stroke-miterlimit="10"
     style="fill:none;stroke:#000000;stroke-miterlimit:10" /><line
     id="line8756"
     y2="111.083"
     x2="123.203"
     y1="111.083"
     x1="116.203"
     stroke-miterlimit="10"
     style="fill:none;stroke:#000000;stroke-miterlimit:10" /><line
     id="line8758"
     y2="111.083"
     x2="138.037"
     y1="111.083"
     x1="131.037"
     stroke-miterlimit="10"
     style="fill:none;stroke:#000000;stroke-miterlimit:10" /><line
     id="line8760"
     y2="111.083"
     x2="152.871"
     y1="111.083"
     x1="145.871"
     stroke-miterlimit="10"
     style="fill:none;stroke:#000000;stroke-miterlimit:10" /><line
     id="line8762"
     y2="111.083"
     x2="167.705"
     y1="111.083"
     x1="160.705"
     stroke-miterlimit="10"
     style="fill:none;stroke:#000000;stroke-miterlimit:10" /><line
     id="line8764"
     y2="111.083"
     x2="182.539"
     y1="111.083"
     x1="175.539"
     stroke-miterlimit="10"
     style="fill:none;stroke:#000000;stroke-miterlimit:10" /><line
     id="line8766"
     y2="111.083"
     x2="190.371"
     y1="111.083"
     x1="190.371"
     stroke-miterlimit="10"
     style="fill:none;stroke:#000000;stroke-miterlimit:10" /><line
     id="line8768"
     y2="114.333"
     x2="86.962997"
     y1="114.333"
     x1="79.962997"
     stroke-miterlimit="10"
     style="fill:none;stroke:#000000;stroke-miterlimit:10" /><line
     id="line8770"
     y2="114.333"
     x2="101.797"
     y1="114.333"
     x1="94.795998"
     stroke-miterlimit="10"
     style="fill:none;stroke:#000000;stroke-miterlimit:10" /><line
     id="line8772"
     y2="114.333"
     x2="116.63"
     y1="114.333"
     x1="109.63"
     stroke-miterlimit="10"
     style="fill:none;stroke:#000000;stroke-miterlimit:10" /><line
     id="line8774"
     y2="114.333"
     x2="131.463"
     y1="114.333"
     x1="124.463"
     stroke-miterlimit="10"
     style="fill:none;stroke:#000000;stroke-miterlimit:10" /><line
     id="line8776"
     y2="114.333"
     x2="146.297"
     y1="114.333"
     x1="139.297"
     stroke-miterlimit="10"
     style="fill:none;stroke:#000000;stroke-miterlimit:10" /><line
     id="line8778"
     y2="114.333"
     x2="161.131"
     y1="114.333"
     x1="154.131"
     stroke-miterlimit="10"
     style="fill:none;stroke:#000000;stroke-miterlimit:10" /><line
     id="line8780"
     y2="114.333"
     x2="175.965"
     y1="114.333"
     x1="168.965"
     stroke-miterlimit="10"
     style="fill:none;stroke:#000000;stroke-miterlimit:10" /><line
     id="line8782"
     y2="114.333"
     x2="190.799"
     y1="114.333"
     x1="183.799"
     stroke-miterlimit="10"
     style="fill:none;stroke:#000000;stroke-miterlimit:10" /><line
     id="line8784"
     y2="116.75"
     x2="92.295998"
     y1="116.75"
     x1="85.295998"
     stroke-miterlimit="10"
     style="fill:none;stroke:#000000;stroke-miterlimit:10" /><line
     id="line8786"
     y2="116.75"
     x2="107.129"
     y1="116.75"
     x1="100.129"
     stroke-miterlimit="10"
     style="fill:none;stroke:#000000;stroke-miterlimit:10" /><line
     id="line8788"
     y2="116.75"
     x2="121.963"
     y1="116.75"
     x1="114.963"
     stroke-miterlimit="10"
     style="fill:none;stroke:#000000;stroke-miterlimit:10" /><line
     id="line8790"
     y2="116.75"
     x2="136.79601"
     y1="116.75"
     x1="129.79601"
     stroke-miterlimit="10"
     style="fill:none;stroke:#000000;stroke-miterlimit:10" /><line
     id="line8792"
     y2="116.75"
     x2="151.63"
     y1="116.75"
     x1="144.63"
     stroke-miterlimit="10"
     style="fill:none;stroke:#000000;stroke-miterlimit:10" /><line
     id="line8794"
     y2="116.75"
     x2="166.464"
     y1="116.75"
     x1="159.464"
     stroke-miterlimit="10"
     style="fill:none;stroke:#000000;stroke-miterlimit:10" /><line
     id="line8796"
     y2="116.75"
     x2="181.298"
     y1="116.75"
     x1="174.298"
     stroke-miterlimit="10"
     style="fill:none;stroke:#000000;stroke-miterlimit:10" /><line
     id="line8798"
     y2="116.75"
     x2="194.295"
     y1="116.75"
     x1="189.132"
     stroke-miterlimit="10"
     style="fill:none;stroke:#000000;stroke-miterlimit:10" /><line
     id="line8800"
     y2="111.083"
     x2="194.295"
     y1="111.083"
     x1="189.132"
     stroke-miterlimit="10"
     style="fill:none;stroke:#000000;stroke-miterlimit:10" /><line
     id="line8802"
     y2="120"
     x2="100.556"
     y1="120"
     x1="93.556"
     stroke-miterlimit="10"
     style="fill:none;stroke:#000000;stroke-miterlimit:10" /><line
     id="line8804"
     y2="120"
     x2="115.39"
     y1="120"
     x1="108.389"
     stroke-miterlimit="10"
     style="fill:none;stroke:#000000;stroke-miterlimit:10" /><line
     id="line8806"
     y2="120"
     x2="130.22301"
     y1="120"
     x1="123.223"
     stroke-miterlimit="10"
     style="fill:none;stroke:#000000;stroke-miterlimit:10" /><line
     id="line8808"
     y2="120"
     x2="145.056"
     y1="120"
     x1="138.056"
     stroke-miterlimit="10"
     style="fill:none;stroke:#000000;stroke-miterlimit:10" /><line
     id="line8810"
     y2="120"
     x2="159.89"
     y1="120"
     x1="152.89"
     stroke-miterlimit="10"
     style="fill:none;stroke:#000000;stroke-miterlimit:10" /><line
     id="line8812"
     y2="120"
     x2="174.724"
     y1="120"
     x1="167.724"
     stroke-miterlimit="10"
     style="fill:none;stroke:#000000;stroke-miterlimit:10" /><line
     id="line8814"
     y2="120"
     x2="189.558"
     y1="120"
     x1="182.558"
     stroke-miterlimit="10"
     style="fill:none;stroke:#000000;stroke-miterlimit:10" /><line
     id="line8816"
     y2="123.584"
     x2="103.629"
     y1="123.584"
     x1="100.556"
     stroke-miterlimit="10"
     style="fill:none;stroke:#000000;stroke-miterlimit:10" /><line
     id="line8818"
     y2="123.584"
     x2="118.462"
     y1="123.584"
     x1="111.462"
     stroke-miterlimit="10"
     style="fill:none;stroke:#000000;stroke-miterlimit:10" /><line
     id="line8820"
     y2="123.584"
     x2="133.29601"
     y1="123.584"
     x1="126.296"
     stroke-miterlimit="10"
     style="fill:none;stroke:#000000;stroke-miterlimit:10" /><line
     id="line8822"
     y2="123.584"
     x2="148.129"
     y1="123.584"
     x1="141.129"
     stroke-miterlimit="10"
     style="fill:none;stroke:#000000;stroke-miterlimit:10" /><line
     id="line8824"
     y2="123.584"
     x2="162.963"
     y1="123.584"
     x1="155.963"
     stroke-miterlimit="10"
     style="fill:none;stroke:#000000;stroke-miterlimit:10" /><line
     id="line8826"
     y2="123.584"
     x2="177.797"
     y1="123.584"
     x1="170.797"
     stroke-miterlimit="10"
     style="fill:none;stroke:#000000;stroke-miterlimit:10" /><line
     id="line8828"
     y2="123.584"
     x2="192.631"
     y1="123.584"
     x1="185.631"
     stroke-miterlimit="10"
     style="fill:none;stroke:#000000;stroke-miterlimit:10" /><line
     id="line8830"
     y2="126.834"
     x2="111.889"
     y1="126.834"
     x1="108.389"
     stroke-miterlimit="10"
     style="fill:none;stroke:#000000;stroke-miterlimit:10" /><line
     id="line8832"
     y2="126.834"
     x2="126.723"
     y1="126.834"
     x1="119.722"
     stroke-miterlimit="10"
     style="fill:none;stroke:#000000;stroke-miterlimit:10" /><line
     id="line8834"
     y2="126.834"
     x2="141.556"
     y1="126.834"
     x1="134.556"
     stroke-miterlimit="10"
     style="fill:none;stroke:#000000;stroke-miterlimit:10" /><line
     id="line8836"
     y2="126.834"
     x2="156.38901"
     y1="126.834"
     x1="149.38901"
     stroke-miterlimit="10"
     style="fill:none;stroke:#000000;stroke-miterlimit:10" /><line
     id="line8838"
     y2="126.834"
     x2="171.22301"
     y1="126.834"
     x1="164.22301"
     stroke-miterlimit="10"
     style="fill:none;stroke:#000000;stroke-miterlimit:10" /><line
     id="line8840"
     y2="126.834"
     x2="186.05701"
     y1="126.834"
     x1="179.05701"
     stroke-miterlimit="10"
     style="fill:none;stroke:#000000;stroke-miterlimit:10" /><line
     id="line8842"
     y2="129.459"
     x2="123.629"
     y1="129.459"
     x1="116.629"
     stroke-miterlimit="10"
     style="fill:none;stroke:#000000;stroke-miterlimit:10" /><line
     id="line8844"
     y2="129.459"
     x2="138.463"
     y1="129.459"
     x1="131.46201"
     stroke-miterlimit="10"
     style="fill:none;stroke:#000000;stroke-miterlimit:10" /><line
     id="line8846"
     y2="129.459"
     x2="153.29601"
     y1="129.459"
     x1="146.29601"
     stroke-miterlimit="10"
     style="fill:none;stroke:#000000;stroke-miterlimit:10" /><line
     id="line8848"
     y2="129.459"
     x2="168.129"
     y1="129.459"
     x1="161.129"
     stroke-miterlimit="10"
     style="fill:none;stroke:#000000;stroke-miterlimit:10" /><line
     id="line8850"
     y2="129.459"
     x2="182.963"
     y1="129.459"
     x1="175.963"
     stroke-miterlimit="10"
     style="fill:none;stroke:#000000;stroke-miterlimit:10" /><line
     id="line8852"
     y2="129.459"
     x2="194.927"
     y1="129.459"
     x1="190.797"
     stroke-miterlimit="10"
     style="fill:none;stroke:#000000;stroke-miterlimit:10" /><g
     id="g8854">
	<g
   id="g8856">
		<line
   id="line8858"
   y2="90.446999"
   x2="92.295998"
   y1="104.5"
   x1="92.295998"
   stroke-miterlimit="10"
   style="fill:none;stroke:#000000;stroke-width:0.75;stroke-miterlimit:10" />
		<g
   id="g8860">
			<path
   id="path8862"
   d="m 92.296,91.793 -2.702,1.645 -0.062,-0.093 1.75,-4.406 c 0.337,-1.535 0.675,-3.07 1.013,-4.605 0.338,1.535 0.675,3.07 1.013,4.605 l 1.75,4.406 -0.046,0.093 -2.716,-1.645 z"
   inkscape:connector-curvature="0" />
		</g>
	</g>
</g><g
     id="g8864">
	<g
   id="g8866">
		
			<line
   id="line8868"
   y2="90.446999"
   x2="106.289"
   y1="104.5"
   x1="106.289"
   stroke-miterlimit="10"
   style="fill:none;stroke:#000000;stroke-width:0.75;stroke-miterlimit:10" />
		<g
   id="g8870">
			<path
   id="path8872"
   d="m 106.289,91.793 -2.702,1.645 -0.062,-0.093 1.75,-4.406 c 0.338,-1.535 0.676,-3.07 1.014,-4.605 0.338,1.535 0.676,3.07 1.014,4.605 l 1.75,4.406 -0.047,0.093 -2.717,-1.645 z"
   inkscape:connector-curvature="0" />
		</g>
	</g>
</g><g
     id="g8874">
	<g
   id="g8876">
		
			<line
   id="line8878"
   y2="90.446999"
   x2="120.282"
   y1="104.5"
   x1="120.282"
   stroke-miterlimit="10"
   style="fill:none;stroke:#000000;stroke-width:0.75;stroke-miterlimit:10" />
		<g
   id="g8880">
			<path
   id="path8882"
   d="m 120.282,91.793 -2.702,1.645 -0.062,-0.093 1.75,-4.406 c 0.338,-1.535 0.676,-3.07 1.014,-4.605 0.338,1.535 0.675,3.07 1.014,4.605 l 1.75,4.406 -0.046,0.093 -2.718,-1.645 z"
   inkscape:connector-curvature="0" />
		</g>
	</g>
</g><g
     id="g8884">
	<g
   id="g8886">
		
			<line
   id="line8888"
   y2="90.446999"
   x2="134.27499"
   y1="104.5"
   x1="134.27499"
   stroke-miterlimit="10"
   style="fill:none;stroke:#000000;stroke-width:0.75;stroke-miterlimit:10" />
		<g
   id="g8890">
			<path
   id="path8892"
   d="m 134.275,91.793 -2.702,1.645 -0.062,-0.093 1.75,-4.406 c 0.338,-1.535 0.676,-3.07 1.014,-4.605 0.338,1.535 0.676,3.07 1.014,4.605 l 1.75,4.406 -0.047,0.093 -2.717,-1.645 z"
   inkscape:connector-curvature="0" />
		</g>
	</g>
</g><line
     id="line8894"
     y2="36.158001"
     x2="45.591999"
     y1="31.458"
     x1="47.298"
     stroke-miterlimit="10"
     style="fill:none;stroke:#000000;stroke-width:0.25;stroke-miterlimit:10" /><line
     id="line8896"
     y2="44.618"
     x2="42.521"
     y1="39.917"
     x1="44.227001"
     stroke-miterlimit="10"
     style="fill:none;stroke:#000000;stroke-width:0.25;stroke-miterlimit:10" /><line
     id="line8898"
     y2="53.077"
     x2="39.449001"
     y1="48.376999"
     x1="41.154999"
     stroke-miterlimit="10"
     style="fill:none;stroke:#000000;stroke-width:0.25;stroke-miterlimit:10" /><line
     id="line8900"
     y2="41.311001"
     x2="46.598"
     y1="36.610001"
     x1="48.304001"
     stroke-miterlimit="10"
     style="fill:none;stroke:#000000;stroke-width:0.25;stroke-miterlimit:10" /><line
     id="line8902"
     y2="49.77"
     x2="43.526001"
     y1="45.07"
     x1="45.231998"
     stroke-miterlimit="10"
     style="fill:none;stroke:#000000;stroke-width:0.25;stroke-miterlimit:10" /><line
     id="line8904"
     y2="37.728001"
     x2="50.647999"
     y1="33.028"
     x1="52.354"
     stroke-miterlimit="10"
     style="fill:none;stroke:#000000;stroke-width:0.25;stroke-miterlimit:10" /><line
     id="line8906"
     y2="46.188"
     x2="47.577"
     y1="41.487"
     x1="49.283001"
     stroke-miterlimit="10"
     style="fill:none;stroke:#000000;stroke-width:0.25;stroke-miterlimit:10" /><line
     id="line8908"
     y2="54.646999"
     x2="44.505001"
     y1="49.946999"
     x1="46.212002"
     stroke-miterlimit="10"
     style="fill:none;stroke:#000000;stroke-width:0.25;stroke-miterlimit:10" /><line
     id="line8910"
     y2="34.419998"
     x2="54.726002"
     y1="29.721001"
     x1="56.431999"
     stroke-miterlimit="10"
     style="fill:none;stroke:#000000;stroke-width:0.25;stroke-miterlimit:10" /><line
     id="line8912"
     y2="42.880001"
     x2="51.653999"
     y1="38.181"
     x1="53.360001"
     stroke-miterlimit="10"
     style="fill:none;stroke:#000000;stroke-width:0.25;stroke-miterlimit:10" /><line
     id="line8914"
     y2="51.34"
     x2="48.583"
     y1="46.639999"
     x1="50.289001"
     stroke-miterlimit="10"
     style="fill:none;stroke:#000000;stroke-width:0.25;stroke-miterlimit:10" /><line
     id="line8916"
     y2="39.297001"
     x2="55.703999"
     y1="34.598"
     x1="57.41"
     stroke-miterlimit="10"
     style="fill:none;stroke:#000000;stroke-width:0.25;stroke-miterlimit:10" /><line
     id="line8918"
     y2="47.757"
     x2="52.632999"
     y1="43.056999"
     x1="54.339001"
     stroke-miterlimit="10"
     style="fill:none;stroke:#000000;stroke-width:0.25;stroke-miterlimit:10" /><line
     id="line8920"
     y2="56.216999"
     x2="49.562"
     y1="51.516998"
     x1="51.268002"
     stroke-miterlimit="10"
     style="fill:none;stroke:#000000;stroke-width:0.25;stroke-miterlimit:10" /><line
     id="line8922"
     y2="35.991001"
     x2="59.782001"
     y1="31.291"
     x1="61.488998"
     stroke-miterlimit="10"
     style="fill:none;stroke:#000000;stroke-width:0.25;stroke-miterlimit:10" /><line
     id="line8924"
     y2="44.450001"
     x2="56.710999"
     y1="39.75"
     x1="58.417999"
     stroke-miterlimit="10"
     style="fill:none;stroke:#000000;stroke-width:0.25;stroke-miterlimit:10" /><line
     id="line8926"
     y2="52.91"
     x2="53.639999"
     y1="48.209999"
     x1="55.346001"
     stroke-miterlimit="10"
     style="fill:none;stroke:#000000;stroke-width:0.25;stroke-miterlimit:10" /><line
     id="line8928"
     y2="40.867001"
     x2="60.761002"
     y1="36.167"
     x1="62.467999"
     stroke-miterlimit="10"
     style="fill:none;stroke:#000000;stroke-width:0.25;stroke-miterlimit:10" /><line
     id="line8930"
     y2="49.327"
     x2="57.688999"
     y1="44.626999"
     x1="59.396"
     stroke-miterlimit="10"
     style="fill:none;stroke:#000000;stroke-width:0.25;stroke-miterlimit:10" /><line
     id="line8932"
     y2="57.786999"
     x2="54.618"
     y1="53.087002"
     x1="56.324001"
     stroke-miterlimit="10"
     style="fill:none;stroke:#000000;stroke-width:0.25;stroke-miterlimit:10" /><line
     id="line8934"
     y2="37.561001"
     x2="64.839996"
     y1="32.861"
     x1="66.545998"
     stroke-miterlimit="10"
     style="fill:none;stroke:#000000;stroke-width:0.25;stroke-miterlimit:10" /><line
     id="line8936"
     y2="46.02"
     x2="61.769001"
     y1="41.32"
     x1="63.474998"
     stroke-miterlimit="10"
     style="fill:none;stroke:#000000;stroke-width:0.25;stroke-miterlimit:10" /><line
     id="line8938"
     y2="54.48"
     x2="58.695999"
     y1="49.779999"
     x1="60.403"
     stroke-miterlimit="10"
     style="fill:none;stroke:#000000;stroke-width:0.25;stroke-miterlimit:10" /><line
     id="line8940"
     y2="42.437"
     x2="65.818001"
     y1="37.737"
     x1="67.524002"
     stroke-miterlimit="10"
     style="fill:none;stroke:#000000;stroke-width:0.25;stroke-miterlimit:10" /><line
     id="line8942"
     y2="50.896999"
     x2="62.747002"
     y1="46.196999"
     x1="64.453003"
     stroke-miterlimit="10"
     style="fill:none;stroke:#000000;stroke-width:0.25;stroke-miterlimit:10" /><line
     id="line8944"
     y2="59.355999"
     x2="59.674999"
     y1="54.657001"
     x1="61.382"
     stroke-miterlimit="10"
     style="fill:none;stroke:#000000;stroke-width:0.25;stroke-miterlimit:10" /><line
     id="line8946"
     y2="39.130001"
     x2="69.896004"
     y1="34.431"
     x1="71.602997"
     stroke-miterlimit="10"
     style="fill:none;stroke:#000000;stroke-width:0.25;stroke-miterlimit:10" /><line
     id="line8948"
     y2="47.59"
     x2="66.824997"
     y1="42.889999"
     x1="68.530998"
     stroke-miterlimit="10"
     style="fill:none;stroke:#000000;stroke-width:0.25;stroke-miterlimit:10" /><line
     id="line8950"
     y2="56.049999"
     x2="63.754002"
     y1="51.349998"
     x1="65.459999"
     stroke-miterlimit="10"
     style="fill:none;stroke:#000000;stroke-width:0.25;stroke-miterlimit:10" /><line
     id="line8952"
     y2="35.547001"
     x2="73.945999"
     y1="30.848"
     x1="75.652"
     stroke-miterlimit="10"
     style="fill:none;stroke:#000000;stroke-width:0.25;stroke-miterlimit:10" /><line
     id="line8954"
     y2="44.007"
     x2="70.875"
     y1="39.306999"
     x1="72.581001"
     stroke-miterlimit="10"
     style="fill:none;stroke:#000000;stroke-width:0.25;stroke-miterlimit:10" /><line
     id="line8956"
     y2="52.466999"
     x2="67.804001"
     y1="47.766998"
     x1="69.510002"
     stroke-miterlimit="10"
     style="fill:none;stroke:#000000;stroke-width:0.25;stroke-miterlimit:10" /><line
     id="line8958"
     y2="40.700001"
     x2="74.953003"
     y1="36"
     x1="76.658997"
     stroke-miterlimit="10"
     style="fill:none;stroke:#000000;stroke-width:0.25;stroke-miterlimit:10" /><line
     id="line8960"
     y2="49.16"
     x2="71.882004"
     y1="44.459999"
     x1="73.587997"
     stroke-miterlimit="10"
     style="fill:none;stroke:#000000;stroke-width:0.25;stroke-miterlimit:10" /><line
     id="line8962"
     y2="57.619999"
     x2="68.810997"
     y1="52.919998"
     x1="70.516998"
     stroke-miterlimit="10"
     style="fill:none;stroke:#000000;stroke-width:0.25;stroke-miterlimit:10" /><line
     id="line8964"
     y2="37.117001"
     x2="79.002998"
     y1="32.417"
     x1="80.709"
     stroke-miterlimit="10"
     style="fill:none;stroke:#000000;stroke-width:0.25;stroke-miterlimit:10" /><line
     id="line8966"
     y2="45.577"
     x2="75.931999"
     y1="40.876999"
     x1="77.638"
     stroke-miterlimit="10"
     style="fill:none;stroke:#000000;stroke-width:0.25;stroke-miterlimit:10" /><line
     id="line8968"
     y2="54.036999"
     x2="72.860001"
     y1="49.337002"
     x1="74.566002"
     stroke-miterlimit="10"
     style="fill:none;stroke:#000000;stroke-width:0.25;stroke-miterlimit:10" /><line
     id="line8970"
     y2="42.271"
     x2="80.010002"
     y1="37.57"
     x1="81.717003"
     stroke-miterlimit="10"
     style="fill:none;stroke:#000000;stroke-width:0.25;stroke-miterlimit:10" /><line
     id="line8972"
     y2="50.73"
     x2="76.938004"
     y1="46.029999"
     x1="78.644997"
     stroke-miterlimit="10"
     style="fill:none;stroke:#000000;stroke-width:0.25;stroke-miterlimit:10" /><line
     id="line8974"
     y2="59.189999"
     x2="73.866997"
     y1="54.490002"
     x1="75.572998"
     stroke-miterlimit="10"
     style="fill:none;stroke:#000000;stroke-width:0.25;stroke-miterlimit:10" /><line
     id="line8976"
     y2="38.688"
     x2="84.059998"
     y1="33.987"
     x1="85.766998"
     stroke-miterlimit="10"
     style="fill:none;stroke:#000000;stroke-width:0.25;stroke-miterlimit:10" /><line
     id="line8978"
     y2="47.146999"
     x2="80.987999"
     y1="42.446999"
     x1="82.695"
     stroke-miterlimit="10"
     style="fill:none;stroke:#000000;stroke-width:0.25;stroke-miterlimit:10" /><line
     id="line8980"
     y2="55.606998"
     x2="77.917"
     y1="50.907001"
     x1="79.623001"
     stroke-miterlimit="10"
     style="fill:none;stroke:#000000;stroke-width:0.25;stroke-miterlimit:10" /><line
     id="line8982"
     y2="43.84"
     x2="85.067001"
     y1="39.140999"
     x1="86.774002"
     stroke-miterlimit="10"
     style="fill:none;stroke:#000000;stroke-width:0.25;stroke-miterlimit:10" /><line
     id="line8984"
     y2="52.299999"
     x2="81.995003"
     y1="47.599998"
     x1="83.702003"
     stroke-miterlimit="10"
     style="fill:none;stroke:#000000;stroke-width:0.25;stroke-miterlimit:10" /><line
     id="line8986"
     y2="60.759998"
     x2="78.924004"
     y1="56.060001"
     x1="80.630997"
     stroke-miterlimit="10"
     style="fill:none;stroke:#000000;stroke-width:0.25;stroke-miterlimit:10" /><line
     id="line8988"
     y2="40.257"
     x2="89.117996"
     y1="35.557999"
     x1="90.822998"
     stroke-miterlimit="10"
     style="fill:none;stroke:#000000;stroke-width:0.25;stroke-miterlimit:10" /><line
     id="line8990"
     y2="48.716999"
     x2="86.045998"
     y1="44.016998"
     x1="87.751999"
     stroke-miterlimit="10"
     style="fill:none;stroke:#000000;stroke-width:0.25;stroke-miterlimit:10" /><line
     id="line8992"
     y2="57.176998"
     x2="82.973999"
     y1="52.477001"
     x1="84.681"
     stroke-miterlimit="10"
     style="fill:none;stroke:#000000;stroke-width:0.25;stroke-miterlimit:10" /><line
     id="line8994"
     y2="36.951"
     x2="93.195"
     y1="32.250999"
     x1="94.900002"
     stroke-miterlimit="10"
     style="fill:none;stroke:#000000;stroke-width:0.25;stroke-miterlimit:10" /><line
     id="line8996"
     y2="45.41"
     x2="90.124001"
     y1="40.709999"
     x1="91.830002"
     stroke-miterlimit="10"
     style="fill:none;stroke:#000000;stroke-width:0.25;stroke-miterlimit:10" /><line
     id="line8998"
     y2="53.869999"
     x2="87.053001"
     y1="49.169998"
     x1="88.758003"
     stroke-miterlimit="10"
     style="fill:none;stroke:#000000;stroke-width:0.25;stroke-miterlimit:10" /><line
     id="line9000"
     y2="62.330002"
     x2="83.981003"
     y1="57.630001"
     x1="85.688004"
     stroke-miterlimit="10"
     style="fill:none;stroke:#000000;stroke-width:0.25;stroke-miterlimit:10" /><line
     id="line9002"
     y2="41.827"
     x2="94.174004"
     y1="37.126999"
     x1="95.878998"
     stroke-miterlimit="10"
     style="fill:none;stroke:#000000;stroke-width:0.25;stroke-miterlimit:10" /><line
     id="line9004"
     y2="50.286999"
     x2="91.101997"
     y1="45.587002"
     x1="92.808998"
     stroke-miterlimit="10"
     style="fill:none;stroke:#000000;stroke-width:0.25;stroke-miterlimit:10" /><line
     id="line9006"
     y2="58.747002"
     x2="88.031998"
     y1="54.047001"
     x1="89.737"
     stroke-miterlimit="10"
     style="fill:none;stroke:#000000;stroke-width:0.25;stroke-miterlimit:10" /><line
     id="line9008"
     y2="38.521"
     x2="98.251999"
     y1="33.820999"
     x1="99.957001"
     stroke-miterlimit="10"
     style="fill:none;stroke:#000000;stroke-width:0.25;stroke-miterlimit:10" /><line
     id="line9010"
     y2="46.98"
     x2="95.18"
     y1="42.279999"
     x1="96.887001"
     stroke-miterlimit="10"
     style="fill:none;stroke:#000000;stroke-width:0.25;stroke-miterlimit:10" /><line
     id="line9012"
     y2="55.439999"
     x2="92.109001"
     y1="50.740002"
     x1="93.814003"
     stroke-miterlimit="10"
     style="fill:none;stroke:#000000;stroke-width:0.25;stroke-miterlimit:10" /><g
     id="g9014">
	<path
   id="path9016"
   d="m 32.322,74.287 c 0,0 -0.84,-0.533 -1.157,-0.305 -0.544,0.4 -1.315,0.646 -1.613,0.824 -0.293,0.176 -1.878,0.564 -2.124,0.256 -0.25,-0.307 0.094,-0.722 0.763,-1.069 0.672,-0.351 0.79,-0.385 0.79,-0.385 0,0 -0.433,-0.024 -0.518,-0.668 -0.071,-0.515 0.249,-0.812 0.615,-1.174 0.426,-0.424 0.704,-0.417 0.632,-0.13 -0.077,0.285 -1.744,0.813 -2.793,0.213 -0.456,-0.259 -0.452,-0.874 -0.162,-1.352 0.648,-1.085 2.549,-1.293 2.199,-1.1 -0.409,0.23 -1.25,0.233 -1.77,0.002 -0.792,-0.354 -0.583,-1.324 -0.082,-1.826 0.523,-0.526 1,-0.602 2.042,-0.407 0.454,0.085 0.651,0.516 0,0 -0.257,-0.198 -0.729,-0.819 -0.305,-1.472 0.419,-0.652 1.475,-0.248 1.507,-0.052 0.029,0.195 -0.198,-0.254 -0.441,-0.802 -0.247,-0.55 0.401,-1.089 1.209,-0.943 0.808,0.147 1.467,0.828 1.622,1.554 0.144,0.652 -0.365,1.511 -0.435,1.374 -0.064,-0.141 0.971,-0.63 1.541,-0.676 0.577,-0.05 1.57,0.045 1.56,1.27 -0.006,0.795 -1.145,2.387 -1.177,2.3 -0.034,-0.085 0.417,-0.858 1.089,-1.059 0.677,-0.2 1.786,0.061 1.5,1.208 -0.297,1.217 -2.383,1.548 -1.99,1.305 0.144,-0.244 1.309,-0.196 1.839,0.526 0.363,0.5 0.278,1.096 -0.283,1.702 -0.696,0.757 -2.715,0.331 -2.33,0.225 0.158,-0.048 0.52,0.224 0.429,0.943 -0.094,0.722 -1.139,0.561 -1.387,0.255 l -0.77,-0.537 z"
   stroke-miterlimit="10"
   inkscape:connector-curvature="0"
   style="fill:#ffffff;stroke:#020202;stroke-width:0.25;stroke-miterlimit:10" />
	<g
   id="g9018">
		<path
   id="path9020"
   d="m 32.565,81.163 c -0.263,-0.161 -0.475,-0.367 -0.558,-0.415 -0.162,-0.085 -0.112,-0.002 -0.126,0.089 -0.019,0.094 0.162,0.348 0.218,0.468 0.055,0.115 -0.073,-0.048 -0.246,-0.216 -0.173,-0.165 -0.215,-0.302 -0.402,-0.374 -0.188,-0.076 -0.495,0.144 -0.626,0.241 -0.16,0.122 -0.479,0.163 -0.767,0.211 -0.288,0.051 -0.733,0.085 -0.968,0.062 -0.198,-0.024 0.646,-0.018 1.049,-0.165 0.326,-0.115 0.376,-0.129 0.524,-0.266 0.146,-0.14 0.099,-0.443 0.218,-0.571 0.121,-0.115 0.137,-0.402 0.101,-0.505 -0.031,-0.1 -0.144,-0.745 -0.03,-0.956 0.107,-0.218 0.015,-0.548 0.029,-0.642 0.018,-0.092 0.065,-0.837 0.016,-1.013 -0.052,-0.174 0.06,-0.775 0.139,-0.957 0.081,-0.179 0.102,-0.762 0.157,-0.926 0.052,-0.166 0.06,-0.505 -0.046,-0.801 -0.106,-0.293 -0.417,-0.322 -0.534,-0.502 -0.115,-0.181 -0.229,-0.381 -0.167,-0.3 0.06,0.08 0.236,0.36 0.399,0.413 0.16,0.055 0.347,0.098 0.36,0.02 0.009,-0.094 -0.019,-0.398 -0.162,-0.601 -0.141,-0.206 0.114,-0.571 0.133,-0.683 0.019,-0.113 0,0.158 -0.065,0.396 -0.066,0.239 0.216,0.444 0.226,0.594 0.012,0.106 0.231,0.263 0.272,0.172 0.024,-0.063 0.104,-0.146 0.2,-0.257 0.062,-0.071 0.062,-0.195 0.152,-0.25 0.225,-0.139 0.462,-0.168 0.556,-0.195 0.094,-0.026 -0.271,0.063 -0.391,0.169 -0.126,0.118 -0.24,0.448 -0.34,0.587 -0.101,0.143 -0.148,0.461 -0.111,0.666 0.036,0.211 -0.01,0.817 -0.037,0.988 -0.028,0.164 -0.309,1.086 -0.343,1.313 -0.074,0.476 0.269,1.348 0.347,1.771 0.045,0.241 -0.011,0.765 0.139,1.243 0.108,0.348 0.271,0.667 0.396,0.782 0.386,0.349 0.329,0.398 0.647,0.579 0.005,-0.004 -0.185,-0.059 -0.359,-0.169 z"
   stroke-miterlimit="10"
   inkscape:connector-curvature="0"
   style="fill:#716960;stroke:#020202;stroke-width:0.15000001;stroke-miterlimit:10" />
		<path
   id="path9022"
   d="m 31.286,78.98 c 0,0.167 10e-4,0.313 0.04,0.482 0.02,0.094 0.041,0.189 0.08,0.28 0.049,0.118 0.048,0.211 0.057,0.335 0.015,0.216 0.153,0.397 0.196,0.596"
   stroke-miterlimit="10"
   inkscape:connector-curvature="0"
   style="fill:none;stroke:#020202;stroke-width:0.15000001;stroke-miterlimit:10" />
		<path
   id="path9024"
   d="m 31.272,77.211 c 0.002,0.25 0.002,0.537 0.023,0.807 0.014,0.133 0.093,0.248 0.115,0.378 0.02,0.117 0,0.25 0,0.37"
   stroke-miterlimit="10"
   inkscape:connector-curvature="0"
   style="fill:none;stroke:#020202;stroke-width:0.15000001;stroke-miterlimit:10" />
	</g>
</g><g
     id="g9026">
	<path
   id="path9028"
   d="m 40.54,79.142 c 0,0 -0.519,-0.33 -0.715,-0.188 -0.336,0.247 -0.812,0.398 -0.996,0.509 -0.181,0.108 -1.16,0.349 -1.311,0.158 -0.154,-0.189 0.058,-0.445 0.471,-0.66 0.415,-0.217 0.488,-0.238 0.488,-0.238 0,0 -0.267,-0.015 -0.32,-0.412 -0.044,-0.317 0.153,-0.501 0.379,-0.725 0.264,-0.262 0.435,-0.259 0.391,-0.081 -0.047,0.176 -1.077,0.502 -1.725,0.132 -0.281,-0.159 -0.279,-0.54 -0.1,-0.835 0.4,-0.67 1.574,-0.799 1.358,-0.68 -0.253,0.143 -0.772,0.145 -1.093,0.002 -0.489,-0.219 -0.36,-0.818 -0.051,-1.128 0.323,-0.325 0.618,-0.372 1.261,-0.251 0.281,0.053 0.402,0.318 0,0 -0.159,-0.122 -0.45,-0.506 -0.188,-0.909 0.259,-0.402 0.911,-0.152 0.931,-0.032 0.018,0.121 -0.122,-0.156 -0.272,-0.495 -0.152,-0.34 0.248,-0.673 0.747,-0.582 0.499,0.091 0.906,0.511 1.001,0.959 0.089,0.403 -0.226,0.934 -0.269,0.849 -0.04,-0.087 0.6,-0.39 0.952,-0.417 0.356,-0.031 0.969,0.027 0.963,0.783 -0.003,0.491 -0.707,1.475 -0.727,1.421 -0.021,-0.053 0.257,-0.53 0.672,-0.654 0.418,-0.123 1.103,0.038 0.926,0.746 -0.184,0.752 -1.472,0.957 -1.229,0.806 0.089,-0.15 0.809,-0.12 1.136,0.325 0.224,0.309 0.171,0.677 -0.175,1.051 -0.43,0.468 -1.676,0.205 -1.438,0.139 0.098,-0.029 0.321,0.139 0.265,0.583 -0.058,0.445 -0.704,0.346 -0.856,0.157 L 40.54,79.142 z"
   stroke-miterlimit="10"
   inkscape:connector-curvature="0"
   style="fill:#ffffff;stroke:#020202;stroke-width:0.25;stroke-miterlimit:10" />
	<g
   id="g9030">
		<path
   id="path9032"
   d="m 40.689,83.388 c -0.163,-0.1 -0.293,-0.228 -0.344,-0.257 -0.1,-0.053 -0.069,-0.001 -0.078,0.055 -0.012,0.059 0.1,0.215 0.135,0.289 0.034,0.071 -0.045,-0.029 -0.152,-0.133 -0.107,-0.103 -0.133,-0.187 -0.248,-0.231 -0.116,-0.047 -0.306,0.089 -0.387,0.149 -0.099,0.075 -0.296,0.101 -0.474,0.13 -0.178,0.031 -0.452,0.053 -0.598,0.038 -0.122,-0.015 0.399,-0.011 0.648,-0.102 0.201,-0.071 0.232,-0.08 0.324,-0.164 0.09,-0.087 0.061,-0.274 0.135,-0.354 0.074,-0.07 0.084,-0.248 0.062,-0.312 -0.02,-0.062 -0.089,-0.46 -0.019,-0.59 0.066,-0.135 0.009,-0.339 0.018,-0.396 0.011,-0.057 0.04,-0.517 0.01,-0.626 -0.032,-0.106 0.037,-0.479 0.085,-0.591 0.05,-0.11 0.063,-0.47 0.097,-0.571 0.032,-0.103 0.037,-0.312 -0.028,-0.495 -0.065,-0.181 -0.258,-0.198 -0.33,-0.31 -0.071,-0.111 -0.142,-0.235 -0.104,-0.186 0.037,0.05 0.146,0.223 0.247,0.256 0.099,0.033 0.214,0.06 0.222,0.012 0.006,-0.058 -0.012,-0.246 -0.1,-0.371 -0.087,-0.127 0.07,-0.353 0.082,-0.421 0.011,-0.07 0,0.098 -0.041,0.244 -0.041,0.147 0.134,0.274 0.14,0.366 0.007,0.065 0.143,0.162 0.168,0.106 0.015,-0.039 0.064,-0.09 0.124,-0.159 0.038,-0.044 0.038,-0.12 0.094,-0.154 0.139,-0.085 0.285,-0.104 0.343,-0.12 0.058,-0.016 -0.167,0.038 -0.241,0.104 -0.078,0.072 -0.148,0.276 -0.21,0.362 -0.062,0.088 -0.091,0.284 -0.068,0.411 0.022,0.13 -0.006,0.505 -0.023,0.61 -0.017,0.102 -0.19,0.671 -0.211,0.811 -0.046,0.294 0.166,0.832 0.214,1.094 0.028,0.149 -0.007,0.473 0.085,0.768 0.067,0.215 0.167,0.412 0.245,0.483 0.238,0.215 0.203,0.246 0.399,0.357 0.005,-10e-4 -0.113,-0.035 -0.221,-0.102 z"
   stroke-miterlimit="10"
   inkscape:connector-curvature="0"
   style="fill:#716960;stroke:#020202;stroke-width:0.1;stroke-miterlimit:10" />
		<path
   id="path9034"
   d="m 39.9,82.039 c 0,0.104 0,0.194 0.024,0.298 0.012,0.059 0.025,0.117 0.049,0.174 0.031,0.072 0.03,0.13 0.035,0.207 0.009,0.133 0.095,0.245 0.121,0.367"
   stroke-miterlimit="10"
   inkscape:connector-curvature="0"
   style="fill:none;stroke:#020202;stroke-width:0.1;stroke-miterlimit:10" />
		<path
   id="path9036"
   d="m 39.892,80.946 c 10e-4,0.155 10e-4,0.332 0.014,0.499 0.009,0.082 0.058,0.152 0.071,0.233 0.012,0.072 0,0.154 0,0.229"
   stroke-miterlimit="10"
   inkscape:connector-curvature="0"
   style="fill:none;stroke:#020202;stroke-width:0.1;stroke-miterlimit:10" />
	</g>
</g><g
     id="g9038">
	<path
   id="path9040"
   d="m 17.231,71.746 c -0.292,0.306 -1.515,0.469 -1.625,-0.254 -0.106,-0.72 0.316,-0.991 0.502,-0.943 0.452,0.108 -1.912,0.532 -2.728,-0.222 -0.656,-0.607 -0.756,-1.205 -0.331,-1.705 0.62,-0.722 1.983,-0.77 2.153,-0.524 0.461,0.241 -1.979,-0.089 -2.328,-1.307 -0.337,-1.147 0.961,-1.413 1.754,-1.206 0.788,0.198 1.316,0.972 1.275,1.052 -0.037,0.087 -1.37,-1.504 -1.378,-2.295 -0.015,-1.228 1.147,-1.324 1.828,-1.274 0.667,0.046 1.879,0.539 1.802,0.681 -0.081,0.137 -0.677,-0.726 -0.509,-1.378 0.182,-0.72 0.955,-1.406 1.899,-1.552 0.949,-0.146 1.706,0.394 1.416,0.943 -0.285,0.548 -0.549,0.998 -0.517,0.807 0.038,-0.2 1.274,-0.6 1.765,0.052 0.496,0.65 -0.058,1.274 -0.357,1.467 -0.762,0.518 -0.531,0.085 0,0 1.223,-0.196 1.782,-0.115 2.391,0.407 0.586,0.502 0.832,1.472 -0.096,1.83 -0.606,0.229 -1.595,0.224 -2.072,-0.006 -0.409,-0.193 1.817,0.02 2.574,1.1 0.339,0.478 0.346,1.093 -0.189,1.352 -1.229,0.598 -3.181,0.072 -3.27,-0.211 -0.084,-0.285 0.242,-0.295 0.739,0.13 0.432,0.359 0.806,0.661 0.72,1.174 -0.1,0.646 -0.607,0.664 -0.607,0.664 0,0 0.139,0.039 0.925,0.387 0.784,0.348 1.184,0.763 0.895,1.069 -0.292,0.305 -2.148,-0.081 -2.487,-0.256 -0.349,-0.178 -1.251,-0.424 -1.889,-0.824 -0.371,-0.224 -1.355,0.305 -1.355,0.305 l -0.9,0.537 z"
   stroke-miterlimit="10"
   inkscape:connector-curvature="0"
   style="fill:#ffffff;stroke:#020202;stroke-width:0.25;stroke-miterlimit:10" />
	<g
   id="g9042">
		<path
   id="path9044"
   d="m 17.418,78.243 c 0.373,-0.174 0.304,-0.224 0.757,-0.58 0.146,-0.115 0.336,-0.435 0.463,-0.782 0.175,-0.477 0.111,-0.996 0.162,-1.243 0.093,-0.425 0.494,-1.296 0.407,-1.772 -0.04,-0.226 -0.369,-1.135 -0.403,-1.309 -0.03,-0.168 -0.082,-0.776 -0.041,-0.985 0.042,-0.207 -0.012,-0.526 -0.13,-0.666 -0.118,-0.139 -0.253,-0.472 -0.398,-0.587 -0.14,-0.113 -0.568,-0.202 -0.458,-0.174 0.111,0.026 0.388,0.054 0.651,0.193 0.106,0.055 0.106,0.178 0.178,0.257 0.112,0.111 0.206,0.198 0.235,0.254 0.048,0.091 0.304,-0.063 0.318,-0.17 0.015,-0.15 0.344,-0.354 0.265,-0.593 -0.076,-0.24 -0.097,-0.509 -0.077,-0.398 0.022,0.115 0.321,0.479 0.154,0.686 -0.164,0.202 -0.199,0.506 -0.189,0.6 0.016,0.079 0.234,0.035 0.42,-0.02 0.192,-0.054 0.396,-0.333 0.469,-0.413 0.073,-0.08 -0.062,0.118 -0.196,0.3 -0.135,0.18 -0.497,0.208 -0.625,0.502 -0.126,0.293 -0.116,0.633 -0.054,0.799 0.064,0.166 0.089,0.747 0.184,0.928 0.092,0.182 0.22,0.782 0.163,0.956 -0.062,0.176 -0.002,0.92 0.019,1.013 0.019,0.094 -0.091,0.424 0.034,0.642 0.133,0.215 0.001,0.861 -0.035,0.961 -0.039,0.098 -0.023,0.383 0.118,0.504 0.14,0.118 0.083,0.429 0.255,0.567 0.171,0.138 0.233,0.15 0.614,0.27 0.47,0.148 1.459,0.144 1.228,0.161 -0.273,0.026 -0.795,-0.011 -1.133,-0.061 -0.337,-0.048 -0.711,-0.087 -0.898,-0.209 -0.154,-0.103 -0.516,-0.317 -0.734,-0.245 -0.221,0.073 -0.268,0.21 -0.471,0.373 -0.203,0.17 -0.35,0.337 -0.287,0.216 0.068,-0.12 0.277,-0.372 0.256,-0.466 -0.016,-0.091 0.042,-0.174 -0.148,-0.091 -0.097,0.048 -0.346,0.254 -0.653,0.417 -0.197,0.111 -0.42,0.165 -0.42,0.165 z"
   stroke-miterlimit="10"
   inkscape:connector-curvature="0"
   style="fill:#716960;stroke:#020202;stroke-width:0.15000001;stroke-miterlimit:10" />
		<path
   id="path9046"
   d="m 18.906,77.589 c 0.05,-0.199 0.211,-0.38 0.229,-0.595 0.009,-0.124 0.008,-0.218 0.068,-0.335 0.044,-0.092 0.07,-0.188 0.094,-0.28 0.045,-0.168 0.046,-0.315 0.046,-0.483"
   stroke-miterlimit="10"
   inkscape:connector-curvature="0"
   style="fill:none;stroke:#020202;stroke-width:0.15000001;stroke-miterlimit:10" />
		<path
   id="path9048"
   d="m 19.197,75.681 c 0,-0.119 -0.023,-0.252 -10e-4,-0.369 0.026,-0.131 0.118,-0.248 0.135,-0.379 0.023,-0.27 0.023,-0.557 0.027,-0.807"
   stroke-miterlimit="10"
   inkscape:connector-curvature="0"
   style="fill:none;stroke:#020202;stroke-width:0.15000001;stroke-miterlimit:10" />
	</g>
</g><g
     id="g9050">
	<path
   id="path9052"
   d="m 183.992,20.068 c 0.478,0.041 0.702,-0.167 1.06,-0.277 0.412,-0.127 0.643,-0.027 1.066,-0.072 0.381,-0.04 0.674,-0.497 1.021,-0.533 0.457,-0.049 0.861,0.516 1.322,0.589"
   stroke-miterlimit="10"
   inkscape:connector-curvature="0"
   style="fill:none;stroke:#010101;stroke-width:0.5;stroke-miterlimit:10" />
	<path
   id="path9054"
   d="m 184.14,22.047 c 0.373,-0.07 1.095,-0.361 1.472,-0.209 0.204,0.082 -0.067,0.484 0.131,0.563 0.343,0.136 0.747,-0.208 1.058,-0.317 1.062,-0.382 0.515,0.243 1.281,0.704 0.367,0.221 0.83,0.196 1.264,0.503"
   stroke-miterlimit="10"
   inkscape:connector-curvature="0"
   style="fill:none;stroke:#010101;stroke-width:0.5;stroke-miterlimit:10" />
	<path
   id="path9056"
   d="m 183.406,24.685 c 0.269,-0.09 0.56,-0.225 0.849,-0.212 0.441,1.147 0.459,0.833 1.545,0.954 0.082,0.23 0.119,0.468 0.109,0.713 0.859,-0.129 0.915,0.608 1.303,1.151 -0.117,0.098 -0.111,-0.009 -0.215,-0.042"
   stroke-miterlimit="10"
   inkscape:connector-curvature="0"
   style="fill:none;stroke:#010101;stroke-width:0.5;stroke-miterlimit:10" />
	<path
   id="path9058"
   d="m 182.382,25.052 c -0.002,0.338 -0.5,0.55 -0.5,0.748 0,0.431 0.422,0.255 0.613,0.571 0.282,0.463 0.043,1.063 0.252,1.405 0.176,0.289 0.524,0.318 0.588,0.721 0.043,0.258 -0.264,0.499 -0.228,0.732 0.065,0.419 0.601,0.566 0.519,1.17"
   stroke-miterlimit="10"
   inkscape:connector-curvature="0"
   style="fill:none;stroke:#010101;stroke-width:0.5;stroke-miterlimit:10" />
	<path
   id="path9060"
   d="m 180.622,25.563 c -0.98,0.111 -0.39,0.54 -0.512,1.027 -0.163,0.653 -0.751,0.408 -1.387,0.454 0.377,0.554 -0.047,1.052 -0.02,1.585 -0.104,-0.008 -0.24,0.036 -0.344,0.023 0.061,0.164 0.037,0.423 0.126,0.578 -0.747,0.008 -0.517,0.775 -1.019,1.168"
   stroke-miterlimit="10"
   inkscape:connector-curvature="0"
   style="fill:none;stroke:#010101;stroke-width:0.5;stroke-miterlimit:10" />
	<path
   id="path9062"
   d="m 178.643,23.806 c -0.246,-0.123 -0.586,-0.184 -0.812,-0.416 0.012,0.43 -0.021,0.881 0.068,1.284 -0.299,0.046 -0.604,0.011 -0.855,-0.128 0.193,1.028 -0.705,0.43 -1.174,0.367 0.021,0.227 -0.039,0.486 -0.025,0.712 -0.1,0.025 -0.168,0.073 -0.268,0.099 0.038,0.189 -0.055,0.441 -0.021,0.636 -0.188,-0.047 -0.394,0.048 -0.589,-0.034 0.056,0.172 -0.041,0.389 0,0.553 -0.107,0.01 -0.248,0.027 -0.355,0.006"
   stroke-miterlimit="10"
   inkscape:connector-curvature="0"
   style="fill:none;stroke:#010101;stroke-width:0.5;stroke-miterlimit:10" />
	<path
   id="path9064"
   d="m 177.398,21.388 c 0.077,-0.035 0.137,0.057 0.144,-0.066 -0.297,-0.303 -0.463,-0.693 -0.522,-1.102 -0.371,0.395 -1.168,1.163 -1.468,0.149 -0.139,-0.09 -0.107,-0.022 -0.217,-0.142 -0.461,0.072 -0.787,-0.066 -0.808,-0.587 -0.493,-0.001 -0.938,-0.518 -1.231,-0.891"
   stroke-miterlimit="10"
   inkscape:connector-curvature="0"
   style="fill:none;stroke:#010101;stroke-width:0.5;stroke-miterlimit:10" />
	<path
   id="path9066"
   d="m 179.449,18.97 c -0.479,0.074 -0.741,-0.064 -0.879,-0.455 -0.056,-0.156 0.111,-0.578 0.084,-0.638 -0.124,-0.261 -0.431,-0.151 -0.524,-0.298 -0.17,-0.262 -0.231,-0.553 -0.381,-0.86 -0.16,-0.331 -0.41,-0.574 -0.57,-0.973"
   stroke-miterlimit="10"
   inkscape:connector-curvature="0"
   style="fill:none;stroke:#010101;stroke-width:0.5;stroke-miterlimit:10" />
	<path
   id="path9068"
   d="m 181.574,18.31 c -0.118,-0.319 -0.616,-0.853 -0.593,-1.174 0.02,-0.265 0.402,-0.335 0.449,-0.658 0.066,-0.452 -0.885,-1.181 -0.235,-1.479 0.019,-0.315 -0.053,-0.701 0.009,-1.014 0.073,-0.371 0.403,-0.403 0.297,-0.878"
   stroke-miterlimit="10"
   inkscape:connector-curvature="0"
   style="fill:none;stroke:#010101;stroke-width:0.5;stroke-miterlimit:10" />
	<path
   id="path9070"
   d="m 183.48,19.116 c -0.099,-0.523 0.177,-0.621 0.565,-0.732 0.162,-0.047 0.545,0.096 0.684,0.009 0.218,-0.138 0.05,-0.448 0.23,-0.597 0.346,-0.286 0.856,-0.216 1.271,-0.348 0.474,-0.153 0.751,-0.477 1.207,-0.604"
   stroke-miterlimit="10"
   inkscape:connector-curvature="0"
   style="fill:none;stroke:#010101;stroke-width:0.5;stroke-miterlimit:10" />
	<circle
   id="circle9072"
   r="4.1170001"
   cy="21.795"
   cx="180.968"
   stroke-miterlimit="10"
   sodipodi:cx="180.968"
   sodipodi:cy="21.795"
   sodipodi:rx="4.1170001"
   sodipodi:ry="4.1170001"
   style="fill:#ffffff;stroke:#010101;stroke-width:0.75;stroke-miterlimit:10"
   d="m 185.085,21.795 c 0,2.273756 -1.84324,4.117 -4.117,4.117 -2.27375,0 -4.117,-1.843244 -4.117,-4.117 0,-2.273756 1.84325,-4.117 4.117,-4.117 2.27376,0 4.117,1.843244 4.117,4.117 z" />
</g><g
     id="g9074">
	<path
   id="path9076"
   d="m 52.689,25.188 c 0.267,0.294 1.017,0.68 1.66,0.866 0.184,0.054 1.822,0.077 4.092,0.082 2.525,0.006 5.833,-0.01 8.789,-0.028 3.658,-0.024 6.778,-0.054 7.22,-0.054 1.117,0 2.921,-0.527 2.711,-1.496 -0.567,-2.624 -3.655,-0.909 -3.412,-0.756 0.247,0.155 2.215,-2.021 0.457,-1.614 -0.858,0.2 -1.004,1.027 -1.004,1.027 0,0 0.762,-1.905 0.125,-2.649 -0.637,-0.743 -2.067,-0.884 -2.544,-0.884 -0.48,0 -1.615,0.311 -1.522,0.374 0.093,0.063 1.672,-0.109 1.599,-0.993 -0.074,-0.906 -1.072,-1.121 -1.984,-0.903 -0.983,0.234 -2.639,1.337 -2.08,1.148 0.558,-0.185 1.262,-1.604 -0.54,-1.905 -1.248,-0.207 -1.614,0.656 -1.326,0.545 0.338,-0.133 -0.239,-1.159 -1.402,-1.184 -1.234,-0.026 -2.741,0.662 -2.872,2.112 -0.083,0.934 1.035,0.517 -0.639,0.432 -1.373,-0.068 -2.144,0.24 -2.313,0.721 -0.307,0.873 0.928,1.617 0.85,1.407 -0.077,-0.21 -0.711,-0.325 -1.456,-0.148 -0.674,0.162 -1.052,0.484 -0.983,1.042 0.072,0.557 1.185,0.559 1.185,0.629 0,0.073 -1.699,-0.654 -2.636,0.061 -0.733,0.561 -0.334,1.21 -0.147,1.537 0.077,0.134 0.226,0.369 0.358,0.389 0.134,0.018 -0.996,-1.608 -2.186,-0.998 -0.721,0.37 -0.267,0.945 0,1.24 z"
   stroke-miterlimit="10"
   inkscape:connector-curvature="0"
   style="fill:#ffffff;stroke:#010101;stroke-width:0.25;stroke-miterlimit:10" />
	<path
   id="path9078"
   d="m 58.741,23.874 c 0.349,-0.892 1.913,-2.683 3.322,-1.503 0.181,0.152 0.514,0.572 0.692,0.703 0.27,-0.143 0.583,-0.536 0.85,-0.65 0.687,-0.292 1.568,-0.394 2.341,-0.301 0.568,0.068 1.213,0.406 1.247,0.879 -0.043,-0.38 2.434,-0.794 3.27,0.514 0.188,0.293 0.408,0.562 0.463,0.881"
   stroke-miterlimit="10"
   inkscape:connector-curvature="0"
   style="fill:#ffffff;stroke:#010101;stroke-width:0.25;stroke-miterlimit:10" />
</g><g
     id="g9080">
	<path
   id="path9082"
   d="m 69.735,29.354 c 0.317,0.451 1.209,1.041 1.973,1.327 0.219,0.082 2.167,0.117 4.864,0.125 3.002,0.009 6.934,-0.015 10.448,-0.044 4.349,-0.037 8.058,-0.082 8.582,-0.082 1.327,0 3.473,-0.808 3.224,-2.292 -0.675,-4.02 -4.345,-1.393 -4.056,-1.159 0.292,0.236 2.632,-3.097 0.543,-2.473 -1.021,0.306 -1.194,1.574 -1.194,1.574 0,0 0.906,-2.919 0.147,-4.059 -0.757,-1.138 -2.457,-1.354 -3.024,-1.354 -0.57,0 -1.92,0.476 -1.809,0.572 0.111,0.096 1.988,-0.167 1.9,-1.521 -0.088,-1.387 -1.275,-1.717 -2.358,-1.384 -1.17,0.359 -3.137,2.049 -2.474,1.76 0.664,-0.283 1.501,-2.457 -0.642,-2.919 -1.483,-0.317 -1.918,1.004 -1.576,0.834 0.402,-0.203 -0.284,-1.775 -1.667,-1.813 -1.466,-0.041 -3.258,1.013 -3.413,3.235 -0.1,1.43 1.23,0.792 -0.76,0.662 -1.632,-0.104 -2.549,0.367 -2.749,1.104 -0.365,1.337 1.103,2.477 1.01,2.157 -0.092,-0.323 -0.846,-0.498 -1.73,-0.227 -0.801,0.248 -1.251,0.742 -1.169,1.596 0.085,0.853 1.408,0.855 1.408,0.964 0,0.111 -2.019,-1.001 -3.133,0.093 -0.871,0.858 -0.398,1.854 -0.175,2.354 0.092,0.206 0.269,0.565 0.426,0.596 0.16,0.028 -1.183,-2.463 -2.598,-1.528 -0.855,0.569 -0.315,1.45 0.002,1.902 z"
   stroke-miterlimit="10"
   inkscape:connector-curvature="0"
   style="fill:#ffffff;stroke:#010101;stroke-width:0.25;stroke-miterlimit:10" />
	<path
   id="path9084"
   d="m 76.93,27.34 c 0.415,-1.366 2.273,-4.11 3.95,-2.301 0.214,0.231 0.609,0.876 0.822,1.076 0.32,-0.218 0.691,-0.822 1.01,-0.996 0.817,-0.447 1.863,-0.603 2.783,-0.462 0.676,0.104 1.443,0.622 1.483,1.347 -0.051,-0.583 2.893,-1.216 3.886,0.788 0.223,0.449 0.484,0.861 0.552,1.35"
   stroke-miterlimit="10"
   inkscape:connector-curvature="0"
   style="fill:#ffffff;stroke:#010101;stroke-width:0.25;stroke-miterlimit:10" />
</g><text
     id="text9086"
     font-size="9"
     transform="translate(171.3105,42.4473)"
     style="font-size:9px;font-family:TimesNewRomanPSMT">Sun</text>
<text
     id="text9088"
     font-size="5.5686"
     transform="translate(103.5713,23.3901)"
     style="font-size:5.56860018px;font-family:TimesNewRomanPSMT">Clouds</text>
<text
     id="text9090"
     font-size="9"
     transform="translate(15.6396,114.334)"
     style="font-size:9px;font-family:TimesNewRomanPSMT">Land</text>
<line
     id="line9092"
     y2="21.98"
     x2="102.092"
     y1="23.188"
     x1="87.905998"
     stroke-miterlimit="10"
     style="fill:none;stroke:#000000;stroke-width:0.5;stroke-miterlimit:10" /></g></svg>