<?xml version="1.0" encoding="UTF-8" standalone="no"?>
<!-- Generator: Adobe Illustrator 16.0.0, SVG Export Plug-In . SVG Version: 6.00 Build 0)  -->

<svg
   xmlns:dc="http://purl.org/dc/elements/1.1/"
   xmlns:cc="http://creativecommons.org/ns#"
   xmlns:rdf="http://www.w3.org/1999/02/22-rdf-syntax-ns#"
   xmlns:svg="http://www.w3.org/2000/svg"
   xmlns="http://www.w3.org/2000/svg"
   xmlns:sodipodi="http://sodipodi.sourceforge.net/DTD/sodipodi-0.dtd"
   xmlns:inkscape="http://www.inkscape.org/namespaces/inkscape"
   version="1.0"
   id="Layer_1"
   x="0px"
   y="0px"
   viewBox="0 0 473.08001 305.70775"
   enable-background="new 0 0 437 54"
   xml:space="preserve"
   inkscape:version="0.48.4 r9939"
   width="100%"
   height="100%"
   sodipodi:docname="canvas.svg"><metadata
   id="metadata110"><rdf:RDF><cc:Work
       rdf:about=""><dc:format>image/svg+xml</dc:format><dc:type
         rdf:resource="http://purl.org/dc/dcmitype/StillImage" /><dc:title></dc:title></cc:Work></rdf:RDF></metadata><defs
   id="defs108" /><sodipodi:namedview
   pagecolor="#ffffff"
   bordercolor="#666666"
   borderopacity="1"
   objecttolerance="10"
   gridtolerance="10"
   guidetolerance="10"
   inkscape:pageopacity="0"
   inkscape:pageshadow="2"
   inkscape:window-width="640"
   inkscape:window-height="480"
   id="namedview106"
   showgrid="false"
   inkscape:zoom="0.65446224"
   inkscape:cx="267.5062"
   inkscape:cy="104.99887"
   inkscape:window-x="491"
   inkscape:window-y="67"
   inkscape:window-maximized="0"
   inkscape:current-layer="Layer_1"
   fit-margin-top="0"
   fit-margin-left="0"
   fit-margin-right="0"
   fit-margin-bottom="0"
   showborder="false"
   inkscape:showpageshadow="false" />

<g
   transform="translate(-61.6875,-346.03125)"
   id="Layer_2"><path
     style="fill:#070404"
     inkscape:connector-curvature="0"
     d="m 464.318,455.401 c 0,0 61.119,6.185 52.253,56.757 0,0 -16.881,-36.153 -61.82,-26.718 -10e-4,0 0.822,-29.963 9.567,-30.039 z"
     id="path8" /><path
     style="fill:#070404;stroke:#000000;stroke-width:4;stroke-miterlimit:10"
     inkscape:connector-curvature="0"
     stroke-miterlimit="10"
     d="m 122.487,534 c 0,0 -53.986,23 -57.986,81 0,0 27,-64 82,-49 -0.001,0 -13.504,-35.563 -24.014,-32 z"
     id="path10" /><path
     style="fill:#070404"
     inkscape:connector-curvature="0"
     d="m 315.166,545.166 c 0,0 54.517,63.057 6.017,106.573 0,0 11.5,-49.314 -40.744,-75.134 0,0 25.941,-38.22 34.727,-31.439 z"
     id="path12" /><path
     style="fill:#ffffff;stroke:#000000;stroke-width:3;stroke-miterlimit:10"
     inkscape:connector-curvature="0"
     stroke-miterlimit="10"
     d="m 344.448,447.467 c 10.5,-2.5 21.5,-6.5 32.5,-3 7,2.5 11,9.5 18,10.5 6,0.5 14,-2.5 20,-3 9.5,-0.5 29.5,-4 39,0 8,4 3,7.5 4.5,14.5 1.5,7 7,12 13,15 10,5.5 15.5,10.5 13,23 -3,13.5 -16.092,4.986 -28.092,7.986"
     id="path14" /><path
     style="fill:#070404"
     inkscape:connector-curvature="0"
     d="m 489.614,540.03 c 0,0 69.566,35.196 36.003,91.048 0,0 -3.506,-50.516 -61.032,-59.834 -10e-4,0 14.637,-35.111 25.029,-31.214 z"
     id="path16" /><path
     style="fill:#ffffff;stroke:#000000;stroke-width:3;stroke-miterlimit:10"
     inkscape:connector-curvature="0"
     stroke-miterlimit="10"
     d="m 187.5,347.5 c 14,3 16,57 17,72 3,35 -15,43 -42,60 -14,10 -27,20 -35,35 -9,16 -5,26 5,41 16,22 56,25 67,-5 2,-7 0,-17 0,-24 12,1 21,-1 21,-15 10,3 12,15 23,19 6,2 15,0 21,-1 2,13 -1,26 4,39 3,11 26,36 38,20 7,-10 -14,-29 -2,-40 7,-6 14,2 20,1 12,-3 7,-7 10,-19 4,1 10,6 14,6 8,1 13,-6 18,-6 11,1 22,16 33,21 17,7 10,10 19,23 7,8 19,11 29,12 14,2 23,0 26,-14 1,-7 -3,-12 -1,-18 2,-7 11,-9 11,-17 -1,-13 -22,-20 -31,-28 -13,-11 -23,-12 -39,-19 -21,-9 -32,-22 -47,-39 -13,-15 -34,-21 -53,-28 -30,-12 -57,-43 -67,-75"
     id="path18" /><path
     style="fill:none;stroke:#000000;stroke-miterlimit:10"
     inkscape:connector-curvature="0"
     stroke-miterlimit="10"
     d="m 123.166,525.833 c 7.333,4 13.333,20 23.333,10.666 9.333,-8.666 -4,-19.333 -8.667,-26 4.667,6.667 14.667,25.334 19.333,10 2,-8 -5.333,-19.333 -8.667,-26 4.667,8.667 11.333,27.334 19.333,14 6,-9.333 -2.667,-16.666 -4,-25.333 5.333,6.667 9.333,22.667 18.667,10 4.667,-6.667 1.333,-18.667 -0.667,-26"
     id="path20" /><path
     style="fill:none;stroke:#000000;stroke-miterlimit:10"
     inkscape:connector-curvature="0"
     stroke-miterlimit="10"
     d="m 368.5,455.166 c -3.334,3.333 -10.667,16 -6,20 8,8 11.333,-8.667 13.333,-12.667 -2.833,10.001 -17.333,23.334 -8,32 12,10 15.333,-13.333 18,-20.666 -2.667,7.333 -7.394,20.006 -6,26.666 3.489,16.675 18.667,-2.666 18,-12.666 0,4.666 -2.667,19.333 2,22.666 9.333,6.667 12.667,-10.666 12,-16.666 -0.667,5.333 -4.667,22.666 0,26 11.333,8 11.333,-18 11.333,-23.334 0,6 -4.666,30.667 2,32.667 12,2.667 10.667,-22 10.667,-28 0.667,4 -3.333,30 -0.667,32.667 8,7.333 19.584,-15.756 21.189,-21.38 -3.334,9.333 -19.189,28.046 -9.189,33.38 15.334,7.333 25.334,-13.334 27.334,-24.667 0,8.667 -16,27.333 -4,31.333 13.333,4 12.666,-12.666 12.666,-20"
     id="path22" /><path
     style="fill:none;stroke:#000000;stroke-miterlimit:10"
     inkscape:connector-curvature="0"
     stroke-miterlimit="10"
     d="m 215.166,353.832 c 9.333,10.667 14,37.333 15.333,51.333 1.333,16.667 5.333,42.667 -4,56.667"
     id="path24" /><path
     style="fill:none;stroke:#000000;stroke-miterlimit:10"
     inkscape:connector-curvature="0"
     stroke-miterlimit="10"
     d="m 297.166,469.833 c -25.333,-8 -20,36.666 3.333,18.666 -7.333,3.334 -16,6.667 -10.667,16 4.667,9.334 12,4 18.667,0 -18.667,8.667 -4,26 8,11.334 -18,10 -2,22.666 8.666,12.666 -8.666,2.667 -24,7.334 -10,16.667 10.667,7.333 16,-0.667 16.667,-10.667"
     id="path26" /><path
     style="fill:none;stroke:#000000;stroke-miterlimit:10"
     inkscape:connector-curvature="0"
     stroke-miterlimit="10"
     d="m 374.25,443.093 c -5,4.75 0.5,16 4,20.25 2.5,2.75 7.5,4.5 11.25,2.25 3.5,-2.25 3.5,-8.25 6.75,-11.75 0.5,3.5 -1.5,7.75 -0.5,11.25 1.5,4.75 6.5,5.25 11,5 10.5,-0.5 16.5,-8.25 18,-18 1.25,6.5 -0.5,13 7.75,13.75 10,1 9,-8.75 13.5,-15 0.75,4 -2,7.75 0.25,11.5 2.5,4 7,4 11,4"
     id="path28" /><path
     style="fill:none;stroke:#070404;stroke-width:3;stroke-miterlimit:10"
     inkscape:connector-curvature="0"
     stroke-miterlimit="10"
     d="m 335.5,532.5 c -15,-22 -23,-47 -40,-68"
     id="path30" /></g></svg>