<?xml version="1.0" encoding="UTF-8" standalone="no"?>
<!-- Generator: Adobe Illustrator 16.0.0, SVG Export Plug-In . SVG Version: 6.00 Build 0)  -->

<svg
   xmlns:dc="http://purl.org/dc/elements/1.1/"
   xmlns:cc="http://creativecommons.org/ns#"
   xmlns:rdf="http://www.w3.org/1999/02/22-rdf-syntax-ns#"
   xmlns:svg="http://www.w3.org/2000/svg"
   xmlns="http://www.w3.org/2000/svg"
   xmlns:sodipodi="http://sodipodi.sourceforge.net/DTD/sodipodi-0.dtd"
   xmlns:inkscape="http://www.inkscape.org/namespaces/inkscape"
   version="1.0"
   id="Layer_1"
   x="0px"
   y="0px"
   viewBox="0 0 399.03125 275.34375"
   enable-background="new 0 0 437 54"
   xml:space="preserve"
   inkscape:version="0.48.4 r9939"
   width="100%"
   height="100%"
   sodipodi:docname="canvas.svg"><metadata
   id="metadata110"><rdf:RDF><cc:Work
       rdf:about=""><dc:format>image/svg+xml</dc:format><dc:type
         rdf:resource="http://purl.org/dc/dcmitype/StillImage" /><dc:title></dc:title></cc:Work></rdf:RDF></metadata><defs
   id="defs108" /><sodipodi:namedview
   pagecolor="#ffffff"
   bordercolor="#666666"
   borderopacity="1"
   objecttolerance="10"
   gridtolerance="10"
   guidetolerance="10"
   inkscape:pageopacity="0"
   inkscape:pageshadow="2"
   inkscape:window-width="640"
   inkscape:window-height="480"
   id="namedview106"
   showgrid="false"
   inkscape:zoom="0.65446224"
   inkscape:cx="245.00616"
   inkscape:cy="100.33543"
   inkscape:window-x="491"
   inkscape:window-y="87"
   inkscape:window-maximized="0"
   inkscape:current-layer="Layer_1"
   fit-margin-top="0"
   fit-margin-left="0"
   fit-margin-right="0"
   fit-margin-bottom="0"
   showborder="false"
   inkscape:showpageshadow="false" />

<g
   transform="translate(-103.5,-312)"
   id="Layer_3"><g
     id="g8"><g
       id="g10"><path
         style="fill:none;stroke:#000000;stroke-miterlimit:10"
         inkscape:connector-curvature="0"
         stroke-miterlimit="10"
         d="M 103.5,396.5"
         id="path12" /></g></g><path
     style="fill:none;stroke:#000000;stroke-width:5;stroke-miterlimit:10"
     inkscape:connector-curvature="0"
     stroke-miterlimit="10"
     d="m 111.167,394.5 c 8,-9.333 30.667,-13.333 42,-16.667 20.667,-7.333 27.333,-23.333 44.667,-35.333 28,-20 58.667,-28 92,-28 30.667,0 66,5.333 91.333,23.333 16.667,11.333 31.333,24 42.667,41.333 2,3.333 4.666,9.333 6.666,12 3.334,4 9.334,6 12,10.667 6,9.334 0,11.334 12,16 12.667,4.667 16.667,14 24.667,24.667 7.333,9.333 20,22 20.667,34.667 -11.334,-4.667 -30.667,-2 -43.334,-2 -10.666,0 -14.124,7.159 -24,8 -10,0.852 -15.333,0 -24,-3.334 -7.333,-3.333 -12.666,-4.666 -20.666,-4.666 -2.667,0 -8,-0.667 -10,0 -5.334,2 -2.667,4.666 -6.667,8 -7.333,6.666 -15.333,5.333 -24,9.333 -9.333,3.333 -14,8.667 -19.333,16 -18.667,28.667 -28,58.667 -59.334,76.667"
     id="path14" /><path
     style="fill:none;stroke:#000000;stroke-miterlimit:10"
     inkscape:connector-curvature="0"
     stroke-miterlimit="10"
     d="m 167.834,406.5 c -6.667,2.667 -14.667,5.333 -20,10 -6,6 -6,12.667 -10.667,18.667"
     id="path16" /><path
     style="fill:none;stroke:#000000;stroke-miterlimit:10"
     inkscape:connector-curvature="0"
     stroke-miterlimit="10"
     d="m 176.5,422.5 c -10,9.333 -22,18.667 -32.667,26.667"
     id="path18" /><path
     style="fill:none;stroke:#000000;stroke-miterlimit:10"
     inkscape:connector-curvature="0"
     stroke-miterlimit="10"
     d="m 187.167,440.5 c -11.333,4 -30.667,12.667 -33.333,26.667"
     id="path20" /><path
     style="fill:none;stroke:#000000;stroke-miterlimit:10"
     inkscape:connector-curvature="0"
     stroke-miterlimit="10"
     d="m 199.834,452.5 c -22.667,4.667 -35.333,20.667 -35.333,42"
     id="path22" /><path
     style="fill:none;stroke:#000000;stroke-miterlimit:10"
     inkscape:connector-curvature="0"
     stroke-miterlimit="10"
     d="m 220.5,479.167 c -12.667,0.666 -34,14.666 -38.667,26.666"
     id="path24" /><path
     style="fill:none;stroke:#000000;stroke-miterlimit:10"
     inkscape:connector-curvature="0"
     stroke-miterlimit="10"
     d="m 234.5,499.833 c -12.667,2 -31.333,13.334 -32,27.334"
     id="path26" /><path
     style="fill:none;stroke:#000000;stroke-miterlimit:10"
     inkscape:connector-curvature="0"
     stroke-miterlimit="10"
     d="m 245.167,508.5 c -14,0.667 -26,19.333 -31.333,30.667"
     id="path28" /><path
     style="fill:none;stroke:#000000;stroke-miterlimit:10"
     inkscape:connector-curvature="0"
     stroke-miterlimit="10"
     d="m 259.167,525.167 c -16,2 -21.333,24.666 -26.667,36.666"
     id="path30" /><path
     style="fill:none;stroke:#000000;stroke-miterlimit:10"
     inkscape:connector-curvature="0"
     stroke-miterlimit="10"
     d="m 272.5,533.833 c -10.667,1.334 -22,26.667 -29.333,34.667"
     id="path32" /><path
     style="fill:none;stroke:#000000;stroke-miterlimit:10"
     inkscape:connector-curvature="0"
     stroke-miterlimit="10"
     d="m 431.834,389.166 c -3.334,19.333 -20.667,30.667 -38,36.667"
     id="path34" /><path
     style="fill:none;stroke:#000000;stroke-miterlimit:10"
     inkscape:connector-curvature="0"
     stroke-miterlimit="10"
     d="m 311.834,359.833 c -17.334,6.667 -34,12.667 -42,31.333 -4.667,11.333 -8.667,24 -4,36"
     id="path36" /><path
     style="fill:#070404;stroke:#000000;stroke-width:4;stroke-miterlimit:10"
     inkscape:connector-curvature="0"
     stroke-miterlimit="10"
     d="m 307.167,385.166 c 14,-4 14.667,-24.667 32.667,-19.333 9.333,2 24,13.333 31.333,19.333 -14.667,-2.667 -22,6 -36,6.667 -10,0.667 -18,-4.667 -27.333,-6.667"
     id="path38" /><path
     style="fill:none;stroke:#000000;stroke-width:3;stroke-miterlimit:10"
     inkscape:connector-curvature="0"
     stroke-miterlimit="10"
     d="m 447.167,412.5 c -8.667,13.333 -22.667,12.667 -31.333,22.667 16,3.333 26.666,4 40.666,13.333 14.667,9.333 28.667,19.333 44,27.333"
     id="path40" /><path
     style="fill:none;stroke:#000000;stroke-miterlimit:10"
     inkscape:connector-curvature="0"
     stroke-miterlimit="10"
     d="m 413.167,450.5 c 20,8 39.333,12 59.333,17.333"
     id="path42" /><path
     style="fill:none;stroke:#000000;stroke-miterlimit:10"
     inkscape:connector-curvature="0"
     stroke-miterlimit="10"
     d="m 373.834,478.5 c -12.667,8 -34.667,5.333 -48.667,4"
     id="path44" /><g
     id="g46"><g
       id="g48"><g
         id="g50"><g
           id="g52"><g
             id="g54"><g
               id="g56"><path
                 style="fill:none"
                 inkscape:connector-curvature="0"
                 d="m 258.029,439.859 c 0,0 -0.061,0.954 -0.152,2.385 -0.055,0.712 -0.092,1.552 -0.094,2.462 0,0.91 -0.06,1.865 -0.009,2.848 0.014,3.895 0.675,7.883 0.675,7.883 l 14.819,-2.312 c 0,0 -0.488,-2.845 -0.499,-5.874 -0.046,-0.743 0.012,-1.516 0.008,-2.226 -0.002,-0.71 0.027,-1.38 0.075,-1.96 0.072,-1.155 0.12,-1.925 0.12,-1.925 l -14.943,-1.281 z"
                 id="path58" /></g><path
               style="fill:#231f20;fill-rule:evenodd"
               inkscape:connector-curvature="0"
               clip-rule="evenodd"
               d="m 265.969,450.677 -1.495,0.121 c 0,0 0.058,0.651 0.116,1.302 0.042,0.652 0.158,1.299 0.159,1.299 l 1.487,-0.199 c 0,0 -0.114,-0.624 -0.154,-1.259 -0.057,-0.632 -0.113,-1.264 -0.113,-1.264 z"
               id="path60" /><path
               style="fill:#231f20;fill-rule:evenodd"
               inkscape:connector-curvature="0"
               clip-rule="evenodd"
               d="m 265.79,446.127 -1.5,-0.002 c 0,0 -0.024,0.65 0.012,1.303 0.022,0.651 0.045,1.304 0.045,1.304 l 1.499,-0.064 c 0,0 -0.022,-0.635 -0.044,-1.27 -0.037,-0.636 -0.012,-1.271 -0.012,-1.271 z"
               id="path62" /><path
               style="fill:#231f20;fill-rule:evenodd"
               inkscape:connector-curvature="0"
               clip-rule="evenodd"
               d="m 265.963,441.582 -1.496,-0.105 c 0,0 -0.041,0.648 -0.082,1.298 -0.021,0.324 -0.041,0.648 -0.056,0.892 -0.004,0.244 -0.007,0.407 -0.007,0.407 l 1.5,0.05 c 0,0 0.002,-0.158 0.006,-0.397 0.015,-0.237 0.035,-0.556 0.055,-0.873 0.04,-0.636 0.08,-1.272 0.08,-1.272 z"
               id="path64" /></g></g><g
           id="g66"><g
             id="g68"><g
               id="g70"><path
                 style="fill:none"
                 inkscape:connector-curvature="0"
                 d="m 258.448,455.436 c 0,0 0.115,0.991 0.449,2.483 0.288,1.489 0.794,3.479 1.451,5.44 0.642,1.965 1.459,3.896 2.154,5.304 0.354,0.703 0.649,1.288 0.856,1.698 0.229,0.399 0.359,0.627 0.359,0.627 l 13.059,-7.377 c 0,0 -0.085,-0.146 -0.234,-0.4 -0.133,-0.266 -0.322,-0.646 -0.549,-1.101 -0.249,-0.442 -0.458,-1.006 -0.711,-1.595 -0.271,-0.578 -0.475,-1.243 -0.703,-1.896 -0.44,-1.313 -0.793,-2.677 -0.992,-3.731 -0.241,-1.036 -0.319,-1.765 -0.319,-1.765 l -14.82,2.313 z"
                 id="path72" /></g><path
               style="fill:#231f20;fill-rule:evenodd"
               inkscape:connector-curvature="0"
               clip-rule="evenodd"
               d="m 269.137,463.881 -1.375,0.601 c 0,0 0.233,0.616 0.546,1.198 0.296,0.589 0.592,1.178 0.592,1.178 l 1.327,-0.699 c 0,0 -0.284,-0.564 -0.567,-1.129 -0.3,-0.557 -0.523,-1.149 -0.523,-1.149 z"
               id="path74" /><path
               style="fill:#231f20;fill-rule:evenodd"
               inkscape:connector-curvature="0"
               clip-rule="evenodd"
               d="m 267.584,459.624 -1.438,0.427 c 0,0 0.043,0.158 0.109,0.396 0.079,0.233 0.185,0.545 0.291,0.856 0.214,0.621 0.429,1.243 0.429,1.243 l 1.406,-0.522 c 0,0 -0.207,-0.598 -0.413,-1.195 -0.102,-0.299 -0.204,-0.599 -0.28,-0.822 -0.062,-0.231 -0.104,-0.383 -0.104,-0.383 z"
               id="path76" /><polygon
               style="fill:#231f20;fill-rule:evenodd"
               clip-rule="evenodd"
               points="265.06,455.487 265.598,458.054 267.056,457.701 266.537,455.222 "
               id="polygon78" /></g></g><g
           id="g80"><g
             id="g82"><g
               id="g84"><path
                 style="fill:none"
                 inkscape:connector-curvature="0"
                 d="m 263.718,470.989 c 0,0 0.133,0.227 0.367,0.623 0.242,0.391 0.549,0.976 0.994,1.626 0.449,0.647 0.949,1.423 1.538,2.209 0.614,0.765 1.229,1.623 1.93,2.394 1.366,1.579 2.841,3.041 3.992,4.059 0.578,0.507 1.06,0.929 1.397,1.224 0.348,0.276 0.546,0.434 0.546,0.434 l 9.42,-11.671 c 0,0 -0.14,-0.109 -0.386,-0.302 -0.23,-0.203 -0.56,-0.493 -0.955,-0.842 -0.791,-0.695 -1.771,-1.675 -2.666,-2.707 -0.469,-0.502 -0.847,-1.064 -1.256,-1.554 -0.382,-0.509 -0.694,-1.011 -0.99,-1.423 -0.292,-0.415 -0.477,-0.798 -0.636,-1.047 -0.151,-0.254 -0.237,-0.399 -0.237,-0.399 l -13.058,7.376 z"
                 id="path86" /></g><path
               style="fill:#231f20;fill-rule:evenodd"
               inkscape:connector-curvature="0"
               clip-rule="evenodd"
               d="m 276.875,474.968 -1.043,1.078 c 0,0 0.454,0.478 0.958,0.899 0.494,0.433 0.987,0.866 0.987,0.866 l 0.971,-1.144 c 0,0 -0.476,-0.418 -0.951,-0.835 -0.487,-0.405 -0.922,-0.864 -0.922,-0.864 z"
               id="path88" /><path
               style="fill:#231f20;fill-rule:evenodd"
               inkscape:connector-curvature="0"
               clip-rule="evenodd"
               d="m 273.82,471.623 -1.169,0.939 c 0,0 0.102,0.13 0.254,0.324 0.147,0.198 0.364,0.446 0.586,0.689 0.439,0.491 0.878,0.981 0.878,0.981 l 1.1,-1.021 c 0,0 -0.421,-0.471 -0.842,-0.941 -0.213,-0.233 -0.422,-0.471 -0.563,-0.662 -0.147,-0.185 -0.244,-0.309 -0.244,-0.309 z"
               id="path90" /><path
               style="fill:#231f20;fill-rule:evenodd"
               inkscape:connector-curvature="0"
               clip-rule="evenodd"
               d="m 271.233,467.927 -1.283,0.777 c 0,0 0.084,0.142 0.21,0.354 0.119,0.218 0.301,0.492 0.491,0.762 0.372,0.544 0.744,1.089 0.744,1.089 l 1.222,-0.87 c 0,0 -0.356,-0.521 -0.713,-1.043 -0.182,-0.258 -0.356,-0.521 -0.47,-0.729 -0.121,-0.203 -0.201,-0.34 -0.201,-0.34 z"
               id="path92" /></g></g><g
           id="g94"><g
             id="g96"><g
               id="g98"><path
                 style="fill:none"
                 inkscape:connector-curvature="0"
                 d="m 274.482,483.556 c 0,0 0.2,0.157 0.548,0.431 0.353,0.266 0.841,0.685 1.458,1.111 0.616,0.428 1.329,0.95 2.109,1.463 0.787,0.49 1.619,1.046 2.469,1.536 1.697,0.999 3.421,1.889 4.721,2.527 1.304,0.609 2.173,1.016 2.173,1.016 l 6.116,-13.694 c 0,0 -0.695,-0.325 -1.739,-0.813 -1.025,-0.506 -2.372,-1.201 -3.653,-1.955 -0.647,-0.37 -1.249,-0.782 -1.839,-1.144 -0.573,-0.376 -1.077,-0.753 -1.527,-1.06 -0.452,-0.306 -0.778,-0.602 -1.031,-0.788 -0.246,-0.191 -0.387,-0.302 -0.387,-0.302 l -9.418,11.672 z"
                 id="path100" /></g><path
               style="fill:#231f20;fill-rule:evenodd"
               inkscape:connector-curvature="0"
               clip-rule="evenodd"
               d="m 288.033,482.763 -0.686,1.334 c 0,0 0.58,0.296 1.16,0.592 0.589,0.275 1.179,0.551 1.179,0.551 l 0.632,-1.36 c 0,0 -0.577,-0.269 -1.153,-0.538 -0.566,-0.29 -1.132,-0.579 -1.132,-0.579 z"
               id="path102" /><path
               style="fill:#231f20;fill-rule:evenodd"
               inkscape:connector-curvature="0"
               clip-rule="evenodd"
               d="m 284.068,480.521 -0.793,1.273 c 0,0 0.543,0.365 1.114,0.681 0.567,0.323 1.134,0.646 1.134,0.646 l 0.731,-1.31 c 0,0 -0.552,-0.314 -1.104,-0.629 -0.556,-0.306 -1.082,-0.661 -1.082,-0.661 z"
               id="path104" /><path
               style="fill:#231f20;fill-rule:evenodd"
               inkscape:connector-curvature="0"
               clip-rule="evenodd"
               d="m 280.339,477.947 -0.913,1.189 c 0,0 0.505,0.42 1.049,0.784 0.536,0.376 1.071,0.752 1.071,0.752 l 0.845,-1.239 c 0,0 -0.519,-0.364 -1.038,-0.729 -0.527,-0.352 -1.014,-0.757 -1.014,-0.757 z"
               id="path106" /></g></g><g
           id="g108"><g
             id="g110"><g
               id="g112"><path
                 style="fill:none"
                 inkscape:connector-curvature="0"
                 d="m 287.961,491.64 c 0,-10e-4 3.492,1.559 7.017,2.76 3.521,1.229 7.047,2.203 7.047,2.202 l 4.034,-14.445 c 0,0.001 -3.137,-0.869 -6.141,-1.917 -3.019,-1.031 -5.84,-2.295 -5.841,-2.294 l -6.116,13.694 z"
                 id="path114" /></g><path
               style="fill:#231f20;fill-rule:evenodd"
               inkscape:connector-curvature="0"
               clip-rule="evenodd"
               d="m 300.76,487.859 -0.447,1.432 c 0,0 0.617,0.196 1.238,0.375 0.62,0.184 1.24,0.367 1.24,0.367 l 0.415,-1.441 c 0,0 -0.612,-0.181 -1.224,-0.362 -0.613,-0.178 -1.222,-0.371 -1.222,-0.371 z"
               id="path116" /><path
               style="fill:#231f20;fill-rule:evenodd"
               inkscape:connector-curvature="0"
               clip-rule="evenodd"
               d="m 296.425,486.397 -0.513,1.409 c 0,0 0.611,0.216 1.222,0.432 0.61,0.219 1.225,0.422 1.225,0.423 l 0.475,-1.423 c 0,-10e-4 -0.605,-0.201 -1.206,-0.417 -0.601,-0.212 -1.203,-0.424 -1.203,-0.424 z"
               id="path118" /><path
               style="fill:#231f20;fill-rule:evenodd"
               inkscape:connector-curvature="0"
               clip-rule="evenodd"
               d="m 292.192,484.718 -0.593,1.378 c 0,0 0.598,0.254 1.196,0.508 0.598,0.253 1.207,0.478 1.207,0.478 l 0.546,-1.396 c 0,0 -0.598,-0.221 -1.185,-0.469 -0.585,-0.25 -1.171,-0.499 -1.171,-0.499 z"
               id="path120" /></g></g><g
           id="g122"><g
             id="g124"><g
               id="g126"><path
                 style="fill:none"
                 inkscape:connector-curvature="0"
                 d="m 302.025,496.602 c 0,0 3.525,0.993 7.038,1.778 3.515,0.812 7.013,1.481 7.013,1.481 l 2.85,-14.725 c 0,0 -3.288,-0.632 -6.507,-1.374 -3.232,-0.724 -6.359,-1.606 -6.359,-1.606 l -4.035,14.446 z"
                 id="path128" /></g><polygon
               style="fill:#231f20;fill-rule:evenodd"
               clip-rule="evenodd"
               points="313.785,492.736 316.311,493.251 316.602,491.779 314.095,491.268 "
               id="polygon130" /><polygon
               style="fill:#231f20;fill-rule:evenodd"
               clip-rule="evenodd"
               points="309.272,491.727 311.785,492.305 312.111,490.842 309.618,490.267 "
               id="polygon132" /><path
               style="fill:#231f20;fill-rule:evenodd"
               inkscape:connector-curvature="0"
               clip-rule="evenodd"
               d="m 305.191,489.143 -0.392,1.447 c 0,0 0.624,0.169 1.247,0.338 0.626,0.157 1.252,0.313 1.252,0.313 l 0.365,-1.454 c 0,0 -0.62,-0.155 -1.24,-0.311 -0.616,-0.166 -1.232,-0.333 -1.232,-0.333 z"
               id="path134" /></g></g></g></g></g></g></svg>