<?xml version="1.0" encoding="UTF-8" standalone="no"?>
<!-- Generator: Adobe Illustrator 16.0.0, SVG Export Plug-In . SVG Version: 6.00 Build 0)  -->

<svg
   xmlns:dc="http://purl.org/dc/elements/1.1/"
   xmlns:cc="http://creativecommons.org/ns#"
   xmlns:rdf="http://www.w3.org/1999/02/22-rdf-syntax-ns#"
   xmlns:svg="http://www.w3.org/2000/svg"
   xmlns="http://www.w3.org/2000/svg"
   xmlns:sodipodi="http://sodipodi.sourceforge.net/DTD/sodipodi-0.dtd"
   xmlns:inkscape="http://www.inkscape.org/namespaces/inkscape"
   version="1.0"
   id="Layer_1"
   x="0px"
   y="0px"
   viewBox="0 0 471.0625 234.84068"
   enable-background="new 0 0 437 54"
   xml:space="preserve"
   inkscape:version="0.48.4 r9939"
   width="100%"
   height="100%"
   sodipodi:docname="canvas.svg"><metadata
   id="metadata110"><rdf:RDF><cc:Work
       rdf:about=""><dc:format>image/svg+xml</dc:format><dc:type
         rdf:resource="http://purl.org/dc/dcmitype/StillImage" /><dc:title></dc:title></cc:Work></rdf:RDF></metadata><defs
   id="defs108" /><sodipodi:namedview
   pagecolor="#ffffff"
   bordercolor="#666666"
   borderopacity="1"
   objecttolerance="10"
   gridtolerance="10"
   guidetolerance="10"
   inkscape:pageopacity="0"
   inkscape:pageshadow="2"
   inkscape:window-width="640"
   inkscape:window-height="480"
   id="namedview106"
   showgrid="false"
   inkscape:zoom="0.65446224"
   inkscape:cx="242.63986"
   inkscape:cy="95.46666"
   inkscape:window-x="432"
   inkscape:window-y="52"
   inkscape:window-maximized="0"
   inkscape:current-layer="Layer_1"
   fit-margin-top="0"
   fit-margin-left="0"
   fit-margin-right="0"
   fit-margin-bottom="0"
   showborder="false"
   inkscape:showpageshadow="false" />

<g
   transform="translate(-55,-234.53432)"
   id="Layer_2"><path
     style="fill:none;stroke:#000000;stroke-width:2;stroke-miterlimit:10"
     inkscape:connector-curvature="0"
     stroke-miterlimit="10"
     d="m 55.5,340.5 c 7,-4 14,-23 21,-31 11,-13 23,-24 36,-34 19,-18 42,-33 68,-38 42,-7 96,4 118,43 4,8 6,24 11,30 6,7 18,8 26,11 21,6 41,13 61,19 50,14 107,36 128,87 -12,-1 -19.033,-21 -34,-29 -10.285,-5.498 -24,-9 -35,-13 -22,-6 -43,-11 -66,-15 -23,-3 -44,-5 -67,-6 -32,-1 -32,7 -46,33 -17,33 -43,53 -74,71"
     id="path8" /><g
     id="g10"><g
       id="g12"><g
         id="g14"><g
           id="g16"><g
             id="g18"><g
               id="g20"><path
                 style="fill:none"
                 inkscape:connector-curvature="0"
                 d="m 77.806,331.619 c 0,0 -2.102,2.45 -4.278,4.769 -2.18,2.313 -4.441,4.438 -4.441,4.438 l 10.243,10.956 c 0,0 2.665,-2.504 5.118,-5.112 2.449,-2.609 4.746,-5.29 4.746,-5.29 l -11.388,-9.761 z"
                 id="path22" /></g><path
               style="fill:#231f20;fill-rule:evenodd"
               inkscape:connector-curvature="0"
               clip-rule="evenodd"
               d="m 77.102,344.237 -1.063,-1.059 c 0,0 -0.432,0.448 -0.884,0.873 -0.447,0.43 -0.895,0.86 -0.895,0.86 l 1.036,1.085 c 0,0 0.455,-0.437 0.909,-0.874 0.459,-0.432 0.896,-0.885 0.897,-0.885 z"
               id="path24" /><path
               style="fill:#231f20;fill-rule:evenodd"
               inkscape:connector-curvature="0"
               clip-rule="evenodd"
               d="m 80.223,340.97 -1.102,-1.018 c 0,0 -0.421,0.458 -0.843,0.916 -0.431,0.448 -0.863,0.896 -0.863,0.896 l 1.081,1.04 c 0,0 0.437,-0.453 0.874,-0.907 0.427,-0.464 0.853,-0.927 0.853,-0.927 z"
               id="path26" /><polygon
               style="fill:#231f20;fill-rule:evenodd"
               clip-rule="evenodd"
               points="82.094,336.634 80.449,338.508 81.566,339.51 83.226,337.617 "
               id="polygon28" /></g></g><g
           id="g30"><g
             id="g32"><g
               id="g34"><path
                 style="fill:none"
                 inkscape:connector-curvature="0"
                 d="m 69.088,340.826 c 0,0 -0.141,0.133 -0.387,0.367 -0.25,0.222 -0.608,0.54 -1.038,0.92 -0.432,0.373 -0.924,0.846 -1.471,1.285 -0.545,0.441 -1.127,0.911 -1.708,1.381 -0.58,0.475 -1.177,0.857 -1.725,1.268 -0.275,0.199 -0.541,0.392 -0.793,0.575 -0.254,0.158 -0.494,0.307 -0.715,0.444 -0.882,0.553 -1.47,0.922 -1.47,0.922 l 7.441,13.021 c 0,0 0.846,-0.524 2.114,-1.312 0.315,-0.199 0.657,-0.415 1.018,-0.643 0.337,-0.241 0.692,-0.496 1.06,-0.759 0.723,-0.533 1.541,-1.081 2.271,-1.672 0.732,-0.592 1.464,-1.184 2.15,-1.738 0.686,-0.556 1.264,-1.105 1.79,-1.561 0.518,-0.46 0.949,-0.844 1.251,-1.113 0.29,-0.274 0.456,-0.431 0.456,-0.431 L 69.088,340.826 z"
                 id="path36" /></g><path
               style="fill:#231f20;fill-rule:evenodd"
               inkscape:connector-curvature="0"
               clip-rule="evenodd"
               d="m 66.76,353.059 -0.848,-1.238 c 0,0 -0.125,0.09 -0.312,0.225 -0.195,0.122 -0.455,0.284 -0.714,0.447 -0.52,0.324 -1.04,0.648 -1.04,0.648 l 0.775,1.284 c 0,0 0.539,-0.336 1.078,-0.671 0.269,-0.168 0.538,-0.337 0.74,-0.463 0.193,-0.139 0.321,-0.232 0.321,-0.232 z"
               id="path38" /><path
               style="fill:#231f20;fill-rule:evenodd"
               inkscape:connector-curvature="0"
               clip-rule="evenodd"
               d="m 70.387,350.33 -0.942,-1.167 c 0,0 -0.48,0.389 -0.961,0.777 -0.237,0.199 -0.483,0.384 -0.673,0.515 -0.188,0.135 -0.313,0.225 -0.313,0.225 l 0.894,1.205 c 0,0 0.128,-0.093 0.321,-0.231 0.196,-0.135 0.449,-0.325 0.691,-0.528 0.492,-0.399 0.983,-0.796 0.983,-0.796 z"
               id="path40" /><polygon
               style="fill:#231f20;fill-rule:evenodd"
               clip-rule="evenodd"
               points="72.802,346.281 70.949,347.927 71.926,349.066 73.813,347.389 "
               id="polygon42" /></g></g></g></g></g><g
     id="g44"><g
       id="g46"><g
         id="g48"><g
           id="g50"><g
             id="g52"><g
               id="g54"><path
                 style="fill:none"
                 inkscape:connector-curvature="0"
                 d="m 100.001,343.501 c 0,0 -0.679,0.489 -1.697,1.223 -1.008,0.765 -2.397,1.643 -3.771,2.563 -0.693,0.438 -1.396,0.835 -2.048,1.231 -0.652,0.4 -1.264,0.753 -1.797,1.014 -1.058,0.555 -1.762,0.925 -1.762,0.925 l 6.643,13.446 c 0,0 0.898,-0.47 2.246,-1.175 0.685,-0.343 1.445,-0.779 2.242,-1.264 0.799,-0.482 1.67,-0.981 2.507,-1.511 1.639,-1.087 3.304,-2.156 4.463,-3.03 1.184,-0.854 1.973,-1.425 1.973,-1.425 l -8.999,-11.997 z"
                 id="path56" /></g><path
               style="fill:#231f20;fill-rule:evenodd"
               inkscape:connector-curvature="0"
               clip-rule="evenodd"
               d="m 95.825,355.873 -0.743,-1.303 c 0,0 -0.568,0.343 -1.16,0.638 -0.586,0.307 -1.172,0.614 -1.172,0.614 l 0.688,1.333 c 0,0 0.601,-0.314 1.201,-0.629 0.607,-0.303 1.186,-0.653 1.186,-0.653 z"
               id="path58" /><path
               style="fill:#231f20;fill-rule:evenodd"
               inkscape:connector-curvature="0"
               clip-rule="evenodd"
               d="m 99.955,353.325 -0.823,-1.254 c 0,0 -0.554,0.366 -1.108,0.733 -0.558,0.36 -1.134,0.689 -1.134,0.689 l 0.78,1.281 c 0,0 0.588,-0.336 1.156,-0.703 0.565,-0.373 1.129,-0.746 1.129,-0.746 z"
               id="path60" /><polygon
               style="fill:#231f20;fill-rule:evenodd"
               clip-rule="evenodd"
               points="103.037,349.36 100.878,350.916 101.732,352.15 103.924,350.57 "
               id="polygon62" /></g></g><g
           id="g64"><g
             id="g66"><g
               id="g68"><path
                 style="fill:none"
                 inkscape:connector-curvature="0"
                 d="m 88.926,350.457 c 0,0 -0.175,0.106 -0.486,0.242 -0.311,0.138 -0.755,0.334 -1.288,0.57 -0.533,0.218 -1.15,0.558 -1.817,0.775 -0.665,0.239 -1.375,0.495 -2.083,0.751 -0.708,0.24 -1.411,0.38 -2.069,0.573 -0.329,0.088 -0.646,0.174 -0.948,0.255 -0.297,0.046 -0.578,0.09 -0.837,0.13 -1.035,0.177 -1.725,0.294 -1.725,0.294 l 1.656,14.906 c 0,0 1.096,-0.177 2.74,-0.442 0.41,-0.07 0.855,-0.146 1.325,-0.227 0.451,-0.116 0.926,-0.238 1.418,-0.364 0.973,-0.27 2.044,-0.516 3.051,-0.854 0.994,-0.357 1.988,-0.714 2.92,-1.049 0.942,-0.325 1.729,-0.737 2.449,-1.038 0.708,-0.316 1.297,-0.581 1.709,-0.765 0.413,-0.185 0.628,-0.312 0.628,-0.312 l -6.643,-13.445 z"
                 id="path70" /></g><path
               style="fill:#231f20;fill-rule:evenodd"
               inkscape:connector-curvature="0"
               clip-rule="evenodd"
               d="m 82.318,361.373 -0.332,-1.463 c 0,0 -0.157,0.05 -0.397,0.098 -0.241,0.04 -0.563,0.092 -0.885,0.145 -0.644,0.106 -1.287,0.213 -1.287,0.213 l 0.214,1.484 c 0,0 0.673,-0.111 1.347,-0.222 0.337,-0.056 0.673,-0.112 0.926,-0.153 0.252,-0.05 0.414,-0.102 0.414,-0.102 z"
               id="path72" /><path
               style="fill:#231f20;fill-rule:evenodd"
               inkscape:connector-curvature="0"
               clip-rule="evenodd"
               d="m 86.994,359.977 -0.503,-1.413 c 0,0 -0.619,0.223 -1.237,0.445 -0.306,0.124 -0.626,0.193 -0.863,0.259 -0.238,0.063 -0.396,0.105 -0.396,0.105 l 0.413,1.442 c 0,0 0.165,-0.044 0.412,-0.11 0.246,-0.069 0.58,-0.143 0.896,-0.269 0.638,-0.229 1.278,-0.459 1.278,-0.459 z"
               id="path74" /><polygon
               style="fill:#231f20;fill-rule:evenodd"
               clip-rule="evenodd"
               points="90.844,356.773 88.434,357.846 89.002,359.234 91.482,358.13 "
               id="polygon76" /></g></g></g></g></g><g
     id="g78"><g
       id="g80"><g
         id="g82"><g
           id="g84"><g
             id="g86"><g
               id="g88"><path
                 style="fill:none"
                 inkscape:connector-curvature="0"
                 d="m 128.754,356.038 c 0,0 -0.305,0.041 -0.839,0.111 -0.524,0.086 -1.319,0.146 -2.188,0.347 -1.8,0.324 -4.037,0.968 -6.125,1.693 -2.079,0.737 -3.951,1.536 -5.323,2.117 -1.321,0.57 -2.203,0.949 -2.203,0.949 l 5.934,13.774 c 0,0 0.869,-0.375 2.173,-0.937 1.26,-0.535 2.899,-1.227 4.415,-1.762 1.514,-0.521 2.949,-0.932 3.967,-1.108 0.523,-0.133 0.926,-0.135 1.223,-0.193 0.292,-0.043 0.458,-0.068 0.458,-0.068 l -1.492,-14.923 z"
                 id="path90" /></g><polygon
               style="fill:#231f20;fill-rule:evenodd"
               clip-rule="evenodd"
               points="118.309,365.691 115.694,366.806 116.287,368.183 118.885,367.076 "
               id="polygon92" /><path
               style="fill:#231f20;fill-rule:evenodd"
               inkscape:connector-curvature="0"
               clip-rule="evenodd"
               d="m 123.597,365.322 -0.453,-1.43 c 0,0 -0.687,0.228 -1.373,0.456 -0.676,0.249 -1.352,0.499 -1.352,0.499 l 0.536,1.401 c 0,0 0.658,-0.243 1.315,-0.485 0.664,-0.221 1.327,-0.441 1.327,-0.441 z"
               id="path94" /><path
               style="fill:#231f20;fill-rule:evenodd"
               inkscape:connector-curvature="0"
               clip-rule="evenodd"
               d="m 128.432,364.182 -0.216,-1.484 c 0,0 -0.732,0.081 -1.443,0.249 -0.358,0.075 -0.716,0.149 -0.985,0.206 -0.27,0.051 -0.442,0.108 -0.442,0.109 l 0.363,1.455 c 0,0 0.166,-0.056 0.422,-0.104 0.255,-0.053 0.595,-0.124 0.935,-0.195 0.677,-0.162 1.366,-0.236 1.366,-0.236 z"
               id="path96" /></g></g><g
           id="g98"><g
             id="g100"><g
               id="g102"><path
                 style="fill:none"
                 inkscape:connector-curvature="0"
                 d="m 112.076,361.255 c 0,0 -0.839,0.356 -2.099,0.89 -1.249,0.531 -2.813,1.128 -4.336,1.63 -1.518,0.502 -2.965,0.819 -4.042,1.014 -0.54,0.104 -0.979,0.127 -1.291,0.178 -0.31,0.042 -0.487,0.065 -0.487,0.065 l 1.357,14.937 c 0,0 0.296,-0.036 0.813,-0.098 0.513,-0.073 1.265,-0.136 2.131,-0.297 1.738,-0.303 4.016,-0.829 6.121,-1.524 2.099,-0.687 4.094,-1.462 5.477,-2.049 1.373,-0.582 2.289,-0.97 2.289,-0.97 l -5.933,-13.776 z"
                 id="path104" /></g><path
               style="fill:#231f20;fill-rule:evenodd"
               inkscape:connector-curvature="0"
               clip-rule="evenodd"
               d="m 104.522,372.402 -0.324,-1.465 c 0,0 -0.674,0.129 -1.349,0.259 -0.336,0.073 -0.675,0.122 -0.931,0.148 -0.254,0.032 -0.424,0.053 -0.424,0.053 l 0.191,1.487 c 0,0 0.179,-0.022 0.447,-0.056 0.269,-0.028 0.625,-0.08 0.977,-0.156 0.706,-0.135 1.413,-0.27 1.413,-0.27 z"
               id="path106" /><path
               style="fill:#231f20;fill-rule:evenodd"
               inkscape:connector-curvature="0"
               clip-rule="evenodd"
               d="m 109.452,370.956 -0.5,-1.414 c 0,0 -0.652,0.245 -1.313,0.448 -0.661,0.203 -1.322,0.406 -1.322,0.406 l 0.413,1.442 c 0,0 0.685,-0.21 1.37,-0.42 0.683,-0.211 1.352,-0.461 1.352,-0.462 z"
               id="path108" /><path
               style="fill:#231f20;fill-rule:evenodd"
               inkscape:connector-curvature="0"
               clip-rule="evenodd"
               d="m 114.188,369.086 -0.587,-1.38 c 0,0 -0.648,0.271 -1.296,0.542 -0.647,0.274 -1.298,0.524 -1.298,0.524 l 0.55,1.396 c 0,0 0.666,-0.256 1.319,-0.534 0.657,-0.274 1.312,-0.548 1.312,-0.548 z"
               id="path110" /></g></g></g></g></g><g
     id="g112"><g
       id="g114"><g
         id="g116"><g
           id="g118"><g
             id="g120"><g
               id="g122"><path
                 style="fill:none"
                 inkscape:connector-curvature="0"
                 d="m 136.198,377.197 c 0,0 -0.063,0.032 -0.157,0.101 -0.047,0.035 -0.101,0.08 -0.158,0.139 -0.027,0.031 -0.057,0.064 -0.087,0.099 -0.045,0.021 -0.093,0.042 -0.142,0.065 -0.291,0.239 -0.994,0.507 -2.134,0.784 -1.098,0.264 -2.859,0.431 -4.199,0.599 -0.734,0.091 -1.346,0.167 -1.775,0.221 -0.473,0.073 -0.743,0.116 -0.743,0.116 l 2.291,14.822 c 0,0 0.177,-0.028 0.487,-0.078 0.358,-0.044 0.87,-0.107 1.483,-0.184 1.352,-0.184 3.214,-0.31 5.655,-0.842 2.383,-0.525 5.137,-1.504 7.079,-2.843 0.241,-0.152 0.473,-0.299 0.692,-0.438 0.206,-0.165 0.401,-0.321 0.584,-0.468 0.361,-0.303 0.675,-0.566 0.934,-0.784 0.505,-0.447 0.794,-0.703 0.794,-0.703 l -10.604,-10.606 z"
                 id="path124" /></g><polygon
               style="fill:#231f20;fill-rule:evenodd"
               clip-rule="evenodd"
               points="131.561,385.295 128.882,385.616 129.076,387.104 131.743,386.784 "
               id="polygon126" /><path
               style="fill:#231f20;fill-rule:evenodd"
               inkscape:connector-curvature="0"
               clip-rule="evenodd"
               d="m 136.565,385.884 -0.425,-1.438 c 0,0 -0.152,0.043 -0.381,0.108 -0.229,0.065 -0.53,0.161 -0.852,0.211 -0.634,0.124 -1.269,0.247 -1.269,0.247 l 0.241,1.481 c 0,0 0.674,-0.131 1.348,-0.263 0.338,-0.054 0.671,-0.157 0.921,-0.228 0.25,-0.071 0.417,-0.118 0.417,-0.118 z"
               id="path128" /><path
               style="fill:#231f20;fill-rule:evenodd"
               inkscape:connector-curvature="0"
               clip-rule="evenodd"
               d="m 140.996,383.62 -0.946,-1.164 c 0.062,0.08 -2.018,1.379 -2.063,1.309 l 0.638,1.358 c 0.04,0.086 2.439,-1.411 2.371,-1.503 z"
               id="path130" /></g></g><g
           id="g132"><g
             id="g134"><g
               id="g136"><path
                 style="fill:none"
                 inkscape:connector-curvature="0"
                 d="m 126.803,379.321 c 0,0 -0.271,0.042 -0.744,0.118 -0.446,0.056 -1.213,0.232 -2.093,0.43 -0.221,0.051 -0.452,0.104 -0.69,0.159 -0.255,0.079 -0.52,0.161 -0.791,0.246 -0.544,0.175 -1.111,0.353 -1.703,0.568 -1.221,0.543 -2.516,1.089 -3.747,1.959 -1.279,0.76 -2.323,1.804 -3.334,2.739 -0.888,0.982 -1.65,1.958 -2.259,2.792 -1.022,1.669 -1.649,2.814 -1.649,2.814 l 13.415,6.707 c 0,0 0.289,-0.417 0.64,-1.093 0.21,-0.245 0.433,-0.521 0.655,-0.815 0.275,-0.17 0.46,-0.488 0.777,-0.615 0.232,-0.218 0.638,-0.33 0.95,-0.515 0.216,-0.067 0.425,-0.132 0.623,-0.194 0.099,-0.035 0.195,-0.069 0.288,-0.102 0.119,-0.024 0.234,-0.048 0.344,-0.071 0.447,-0.092 0.779,-0.191 1.122,-0.23 0.31,-0.048 0.487,-0.076 0.487,-0.076 l -2.291,-14.821 z"
                 id="path138" /></g><path
               style="fill:#231f20;fill-rule:evenodd"
               inkscape:connector-curvature="0"
               clip-rule="evenodd"
               d="m 118.975,391.716 -1.143,-0.972 c 0,0 -0.45,0.562 -0.901,1.124 -0.376,0.604 -0.729,1.221 -0.728,1.221 l 1.296,0.754 c 0,0 0.332,-0.56 0.664,-1.12 0.407,-0.504 0.812,-1.007 0.812,-1.007 z"
               id="path140" /><path
               style="fill:#231f20;fill-rule:evenodd"
               inkscape:connector-curvature="0"
               clip-rule="evenodd"
               d="m 122.548,388.855 -0.683,-1.335 c 0,0 -0.163,0.078 -0.407,0.195 -0.229,0.148 -0.534,0.346 -0.839,0.544 -0.302,0.203 -0.615,0.39 -0.829,0.558 -0.203,0.182 -0.338,0.303 -0.338,0.303 l 0.961,1.152 c 0,0 0.119,-0.108 0.297,-0.271 0.189,-0.148 0.468,-0.31 0.734,-0.489 0.269,-0.176 0.538,-0.352 0.739,-0.484 0.22,-0.104 0.365,-0.173 0.365,-0.173 z"
               id="path142" /><path
               style="fill:#231f20;fill-rule:evenodd"
               inkscape:connector-curvature="0"
               clip-rule="evenodd"
               d="m 126.962,387.426 -0.275,-1.475 c 0,0 -0.685,0.153 -1.37,0.305 -0.343,0.063 -0.682,0.185 -0.936,0.265 -0.254,0.082 -0.424,0.137 -0.424,0.137 l 0.474,1.423 c 0,0 0.155,-0.05 0.387,-0.125 0.232,-0.074 0.537,-0.186 0.862,-0.245 0.641,-0.142 1.282,-0.285 1.282,-0.285 z"
               id="path144" /></g></g></g></g></g><g
     id="g146"><g
       id="g148"><g
         id="g150"><g
           id="g152"><g
             id="g154"><g
               id="g156"><path
                 style="fill:none"
                 inkscape:connector-curvature="0"
                 d="m 137.854,407.97 c 0,0 0.023,-0.08 0.064,-0.221 0.037,-0.12 0.083,-0.423 0.125,-0.435 0.035,-0.124 0.015,-0.116 0.021,-0.108 -0.001,-0.001 0.013,0.012 0.008,0.011 l -0.008,-0.011 0.079,-0.007 c 0.045,-0.008 0.09,-0.015 0.132,-0.021 0.062,-0.024 0.212,-0.028 0.324,-0.038 0.116,-0.012 0.216,-0.022 0.299,-0.03 0.205,-0.005 0.322,-0.007 0.322,-0.007 l -0.461,-14.991 c 0,0 -0.26,0.009 -0.715,0.024 -0.246,0.021 -0.544,0.046 -0.886,0.075 -0.345,0.034 -0.713,0.06 -1.208,0.15 -0.236,0.042 -0.482,0.084 -0.737,0.129 -0.247,0.042 -0.515,0.095 -0.844,0.187 -0.622,0.177 -1.292,0.333 -1.94,0.613 -0.655,0.264 -1.328,0.543 -1.961,0.927 -0.32,0.185 -0.644,0.37 -0.956,0.574 l -0.898,0.675 c -1.185,0.922 -2.164,2.083 -2.954,3.247 -0.391,0.584 -0.701,1.197 -1.002,1.769 -0.314,0.586 -0.465,1.084 -0.666,1.581 -0.405,1.031 -0.516,1.666 -0.656,2.182 -0.12,0.5 -0.188,0.785 -0.188,0.785 l 14.706,2.94 z"
                 id="path158" /></g><path
               style="fill:#231f20;fill-rule:evenodd"
               inkscape:connector-curvature="0"
               clip-rule="evenodd"
               d="m 135.741,399.522 0.434,1.436 c 0,0 0.459,-0.143 0.975,-0.211 0.248,-0.049 0.503,-0.084 0.702,-0.095 0.196,-0.019 0.326,-0.03 0.326,-0.03 l -0.122,-1.495 c 0,0 -0.145,0.014 -0.361,0.033 -0.216,0.013 -0.505,0.052 -0.795,0.107 -0.58,0.077 -1.159,0.255 -1.159,0.255 z"
               id="path160" /><path
               style="fill:#231f20;fill-rule:evenodd"
               inkscape:connector-curvature="0"
               clip-rule="evenodd"
               d="m 132.115,401.71 1.109,1.025 c 0.015,0.017 0.307,-0.387 0.708,-0.667 0.372,-0.32 0.811,-0.538 0.81,-0.538 l -0.761,-1.301 c 0,0.001 -0.538,0.27 -0.997,0.661 -0.489,0.349 -0.854,0.837 -0.869,0.82 z"
               id="path162" /><path
               style="fill:#231f20;fill-rule:evenodd"
               inkscape:connector-curvature="0"
               clip-rule="evenodd"
               d="m 130.211,405.473 1.448,0.394 c -0.061,-0.047 0.655,-1.9 0.708,-1.864 l -1.308,-0.736 c -0.075,-0.028 -0.932,2.195 -0.848,2.206 z"
               id="path164" /></g></g><g
           id="g166"><g
             id="g168"><g
               id="g170"><path
                 style="fill:none"
                 inkscape:connector-curvature="0"
                 d="m 139.22,407.103 c 0,0 0.117,-0.005 0.322,-0.013 0.242,0.007 0.588,0.016 1.004,0.025 0.863,0.029 2.219,0.159 3.722,0.31 1.499,0.152 3.172,0.304 4.504,0.37 1.337,0.068 2.321,0.05 2.321,0.05 l -0.129,-14.998 c 0,0 -0.525,0.014 -1.449,-0.032 -0.928,-0.046 -2.261,-0.162 -3.764,-0.315 -1.5,-0.148 -3.148,-0.314 -4.548,-0.368 -0.683,-0.033 -1.314,-0.032 -1.729,-0.04 -0.456,0.012 -0.715,0.019 -0.715,0.019 l 0.461,14.992 z"
                 id="path172" /></g><path
               style="fill:#231f20;fill-rule:evenodd"
               inkscape:connector-curvature="0"
               clip-rule="evenodd"
               d="m 147.94,399.698 -0.113,1.496 c 0,0 0.57,0.037 1.139,0.075 0.575,0.021 1.149,0.044 1.149,0.044 l 0.034,-1.499 c 0,0 -0.552,-0.021 -1.104,-0.043 -0.552,-0.036 -1.105,-0.073 -1.105,-0.073 z"
               id="path174" /><polygon
               style="fill:#231f20;fill-rule:evenodd"
               clip-rule="evenodd"
               points="143.806,400.819 146.037,401.038 146.179,399.545 143.95,399.326 "
               id="polygon176" /><path
               style="fill:#231f20;fill-rule:evenodd"
               inkscape:connector-curvature="0"
               clip-rule="evenodd"
               d="m 139.909,399.068 -0.016,1.5 c 0,0 0.536,-0.004 1.083,0.033 0.543,0.024 1.093,0.067 1.093,0.067 l 0.11,-1.496 c 0,0 -0.563,-0.044 -1.131,-0.07 -0.565,-0.038 -1.139,-0.034 -1.139,-0.034 z"
               id="path178" /></g></g><g
           id="g180"><g
             id="g182"><g
               id="g184"><path
                 style="fill:none"
                 inkscape:connector-curvature="0"
                 d="m 151.094,407.845 c 0,0 0.949,0.015 2.52,-0.125 1.548,-0.134 3.841,-0.486 6.226,-1.49 2.393,-0.962 4.628,-2.683 5.92,-4.108 0.701,-0.704 1.143,-1.331 1.474,-1.769 0.322,-0.441 0.506,-0.693 0.506,-0.693 l -12.479,-8.32 c 0,0 -0.042,0.049 -0.116,0.136 -0.07,0.086 -0.156,0.247 -0.272,0.33 -0.224,0.243 -0.422,0.419 -0.838,0.595 -0.402,0.18 -1.123,0.337 -1.824,0.387 -0.683,0.062 -1.246,0.06 -1.246,0.06 l 0.129,14.997 z"
                 id="path186" /></g><path
               style="fill:#231f20;fill-rule:evenodd"
               inkscape:connector-curvature="0"
               clip-rule="evenodd"
               d="m 159.071,397.405 0.953,1.158 c 0.051,0.053 1.779,-1.694 1.704,-1.751 l -1.179,-0.927 c 0.061,0.058 -1.437,1.567 -1.478,1.52 z"
               id="path188" /><path
               style="fill:#231f20;fill-rule:evenodd"
               inkscape:connector-curvature="0"
               clip-rule="evenodd"
               d="m 155.732,399.188 0.441,1.434 c 0,0 0.573,-0.204 1.144,-0.414 0.551,-0.268 1.103,-0.535 1.103,-0.535 l -0.728,-1.312 c 0,0 -0.478,0.232 -0.956,0.464 -0.502,0.181 -1.004,0.363 -1.004,0.363 z"
               id="path190" /><path
               style="fill:#231f20;fill-rule:evenodd"
               inkscape:connector-curvature="0"
               clip-rule="evenodd"
               d="m 151.919,399.791 0.069,1.499 c 0,0 0.583,-0.011 1.17,-0.086 0.587,-0.047 1.174,-0.159 1.174,-0.158 l -0.252,-1.479 c 0,-0.001 -0.53,0.103 -1.074,0.145 -0.538,0.07 -1.087,0.079 -1.087,0.079 z"
               id="path192" /></g></g></g></g></g><g
     id="g194"><g
       id="g196"><g
         id="g198"><g
           id="g200"><g
             id="g202"><g
               id="g204"><path
                 style="fill:none"
                 inkscape:connector-curvature="0"
                 d="m 182.608,406.546 c 0,0 -0.359,0.798 -0.898,1.994 -0.273,0.589 -0.612,1.223 -0.959,1.933 -0.367,0.655 -0.751,1.371 -1.154,2.001 -0.793,1.315 -1.641,2.27 -2.265,2.943 -0.337,0.287 -0.583,0.571 -0.792,0.721 -0.203,0.156 -0.319,0.245 -0.319,0.245 l 9.169,11.869 c 0,-0.001 1.112,-0.813 2.57,-2.252 1.408,-1.441 3.095,-3.496 4.332,-5.538 0.648,-1.021 1.196,-2.031 1.718,-2.979 0.467,-0.935 0.928,-1.816 1.273,-2.56 0.667,-1.481 1.111,-2.469 1.111,-2.469 l -13.786,-5.908 z"
                 id="path206" /></g><path
               style="fill:#231f20;fill-rule:evenodd"
               inkscape:connector-curvature="0"
               clip-rule="evenodd"
               d="m 184.139,419.858 -1.143,-0.972 c 0,0 -0.463,0.515 -0.926,1.03 -0.503,0.472 -1.007,0.942 -1.007,0.942 l 0.989,1.128 c 0,0 0.545,-0.511 1.09,-1.021 0.498,-0.553 0.997,-1.107 0.997,-1.107 z"
               id="path208" /><path
               style="fill:#231f20;fill-rule:evenodd"
               inkscape:connector-curvature="0"
               clip-rule="evenodd"
               d="m 187.142,415.488 -1.3,-0.747 c 0,0 -0.088,0.153 -0.219,0.385 -0.13,0.231 -0.303,0.542 -0.503,0.83 -0.386,0.589 -0.771,1.178 -0.771,1.178 l 1.23,0.859 c 0,0 0.405,-0.619 0.81,-1.237 0.21,-0.306 0.39,-0.627 0.526,-0.867 0.136,-0.241 0.227,-0.401 0.227,-0.401 z"
               id="path210" /><path
               style="fill:#231f20;fill-rule:evenodd"
               inkscape:connector-curvature="0"
               clip-rule="evenodd"
               d="m 189.497,410.799 -1.369,-0.613 c 0,0 -0.294,0.653 -0.588,1.307 -0.319,0.639 -0.638,1.276 -0.638,1.276 l 1.337,0.679 c 0,0 0.328,-0.656 0.656,-1.313 0.301,-0.668 0.602,-1.336 0.602,-1.336 z"
               id="path212" /></g></g><g
           id="g214"><g
             id="g216"><g
               id="g218"><path
                 style="fill:none"
                 inkscape:connector-curvature="0"
                 d="m 176.219,416.383 c 0,0 -0.114,0.093 -0.314,0.254 -0.226,0.146 -0.55,0.354 -0.938,0.605 -0.821,0.484 -2.141,1.108 -3.73,1.713 -1.563,0.604 -3.413,1.199 -4.771,1.656 -1.403,0.465 -2.338,0.774 -2.338,0.774 l 4.743,14.229 c 0,0 0.923,-0.306 2.308,-0.765 1.425,-0.482 3.307,-1.079 5.399,-1.88 2.072,-0.785 4.316,-1.805 6.023,-2.818 0.849,-0.519 1.553,-0.997 2.039,-1.324 0.475,-0.366 0.747,-0.575 0.747,-0.575 l -9.168,-11.869 z"
                 id="path220" /></g><polygon
               style="fill:#231f20;fill-rule:evenodd"
               clip-rule="evenodd"
               points="170.049,426.3 167.293,427.216 167.766,428.639 170.527,427.721 "
               id="polygon222" /><path
               style="fill:#231f20;fill-rule:evenodd"
               inkscape:connector-curvature="0"
               clip-rule="evenodd"
               d="m 175.456,425.915 -0.578,-1.385 c 0,0 -0.647,0.284 -1.321,0.528 -0.671,0.249 -1.343,0.497 -1.343,0.497 l 0.502,1.414 c 0,0 0.687,-0.255 1.375,-0.51 0.689,-0.248 1.365,-0.544 1.365,-0.544 z"
               id="path224" /><path
               style="fill:#231f20;fill-rule:evenodd"
               inkscape:connector-curvature="0"
               clip-rule="evenodd"
               d="m 180.143,423.454 -0.842,-1.241 c 0,0 -0.145,0.095 -0.362,0.236 -0.22,0.138 -0.497,0.344 -0.81,0.502 -0.305,0.168 -0.61,0.336 -0.839,0.462 -0.226,0.131 -0.387,0.203 -0.387,0.203 l 0.673,1.341 c 0,0 0.168,-0.077 0.411,-0.215 0.244,-0.135 0.569,-0.314 0.895,-0.494 0.332,-0.168 0.634,-0.391 0.871,-0.539 0.234,-0.154 0.39,-0.255 0.39,-0.255 z"
               id="path226" /></g></g></g></g></g><g
     id="g228"><g
       id="g230"><g
         id="g232"><g
           id="g234"><g
             id="g236"><g
               id="g238"><path
                 style="fill:none"
                 inkscape:connector-curvature="0"
                 d="m 215.867,417.478 c 0,0 -0.285,0.117 -0.784,0.323 -0.498,0.21 -1.208,0.486 -2.054,0.942 -1.684,0.84 -3.928,2.263 -5.83,4.132 -1.92,1.846 -3.428,4.025 -4.315,5.668 -0.906,1.648 -1.335,2.757 -1.336,2.757 l 13.816,5.836 c 0,0 0.058,-0.139 0.16,-0.381 0.112,-0.226 0.265,-0.554 0.463,-0.913 0.391,-0.733 0.969,-1.537 1.648,-2.194 0.671,-0.664 1.503,-1.195 2.231,-1.555 0.339,-0.198 0.684,-0.318 0.91,-0.417 0.228,-0.099 0.358,-0.155 0.358,-0.155 l -5.267,-14.043 z"
                 id="path240" /></g><path
               style="fill:#231f20;fill-rule:evenodd"
               inkscape:connector-curvature="0"
               clip-rule="evenodd"
               d="m 210.653,431.222 -1.246,-0.835 c 0,0 -0.1,0.146 -0.25,0.363 -0.134,0.228 -0.312,0.531 -0.49,0.834 -0.186,0.3 -0.338,0.615 -0.455,0.851 -0.117,0.236 -0.195,0.392 -0.195,0.392 l 1.352,0.65 c 0,0 0.073,-0.146 0.182,-0.363 0.108,-0.219 0.25,-0.513 0.421,-0.788 0.165,-0.28 0.329,-0.561 0.452,-0.771 0.137,-0.2 0.229,-0.333 0.229,-0.333 z"
               id="path242" /><path
               style="fill:#231f20;fill-rule:evenodd"
               inkscape:connector-curvature="0"
               clip-rule="evenodd"
               d="m 213.746,427.787 -0.95,-1.16 c 0,0 -0.529,0.472 -1.059,0.943 -0.487,0.515 -0.975,1.029 -0.975,1.029 l 1.13,0.985 c 0,0 0.444,-0.469 0.889,-0.938 0.483,-0.429 0.965,-0.859 0.965,-0.859 z"
               id="path244" /><path
               style="fill:#231f20;fill-rule:evenodd"
               inkscape:connector-curvature="0"
               clip-rule="evenodd"
               d="m 217.706,425.407 -0.602,-1.374 c 0,0 -0.162,0.068 -0.404,0.17 -0.235,0.119 -0.548,0.279 -0.862,0.438 -0.636,0.301 -1.223,0.7 -1.223,0.7 l 0.795,1.271 c 0,0 0.535,-0.366 1.125,-0.644 0.289,-0.147 0.579,-0.295 0.795,-0.405 0.226,-0.094 0.376,-0.156 0.376,-0.156 z"
               id="path246" /></g></g><g
           id="g248"><g
             id="g250"><g
               id="g252"><path
                 style="fill:none"
                 inkscape:connector-curvature="0"
                 d="m 201.547,431.301 c 0,0 -0.116,0.276 -0.318,0.76 -0.167,0.476 -0.446,1.171 -0.696,1.982 -0.539,1.637 -1.049,3.768 -1.399,5.805 -0.357,2.044 -0.58,3.994 -0.73,5.418 -0.137,1.406 -0.228,2.343 -0.228,2.343 l 14.937,1.357 c 0,0 0.083,-0.855 0.208,-2.138 0.131,-1.262 0.323,-2.892 0.587,-4.396 0.26,-1.512 0.6,-2.889 0.91,-3.817 0.145,-0.479 0.296,-0.827 0.382,-1.098 0.104,-0.242 0.164,-0.38 0.164,-0.38 l -13.817,-5.836 z"
                 id="path254" /></g><polygon
               style="fill:#231f20;fill-rule:evenodd"
               clip-rule="evenodd"
               points="205.064,444.453 204.779,447.135 206.271,447.278 206.554,444.632 "
               id="polygon256" /><path
               style="fill:#231f20;fill-rule:evenodd"
               inkscape:connector-curvature="0"
               clip-rule="evenodd"
               d="m 207.287,439.938 -1.469,-0.301 c 0,0 -0.127,0.67 -0.253,1.341 -0.108,0.672 -0.217,1.344 -0.217,1.344 l 1.483,0.222 c 0,0 0.105,-0.653 0.211,-1.307 0.123,-0.649 0.245,-1.299 0.245,-1.299 z"
               id="path258" /><path
               style="fill:#231f20;fill-rule:evenodd"
               inkscape:connector-curvature="0"
               clip-rule="evenodd"
               d="m 208.551,435.417 -1.407,-0.52 c 0,0 -0.059,0.163 -0.147,0.407 -0.094,0.244 -0.201,0.572 -0.298,0.904 -0.214,0.658 -0.382,1.324 -0.383,1.324 l 1.45,0.386 c 0,0 0.162,-0.638 0.364,-1.262 0.093,-0.315 0.194,-0.627 0.283,-0.855 0.082,-0.231 0.138,-0.384 0.138,-0.384 z"
               id="path260" /></g></g><g
           id="g262"><g
             id="g264"><g
               id="g266"><path
                 style="fill:none"
                 inkscape:connector-curvature="0"
                 d="m 198.176,447.608 c 0,0 -0.081,0.904 -0.201,2.26 -0.119,1.333 -0.271,3.063 -0.47,4.665 -0.195,1.61 -0.455,3.074 -0.691,4.062 -0.122,0.486 -0.223,0.885 -0.307,1.129 -0.077,0.258 -0.121,0.405 -0.121,0.405 l 14.229,4.742 c 0,0 0.087,-0.283 0.24,-0.779 0.164,-0.504 0.346,-1.195 0.549,-2.02 0.394,-1.641 0.748,-3.729 0.986,-5.693 0.243,-1.972 0.404,-3.831 0.526,-5.188 0.118,-1.335 0.197,-2.225 0.197,-2.225 l -14.937,-1.358 z"
                 id="path268" /></g><path
               style="fill:#231f20;fill-rule:evenodd"
               inkscape:connector-curvature="0"
               clip-rule="evenodd"
               d="m 204.943,458.979 -1.473,-0.283 c 0,0 -0.134,0.636 -0.269,1.271 -0.161,0.625 -0.323,1.249 -0.323,1.249 l 1.443,0.41 c 0,0 0.172,-0.659 0.341,-1.319 0.14,-0.664 0.281,-1.328 0.281,-1.328 z"
               id="path270" /><path
               style="fill:#231f20;fill-rule:evenodd"
               inkscape:connector-curvature="0"
               clip-rule="evenodd"
               d="m 205.627,454.19 -1.491,-0.161 c 0,0 -0.076,0.656 -0.152,1.313 -0.079,0.656 -0.175,1.305 -0.175,1.305 l 1.484,0.217 c 0,0 0.099,-0.668 0.18,-1.337 0.077,-0.669 0.154,-1.337 0.154,-1.337 z"
               id="path272" /><polygon
               style="fill:#231f20;fill-rule:evenodd"
               clip-rule="evenodd"
               points="204.581,449.289 204.344,451.948 205.837,452.087 206.075,449.421 "
               id="polygon274" /></g></g></g></g></g><g
     id="g276"><g
       id="g278"><g
         id="g280"><g
           id="g282"><g
             id="g284"><g
               id="g286"><path
                 style="fill:none"
                 inkscape:connector-curvature="0"
                 d="m 191.198,384.197 c 0,0 -0.555,0.557 -1.387,1.393 -0.842,0.852 -1.993,2.028 -3.158,3.313 -1.163,1.305 -2.33,2.685 -3.171,3.863 -0.427,0.555 -0.764,1.086 -1.003,1.438 -0.237,0.357 -0.373,0.561 -0.373,0.561 l 12.66,8.041 c 0,0 0.079,-0.116 0.216,-0.318 0.143,-0.204 0.313,-0.493 0.594,-0.852 0.497,-0.708 1.323,-1.684 2.207,-2.68 0.905,-0.998 1.907,-2.026 2.69,-2.817 0.798,-0.802 1.331,-1.336 1.331,-1.336 l -10.606,-10.606 z"
                 id="path288" /></g><path
               style="fill:#231f20;fill-rule:evenodd"
               inkscape:connector-curvature="0"
               clip-rule="evenodd"
               d="m 190.714,396.517 -1.175,-0.932 c 0,0 -0.365,0.459 -0.713,0.935 -0.36,0.465 -0.685,0.962 -0.685,0.962 l 1.239,0.846 c 0,0 0.306,-0.47 0.652,-0.915 0.332,-0.454 0.683,-0.896 0.682,-0.896 z"
               id="path290" /><path
               style="fill:#231f20;fill-rule:evenodd"
               inkscape:connector-curvature="0"
               clip-rule="evenodd"
               d="m 193.377,393.454 -1.096,-1.024 c 0,0 -0.393,0.426 -0.787,0.853 -0.384,0.438 -0.769,0.875 -0.769,0.875 l 1.135,0.981 c 0,0 0.374,-0.425 0.748,-0.851 0.384,-0.417 0.769,-0.834 0.769,-0.834 z"
               id="path292" /><polygon
               style="fill:#231f20;fill-rule:evenodd"
               clip-rule="evenodd"
               points="195.154,389.476 193.538,391.112 194.613,392.158 196.217,390.535 "
               id="polygon294" /></g></g><g
           id="g296"><g
             id="g298"><g
               id="g300"><path
                 style="fill:none"
                 inkscape:connector-curvature="0"
                 d="m 182.105,394.764 c 0,0 -0.54,0.841 -1.273,2.206 -0.735,1.367 -1.585,3.375 -2.163,5.526 -0.569,2.167 -0.77,4.43 -0.768,6.093 -0.013,0.834 0.067,1.507 0.089,1.988 0.036,0.478 0.056,0.75 0.056,0.75 l 14.906,-1.656 c 0,0 -0.021,-0.442 -0.053,-1.105 0.007,-0.646 0.074,-1.471 0.284,-2.291 0.236,-0.821 0.568,-1.674 0.932,-2.341 0.365,-0.667 0.649,-1.129 0.65,-1.129 l -12.66,-8.041 z"
                 id="path302" /></g><path
               style="fill:#231f20;fill-rule:evenodd"
               inkscape:connector-curvature="0"
               clip-rule="evenodd"
               d="m 185.967,407.345 -1.496,-0.111 c 0,0 -0.018,0.604 -0.037,1.209 -0.018,0.303 -0.006,0.604 0.015,0.829 0.014,0.227 0.024,0.377 0.024,0.377 l 1.497,-0.09 c 0,0 -0.009,-0.138 -0.022,-0.346 -0.02,-0.208 -0.031,-0.484 -0.013,-0.762 0.016,-0.552 0.032,-1.106 0.032,-1.106 z"
               id="path304" /><path
               style="fill:#231f20;fill-rule:evenodd"
               inkscape:connector-curvature="0"
               clip-rule="evenodd"
               d="m 186.762,403.465 -1.423,-0.474 c 0,0 -0.193,0.573 -0.352,1.155 -0.13,0.592 -0.261,1.183 -0.261,1.183 l 1.475,0.276 c 0,0 0.119,-0.54 0.238,-1.081 0.146,-0.534 0.323,-1.059 0.323,-1.059 z"
               id="path306" /><path
               style="fill:#231f20;fill-rule:evenodd"
               inkscape:connector-curvature="0"
               clip-rule="evenodd"
               d="m 188.415,399.853 -1.296,-0.754 c 0,0 -0.321,0.5 -0.575,1.045 -0.134,0.268 -0.268,0.536 -0.368,0.736 -0.104,0.199 -0.157,0.341 -0.157,0.341 l 1.37,0.61 c 0,0 0.048,-0.13 0.146,-0.315 0.093,-0.187 0.218,-0.436 0.343,-0.685 0.233,-0.506 0.537,-0.978 0.537,-0.978 z"
               id="path308" /></g></g></g></g></g><g
     id="g310"><g
       id="g312"><g
         id="g314"><g
           id="g316"><g
             id="g318"><g
               id="g320"><path
                 style="fill:none"
                 inkscape:connector-curvature="0"
                 d="m 193.5,267.999 c 0,0 0.158,0.007 0.434,0.021 0.277,0.024 0.666,-0.002 1.146,0.061 0.954,0.08 2.251,0.293 3.6,0.637 1.358,0.375 2.761,0.844 3.857,1.284 0.536,0.195 1.013,0.413 1.334,0.54 0.324,0.135 0.51,0.211 0.51,0.211 l 5.899,-13.79 c 0,0 -0.228,-0.095 -0.627,-0.261 -0.408,-0.163 -0.951,-0.409 -1.676,-0.678 -1.4,-0.558 -3.392,-1.246 -5.492,-1.814 -2.122,-0.551 -4.367,-0.927 -6.093,-1.07 -0.854,-0.096 -1.59,-0.084 -2.095,-0.113 -0.507,-0.016 -0.797,-0.025 -0.797,-0.025 v 14.997 z"
                 id="path322" /></g><path
               style="fill:#231f20;fill-rule:evenodd"
               inkscape:connector-curvature="0"
               clip-rule="evenodd"
               d="m 204.051,261.991 -0.504,1.413 c 0,0 0.612,0.225 1.222,0.459 0.612,0.225 1.216,0.485 1.216,0.485 l 0.57,-1.388 c 0,0 -0.615,-0.264 -1.246,-0.497 -0.628,-0.24 -1.258,-0.472 -1.258,-0.472 z"
               id="path324" /><path
               style="fill:#231f20;fill-rule:evenodd"
               inkscape:connector-curvature="0"
               clip-rule="evenodd"
               d="m 199.407,260.64 -0.32,1.465 c 0,0 0.628,0.148 1.255,0.296 0.622,0.18 1.245,0.359 1.245,0.359 l 0.433,-1.436 c 0,0 -0.648,-0.187 -1.297,-0.374 -0.658,-0.154 -1.316,-0.31 -1.316,-0.31 z"
               id="path326" /><path
               style="fill:#231f20;fill-rule:evenodd"
               inkscape:connector-curvature="0"
               clip-rule="evenodd"
               d="m 194.608,260.01 -0.064,1.499 c 0,0 0.16,0.006 0.399,0.015 0.24,0 0.559,0.033 0.877,0.07 0.637,0.072 1.274,0.142 1.274,0.142 l 0.215,-1.484 c 0,0 -0.674,-0.076 -1.348,-0.151 -0.337,-0.04 -0.675,-0.074 -0.93,-0.075 -0.253,-0.01 -0.423,-0.016 -0.423,-0.016 z"
               id="path328" /></g></g><g
           id="g330"><g
             id="g332"><g
               id="g334"><path
                 style="fill:none"
                 inkscape:connector-curvature="0"
                 d="m 204.382,270.751 c 0,0 0.766,0.338 1.915,0.846 1.218,0.558 2.842,1.302 4.466,2.046 1.713,0.772 3.507,1.547 4.94,2.091 0.693,0.282 1.333,0.486 1.753,0.642 0.428,0.151 0.673,0.238 0.673,0.238 l 4.743,-14.229 c 0,0 -0.177,-0.063 -0.488,-0.174 -0.314,-0.12 -0.745,-0.248 -1.296,-0.475 -1.081,-0.409 -2.579,-1.053 -4.132,-1.753 -1.634,-0.749 -3.267,-1.497 -4.493,-2.058 -1.31,-0.578 -2.183,-0.964 -2.183,-0.964 l -5.898,13.79 z"
                 id="path336" /></g><path
               style="fill:#231f20;fill-rule:evenodd"
               inkscape:connector-curvature="0"
               clip-rule="evenodd"
               d="m 217.222,267.699 -0.572,1.387 c 0,0 0.627,0.25 1.255,0.499 0.625,0.256 1.27,0.474 1.27,0.474 l 0.506,-1.412 c 0,0 -0.623,-0.209 -1.234,-0.46 -0.612,-0.244 -1.225,-0.488 -1.225,-0.488 z"
               id="path338" /><polygon
               style="fill:#231f20;fill-rule:evenodd"
               clip-rule="evenodd"
               points="212.25,267.143 214.688,268.245 215.293,266.872 212.876,265.78 "
               id="polygon340" /><polygon
               style="fill:#231f20;fill-rule:evenodd"
               clip-rule="evenodd"
               points="207.935,265.18 210.346,266.267 210.973,264.904 208.54,263.807 "
               id="polygon342" /></g></g></g></g></g><g
     id="g344"><g
       id="g346"><g
         id="g348"><g
           id="g350"><g
             id="g352"><g
               id="g354"><path
                 style="fill:none"
                 inkscape:connector-curvature="0"
                 d="m 229.824,273.036 c 0,0 3.146,1.801 6.291,3.602 3.099,1.815 6.087,3.701 6.087,3.701 l 8.033,-12.665 c 0,0 -3.258,-2.056 -6.533,-3.972 -3.263,-1.869 -6.526,-3.737 -6.526,-3.737 l -7.352,13.071 z"
                 id="path356" /></g><polygon
               style="fill:#231f20;fill-rule:evenodd"
               clip-rule="evenodd"
               points="242.458,272.816 244.777,274.253 245.573,272.981 243.236,271.533 "
               id="polygon358" /><polygon
               style="fill:#231f20;fill-rule:evenodd"
               clip-rule="evenodd"
               points="238.241,270.323 240.596,271.707 241.363,270.418 238.995,269.026 "
               id="polygon360" /><polygon
               style="fill:#231f20;fill-rule:evenodd"
               clip-rule="evenodd"
               points="233.997,267.895 236.377,269.246 237.122,267.944 234.735,266.59 "
               id="polygon362" /></g></g><g
           id="g364"><g
             id="g366"><g
               id="g368"><path
                 style="fill:none"
                 inkscape:connector-curvature="0"
                 d="m 242.202,280.338 c 0,0 0.736,0.48 1.84,1.199 1.122,0.707 2.538,1.708 3.97,2.694 1.393,1.016 2.792,2.027 3.784,2.822 0.99,0.796 1.649,1.327 1.649,1.327 l 9.549,-11.566 c 0,0 -0.779,-0.626 -1.947,-1.566 -1.17,-0.935 -2.763,-2.091 -4.354,-3.249 -1.606,-1.11 -3.209,-2.237 -4.431,-3.008 -1.217,-0.792 -2.027,-1.319 -2.027,-1.319 l -8.033,12.666 z"
                 id="path370" /></g><path
               style="fill:#231f20;fill-rule:evenodd"
               inkscape:connector-curvature="0"
               clip-rule="evenodd"
               d="m 255.535,279.798 -0.907,1.195 c 0,0 0.556,0.392 1.077,0.826 0.528,0.425 1.057,0.85 1.057,0.85 l 0.941,-1.168 c 0,0 -0.537,-0.432 -1.074,-0.864 -0.531,-0.442 -1.093,-0.839 -1.094,-0.839 z"
               id="path372" /><path
               style="fill:#231f20;fill-rule:evenodd"
               inkscape:connector-curvature="0"
               clip-rule="evenodd"
               d="m 251.533,276.904 -0.855,1.232 c 0,0 0.56,0.387 1.119,0.774 0.563,0.382 1.1,0.798 1.1,0.798 l 0.883,-1.212 c 0,0 -0.545,-0.422 -1.114,-0.809 -0.567,-0.391 -1.133,-0.783 -1.133,-0.783 z"
               id="path374" /><polygon
               style="fill:#231f20;fill-rule:evenodd"
               clip-rule="evenodd"
               points="246.632,275.431 248.914,276.919 249.749,275.672 247.444,274.171 "
               id="polygon376" /></g></g><g
           id="g378"><g
             id="g380"><g
               id="g382"><path
                 style="fill:none"
                 inkscape:connector-curvature="0"
                 d="m 253.446,288.381 c 0,0 0.673,0.523 1.591,1.36 0.468,0.413 1.015,0.895 1.6,1.411 0.543,0.537 1.123,1.109 1.703,1.682 0.604,0.561 1.116,1.162 1.61,1.717 0.484,0.559 0.984,1.063 1.334,1.522 0.7,0.916 1.167,1.527 1.167,1.527 l 12.083,-8.886 c 0,0 -0.656,-0.854 -1.641,-2.136 -0.496,-0.638 -1.126,-1.293 -1.777,-2.04 -0.657,-0.737 -1.354,-1.534 -2.099,-2.237 -0.735,-0.724 -1.47,-1.447 -2.16,-2.125 -0.711,-0.63 -1.376,-1.219 -1.945,-1.723 -1.133,-1.025 -1.917,-1.637 -1.917,-1.637 l -9.549,11.565 z"
                 id="path384" /></g><path
               style="fill:#231f20;fill-rule:evenodd"
               inkscape:connector-curvature="0"
               clip-rule="evenodd"
               d="m 266.492,289.823 -1.133,0.983 c 0,0 0.459,0.494 0.886,1.012 0.408,0.532 0.815,1.064 0.815,1.064 l 1.186,-0.917 c 0,0 -0.422,-0.55 -0.844,-1.101 -0.439,-0.533 -0.91,-1.041 -0.91,-1.041 z"
               id="path386" /><path
               style="fill:#231f20;fill-rule:evenodd"
               inkscape:connector-curvature="0"
               clip-rule="evenodd"
               d="m 263.075,286.228 -1.045,1.076 c 0,0 0.481,0.474 0.961,0.948 0.24,0.237 0.481,0.474 0.661,0.651 0.178,0.18 0.285,0.31 0.285,0.31 l 1.091,-1.029 c 0,0 -0.11,-0.134 -0.292,-0.318 -0.185,-0.182 -0.431,-0.424 -0.677,-0.667 -0.491,-0.485 -0.984,-0.971 -0.984,-0.971 z"
               id="path388" /><polygon
               style="fill:#231f20;fill-rule:evenodd"
               clip-rule="evenodd"
               points="258.457,284.049 260.485,285.842 261.495,284.733 259.427,282.905 "
               id="polygon390" /></g></g><g
           id="g392"><g
             id="g394"><g
               id="g396"><path
                 style="fill:none"
                 inkscape:connector-curvature="0"
                 d="m 262.45,297.599 c 0,0 0.508,0.599 1.066,1.548 0.289,0.471 0.667,1.01 1.01,1.599 0.299,0.595 0.619,1.23 0.939,1.865 0.185,0.313 0.293,0.636 0.402,0.953 0.116,0.315 0.23,0.625 0.341,0.925 0.115,0.298 0.227,0.587 0.333,0.861 0.061,0.277 0.118,0.539 0.171,0.781 0.218,0.964 0.391,1.603 0.391,1.603 l 14.794,-2.466 c 0,0 -0.266,-1.156 -0.665,-2.891 -0.106,-0.432 -0.222,-0.899 -0.344,-1.394 -0.17,-0.47 -0.35,-0.966 -0.536,-1.479 -0.19,-0.512 -0.388,-1.04 -0.588,-1.577 -0.199,-0.539 -0.404,-1.084 -0.673,-1.58 -0.513,-1.013 -1.026,-2.026 -1.507,-2.976 -0.523,-0.906 -1.06,-1.703 -1.501,-2.408 -0.872,-1.428 -1.552,-2.249 -1.551,-2.249 l -12.082,8.885 z"
                 id="path398" /></g><path
               style="fill:#231f20;fill-rule:evenodd"
               inkscape:connector-curvature="0"
               clip-rule="evenodd"
               d="m 274.078,302.622 -1.428,0.457 c 0,0 0.058,0.155 0.144,0.388 0.056,0.241 0.131,0.563 0.206,0.884 0.151,0.643 0.302,1.285 0.302,1.285 l 1.468,-0.308 c 0,0 -0.16,-0.681 -0.32,-1.362 -0.081,-0.34 -0.161,-0.68 -0.221,-0.936 -0.091,-0.244 -0.151,-0.408 -0.151,-0.408 z"
               id="path400" /><path
               style="fill:#231f20;fill-rule:evenodd"
               inkscape:connector-curvature="0"
               clip-rule="evenodd"
               d="m 272.135,298.019 -1.335,0.683 c 0,0 0.3,0.593 0.601,1.187 0.157,0.294 0.3,0.594 0.374,0.832 0.086,0.233 0.144,0.388 0.144,0.388 l 1.39,-0.564 c 0,0 -0.061,-0.164 -0.152,-0.409 -0.079,-0.251 -0.229,-0.565 -0.392,-0.873 -0.316,-0.622 -0.63,-1.244 -0.63,-1.244 z"
               id="path402" /><polygon
               style="fill:#231f20;fill-rule:evenodd"
               clip-rule="evenodd"
               points="268.366,294.607 269.802,296.86 271.091,296.094 269.597,293.749 "
               id="polygon404" /></g></g></g></g></g><g
     id="g406"><g
       id="g408"><g
         id="g410"><g
           id="g412"><g
             id="g414"><g
               id="g416"><path
                 style="fill:none"
                 inkscape:connector-curvature="0"
                 d="m 234.341,281.74 c 0,0 0.133,0.1 0.365,0.274 0.224,0.186 0.59,0.386 0.958,0.729 0.774,0.628 1.722,1.591 2.602,2.683 0.849,1.133 1.64,2.381 2.167,3.412 0.283,0.491 0.469,0.964 0.625,1.264 0.148,0.31 0.233,0.487 0.233,0.487 l 13.695,-6.114 c 0,0 -0.125,-0.264 -0.342,-0.726 -0.232,-0.461 -0.508,-1.122 -0.945,-1.907 -0.813,-1.575 -2.09,-3.652 -3.602,-5.633 -1.554,-1.966 -3.362,-3.79 -4.861,-5.012 -0.724,-0.637 -1.409,-1.073 -1.855,-1.417 -0.458,-0.33 -0.72,-0.518 -0.72,-0.518 l -8.32,12.478 z"
                 id="path418" /></g><path
               style="fill:#231f20;fill-rule:evenodd"
               inkscape:connector-curvature="0"
               clip-rule="evenodd"
               d="m 246.741,283.657 -1.292,0.763 c 0,0 0.094,0.147 0.217,0.382 0.126,0.232 0.295,0.541 0.464,0.85 0.353,0.609 0.638,1.258 0.638,1.258 l 1.351,-0.652 c 0,0 -0.296,-0.673 -0.665,-1.312 -0.177,-0.323 -0.353,-0.646 -0.485,-0.889 -0.128,-0.244 -0.228,-0.4 -0.228,-0.4 z"
               id="path420" /><path
               style="fill:#231f20;fill-rule:evenodd"
               inkscape:connector-curvature="0"
               clip-rule="evenodd"
               d="m 243.653,279.361 -1.13,0.986 c 0,0 0.448,0.535 0.896,1.07 0.411,0.567 0.821,1.134 0.821,1.134 l 1.229,-0.859 c 0,0 -0.434,-0.598 -0.867,-1.196 -0.474,-0.568 -0.949,-1.135 -0.949,-1.135 z"
               id="path422" /><path
               style="fill:#231f20;fill-rule:evenodd"
               inkscape:connector-curvature="0"
               clip-rule="evenodd"
               d="m 239.772,275.772 -0.894,1.205 c 0,0 0.14,0.102 0.351,0.256 0.217,0.145 0.479,0.374 0.74,0.604 0.263,0.228 0.525,0.456 0.722,0.626 0.2,0.167 0.322,0.292 0.323,0.292 l 1.035,-1.086 c 0,0 -0.13,-0.131 -0.343,-0.311 -0.209,-0.183 -0.489,-0.426 -0.769,-0.669 -0.278,-0.245 -0.558,-0.488 -0.79,-0.644 -0.225,-0.163 -0.375,-0.273 -0.375,-0.273 z"
               id="path424" /></g></g><g
           id="g426"><g
             id="g428"><g
               id="g430"><path
                 style="fill:none"
                 inkscape:connector-curvature="0"
                 d="m 241.29,290.588 c 0,0 0.078,0.186 0.213,0.512 0.129,0.334 0.348,0.772 0.553,1.365 0.448,1.145 0.971,2.761 1.449,4.437 0.459,1.696 0.879,3.443 1.167,4.798 0.285,1.363 0.475,2.271 0.475,2.271 l 14.707,-2.941 c 0,0 -0.209,-1.003 -0.524,-2.508 -0.321,-1.511 -0.809,-3.563 -1.374,-5.637 -0.59,-2.082 -1.271,-4.184 -1.888,-5.77 -0.28,-0.79 -0.592,-1.454 -0.776,-1.915 -0.195,-0.462 -0.307,-0.726 -0.307,-0.726 l -13.695,6.114 z"
                 id="path432" /></g><polygon
               style="fill:#231f20;fill-rule:evenodd"
               clip-rule="evenodd"
               points="250.706,298.754 251.318,301.566 252.787,301.261 252.167,298.416 "
               id="polygon434" /><path
               style="fill:#231f20;fill-rule:evenodd"
               inkscape:connector-curvature="0"
               clip-rule="evenodd"
               d="m 250.832,293.354 -1.436,0.433 c 0,0 0.201,0.685 0.402,1.371 0.183,0.692 0.366,1.385 0.366,1.385 l 1.452,-0.375 c 0,0 -0.186,-0.706 -0.373,-1.411 -0.206,-0.702 -0.411,-1.403 -0.411,-1.403 z"
               id="path436" /><path
               style="fill:#231f20;fill-rule:evenodd"
               inkscape:connector-curvature="0"
               clip-rule="evenodd"
               d="m 249.086,288.419 -1.386,0.574 c 0,0 0.287,0.647 0.522,1.319 0.247,0.667 0.487,1.336 0.487,1.336 l 1.418,-0.489 c 0,0 -0.247,-0.689 -0.502,-1.376 -0.242,-0.691 -0.539,-1.364 -0.539,-1.364 z"
               id="path438" /></g></g></g></g></g><g
     id="g440"><g
       id="g442"><g
         id="g444"><g
           id="g446"><g
             id="g448"><path
               style="fill:none"
               inkscape:connector-curvature="0"
               d="m 269.319,326.775 c -0.003,0.016 0.314,-0.059 0.741,-0.113 0.43,-0.056 0.93,0.004 1.393,0.089 0.442,0.151 0.872,0.358 1.197,0.6 0.317,0.257 0.542,0.465 0.548,0.452 l 10.605,-10.605 c 0,0 -0.223,-0.202 -0.611,-0.557 -0.407,-0.34 -0.925,-0.872 -1.688,-1.396 -1.472,-1.097 -3.707,-2.299 -6.141,-2.974 -2.439,-0.632 -4.948,-0.738 -6.745,-0.539 -0.915,0.055 -1.619,0.248 -2.137,0.33 -0.509,0.104 -0.8,0.163 -0.8,0.163 l 3.638,14.55 z"
               id="path450" /></g><path
             style="fill:#231f20;fill-rule:evenodd"
             inkscape:connector-curvature="0"
             clip-rule="evenodd"
             d="m 276.318,320.153 -0.751,1.298 c 0,0 0.42,0.285 0.842,0.565 0.44,0.256 0.783,0.65 0.794,0.633 l 0.982,-1.134 c 0,0 -0.109,-0.095 -0.271,-0.238 -0.155,-0.152 -0.387,-0.326 -0.632,-0.48 -0.481,-0.324 -0.964,-0.644 -0.964,-0.644 z"
             id="path452" /><path
             style="fill:#231f20;fill-rule:evenodd"
             inkscape:connector-curvature="0"
             clip-rule="evenodd"
             d="m 272.413,318.77 -0.245,1.479 c 0,0 0.495,0.1 0.991,0.199 0.478,0.163 0.956,0.326 0.956,0.326 l 0.536,-1.401 c 0,0 -0.55,-0.187 -1.1,-0.373 -0.569,-0.115 -1.138,-0.23 -1.138,-0.23 z"
             id="path454" /><path
             style="fill:#231f20;fill-rule:evenodd"
             inkscape:connector-curvature="0"
             clip-rule="evenodd"
             d="m 268.298,318.81 0.259,1.478 c 0,0 0.125,-0.024 0.314,-0.06 0.188,-0.049 0.442,-0.061 0.696,-0.074 0.508,-0.027 1.016,-0.077 1.016,-0.053 l 0.014,-1.5 c 0,-0.024 -0.578,0.025 -1.155,0.058 -0.289,0.016 -0.578,0.033 -0.789,0.085 -0.213,0.04 -0.355,0.066 -0.355,0.066 z"
             id="path456" /></g></g></g></g><g
     id="g458"><g
       id="g460"><g
         id="g462"><g
           id="g464"><g
             id="g466"><path
               style="fill:none"
               inkscape:connector-curvature="0"
               d="m 266.129,345.614 c 0,0 0.095,0.034 0.189,0.068 0.034,0.094 0.068,0.189 0.068,0.189 l 14.229,-4.743 c 0,0 -0.262,-0.794 -0.767,-1.979 -0.573,-1.265 -1.497,-2.885 -2.794,-4.202 -1.317,-1.298 -2.937,-2.221 -4.202,-2.794 -1.185,-0.505 -1.979,-0.767 -1.979,-0.767 l -4.744,14.228 z"
               id="path468" /></g><path
             style="fill:#231f20;fill-rule:evenodd"
             inkscape:connector-curvature="0"
             clip-rule="evenodd"
             d="m 273.225,341.433 -1.286,0.792 c 0,0 0.126,0.273 0.252,0.546 0.123,0.277 0.221,0.574 0.221,0.574 l 1.392,-0.559 c 0,0 -0.115,-0.346 -0.265,-0.683 -0.157,-0.335 -0.314,-0.67 -0.314,-0.67 z"
             id="path470" /><path
             style="fill:#231f20;fill-rule:evenodd"
             inkscape:connector-curvature="0"
             clip-rule="evenodd"
             d="m 271.565,339.398 -0.974,1.167 c 0,0 0.229,0.194 0.459,0.389 0.194,0.229 0.389,0.459 0.389,0.459 l 1.167,-0.973 c 0,0 -0.239,-0.282 -0.479,-0.563 -0.281,-0.24 -0.562,-0.479 -0.562,-0.479 z"
             id="path472" /><path
             style="fill:#231f20;fill-rule:evenodd"
             inkscape:connector-curvature="0"
             clip-rule="evenodd"
             d="m 269.228,338.202 -0.561,1.391 c 0,0 0.298,0.098 0.573,0.221 0.273,0.126 0.546,0.252 0.546,0.252 l 0.794,-1.285 c 0,0 -0.335,-0.157 -0.67,-0.313 -0.336,-0.152 -0.682,-0.266 -0.682,-0.266 z"
             id="path474" /></g></g></g></g><path
     style="fill:none;stroke:#000000;stroke-miterlimit:10"
     inkscape:connector-curvature="0"
     stroke-miterlimit="10"
     d="m 319.167,343.167 c 16.666,3.333 31,1.167 50,5.333 15.033,3.297 30,10.667 45.333,14.667 29.333,7.333 66.667,15.333 88,40 7.333,8.667 13.654,14.719 20.321,24.052"
     id="path476" /><path
     style="fill:none;stroke:#000000;stroke-width:5;stroke-miterlimit:10"
     inkscape:connector-curvature="0"
     stroke-miterlimit="10"
     d="m 179.166,327.833 c 12,-17.333 67.333,-10 54,8 -13.333,17.333 -44,-4.667 -58,-9.333"
     id="path478" /><g
     id="g480"><path
       style="fill:#13080b"
       inkscape:connector-curvature="0"
       d="m 194.717,322.035 c -4.667,10 10,23.333 19.333,18.667 19.333,-8.667 -12.667,-20.667 -19.333,-22"
       id="path482" /><g
       id="g484"><g
         id="g486"><g
           id="g488"><g
             id="g490"><g
               id="g492"><path
                 style="fill:none"
                 inkscape:connector-curvature="0"
                 d="m 187.922,318.864 c 0,0 -0.157,0.378 -0.43,1.041 -0.276,0.656 -0.585,1.651 -0.831,2.85 -0.504,2.402 -0.449,5.694 0.387,8.452 0.778,2.804 2.091,5.154 3.193,6.746 0.55,0.801 1.044,1.43 1.4,1.857 0.347,0.439 0.566,0.665 0.566,0.665 l 11.26,-9.908 c 0,0 -0.397,-0.42 -0.85,-1.085 -0.467,-0.657 -0.928,-1.566 -1.124,-2.305 -0.232,-0.761 -0.158,-1.231 -0.12,-1.511 0.06,-0.278 0.154,-0.451 0.139,-0.457 l -13.59,-6.345 z"
                 id="path494" /></g><path
               style="fill:#231f20;fill-rule:evenodd"
               inkscape:connector-curvature="0"
               clip-rule="evenodd"
               d="m 196.093,332.171 -1.307,0.736 c 0,0 0.077,0.164 0.224,0.39 0.144,0.228 0.334,0.532 0.526,0.835 0.208,0.291 0.416,0.583 0.572,0.801 0.158,0.217 0.274,0.352 0.274,0.352 l 1.18,-0.926 c 0,0 -0.109,-0.125 -0.254,-0.325 -0.144,-0.202 -0.336,-0.47 -0.528,-0.739 -0.175,-0.279 -0.351,-0.558 -0.482,-0.768 -0.136,-0.206 -0.205,-0.356 -0.205,-0.356 z"
               id="path496" /><path
               style="fill:#231f20;fill-rule:evenodd"
               inkscape:connector-curvature="0"
               clip-rule="evenodd"
               d="m 194.492,327.786 -1.48,0.242 c 0,0 0.037,0.18 0.092,0.45 0.057,0.27 0.121,0.633 0.234,0.98 0.185,0.709 0.463,1.38 0.463,1.38 l 1.397,-0.546 c 0,0 -0.252,-0.606 -0.415,-1.238 -0.103,-0.311 -0.157,-0.631 -0.208,-0.87 -0.05,-0.239 -0.083,-0.398 -0.083,-0.398 z"
               id="path498" /><path
               style="fill:#231f20;fill-rule:evenodd"
               inkscape:connector-curvature="0"
               clip-rule="evenodd"
               d="m 194.814,323.235 -1.424,-0.472 c 0,0 -0.051,0.18 -0.128,0.451 -0.083,0.269 -0.18,0.631 -0.23,1.003 -0.072,0.368 -0.124,0.738 -0.132,1.019 -0.019,0.279 -0.032,0.465 -0.032,0.465 l 1.499,0.056 c 0,0 0.011,-0.16 0.028,-0.401 0.005,-0.243 0.051,-0.561 0.113,-0.875 0.042,-0.32 0.125,-0.629 0.197,-0.859 0.066,-0.233 0.109,-0.387 0.109,-0.387 z"
               id="path500" /></g></g><g
           id="g502"><g
             id="g504"><g
               id="g506"><path
                 style="fill:none"
                 inkscape:connector-curvature="0"
                 d="m 192.207,340.473 c 0,0 0.814,0.976 2.213,2.239 1.394,1.268 3.409,2.787 5.731,3.978 2.322,1.193 4.988,2.024 7.201,2.302 1.111,0.135 2.064,0.177 2.756,0.157 0.676,0.005 1.083,-0.048 1.083,-0.048 l -1.141,-14.955 c 0,0 -0.212,0.034 -0.729,-0.021 -0.515,-0.065 -1.395,-0.312 -2.338,-0.785 -0.94,-0.485 -1.879,-1.179 -2.514,-1.759 -0.643,-0.579 -1.004,-1.015 -1.004,-1.015 l -11.258,9.907 z"
                 id="path508" /></g><path
               style="fill:#231f20;fill-rule:evenodd"
               inkscape:connector-curvature="0"
               clip-rule="evenodd"
               d="m 206.985,340.75 -0.368,1.454 c 0,0 0.703,0.188 1.431,0.289 0.359,0.068 0.732,0.074 1.005,0.105 0.275,0.029 0.461,0.023 0.461,0.023 l 0.041,-1.5 c 0,0 -0.162,0.006 -0.404,-0.021 -0.242,-0.029 -0.567,-0.03 -0.888,-0.092 -0.646,-0.09 -1.278,-0.259 -1.278,-0.258 z"
               id="path510" /><path
               style="fill:#231f20;fill-rule:evenodd"
               inkscape:connector-curvature="0"
               clip-rule="evenodd"
               d="m 202.665,338.896 -0.78,1.281 c 0,0 0.146,0.104 0.383,0.229 0.236,0.129 0.55,0.302 0.864,0.474 0.324,0.154 0.648,0.309 0.892,0.425 0.25,0.104 0.416,0.173 0.416,0.173 l 0.573,-1.386 c 0,0 -0.152,-0.063 -0.379,-0.158 -0.223,-0.106 -0.521,-0.248 -0.818,-0.389 -0.289,-0.159 -0.578,-0.318 -0.795,-0.437 -0.221,-0.115 -0.356,-0.212 -0.356,-0.212 z"
               id="path512" /><path
               style="fill:#231f20;fill-rule:evenodd"
               inkscape:connector-curvature="0"
               clip-rule="evenodd"
               d="m 198.971,335.959 -1.069,1.053 c 0,0 0.491,0.518 1.035,0.98 0.262,0.242 0.535,0.471 0.748,0.633 0.209,0.167 0.348,0.278 0.348,0.278 l 0.917,-1.188 c 0,0 -0.129,-0.103 -0.323,-0.258 -0.198,-0.15 -0.451,-0.363 -0.694,-0.588 -0.506,-0.429 -0.962,-0.91 -0.962,-0.91 z"
               id="path514" /></g></g><g
           id="g516"><g
             id="g518"><g
               id="g520"><path
                 style="fill:none"
                 inkscape:connector-curvature="0"
                 d="m 211.192,349.1 c 0,0 0.399,-0.041 1.099,-0.112 0.707,-0.12 1.721,-0.279 2.922,-0.688 0.63,-0.183 1.161,-0.438 1.78,-0.703 0.344,-0.148 0.499,-0.235 0.746,-0.354 0.229,-0.113 0.462,-0.229 0.699,-0.347 0.471,-0.233 0.949,-0.461 1.541,-0.834 0.28,-0.172 0.563,-0.345 0.847,-0.519 0.28,-0.171 0.562,-0.345 0.876,-0.593 1.188,-0.874 2.459,-1.928 3.623,-3.531 0.29,-0.409 0.562,-0.821 0.814,-1.23 0.252,-0.442 0.481,-0.978 0.682,-1.46 0.428,-0.943 0.639,-2.044 0.771,-3.036 0.143,-0.99 0.04,-1.88 -0.019,-2.675 -0.077,-0.795 -0.264,-1.335 -0.391,-1.852 -0.14,-0.491 -0.264,-0.898 -0.359,-1.092 -0.095,-0.218 -0.145,-0.335 -0.145,-0.335 l -13.819,5.828 c 0.074,0.01 -0.246,-0.149 -0.176,-1.499 0.004,-0.318 0.159,-0.665 0.211,-0.903 0.039,-0.125 0.142,-0.271 0.19,-0.357 0.018,-0.068 0.05,-0.133 0.097,-0.188 0.17,-0.199 0.038,-0.041 -0.248,0.165 -0.037,0.048 -0.147,0.11 -0.26,0.172 l -0.315,0.189 c -0.163,0.124 -0.487,0.275 -0.789,0.419 -0.147,0.072 -0.292,0.144 -0.435,0.213 -0.125,0.06 -0.325,0.166 -0.347,0.166 -0.108,0.034 -0.24,0.129 -0.279,0.115 -0.203,0.079 -0.458,0.086 -0.458,0.086 l 1.142,14.955 z"
                 id="path522" /></g><path
               style="fill:#231f20;fill-rule:evenodd"
               inkscape:connector-curvature="0"
               clip-rule="evenodd"
               d="m 219.228,336.078 1.336,0.682 c 0,0 0.082,-0.191 0.204,-0.477 0.056,-0.146 0.138,-0.308 0.19,-0.496 0.036,-0.196 0.074,-0.404 0.112,-0.613 0.104,-0.418 0.05,-0.839 0.037,-1.155 -0.011,-0.158 -0.02,-0.289 -0.026,-0.381 -0.022,-0.086 -0.034,-0.136 -0.034,-0.136 l -1.474,0.278 c 0.009,-10e-4 0.042,0.146 0.04,0.368 0.005,0.221 0.059,0.519 -0.026,0.805 -0.024,0.145 -0.049,0.29 -0.072,0.426 -0.037,0.133 -0.103,0.25 -0.142,0.354 -0.088,0.207 -0.145,0.345 -0.145,0.345 z"
               id="path524" /><path
               style="fill:#231f20;fill-rule:evenodd"
               inkscape:connector-curvature="0"
               clip-rule="evenodd"
               d="m 215.908,339.141 0.763,1.292 c 0,0 0.154,-0.094 0.385,-0.234 0.227,-0.149 0.546,-0.306 0.833,-0.548 0.59,-0.44 1.164,-0.912 1.15,-0.938 l -1.029,-1.092 c 0.022,0.019 -0.48,0.423 -1,0.813 -0.244,0.211 -0.547,0.358 -0.751,0.493 -0.21,0.128 -0.351,0.214 -0.351,0.214 z"
               id="path526" /><path
               style="fill:#231f20;fill-rule:evenodd"
               inkscape:connector-curvature="0"
               clip-rule="evenodd"
               d="m 211.62,340.954 0.284,1.473 c 0,0 0.184,-0.037 0.46,-0.092 0.275,-0.059 0.632,-0.186 0.992,-0.294 0.355,-0.12 0.684,-0.285 0.942,-0.39 0.261,-0.109 0.405,-0.19 0.405,-0.19 l -0.653,-1.35 c 0,0 -0.593,0.289 -1.193,0.516 -0.307,0.089 -0.608,0.2 -0.843,0.25 -0.237,0.046 -0.394,0.077 -0.394,0.077 z"
               id="path528" /></g></g><g
           id="g530"><g
             id="g532"><g
               id="g534"><path
                 style="fill:none"
                 inkscape:connector-curvature="0"
                 d="m 226.677,329.739 c 0,0 -0.198,-0.47 -0.6,-1.261 -0.2,-0.368 -0.444,-0.733 -0.738,-1.187 -0.146,-0.215 -0.309,-0.473 -0.474,-0.686 -0.165,-0.204 -0.338,-0.417 -0.519,-0.641 -1.474,-1.798 -3.399,-3.406 -5.261,-4.704 -1.867,-1.301 -3.702,-2.351 -5.076,-3.08 -1.374,-0.726 -2.29,-1.164 -2.29,-1.164 l -6.559,13.488 c 0,0 0.737,0.353 1.792,0.91 1.053,0.555 2.397,1.339 3.536,2.134 1.147,0.788 2.01,1.599 2.27,1.936 0.038,0.042 0.075,0.081 0.109,0.119 0.028,0.032 0.011,0.036 0.022,0.05 0.003,0.018 0.047,0.048 0.036,0.033 -0.063,-0.065 -0.068,-0.12 -0.068,-0.12 l 13.82,-5.827 z"
                 id="path536" /></g><path
               style="fill:#231f20;fill-rule:evenodd"
               inkscape:connector-curvature="0"
               clip-rule="evenodd"
               d="m 211.542,325.989 0.744,-1.303 c 0,0 -0.606,-0.334 -1.212,-0.669 -0.606,-0.335 -1.226,-0.639 -1.226,-0.639 l -0.679,1.338 c 0,0 0.606,0.296 1.195,0.623 0.589,0.324 1.178,0.65 1.178,0.65 z"
               id="path538" /><path
               style="fill:#231f20;fill-rule:evenodd"
               inkscape:connector-curvature="0"
               clip-rule="evenodd"
               d="m 215.552,328.625 0.919,-1.186 c 0,0 -0.552,-0.446 -1.134,-0.833 -0.571,-0.41 -1.163,-0.777 -1.163,-0.777 l -0.81,1.263 c 0,0 0.57,0.354 1.112,0.744 0.56,0.37 1.076,0.789 1.076,0.789 z"
               id="path540" /><path
               style="fill:#231f20;fill-rule:evenodd"
               inkscape:connector-curvature="0"
               clip-rule="evenodd"
               d="m 218.798,331.958 1.269,-0.799 c 0,0 -0.399,-0.657 -0.891,-1.201 -0.229,-0.295 -0.488,-0.547 -0.68,-0.739 -0.191,-0.193 -0.319,-0.321 -0.319,-0.321 l -1.041,1.081 c 0,0 0.116,0.117 0.289,0.291 0.174,0.174 0.411,0.403 0.607,0.659 0.439,0.485 0.766,1.029 0.766,1.029 z"
               id="path542" /></g></g><g
           id="g544"><g
             id="g546"><g
               id="g548"><path
                 style="fill:none"
                 inkscape:connector-curvature="0"
                 d="m 211.719,317.016 c 0,0 -0.915,-0.456 -2.292,-1.069 -1.378,-0.615 -3.217,-1.389 -5.086,-2.088 -1.871,-0.704 -3.771,-1.34 -5.305,-1.787 -0.761,-0.224 -1.453,-0.403 -1.969,-0.529 -0.559,-0.124 -0.879,-0.195 -0.879,-0.195 l -2.941,14.707 c 0,0 0.127,0.029 0.35,0.079 0.263,0.066 0.68,0.171 1.236,0.335 1.104,0.321 2.682,0.845 4.239,1.431 1.562,0.584 3.101,1.232 4.231,1.737 1.133,0.505 1.857,0.866 1.857,0.867 l 6.559,-13.488 z"
                 id="path550" /></g><path
               style="fill:#231f20;fill-rule:evenodd"
               inkscape:connector-curvature="0"
               clip-rule="evenodd"
               d="m 198.217,320.22 0.46,-1.427 c 0,0 -0.661,-0.205 -1.321,-0.41 -0.665,-0.197 -1.345,-0.373 -1.345,-0.373 l -0.373,1.453 c 0,0 0.646,0.167 1.292,0.358 0.644,0.2 1.287,0.399 1.287,0.399 z"
               id="path552" /><path
               style="fill:#231f20;fill-rule:evenodd"
               inkscape:connector-curvature="0"
               clip-rule="evenodd"
               d="m 202.775,321.86 0.55,-1.396 c 0,0 -0.642,-0.247 -1.284,-0.494 -0.646,-0.236 -1.292,-0.473 -1.292,-0.473 l -0.503,1.413 c 0,0 0.634,0.232 1.269,0.464 0.63,0.243 1.26,0.486 1.26,0.486 z"
               id="path554" /><path
               style="fill:#231f20;fill-rule:evenodd"
               inkscape:connector-curvature="0"
               clip-rule="evenodd"
               d="m 207.214,323.76 0.634,-1.359 c 0,0 -0.627,-0.285 -1.254,-0.569 -0.631,-0.274 -1.263,-0.547 -1.263,-0.547 l -0.585,1.381 c 0,0 0.62,0.269 1.239,0.537 0.614,0.279 1.229,0.557 1.229,0.557 z"
               id="path556" /></g></g></g></g></g></g></svg>