<?xml version="1.0" encoding="UTF-8" standalone="no"?>
<!-- Generator: Adobe Illustrator 16.0.0, SVG Export Plug-In . SVG Version: 6.00 Build 0)  -->

<svg
   xmlns:dc="http://purl.org/dc/elements/1.1/"
   xmlns:cc="http://creativecommons.org/ns#"
   xmlns:rdf="http://www.w3.org/1999/02/22-rdf-syntax-ns#"
   xmlns:svg="http://www.w3.org/2000/svg"
   xmlns="http://www.w3.org/2000/svg"
   xmlns:sodipodi="http://sodipodi.sourceforge.net/DTD/sodipodi-0.dtd"
   xmlns:inkscape="http://www.inkscape.org/namespaces/inkscape"
   version="1.1"
   id="Layer_3"
   x="0px"
   y="0px"
   width="612px"
   height="792px"
   viewBox="0 0 612 792"
   enable-background="new 0 0 612 792"
   xml:space="preserve"
   inkscape:version="0.48.4 r9939"
   sodipodi:docname="23d.svg"><metadata
   id="metadata925"><rdf:RDF><cc:Work
       rdf:about=""><dc:format>image/svg+xml</dc:format><dc:type
         rdf:resource="http://purl.org/dc/dcmitype/StillImage" /></cc:Work></rdf:RDF></metadata><defs
   id="defs923" /><sodipodi:namedview
   pagecolor="#ffffff"
   bordercolor="#666666"
   borderopacity="1"
   objecttolerance="10"
   gridtolerance="10"
   guidetolerance="10"
   inkscape:pageopacity="0"
   inkscape:pageshadow="2"
   inkscape:window-width="640"
   inkscape:window-height="480"
   id="namedview921"
   showgrid="false"
   inkscape:zoom="0.2979798"
   inkscape:cx="306"
   inkscape:cy="396"
   inkscape:window-x="0"
   inkscape:window-y="0"
   inkscape:window-maximized="0"
   inkscape:current-layer="Layer_3" />















<g
   id="g3902"><path
     id="path3"
     d="M94.5,482.5c14-15,8-52,12-71c4-22,11-45,18-66  c18-51,55-84,107-94c44-8,93,3,135,17c22,6,50,15,66,34c8,10,11,22,18,33c9,13,21,14,35,19c31,13,51,30,62,62  c6,20,3.166,49,13.166,67c-9.667-13.333-39.166-49-57.166-58c-21-11-40-15-63-20"
     stroke-miterlimit="10"
     stroke-width="3"
     stroke="#000000"
     fill="none" /><path
     id="path5"
     d="M517.202,435.207c-17-4-36.702,3.293-53.702,4.293  c-23,1-44-1-65,9c-40,19-51,93-40,132"
     stroke-miterlimit="10"
     stroke-width="3"
     stroke="#000000"
     fill="none" /><path
     id="path7"
     d="M292.5,340.5c35.083-18,49-8,85,13  c-16,24-74,8-90-11c1-2,2-1,3-2"
     stroke-miterlimit="10"
     stroke-width="4"
     stroke="#000000"
     fill="none" /><g
     id="g9">
	<g
   id="g11">
		<g
   id="g13">
			<g
   id="g15">
				<g
   id="g17">
					<g
   id="g19">
						<path
   id="path21"
   d="M282.005,295.428c0,0-0.696,0.219-1.739,0.549c-1.017,0.368-2.497,0.688-3.933,1.075        c-1.503,0.295-2.971,0.641-4.145,0.806c-1.155,0.191-1.925,0.319-1.925,0.319l2.213,14.834c0,0,0.896-0.147,2.241-0.369        c1.335-0.192,3.161-0.605,4.97-0.972c1.829-0.477,3.65-0.891,5.025-1.369c1.371-0.438,2.285-0.73,2.285-0.73L282.005,295.428z        "
   fill="none" />
					</g>
					<polygon
   id="polygon23"
   points="274.924,305.538 274.65,304.063 272.201,304.474        272.438,305.956      "
   fill="#231F20"
   clip-rule="evenodd"
   fill-rule="evenodd" />
					<path
   id="path25"
   d="M279.347,304.566l-0.364-1.455c0,0-0.598,0.153-1.196,0.307       c-0.606,0.125-1.213,0.25-1.213,0.25l0.312,1.467c0,0,0.618-0.127,1.236-0.255       C278.735,304.723,279.347,304.566,279.347,304.566z"
   fill="#231F20"
   clip-rule="evenodd"
   fill-rule="evenodd" />
					<path
   id="path27"
   d="M283.692,303.313l-0.473-1.424c0,0-0.587,0.187-1.174,0.374       c-0.587,0.186-1.176,0.365-1.176,0.365l0.408,1.443c0,0,0.605-0.184,1.209-0.375       C283.089,303.505,283.692,303.313,283.692,303.313z"
   fill="#231F20"
   clip-rule="evenodd"
   fill-rule="evenodd" />
				</g>
			</g>
			<g
   id="g29">
				<g
   id="g31">
					<g
   id="g33">
						<path
   id="path35"
   d="M270.262,298.177c0,0-3.125,0.454-6.384,0.793c-3.321,0.323-6.642,0.647-6.642,0.647l1.414,14.931        c0,0,3.402-0.332,6.804-0.663c3.46-0.358,7.022-0.874,7.022-0.874L270.262,298.177z"
   fill="none" />
					</g>
					
						<rect
   id="rect37"
   height="2.506"
   width="1.5"
   fill="#231F20"
   clip-rule="evenodd"
   fill-rule="evenodd"
   transform="matrix(0.0963 0.9953 -0.9953 0.0963 540.3243 18.1532)"
   y="305.399"
   x="259.414" />
					<polygon
   id="polygon39"
   points="265.966,306.815 265.799,305.324 263.315,305.591        263.467,307.083      "
   fill="#231F20"
   clip-rule="evenodd"
   fill-rule="evenodd" />
					<polygon
   id="polygon41"
   points="270.429,306.259 270.219,304.773 267.752,305.105        267.934,306.594      "
   fill="#231F20"
   clip-rule="evenodd"
   fill-rule="evenodd" />
				</g>
			</g>
			<g
   id="g43">
				<g
   id="g45">
					<g
   id="g47">
						<path
   id="path49"
   d="M257.236,299.617c0,0-3.377,0.304-6.87,0.703c-1.745,0.206-3.511,0.432-4.842,0.629        c-1.339,0.212-2.232,0.354-2.232,0.354l2.483,14.791c0,0,0.775-0.123,1.938-0.307c1.174-0.174,2.759-0.377,4.368-0.567        c3.219-0.368,6.569-0.672,6.57-0.672L257.236,299.617z"
   fill="none" />
					</g>
					<path
   id="path51"
   d="M248.071,308.7l-0.203-1.486c0,0-0.626,0.07-1.251,0.173       c-0.625,0.099-1.25,0.198-1.25,0.198l0.234,1.481c0,0,0.616-0.098,1.232-0.195C247.449,308.77,248.071,308.7,248.071,308.7z"
   fill="#231F20"
   clip-rule="evenodd"
   fill-rule="evenodd" />
					<path
   id="path53"
   d="M252.522,308.162l-0.163-1.491c0,0-0.626,0.068-1.252,0.137       c-0.626,0.075-1.252,0.149-1.252,0.149l0.182,1.489c0,0,0.621-0.074,1.241-0.148C251.9,308.23,252.522,308.162,252.522,308.162       z"
   fill="#231F20"
   clip-rule="evenodd"
   fill-rule="evenodd" />
					<polygon
   id="polygon55"
   points="256.974,307.709 256.831,306.216 254.33,306.46        254.482,307.952      "
   fill="#231F20"
   clip-rule="evenodd"
   fill-rule="evenodd" />
				</g>
			</g>
			<g
   id="g57">
				<g
   id="g59">
					<g
   id="g61">
						<path
   id="path63"
   d="M243.291,301.303c0,0-0.889,0.127-2.248,0.408c-0.677,0.134-1.467,0.29-2.313,0.457        c-0.853,0.208-1.763,0.429-2.673,0.651c-0.908,0.203-1.821,0.491-2.676,0.75c-0.859,0.268-1.643,0.481-2.344,0.732        c-1.407,0.524-2.344,0.874-2.344,0.874l5.598,13.914c0,0,0.645-0.241,1.612-0.601c0.49-0.179,1.136-0.348,1.788-0.553        c0.661-0.2,1.356-0.428,2.099-0.588c0.731-0.179,1.461-0.358,2.146-0.526c0.707-0.139,1.367-0.268,1.933-0.378        c1.122-0.235,1.906-0.346,1.906-0.346L243.291,301.303z"
   fill="none" />
					</g>
					<path
   id="path65"
   d="M234.959,311.479l-0.45-1.431c0,0-0.609,0.188-1.218,0.377       c-0.602,0.224-1.203,0.448-1.203,0.448l0.525,1.405c0,0,0.58-0.216,1.16-0.432       C234.365,311.663,234.959,311.479,234.959,311.479z"
   fill="#231F20"
   clip-rule="evenodd"
   fill-rule="evenodd" />
					<path
   id="path67"
   d="M239.259,310.302l-0.347-1.459c0,0-0.618,0.151-1.235,0.302       c-0.309,0.076-0.618,0.151-0.849,0.208c-0.229,0.066-0.382,0.111-0.382,0.111l0.401,1.445c0,0,0.149-0.043,0.373-0.108       c0.227-0.055,0.529-0.129,0.831-0.203C238.655,310.449,239.259,310.302,239.259,310.302z"
   fill="#231F20"
   clip-rule="evenodd"
   fill-rule="evenodd" />
					<polygon
   id="polygon69"
   points="243.616,309.388 243.353,307.912 240.864,308.401        241.171,309.869      "
   fill="#231F20"
   clip-rule="evenodd"
   fill-rule="evenodd" />
				</g>
			</g>
			<g
   id="g71">
				<g
   id="g73">
					<g
   id="g75">
						<path
   id="path77"
   d="M228.693,305.174c0,0-0.234,0.088-0.643,0.243c-0.427,0.14-0.958,0.409-1.601,0.727        c-0.644,0.318-1.395,0.689-2.2,1.087c-0.401,0.2-0.816,0.408-1.238,0.618c-0.416,0.212-0.789,0.438-1.188,0.659        c-3.204,1.756-6.154,3.613-6.155,3.613l7.868,12.769c0,0,2.771-1.738,5.494-3.228c0.339-0.188,0.688-0.401,1.014-0.565        c0.323-0.159,0.64-0.316,0.948-0.468c0.613-0.306,1.186-0.592,1.676-0.836c0.49-0.249,0.898-0.464,1.181-0.543        c0.283-0.103,0.444-0.162,0.444-0.162L228.693,305.174z"
   fill="none" />
					</g>
					<path
   id="path79"
   d="M222.866,317.142l-0.76-1.293c0,0-0.551,0.312-1.083,0.647       c-0.537,0.33-1.074,0.659-1.074,0.659l0.78,1.281c0,0,0.533-0.327,1.065-0.654       C222.323,317.449,222.866,317.143,222.866,317.142z"
   fill="#231F20"
   clip-rule="evenodd"
   fill-rule="evenodd" />
					<path
   id="path81"
   d="M226.764,314.946l-0.704-1.325c0,0-0.556,0.305-1.106,0.616       c-0.551,0.311-1.101,0.623-1.101,0.623l0.736,1.307c0,0,0.543-0.307,1.086-0.614S226.764,314.946,226.764,314.946z"
   fill="#231F20"
   clip-rule="evenodd"
   fill-rule="evenodd" />
					<polygon
   id="polygon83"
   points="230.743,312.974 230.148,311.597 227.861,312.727        228.517,314.076      "
   fill="#231F20"
   clip-rule="evenodd"
   fill-rule="evenodd" />
				</g>
			</g>
			<g
   id="g85">
				<g
   id="g87">
					<g
   id="g89">
						<path
   id="path91"
   d="M215.667,312.121c0,0-0.745,0.46-1.863,1.15c-1.084,0.693-2.53,1.616-3.975,2.54        c-1.411,0.907-2.822,1.814-3.88,2.495c-1.046,0.658-1.743,1.097-1.743,1.097l7.983,12.697c0,0,0.732-0.461,1.83-1.152        c1.073-0.69,2.503-1.609,3.933-2.529c1.401-0.895,2.802-1.79,3.852-2.461c1.038-0.641,1.73-1.067,1.73-1.067L215.667,312.121z        "
   fill="none" />
					</g>
					<polygon
   id="polygon93"
   points="211.444,324.318 210.635,323.055 208.525,324.402        209.328,325.669      "
   fill="#231F20"
   clip-rule="evenodd"
   fill-rule="evenodd" />
					
						<rect
   id="rect95"
   height="2.509"
   width="1.5"
   fill="#231F20"
   clip-rule="evenodd"
   fill-rule="evenodd"
   transform="matrix(0.5394 0.8421 -0.8421 0.5394 369.5638 -31.7129)"
   y="320.68"
   x="213.018" />
					<polygon
   id="polygon97"
   points="219.009,319.49 218.215,318.218 216.088,319.56        216.892,320.826      "
   fill="#231F20"
   clip-rule="evenodd"
   fill-rule="evenodd" />
				</g>
			</g>
			<g
   id="g99">
				<g
   id="g101">
					<g
   id="g103">
						<path
   id="path105"
   d="M204.206,319.402c0,0-2.789,1.788-5.543,3.368c-1.38,0.849-2.761,1.541-3.794,2.101        c-1.033,0.553-1.722,0.922-1.722,0.922l6.707,13.415c0,0,0.801-0.426,2.002-1.066c1.195-0.644,2.831-1.478,4.33-2.397        c1.522-0.903,3.082-1.794,4.163-2.494c1.104-0.691,1.841-1.152,1.841-1.152L204.206,319.402z"
   fill="none" />
					</g>
					<polygon
   id="polygon107"
   points="199.847,331.315 199.13,329.998 196.939,331.167        197.623,332.502      "
   fill="#231F20"
   clip-rule="evenodd"
   fill-rule="evenodd" />
					<polygon
   id="polygon109"
   points="203.77,329.08 203.007,327.789 200.861,329.053        201.602,330.357      "
   fill="#231F20"
   clip-rule="evenodd"
   fill-rule="evenodd" />
					<polygon
   id="polygon111"
   points="207.611,326.743 206.817,325.47 204.698,326.793        205.479,328.073      "
   fill="#231F20"
   clip-rule="evenodd"
   fill-rule="evenodd" />
				</g>
			</g>
		</g>
	</g>
</g><g
     id="g113">
	<g
   id="g115">
		<g
   id="g117">
			<g
   id="g119">
				<g
   id="g121">
					<g
   id="g123">
						<polygon
   id="polygon125"
   points="283.5,290.001 268.962,289.801 268.839,304.799 283.5,304.999       "
   fill="none" />
					</g>
					<polygon
   id="polygon127"
   points="272.686,297.882 272.695,296.382 269.986,296.345        269.975,297.845      "
   fill="#231F20"
   clip-rule="evenodd"
   fill-rule="evenodd" />
					<polygon
   id="polygon129"
   points="277.548,297.948 277.552,296.448 274.844,296.411        274.837,297.911      "
   fill="#231F20"
   clip-rule="evenodd"
   fill-rule="evenodd" />
					<polygon
   id="polygon131"
   points="282.394,298.015 282.395,296.515 279.686,296.478        279.683,297.978      "
   fill="#231F20"
   clip-rule="evenodd"
   fill-rule="evenodd" />
				</g>
			</g>
			<g
   id="g133">
				<g
   id="g135">
					<g
   id="g137">
						<polygon
   id="polygon139"
   points="268.962,289.801 254.423,289.602 254.178,304.598 268.839,304.799       "
   fill="none" />
					</g>
					
						<rect
   id="rect141"
   height="2.709"
   width="1.5"
   fill="#231F20"
   clip-rule="evenodd"
   fill-rule="evenodd"
   transform="matrix(-0.0143 0.9999 -0.9999 -0.0143 557.2975 44.4541)"
   y="295.559"
   x="255.988" />
					
						<rect
   id="rect143"
   height="2.709"
   width="1.5"
   fill="#231F20"
   clip-rule="evenodd"
   fill-rule="evenodd"
   transform="matrix(-0.0117 0.9999 -0.9999 -0.0117 561.6236 38.8814)"
   y="295.626"
   x="260.848" />
					<polygon
   id="polygon145"
   points="267.789,297.815 267.802,296.315 265.094,296.278        265.078,297.778      "
   fill="#231F20"
   clip-rule="evenodd"
   fill-rule="evenodd" />
				</g>
			</g>
			<g
   id="g147">
				<g
   id="g149">
					<g
   id="g151">
						<polygon
   id="polygon153"
   points="254.423,289.602 239.823,289.402 239.578,304.398 254.178,304.598       "
   fill="none" />
					</g>
					<polygon
   id="polygon155"
   points="243.479,297.482 243.507,295.982 240.795,295.945        240.77,297.445      "
   fill="#231F20"
   clip-rule="evenodd"
   fill-rule="evenodd" />
					<polygon
   id="polygon157"
   points="248.339,297.549 248.368,296.049 245.658,296.011        245.629,297.511      "
   fill="#231F20"
   clip-rule="evenodd"
   fill-rule="evenodd" />
					<polygon
   id="polygon159"
   points="253.185,297.615 253.21,296.115 250.502,296.078        250.474,297.578      "
   fill="#231F20"
   clip-rule="evenodd"
   fill-rule="evenodd" />
				</g>
			</g>
			<g
   id="g161">
				<g
   id="g163">
					<g
   id="g165">
						<polygon
   id="polygon167"
   points="239.823,289.402 225.161,289.201 225.039,304.198 239.578,304.398       "
   fill="none" />
					</g>
					<polygon
   id="polygon169"
   points="228.884,297.282 228.899,295.782 226.187,295.745        226.174,297.245      "
   fill="#231F20"
   clip-rule="evenodd"
   fill-rule="evenodd" />
					
						<rect
   id="rect171"
   height="2.712"
   width="1.5"
   fill="#231F20"
   clip-rule="evenodd"
   fill-rule="evenodd"
   transform="matrix(-0.013 0.9999 -0.9999 -0.013 531.9769 68.0644)"
   y="295.224"
   x="231.646" />
					
						<rect
   id="rect173"
   height="2.712"
   width="1.5"
   fill="#231F20"
   clip-rule="evenodd"
   fill-rule="evenodd"
   transform="matrix(-0.0156 0.9999 -0.9999 -0.0156 537.5582 64.068)"
   y="295.29"
   x="236.492" />
				</g>
			</g>
			<g
   id="g175">
				<g
   id="g177">
					<g
   id="g179">
						<polygon
   id="polygon181"
   points="225.161,289.201 210.5,289.001 210.5,303.999 225.039,304.198       "
   fill="none" />
					</g>
					<polygon
   id="polygon183"
   points="214.288,297.082 214.291,295.582 211.579,295.545        211.578,297.045      "
   fill="#231F20"
   clip-rule="evenodd"
   fill-rule="evenodd" />
					<polygon
   id="polygon185"
   points="219.147,297.149 219.154,295.649 216.443,295.612        216.438,297.112      "
   fill="#231F20"
   clip-rule="evenodd"
   fill-rule="evenodd" />
					<polygon
   id="polygon187"
   points="223.99,297.215 224.001,295.715 221.29,295.678        221.281,297.177      "
   fill="#231F20"
   clip-rule="evenodd"
   fill-rule="evenodd" />
				</g>
			</g>
		</g>
	</g>
</g><g
     id="g189">
	<g
   id="g191">
		<g
   id="g193">
			<g
   id="g195">
				<g
   id="g197">
					<g
   id="g199">
						<polygon
   id="polygon201"
   points="296.5,263.001 282.834,263.284 283.317,278.274 296.5,277.999       "
   fill="none" />
					</g>
					<polygon
   id="polygon203"
   points="286.572,271.237 286.536,269.737 284.038,269.789        284.083,271.289      "
   fill="#231F20"
   clip-rule="evenodd"
   fill-rule="evenodd" />
					<polygon
   id="polygon205"
   points="291.035,271.144 291.015,269.644 288.518,269.696        288.547,271.196      "
   fill="#231F20"
   clip-rule="evenodd"
   fill-rule="evenodd" />
					<polygon
   id="polygon207"
   points="295.484,271.051 295.481,269.551 292.983,269.603        292.995,271.103      "
   fill="#231F20"
   clip-rule="evenodd"
   fill-rule="evenodd" />
				</g>
			</g>
			<g
   id="g209">
				<g
   id="g211">
					<g
   id="g213">
						<path
   id="path215"
   d="M282.834,263.284c0,0-3.424,0.037-6.809,0.266c-3.394,0.185-6.788,0.37-6.788,0.37l0.852,14.974        c0,0,3.31-0.181,6.621-0.362c3.315-0.226,6.607-0.257,6.607-0.258L282.834,263.284z"
   fill="none" />
					</g>
					<polygon
   id="polygon217"
   points="273.17,271.746 273.093,270.248 270.6,270.385        270.683,271.882      "
   fill="#231F20"
   clip-rule="evenodd"
   fill-rule="evenodd" />
					<polygon
   id="polygon219"
   points="277.629,271.503 277.564,270.005 275.071,270.14        275.143,271.639      "
   fill="#231F20"
   clip-rule="evenodd"
   fill-rule="evenodd" />
					<path
   id="path221"
   d="M282.076,271.33l-0.052-1.499c0,0-0.625,0.013-1.249,0.026       c-0.625,0.006-1.248,0.041-1.248,0.04l0.061,1.499c0,0,0.622-0.034,1.244-0.04C281.454,271.343,282.076,271.33,282.076,271.33z       "
   fill="#231F20"
   clip-rule="evenodd"
   fill-rule="evenodd" />
				</g>
			</g>
			<g
   id="g223">
				<g
   id="g225">
					<g
   id="g227">
						<path
   id="path229"
   d="M269.237,263.92c0,0-3.392,0.19-6.785,0.38c-3.371,0.257-6.741,0.514-6.741,0.514l1.108,14.957        c0,0,3.324-0.254,6.648-0.507c3.311-0.185,6.622-0.37,6.622-0.37L269.237,263.92z"
   fill="none" />
					</g>
					<polygon
   id="polygon231"
   points="259.777,272.556 259.671,271.06 257.184,271.25        257.293,272.745      "
   fill="#231F20"
   clip-rule="evenodd"
   fill-rule="evenodd" />
					<path
   id="path233"
   d="M264.233,272.234l-0.099-1.497c0,0-0.624,0.025-1.245,0.077       c-0.622,0.047-1.244,0.095-1.244,0.095l0.104,1.496c0,0,0.621-0.047,1.242-0.095       C263.611,272.259,264.233,272.234,264.233,272.234z"
   fill="#231F20"
   clip-rule="evenodd"
   fill-rule="evenodd" />
					<polygon
   id="polygon235"
   points="268.678,271.991 268.591,270.494 266.098,270.63        266.192,272.127      "
   fill="#231F20"
   clip-rule="evenodd"
   fill-rule="evenodd" />
				</g>
			</g>
			<g
   id="g237">
				<g
   id="g239">
					<g
   id="g241">
						<path
   id="path243"
   d="M255.711,264.814c0,0-3.371,0.257-6.741,0.514c-3.379,0.244-6.719,0.548-6.719,0.548l1.254,14.946        c0,0,3.347-0.306,6.665-0.544c3.324-0.253,6.648-0.507,6.648-0.507L255.711,264.814z"
   fill="none" />
					</g>
					<polygon
   id="polygon245"
   points="246.395,273.579 246.27,272.084 243.786,272.298        243.911,273.793      "
   fill="#231F20"
   clip-rule="evenodd"
   fill-rule="evenodd" />
					<polygon
   id="polygon247"
   points="250.85,273.237 250.731,271.742 248.244,271.931        248.365,273.427      "
   fill="#231F20"
   clip-rule="evenodd"
   fill-rule="evenodd" />
					
						<rect
   id="rect249"
   height="2.495"
   width="1.5"
   fill="#231F20"
   clip-rule="evenodd"
   fill-rule="evenodd"
   transform="matrix(0.0749 0.9972 -0.9972 0.0749 506.4528 -1.4178)"
   y="270.998"
   x="253.241" />
				</g>
			</g>
			<g
   id="g251">
				<g
   id="g253">
					<g
   id="g255">
						<polygon
   id="polygon257"
   points="242.252,265.876 228.851,267.029 230.15,281.97 243.506,280.822       "
   fill="none" />
					</g>
					
						<rect
   id="rect259"
   height="2.493"
   width="1.5"
   fill="#231F20"
   clip-rule="evenodd"
   fill-rule="evenodd"
   transform="matrix(0.0856 0.9963 -0.9963 0.0856 484.9514 19.758)"
   y="272.842"
   x="230.961" />
					
						<rect
   id="rect261"
   height="2.493"
   width="1.5"
   fill="#231F20"
   clip-rule="evenodd"
   fill-rule="evenodd"
   transform="matrix(0.085 0.9964 -0.9964 0.085 488.8176 15.1411)"
   y="272.46"
   x="235.415" />
					
						<rect
   id="rect263"
   height="2.493"
   width="1.5"
   fill="#231F20"
   clip-rule="evenodd"
   fill-rule="evenodd"
   transform="matrix(0.0837 0.9965 -0.9965 0.0837 492.8405 10.6953)"
   y="272.078"
   x="239.855" />
				</g>
			</g>
		</g>
	</g>
</g><g
     id="g265">
	<g
   id="g267">
		<g
   id="g269">
			<g
   id="g271">
				<g
   id="g273">
					<g
   id="g275">
						<path
   id="path277"
   d="M277.812,249.007c0,0-0.988-0.02-2.471-0.049c-0.741-0.012-1.606-0.025-2.532-0.04        c-0.919,0.021-1.899,0.042-2.88,0.064c-1.969,0.015-3.896,0.178-5.356,0.253c-1.461,0.073-2.414,0.181-2.414,0.181        l1.244,14.947c0,0,0.878-0.101,2.177-0.163c1.299-0.064,3.045-0.217,4.761-0.225c0.861-0.02,1.722-0.04,2.529-0.059        c0.8,0.014,1.547,0.026,2.187,0.038c1.279,0.023,2.132,0.039,2.132,0.039L277.812,249.007z"
   fill="none" />
					</g>
					<polygon
   id="polygon279"
   points="266.624,257.157 266.541,255.66 263.791,255.824        263.906,257.32      "
   fill="#231F20"
   clip-rule="evenodd"
   fill-rule="evenodd" />
					<polygon
   id="polygon281"
   points="271.504,256.978 271.481,255.478 268.724,255.541        268.782,257.04      "
   fill="#231F20"
   clip-rule="evenodd"
   fill-rule="evenodd" />
					<polygon
   id="polygon283"
   points="276.368,257.009 276.414,255.51 273.654,255.457        273.648,256.957      "
   fill="#231F20"
   clip-rule="evenodd"
   fill-rule="evenodd" />
				</g>
			</g>
			<g
   id="g285">
				<g
   id="g287">
					<g
   id="g289">
						<path
   id="path291"
   d="M262.159,249.417c0,0-3.855,0.317-7.64,0.803c-1.895,0.233-3.765,0.516-5.178,0.707        c-1.398,0.216-2.33,0.36-2.33,0.36l2.301,14.82c0,0,0.889-0.137,2.221-0.343c1.324-0.178,3.097-0.446,4.858-0.663        c3.524-0.452,7.012-0.737,7.012-0.737L262.159,249.417z"
   fill="none" />
					</g>
					<polygon
   id="polygon293"
   points="252.017,258.66 251.808,257.175 249.092,257.57        249.317,259.053      "
   fill="#231F20"
   clip-rule="evenodd"
   fill-rule="evenodd" />
					<path
   id="path295"
   d="M256.869,258.028l-0.176-1.49c0,0-0.683,0.081-1.365,0.161       c-0.681,0.087-1.362,0.175-1.362,0.175l0.197,1.487c0,0,0.676-0.087,1.353-0.174       C256.192,258.108,256.869,258.028,256.869,258.028z"
   fill="#231F20"
   clip-rule="evenodd"
   fill-rule="evenodd" />
					<path
   id="path297"
   d="M261.717,257.519l-0.135-1.494c0,0-0.685,0.062-1.37,0.125       c-0.686,0.057-1.369,0.136-1.369,0.135l0.16,1.492c0,0,0.677-0.078,1.356-0.134       C261.038,257.581,261.717,257.519,261.717,257.519z"
   fill="#231F20"
   clip-rule="evenodd"
   fill-rule="evenodd" />
				</g>
			</g>
			<g
   id="g299">
				<g
   id="g301">
					<g
   id="g303">
						<path
   id="path305"
   d="M247.011,251.287c0,0-0.931,0.146-2.327,0.364c-1.384,0.233-3.229,0.543-5.074,0.854        c-3.646,0.648-7.293,1.296-7.293,1.296l2.645,14.763c0,0,3.607-0.641,7.213-1.281c1.787-0.301,3.575-0.602,4.915-0.828        c1.333-0.208,2.222-0.348,2.222-0.348L247.011,251.287z"
   fill="none" />
					</g>
					
						<rect
   id="rect307"
   height="2.736"
   width="1.5"
   fill="#231F20"
   clip-rule="evenodd"
   fill-rule="evenodd"
   transform="matrix(0.1748 0.9846 -0.9846 0.1748 451.2876 -17.3888)"
   y="259.166"
   x="235.268" />
					<polygon
   id="polygon309"
   points="242.324,260.189 242.072,258.71 239.373,259.177        239.632,260.655      "
   fill="#231F20"
   clip-rule="evenodd"
   fill-rule="evenodd" />
					<polygon
   id="polygon311"
   points="247.142,259.393 246.906,257.912 244.2,258.351        244.446,259.831      "
   fill="#231F20"
   clip-rule="evenodd"
   fill-rule="evenodd" />
				</g>
			</g>
			<g
   id="g313">
				<g
   id="g315">
					<g
   id="g317">
						<path
   id="path319"
   d="M232.317,253.801c0,0-3.608,0.64-7.215,1.281c-3.589,0.631-7.141,1.186-7.141,1.186l2.314,14.818        c0,0,3.728-0.583,7.394-1.228c3.646-0.647,7.292-1.294,7.292-1.294L232.317,253.801z"
   fill="none" />
					</g>
					<polygon
   id="polygon321"
   points="222.98,263.592 222.733,262.112 220.04,262.547        220.276,264.028      "
   fill="#231F20"
   clip-rule="evenodd"
   fill-rule="evenodd" />
					<polygon
   id="polygon323"
   points="227.819,262.759 227.559,261.281 224.868,261.746        225.121,263.224      "
   fill="#231F20"
   clip-rule="evenodd"
   fill-rule="evenodd" />
					
						<rect
   id="rect325"
   height="2.733"
   width="1.5"
   fill="#231F20"
   clip-rule="evenodd"
   fill-rule="evenodd"
   transform="matrix(0.1767 0.9843 -0.9843 0.1767 447.5906 -12.3134)"
   y="260.037"
   x="230.406" />
				</g>
			</g>
			<g
   id="g327">
				<g
   id="g329">
					<g
   id="g331">
						<path
   id="path333"
   d="M217.961,256.267c0,0-3.555,0.565-7.074,1.003c-1.762,0.23-3.517,0.429-4.824,0.542        c-1.311,0.129-2.185,0.215-2.185,0.215l1.245,14.946c0,0,0.959-0.094,2.397-0.234c1.446-0.126,3.351-0.342,5.242-0.588        c3.792-0.473,7.514-1.064,7.513-1.065L217.961,256.267z"
   fill="none" />
					</g>
					<polygon
   id="polygon335"
   points="208.362,265.655 208.202,264.163 205.497,264.428        205.631,265.922      "
   fill="#231F20"
   clip-rule="evenodd"
   fill-rule="evenodd" />
					<polygon
   id="polygon337"
   points="213.245,265.069 213.048,263.582 210.347,263.916        210.524,265.406      "
   fill="#231F20"
   clip-rule="evenodd"
   fill-rule="evenodd" />
					<polygon
   id="polygon339"
   points="218.095,264.376 217.869,262.893 215.173,263.283        215.383,264.768      "
   fill="#231F20"
   clip-rule="evenodd"
   fill-rule="evenodd" />
				</g>
			</g>
		</g>
	</g>
</g><g
     id="g341">
	<g
   id="g343">
		<g
   id="g345">
			<g
   id="g347">
				<g
   id="g349">
					<g
   id="g351">
						<path
   id="path353"
   d="M282.745,327.26c0,0,0.781-0.391,1.954-0.978c1.167-0.592,2.752-1.351,4.263-2.189        c3.083-1.624,6.038-3.338,6.039-3.338l-7.444-13.021c0,0-2.815,1.632-5.635,3.116c-1.405,0.782-2.831,1.458-3.894,2        c-1.064,0.534-1.773,0.889-1.773,0.889L282.745,327.26z"
   fill="none" />
					</g>
					<polygon
   id="polygon355"
   points="288.01,315.487 288.737,316.8 290.9,315.575        290.16,314.27      "
   fill="#231F20"
   clip-rule="evenodd"
   fill-rule="evenodd" />
					<polygon
   id="polygon357"
   points="284.111,317.586 284.807,318.915 286.998,317.736        286.285,316.416      "
   fill="#231F20"
   clip-rule="evenodd"
   fill-rule="evenodd" />
					<polygon
   id="polygon359"
   points="280.172,319.571 280.829,320.919 283.057,319.803        282.378,318.466      "
   fill="#231F20"
   clip-rule="evenodd"
   fill-rule="evenodd" />
				</g>
			</g>
			<g
   id="g361">
				<g
   id="g363">
					<g
   id="g365">
						<path
   id="path367"
   d="M295.001,320.755c0,0,0.741-0.425,1.852-1.063c1.092-0.641,2.549-1.497,4.006-2.352        c2.849-1.679,5.699-3.358,5.699-3.358l-7.541-12.964c0,0-2.897,1.707-5.794,3.414c-1.419,0.833-2.838,1.667-3.902,2.292        c-1.058,0.607-1.763,1.012-1.763,1.012L295.001,320.755z"
   fill="none" />
					</g>
					<polygon
   id="polygon369"
   points="299.531,308.794 300.295,310.085 302.426,308.834        301.669,307.54      "
   fill="#231F20"
   clip-rule="evenodd"
   fill-rule="evenodd" />
					
						<rect
   id="rect371"
   height="2.477"
   width="1.5"
   fill="#231F20"
   clip-rule="evenodd"
   fill-rule="evenodd"
   transform="matrix(-0.5081 -0.8613 0.8613 -0.5081 180.2248 725.069)"
   y="309.832"
   x="296.407" />
					<polygon
   id="polygon373"
   points="291.893,313.287 292.643,314.586 294.786,313.336        294.029,312.041      "
   fill="#231F20"
   clip-rule="evenodd"
   fill-rule="evenodd" />
				</g>
			</g>
			<g
   id="g375">
				<g
   id="g377">
					<g
   id="g379">
						<path
   id="path381"
   d="M306.558,313.982c0,0,0.704-0.408,1.761-1.02c1.047-0.578,2.449-1.406,3.839-2.139        c1.391-0.72,2.779-1.503,3.821-1.971c1.041-0.5,1.735-0.833,1.735-0.833l-6.327-13.598c0,0-3.28,1.52-6.352,3.204        c-1.56,0.824-3.03,1.691-4.172,2.323c-1.108,0.642-1.847,1.069-1.847,1.069L306.558,313.982z"
   fill="none" />
					</g>
					<path
   id="path383"
   d="M311.194,302.253l0.68,1.337c0,0,0.548-0.275,1.102-0.538       c0.553-0.266,1.104-0.531,1.104-0.531l-0.646-1.354c0,0-0.561,0.27-1.122,0.539       C311.749,301.975,311.194,302.254,311.194,302.253z"
   fill="#231F20"
   clip-rule="evenodd"
   fill-rule="evenodd" />
					<path
   id="path385"
   d="M307.256,304.344l0.724,1.314c0,0,0.536-0.302,1.082-0.583       c0.543-0.287,1.087-0.574,1.087-0.574l-0.7-1.327c0,0-0.55,0.29-1.099,0.581C307.797,304.041,307.256,304.345,307.256,304.344z       "
   fill="#231F20"
   clip-rule="evenodd"
   fill-rule="evenodd" />
					<polygon
   id="polygon387"
   points="303.394,306.53 304.145,307.829 306.289,306.612        305.552,305.304      "
   fill="#231F20"
   clip-rule="evenodd"
   fill-rule="evenodd" />
				</g>
			</g>
			<g
   id="g389">
				<g
   id="g391">
					<g
   id="g393">
						<path
   id="path395"
   d="M317.714,308.019c0,0,0.69-0.363,1.738-0.782c1.049-0.416,2.429-1.09,3.841-1.544        c1.404-0.506,2.806-1.019,3.881-1.282c1.065-0.306,1.776-0.509,1.776-0.509l-3.782-14.513c0,0-0.893,0.254-2.231,0.635        c-1.355,0.346-3.091,0.966-4.823,1.594c-1.762,0.582-3.393,1.362-4.665,1.875c-1.273,0.518-2.063,0.928-2.062,0.928        L317.714,308.019z"
   fill="none" />
					</g>
					<polygon
   id="polygon397"
   points="323.571,297.09 324.024,298.52 326.37,297.851        325.971,296.405      "
   fill="#231F20"
   clip-rule="evenodd"
   fill-rule="evenodd" />
					<polygon
   id="polygon399"
   points="319.351,298.575 319.893,299.973 322.194,299.154        321.7,297.738      "
   fill="#231F20"
   clip-rule="evenodd"
   fill-rule="evenodd" />
					<polygon
   id="polygon401"
   points="315.242,300.3 315.862,301.666 318.115,300.715        317.538,299.33      "
   fill="#231F20"
   clip-rule="evenodd"
   fill-rule="evenodd" />
				</g>
			</g>
			<g
   id="g403">
				<g
   id="g405">
					<g
   id="g407">
						<path
   id="path409"
   d="M328.95,303.902c0,0,0.178-0.051,0.488-0.141c0.313-0.083,0.767-0.164,1.308-0.282        c0.542-0.115,1.173-0.249,1.85-0.393c0.672-0.166,1.404-0.275,2.141-0.365c1.474-0.178,2.924-0.468,4.055-0.49        c1.119-0.075,1.865-0.125,1.865-0.125l-0.876-14.973c0,0-0.917,0.063-2.293,0.156c-1.375,0.043-3.212,0.375-5.046,0.61        c-1.842,0.202-3.647,0.692-5.015,0.953c-0.681,0.149-1.252,0.26-1.645,0.363c-0.391,0.11-0.614,0.173-0.614,0.173        L328.95,303.902z"
   fill="none" />
					</g>
					<path
   id="path411"
   d="M336.71,294.342l0.159,1.491c0,0,0.15-0.032,0.379-0.041       c0.229-0.016,0.533-0.036,0.838-0.056c0.609-0.041,1.219-0.082,1.219-0.082l-0.107-1.496c0,0-0.622,0.042-1.244,0.084       c-0.312,0.021-0.622,0.042-0.855,0.058C336.865,294.309,336.71,294.341,336.71,294.342z"
   fill="#231F20"
   clip-rule="evenodd"
   fill-rule="evenodd" />
					<polygon
   id="polygon413"
   points="332.278,294.957 332.534,296.435 334.951,296.1        334.749,294.614      "
   fill="#231F20"
   clip-rule="evenodd"
   fill-rule="evenodd" />
					<polygon
   id="polygon415"
   points="327.91,295.874 328.267,297.331 330.653,296.825        330.353,295.355      "
   fill="#231F20"
   clip-rule="evenodd"
   fill-rule="evenodd" />
				</g>
			</g>
			<g
   id="g417">
				<g
   id="g419">
					<g
   id="g421">
						<path
   id="path423"
   d="M340.656,302.106c0,0,0.744-0.066,1.868-0.115c1.133,0.001,2.644,0.003,4.154,0.004        c1.511,0.025,3.025,0.183,4.161,0.238c0.567,0.033,1.041,0.064,1.367,0.117c0.329,0.042,0.517,0.065,0.517,0.065l1.622-14.91        c0,0-0.226-0.028-0.621-0.077c-0.395-0.06-0.962-0.1-1.642-0.142c-1.362-0.074-3.172-0.25-4.993-0.284        c-1.824-0.001-3.648-0.002-5.018-0.003c-1.373,0.056-2.292,0.134-2.292,0.134L340.656,302.106z"
   fill="none" />
					</g>
					<polygon
   id="polygon425"
   points="350.122,294.141 350.023,295.637 352.464,295.804        352.608,294.311      "
   fill="#231F20"
   clip-rule="evenodd"
   fill-rule="evenodd" />
					<path
   id="path427"
   d="M345.658,293.968l-0.019,1.5c0,0,0.611,0,1.223,0       c0.612-0.016,1.223,0.042,1.223,0.041l0.063-1.499c0,0-0.621-0.058-1.244-0.042       C346.281,293.969,345.658,293.968,345.658,293.968z"
   fill="#231F20"
   clip-rule="evenodd"
   fill-rule="evenodd" />
					<path
   id="path429"
   d="M341.203,294.022l0.067,1.499c0,0,0.152-0.011,0.381-0.026       c0.229-0.019,0.533-0.039,0.839-0.03c0.611,0.001,1.223,0.001,1.223,0.001l-0.019-1.5c0,0-0.623,0-1.246,0       c-0.312-0.008-0.623,0.012-0.856,0.03C341.36,294.011,341.203,294.022,341.203,294.022z"
   fill="#231F20"
   clip-rule="evenodd"
   fill-rule="evenodd" />
				</g>
			</g>
			<g
   id="g431">
				<g
   id="g433">
					<g
   id="g435">
						<path
   id="path437"
   d="M352.724,302.416c0,0,0.751,0.094,1.878,0.234c1.134,0.103,2.615,0.394,4.1,0.671        c1.493,0.232,2.948,0.648,4.051,0.905c0.55,0.134,1.009,0.245,1.33,0.323c0.316,0.096,0.498,0.15,0.498,0.15l4.073-14.434        c0,0-0.218-0.065-0.6-0.179c-0.388-0.095-0.941-0.232-1.605-0.396c-1.332-0.315-3.093-0.802-4.896-1.094        c-1.794-0.337-3.588-0.677-4.947-0.81c-1.355-0.169-2.259-0.281-2.259-0.281L352.724,302.416z"
   fill="none" />
					</g>
					<polygon
   id="polygon439"
   points="363.384,296.114 363.039,297.574 365.415,298.156        365.805,296.707      "
   fill="#231F20"
   clip-rule="evenodd"
   fill-rule="evenodd" />
					<polygon
   id="polygon441"
   points="359.007,295.213 358.745,296.69 361.15,297.134        361.458,295.666      "
   fill="#231F20"
   clip-rule="evenodd"
   fill-rule="evenodd" />
					<polygon
   id="polygon443"
   points="354.602,294.559 354.421,296.048 356.849,296.351        357.074,294.868      "
   fill="#231F20"
   clip-rule="evenodd"
   fill-rule="evenodd" />
				</g>
			</g>
			<g
   id="g445">
				<g
   id="g447">
					<g
   id="g449">
						<path
   id="path451"
   d="M364.58,304.699c0,0,0.725,0.222,1.811,0.553c0.542,0.173,1.182,0.341,1.854,0.58        c0.671,0.244,1.387,0.504,2.104,0.765c1.439,0.483,2.846,1.127,3.911,1.56c1.066,0.429,1.766,0.77,1.766,0.77l6.189-13.662        c-0.001,0-0.802-0.388-2.055-0.896c-1.25-0.511-2.885-1.249-4.605-1.836c-0.852-0.308-1.703-0.617-2.501-0.906        c-0.802-0.282-1.573-0.493-2.223-0.699c-1.307-0.397-2.177-0.662-2.177-0.662L364.58,304.699z"
   fill="none" />
					</g>
					<polygon
   id="polygon453"
   points="376.14,300.24 375.57,301.628 377.831,302.573        378.437,301.201      "
   fill="#231F20"
   clip-rule="evenodd"
   fill-rule="evenodd" />
					<polygon
   id="polygon455"
   points="371.969,298.644 371.468,300.058 373.77,300.893        374.311,299.494      "
   fill="#231F20"
   clip-rule="evenodd"
   fill-rule="evenodd" />
					<polygon
   id="polygon457"
   points="367.734,297.268 367.309,298.707 369.65,299.42        370.117,297.995      "
   fill="#231F20"
   clip-rule="evenodd"
   fill-rule="evenodd" />
				</g>
			</g>
			<g
   id="g459">
				<g
   id="g461">
					<g
   id="g463">
						<path
   id="path465"
   d="M376.025,308.926c0,0,0.702,0.33,1.755,0.825c1.058,0.469,2.448,1.205,3.842,1.924        c1.398,0.692,2.774,1.521,3.817,2.082c1.041,0.567,1.729,0.991,1.729,0.991l7.541-12.965c0,0-0.732-0.449-1.887-1.081        c-1.158-0.626-2.645-1.516-4.233-2.308c-1.569-0.811-3.13-1.632-4.357-2.182c-1.211-0.569-2.018-0.948-2.018-0.948        L376.025,308.926z"
   fill="none" />
					</g>
					<polygon
   id="polygon467"
   points="388.184,306.095 387.457,307.407 389.607,308.605        390.355,307.305      "
   fill="#231F20"
   clip-rule="evenodd"
   fill-rule="evenodd" />
					<polygon
   id="polygon469"
   points="384.251,303.997 383.568,305.332 385.751,306.459        386.461,305.137      "
   fill="#231F20"
   clip-rule="evenodd"
   fill-rule="evenodd" />
					<polygon
   id="polygon471"
   points="380.257,302.044 379.625,303.405 381.847,304.448        382.509,303.102      "
   fill="#231F20"
   clip-rule="evenodd"
   fill-rule="evenodd" />
				</g>
			</g>
			<g
   id="g473">
				<g
   id="g475">
					<g
   id="g477">
						<path
   id="path479"
   d="M387.168,314.748c0,0,2.765,1.6,5.526,3.333c2.771,1.752,5.54,3.504,5.54,3.504l8.104-12.62        c0.001,0-2.832-1.824-5.733-3.626c-2.888-1.813-5.896-3.556-5.896-3.556L387.168,314.748z"
   fill="none" />
					</g>
					<polygon
   id="polygon481"
   points="399.651,312.967 398.849,314.235 400.935,315.558        401.744,314.295      "
   fill="#231F20"
   clip-rule="evenodd"
   fill-rule="evenodd" />
					<polygon
   id="polygon483"
   points="395.878,310.611 395.093,311.889 397.194,313.184        397.99,311.913      "
   fill="#231F20"
   clip-rule="evenodd"
   fill-rule="evenodd" />
					<polygon
   id="polygon485"
   points="392.078,308.323 391.318,309.615 393.439,310.869        394.215,309.586      "
   fill="#231F20"
   clip-rule="evenodd"
   fill-rule="evenodd" />
				</g>
			</g>
			<g
   id="g487">
				<g
   id="g489">
					<g
   id="g491">
						<polygon
   id="polygon493"
   points="398.235,321.585 409.474,328.826 417.527,316.173 406.338,308.965       "
   fill="none" />
					</g>
					
						<rect
   id="rect495"
   height="2.479"
   width="1.5"
   fill="#231F20"
   clip-rule="evenodd"
   fill-rule="evenodd"
   transform="matrix(0.541 -0.8411 0.8411 0.541 -81.4833 493.678)"
   y="320.245"
   x="410.761" />
					
						<rect
   id="rect497"
   height="2.477"
   width="1.5"
   fill="#231F20"
   clip-rule="evenodd"
   fill-rule="evenodd"
   transform="matrix(0.5429 -0.8398 0.8398 0.5429 -81.5743 488.2847)"
   y="317.842"
   x="407.026" />
					
						<rect
   id="rect499"
   height="2.474"
   width="1.5"
   fill="#231F20"
   clip-rule="evenodd"
   fill-rule="evenodd"
   transform="matrix(0.541 -0.8411 0.8411 0.541 -80.862 485.202)"
   y="315.441"
   x="403.307" />
				</g>
			</g>
		</g>
	</g>
</g><g
     id="g501">
	<g
   id="g503">
		<g
   id="g505">
			<g
   id="g507">
				<g
   id="g509">
					<g
   id="g511">
						<path
   id="path513"
   d="M409.5,337.001c0,0-0.553-0.063-1.389-0.085c-0.451-0.09-0.976-0.179-1.546-0.267        c-0.604-0.184-1.234-0.314-1.898-0.531c-1.331-0.441-2.72-1.021-3.776-1.509c-1.065-0.519-1.776-0.865-1.776-0.865        l-6.858,13.337c0,0,0.923,0.451,2.308,1.126c1.418,0.655,3.38,1.488,5.503,2.186c1.063,0.346,2.209,0.619,3.244,0.896        c1.107,0.208,2.151,0.38,3.043,0.521c1.885,0.145,3.146,0.189,3.146,0.189V337.001z"
   fill="none" />
					</g>
					<path
   id="path515"
   d="M398.893,342.499l0.589-1.379c0,0-0.61-0.248-1.212-0.526       c-0.596-0.29-1.192-0.58-1.192-0.58l-0.661,1.346c0,0,0.612,0.298,1.225,0.596C398.26,342.241,398.893,342.499,398.893,342.499       z"
   fill="#231F20"
   clip-rule="evenodd"
   fill-rule="evenodd" />
					<path
   id="path517"
   d="M403.518,344.137l0.395-1.447c0,0-0.157-0.042-0.393-0.105       c-0.235-0.067-0.554-0.134-0.86-0.255c-0.619-0.218-1.237-0.437-1.237-0.437l-0.515,1.409c0,0,0.646,0.228,1.291,0.455       c0.319,0.125,0.657,0.198,0.904,0.269C403.352,344.093,403.518,344.137,403.518,344.137z"
   fill="#231F20"
   clip-rule="evenodd"
   fill-rule="evenodd" />
					<path
   id="path519"
   d="M408.37,344.963l0.086-1.498c0,0-0.16-0.01-0.4-0.024       c-0.239-0.023-0.561-0.013-0.879-0.071c-0.637-0.109-1.273-0.218-1.273-0.218l-0.274,1.475c0,0,0.681,0.116,1.36,0.232       c0.34,0.062,0.69,0.054,0.948,0.078C408.198,344.952,408.37,344.963,408.37,344.963z"
   fill="#231F20"
   clip-rule="evenodd"
   fill-rule="evenodd" />
				</g>
			</g>
			<g
   id="g521">
				<g
   id="g523">
					<g
   id="g525">
						<path
   id="path527"
   d="M399.115,333.743c0,0-0.721-0.387-1.803-0.968c-1.089-0.609-2.551-1.452-4.038-2.364        c-3.051-1.902-6.102-3.805-6.102-3.805l-7.939,12.724c0,0,3.117,1.944,6.234,3.888c1.611,0.988,3.298,1.963,4.588,2.683        c1.32,0.708,2.201,1.18,2.201,1.18L399.115,333.743z"
   fill="none" />
					</g>
					
						<rect
   id="rect529"
   height="2.698"
   width="1.5"
   fill="#231F20"
   clip-rule="evenodd"
   fill-rule="evenodd"
   transform="matrix(-0.5313 0.8472 -0.8472 -0.5313 873.1473 185.1044)"
   y="332.72"
   x="384.623" />
					<polygon
   id="polygon531"
   points="390.248,337.964 391.018,336.677 388.726,335.281        387.937,336.556      "
   fill="#231F20"
   clip-rule="evenodd"
   fill-rule="evenodd" />
					<path
   id="path533"
   d="M394.465,340.359l0.705-1.324c0,0-0.586-0.314-1.173-0.629       c-0.58-0.332-1.16-0.664-1.16-0.664l-0.746,1.301c0,0,0.589,0.337,1.177,0.674       C393.866,340.038,394.465,340.359,394.465,340.359z"
   fill="#231F20"
   clip-rule="evenodd"
   fill-rule="evenodd" />
				</g>
			</g>
			<g
   id="g535">
				<g
   id="g537">
					<g
   id="g539">
						<path
   id="path541"
   d="M387.172,326.606c0,0-0.797-0.493-1.991-1.231c-1.21-0.74-2.857-1.735-4.631-2.7        c-0.883-0.484-1.775-0.964-2.677-1.386c-0.44-0.214-0.866-0.42-1.271-0.616c-0.363-0.165-0.707-0.322-1.024-0.466        c-1.274-0.575-2.124-0.958-2.124-0.958l-6.093,13.705c0,0,0.807,0.364,2.018,0.91c0.303,0.138,0.632,0.287,0.979,0.445        c0.299,0.146,0.613,0.299,0.938,0.458c0.645,0.297,1.353,0.679,2.063,1.069c1.42,0.77,2.887,1.653,4.002,2.336        c1.123,0.695,1.872,1.158,1.872,1.158L387.172,326.606z"
   fill="none" />
					</g>
					<path
   id="path543"
   d="M373.616,328.146l0.635-1.359c0,0-0.618-0.297-1.233-0.572       c-0.615-0.28-1.231-0.56-1.231-0.56l-0.615,1.368c0,0,0.613,0.279,1.227,0.558       C373.014,327.856,373.616,328.146,373.616,328.146z"
   fill="#231F20"
   clip-rule="evenodd"
   fill-rule="evenodd" />
					<path
   id="path545"
   d="M377.866,330.368l0.742-1.303c0,0-0.588-0.344-1.194-0.664       c-0.603-0.326-1.204-0.651-1.204-0.651l-0.692,1.331c0,0,0.589,0.318,1.177,0.637       C377.286,330.03,377.866,330.368,377.866,330.368z"
   fill="#231F20"
   clip-rule="evenodd"
   fill-rule="evenodd" />
					<polygon
   id="polygon547"
   points="381.989,332.835 382.78,331.56 380.463,330.146        379.693,331.433      "
   fill="#231F20"
   clip-rule="evenodd"
   fill-rule="evenodd" />
				</g>
			</g>
			<g
   id="g549">
				<g
   id="g551">
					<g
   id="g553">
						<path
   id="path555"
   d="M373.454,319.249c0,0-3.42-1.539-6.938-2.942c-3.508-1.417-7.113-2.689-7.113-2.689l-4.972,14.15        c0,0,3.251,1.147,6.483,2.452c3.235,1.29,6.446,2.735,6.446,2.734L373.454,319.249z"
   fill="none" />
					</g>
					<polygon
   id="polygon557"
   points="360.273,322.483 360.805,321.081 358.257,320.142        357.749,321.553      "
   fill="#231F20"
   clip-rule="evenodd"
   fill-rule="evenodd" />
					<polygon
   id="polygon559"
   points="364.759,324.26 365.329,322.873 362.813,321.859        362.264,323.254      "
   fill="#231F20"
   clip-rule="evenodd"
   fill-rule="evenodd" />
					<polygon
   id="polygon561"
   points="369.187,326.143 369.789,324.769 367.3,323.696        366.715,325.077      "
   fill="#231F20"
   clip-rule="evenodd"
   fill-rule="evenodd" />
				</g>
			</g>
			<g
   id="g563">
				<g
   id="g565">
					<g
   id="g567">
						<path
   id="path569"
   d="M359.404,313.617c0,0-3.598-1.284-7.338-2.346c-1.855-0.553-3.769-1.014-5.198-1.365        c-1.45-0.317-2.417-0.529-2.417-0.529l-3.015,14.692c0,0,0.809,0.177,2.021,0.442c1.216,0.301,2.84,0.688,4.467,1.175        c3.256,0.922,6.508,2.081,6.508,2.081L359.404,313.617z"
   fill="none" />
					</g>
					<path
   id="path571"
   d="M346.49,318.084l0.364-1.455c0,0-0.661-0.166-1.322-0.331       c-0.666-0.146-1.333-0.292-1.333-0.292l-0.32,1.466c0,0,0.655,0.143,1.31,0.287C345.84,317.921,346.49,318.084,346.49,318.084z       "
   fill="#231F20"
   clip-rule="evenodd"
   fill-rule="evenodd" />
					<polygon
   id="polygon573"
   points="351.134,319.357 351.566,317.921 348.948,317.171        348.552,318.617      "
   fill="#231F20"
   clip-rule="evenodd"
   fill-rule="evenodd" />
					<path
   id="path575"
   d="M355.703,320.838l0.486-1.419c0,0-0.643-0.22-1.286-0.439       c-0.646-0.208-1.294-0.416-1.294-0.416l-0.457,1.429c0,0,0.64,0.205,1.279,0.411       C355.068,320.62,355.703,320.838,355.703,320.838z"
   fill="#231F20"
   clip-rule="evenodd"
   fill-rule="evenodd" />
				</g>
			</g>
			<g
   id="g577">
				<g
   id="g579">
					<g
   id="g581">
						<path
   id="path583"
   d="M344.45,309.377c0,0-3.887-0.824-8-1.206c-2.048-0.209-4.171-0.259-5.775-0.251        c-1.626,0.06-2.709,0.1-2.709,0.1l1.068,14.96c0,0,0.732-0.025,1.831-0.063c1.119,0,2.635,0.025,4.204,0.189        c3.128,0.29,6.366,0.963,6.366,0.964L344.45,309.377z"
   fill="none" />
					</g>
					<path
   id="path585"
   d="M332.259,315.966l0.032-1.5c0.001,0-0.688-0.035-1.378-0.022       c-0.69,0.024-1.382,0.049-1.382,0.049l0.065,1.499c0,0,0.665-0.024,1.33-0.048C331.592,315.93,332.259,315.965,332.259,315.966       z"
   fill="#231F20"
   clip-rule="evenodd"
   fill-rule="evenodd" />
					<path
   id="path587"
   d="M337.035,316.297l0.174-1.49c0,0-0.17-0.021-0.425-0.054       c-0.257-0.022-0.599-0.051-0.941-0.08c-0.685-0.058-1.368-0.116-1.368-0.116l-0.101,1.497c0,0,0.666,0.057,1.331,0.113       c0.333,0.028,0.666,0.056,0.915,0.078C336.869,316.276,337.035,316.297,337.035,316.297z"
   fill="#231F20"
   clip-rule="evenodd"
   fill-rule="evenodd" />
					<path
   id="path589"
   d="M341.763,317.034l0.28-1.474c0,0-0.673-0.121-1.346-0.241       c-0.336-0.061-0.673-0.121-0.925-0.166c-0.255-0.035-0.425-0.058-0.425-0.058l-0.224,1.483c0,0,0.165,0.022,0.414,0.056       c0.247,0.044,0.576,0.104,0.906,0.163C341.104,316.916,341.763,317.034,341.763,317.034z"
   fill="#231F20"
   clip-rule="evenodd"
   fill-rule="evenodd" />
				</g>
			</g>
		</g>
	</g>
</g><g
     id="g591">
	<g
   id="g593">
		<g
   id="g595">
			<g
   id="g597">
				<g
   id="g599">
					<g
   id="g601">
						<path
   id="path603"
   d="M458.867,382.396c0,0,0.786,0.559,1.965,1.396c1.177,0.896,2.786,1.79,4.4,2.708        c1.614,0.893,3.24,1.588,4.458,2.188c1.218,0.492,2.029,0.821,2.029,0.821l5.607-13.91c0,0-0.651-0.261-1.629-0.653        c-0.896-0.458-2.184-0.997-3.326-1.635c-1.121-0.652-2.284-1.271-2.98-1.834c-0.755-0.524-1.259-0.874-1.259-0.874        L458.867,382.396z"
   fill="none" />
					</g>
					<path
   id="path605"
   d="M471.743,380.776l-0.635,1.359c0,0,0.538,0.256,1.076,0.513       c0.55,0.226,1.099,0.452,1.099,0.452l0.58-1.383c0,0-0.537-0.221-1.074-0.441C472.266,381.026,471.743,380.776,471.743,380.776       z"
   fill="#231F20"
   clip-rule="evenodd"
   fill-rule="evenodd" />
					<path
   id="path607"
   d="M468.057,378.866l-0.75,1.299c0,0,2.072,1.203,2.095,1.155       l0.681-1.337C470.056,380.03,468.057,378.866,468.057,378.866z"
   fill="#231F20"
   clip-rule="evenodd"
   fill-rule="evenodd" />
					<polygon
   id="polygon609"
   points="464.598,376.624 463.704,377.829 465.675,379.216        466.483,377.952      "
   fill="#231F20"
   clip-rule="evenodd"
   fill-rule="evenodd" />
				</g>
			</g>
			<g
   id="g611">
				<g
   id="g613">
					<g
   id="g615">
						<path
   id="path617"
   d="M471.72,389.51c0,0,0.812,0.323,2.03,0.809c1.212,0.412,2.836,1.002,4.451,1.514        c1.609,0.473,3.229,0.995,4.43,1.302c1.202,0.319,2.004,0.532,2.004,0.532l3.785-14.513c0,0-0.723-0.191-1.807-0.479        c-1.093-0.278-2.476-0.731-3.893-1.144c-1.392-0.441-2.732-0.935-3.762-1.277c-0.979-0.393-1.632-0.654-1.632-0.654        L471.72,389.51z"
   fill="none" />
					</g>
					<path
   id="path619"
   d="M483.514,385.044l-0.413,1.442c0,0,0.564,0.176,1.136,0.319       c0.569,0.151,1.14,0.302,1.14,0.302l0.388-1.449c0,0-0.564-0.149-1.128-0.299C484.07,385.218,483.514,385.044,483.514,385.044z       "
   fill="#231F20"
   clip-rule="evenodd"
   fill-rule="evenodd" />
					<path
   id="path621"
   d="M479.518,383.817l-0.469,1.425c0,0,0.556,0.207,1.124,0.366       c0.566,0.17,1.132,0.34,1.132,0.34l0.437-1.435c0,0-0.558-0.167-1.116-0.335C480.064,384.02,479.518,383.817,479.518,383.817z"
   fill="#231F20"
   clip-rule="evenodd"
   fill-rule="evenodd" />
					<path
   id="path623"
   d="M475.602,382.417l-0.541,1.399c0,0,0.547,0.235,1.105,0.431       c0.56,0.193,1.119,0.386,1.119,0.386l0.5-1.414c0,0-0.551-0.19-1.101-0.38C476.136,382.646,475.602,382.417,475.602,382.417z"
   fill="#231F20"
   clip-rule="evenodd"
   fill-rule="evenodd" />
				</g>
			</g>
			<g
   id="g625">
				<g
   id="g627">
					<g
   id="g629">
						<path
   id="path631"
   d="M484.635,393.666c0,0,0.806,0.228,2.002,0.515c1.193,0.279,2.794,0.679,4.379,1.03        c3.176,0.71,6.314,1.343,6.314,1.344l3-14.695c0.001,0-3.046-0.615-6.027-1.282c-1.479-0.347-2.957-0.695-4.065-0.956        c-1.104-0.265-1.817-0.468-1.817-0.468L484.635,393.666z"
   fill="none" />
					</g>
					<polygon
   id="polygon633"
   points="495.735,388.023 495.422,389.49 497.721,389.969        498.025,388.5      "
   fill="#231F20"
   clip-rule="evenodd"
   fill-rule="evenodd" />
					<polygon
   id="polygon635"
   points="491.641,387.119 491.305,388.581 493.6,389.092        493.922,387.627      "
   fill="#231F20"
   clip-rule="evenodd"
   fill-rule="evenodd" />
					<path
   id="path637"
   d="M487.582,386.14l-0.369,1.454c0,0,0.569,0.154,1.144,0.285       c0.572,0.136,1.145,0.272,1.145,0.272l0.351-1.458c0,0-0.568-0.135-1.137-0.271C488.146,386.292,487.582,386.14,487.582,386.14       z"
   fill="#231F20"
   clip-rule="evenodd"
   fill-rule="evenodd" />
				</g>
			</g>
			<g
   id="g639">
				<g
   id="g641">
					<g
   id="g643">
						<polygon
   id="polygon645"
   points="497.33,396.554 509.714,399.017 512.698,384.32 500.33,381.859       "
   fill="none" />
					</g>
					<polygon
   id="polygon647"
   points="508.098,390.506 507.808,391.977 510.101,392.436        510.397,390.965      "
   fill="#231F20"
   clip-rule="evenodd"
   fill-rule="evenodd" />
					
						<rect
   id="rect649"
   height="2.342"
   width="1.5"
   fill="#231F20"
   clip-rule="evenodd"
   fill-rule="evenodd"
   transform="matrix(0.1927 -0.9813 0.9813 0.1927 24.3207 810.8764)"
   y="389.486"
   x="504.23" />
					
						<rect
   id="rect651"
   height="2.345"
   width="1.5"
   fill="#231F20"
   clip-rule="evenodd"
   fill-rule="evenodd"
   transform="matrix(0.1979 -0.9802 0.9802 0.1979 19.6041 803.6459)"
   y="388.671"
   x="500.124" />
				</g>
			</g>
			<g
   id="g653">
				<g
   id="g655">
					<g
   id="g657">
						<path
   id="path659"
   d="M509.714,399.017c0,0,3.05,0.61,6.001,1.28c1.475,0.336,2.942,0.676,3.995,0.966        c1.07,0.277,1.783,0.462,1.783,0.462l4.014-14.451c0,0-0.813-0.211-2.034-0.529c-1.229-0.335-2.834-0.708-4.436-1.073        c-3.201-0.726-6.339-1.352-6.339-1.352L509.714,399.017z"
   fill="none" />
					</g>
					<polygon
   id="polygon661"
   points="520.458,393.162 520.099,394.618 522.346,395.202        522.736,393.753      "
   fill="#231F20"
   clip-rule="evenodd"
   fill-rule="evenodd" />
					<polygon
   id="polygon663"
   points="516.354,392.205 516.031,393.67 518.301,394.194        518.643,392.733      "
   fill="#231F20"
   clip-rule="evenodd"
   fill-rule="evenodd" />
					<polygon
   id="polygon665"
   points="512.25,391.338 511.948,392.807 514.233,393.288        514.546,391.822      "
   fill="#231F20"
   clip-rule="evenodd"
   fill-rule="evenodd" />
				</g>
			</g>
		</g>
	</g>
</g><g
     id="g667">
	<g
   id="g669">
		<g
   id="g671">
			<g
   id="g673">
				<g
   id="g675">
					<path
   id="path677"
   d="M415.129,404.385c0,0-1.087,0.347-2.717,0.868c-1.611,0.503-3.702,1.069-5.7,1.479       c-0.486,0.08-0.973,0.16-1.452,0.239c-0.486,0.095-0.936,0.139-1.359,0.167c-0.424,0.03-0.853,0.092-1.227,0.104       c-0.361,0-0.703-0.001-1.019-0.002c-0.661,0.046-1.063-0.09-1.408-0.096c-0.327-0.026-0.515-0.042-0.515-0.042l-2.465,14.795       c0,0,0.416,0.048,1.145,0.132c0.714,0.057,1.812,0.247,2.975,0.207c2.444,0.091,5.396-0.273,8.203-0.785       c2.76-0.559,5.354-1.279,7.218-1.858c1.838-0.587,3.063-0.979,3.063-0.979L415.129,404.385z"
   fill="none" />
				</g>
				<path
   id="path679"
   d="M403.557,415.23l-0.091-1.497c0,0-0.219,0.036-0.543,0.032      c-0.324,0.001-0.757,0.002-1.189,0.003c-0.871,0.04-1.718-0.085-1.718-0.085l-0.138,1.494c0,0,0.92,0.132,1.841,0.091      c0.46-0.002,0.921-0.003,1.266-0.004C403.33,415.267,403.557,415.23,403.557,415.23z"
   fill="#231F20"
   clip-rule="evenodd"
   fill-rule="evenodd" />
				<path
   id="path681"
   d="M410.024,414.224l-0.34-1.461c0,0-0.863,0.189-1.727,0.378      c-0.867,0.145-1.734,0.288-1.734,0.288l0.222,1.483c0,0,0.9-0.149,1.801-0.299C409.135,414.419,410.024,414.224,410.024,414.224      z"
   fill="#231F20"
   clip-rule="evenodd"
   fill-rule="evenodd" />
				<path
   id="path683"
   d="M416.263,412.459l-0.459-1.428c0,0-0.85,0.285-1.704,0.533      c-0.854,0.255-1.709,0.506-1.709,0.506l0.406,1.443c0,0,0.87-0.255,1.738-0.515      C415.406,412.747,416.263,412.459,416.263,412.459z"
   fill="#231F20"
   clip-rule="evenodd"
   fill-rule="evenodd" />
			</g>
		</g>
	</g>
</g><g
     id="g685">
	<g
   id="g687">
		<g
   id="g689">
			<g
   id="g691">
				<g
   id="g693">
					<g
   id="g695">
						<path
   id="path697"
   d="M374.754,408.038c0,0-0.945,0.105-2.363,0.264c-1.375,0.165-3.209,0.384-5.043,0.603        c-1.727,0.19-3.481,0.404-4.684,0.474c-0.617,0.049-1.132,0.089-1.492,0.118c-0.362,0.031-0.551,0.022-0.551,0.022        l0.699,14.981c0,0,0.27,0.005,0.704-0.03c0.437-0.034,1.06-0.082,1.808-0.14c1.533-0.096,3.405-0.324,5.31-0.535        c1.793-0.215,3.586-0.429,4.931-0.589c1.305-0.146,2.174-0.244,2.174-0.244L374.754,408.038z"
   fill="none" />
					</g>
					<polygon
   id="polygon699"
   points="364.804,417.264 364.658,415.771 361.988,415.979        362.082,417.476      "
   fill="#231F20"
   clip-rule="evenodd"
   fill-rule="evenodd" />
					<polygon
   id="polygon701"
   points="369.649,416.712 369.469,415.222 366.783,415.537        366.95,417.027      "
   fill="#231F20"
   clip-rule="evenodd"
   fill-rule="evenodd" />
					<polygon
   id="polygon703"
   points="374.456,416.15 374.298,414.659 371.589,414.963        371.769,416.452      "
   fill="#231F20"
   clip-rule="evenodd"
   fill-rule="evenodd" />
				</g>
			</g>
			<g
   id="g705">
				<g
   id="g707">
					<g
   id="g709">
						<path
   id="path711"
   d="M360.621,409.518c0,0-0.787,0.019-1.97,0.046c-0.6,0.038-1.262-0.012-1.977-0.049        c-0.71-0.058-1.486-0.021-2.23-0.147c-0.748-0.101-1.497-0.2-2.199-0.294c-0.704-0.071-1.349-0.29-1.909-0.396        c-1.117-0.248-1.863-0.413-1.863-0.413l-3.945,14.469c0,0,1.036,0.237,2.59,0.593c0.784,0.155,1.673,0.423,2.672,0.543        c0.996,0.133,2.058,0.275,3.119,0.417c1.063,0.16,2.123,0.143,3.118,0.213c0.996,0.049,1.93,0.102,2.7,0.062        c1.557-0.036,2.594-0.062,2.594-0.062L360.621,409.518z"
   fill="none" />
					</g>
					<polygon
   id="polygon713"
   points="350.102,416.856 350.375,415.382 347.786,414.797        347.426,416.253      "
   fill="#231F20"
   clip-rule="evenodd"
   fill-rule="evenodd" />
					<path
   id="path715"
   d="M354.982,417.471l0.109-1.496c0,0-0.166-0.008-0.415-0.02       c-0.249-0.001-0.577-0.048-0.906-0.094c-0.656-0.088-1.313-0.176-1.313-0.176l-0.2,1.486c0,0,0.68,0.091,1.36,0.182       c0.34,0.047,0.68,0.095,0.938,0.097C354.811,417.464,354.982,417.471,354.982,417.471z"
   fill="#231F20"
   clip-rule="evenodd"
   fill-rule="evenodd" />
					<path
   id="path717"
   d="M359.878,417.565l-0.039-1.499       c0-0.001-2.663,0.067-2.66,0.011l-0.038,1.5c0,0,0.685,0.057,1.369,0.021C359.195,417.581,359.878,417.565,359.878,417.565z"
   fill="#231F20"
   clip-rule="evenodd"
   fill-rule="evenodd" />
				</g>
			</g>
		</g>
	</g>
</g><g
     id="g719">
	<g
   id="g721">
		<g
   id="g723">
			<g
   id="g725">
				<g
   id="g727">
					<g
   id="g729">
						<path
   id="path731"
   d="M312.501,407.001c0,0-0.231,0.199-0.502,0.567c-0.188,0.172-0.45,0.366-0.688,0.603        c-0.283,0.223-0.668,0.443-0.994,0.695c-0.412,0.226-0.823,0.452-1.21,0.664c-0.442,0.193-0.855,0.374-1.21,0.528        c-0.345,0.165-0.704,0.256-0.921,0.344c-0.228,0.081-0.357,0.127-0.357,0.127l4.876,14.184c0,0,0.206-0.073,0.567-0.201        c0.363-0.141,0.869-0.285,1.499-0.565c0.626-0.276,1.355-0.599,2.138-0.944c0.792-0.424,1.631-0.867,2.465-1.354        c0.841-0.569,1.675-1.102,2.441-1.705c0.763-0.652,1.469-1.251,2.05-1.821c1.138-1.246,1.844-2.122,1.844-2.122        L312.501,407.001z"
   fill="none" />
					</g>
					<path
   id="path733"
   d="M312.031,417.01l-0.627-1.362c0,0-0.468,0.205-0.936,0.41       c-0.46,0.221-0.955,0.372-0.955,0.371l0.523,1.406c0,0,0.515-0.158,1.004-0.392C311.536,417.227,312.031,417.01,312.031,417.01       z"
   fill="#231F20"
   clip-rule="evenodd"
   fill-rule="evenodd" />
					<path
   id="path735"
   d="M315.416,415.096l-0.858-1.23c0,0-0.414,0.283-0.827,0.566       c-0.443,0.245-0.887,0.489-0.887,0.489l0.722,1.315c0,0,0.475-0.263,0.949-0.526       C314.965,415.404,315.416,415.096,315.416,415.096z"
   fill="#231F20"
   clip-rule="evenodd"
   fill-rule="evenodd" />
					<path
   id="path737"
   d="M318.333,412.498l-1.138-0.979c0,0-0.323,0.369-0.646,0.737       c-0.375,0.325-0.749,0.651-0.749,0.651l0.978,1.138c0,0,0.413-0.361,0.826-0.723       C317.969,412.91,318.333,412.498,318.333,412.498z"
   fill="#231F20"
   clip-rule="evenodd"
   fill-rule="evenodd" />
				</g>
			</g>
			<g
   id="g739">
				<g
   id="g741">
					<g
   id="g743">
						<path
   id="path745"
   d="M306.619,410.529c0,0-0.501,0.2-1.355,0.426c-0.817,0.257-1.993,0.527-3.19,0.776        c-2.4,0.499-4.99,0.751-4.99,0.752l1.632,14.908c0,0,3.1-0.296,6.297-0.953c1.598-0.328,3.206-0.704,4.435-1.08        c1.216-0.33,2.048-0.646,2.048-0.646L306.619,410.529z"
   fill="none" />
					</g>
					<path
   id="path747"
   d="M300.918,420.079l-0.225-1.482c0,0-0.517,0.076-1.033,0.152       c-0.515,0.082-1.037,0.13-1.037,0.13l0.18,1.489c0,0,0.531-0.049,1.059-0.133C300.389,420.157,300.918,420.079,300.918,420.079       z"
   fill="#231F20"
   clip-rule="evenodd"
   fill-rule="evenodd" />
					<path
   id="path749"
   d="M304.69,419.384l-0.324-1.465c0,0-0.502,0.131-1.017,0.216       c-0.512,0.096-1.024,0.191-1.024,0.191l0.266,1.476c0,0,0.526-0.098,1.051-0.195       C304.171,419.517,304.69,419.384,304.69,419.384z"
   fill="#231F20"
   clip-rule="evenodd"
   fill-rule="evenodd" />
					<polygon
   id="polygon751"
   points="308.399,418.408 307.948,416.977 305.959,417.549        306.335,419.001      "
   fill="#231F20"
   clip-rule="evenodd"
   fill-rule="evenodd" />
				</g>
			</g>
			<g
   id="g753">
				<g
   id="g755">
					<g
   id="g757">
						<path
   id="path759"
   d="M297.084,412.483c0,0-0.634,0.083-1.613,0.157c-0.97,0.093-2.284,0.176-3.608,0.241        c-2.647,0.13-5.363,0.119-5.363,0.119v14.998c0,0,2.996,0.014,6.053-0.135c1.527-0.074,3.063-0.173,4.224-0.282        c1.156-0.09,1.938-0.19,1.938-0.19L297.084,412.483z"
   fill="none" />
					</g>
					<path
   id="path761"
   d="M289.475,420.994l-0.033-1.499c0,0-0.525,0.011-1.051,0.022       c-0.526,0.004-1.052,0.007-1.052,0.007l0.009,1.5c0,0,0.532-0.004,1.064-0.007       C288.943,421.006,289.475,420.994,289.475,420.994z"
   fill="#231F20"
   clip-rule="evenodd"
   fill-rule="evenodd" />
					<polygon
   id="polygon763"
   points="293.292,420.846 293.207,419.349 291.109,419.446        291.164,420.945      "
   fill="#231F20"
   clip-rule="evenodd"
   fill-rule="evenodd" />
					<polygon
   id="polygon765"
   points="297.092,420.56 296.946,419.067 294.857,419.247        294.967,420.743      "
   fill="#231F20"
   clip-rule="evenodd"
   fill-rule="evenodd" />
				</g>
			</g>
		</g>
	</g>
</g><g
     id="g767">
	<g
   id="g769">
		<g
   id="g771">
			<g
   id="g773">
				<g
   id="g775">
					<path
   id="path777"
   d="M123.03,469.853c0,0,0.868,0.178,2.171,0.445c1.353,0.255,2.919,0.65,4.542,1.026       c0.771,0.205,1.462,0.442,2.154,0.642c0.338,0.102,0.666,0.2,0.976,0.294c0.262,0.113,0.509,0.222,0.737,0.32       c0.922,0.376,1.537,0.626,1.537,0.626l6.707-13.414c0,0-1.068-0.455-2.672-1.137c-0.403-0.165-0.839-0.344-1.301-0.532       c-0.439-0.138-0.902-0.282-1.381-0.432c-0.95-0.283-1.993-0.621-2.985-0.884c-1.931-0.456-3.907-0.939-5.246-1.19       c-1.379-0.283-2.299-0.472-2.299-0.472L123.03,469.853z"
   fill="none" />
				</g>
				<path
   id="path779"
   d="M135.166,464.568l-0.487,1.419c0,0,0.162,0.041,0.393,0.127      c0.226,0.095,0.527,0.222,0.829,0.348c0.603,0.253,1.206,0.505,1.206,0.505l0.618-1.366c0,0-0.637-0.268-1.274-0.534      c-0.318-0.133-0.637-0.266-0.876-0.366C135.332,464.611,135.166,464.568,135.166,464.568z"
   fill="#231F20"
   clip-rule="evenodd"
   fill-rule="evenodd" />
				<path
   id="path781"
   d="M130.441,463.241l-0.354,1.458c0,0,0.651,0.154,1.303,0.308      c0.647,0.164,1.274,0.371,1.274,0.371l0.418-1.44c0-0.001-0.653-0.215-1.315-0.383      C131.105,463.398,130.441,463.241,130.441,463.241z"
   fill="#231F20"
   clip-rule="evenodd"
   fill-rule="evenodd" />
				<polygon
   id="polygon783"
   points="125.69,462.203 125.39,463.672 128.034,464.215       128.35,462.748     "
   fill="#231F20"
   clip-rule="evenodd"
   fill-rule="evenodd" />
			</g>
		</g>
	</g>
</g><g
     id="g785">
	<path
   id="path787"
   d="M315.5,332.5c-12,18,8,41,28,32c34-14-13-46-27-33"
   fill="#231F20" />
	<g
   id="g789">
		<g
   id="g791">
			<g
   id="g793">
				<g
   id="g795">
					<g
   id="g797">
						<path
   id="path799"
   d="M309.261,328.34c0,0-0.152,0.247-0.42,0.68c-0.259,0.439-0.655,1.043-1.07,1.817        c-0.802,1.564-1.824,3.716-2.41,6.057c-0.635,2.314-0.94,4.729-0.955,6.532c-0.024,0.903-0.022,1.654,0.028,2.177        c0.035,0.523,0.056,0.822,0.056,0.822l14.947-1.236c-0.001,0-0.243-2.235,0.399-4.371c0.247-1.08,0.771-2.108,1.148-2.888        c0.453-0.763,0.755-1.271,0.755-1.271L309.261,328.34z"
   fill="none" />
					</g>
					<path
   id="path801"
   d="M312.519,342.223l-1.492-0.146c0,0-0.018,0.17-0.044,0.425       c-0.037,0.254-0.044,0.595-0.047,0.937c-0.006,0.341-0.012,0.683-0.017,0.938c-0.01,0.256,0.005,0.426,0.005,0.426l1.499-0.047       c0,0-0.014-0.158-0.004-0.396c0.004-0.238,0.01-0.555,0.016-0.872c0.002-0.317,0.008-0.635,0.043-0.871       C312.502,342.381,312.519,342.223,312.519,342.223z"
   fill="#231F20"
   clip-rule="evenodd"
   fill-rule="evenodd" />
					<path
   id="path803"
   d="M313.465,337.782l-1.42-0.483c0,0-0.193,0.654-0.385,1.309       c-0.097,0.327-0.192,0.655-0.23,0.909c-0.049,0.251-0.082,0.419-0.082,0.419l1.47,0.298c0,0,0.03-0.156,0.076-0.389       c0.034-0.236,0.124-0.541,0.215-0.845C313.287,338.391,313.465,337.782,313.465,337.782z"
   fill="#231F20"
   clip-rule="evenodd"
   fill-rule="evenodd" />
					<path
   id="path805"
   d="M315.403,333.682l-1.285-0.773c0,0-0.088,0.145-0.22,0.363       c-0.133,0.217-0.313,0.504-0.454,0.815c-0.301,0.61-0.603,1.22-0.603,1.22l1.367,0.619c0,0,0.281-0.57,0.563-1.14       c0.13-0.291,0.301-0.56,0.426-0.763C315.321,333.819,315.403,333.682,315.403,333.682z"
   fill="#231F20"
   clip-rule="evenodd"
   fill-rule="evenodd" />
				</g>
			</g>
			<g
   id="g807">
				<g
   id="g809">
					<g
   id="g811">
						<path
   id="path813"
   d="M304.49,346.425c0,0,0.024,0.298,0.066,0.821c0.079,0.516,0.19,1.253,0.324,2.138        c0.366,1.739,0.951,4.051,1.92,6.182c0.948,2.134,2.103,4.163,3.143,5.549c0.483,0.721,0.954,1.268,1.27,1.663        c0.319,0.391,0.502,0.614,0.502,0.614l11.367-9.784c0,0-0.094-0.117-0.258-0.323c-0.162-0.207-0.419-0.484-0.66-0.863        c-0.556-0.712-1.119-1.766-1.606-2.829c-0.501-1.067-0.747-2.188-0.943-3.014c-0.055-0.418-0.111-0.764-0.153-1.007        c-0.016-0.243-0.023-0.382-0.023-0.382L304.49,346.425z"
   fill="none" />
					</g>
					<path
   id="path815"
   d="M315.697,355.283l-1.273,0.792c0,0,0.088,0.146,0.219,0.363       c0.146,0.208,0.34,0.487,0.533,0.765c0.375,0.566,0.808,1.089,0.808,1.089l1.178-0.928c0.001,0-0.406-0.491-0.758-1.023       c-0.182-0.261-0.364-0.522-0.501-0.717C315.779,355.42,315.697,355.283,315.697,355.283z"
   fill="#231F20"
   clip-rule="evenodd"
   fill-rule="evenodd" />
					<path
   id="path817"
   d="M313.686,351.195l-1.408,0.517c0,0,0.257,0.629,0.514,1.259       c0.119,0.319,0.278,0.619,0.392,0.847c0.113,0.228,0.189,0.38,0.189,0.38l1.339-0.676c0,0-0.07-0.143-0.178-0.356       c-0.105-0.214-0.256-0.495-0.367-0.793C313.926,351.783,313.686,351.195,313.686,351.195z"
   fill="#231F20"
   clip-rule="evenodd"
   fill-rule="evenodd" />
					<path
   id="path819"
   d="M312.603,346.793l-1.487,0.201c0,0,0.094,0.676,0.214,1.346       c0.156,0.663,0.313,1.326,0.313,1.326l1.45-0.382c0,0-0.146-0.618-0.291-1.236C312.701,347.42,312.603,346.793,312.603,346.793       z"
   fill="#231F20"
   clip-rule="evenodd"
   fill-rule="evenodd" />
				</g>
			</g>
			<g
   id="g821">
				<g
   id="g823">
					<g
   id="g825">
						<path
   id="path827"
   d="M311.714,363.39c0,0,0.181,0.225,0.529,0.59c0.351,0.362,0.82,0.911,1.451,1.502        c1.238,1.208,3.032,2.674,4.984,3.931c1.976,1.226,4.096,2.23,5.758,2.825c1.664,0.584,2.812,0.878,2.812,0.878l3.709-14.532        c0,0-0.553-0.155-1.372-0.433c-0.818-0.291-1.876-0.802-2.892-1.416c-0.994-0.655-1.932-1.408-2.577-2.04        c-0.334-0.304-0.568-0.602-0.757-0.785c-0.187-0.187-0.278-0.306-0.278-0.306L311.714,363.39z"
   fill="none" />
					</g>
					<path
   id="path829"
   d="M325.878,364.176l-0.606,1.372c0,0,0.632,0.252,1.264,0.502       c0.314,0.131,0.635,0.244,0.882,0.311c0.244,0.074,0.406,0.124,0.406,0.124l0.44-1.434c0,0-0.152-0.046-0.38-0.115       c-0.231-0.061-0.53-0.167-0.824-0.29C326.469,364.41,325.878,364.176,325.878,364.176z"
   fill="#231F20"
   clip-rule="evenodd"
   fill-rule="evenodd" />
					<path
   id="path831"
   d="M321.924,361.91l-0.871,1.222c0,0,0.561,0.383,1.12,0.766       c0.587,0.341,1.174,0.683,1.174,0.683l0.728-1.312c0,0-0.55-0.32-1.101-0.639C322.449,362.27,321.924,361.91,321.924,361.91z"
   fill="#231F20"
   clip-rule="evenodd"
   fill-rule="evenodd" />
					<path
   id="path833"
   d="M318.502,358.918l-1.092,1.028c0,0,0.116,0.124,0.29,0.309       c0.169,0.19,0.409,0.428,0.663,0.654c0.249,0.23,0.498,0.459,0.686,0.632c0.185,0.174,0.315,0.282,0.315,0.282l0.974-1.141       c0,0-0.123-0.102-0.297-0.266c-0.175-0.162-0.409-0.378-0.643-0.594c-0.239-0.211-0.466-0.435-0.624-0.614       C318.612,359.034,318.502,358.918,318.502,358.918z"
   fill="#231F20"
   clip-rule="evenodd"
   fill-rule="evenodd" />
				</g>
			</g>
			<g
   id="g835">
				<g
   id="g837">
					<g
   id="g839">
						<path
   id="path841"
   d="M327.248,373.116c0,0,0.289,0.064,0.795,0.177c0.509,0.1,1.223,0.297,2.11,0.396        c1.758,0.297,4.148,0.388,6.518,0.232c2.354-0.239,4.69-0.681,6.336-1.251c0.416-0.13,0.798-0.25,1.136-0.356        c0.312-0.123,0.584-0.229,0.807-0.317c0.447-0.178,0.702-0.28,0.702-0.28l-5.606-13.911c0,0-0.151,0.062-0.418,0.169        c-0.133,0.055-0.294,0.121-0.479,0.198c-0.173,0.051-0.367,0.108-0.58,0.171c-0.211,0.067-0.439,0.139-0.681,0.215        c-0.243,0.05-0.5,0.104-0.766,0.158c-0.527,0.151-1.099,0.155-1.663,0.256c-1.133,0.05-2.265,0.037-3.105-0.119        c-0.425-0.03-0.767-0.15-1.013-0.191c-0.244-0.05-0.384-0.079-0.384-0.079L327.248,373.116z"
   fill="none" />
					</g>
					<path
   id="path843"
   d="M339.27,365.384l0.351,1.458c0,0,0.166-0.037,0.415-0.092       c0.244-0.074,0.568-0.173,0.894-0.272c0.324-0.1,0.649-0.199,0.893-0.273c0.244-0.074,0.396-0.146,0.396-0.146l-0.512-1.41       c0,0-0.146,0.07-0.374,0.139c-0.229,0.07-0.533,0.163-0.837,0.255c-0.305,0.093-0.608,0.186-0.837,0.256       C339.425,365.349,339.27,365.384,339.27,365.384z"
   fill="#231F20"
   clip-rule="evenodd"
   fill-rule="evenodd" />
					<path
   id="path845"
   d="M334.759,365.966l0.029,1.5c0,0,0.681-0.026,1.361-0.053       c0.676-0.083,1.352-0.167,1.352-0.167l-0.212-1.485c0,0-0.631,0.079-1.262,0.157       C335.394,365.942,334.759,365.966,334.759,365.966z"
   fill="#231F20"
   clip-rule="evenodd"
   fill-rule="evenodd" />
					<path
   id="path847"
   d="M330.247,365.556l-0.298,1.47c0,0,0.662,0.159,1.342,0.228       c0.338,0.044,0.675,0.089,0.929,0.122c0.253,0.038,0.424,0.034,0.424,0.034l0.116-1.496c0,0-0.16,0.005-0.396-0.031       c-0.236-0.032-0.551-0.073-0.865-0.115C330.865,365.706,330.247,365.556,330.247,365.556z"
   fill="#231F20"
   clip-rule="evenodd"
   fill-rule="evenodd" />
				</g>
			</g>
			<g
   id="g849">
				<g
   id="g851">
					<g
   id="g853">
						<path
   id="path855"
   d="M345.652,371.717c0,0,0.255-0.103,0.7-0.283c0.396-0.172,0.962-0.418,1.641-0.713        c1.412-0.657,3.354-1.622,5.268-2.904c1.919-1.264,3.815-2.913,5.131-4.435c0.657-0.767,1.177-1.45,1.521-1.974        c0.353-0.498,0.531-0.819,0.531-0.818l-12.805-7.809c0,0-0.028,0.067-0.127,0.191c-0.071,0.125-0.224,0.308-0.417,0.545        c-0.408,0.47-1.158,1.165-2.171,1.833c-1.003,0.675-2.21,1.284-3.181,1.737c-0.529,0.229-0.97,0.419-1.277,0.553        c-0.268,0.106-0.42,0.166-0.42,0.166L345.652,371.717z"
   fill="none" />
					</g>
					<path
   id="path857"
   d="M351.37,359.106l1.033,1.088c0,0,0.134-0.108,0.31-0.3       c0.179-0.188,0.418-0.438,0.657-0.689c0.223-0.269,0.444-0.537,0.611-0.738c0.17-0.198,0.264-0.348,0.264-0.348l-1.21-0.887       c0,0-0.082,0.133-0.236,0.311c-0.149,0.181-0.349,0.423-0.548,0.664c-0.218,0.228-0.435,0.455-0.598,0.625       C351.495,359.007,351.37,359.106,351.37,359.106z"
   fill="#231F20"
   clip-rule="evenodd"
   fill-rule="evenodd" />
					<path
   id="path859"
   d="M347.722,361.818l0.77,1.288c0,0,0.579-0.347,1.144-0.721       c0.278-0.195,0.557-0.39,0.766-0.536c0.211-0.143,0.343-0.251,0.343-0.251l-0.905-1.196c0,0-0.122,0.101-0.32,0.235       c-0.195,0.137-0.456,0.319-0.717,0.501C348.27,361.49,347.722,361.819,347.722,361.818z"
   fill="#231F20"
   clip-rule="evenodd"
   fill-rule="evenodd" />
					<path
   id="path861"
   d="M343.619,363.869l0.601,1.375c0,0,0.606-0.265,1.212-0.529       c0.602-0.294,1.204-0.588,1.204-0.588l-0.68-1.337c0,0-0.576,0.282-1.152,0.563       C344.211,363.611,343.619,363.869,343.619,363.869z"
   fill="#231F20"
   clip-rule="evenodd"
   fill-rule="evenodd" />
				</g>
			</g>
			<g
   id="g863">
				<g
   id="g865">
					<g
   id="g867">
						<path
   id="path869"
   d="M360.443,360.589c0,0,0.182-0.314,0.498-0.865c0.161-0.269,0.325-0.637,0.519-1.045        c0.196-0.407,0.398-0.88,0.583-1.422c0.406-1.059,0.722-2.38,0.92-3.8c0.159-1.419,0.182-2.945-0.001-4.386        c-0.35-2.901-1.347-5.391-2.186-7.058c-0.429-0.826-0.807-1.495-1.086-1.934c-0.272-0.454-0.438-0.696-0.438-0.697        l-12.553,8.208c0.001,0,0.323,0.485,0.677,1.162c0.345,0.675,0.626,1.509,0.693,2.103c0.065,0.6-0.007,0.974-0.135,1.313        c-0.116,0.335-0.297,0.613-0.297,0.613L360.443,360.589z"
   fill="none" />
					</g>
					<path
   id="path871"
   d="M354.171,346.901l1.396-0.552       c-0.001,0-0.252-0.646-0.559-1.262c-0.309-0.614-0.648-1.208-0.648-1.208l-1.295,0.756c0,0,0.313,0.551,0.598,1.114       C353.944,346.315,354.171,346.901,354.171,346.901z"
   fill="#231F20"
   clip-rule="evenodd"
   fill-rule="evenodd" />
					<path
   id="path873"
   d="M355.06,351.256l1.5-0.001c0,0,0.005-0.712-0.082-1.415       c-0.09-0.701-0.247-1.385-0.247-1.385l-1.461,0.339c0,0,0.139,0.609,0.219,1.225       C355.065,350.637,355.06,351.256,355.06,351.256z"
   fill="#231F20"
   clip-rule="evenodd"
   fill-rule="evenodd" />
					<path
   id="path875"
   d="M354.073,355.519l1.349,0.657c0,0,0.324-0.632,0.543-1.314       c0.232-0.673,0.379-1.375,0.379-1.375l-1.47-0.298c0,0-0.128,0.605-0.329,1.188       C354.358,354.967,354.073,355.519,354.073,355.519z"
   fill="#231F20"
   clip-rule="evenodd"
   fill-rule="evenodd" />
				</g>
			</g>
			<g
   id="g877">
				<g
   id="g879">
					<g
   id="g881">
						<path
   id="path883"
   d="M359.252,339.381c0,0-0.639-1.01-1.7-2.344c-1.059-1.34-2.559-2.955-4.148-4.384        c-3.161-2.893-6.706-5.013-6.706-5.013l-7.882,12.76c0,0,0.62,0.37,1.5,0.982c0.883,0.607,2.013,1.47,3.025,2.391        c1.02,0.918,1.911,1.886,2.482,2.612c0.576,0.728,0.876,1.204,0.876,1.204L359.252,339.381z"
   fill="none" />
					</g>
					<path
   id="path885"
   d="M345.448,336.493l0.899-1.2c0,0-0.53-0.406-1.081-0.783       c-0.541-0.39-1.104-0.747-1.104-0.747l-0.82,1.256c0,0,0.544,0.344,1.065,0.72       C344.938,336.103,345.448,336.493,345.448,336.493z"
   fill="#231F20"
   clip-rule="evenodd"
   fill-rule="evenodd" />
					<path
   id="path887"
   d="M348.947,339.48l1.049-1.072c0,0-0.475-0.475-0.977-0.918       c-0.489-0.458-1.009-0.88-1.009-0.879l-0.965,1.149c0.001,0,0.5,0.404,0.968,0.843       C348.493,339.027,348.947,339.48,348.947,339.48z"
   fill="#231F20"
   clip-rule="evenodd"
   fill-rule="evenodd" />
					<path
   id="path889"
   d="M351.943,342.921l1.215-0.879       c0.001,0-0.392-0.555-0.825-1.074c-0.419-0.531-0.873-1.028-0.873-1.028l-1.12,0.998c0,0,0.432,0.472,0.827,0.973       C351.575,342.4,351.944,342.921,351.943,342.921z"
   fill="#231F20"
   clip-rule="evenodd"
   fill-rule="evenodd" />
				</g>
			</g>
			<g
   id="g891">
				<g
   id="g893">
					<g
   id="g895">
						<path
   id="path897"
   d="M346.698,327.64c0,0-3.498-2.208-7.385-3.745c-1.935-0.786-3.958-1.429-5.53-1.825        c-1.567-0.404-2.669-0.582-2.669-0.583l-2.658,14.761c0,0,0.633,0.1,1.615,0.353c0.979,0.247,2.309,0.666,3.626,1.201        c1.319,0.529,2.616,1.168,3.563,1.691c0.949,0.52,1.557,0.907,1.557,0.907L346.698,327.64z"
   fill="none" />
					</g>
					<path
   id="path899"
   d="M333.169,330.232l0.434-1.436c0,0-0.638-0.203-1.29-0.362       c-0.647-0.176-1.306-0.312-1.306-0.312l-0.318,1.466c0,0,0.627,0.129,1.246,0.297       C332.558,330.037,333.169,330.232,333.169,330.232z"
   fill="#231F20"
   clip-rule="evenodd"
   fill-rule="evenodd" />
					<path
   id="path901"
   d="M337.485,331.839l0.606-1.372       c0.001,0-0.606-0.278-1.229-0.519c-0.617-0.254-1.247-0.479-1.247-0.479l-0.514,1.409c0,0,0.604,0.215,1.199,0.461       C336.901,331.571,337.485,331.839,337.485,331.839z"
   fill="#231F20"
   clip-rule="evenodd"
   fill-rule="evenodd" />
					<path
   id="path903"
   d="M341.577,333.931l0.756-1.296c0,0-0.572-0.343-1.162-0.653       c-0.582-0.324-1.181-0.617-1.181-0.617l-0.674,1.34c0,0,0.578,0.283,1.14,0.596       C341.026,333.599,341.577,333.931,341.577,333.931z"
   fill="#231F20"
   clip-rule="evenodd"
   fill-rule="evenodd" />
				</g>
			</g>
			<g
   id="g905">
				<g
   id="g907">
					<g
   id="g909">
						<path
   id="path911"
   d="M331.114,321.488c0,0-1.075-0.222-2.789-0.386c-1.713-0.158-4.08-0.26-6.648,0.14        c-1.271,0.175-2.601,0.523-3.837,0.934c-1.248,0.454-2.412,0.971-3.38,1.564c-0.488,0.274-0.921,0.569-1.299,0.842        c-0.382,0.264-0.704,0.51-0.96,0.733c-0.511,0.439-0.803,0.69-0.803,0.69l10.205,10.99c0.014,0.007,0.142-0.137,0.465-0.33        c0.312-0.195,0.927-0.459,1.858-0.595c0.904-0.154,2.074-0.124,2.976-0.038c0.907,0.083,1.554,0.217,1.554,0.216        L331.114,321.488z"
   fill="none" />
					</g>
					<path
   id="path913"
   d="M319.761,330.035l-0.585-1.381c0,0-0.652,0.275-1.267,0.632       c-0.309,0.176-0.615,0.357-0.828,0.521c-0.219,0.154-0.364,0.257-0.364,0.257l0.9,1.199c0,0,0.126-0.089,0.315-0.222       c0.184-0.142,0.45-0.298,0.72-0.452C319.187,330.279,319.761,330.035,319.761,330.035z"
   fill="#231F20"
   clip-rule="evenodd"
   fill-rule="evenodd" />
					<path
   id="path915"
   d="M324.128,329.037l-0.109-1.496c0,0-0.686,0.052-1.369,0.158       c-0.685,0.095-1.361,0.267-1.361,0.267l0.354,1.458c0,0,0.607-0.156,1.232-0.242       C323.497,329.085,324.128,329.036,324.128,329.037z"
   fill="#231F20"
   clip-rule="evenodd"
   fill-rule="evenodd" />
					<path
   id="path917"
   d="M328.66,329.225l0.209-1.485c0,0-0.668-0.101-1.344-0.155       c-0.674-0.066-1.355-0.085-1.355-0.085l-0.046,1.5c0,0,0.636,0.018,1.27,0.08C328.029,329.13,328.66,329.225,328.66,329.225z"
   fill="#231F20"
   clip-rule="evenodd"
   fill-rule="evenodd" />
				</g>
			</g>
		</g>
	</g>
</g><path
     id="path919"
     d="M435.5,353.5c6,1,8.5,5,17,7c-4,4-8,8-12,12"
     stroke-miterlimit="10"
     stroke-width="4"
     stroke="#000000"
     fill="none" /></g>
</svg>