<?xml version="1.0" encoding="UTF-8" standalone="no"?>
<!-- Generator: Adobe Illustrator 16.0.0, SVG Export Plug-In . SVG Version: 6.00 Build 0)  -->

<svg
   xmlns:dc="http://purl.org/dc/elements/1.1/"
   xmlns:cc="http://creativecommons.org/ns#"
   xmlns:rdf="http://www.w3.org/1999/02/22-rdf-syntax-ns#"
   xmlns:svg="http://www.w3.org/2000/svg"
   xmlns="http://www.w3.org/2000/svg"
   xmlns:sodipodi="http://sodipodi.sourceforge.net/DTD/sodipodi-0.dtd"
   xmlns:inkscape="http://www.inkscape.org/namespaces/inkscape"
   version="1.0"
   id="Layer_1"
   x="0px"
   y="0px"
   viewBox="0 0 595.25 830.13139"
   enable-background="new 0 0 437 54"
   xml:space="preserve"
   inkscape:version="0.48.4 r9939"
   width="100%"
   height="100%"
   sodipodi:docname="2006 Qn01.svg"><metadata
   id="metadata3203"><rdf:RDF><cc:Work
       rdf:about=""><dc:format>image/svg+xml</dc:format><dc:type
         rdf:resource="http://purl.org/dc/dcmitype/StillImage" /><dc:title></dc:title></cc:Work></rdf:RDF></metadata><defs
   id="defs3201" /><sodipodi:namedview
   pagecolor="#ffffff"
   bordercolor="#666666"
   borderopacity="1"
   objecttolerance="10"
   gridtolerance="10"
   guidetolerance="10"
   inkscape:pageopacity="0"
   inkscape:pageshadow="2"
   inkscape:window-width="1280"
   inkscape:window-height="716"
   id="namedview3199"
   showgrid="false"
   inkscape:zoom="0.6294383"
   inkscape:cx="203.44097"
   inkscape:cy="415.46357"
   inkscape:window-x="-8"
   inkscape:window-y="-8"
   inkscape:window-maximized="1"
   inkscape:current-layer="Layer_1"
   showborder="false"
   inkscape:showpageshadow="false"
   fit-margin-top="0"
   fit-margin-left="0"
   fit-margin-right="0"
   fit-margin-bottom="0" />



<g
   id="g7628"
   transform="translate(-0.03125,-5.8795621)"><g
     transform="translate(68.39575,373.46775)"
     id="Intel_Skoool_Logo">
	<g
   id="g3097">
		<g
   id="g3099">
			<g
   id="g3101">
				<g
   id="g3103">
					<path
   d="M 42.123,64.159 C 28.935,65.383 15.178,63.47 13.253,53.166 12.311,48.057 14.626,42.682 17.703,39.335 v -1.792 c -5.541,4.837 -8.545,10.992 -6.812,18.252 2.21,9.29 14.009,14.575 32.023,12.815 7.14,-0.689 16.461,-2.989 22.957,-6.543 v -5.049 c -5.898,3.493 -15.624,6.395 -23.748,7.141 z M 76.881,37.421 C 73.758,22.125 44.094,21.171 24.959,32.822 v 1.283 c 19.106,-9.828 46.2,-9.768 48.666,4.303 0.838,4.657 -1.793,9.527 -6.469,12.306 v 3.646 c 5.633,-2.063 11.41,-8.754 9.725,-16.939 z"
   inkscape:connector-curvature="0"
   id="path3105"
   style="fill:#ffffff" />
					<path
   d="m 64.799,35.211 h -3.468 v 15.384 c 0,1.822 0.882,3.377 3.468,3.645 V 35.211 z"
   inkscape:connector-curvature="0"
   id="path3107"
   style="fill:#ffffff" />
					<path
   d="m 23.601,40.827 h -3.465 v 10.067 c 0,1.793 0.883,3.377 3.465,3.614 V 40.827 z"
   inkscape:connector-curvature="0"
   id="path3109"
   style="fill:#ffffff" />
					<rect
   height="3.286"
   width="3.4519999"
   y="35.658001"
   x="20.136"
   id="rect3111"
   style="fill:#ffffff" />
					<path
   d="m 44.318,54.359 c -2.792,0 -3.973,-1.942 -3.973,-3.854 V 37.122 h 3.42 v 3.705 h 2.585 v 2.779 h -2.585 v 6.691 c 0,0.775 0.358,1.192 1.18,1.192 h 1.405 v 2.869 h -2.032"
   inkscape:connector-curvature="0"
   id="path3113"
   style="fill:#ffffff" />
					<path
   d="m 50.637,48.654 c 0,1.763 1.104,3.049 3.032,3.049 1.522,0 2.272,-0.421 3.15,-1.286 l 2.123,2.03 c -1.359,1.314 -2.78,2.151 -5.305,2.151 -3.271,0 -6.422,-1.792 -6.422,-7.02 0,-4.452 2.764,-6.991 6.365,-6.991 3.66,0 5.766,2.956 5.766,6.841 v 1.226 h -8.709 m 2.776,-5.229 c -1.163,0 -2.074,0.6 -2.448,1.435 -0.223,0.479 -0.312,0.865 -0.327,1.463 h 5.287 C 55.85,44.859 55.191,43.425 53.413,43.425 z"
   inkscape:connector-curvature="0"
   id="path3115"
   style="fill:#ffffff" />
					<path
   d="m 32.923,43.606 c 1.001,0 1.416,0.476 1.416,1.284 v 9.499 h 3.437 v -9.53 c 0,-1.911 -1.029,-4.032 -4.047,-4.032 H 26.648 V 54.39 h 3.436 V 43.606 h 2.839 z"
   inkscape:connector-curvature="0"
   id="path3117"
   style="fill:#ffffff" />
				</g>
			</g>
			<g
   id="g3119">
				<path
   d="m 68.829,39.244 c -1.119,0 -2.015,-0.897 -2.015,-2.033 0,-1.104 0.896,-2 2.015,-2 1.122,0 2.031,0.896 2.031,2 0,1.136 -0.91,2.033 -2.031,2.033 z m 0,-3.705 c -0.927,0 -1.673,0.745 -1.673,1.671 0,0.959 0.746,1.705 1.673,1.705 0.927,0 1.703,-0.745 1.703,-1.705 0,-0.924 -0.777,-1.671 -1.703,-1.671 z m 0.897,2.897 h -0.373 c -0.044,0 -0.059,0 -0.075,-0.061 l -0.522,-0.864 c -0.015,0 -0.061,-0.029 -0.072,-0.029 0,0 -0.077,0 -0.149,0 -0.031,0 -0.063,0 -0.076,0 v 0.865 c 0,0.028 -0.028,0.088 -0.089,0.088 h -0.344 c -0.045,0 -0.09,-0.061 -0.09,-0.088 v -2.182 c 0,-0.148 0.045,-0.18 0.165,-0.208 0.118,-0.029 0.434,-0.029 0.611,-0.029 0.643,0 1.016,0.178 1.016,0.775 v 0.031 c 0,0.388 -0.193,0.567 -0.461,0.656 l 0.536,0.926 c 0,0 0.015,0.03 0.015,0.059 -0.003,0.033 -0.018,0.061 -0.092,0.061 z m -0.493,-1.733 c 0,-0.238 -0.149,-0.327 -0.479,-0.327 -0.044,0 -0.15,0 -0.222,0 -0.045,0 -0.076,0 -0.104,0 v 0.715 c 0.059,0 0.281,0 0.326,0 0.33,0 0.479,-0.119 0.479,-0.356 v -0.032 l 0,0 z"
   inkscape:connector-curvature="0"
   id="path3121"
   style="fill:#ffffff" />
			</g>
		</g>
		<path
   d="m 155.971,36.905 v 2.174 h -0.425 v -2.174 h -0.78 v -0.337 h 1.99 v 0.337 h -0.785 l 0,0 z m 3.637,2.174 V 36.99 h -0.018 l -0.82,2.089 h -0.261 l -0.825,-2.089 h -0.012 v 2.089 h -0.41 v -2.511 h 0.64 l 0.748,1.908 0.738,-1.908 h 0.633 v 2.511 h -0.413 z"
   inkscape:connector-curvature="0"
   id="path3123"
   style="fill:#ffffff" />
		<g
   id="g3125">
			<path
   d="m 89.645,51.98 c 0.734,0 1.221,-0.104 1.466,-0.285 0.244,-0.192 0.364,-0.445 0.364,-0.772 0,-0.277 -0.078,-0.506 -0.236,-0.688 -0.156,-0.188 -0.433,-0.399 -0.831,-0.641 l -3.282,-2.021 c -0.623,-0.382 -1.108,-0.855 -1.482,-1.43 -0.363,-0.571 -0.542,-1.195 -0.542,-1.875 0,-2.401 1.524,-3.604 4.567,-3.604 1.578,0 2.979,0.263 4.201,0.786 0.179,0.071 0.31,0.15 0.387,0.238 0.076,0.092 0.117,0.219 0.117,0.384 v 1.467 c 0,0.353 -0.169,0.479 -0.504,0.388 -1.402,-0.448 -2.689,-0.669 -3.86,-0.669 -0.612,0 -1.053,0.065 -1.328,0.198 -0.275,0.134 -0.409,0.364 -0.409,0.692 0,0.183 0.037,0.325 0.107,0.442 0.077,0.113 0.181,0.215 0.302,0.31 0.124,0.095 0.31,0.21 0.555,0.353 l 3.146,1.924 c 0.91,0.555 1.526,1.111 1.84,1.672 0.313,0.556 0.467,1.162 0.467,1.813 0,0.756 -0.172,1.434 -0.525,2.033 -0.352,0.586 -0.888,1.055 -1.605,1.383 -0.713,0.327 -1.569,0.488 -2.572,0.488 -1.59,0 -3.001,-0.26 -4.231,-0.78 -0.208,-0.107 -0.342,-0.201 -0.405,-0.292 -0.076,-0.086 -0.11,-0.205 -0.11,-0.335 v -1.464 c 0,-0.352 0.174,-0.484 0.516,-0.386 1.408,0.442 2.705,0.671 3.887,0.671 z"
   inkscape:connector-curvature="0"
   id="path3127"
   style="fill:#ffffff" />
			<path
   d="m 107.876,54.09 c 0,0.078 -0.033,0.151 -0.095,0.207 -0.06,0.049 -0.139,0.076 -0.233,0.076 h -2.932 c -0.117,0 -0.244,-0.046 -0.375,-0.149 -0.135,-0.096 -0.239,-0.215 -0.318,-0.326 l -3.777,-5.479 v 5.454 c 0,0.138 -0.046,0.268 -0.137,0.358 -0.09,0.102 -0.205,0.144 -0.348,0.144 h -2.203 c -0.14,0 -0.256,-0.048 -0.346,-0.154 -0.09,-0.1 -0.132,-0.226 -0.132,-0.347 V 36.568 c 0,-0.114 0.045,-0.226 0.137,-0.328 0.095,-0.101 0.211,-0.151 0.342,-0.151 h 2.203 c 0.135,0 0.246,0.048 0.343,0.14 0.095,0.095 0.142,0.209 0.142,0.341 v 10.019 l 4.104,-5.464 c 0.156,-0.195 0.343,-0.295 0.554,-0.295 h 2.697 c 0.234,0 0.349,0.087 0.349,0.259 0,0.079 -0.029,0.16 -0.091,0.246 l -4.822,5.934 4.867,6.632 c 0.045,0.069 0.071,0.133 0.071,0.189 z"
   inkscape:connector-curvature="0"
   id="path3129"
   style="fill:#ffffff" />
			<path
   d="m 120.268,48.583 c 0,1.141 -0.224,2.172 -0.664,3.088 -0.44,0.909 -1.092,1.618 -1.952,2.136 -0.86,0.506 -1.905,0.758 -3.133,0.758 -1.211,0 -2.253,-0.252 -3.122,-0.758 -0.867,-0.518 -1.521,-1.227 -1.958,-2.136 -0.438,-0.917 -0.657,-1.948 -0.657,-3.088 v -1.937 c 0,-1.143 0.219,-2.172 0.657,-3.085 0.437,-0.915 1.091,-1.627 1.958,-2.135 0.869,-0.509 1.911,-0.764 3.122,-0.764 1.228,0 2.272,0.255 3.133,0.764 0.861,0.508 1.512,1.22 1.952,2.135 0.44,0.912 0.664,1.942 0.664,3.085 v 1.937 z m -3.17,0 v -1.937 c 0,-1 -0.219,-1.794 -0.663,-2.374 -0.441,-0.583 -1.081,-0.877 -1.917,-0.877 -0.83,0 -1.468,0.293 -1.905,0.877 -0.444,0.58 -0.664,1.374 -0.664,2.374 v 1.937 c 0,1.004 0.222,1.794 0.669,2.378 0.441,0.578 1.077,0.872 1.9,0.872 0.829,0 1.464,-0.294 1.911,-0.872 0.448,-0.583 0.669,-1.374 0.669,-2.378 l 0,0 z"
   inkscape:connector-curvature="0"
   id="path3131"
   style="fill:#ffffff" />
			<path
   d="m 133.726,48.583 c 0,1.141 -0.223,2.172 -0.666,3.088 -0.44,0.909 -1.094,1.618 -1.95,2.136 -0.863,0.506 -1.905,0.758 -3.137,0.758 -1.21,0 -2.251,-0.252 -3.119,-0.758 -0.868,-0.518 -1.521,-1.227 -1.958,-2.136 -0.438,-0.917 -0.658,-1.948 -0.658,-3.088 v -1.937 c 0,-1.143 0.219,-2.172 0.658,-3.085 0.437,-0.915 1.09,-1.627 1.958,-2.135 0.868,-0.509 1.909,-0.764 3.119,-0.764 1.231,0 2.272,0.255 3.137,0.764 0.857,0.508 1.51,1.22 1.95,2.135 0.443,0.912 0.666,1.942 0.666,3.085 v 1.937 z m -3.169,0 v -1.937 c 0,-1 -0.221,-1.794 -0.664,-2.374 -0.443,-0.583 -1.082,-0.877 -1.92,-0.877 -0.826,0 -1.462,0.293 -1.905,0.877 -0.442,0.58 -0.663,1.374 -0.663,2.374 v 1.937 c 0,1.004 0.226,1.794 0.671,2.378 0.445,0.578 1.079,0.872 1.898,0.872 0.832,0 1.469,-0.294 1.915,-0.872 0.443,-0.583 0.668,-1.374 0.668,-2.378 z"
   inkscape:connector-curvature="0"
   id="path3133"
   style="fill:#ffffff" />
			<path
   d="m 147.181,48.583 c 0,1.141 -0.221,2.172 -0.663,3.088 -0.439,0.909 -1.093,1.618 -1.952,2.136 -0.86,0.506 -1.905,0.758 -3.135,0.758 -1.209,0 -2.251,-0.252 -3.118,-0.758 -0.87,-0.518 -1.522,-1.227 -1.961,-2.136 -0.438,-0.917 -0.657,-1.948 -0.657,-3.088 v -1.937 c 0,-1.143 0.22,-2.172 0.657,-3.085 0.438,-0.915 1.091,-1.627 1.961,-2.135 0.867,-0.509 1.909,-0.764 3.118,-0.764 1.229,0 2.274,0.255 3.135,0.764 0.859,0.508 1.513,1.22 1.952,2.135 0.441,0.912 0.663,1.942 0.663,3.085 v 1.937 z m -3.167,0 v -1.937 c 0,-1 -0.219,-1.794 -0.661,-2.374 -0.443,-0.583 -1.082,-0.877 -1.922,-0.877 -0.827,0 -1.462,0.293 -1.905,0.877 -0.444,0.58 -0.665,1.374 -0.665,2.374 v 1.937 c 0,1.004 0.224,1.794 0.673,2.378 0.443,0.578 1.077,0.872 1.897,0.872 0.83,0 1.468,-0.294 1.913,-0.872 0.448,-0.583 0.67,-1.374 0.67,-2.378 l 0,0 z"
   inkscape:connector-curvature="0"
   id="path3135"
   style="fill:#ffffff" />
			<path
   d="m 152.778,53.872 c 0,0.129 -0.041,0.257 -0.128,0.353 -0.086,0.104 -0.195,0.149 -0.33,0.149 h -2.229 c -0.141,0 -0.253,-0.048 -0.346,-0.154 -0.089,-0.1 -0.135,-0.226 -0.135,-0.347 V 36.568 c 0,-0.114 0.047,-0.226 0.14,-0.328 0.097,-0.101 0.21,-0.151 0.342,-0.151 h 2.229 c 0.124,0 0.23,0.05 0.324,0.146 0.088,0.099 0.133,0.212 0.133,0.334 l 0,17.303 0,0 z"
   inkscape:connector-curvature="0"
   id="path3137"
   style="fill:#ffffff" />
		</g>
	</g>
	<g
   id="g3139">
		<g
   id="g3141">
			<path
   d="m 180.286,52.795 c 0,0.354 -0.176,0.529 -0.528,0.529 h -6.497 c -0.354,0 -0.532,-0.175 -0.532,-0.529 V 38.962 c 0,-0.354 0.178,-0.529 0.532,-0.529 h 1.282 c 0.353,0 0.529,0.176 0.529,0.529 v 12.242 h 4.686 c 0.353,0 0.528,0.177 0.528,0.529 v 1.062 z"
   inkscape:connector-curvature="0"
   id="path3143"
   style="fill:#ffffff" />
			<path
   d="m 189.458,48.02 c 0,0.354 -0.17,0.531 -0.507,0.531 h -5.348 c 0.042,0.989 0.241,1.701 0.596,2.145 0.396,0.518 1.052,0.773 1.966,0.773 0.558,0 1.26,-0.134 2.099,-0.399 0.059,-0.014 0.118,-0.021 0.177,-0.021 0.191,0 0.33,0.117 0.422,0.354 l 0.308,0.885 c 0.105,0.279 0,0.486 -0.308,0.62 -0.84,0.367 -1.822,0.551 -2.94,0.551 -1.504,0 -2.662,-0.468 -3.472,-1.403 -0.81,-0.935 -1.212,-2.31 -1.212,-4.12 0,-1.638 0.374,-2.951 1.126,-3.946 0.753,-0.995 1.759,-1.491 3.025,-1.491 2.713,-0.003 4.068,1.84 4.068,5.521 z m -2.298,-1.081 c -0.061,-1.769 -0.635,-2.653 -1.724,-2.653 -1.062,0 -1.673,0.885 -1.835,2.653 h 3.559 z"
   inkscape:connector-curvature="0"
   id="path3145"
   style="fill:#ffffff" />
			<path
   d="m 199.205,52.815 c 0.071,0.341 -0.078,0.508 -0.444,0.508 h -1.15 c -0.309,0 -0.491,-0.167 -0.55,-0.508 l -0.134,-0.817 c -0.634,0.972 -1.636,1.459 -3.007,1.459 -0.912,0 -1.62,-0.287 -2.119,-0.862 -0.502,-0.574 -0.753,-1.376 -0.753,-2.408 0,-2.121 1.148,-3.262 3.447,-3.427 l 2.209,-0.153 c 0,-0.31 -0.015,-0.472 -0.044,-0.487 -0.029,-0.604 -0.161,-1.028 -0.396,-1.28 -0.233,-0.25 -0.684,-0.376 -1.343,-0.376 -0.571,0 -1.284,0.126 -2.132,0.376 -0.353,0.104 -0.563,-0.009 -0.639,-0.331 l -0.221,-0.975 c -0.071,-0.31 0.037,-0.507 0.333,-0.596 1.001,-0.294 1.93,-0.441 2.783,-0.441 1.635,0 2.749,0.463 3.337,1.392 0.386,0.604 0.575,1.533 0.575,2.785 v 3.715 c 0,0.808 0.036,1.397 0.111,1.766 l 0.137,0.66 z m -2.5,-3.07 v -1.547 l -1.259,0.046 c -1.4,0.043 -2.1,0.691 -2.1,1.943 0,0.942 0.41,1.414 1.237,1.414 0.588,0 1.098,-0.214 1.526,-0.64 0.399,-0.385 0.596,-0.788 0.596,-1.216 z"
   inkscape:connector-curvature="0"
   id="path3147"
   style="fill:#ffffff" />
			<path
   d="m 207.863,43.402 -0.331,1.238 c -0.087,0.337 -0.306,0.477 -0.658,0.419 -0.131,-0.016 -0.347,-0.083 -0.647,-0.199 -0.302,-0.117 -0.53,-0.178 -0.691,-0.178 -0.395,0 -0.717,0.229 -0.966,0.686 -0.294,0.518 -0.439,1.269 -0.439,2.256 v 5.191 c 0,0.341 -0.178,0.508 -0.537,0.508 h -1.226 c -0.357,0 -0.538,-0.167 -0.538,-0.508 v -9.679 c 0,-0.337 0.181,-0.507 0.531,-0.507 h 0.817 c 0.325,0 0.526,0.147 0.597,0.44 l 0.246,0.951 c 0.647,-1.016 1.471,-1.525 2.474,-1.525 1.075,0.001 1.531,0.305 1.368,0.907 z"
   inkscape:connector-curvature="0"
   id="path3149"
   style="fill:#ffffff" />
			<path
   d="m 217.123,52.815 c 0,0.341 -0.181,0.508 -0.538,0.508 h -1.247 c -0.343,0 -0.516,-0.167 -0.516,-0.508 v -7.093 c 0,-0.867 -0.379,-1.304 -1.132,-1.304 -0.598,0 -1.098,0.235 -1.504,0.708 -0.407,0.471 -0.611,1.06 -0.611,1.768 v 5.922 c 0,0.341 -0.172,0.508 -0.516,0.508 h -1.246 c -0.356,0 -0.536,-0.167 -0.536,-0.508 v -9.679 c 0,-0.337 0.174,-0.507 0.528,-0.507 h 0.863 c 0.308,0 0.491,0.141 0.553,0.42 l 0.198,0.907 c 0.87,-0.974 1.861,-1.46 2.981,-1.46 0.826,0 1.484,0.254 1.978,0.764 0.493,0.507 0.741,1.174 0.741,1.999 v 7.555 h 0.004 z"
   inkscape:connector-curvature="0"
   id="path3151"
   style="fill:#ffffff" />
			<path
   d="m 222.802,39.004 c 0,0.413 -0.144,0.764 -0.42,1.051 -0.279,0.287 -0.628,0.432 -1.037,0.432 -0.415,0 -0.756,-0.144 -1.029,-0.432 -0.272,-0.287 -0.408,-0.638 -0.408,-1.051 0,-0.411 0.135,-0.762 0.408,-1.046 0.273,-0.289 0.614,-0.433 1.029,-0.433 0.409,0 0.758,0.144 1.037,0.433 0.276,0.284 0.42,0.635 0.42,1.046 z m -0.264,13.811 c 0,0.341 -0.18,0.508 -0.535,0.508 h -1.229 c -0.358,0 -0.536,-0.167 -0.536,-0.508 v -9.679 c 0,-0.337 0.178,-0.507 0.536,-0.507 h 1.229 c 0.355,0 0.535,0.17 0.535,0.507 v 9.679 z"
   inkscape:connector-curvature="0"
   id="path3153"
   style="fill:#ffffff" />
			<path
   d="m 233.477,52.815 c 0,0.341 -0.181,0.508 -0.537,0.508 h -1.251 c -0.344,0 -0.513,-0.167 -0.513,-0.508 v -7.093 c 0,-0.867 -0.378,-1.304 -1.134,-1.304 -0.596,0 -1.1,0.235 -1.507,0.708 -0.405,0.471 -0.607,1.06 -0.607,1.768 v 5.922 c 0,0.341 -0.172,0.508 -0.514,0.508 h -1.249 c -0.356,0 -0.536,-0.167 -0.536,-0.508 v -9.679 c 0,-0.337 0.179,-0.507 0.532,-0.507 h 0.858 c 0.313,0 0.497,0.141 0.554,0.42 l 0.198,0.907 c 0.87,-0.974 1.863,-1.46 2.985,-1.46 0.822,0 1.481,0.254 1.978,0.764 0.492,0.507 0.74,1.174 0.74,1.999 v 7.555 h 0.003 z"
   inkscape:connector-curvature="0"
   id="path3155"
   style="fill:#ffffff" />
			<path
   d="m 244.568,54.274 c 0,1.207 -0.495,2.129 -1.482,2.762 -0.81,0.517 -1.812,0.774 -3.004,0.774 -1.267,0 -2.283,-0.22 -3.048,-0.663 -0.943,-0.546 -1.423,-1.379 -1.438,-2.498 0,-0.148 0.054,-0.271 0.154,-0.375 0.102,-0.103 0.229,-0.154 0.376,-0.154 l 1.237,0.046 c 0.28,0.014 0.45,0.176 0.508,0.484 0.146,0.871 0.906,1.305 2.275,1.305 0.693,0 1.248,-0.131 1.668,-0.397 0.421,-0.266 0.63,-0.62 0.63,-1.061 0,-0.854 -0.523,-1.281 -1.569,-1.281 h -2.188 c -1.664,0 -2.497,-0.603 -2.497,-1.813 0,-0.59 0.317,-1.185 0.95,-1.789 -1.03,-0.725 -1.547,-1.782 -1.547,-3.183 0,-1.223 0.369,-2.18 1.106,-2.872 0.736,-0.692 1.723,-1.04 2.958,-1.04 0.164,0 0.391,0.021 0.687,0.056 0.294,0.038 0.514,0.057 0.664,0.057 h 2.562 c 0.367,0 0.553,0.176 0.553,0.53 v 0.618 c 0,0.324 -0.142,0.5 -0.418,0.528 l -0.688,0.09 c 0.486,0.72 0.731,1.398 0.731,2.032 0,1.209 -0.369,2.161 -1.097,2.861 -0.728,0.703 -1.72,1.052 -2.972,1.052 -0.443,0 -0.799,-0.037 -1.08,-0.109 -0.207,0.202 -0.311,0.403 -0.311,0.595 0,0.368 0.33,0.553 0.992,0.553 h 1.9 c 1.047,0 1.873,0.249 2.477,0.749 0.608,0.502 0.911,1.215 0.911,2.143 z m -3.073,-7.887 c 0,-1.444 -0.604,-2.168 -1.812,-2.168 -0.573,0 -0.994,0.126 -1.259,0.377 -0.355,0.339 -0.531,0.937 -0.531,1.791 0,0.882 0.176,1.493 0.531,1.834 0.265,0.265 0.686,0.398 1.259,0.398 1.208,0 1.812,-0.745 1.812,-2.232 z"
   inkscape:connector-curvature="0"
   id="path3157"
   style="fill:#ffffff" />
			<path
   d="m 258.09,52.815 c 0.073,0.341 -0.074,0.508 -0.444,0.508 H 256.5 c -0.309,0 -0.493,-0.167 -0.553,-0.508 l -0.134,-0.817 c -0.631,0.972 -1.632,1.459 -3.004,1.459 -0.913,0 -1.621,-0.287 -2.119,-0.862 -0.502,-0.574 -0.754,-1.376 -0.754,-2.408 0,-2.121 1.148,-3.262 3.448,-3.427 l 2.21,-0.153 c 0,-0.31 -0.015,-0.472 -0.046,-0.487 -0.028,-0.604 -0.158,-1.028 -0.396,-1.28 -0.236,-0.25 -0.681,-0.376 -1.34,-0.376 -0.572,0 -1.283,0.126 -2.137,0.376 -0.351,0.104 -0.564,-0.009 -0.638,-0.331 l -0.218,-0.975 c -0.075,-0.31 0.036,-0.507 0.33,-0.596 1.003,-0.294 1.931,-0.441 2.785,-0.441 1.637,0 2.747,0.463 3.337,1.392 0.38,0.604 0.574,1.533 0.574,2.785 v 3.715 c 0,0.808 0.038,1.397 0.109,1.766 l 0.136,0.66 z m -2.496,-3.07 v -1.547 l -1.259,0.046 c -1.401,0.043 -2.102,0.691 -2.102,1.943 0,0.942 0.412,1.414 1.237,1.414 0.589,0 1.099,-0.214 1.526,-0.64 0.399,-0.385 0.598,-0.788 0.598,-1.216 l 0,0 z"
   inkscape:connector-curvature="0"
   id="path3159"
   style="fill:#ffffff" />
			<path
   d="m 268.563,52.815 c 0,0.341 -0.178,0.508 -0.535,0.508 h -1.249 c -0.34,0 -0.515,-0.167 -0.515,-0.508 v -7.093 c 0,-0.867 -0.377,-1.304 -1.133,-1.304 -0.596,0 -1.099,0.235 -1.504,0.708 -0.408,0.471 -0.611,1.06 -0.611,1.768 v 5.922 c 0,0.341 -0.171,0.508 -0.513,0.508 h -1.249 c -0.355,0 -0.536,-0.167 -0.536,-0.508 v -9.679 c 0,-0.337 0.177,-0.507 0.532,-0.507 h 0.86 c 0.31,0 0.493,0.141 0.552,0.42 l 0.198,0.907 c 0.871,-0.974 1.864,-1.46 2.984,-1.46 0.826,0 1.484,0.254 1.978,0.764 0.494,0.507 0.739,1.174 0.739,1.999 l 0.002,7.555 0,0 z"
   inkscape:connector-curvature="0"
   id="path3161"
   style="fill:#ffffff" />
			<path
   d="m 279.104,52.815 c 0,0.341 -0.176,0.508 -0.531,0.508 h -0.772 c -0.369,0 -0.589,-0.167 -0.664,-0.508 l -0.177,-0.884 c -0.544,1.016 -1.393,1.525 -2.539,1.525 -2.373,0 -3.561,-1.84 -3.561,-5.523 0,-1.976 0.399,-3.426 1.193,-4.354 0.621,-0.723 1.399,-1.083 2.343,-1.083 1.059,0 1.879,0.451 2.452,1.348 v -5.679 c 0,-0.339 0.17,-0.508 0.508,-0.508 h 1.216 c 0.355,0 0.531,0.169 0.531,0.508 l 10e-4,14.65 0,0 z m -2.187,-4.795 c 0,-2.399 -0.604,-3.601 -1.812,-3.601 -0.604,0 -1.056,0.251 -1.35,0.752 -0.325,0.559 -0.484,1.503 -0.484,2.829 0,1.266 0.147,2.162 0.439,2.686 0.297,0.52 0.761,0.784 1.395,0.784 1.208,0 1.812,-1.151 1.812,-3.45 z"
   inkscape:connector-curvature="0"
   id="path3163"
   style="fill:#ffffff" />
			<path
   d="m 294.882,40.045 c 0,0.337 -0.17,0.508 -0.508,0.508 h -3.138 v 12.242 c 0,0.354 -0.177,0.529 -0.532,0.529 h -1.28 c -0.354,0 -0.53,-0.175 -0.53,-0.529 V 40.553 h -3.139 c -0.367,0 -0.551,-0.171 -0.551,-0.508 v -1.083 c 0,-0.354 0.184,-0.529 0.551,-0.529 h 8.619 c 0.338,0 0.508,0.176 0.508,0.529 v 1.083 l 0,0 z"
   inkscape:connector-curvature="0"
   id="path3165"
   style="fill:#ffffff" />
			<path
   d="m 303.896,48.02 c 0,0.354 -0.17,0.531 -0.508,0.531 h -5.348 c 0.046,0.989 0.244,1.701 0.597,2.145 0.399,0.518 1.053,0.773 1.967,0.773 0.562,0 1.26,-0.134 2.1,-0.399 0.059,-0.014 0.118,-0.021 0.177,-0.021 0.189,0 0.331,0.117 0.419,0.354 l 0.31,0.885 c 0.103,0.279 0,0.486 -0.31,0.62 -0.84,0.367 -1.819,0.551 -2.94,0.551 -1.5,0 -2.657,-0.468 -3.468,-1.403 -0.81,-0.935 -1.215,-2.31 -1.215,-4.12 0,-1.638 0.375,-2.951 1.125,-3.946 0.753,-0.994 1.763,-1.491 3.03,-1.491 2.708,-0.003 4.064,1.84 4.064,5.521 l 0,0 z M 301.6,46.939 c -0.06,-1.769 -0.635,-2.653 -1.726,-2.653 -1.059,0 -1.673,0.885 -1.834,2.653 h 3.56 z"
   inkscape:connector-curvature="0"
   id="path3167"
   style="fill:#ffffff" />
			<path
   d="m 313.643,52.815 c 0.07,0.341 -0.076,0.508 -0.443,0.508 h -1.148 c -0.311,0 -0.495,-0.167 -0.553,-0.508 l -0.133,-0.817 c -0.632,0.972 -1.635,1.459 -3.005,1.459 -0.915,0 -1.62,-0.287 -2.119,-0.862 -0.504,-0.574 -0.753,-1.376 -0.753,-2.408 0,-2.121 1.146,-3.262 3.444,-3.427 l 2.212,-0.153 c 0,-0.31 -0.016,-0.472 -0.047,-0.487 -0.026,-0.604 -0.158,-1.028 -0.395,-1.28 -0.234,-0.25 -0.683,-0.376 -1.342,-0.376 -0.57,0 -1.281,0.126 -2.134,0.376 -0.353,0.104 -0.564,-0.009 -0.637,-0.331 l -0.222,-0.975 c -0.072,-0.31 0.04,-0.507 0.334,-0.596 1,-0.294 1.927,-0.441 2.784,-0.441 1.635,0 2.746,0.463 3.336,1.392 0.383,0.604 0.573,1.533 0.573,2.785 v 3.715 c 0,0.808 0.038,1.397 0.111,1.766 l 0.137,0.66 0,0 z m -2.498,-3.07 v -1.547 l -1.261,0.046 c -1.4,0.043 -2.099,0.691 -2.099,1.943 0,0.942 0.411,1.414 1.239,1.414 0.587,0 1.097,-0.214 1.524,-0.64 0.396,-0.385 0.597,-0.788 0.597,-1.216 l 0,0 z"
   inkscape:connector-curvature="0"
   id="path3169"
   style="fill:#ffffff" />
			<path
   d="m 322.546,52.529 c 0.059,0.311 -0.059,0.516 -0.354,0.62 -0.604,0.203 -1.325,0.309 -2.165,0.309 -1.401,0 -2.49,-0.464 -3.271,-1.394 -0.825,-0.972 -1.235,-2.369 -1.235,-4.197 0,-1.563 0.412,-2.848 1.248,-3.854 0.833,-1.011 1.946,-1.516 3.347,-1.516 0.456,0 0.928,0.067 1.412,0.199 0.708,0.178 1.005,0.441 0.886,0.796 l -0.311,0.928 c -0.073,0.235 -0.205,0.355 -0.399,0.355 -0.147,0 -0.385,-0.054 -0.716,-0.154 -0.331,-0.107 -0.602,-0.155 -0.807,-0.155 -0.708,0 -1.265,0.294 -1.668,0.887 -0.406,0.589 -0.608,1.434 -0.608,2.524 0,2.365 0.801,3.549 2.41,3.549 0.468,0 0.956,-0.074 1.456,-0.221 0.341,-0.089 0.539,0.029 0.598,0.353 l 0.177,0.971 0,0 z"
   inkscape:connector-curvature="0"
   id="path3171"
   style="fill:#ffffff" />
			<path
   d="m 332.468,52.815 c 0,0.341 -0.18,0.508 -0.531,0.508 h -1.215 c -0.341,0 -0.51,-0.167 -0.51,-0.508 v -7.093 c 0,-0.867 -0.397,-1.304 -1.191,-1.304 -0.605,0 -1.113,0.235 -1.527,0.708 -0.412,0.471 -0.617,1.06 -0.617,1.768 v 5.922 c 0,0.341 -0.18,0.508 -0.532,0.508 h -1.192 c -0.351,0 -0.531,-0.167 -0.531,-0.508 V 38.165 c 0,-0.339 0.181,-0.508 0.531,-0.508 h 1.192 c 0.353,0 0.532,0.169 0.532,0.508 v 5.679 c 0.81,-0.897 1.77,-1.348 2.873,-1.348 0.825,0 1.483,0.254 1.978,0.764 0.491,0.507 0.74,1.174 0.74,1.998 l 0,7.557 0,0 z"
   inkscape:connector-curvature="0"
   id="path3173"
   style="fill:#ffffff" />
			<path
   d="m 338.147,39.004 c 0,0.413 -0.141,0.764 -0.42,1.051 -0.28,0.287 -0.626,0.432 -1.039,0.432 -0.41,0 -0.755,-0.144 -1.026,-0.432 -0.271,-0.288 -0.408,-0.638 -0.408,-1.051 0,-0.411 0.136,-0.762 0.408,-1.046 0.272,-0.289 0.616,-0.433 1.026,-0.433 0.413,0 0.759,0.144 1.039,0.433 0.28,0.284 0.42,0.635 0.42,1.046 z m -0.265,13.811 c 0,0.341 -0.178,0.508 -0.535,0.508 h -1.229 c -0.356,0 -0.535,-0.167 -0.535,-0.508 v -9.679 c 0,-0.337 0.179,-0.507 0.535,-0.507 h 1.229 c 0.357,0 0.535,0.17 0.535,0.507 v 9.679 z"
   inkscape:connector-curvature="0"
   id="path3175"
   style="fill:#ffffff" />
			<path
   d="m 348.818,52.815 c 0,0.341 -0.176,0.508 -0.534,0.508 h -1.251 c -0.342,0 -0.513,-0.167 -0.513,-0.508 v -7.093 c 0,-0.867 -0.376,-1.304 -1.133,-1.304 -0.597,0 -1.1,0.235 -1.505,0.708 -0.407,0.471 -0.609,1.06 -0.609,1.768 v 5.922 c 0,0.341 -0.174,0.508 -0.513,0.508 h -1.251 c -0.355,0 -0.536,-0.167 -0.536,-0.508 v -9.679 c 0,-0.337 0.179,-0.507 0.529,-0.507 h 0.863 c 0.311,0 0.494,0.141 0.553,0.42 l 0.2,0.907 c 0.868,-0.974 1.862,-1.46 2.981,-1.46 0.824,0 1.484,0.254 1.975,0.764 0.497,0.507 0.742,1.174 0.742,1.999 l 0.002,7.555 0,0 z"
   inkscape:connector-curvature="0"
   id="path3177"
   style="fill:#ffffff" />
			<path
   d="m 359.914,54.274 c 0,1.207 -0.496,2.129 -1.482,2.762 -0.81,0.517 -1.812,0.774 -3.006,0.774 -1.269,0 -2.283,-0.22 -3.048,-0.663 -0.943,-0.546 -1.421,-1.379 -1.436,-2.498 0,-0.148 0.051,-0.271 0.153,-0.375 0.104,-0.103 0.228,-0.154 0.376,-0.154 l 1.236,0.046 c 0.28,0.014 0.448,0.176 0.506,0.484 0.149,0.871 0.907,1.305 2.277,1.305 0.691,0 1.248,-0.131 1.668,-0.397 0.42,-0.266 0.631,-0.62 0.631,-1.061 0,-0.854 -0.526,-1.281 -1.571,-1.281 h -2.186 c -1.666,0 -2.499,-0.603 -2.499,-1.813 0,-0.59 0.317,-1.185 0.952,-1.789 -1.032,-0.725 -1.546,-1.782 -1.546,-3.183 0,-1.223 0.366,-2.18 1.104,-2.872 0.738,-0.692 1.724,-1.04 2.961,-1.04 0.161,0 0.39,0.021 0.686,0.056 0.291,0.038 0.514,0.057 0.66,0.057 h 2.565 c 0.366,0 0.554,0.176 0.554,0.53 v 0.618 c 0,0.324 -0.143,0.5 -0.422,0.528 l -0.687,0.09 c 0.489,0.72 0.731,1.398 0.731,2.032 0,1.209 -0.364,2.161 -1.095,2.861 -0.729,0.703 -1.72,1.052 -2.972,1.052 -0.442,0 -0.803,-0.037 -1.082,-0.109 -0.208,0.202 -0.31,0.403 -0.31,0.595 0,0.368 0.331,0.553 0.993,0.553 h 1.9 c 1.047,0 1.873,0.249 2.477,0.749 0.608,0.502 0.912,1.215 0.912,2.143 l 0,0 z m -3.073,-7.887 c 0,-1.444 -0.604,-2.168 -1.813,-2.168 -0.576,0 -0.993,0.126 -1.259,0.377 -0.354,0.339 -0.529,0.937 -0.529,1.791 0,0.882 0.176,1.493 0.529,1.834 0.266,0.265 0.683,0.398 1.259,0.398 1.208,0 1.813,-0.745 1.813,-2.232 z"
   inkscape:connector-curvature="0"
   id="path3179"
   style="fill:#ffffff" />
			<path
   d="m 376.308,52.639 c 0.044,0.134 0.066,0.243 0.066,0.33 0,0.238 -0.149,0.354 -0.445,0.354 h -1.611 c -0.338,0 -0.559,-0.153 -0.662,-0.463 -0.235,-0.752 -0.472,-1.511 -0.708,-2.275 -0.279,-0.841 -0.545,-1.5 -0.796,-1.991 -0.65,-1.235 -1.48,-1.854 -2.497,-1.854 h -0.906 v 6.076 c 0,0.341 -0.177,0.508 -0.531,0.508 h -1.28 c -0.355,0 -0.53,-0.167 -0.53,-0.508 V 38.962 c 0,-0.354 0.175,-0.529 0.53,-0.529 h 3.891 c 1.663,0 2.878,0.441 3.645,1.324 0.576,0.664 0.863,1.479 0.863,2.452 0,0.929 -0.251,1.711 -0.753,2.345 -0.542,0.691 -1.317,1.118 -2.32,1.278 -0.044,0.019 -0.104,0.024 -0.178,0.024 1.002,0.206 1.792,0.915 2.365,2.12 0.428,0.9 1.046,2.455 1.857,4.663 l 0,0 z M 372.949,42.51 c 0,-0.579 -0.176,-1.055 -0.53,-1.424 -0.398,-0.414 -0.953,-0.624 -1.657,-0.624 h -2.011 v 4.377 h 1.767 c 0.753,0 1.344,-0.211 1.779,-0.635 0.433,-0.42 0.652,-0.986 0.652,-1.694 z"
   inkscape:connector-curvature="0"
   id="path3181"
   style="fill:#ffffff" />
			<path
   d="m 385.854,48.02 c 0,0.354 -0.169,0.531 -0.51,0.531 h -5.347 c 0.045,0.989 0.242,1.701 0.599,2.145 0.396,0.518 1.053,0.773 1.965,0.773 0.559,0 1.259,-0.134 2.097,-0.399 0.061,-0.014 0.118,-0.021 0.178,-0.021 0.193,0 0.334,0.117 0.419,0.354 l 0.313,0.885 c 0.102,0.279 0,0.486 -0.313,0.62 -0.837,0.367 -1.817,0.551 -2.938,0.551 -1.503,0 -2.657,-0.468 -3.47,-1.403 -0.809,-0.935 -1.219,-2.31 -1.219,-4.12 0,-1.638 0.377,-2.951 1.13,-3.946 0.751,-0.994 1.762,-1.491 3.028,-1.491 2.711,-0.003 4.068,1.84 4.068,5.521 z m -2.298,-1.081 c -0.061,-1.769 -0.635,-2.653 -1.725,-2.653 -1.059,0 -1.67,0.885 -1.834,2.653 h 3.559 z"
   inkscape:connector-curvature="0"
   id="path3183"
   style="fill:#ffffff" />
			<path
   d="m 394.43,50.274 c 0,0.898 -0.296,1.636 -0.885,2.211 -0.65,0.647 -1.547,0.973 -2.697,0.973 -1.15,0 -2.188,-0.215 -3.116,-0.642 -0.296,-0.13 -0.391,-0.353 -0.285,-0.661 l 0.285,-0.929 c 0.089,-0.265 0.235,-0.398 0.442,-0.398 0.073,0 0.141,0.018 0.201,0.045 0.969,0.41 1.779,0.619 2.427,0.619 0.886,0 1.327,-0.376 1.327,-1.128 0,-0.486 -0.377,-0.957 -1.129,-1.414 -1.397,-0.839 -2.104,-1.266 -2.119,-1.283 -0.752,-0.603 -1.128,-1.322 -1.128,-2.163 0,-0.899 0.303,-1.623 0.905,-2.177 0.604,-0.554 1.445,-0.829 2.521,-0.829 0.929,0 1.752,0.155 2.473,0.464 0.326,0.133 0.43,0.355 0.312,0.665 l -0.285,0.75 c -0.117,0.325 -0.317,0.435 -0.593,0.332 -0.748,-0.28 -1.349,-0.421 -1.8,-0.421 -0.821,0 -1.232,0.354 -1.232,1.062 0,0.396 0.381,0.825 1.145,1.28 1.172,0.693 1.868,1.137 2.089,1.325 0.759,0.65 1.142,1.423 1.142,2.319 l 0,0 z"
   inkscape:connector-curvature="0"
   id="path3185"
   style="fill:#ffffff" />
			<path
   d="m 404.612,47.954 c 0,1.709 -0.379,3.055 -1.138,4.034 -0.761,0.979 -1.822,1.47 -3.192,1.47 -1.372,0 -2.442,-0.488 -3.217,-1.459 -0.773,-0.972 -1.157,-2.32 -1.157,-4.044 0,-1.693 0.384,-3.025 1.157,-3.997 0.773,-0.974 1.844,-1.46 3.217,-1.46 1.355,0 2.415,0.486 3.181,1.46 0.765,0.971 1.149,2.303 1.149,3.996 l 0,0 z m -2.341,0 c 0,-2.371 -0.682,-3.557 -2.045,-3.557 -1.347,0 -2.02,1.186 -2.02,3.557 0,2.373 0.673,3.559 2.02,3.559 1.363,0 2.045,-1.186 2.045,-3.559 z"
   inkscape:connector-curvature="0"
   id="path3187"
   style="fill:#ffffff" />
			<path
   d="m 414.731,52.815 c 0,0.341 -0.168,0.508 -0.507,0.508 h -0.884 c -0.281,0 -0.457,-0.147 -0.531,-0.441 l -0.222,-0.929 c -0.942,1.002 -1.989,1.504 -3.138,1.504 -0.825,0 -1.483,-0.246 -1.975,-0.739 -0.495,-0.494 -0.742,-1.176 -0.742,-2.047 v -7.535 c 0,-0.337 0.176,-0.507 0.531,-0.507 h 1.237 c 0.354,0 0.53,0.17 0.53,0.507 v 7.138 c 0,0.841 0.394,1.262 1.186,1.262 0.657,0 1.191,-0.257 1.602,-0.763 0.41,-0.51 0.614,-1.213 0.614,-2.11 v -5.526 c 0,-0.337 0.18,-0.507 0.537,-0.507 h 1.25 c 0.342,0 0.512,0.17 0.512,0.507 l 0,9.678 0,0 z"
   inkscape:connector-curvature="0"
   id="path3189"
   style="fill:#ffffff" />
			<path
   d="m 423.637,43.402 -0.327,1.238 c -0.089,0.337 -0.308,0.477 -0.658,0.419 -0.134,-0.016 -0.35,-0.083 -0.65,-0.199 -0.301,-0.117 -0.53,-0.178 -0.691,-0.178 -0.397,0 -0.718,0.229 -0.967,0.686 -0.293,0.518 -0.441,1.269 -0.441,2.256 v 5.191 c 0,0.341 -0.18,0.508 -0.533,0.508 h -1.23 c -0.354,0 -0.533,-0.167 -0.533,-0.508 v -9.679 c 0,-0.337 0.177,-0.507 0.527,-0.507 h 0.819 c 0.323,0 0.524,0.147 0.597,0.44 l 0.243,0.951 c 0.646,-1.016 1.473,-1.525 2.475,-1.525 1.076,0.001 1.531,0.305 1.369,0.907 l 0,0 z"
   inkscape:connector-curvature="0"
   id="path3191"
   style="fill:#ffffff" />
			<path
   d="m 431.327,52.529 c 0.06,0.311 -0.058,0.516 -0.354,0.62 -0.603,0.203 -1.325,0.309 -2.164,0.309 -1.402,0 -2.491,-0.464 -3.271,-1.394 -0.824,-0.972 -1.236,-2.369 -1.236,-4.197 0,-1.563 0.414,-2.848 1.246,-3.854 0.833,-1.011 1.95,-1.516 3.348,-1.516 0.459,0 0.928,0.067 1.415,0.199 0.707,0.178 1,0.441 0.886,0.796 l -0.311,0.928 c -0.074,0.235 -0.207,0.355 -0.398,0.355 -0.148,0 -0.388,-0.054 -0.718,-0.154 -0.33,-0.107 -0.601,-0.155 -0.807,-0.155 -0.706,0 -1.265,0.294 -1.667,0.887 -0.406,0.589 -0.607,1.434 -0.607,2.524 0,2.365 0.8,3.549 2.407,3.549 0.469,0 0.959,-0.074 1.459,-0.221 0.34,-0.089 0.537,0.029 0.598,0.353 l 0.174,0.971 0,0 z"
   inkscape:connector-curvature="0"
   id="path3193"
   style="fill:#ffffff" />
			<path
   d="m 440.94,48.02 c 0,0.354 -0.173,0.531 -0.509,0.531 h -5.349 c 0.046,0.989 0.243,1.701 0.597,2.145 0.397,0.518 1.055,0.773 1.967,0.773 0.56,0 1.26,-0.134 2.099,-0.399 0.06,-0.014 0.115,-0.021 0.179,-0.021 0.188,0 0.329,0.117 0.419,0.354 l 0.308,0.885 c 0.105,0.279 0,0.486 -0.308,0.62 -0.842,0.367 -1.821,0.551 -2.94,0.551 -1.503,0 -2.656,-0.468 -3.471,-1.403 -0.809,-0.935 -1.216,-2.31 -1.216,-4.12 0,-1.638 0.375,-2.951 1.128,-3.946 0.754,-0.995 1.761,-1.491 3.028,-1.491 2.711,-0.003 4.068,1.84 4.068,5.521 l 0,0 z m -2.298,-1.081 c -0.058,-1.769 -0.634,-2.653 -1.725,-2.653 -1.06,0 -1.671,0.885 -1.834,2.653 h 3.559 z"
   inkscape:connector-curvature="0"
   id="path3195"
   style="fill:#ffffff" />
			<path
   d="m 449.514,50.274 c 0,0.898 -0.295,1.636 -0.885,2.211 -0.649,0.647 -1.546,0.973 -2.694,0.973 -1.149,0 -2.189,-0.215 -3.117,-0.642 -0.295,-0.13 -0.392,-0.353 -0.286,-0.661 l 0.286,-0.929 c 0.088,-0.265 0.236,-0.398 0.44,-0.398 0.077,0 0.143,0.018 0.2,0.045 0.973,0.41 1.781,0.619 2.431,0.619 0.884,0 1.327,-0.376 1.327,-1.128 0,-0.486 -0.377,-0.957 -1.128,-1.414 -1.4,-0.839 -2.109,-1.266 -2.122,-1.283 -0.753,-0.603 -1.125,-1.322 -1.125,-2.163 0,-0.899 0.299,-1.623 0.903,-2.177 0.604,-0.554 1.445,-0.829 2.52,-0.829 0.928,0 1.753,0.155 2.475,0.464 0.325,0.133 0.428,0.355 0.311,0.665 l -0.286,0.75 c -0.117,0.325 -0.316,0.435 -0.591,0.332 -0.749,-0.28 -1.351,-0.421 -1.803,-0.421 -0.819,0 -1.231,0.354 -1.231,1.062 0,0.396 0.381,0.825 1.143,1.28 1.174,0.693 1.871,1.137 2.091,1.325 0.761,0.65 1.141,1.423 1.141,2.319 l 0,0 z"
   inkscape:connector-curvature="0"
   id="path3197"
   style="fill:#ffffff" />
		</g>
	</g>
</g><g
     id="g7774">
	<rect
   height="3.951"
   width="3.951"
   y="667.89899"
   x="343.16299"
   id="rect7776" />
	<rect
   height="3.951"
   width="3.9519999"
   y="667.89899"
   x="349.48999"
   id="rect7778" />
	<rect
   height="3.9519999"
   width="3.9519999"
   y="663.20502"
   x="346.48801"
   id="rect7780" />
</g><g
     id="g7782">
	<path
   d="m 3.459,777.094 c 0,-0.924 0.612,-1.241 2.029,-1.056 1.624,0.213 1.662,0.06 1.662,-6.996 0,-8.935 1.314,-8.557 1.627,0.47 l 0.217,6.268 h 2.583 2.584 l 0.107,-4.796 c 0.145,-6.566 0.176,-6.783 0.884,-6.346 0.342,0.21 0.556,2.474 0.475,5.026 -0.081,2.552 0.006,5.057 0.195,5.563 0.194,0.522 1.592,0.924 3.215,0.924 1.582,0 2.873,0.34 2.873,0.756 0,0.483 -3.324,0.688 -9.225,0.577 -5.073,-0.105 -9.226,-0.278 -9.226,-0.39 z"
   inkscape:connector-curvature="0"
   id="path7784"
   style="fill:#010101" />
	<path
   d="m 28.59,777.094 c 0,-0.924 0.612,-1.241 2.029,-1.056 1.624,0.213 1.662,0.06 1.662,-6.996 0,-8.935 1.314,-8.557 1.627,0.47 l 0.217,6.268 h 2.583 2.585 l 0.106,-4.796 c 0.145,-6.566 0.176,-6.783 0.884,-6.346 0.342,0.21 0.556,2.474 0.475,5.026 -0.081,2.552 0.006,5.057 0.195,5.563 0.194,0.522 1.592,0.924 3.215,0.924 1.582,0 2.873,0.34 2.873,0.756 0,0.483 -3.324,0.688 -9.225,0.577 -5.074,-0.105 -9.226,-0.278 -9.226,-0.39 z"
   inkscape:connector-curvature="0"
   id="path7786"
   style="fill:#010101" />
</g><path
     d="m 26.776,804.205 c 0,-1.336 1.209,-1.658 2.265,-0.604 1.11,1.111 2.763,-0.012 2.578,-1.752 -0.141,-1.328 0.169,-1.679 1.891,-2.137 1.645,-0.438 1.983,-0.787 1.683,-1.737 -0.246,-0.772 0.119,-1.684 1.05,-2.612 1.267,-1.268 1.305,-1.451 0.343,-1.636 -0.595,-0.115 -1.083,-0.716 -1.083,-1.336 0,-0.622 -0.561,-1.273 -1.247,-1.455 -0.906,-0.237 -1.245,-0.846 -1.245,-2.253 0,-2.185 -0.439,-2.417 -1.6,-0.839 -0.735,1.002 -0.855,0.947 -1.47,-0.662 -0.367,-0.964 -0.954,-1.575 -1.304,-1.359 -0.349,0.215 -0.485,0.634 -0.303,0.928 0.184,0.296 0.017,0.733 -0.37,0.974 -0.387,0.238 -0.921,0.081 -1.188,-0.349 -0.644,-1.042 -1.913,-0.214 -1.465,0.954 0.263,0.684 -0.139,0.915 -1.585,0.915 -1.064,0 -1.936,-0.28 -1.936,-0.624 0,-1.034 -4.805,-0.752 -5.211,0.312 -0.197,0.515 -0.088,0.936 0.244,0.936 1.216,0 0.56,1.69 -0.916,2.357 -0.837,0.383 -1.849,1.311 -2.249,2.057 -0.677,1.264 -0.611,1.34 0.911,1.049 2.048,-0.391 2.67,0.497 1.36,1.945 -1.504,1.664 -1.308,3.828 0.332,3.648 0.889,-0.104 1.39,0.237 1.516,1.032 0.105,0.652 0.621,1.616 1.146,2.139 0.835,0.836 1.171,0.846 2.591,0.085 1.45,-0.775 1.699,-0.754 2.23,0.195 0.851,1.525 3.032,1.398 3.032,-0.171 l 0,0 0,0 z"
     stroke-miterlimit="10"
     inkscape:connector-curvature="0"
     id="path7788"
     style="fill:#ffffff;stroke:#000000;stroke-width:2;stroke-miterlimit:10" /><g
     id="g7790">
	<path
   d="m 343.725,687.491 c -1.189,-1.699 -0.373,-3.932 1.317,-3.609 1.354,0.26 1.649,2.358 0.545,3.866 -0.831,1.137 -0.89,1.129 -1.862,-0.257 l 0,0 z"
   inkscape:connector-curvature="0"
   id="path7792" />
	<path
   d="m 351.601,687.491 c -1.188,-1.699 -0.374,-3.932 1.317,-3.609 1.353,0.26 1.649,2.358 0.544,3.866 -0.832,1.137 -0.89,1.129 -1.861,-0.257 l 0,0 z"
   inkscape:connector-curvature="0"
   id="path7794" />
	<path
   d="m 347.673,682.18 c -1.188,-1.699 -0.372,-3.932 1.317,-3.609 1.353,0.259 1.65,2.358 0.545,3.866 -0.832,1.136 -0.89,1.128 -1.862,-0.257 l 0,0 z"
   inkscape:connector-curvature="0"
   id="path7796" />
</g><text
     font-size="14.5103"
     transform="translate(342.1272,705.2852)"
     id="text7798"
     style="font-size:14.51029968px;font-family:TimesNewRomanPSMT">CC</text>
<text
     font-size="14.5103"
     transform="translate(342.1272,742.9414)"
     id="text7800"
     style="font-size:14.51029968px;font-family:TimesNewRomanPSMT">DC</text>
<text
     font-size="14.5103"
     transform="translate(342.1272,762.1152)"
     id="text7802"
     style="font-size:14.51029968px;font-family:TimesNewRomanPSMT">Hosp</text>
<text
     font-size="14.5103"
     transform="translate(342.1272,780.5127)"
     id="text7804"
     style="font-size:14.51029968px;font-family:TimesNewRomanPSMT">Sch</text>
<text
     font-size="14.5103"
     transform="translate(342.1272,798.9092)"
     id="text7806"
     style="font-size:14.51029968px;font-family:TimesNewRomanPSMT">Mkt</text>
<text
     font-size="14.5103"
     transform="translate(342.1272,818.7637)"
     id="text7808"
     style="font-size:14.51029968px;font-family:TimesNewRomanPSMT">PS</text>
<text
     font-size="14.5103"
     transform="translate(342.1272,835.8652)"
     id="text7810"
     style="font-size:14.51029968px;font-family:TimesNewRomanPSMT">BH</text>
<text
     font-size="14.5103"
     transform="translate(342.1272,725.3213)"
     id="text7812"
     style="font-size:14.51029968px;font-family:TimesNewRomanPSMT">CCO</text>
<g
     id="g7814">
	
		<line
   y2="622.54102"
   x2="73.945"
   y1="606.99402"
   x1="73.945"
   stroke-miterlimit="10"
   id="line7816"
   style="fill:none;stroke:#000000;stroke-width:2;stroke-miterlimit:10" />
	
		<line
   y2="622.54102"
   x2="116.385"
   y1="606.99402"
   x1="116.385"
   stroke-miterlimit="10"
   id="line7818"
   style="fill:none;stroke:#000000;stroke-width:2;stroke-miterlimit:10" />
	
		<line
   y2="622.54102"
   x2="158.825"
   y1="606.99402"
   x1="158.825"
   stroke-miterlimit="10"
   id="line7820"
   style="fill:none;stroke:#000000;stroke-width:2;stroke-miterlimit:10" />
	
		<line
   y2="622.54102"
   x2="201.267"
   y1="606.99402"
   x1="201.267"
   stroke-miterlimit="10"
   id="line7822"
   style="fill:none;stroke:#000000;stroke-width:2;stroke-miterlimit:10" />
	
		<line
   y2="622.54102"
   x2="243.707"
   y1="606.99402"
   x1="243.707"
   stroke-miterlimit="10"
   id="line7824"
   style="fill:none;stroke:#000000;stroke-width:2;stroke-miterlimit:10" />
	
		<line
   y2="622.54102"
   x2="286.14899"
   y1="606.99402"
   x1="286.14899"
   stroke-miterlimit="10"
   id="line7826"
   style="fill:none;stroke:#000000;stroke-width:2;stroke-miterlimit:10" />
	
		<line
   y2="622.54102"
   x2="328.58801"
   y1="606.99402"
   x1="328.58801"
   stroke-miterlimit="10"
   id="line7828"
   style="fill:none;stroke:#000000;stroke-width:2;stroke-miterlimit:10" />
	
		<line
   y2="622.54102"
   x2="371.03"
   y1="606.99402"
   x1="371.03"
   stroke-miterlimit="10"
   id="line7830"
   style="fill:none;stroke:#000000;stroke-width:2;stroke-miterlimit:10" />
	
		<line
   y2="622.54102"
   x2="413.47101"
   y1="606.99402"
   x1="413.47101"
   stroke-miterlimit="10"
   id="line7832"
   style="fill:none;stroke:#000000;stroke-width:2;stroke-miterlimit:10" />
	
		<line
   y2="622.54102"
   x2="455.91101"
   y1="606.99402"
   x1="455.91101"
   stroke-miterlimit="10"
   id="line7834"
   style="fill:none;stroke:#000000;stroke-width:2;stroke-miterlimit:10" />
	
		<line
   y2="622.54102"
   x2="498.353"
   y1="606.99402"
   x1="498.353"
   stroke-miterlimit="10"
   id="line7836"
   style="fill:none;stroke:#000000;stroke-width:2;stroke-miterlimit:10" />
	
		<line
   y2="621.50403"
   x2="499.40799"
   y1="621.50403"
   x1="72.907997"
   stroke-miterlimit="10"
   id="line7838"
   style="fill:none;stroke:#000000;stroke-width:3;stroke-miterlimit:10" />
</g><text
     font-size="12.4374"
     transform="translate(113.3298,604.9189)"
     id="text7840"
     style="font-size:12.43739986px;font-family:TimesNewRomanPSMT">1</text>
<text
     font-size="12.4374"
     transform="translate(155.7703,604.9189)"
     id="text7842"
     style="font-size:12.43739986px;font-family:TimesNewRomanPSMT">2</text>
<text
     font-size="12.4374"
     transform="translate(198.2117,604.9189)"
     id="text7844"
     style="font-size:12.43739986px;font-family:TimesNewRomanPSMT">3</text>
<text
     font-size="12.4374"
     transform="translate(240.6526,604.9189)"
     id="text7846"
     style="font-size:12.43739986px;font-family:TimesNewRomanPSMT">4</text>
<text
     font-size="12.4374"
     transform="translate(283.0935,604.9189)"
     id="text7848"
     style="font-size:12.43739986px;font-family:TimesNewRomanPSMT">5</text>
<text
     font-size="12.4374"
     transform="translate(325.5354,604.9189)"
     id="text7850"
     style="font-size:12.43739986px;font-family:TimesNewRomanPSMT">6</text>
<text
     font-size="12.4374"
     transform="translate(367.9749,604.9189)"
     id="text7852"
     style="font-size:12.43739986px;font-family:TimesNewRomanPSMT">7</text>
<text
     font-size="12.4374"
     transform="translate(410.4172,604.9189)"
     id="text7854"
     style="font-size:12.43739986px;font-family:TimesNewRomanPSMT">8</text>
<text
     font-size="12.4374"
     transform="translate(452.8577,604.9189)"
     id="text7856"
     style="font-size:12.43739986px;font-family:TimesNewRomanPSMT">9</text>
<text
     font-size="12.4374"
     transform="translate(492.1897,604.9189)"
     id="text7858"
     style="font-size:12.43739986px;font-family:TimesNewRomanPSMT">10</text>
<text
     font-size="12.4374"
     transform="translate(70.8352,604.9189)"
     id="text7860"
     style="font-size:12.43739986px;font-family:TimesNewRomanPSMT">0</text>
<text
     font-size="12.4374"
     transform="translate(507.8743,604.9189)"
     id="text7862"
     style="font-size:12.43739986px;font-family:TimesNewRomanPSMT">km</text>
<text
     font-size="12.4374"
     transform="translate(7.7175,622.541)"
     id="text7864"
     style="font-size:12.43739986px;font-family:TimesNewRomanPSMT">Scale</text>
<text
     font-size="42.2417"
     transform="translate(168.781,36.6533)"
     id="text7866"
     style="font-size:42.24169922px;font-family:TimesNewRomanPS-BoldMT">TIMO AREA</text>
<text
     font-size="12.4374"
     transform="translate(6.1672,651.2148)"
     id="text7868"
     style="font-size:12.43739986px;font-family:TimesNewRomanPS-BoldMT">KEY</text>
<line
     y2="653.11603"
     x2="32.227001"
     y1="653.11603"
     x1="6.1659999"
     stroke-miterlimit="10"
     id="line7870"
     style="fill:none;stroke:#000000;stroke-miterlimit:10" /><line
     y2="697.16498"
     x2="47.533001"
     y1="697.16498"
     x1="2.9660001"
     stroke-miterlimit="10"
     id="line7872"
     style="fill:none;stroke:#000000;stroke-width:7;stroke-miterlimit:10" /><g
     id="g7874">
	<line
   y2="714.008"
   x2="47.533001"
   y1="714.008"
   x1="2.9660001"
   stroke-miterlimit="10"
   id="line7876"
   style="fill:none;stroke:#000000;stroke-miterlimit:10" />
	<line
   y2="720.22699"
   x2="47.533001"
   y1="720.22699"
   x1="2.9660001"
   stroke-miterlimit="10"
   id="line7878"
   style="fill:none;stroke:#000000;stroke-miterlimit:10" />
</g><g
     id="g7880">
	
		<line
   y2="733.95898"
   x2="12.849"
   y1="733.95898"
   x1="2.9660001"
   stroke-miterlimit="10"
   id="line7882"
   style="fill:none;stroke:#000000;stroke-width:2;stroke-miterlimit:10" />
	
		<line
   y2="733.95898"
   x2="30.191999"
   y1="733.95898"
   x1="20.308001"
   stroke-miterlimit="10"
   id="line7884"
   style="fill:none;stroke:#000000;stroke-width:2;stroke-miterlimit:10" />
	
		<line
   y2="733.95898"
   x2="47.533001"
   y1="733.95898"
   x1="37.651001"
   stroke-miterlimit="10"
   id="line7886"
   style="fill:none;stroke:#000000;stroke-width:2;stroke-miterlimit:10" />
</g><polygon
     points="19.015,757.898 25.25,747.101 31.486,757.898 "
     id="polygon7888" /><g
     id="g7890">
	
		<rect
   height="15.806"
   width="49.452"
   stroke-miterlimit="10"
   y="813.76703"
   x="0.52499998"
   id="rect7892"
   style="fill:#ffffff;stroke:#000000;stroke-miterlimit:10" />
	<line
   y2="821.66901"
   x2="49.977001"
   y1="821.66901"
   x1="0.52499998"
   stroke-miterlimit="10"
   id="line7894"
   style="fill:none;stroke:#000000;stroke-miterlimit:10" />
	<line
   y2="829.57202"
   x2="6.8579998"
   y1="813.76703"
   x1="6.8579998"
   stroke-miterlimit="10"
   id="line7896"
   style="fill:none;stroke:#000000;stroke-miterlimit:10" />
	<line
   y2="829.57202"
   x2="13.985"
   y1="813.76703"
   x1="13.985"
   stroke-miterlimit="10"
   id="line7898"
   style="fill:none;stroke:#000000;stroke-miterlimit:10" />
	<line
   y2="829.57202"
   x2="21.112"
   y1="813.76703"
   x1="21.112"
   stroke-miterlimit="10"
   id="line7900"
   style="fill:none;stroke:#000000;stroke-miterlimit:10" />
	<line
   y2="829.57202"
   x2="28.238001"
   y1="813.76703"
   x1="28.238001"
   stroke-miterlimit="10"
   id="line7902"
   style="fill:none;stroke:#000000;stroke-miterlimit:10" />
	<line
   y2="829.57202"
   x2="35.363998"
   y1="813.76703"
   x1="35.363998"
   stroke-miterlimit="10"
   id="line7904"
   style="fill:none;stroke:#000000;stroke-miterlimit:10" />
	<line
   y2="829.57202"
   x2="42.490002"
   y1="813.76703"
   x1="42.490002"
   stroke-miterlimit="10"
   id="line7906"
   style="fill:none;stroke:#000000;stroke-miterlimit:10" />
</g><g
     id="g7908">
	<path
   d="m 3.402,680.804 c 1.209,-0.316 2.474,-2.038 3.246,-2.972 1.263,-1.528 2.569,-2.907 4.259,-3.91 3.498,-2.09 7.423,-2.63 11.537,-2.317 5.873,0.445 11.657,1.439 17.445,2.016 2.321,0.233 4.78,0.075 7.21,-0.004"
   stroke-miterlimit="10"
   inkscape:connector-curvature="0"
   id="path7910"
   style="fill:none;stroke:#000000;stroke-miterlimit:10" />
	<path
   d="m 3.508,660.112 c 1.668,0.354 2.808,1.514 4.319,2.146 3.1,1.295 6.723,0.66 9.963,1.327 2.954,0.607 5.375,2.995 7.53,4.97 0.627,0.575 1.328,1.29 1.888,1.954 0.648,0.767 1.313,1.128 2.032,1.719"
   stroke-miterlimit="10"
   inkscape:connector-curvature="0"
   id="path7912"
   style="fill:none;stroke:#000000;stroke-miterlimit:10" />
</g><text
     font-size="12.4374"
     transform="translate(63.2336,676.1631)"
     id="text7914"
     style="font-size:12.43739986px;font-family:TimesNewRomanPSMT">River</text>
<text
     font-size="12.4374"
     transform="translate(385.053,671.8486)"
     id="text7916"
     style="font-size:12.43739986px;font-family:TimesNewRomanPSMT">Permanent houses</text>
<text
     font-size="12.4374"
     transform="translate(385.053,688.5674)"
     id="text7918"
     style="font-size:12.43739986px;font-family:TimesNewRomanPSMT">Settlements</text>
<text
     font-size="12.4374"
     transform="translate(385.053,705.2852)"
     id="text7920"
     style="font-size:12.43739986px;font-family:TimesNewRomanPSMT">Chief’s camp</text>
<text
     font-size="12.4374"
     transform="translate(385.053,725.3213)"
     id="text7922"
     style="font-size:12.43739986px;font-family:TimesNewRomanPSMT">County council office</text>
<text
     font-size="12.4374"
     transform="translate(385.053,742.9414)"
     id="text7924"
     style="font-size:12.43739986px;font-family:TimesNewRomanPSMT">District commissioner’s office</text>
<text
     font-size="12.4374"
     transform="translate(385.053,762.1152)"
     id="text7926"
     style="font-size:12.43739986px;font-family:TimesNewRomanPSMT">Hospital</text>
<text
     font-size="12.4374"
     transform="translate(385.053,780.5127)"
     id="text7928"
     style="font-size:12.43739986px;font-family:TimesNewRomanPSMT">School</text>
<text
     font-size="12.4374"
     transform="translate(385.053,798.9092)"
     id="text7930"
     style="font-size:12.43739986px;font-family:TimesNewRomanPSMT">Market</text>
<text
     font-size="12.4374"
     transform="translate(385.053,818.7637)"
     id="text7932"
     style="font-size:12.43739986px;font-family:TimesNewRomanPSMT">Police station</text>
<text
     font-size="12.4374"
     transform="translate(385.053,835.8652)"
     id="text7934"
     style="font-size:12.43739986px;font-family:TimesNewRomanPSMT">Bore hole</text>
<text
     font-size="12.4374"
     transform="translate(63.2336,700.3457)"
     id="text7936"
     style="font-size:12.43739986px;font-family:TimesNewRomanPSMT">Tarmac road</text>
<text
     font-size="12.4374"
     transform="translate(63.2336,720.2266)"
     id="text7938"
     style="font-size:12.43739986px;font-family:TimesNewRomanPSMT">Murram road</text>
<text
     font-size="12.4374"
     transform="translate(63.2336,737.5)"
     id="text7940"
     style="font-size:12.43739986px;font-family:TimesNewRomanPSMT">Town boundary</text>
<text
     font-size="12.4374"
     transform="translate(63.2336,756.8623)"
     id="text7942"
     style="font-size:12.43739986px;font-family:TimesNewRomanPSMT">Hill</text>
<text
     font-size="12.4374"
     transform="translate(63.2336,774.8262)"
     id="text7944"
     style="font-size:12.43739986px;font-family:TimesNewRomanPSMT">Scrub vegetation</text>
<text
     font-size="12.4374"
     transform="translate(63.2336,795.6162)"
     id="text7946"
     style="font-size:12.43739986px;font-family:TimesNewRomanPSMT">Quarry</text>
<text
     font-size="12.4374"
     transform="translate(63.2336,823.9463)"
     id="text7948"
     style="font-size:12.43739986px;font-family:TimesNewRomanPSMT">Coffee farm</text>
<g
     id="g7950">
	<g
   id="g7952">
		
			<line
   y2="348.30301"
   x2="572.47803"
   y1="187.931"
   x1="572.47803"
   stroke-miterlimit="10"
   id="line7954"
   style="fill:none;stroke:#000000;stroke-width:2;stroke-miterlimit:10" />
		
			<line
   y2="253.42"
   x2="595.28003"
   y1="253.42"
   x1="551.23102"
   stroke-miterlimit="10"
   id="line7956"
   style="fill:none;stroke:#000000;stroke-width:2;stroke-miterlimit:10" />
	</g>
	<polyline
   points="563.927,199.927    572.478,186.712 578.956,199.927  "
   stroke-miterlimit="10"
   id="polyline7958"
   style="fill:none;stroke:#000000;stroke-width:2;stroke-miterlimit:10" />
</g><text
     font-size="12.4374"
     transform="translate(567.5549,181.5283)"
     id="text7960"
     style="font-size:12.43739986px;font-family:TimesNewRomanPS-BoldMT">N</text>
<g
     id="g7964">
	
		<rect
   height="520.79303"
   width="541.00098"
   stroke-miterlimit="10"
   y="52.604"
   x="2.0190001"
   id="rect7966"
   style="fill:none;stroke:#000000;stroke-width:3;stroke-miterlimit:10" />
	<path
   d="m 2.019,248.38 c 28.408,0 54.509,1.037 83.043,1.037 26.196,0 55.639,0.715 81.474,4.49 11.333,1.656 29.989,-2.471 52.014,1.381 30.836,5.396 77.943,7.024 86.564,8.382 14.177,2.231 92.508,5.552 116.907,0 17.275,-3.93 37.371,-6.748 53.377,-14.601 15.872,-7.786 56.539,-42.15 67.622,-46.295"
   stroke-miterlimit="10"
   inkscape:connector-curvature="0"
   id="path7968"
   style="fill:none;stroke:#000000;stroke-width:7;stroke-miterlimit:10" />
	<path
   d="m 176.899,573.827 c 3.282,-12.438 5.314,-32.915 9.328,-58.041 3.311,-20.729 7.462,-71.295 4.126,-102.664 -2.408,-22.644 -18.297,-32.485 -21.573,-46.583 -11.4,-49.059 0,-101.041 4.487,-110.568 2.549,-5.414 14.709,0.622 22.634,-31.08 6.219,-24.874 36.1,-37.734 45.559,-48.712 8.719,-10.119 41.676,-26.603 52.559,-57.006 7.141,-19.949 11.095,-54.587 11.095,-66.567"
   stroke-miterlimit="10"
   inkscape:connector-curvature="0"
   id="path7970"
   style="fill:none;stroke:#000000;stroke-width:7;stroke-miterlimit:10" />
	
		<path
   d="m 96.576,313.215 c 0,-19.015 -8.585,-52.21 -7.185,-67.854 1.483,-16.557 4.778,-52.88 12.876,-52.54 10.604,0.444 44.157,2.701 56.705,2.701 22.061,0 44.178,3.109 66.237,3.109 25.746,0 47.957,-0.96 72.867,4.143 20.451,4.189 81.973,4.167 94.598,16.524 6.416,6.282 -1.593,80.763 -3.313,114.763 -1.123,22.252 0.723,61.935 0.036,74.637 -0.493,9.103 2.695,19.321 0.17,27.621 -4.621,15.207 -20.079,21.14 -50.996,19.353 -22.664,-1.311 -195.437,-8.071 -216.097,-14.766 -12.933,-4.188 -36.297,-7.193 -36.939,-20.128 -0.823,-16.559 0,-65.642 4.969,-92.936"
   stroke-miterlimit="10"
   inkscape:connector-curvature="0"
   id="path7972"
   style="fill:none;stroke:#000000;stroke-width:3;stroke-miterlimit:10;stroke-dasharray:14" />
	<path
   d="m 419.083,52.492 c 28.388,10.407 21.021,55.114 40.447,74.38 10.869,10.781 27.578,17.513 41.38,22.816 13.72,5.273 27.701,13.921 41.511,16.814"
   stroke-miterlimit="10"
   inkscape:connector-curvature="0"
   id="path7974"
   style="fill:none;stroke:#000000;stroke-width:2;stroke-miterlimit:10" />
	<path
   d="m 542.421,274.292 c -4.165,5.611 -13.343,11.272 -18.714,17.343 -6.566,7.422 -10.303,15.759 -17.588,22.901 -5.809,5.698 -13.159,9.965 -18.837,15.67 -6.563,6.599 -9.506,14.661 -14.743,22.255 -14.351,20.805 -25.266,29.321 -22.344,57.088 2.218,21.057 13.465,37.389 28.802,52.859 6.07,6.125 14.225,14.817 21.96,18.138 7.28,3.124 9.211,16.091 16.373,18.66 10.379,3.725 15.413,3.279 24.741,5.017"
   stroke-miterlimit="10"
   inkscape:connector-curvature="0"
   id="path7976"
   style="fill:none;stroke:#000000;stroke-width:2;stroke-miterlimit:10" />
	<polygon
   points="322.083,95.058 334.785,73.058 347.486,95.058 "
   stroke-miterlimit="10"
   id="polygon7978"
   style="stroke:#000000;stroke-miterlimit:10" />
	<polygon
   points="9.269,470.287 25.746,441.748 42.225,470.287 "
   stroke-miterlimit="10"
   id="polygon7980"
   style="stroke:#000000;stroke-miterlimit:10" />
	<rect
   height="11.055"
   width="11.055"
   y="89.459"
   x="380.38901"
   id="rect7982" />
	<rect
   height="7.079"
   width="7.079"
   y="127.652"
   x="142.439"
   id="rect7984" />
	<rect
   height="7.079"
   width="7.079"
   y="103.583"
   x="91.605003"
   id="rect7986" />
	<rect
   height="11.401"
   width="11.401"
   y="554.12402"
   x="519.10101"
   id="rect7988" />
	<rect
   height="8.9840002"
   width="8.9840002"
   y="459.81699"
   x="367.95001"
   id="rect7990" />
	<rect
   height="6.2189999"
   width="6.2189999"
   y="434.76999"
   x="323.31699"
   id="rect7992" />
	<rect
   height="7.4860001"
   width="7.4840002"
   y="356.83401"
   x="288.51999"
   id="rect7994" />
	<rect
   height="8.1190004"
   width="8.1190004"
   y="278.186"
   x="199.269"
   id="rect7996" />
	<rect
   height="9.1499996"
   width="9.1490002"
   y="235.08501"
   x="210.155"
   id="rect7998" />
	<rect
   height="8.632"
   width="8.632"
   y="229.644"
   x="170.164"
   id="rect8000" />
	<rect
   height="7.2540002"
   width="7.2540002"
   y="227.48199"
   x="120.068"
   id="rect8002" />
	<rect
   height="8.2919998"
   width="8.2919998"
   y="259.526"
   x="127.84"
   id="rect8004" />
	<rect
   height="7.7719998"
   width="7.7709999"
   y="272.65799"
   x="147.793"
   id="rect8006" />
	<rect
   height="7.7719998"
   width="7.7709999"
   y="326.21399"
   x="147.793"
   id="rect8008" />
	<rect
   height="8.1210003"
   width="8.1199999"
   y="207.7"
   x="222.071"
   id="rect8010" />
	<rect
   height="8.0539999"
   width="8.0559998"
   y="298.939"
   x="293.64899"
   id="rect8012" />
	<rect
   height="9.4359999"
   width="9.4359999"
   y="298.24899"
   x="361.33099"
   id="rect8014" />
	<rect
   height="5.5279999"
   width="5.527"
   y="419.56799"
   x="209.37399"
   id="rect8016" />
	<rect
   height="8.1940002"
   width="8.1940002"
   y="457.582"
   x="164.683"
   id="rect8018" />
	<rect
   height="8.1199999"
   width="8.1199999"
   y="457.65701"
   x="199.269"
   id="rect8020" />
	<rect
   height="7.6020002"
   width="7.5999999"
   y="469.31699"
   x="392.88501"
   id="rect8022" />
	<rect
   height="7.5999999"
   width="7.5999999"
   y="486.24799"
   x="371.92401"
   id="rect8024" />
	<rect
   height="8.5220003"
   width="8.5209999"
   y="455.90201"
   x="407.97101"
   id="rect8026" />
	<rect
   height="8.2919998"
   width="8.2919998"
   y="474.673"
   x="413.78601"
   id="rect8028" />
	
		<rect
   height="17.101999"
   width="30.139"
   stroke-miterlimit="10"
   y="222.55901"
   x="55.118"
   id="rect8030"
   style="fill:#ffffff;stroke:#000000;stroke-miterlimit:10" />
	<path
   d="m 153.751,249.417 c -7.233,-7.623 -12.099,-17.061 -16.064,-26.858 -5.701,-14.082 -5.213,-27.84 -8.175,-39.837 -3.313,-13.417 -1.01,-24.253 -3.227,-37.986 -1.69,-10.472 -2.674,-23.286 -2.591,-40.39 0.028,-6.051 5.139,-6.226 0.142,-51.743"
   stroke-miterlimit="10"
   inkscape:connector-curvature="0"
   id="path8032"
   style="fill:none;stroke:#000000;stroke-miterlimit:10" />
	<path
   d="m 159.451,249.417 c -7.233,-7.623 -12.098,-17.061 -16.064,-26.858 -5.7,-14.082 -5.213,-27.84 -8.175,-39.837 -3.313,-13.417 -1.01,-24.253 -3.227,-37.986 -1.69,-10.472 -3.521,-28.675 -3.454,-37.312 0.048,-6.051 11.228,-35.128 1.382,-54.82"
   stroke-miterlimit="10"
   inkscape:connector-curvature="0"
   id="path8034"
   style="fill:none;stroke:#000000;stroke-miterlimit:10" />
	<path
   d="m 286.112,539.164 c 0,-0.613 0.408,-0.826 1.354,-0.702 1.083,0.142 1.108,0.038 1.108,-4.664 0,-5.958 0.876,-5.707 1.085,0.312 l 0.145,4.181 h 1.723 1.723 l 0.073,-3.199 c 0.095,-4.379 0.115,-4.521 0.587,-4.23 0.23,0.14 0.368,1.648 0.317,3.35 -0.056,1.703 0.004,3.373 0.13,3.711 0.129,0.348 1.062,0.615 2.142,0.615 1.057,0 1.919,0.226 1.919,0.502 0,0.322 -2.218,0.457 -6.152,0.38 -3.386,-0.063 -6.154,-0.179 -6.154,-0.256 l 0,0 z"
   inkscape:connector-curvature="0"
   id="path8036"
   style="fill:#010101" />
	<path
   d="m 151.228,494.761 c 0,-0.614 0.408,-0.826 1.354,-0.703 1.083,0.143 1.107,0.038 1.107,-4.664 0,-5.957 0.877,-5.706 1.086,0.313 l 0.145,4.18 h 1.723 1.724 l 0.071,-3.198 c 0.097,-4.381 0.118,-4.522 0.589,-4.231 0.229,0.141 0.37,1.648 0.317,3.349 -0.054,1.704 0.003,3.37 0.13,3.708 0.129,0.349 1.061,0.62 2.143,0.62 1.056,0 1.917,0.225 1.917,0.499 0,0.324 -2.216,0.459 -6.151,0.383 -3.386,-0.064 -6.155,-0.179 -6.155,-0.256 l 0,0 z"
   inkscape:connector-curvature="0"
   id="path8038"
   style="fill:#010101" />
	<path
   d="m 15.223,564.54 c 0,-0.616 0.408,-0.828 1.354,-0.703 1.083,0.143 1.108,0.038 1.108,-4.666 0,-5.957 0.877,-5.704 1.085,0.314 l 0.146,4.18 h 1.723 1.724 l 0.071,-3.198 c 0.097,-4.381 0.118,-4.524 0.589,-4.233 0.228,0.143 0.37,1.65 0.316,3.35 -0.054,1.705 0.004,3.373 0.13,3.711 0.13,0.349 1.062,0.615 2.144,0.615 1.055,0 1.916,0.228 1.916,0.502 0,0.322 -2.216,0.459 -6.151,0.383 -3.386,-0.066 -6.155,-0.181 -6.155,-0.255 l 0,0 z"
   inkscape:connector-curvature="0"
   id="path8040"
   style="fill:#010101" />
	<path
   d="m 92.322,506.161 c 0,-0.613 0.408,-0.825 1.354,-0.702 1.083,0.142 1.108,0.038 1.108,-4.664 0,-5.958 0.877,-5.707 1.085,0.312 l 0.146,4.181 h 1.723 1.724 l 0.071,-3.199 c 0.097,-4.381 0.118,-4.521 0.589,-4.23 0.228,0.14 0.37,1.648 0.316,3.348 -0.054,1.705 0.004,3.371 0.13,3.709 0.13,0.348 1.062,0.619 2.144,0.619 1.055,0 1.916,0.226 1.916,0.5 0,0.324 -2.216,0.459 -6.151,0.382 -3.387,-0.063 -6.155,-0.178 -6.155,-0.256 l 0,0 z"
   inkscape:connector-curvature="0"
   id="path8042"
   style="fill:#010101" />
	<path
   d="m 88.111,546.643 c 0,-0.616 0.408,-0.828 1.354,-0.703 1.083,0.143 1.108,0.038 1.108,-4.666 0,-5.957 0.877,-5.705 1.085,0.314 l 0.146,4.18 h 1.722 1.724 l 0.072,-3.198 c 0.096,-4.379 0.118,-4.524 0.589,-4.233 0.228,0.143 0.369,1.65 0.316,3.353 -0.054,1.702 0.003,3.37 0.13,3.708 0.13,0.349 1.062,0.615 2.144,0.615 1.055,0 1.916,0.228 1.916,0.504 0,0.32 -2.216,0.455 -6.151,0.379 -3.386,-0.063 -6.155,-0.179 -6.155,-0.253 l 0,0 z"
   inkscape:connector-curvature="0"
   id="path8044"
   style="fill:#010101" />
	<path
   d="m 69.697,503.802 c 0,-0.614 0.408,-0.826 1.354,-0.703 1.083,0.143 1.107,0.038 1.107,-4.664 0,-5.957 0.877,-5.706 1.085,0.313 l 0.146,4.18 h 1.723 1.724 l 0.071,-3.198 c 0.097,-4.379 0.118,-4.522 0.589,-4.231 0.228,0.141 0.37,1.648 0.317,3.351 -0.054,1.702 0.003,3.372 0.129,3.71 0.13,0.349 1.062,0.616 2.144,0.616 1.056,0 1.917,0.225 1.917,0.501 0,0.322 -2.217,0.457 -6.151,0.381 -3.388,-0.064 -6.155,-0.18 -6.155,-0.256 l 0,0 z"
   inkscape:connector-curvature="0"
   id="path8046"
   style="fill:#010101" />
	<path
   d="m 16.092,514.166 c 0,-0.613 0.408,-0.826 1.354,-0.702 1.083,0.144 1.107,0.038 1.107,-4.664 0,-5.958 0.877,-5.707 1.086,0.312 l 0.145,4.18 h 1.723 1.724 l 0.071,-3.198 c 0.097,-4.379 0.118,-4.521 0.589,-4.23 0.229,0.14 0.37,1.647 0.317,3.35 -0.054,1.703 0.003,3.373 0.13,3.711 0.129,0.348 1.061,0.615 2.143,0.615 1.056,0 1.917,0.225 1.917,0.502 0,0.322 -2.216,0.457 -6.151,0.382 -3.387,-0.065 -6.155,-0.181 -6.155,-0.258 l 0,0 z"
   inkscape:connector-curvature="0"
   id="path8048"
   style="fill:#010101" />
	<path
   d="m 13.309,304.113 c 0,-0.892 0.593,-1.201 1.965,-1.022 1.573,0.208 1.608,0.056 1.608,-6.774 0,-8.652 1.274,-8.287 1.577,0.454 l 0.21,6.072 h 2.502 2.503 l 0.103,-4.646 c 0.142,-6.355 0.173,-6.567 0.856,-6.145 0.332,0.204 0.538,2.395 0.46,4.866 -0.078,2.473 0.006,4.896 0.188,5.388 0.189,0.504 1.543,0.892 3.115,0.892 1.53,0 2.781,0.327 2.781,0.73 0,0.466 -3.218,0.669 -8.934,0.556 -4.914,-0.093 -8.934,-0.261 -8.934,-0.371 z"
   inkscape:connector-curvature="0"
   id="path8050"
   style="fill:#010101" />
	<path
   d="m 61.608,327.754 c 0,-1.066 0.709,-1.436 2.349,-1.221 1.879,0.245 1.922,0.065 1.922,-8.096 0,-10.338 1.521,-9.901 1.883,0.542 l 0.251,7.255 h 2.989 2.99 l 0.123,-5.552 c 0.168,-7.596 0.205,-7.847 1.022,-7.342 0.396,0.244 0.643,2.862 0.55,5.814 -0.095,2.955 0.006,5.851 0.225,6.438 0.226,0.604 1.842,1.066 3.721,1.066 1.83,0 3.325,0.392 3.325,0.873 0,0.558 -3.845,0.797 -10.674,0.664 -5.873,-0.11 -10.676,-0.31 -10.676,-0.441 l 0,0 z"
   inkscape:connector-curvature="0"
   id="path8052"
   style="fill:#010101" />
	<path
   d="m 29.787,395.828 c 0,-0.891 0.593,-1.201 1.965,-1.02 1.573,0.205 1.609,0.056 1.609,-6.774 0,-8.654 1.273,-8.286 1.576,0.454 l 0.21,6.072 h 2.502 2.503 l 0.103,-4.646 c 0.142,-6.358 0.173,-6.569 0.856,-6.145 0.332,0.204 0.538,2.395 0.46,4.866 -0.078,2.473 0.006,4.896 0.188,5.387 0.189,0.506 1.543,0.894 3.115,0.894 1.53,0 2.781,0.327 2.781,0.73 0,0.466 -3.218,0.667 -8.934,0.556 -4.913,-0.096 -8.934,-0.263 -8.934,-0.374 l 0,0 z"
   inkscape:connector-curvature="0"
   id="path8054"
   style="fill:#010101" />
	<path
   d="m 459.702,523.549 c 0,-0.893 0.592,-1.2 1.966,-1.021 1.576,0.208 1.609,0.057 1.609,-6.773 0,-8.652 1.273,-8.285 1.576,0.455 l 0.211,6.07 h 2.499 2.505 l 0.104,-4.646 c 0.142,-6.358 0.17,-6.568 0.855,-6.146 0.329,0.204 0.537,2.395 0.456,4.866 -0.075,2.472 0.01,4.896 0.192,5.388 0.188,0.504 1.539,0.893 3.113,0.893 1.533,0 2.784,0.326 2.784,0.727 0,0.468 -3.218,0.67 -8.933,0.557 -4.916,-0.093 -8.937,-0.259 -8.937,-0.37 l 0,0 z"
   inkscape:connector-curvature="0"
   id="path8056"
   style="fill:#010101" />
	
		<path
   d="m 339.767,562.712 c 0,-1.336 1.208,-1.659 2.266,-0.604 1.108,1.111 2.762,-0.013 2.576,-1.753 -0.141,-1.327 0.17,-1.678 1.89,-2.136 1.645,-0.438 1.983,-0.788 1.682,-1.737 -0.243,-0.773 0.119,-1.685 1.053,-2.613 1.268,-1.268 1.304,-1.45 0.342,-1.635 -0.595,-0.115 -1.083,-0.717 -1.083,-1.336 0,-0.622 -0.561,-1.274 -1.247,-1.455 -0.907,-0.238 -1.245,-0.846 -1.245,-2.254 0,-2.184 -0.439,-2.417 -1.599,-0.838 -0.737,1.002 -0.854,0.947 -1.47,-0.663 -0.367,-0.964 -0.956,-1.575 -1.304,-1.358 -0.349,0.215 -0.487,0.633 -0.304,0.928 0.185,0.295 0.019,0.732 -0.368,0.974 -0.387,0.238 -0.924,0.08 -1.188,-0.349 -0.645,-1.043 -1.914,-0.215 -1.464,0.953 0.261,0.685 -0.14,0.915 -1.585,0.915 -1.063,0 -1.936,-0.279 -1.936,-0.623 0,-1.035 -4.806,-0.752 -5.211,0.312 -0.196,0.514 -0.087,0.935 0.245,0.935 1.215,0 0.559,1.69 -0.919,2.358 -0.836,0.383 -1.847,1.31 -2.249,2.057 -0.675,1.263 -0.611,1.34 0.911,1.049 2.051,-0.391 2.67,0.497 1.361,1.945 -1.503,1.663 -1.309,3.827 0.331,3.648 0.89,-0.104 1.392,0.237 1.517,1.032 0.107,0.651 0.623,1.615 1.146,2.138 0.835,0.837 1.17,0.846 2.589,0.085 1.451,-0.775 1.702,-0.753 2.23,0.196 0.851,1.525 3.032,1.398 3.033,-0.171 l 0,0 0,0 z"
   stroke-miterlimit="10"
   inkscape:connector-curvature="0"
   id="path8058"
   style="fill:#ffffff;stroke:#000000;stroke-width:2;stroke-miterlimit:10" />
	<path
   d="m 321.289,538.994 c -1.188,-1.698 -0.374,-3.931 1.316,-3.606 1.354,0.257 1.652,2.355 0.546,3.864 -0.83,1.138 -0.89,1.129 -1.862,-0.258 l 0,0 z"
   inkscape:connector-curvature="0"
   id="path8060" />
	<path
   d="m 270.496,499.389 c -1.188,-1.699 -0.374,-3.932 1.316,-3.607 1.354,0.257 1.651,2.356 0.547,3.865 -0.832,1.136 -0.892,1.128 -1.863,-0.258 l 0,0 z"
   inkscape:connector-curvature="0"
   id="path8062" />
	<path
   d="m 202.341,502.73 c -1.188,-1.7 -0.374,-3.931 1.316,-3.608 1.354,0.257 1.651,2.355 0.547,3.866 -0.833,1.138 -0.891,1.129 -1.863,-0.258 l 0,0 0,0 z"
   inkscape:connector-curvature="0"
   id="path8064" />
	<path
   d="m 196.641,545.569 c -1.188,-1.7 -0.374,-3.931 1.316,-3.608 1.354,0.257 1.651,2.355 0.547,3.865 -0.833,1.139 -0.892,1.13 -1.863,-0.257 l 0,0 z"
   inkscape:connector-curvature="0"
   id="path8066" />
	<path
   d="m 130.424,528.483 c -1.189,-1.698 -0.374,-3.931 1.316,-3.608 1.354,0.257 1.65,2.355 0.547,3.864 -0.833,1.14 -0.891,1.131 -1.863,-0.256 l 0,0 z"
   inkscape:connector-curvature="0"
   id="path8068" />
	<path
   d="m 127.323,550.459 c -1.188,-1.699 -0.374,-3.932 1.316,-3.609 1.354,0.259 1.651,2.358 0.548,3.866 -0.834,1.137 -0.893,1.13 -1.864,-0.257 l 0,0 z"
   inkscape:connector-curvature="0"
   id="path8070" />
	<path
   d="m 157.943,535.733 c -1.188,-1.698 -0.374,-3.931 1.316,-3.608 1.354,0.257 1.651,2.355 0.547,3.865 -0.833,1.138 -0.892,1.129 -1.863,-0.257 l 0,0 z"
   inkscape:connector-curvature="0"
   id="path8072" />
	<path
   d="m 349.257,536.637 c -1.188,-1.701 -0.373,-3.932 1.317,-3.609 1.354,0.257 1.652,2.356 0.546,3.866 -0.832,1.136 -0.892,1.129 -1.863,-0.257 l 0,0 z"
   inkscape:connector-curvature="0"
   id="path8074" />
	<path
   d="m 352.36,513.096 c -1.188,-1.701 -0.374,-3.932 1.316,-3.609 1.355,0.257 1.651,2.356 0.546,3.866 -0.832,1.137 -0.891,1.129 -1.862,-0.257 l 0,0 z"
   inkscape:connector-curvature="0"
   id="path8076" />
	<path
   d="m 313.532,89.657 c 2.169,0.676 2.958,3.155 1.275,4.009 -1.346,0.683 -3.006,-0.937 -3.061,-2.983 -0.042,-1.544 0.018,-1.577 1.786,-1.026 l 0,0 z"
   inkscape:connector-curvature="0"
   id="path8078" />
	<path
   d="m 295.51,131.857 c -0.087,-2.019 1.75,-3.429 2.972,-2.278 0.977,0.92 0.122,2.802 -1.574,3.463 -1.28,0.5 -1.322,0.463 -1.398,-1.185 l 0,0 z"
   inkscape:connector-curvature="0"
   id="path8080" />
	<path
   d="m 282.932,165.564 c -1.581,-0.297 -2.341,-1.978 -1.229,-2.716 0.891,-0.591 2.194,0.411 2.4,1.847 0.156,1.084 0.12,1.112 -1.171,0.869 l 0,0 z"
   inkscape:connector-curvature="0"
   id="path8082" />
	<path
   d="m 372.701,204.159 c -1.578,-0.297 -2.34,-1.978 -1.229,-2.716 0.889,-0.591 2.193,0.412 2.399,1.847 0.159,1.084 0.122,1.11 -1.17,0.869 l 0,0 z"
   inkscape:connector-curvature="0"
   id="path8084" />
	<path
   d="m 289.359,150.063 c -1.957,-0.368 -2.896,-2.449 -1.52,-3.363 1.103,-0.732 2.717,0.51 2.972,2.287 0.192,1.341 0.147,1.375 -1.452,1.076 l 0,0 z"
   inkscape:connector-curvature="0"
   id="path8086" />
	<path
   d="m 248.697,185.353 c -0.346,-2.658 1.923,-4.729 3.667,-3.35 1.396,1.105 0.482,3.689 -1.685,4.757 -1.635,0.806 -1.697,0.761 -1.982,-1.407 l 0,0 0,0 z"
   inkscape:connector-curvature="0"
   id="path8088" />
	<path
   d="m 354.405,256.731 c -0.347,-2.658 1.921,-4.729 3.667,-3.35 1.397,1.105 0.482,3.689 -1.685,4.757 -1.635,0.807 -1.697,0.762 -1.982,-1.407 l 0,0 z"
   inkscape:connector-curvature="0"
   id="path8090" />
	<path
   d="m 212.801,182.603 c -0.293,-2.25 1.627,-4.002 3.104,-2.834 1.182,0.935 0.408,3.123 -1.427,4.027 -1.384,0.682 -1.436,0.643 -1.677,-1.193 l 0,0 0,0 z"
   inkscape:connector-curvature="0"
   id="path8092" />
	<path
   d="m 75.877,266.88 c -0.293,-2.25 1.628,-4.003 3.104,-2.835 1.182,0.935 0.408,3.123 -1.426,4.027 -1.384,0.682 -1.436,0.644 -1.678,-1.192 l 0,0 0,0 z"
   inkscape:connector-curvature="0"
   id="path8094" />
	<path
   d="m 13.339,264.477 c -0.294,-2.25 1.627,-4.003 3.104,-2.835 1.182,0.935 0.409,3.123 -1.426,4.026 -1.385,0.683 -1.438,0.645 -1.678,-1.191 l 0,0 z"
   inkscape:connector-curvature="0"
   id="path8096" />
	<path
   d="m 200.333,389.787 c -0.293,-2.25 1.628,-4 3.104,-2.833 1.182,0.933 0.408,3.123 -1.426,4.026 -1.384,0.682 -1.437,0.643 -1.678,-1.193 l 0,0 0,0 z"
   inkscape:connector-curvature="0"
   id="path8098" />
	<path
   d="m 232.595,167.321 c -0.287,-2.201 1.593,-3.917 3.038,-2.774 1.157,0.915 0.399,3.055 -1.396,3.94 -1.354,0.669 -1.406,0.632 -1.642,-1.166 l 0,0 z"
   inkscape:connector-curvature="0"
   id="path8100" />
	<path
   d="m 249.231,149 c -0.269,-2.058 1.488,-3.661 2.838,-2.592 1.081,0.856 0.373,2.855 -1.305,3.683 -1.265,0.623 -1.314,0.589 -1.533,-1.091 l 0,0 z"
   inkscape:connector-curvature="0"
   id="path8102" />
	<path
   d="m 267.18,133.057 c -0.285,-2.188 1.582,-3.893 3.019,-2.758 1.149,0.91 0.397,3.038 -1.388,3.917 -1.345,0.664 -1.396,0.628 -1.631,-1.159 l 0,0 z"
   inkscape:connector-curvature="0"
   id="path8104" />
	<path
   d="m 264.345,120.922 c -0.291,-2.232 1.615,-3.973 3.08,-2.813 1.173,0.929 0.405,3.099 -1.415,3.996 -1.374,0.678 -1.426,0.641 -1.665,-1.183 l 0,0 0,0 z"
   inkscape:connector-curvature="0"
   id="path8106" />
	<path
   d="m 194.87,101.922 c -0.444,-3.411 2.467,-6.069 4.707,-4.298 1.792,1.419 0.618,4.734 -2.162,6.105 -2.098,1.035 -2.179,0.978 -2.545,-1.807 l 0,0 z"
   inkscape:connector-curvature="0"
   id="path8108" />
	<path
   d="m 13.835,77.243 c -0.177,-1.358 0.981,-2.416 1.873,-1.71 0.713,0.563 0.246,1.884 -0.86,2.429 -0.835,0.412 -0.866,0.389 -1.013,-0.719 l 0,0 z"
   inkscape:connector-curvature="0"
   id="path8110" />
	<path
   d="m 107.887,59.319 c -0.193,-1.483 1.074,-2.64 2.047,-1.87 0.78,0.616 0.27,2.059 -0.939,2.655 -0.914,0.451 -0.949,0.426 -1.108,-0.785 l 0,0 z"
   inkscape:connector-curvature="0"
   id="path8112" />
	<path
   d="m 16.07,85.156 c -0.206,-1.579 1.144,-2.812 2.181,-1.991 0.831,0.657 0.286,2.193 -1.001,2.829 -0.973,0.48 -1.011,0.453 -1.18,-0.838 l 0,0 z"
   inkscape:connector-curvature="0"
   id="path8114" />
	<path
   d="m 87.184,120.769 c -0.235,-1.803 1.304,-3.209 2.487,-2.272 0.948,0.75 0.327,2.503 -1.143,3.228 -1.109,0.546 -1.151,0.516 -1.344,-0.956 l 0,0 z"
   inkscape:connector-curvature="0"
   id="path8116" />
	<path
   d="m 37.263,233.68 c -0.234,-1.803 1.305,-3.209 2.488,-2.272 0.947,0.75 0.326,2.503 -1.144,3.228 -1.109,0.547 -1.15,0.517 -1.344,-0.956 l 0,0 z"
   inkscape:connector-curvature="0"
   id="path8118" />
	<path
   d="m 113.572,94.325 c -0.281,-2.16 1.563,-3.843 2.98,-2.722 1.135,0.899 0.392,2.999 -1.369,3.866 -1.329,0.656 -1.38,0.619 -1.611,-1.144 l 0,0 z"
   inkscape:connector-curvature="0"
   id="path8120" />
	<path
   d="m 286.703,101.68 c -0.349,-2.677 1.938,-4.765 3.694,-3.374 1.406,1.113 0.484,3.715 -1.698,4.792 -1.646,0.812 -1.709,0.767 -1.996,-1.418 l 0,0 z"
   inkscape:connector-curvature="0"
   id="path8122" />
	<path
   d="m 289.947,77.476 c -0.269,-2.062 1.491,-3.669 2.846,-2.599 1.083,0.857 0.373,2.862 -1.307,3.691 -1.27,0.626 -1.319,0.592 -1.539,-1.092 l 0,0 0,0 z"
   inkscape:connector-curvature="0"
   id="path8124" />
	<path
   d="m 323.932,119 c -1.171,-1.67 -0.368,-3.864 1.291,-3.548 1.33,0.254 1.622,2.316 0.54,3.799 -0.82,1.119 -0.876,1.111 -1.831,-0.251 l 0,0 z"
   inkscape:connector-curvature="0"
   id="path8126" />
	<path
   d="m 336.916,118.072 c -2.208,-0.807 -2.9,-3.41 -1.119,-4.207 1.425,-0.639 3.063,1.119 3.015,3.237 -0.033,1.597 -0.096,1.628 -1.896,0.97 l 0,0 z"
   inkscape:connector-curvature="0"
   id="path8128" />
	<path
   d="m 358.976,515.453 c -1.188,-1.698 -0.373,-3.931 1.317,-3.606 1.354,0.257 1.652,2.355 0.549,3.865 -0.836,1.137 -0.894,1.128 -1.866,-0.259 l 0,0 z"
   inkscape:connector-curvature="0"
   id="path8130" />
	<path
   d="m 447.662,531.577 c -1.188,-1.698 -0.374,-3.931 1.316,-3.608 1.355,0.259 1.651,2.357 0.548,3.866 -0.833,1.138 -0.893,1.129 -1.864,-0.258 l 0,0 0,0 z"
   inkscape:connector-curvature="0"
   id="path8132" />
	<path
   d="m 5.179,503.485 c -1.188,-1.698 -0.374,-3.932 1.316,-3.606 1.354,0.257 1.651,2.355 0.547,3.864 -0.833,1.138 -0.891,1.129 -1.863,-0.258 l 0,0 z"
   inkscape:connector-curvature="0"
   id="path8134" />
	<path
   d="m 458.189,565.241 c -1.188,-1.698 -0.374,-3.931 1.316,-3.606 1.354,0.257 1.651,2.355 0.548,3.865 -0.834,1.137 -0.894,1.128 -1.864,-0.259 l 0,0 0,0 z"
   inkscape:connector-curvature="0"
   id="path8136" />
	<path
   d="m 407.094,426.133 c -1.188,-1.698 -0.373,-3.932 1.317,-3.608 1.355,0.259 1.652,2.357 0.549,3.865 -0.836,1.137 -0.893,1.129 -1.866,-0.257 l 0,0 0,0 z"
   inkscape:connector-curvature="0"
   id="path8138" />
	<path
   d="m 246.124,249.002 c -1.188,-1.699 -0.374,-3.931 1.316,-3.609 1.354,0.258 1.65,2.357 0.547,3.865 -0.832,1.138 -0.892,1.131 -1.863,-0.256 l 0,0 z"
   inkscape:connector-curvature="0"
   id="path8140" />
	<path
   d="m 291.277,254.703 c -1.189,-1.699 -0.375,-3.931 1.315,-3.609 1.354,0.258 1.65,2.357 0.548,3.865 -0.833,1.138 -0.893,1.13 -1.863,-0.256 l 0,0 z"
   inkscape:connector-curvature="0"
   id="path8142" />
	<path
   d="m 310.515,257.062 c -1.188,-1.699 -0.372,-3.931 1.317,-3.609 1.354,0.258 1.649,2.357 0.546,3.865 -0.833,1.139 -0.891,1.13 -1.863,-0.256 l 0,0 z"
   inkscape:connector-curvature="0"
   id="path8144" />
	<path
   d="m 347.049,306.608 c -1.188,-1.699 -0.372,-3.931 1.317,-3.607 1.354,0.258 1.65,2.355 0.547,3.865 -0.834,1.137 -0.891,1.129 -1.864,-0.258 l 0,0 z"
   inkscape:connector-curvature="0"
   id="path8146" />
	<path
   d="m 447.662,377.119 c -1.188,-1.699 -0.374,-3.931 1.316,-3.609 1.355,0.258 1.651,2.357 0.548,3.865 -0.833,1.139 -0.893,1.131 -1.864,-0.256 l 0,0 0,0 z"
   inkscape:connector-curvature="0"
   id="path8148" />
	<path
   d="m 480.625,331.382 c -1.188,-1.699 -0.374,-3.931 1.317,-3.609 1.354,0.258 1.652,2.357 0.546,3.865 -0.832,1.138 -0.89,1.13 -1.863,-0.256 l 0,0 z"
   inkscape:connector-curvature="0"
   id="path8150" />
	<path
   d="m 432.038,277.826 c -1.188,-1.699 -0.374,-3.931 1.316,-3.609 1.355,0.258 1.653,2.357 0.549,3.865 -0.834,1.139 -0.892,1.13 -1.865,-0.256 l 0,0 0,0 z"
   inkscape:connector-curvature="0"
   id="path8152" />
	<path
   d="m 365.063,222.715 c -1.188,-1.699 -0.373,-3.931 1.317,-3.609 1.354,0.258 1.652,2.357 0.547,3.865 -0.833,1.139 -0.894,1.132 -1.864,-0.256 l 0,0 0,0 z"
   inkscape:connector-curvature="0"
   id="path8154" />
	<path
   d="m 495.086,225.075 c -1.189,-1.699 -0.374,-3.932 1.316,-3.609 1.355,0.258 1.653,2.356 0.546,3.865 -0.832,1.138 -0.891,1.13 -1.862,-0.256 l 0,0 z"
   inkscape:connector-curvature="0"
   id="path8156" />
	<path
   d="m 525.32,229.792 c -1.188,-1.699 -0.374,-3.931 1.316,-3.609 1.355,0.258 1.653,2.357 0.548,3.865 -0.834,1.14 -0.893,1.131 -1.864,-0.256 l 0,0 0,0 z"
   inkscape:connector-curvature="0"
   id="path8158" />
	<text
   font-size="12.4374"
   transform="translate(234.4895,221.4326)"
   id="text8160"
   style="font-size:12.43739986px;font-family:TimesNewRomanPSMT">Hosp</text>

	<text
   font-size="12.4374"
   transform="translate(204.8792,399.5088)"
   id="text8162"
   style="font-size:12.43739986px;font-family:TimesNewRomanPSMT">Hotel</text>

	<text
   font-size="12.4374"
   transform="translate(366.05,291.5654)"
   id="text8164"
   style="font-size:12.43739986px;font-family:TimesNewRomanPSMT">Hotels</text>

	<text
   font-size="12.4374"
   transform="translate(209.0291,437.8799)"
   id="text8166"
   style="font-size:12.43739986px;font-family:TimesNewRomanPSMT">Swimming pool</text>

	<text
   font-size="14.5103"
   transform="translate(210.0725,291.5654)"
   id="text8168"
   style="font-size:14.51029968px;font-family:TimesNewRomanPSMT">PS</text>

	<text
   font-size="14.5103"
   transform="translate(269.7463,308.666)"
   id="text8170"
   style="font-size:14.51029968px;font-family:TimesNewRomanPSMT">DC</text>

	<text
   font-size="14.5103"
   transform="translate(110.6365,282.2451)"
   id="text8172"
   style="font-size:14.51029968px;font-family:TimesNewRomanPSMT">CCO</text>

	<text
   font-size="14.5103"
   transform="translate(72.2834,467.3799)"
   id="text8174"
   style="font-size:14.51029968px;font-family:TimesNewRomanPSMT">MOKA</text>

	<text
   font-size="14.5103"
   transform="translate(72.2834,484.791)"
   id="text8176"
   style="font-size:14.51029968px;font-family:TimesNewRomanPSMT">LOCATION</text>

	<text
   font-size="14.5103"
   transform="translate(400.8303,330.0986)"
   id="text8178"
   style="font-size:14.51029968px;font-family:TimesNewRomanPSMT">ROTI</text>

	<text
   font-size="14.5103"
   transform="translate(400.8303,347.5107)"
   id="text8180"
   style="font-size:14.51029968px;font-family:TimesNewRomanPSMT">LOCATION</text>

	<text
   font-size="14.5103"
   transform="translate(423.6272,184.2012)"
   id="text8182"
   style="font-size:14.51029968px;font-family:TimesNewRomanPSMT">PATU</text>

	<text
   font-size="14.5103"
   transform="translate(405.4983,201.6133)"
   id="text8184"
   style="font-size:14.51029968px;font-family:TimesNewRomanPSMT">LOCATION</text>

	<text
   font-size="14.5103"
   transform="translate(211.4788,335.7998)"
   id="text8186"
   style="font-size:14.51029968px;font-family:TimesNewRomanPSMT">TIMO </text>

	<text
   font-size="14.5103"
   transform="translate(210.0725,353.2119)"
   id="text8188"
   style="font-size:14.51029968px;font-family:TimesNewRomanPSMT">TOWN</text>

	<text
   font-size="12.4374"
   transform="translate(98.4729,411.1152)"
   id="text8190"
   style="font-size:12.43739986px;font-family:TimesNewRomanPSMT">ARMY</text>

	<text
   font-size="12.4374"
   transform="translate(98.4729,426.041)"
   id="text8192"
   style="font-size:12.43739986px;font-family:TimesNewRomanPSMT">BARRACKS</text>

	<text
   font-size="14.5103"
   transform="translate(334.094,445.6514)"
   id="text8194"
   style="font-size:14.51029968px;font-family:TimesNewRomanPSMT">Sch</text>

	<text
   font-size="14.5103"
   transform="translate(329.5354,475.542)"
   id="text8196"
   style="font-size:14.51029968px;font-family:TimesNewRomanPSMT">Shops</text>

	<text
   font-size="14.5103"
   transform="translate(427.3079,484.3457)"
   id="text8198"
   style="font-size:14.51029968px;font-family:TimesNewRomanPSMT">Mkt</text>

	<text
   font-size="14.5103"
   transform="translate(202.1521,104.3467)"
   id="text8200"
   style="font-size:14.51029968px;font-family:TimesNewRomanPSMT">Mkt</text>

	<text
   font-size="14.5103"
   transform="translate(483.1633,554.124)"
   id="text8202"
   style="font-size:14.51029968px;font-family:TimesNewRomanPSMT">Cattle </text>

	<text
   font-size="14.5103"
   transform="translate(483.1633,568.4268)"
   id="text8204"
   style="font-size:14.51029968px;font-family:TimesNewRomanPSMT">dip</text>

	<text
   font-size="14.5103"
   transform="translate(375.7249,508.0127)"
   id="text8206"
   style="font-size:14.51029968px;font-family:TimesNewRomanPSMT">CC</text>

	<text
   font-size="14.5103"
   transform="translate(297.9641,374.0508)"
   id="text8208"
   style="font-size:14.51029968px;font-family:TimesNewRomanPSMT">Sch</text>

	<text
   font-size="14.5103"
   transform="translate(371.7522,113.7314)"
   id="text8210"
   style="font-size:14.51029968px;font-family:TimesNewRomanPSMT">Coffee</text>

	<text
   font-size="14.5103"
   transform="translate(371.7522,128.0342)"
   id="text8212"
   style="font-size:14.51029968px;font-family:TimesNewRomanPSMT">factory</text>

	<text
   font-size="14.5103"
   transform="translate(151.6794,146.4854)"
   id="text8214"
   style="font-size:14.51029968px;font-family:TimesNewRomanPSMT">Cultral</text>

	<text
   font-size="14.5103"
   transform="translate(151.6794,160.7891)"
   id="text8216"
   style="font-size:14.51029968px;font-family:TimesNewRomanPSMT">centre</text>

	<text
   font-size="14.5103"
   transform="translate(67.4666,95.8604)"
   id="text8218"
   style="font-size:14.51029968px;font-family:TimesNewRomanPSMT">Wete</text>

	<text
   font-size="14.5103"
   transform="translate(67.4666,110.1631)"
   id="text8220"
   style="font-size:14.51029968px;font-family:TimesNewRomanPSMT">sch</text>

	<text
   font-size="14.5103"
   transform="translate(37.2395,76.7344)"
   id="text8222"
   style="font-size:14.51029968px;font-family:TimesNewRomanPSMT">BH</text>

	<text
   font-size="14.5103"
   transform="translate(40.9265,148.8799)"
   id="text8224"
   style="font-size:14.51029968px;font-family:TimesNewRomanPSMT">ZIME</text>

	<text
   font-size="14.5103"
   transform="translate(21.5803,163.1826)"
   id="text8226"
   style="font-size:14.51029968px;font-family:TimesNewRomanPSMT">LOCATION</text>

	<text
   font-size="14.5103"
   transform="translate(9.2673,217.4619)"
   id="text8228"
   style="font-size:14.51029968px;font-family:TimesNewRomanPSMT">Stadium</text>

	<path
   d="m 95.541,426.369 c 0.544,4.768 74.81,4.18 81.854,4.462 -1.855,-2.394 -10.014,-8.678 -10.3,-11.433 -0.256,-2.458 -4.443,-9.729 -5.053,-11.143 -0.662,-1.533 -5.87,-8.453 -8.119,-8.453 -7.14,0 -57.708,-2.181 -57.708,-2.181 0,0 -0.367,4.539 -0.506,5.978 -0.212,2.189 -1.252,4.394 -1.382,6.529 -0.256,4.261 0.266,12.306 1.214,16.241"
   stroke-miterlimit="10"
   inkscape:connector-curvature="0"
   id="path8230"
   style="fill:none;stroke:#000000;stroke-width:2;stroke-miterlimit:10" />
	
		<ellipse
   ry="4.6529999"
   rx="4.2309999"
   cy="69.769997"
   cx="29.982"
   stroke-miterlimit="10"
   sodipodi:ry="4.6529999"
   sodipodi:rx="4.2309999"
   sodipodi:cx="29.982"
   sodipodi:cy="69.769997"
   id="ellipse8232"
   style="fill:none;stroke:#000000;stroke-width:2;stroke-miterlimit:10"
   d="m 34.213,69.769997 c 0,2.569781 -1.894283,4.653 -4.231,4.653 -2.336716,0 -4.231,-2.083219 -4.231,-4.653 0,-2.569781 1.894284,-4.653 4.231,-4.653 2.336717,0 4.231,2.083219 4.231,4.653 z">
	</ellipse>
	
		<line
   y2="77.540001"
   x2="440.50299"
   y1="52.492001"
   x1="440.50299"
   stroke-miterlimit="10"
   id="line8234"
   style="fill:none;stroke:#000000;stroke-width:2;stroke-miterlimit:10" />
	
		<line
   y2="115.421"
   x2="451.905"
   y1="52.492001"
   x1="451.905"
   stroke-miterlimit="10"
   id="line8236"
   style="fill:none;stroke:#000000;stroke-width:2;stroke-miterlimit:10" />
	
		<line
   y2="131.245"
   x2="463.30499"
   y1="52.492001"
   x1="463.30499"
   stroke-miterlimit="10"
   id="line8238"
   style="fill:none;stroke:#000000;stroke-width:2;stroke-miterlimit:10" />
	
		<line
   y2="138.44"
   x2="474.70599"
   y1="52.492001"
   x1="474.70599"
   stroke-miterlimit="10"
   id="line8240"
   style="fill:none;stroke:#000000;stroke-width:2;stroke-miterlimit:10" />
	
		<line
   y2="143.65199"
   x2="486.108"
   y1="52.492001"
   x1="486.108"
   stroke-miterlimit="10"
   id="line8242"
   style="fill:none;stroke:#000000;stroke-width:2;stroke-miterlimit:10" />
	
		<line
   y2="148.881"
   x2="497.508"
   y1="52.492001"
   x1="497.508"
   stroke-miterlimit="10"
   id="line8244"
   style="fill:none;stroke:#000000;stroke-width:2;stroke-miterlimit:10" />
	
		<line
   y2="152.683"
   x2="508.909"
   y1="52.492001"
   x1="508.909"
   stroke-miterlimit="10"
   id="line8246"
   style="fill:none;stroke:#000000;stroke-width:2;stroke-miterlimit:10" />
	
		<line
   y2="158.55499"
   x2="520.31"
   y1="52.492001"
   x1="520.31"
   stroke-miterlimit="10"
   id="line8248"
   style="fill:none;stroke:#000000;stroke-width:2;stroke-miterlimit:10" />
	
		<line
   y2="163.271"
   x2="531.711"
   y1="52.492001"
   x1="531.711"
   stroke-miterlimit="10"
   id="line8250"
   style="fill:none;stroke:#000000;stroke-width:2;stroke-miterlimit:10" />
	
		<line
   y2="153.48399"
   x2="508.909"
   y1="153.48399"
   x1="542.53302"
   stroke-miterlimit="10"
   id="line8252"
   style="fill:none;stroke:#000000;stroke-width:2;stroke-miterlimit:10" />
	
		<line
   y2="142.08299"
   x2="483.16199"
   y1="142.08299"
   x1="542.53302"
   stroke-miterlimit="10"
   id="line8254"
   style="fill:none;stroke:#000000;stroke-width:2;stroke-miterlimit:10" />
	
		<line
   y2="130.683"
   x2="463.78101"
   y1="130.683"
   x1="542.53302"
   stroke-miterlimit="10"
   id="line8256"
   style="fill:none;stroke:#000000;stroke-width:2;stroke-miterlimit:10" />
	
		<line
   y2="119.282"
   x2="454.246"
   y1="119.282"
   x1="542.53302"
   stroke-miterlimit="10"
   id="line8258"
   style="fill:none;stroke:#000000;stroke-width:2;stroke-miterlimit:10" />
	
		<line
   y2="107.881"
   x2="449.33801"
   y1="107.881"
   x1="542.53302"
   stroke-miterlimit="10"
   id="line8260"
   style="fill:none;stroke:#000000;stroke-width:2;stroke-miterlimit:10" />
	
		<line
   y2="96.478996"
   x2="446.14401"
   y1="96.478996"
   x1="542.53302"
   stroke-miterlimit="10"
   id="line8262"
   style="fill:none;stroke:#000000;stroke-width:2;stroke-miterlimit:10" />
	
		<line
   y2="85.079002"
   x2="442.34201"
   y1="85.079002"
   x1="542.53302"
   stroke-miterlimit="10"
   id="line8264"
   style="fill:none;stroke:#000000;stroke-width:2;stroke-miterlimit:10" />
	
		<line
   y2="73.678001"
   x2="439.13101"
   y1="73.678001"
   x1="542.53302"
   stroke-miterlimit="10"
   id="line8266"
   style="fill:none;stroke:#000000;stroke-width:2;stroke-miterlimit:10" />
	
		<line
   y2="62.277"
   x2="431.75201"
   y1="62.277"
   x1="542.53302"
   stroke-miterlimit="10"
   id="line8268"
   style="fill:none;stroke:#000000;stroke-width:2;stroke-miterlimit:10" />
	<line
   y2="310.138"
   x2="510.10001"
   y1="286.73001"
   x1="542.42102"
   stroke-miterlimit="10"
   id="line8270"
   style="fill:none;stroke:#000000;stroke-miterlimit:10" />
	<line
   y2="331.271"
   x2="486.272"
   y1="291.26401"
   x1="542.42102"
   stroke-miterlimit="10"
   id="line8272"
   style="fill:none;stroke:#000000;stroke-miterlimit:10" />
	<line
   y2="341.13101"
   x2="479.319"
   y1="295.797"
   x1="542.42102"
   stroke-miterlimit="10"
   id="line8274"
   style="fill:none;stroke:#000000;stroke-miterlimit:10" />
	<line
   y2="348.30301"
   x2="475.19699"
   y1="300.32999"
   x1="542.42102"
   stroke-miterlimit="10"
   id="line8276"
   style="fill:none;stroke:#000000;stroke-miterlimit:10" />
	<line
   y2="357.37"
   x2="469.07199"
   y1="304.86401"
   x1="542.42102"
   stroke-miterlimit="10"
   id="line8278"
   style="fill:none;stroke:#000000;stroke-miterlimit:10" />
	<line
   y2="367.862"
   x2="461.43799"
   y1="309.397"
   x1="542.42102"
   stroke-miterlimit="10"
   id="line8280"
   style="fill:none;stroke:#000000;stroke-miterlimit:10" />
	<line
   y2="378.14001"
   x2="455.02399"
   y1="313.931"
   x1="542.42102"
   stroke-miterlimit="10"
   id="line8282"
   style="fill:none;stroke:#000000;stroke-miterlimit:10" />
	<line
   y2="384.57001"
   x2="452.26901"
   y1="318.46399"
   x1="542.42102"
   stroke-miterlimit="10"
   id="line8284"
   style="fill:none;stroke:#000000;stroke-miterlimit:10" />
	<line
   y2="391"
   x2="450.20001"
   y1="322.99799"
   x1="542.42102"
   stroke-miterlimit="10"
   id="line8286"
   style="fill:none;stroke:#000000;stroke-miterlimit:10" />
	<line
   y2="394.78"
   x2="450.20001"
   y1="327.53101"
   x1="542.42102"
   stroke-miterlimit="10"
   id="line8288"
   style="fill:none;stroke:#000000;stroke-miterlimit:10" />
	<line
   y2="398.797"
   x2="450.20001"
   y1="332.064"
   x1="542.42102"
   stroke-miterlimit="10"
   id="line8290"
   style="fill:none;stroke:#000000;stroke-miterlimit:10" />
	<line
   y2="403.33099"
   x2="450.20001"
   y1="336.59799"
   x1="542.42102"
   stroke-miterlimit="10"
   id="line8292"
   style="fill:none;stroke:#000000;stroke-miterlimit:10" />
	<line
   y2="408.384"
   x2="450.20001"
   y1="341.13101"
   x1="542.42102"
   stroke-miterlimit="10"
   id="line8294"
   style="fill:none;stroke:#000000;stroke-miterlimit:10" />
	<line
   y2="412.604"
   x2="450.58899"
   y1="345.66501"
   x1="542.42102"
   stroke-miterlimit="10"
   id="line8296"
   style="fill:none;stroke:#000000;stroke-miterlimit:10" />
	<line
   y2="416.82901"
   x2="451.35901"
   y1="350.198"
   x1="542.42102"
   stroke-miterlimit="10"
   id="line8298"
   style="fill:none;stroke:#000000;stroke-miterlimit:10" />
	<line
   y2="419.914"
   x2="452.26901"
   y1="354.73099"
   x1="542.42102"
   stroke-miterlimit="10"
   id="line8300"
   style="fill:none;stroke:#000000;stroke-miterlimit:10" />
	<line
   y2="424.048"
   x2="453.32401"
   y1="359.26501"
   x1="542.42102"
   stroke-miterlimit="10"
   id="line8302"
   style="fill:none;stroke:#000000;stroke-miterlimit:10" />
	<line
   y2="427.26801"
   x2="455.02399"
   y1="363.798"
   x1="542.42102"
   stroke-miterlimit="10"
   id="line8304"
   style="fill:none;stroke:#000000;stroke-miterlimit:10" />
	<line
   y2="431.18799"
   x2="456.12601"
   y1="368.332"
   x1="542.42102"
   stroke-miterlimit="10"
   id="line8306"
   style="fill:none;stroke:#000000;stroke-miterlimit:10" />
	<line
   y2="434.43799"
   x2="457.698"
   y1="372.86499"
   x1="542.42102"
   stroke-miterlimit="10"
   id="line8308"
   style="fill:none;stroke:#000000;stroke-miterlimit:10" />
	<line
   y2="437.879"
   x2="459.57001"
   y1="377.39899"
   x1="542.42102"
   stroke-miterlimit="10"
   id="line8310"
   style="fill:none;stroke:#000000;stroke-miterlimit:10" />
	<line
   y2="440.867"
   x2="460.92999"
   y1="381.93201"
   x1="542.42102"
   stroke-miterlimit="10"
   id="line8312"
   style="fill:none;stroke:#000000;stroke-miterlimit:10" />
	<line
   y2="442.97601"
   x2="463.909"
   y1="386.46701"
   x1="542.42102"
   stroke-miterlimit="10"
   id="line8314"
   style="fill:none;stroke:#000000;stroke-miterlimit:10" />
	<line
   y2="446.14301"
   x2="465.724"
   y1="391"
   x1="542.42102"
   stroke-miterlimit="10"
   id="line8316"
   style="fill:none;stroke:#000000;stroke-miterlimit:10" />
	<line
   y2="449.93399"
   x2="468.185"
   y1="395.534"
   x1="542.42102"
   stroke-miterlimit="10"
   id="line8318"
   style="fill:none;stroke:#000000;stroke-miterlimit:10" />
	<line
   y2="452.57199"
   x2="470.517"
   y1="400.06699"
   x1="542.42102"
   stroke-miterlimit="10"
   id="line8320"
   style="fill:none;stroke:#000000;stroke-miterlimit:10" />
	<line
   y2="455.20999"
   x2="472.24701"
   y1="404.60101"
   x1="542.42102"
   stroke-miterlimit="10"
   id="line8322"
   style="fill:none;stroke:#000000;stroke-miterlimit:10" />
	<line
   y2="458.349"
   x2="475.09698"
   y1="409.134"
   x1="542.42102"
   stroke-miterlimit="10"
   id="line8324"
   style="fill:none;stroke:#000000;stroke-miterlimit:10" />
	<line
   y2="461.00101"
   x2="477.62399"
   y1="413.66599"
   x1="542.42102"
   stroke-miterlimit="10"
   id="line8326"
   style="fill:none;stroke:#000000;stroke-miterlimit:10" />
	<line
   y2="463.535"
   x2="480.11401"
   y1="418.20099"
   x1="542.42102"
   stroke-miterlimit="10"
   id="line8328"
   style="fill:none;stroke:#000000;stroke-miterlimit:10" />
	<line
   y2="466.17099"
   x2="482.71899"
   y1="422.733"
   x1="542.42102"
   stroke-miterlimit="10"
   id="line8330"
   style="fill:none;stroke:#000000;stroke-miterlimit:10" />
	<line
   y2="469.05099"
   x2="485.62601"
   y1="427.26801"
   x1="542.42102"
   stroke-miterlimit="10"
   id="line8332"
   style="fill:none;stroke:#000000;stroke-miterlimit:10" />
	<line
   y2="471.38501"
   x2="488.09299"
   y1="431.79999"
   x1="542.42102"
   stroke-miterlimit="10"
   id="line8334"
   style="fill:none;stroke:#000000;stroke-miterlimit:10" />
	<line
   y2="473.70599"
   x2="490.70499"
   y1="436.33499"
   x1="542.42102"
   stroke-miterlimit="10"
   id="line8336"
   style="fill:none;stroke:#000000;stroke-miterlimit:10" />
	<line
   y2="476.246"
   x2="493.85501"
   y1="440.867"
   x1="542.42102"
   stroke-miterlimit="10"
   id="line8338"
   style="fill:none;stroke:#000000;stroke-miterlimit:10" />
	<line
   y2="478.41699"
   x2="496.983"
   y1="445.401"
   x1="542.42102"
   stroke-miterlimit="10"
   id="line8340"
   style="fill:none;stroke:#000000;stroke-miterlimit:10" />
	<line
   y2="480.547"
   x2="500.96301"
   y1="449.93399"
   x1="542.42102"
   stroke-miterlimit="10"
   id="line8342"
   style="fill:none;stroke:#000000;stroke-miterlimit:10" />
	<line
   y2="482.70401"
   x2="504.073"
   y1="454.46899"
   x1="542.42102"
   stroke-miterlimit="10"
   id="line8344"
   style="fill:none;stroke:#000000;stroke-miterlimit:10" />
	<line
   y2="485.63599"
   x2="506.46899"
   y1="459.00101"
   x1="542.42102"
   stroke-miterlimit="10"
   id="line8346"
   style="fill:none;stroke:#000000;stroke-miterlimit:10" />
	<line
   y2="488.306"
   x2="508.155"
   y1="463.535"
   x1="542.42102"
   stroke-miterlimit="10"
   id="line8348"
   style="fill:none;stroke:#000000;stroke-miterlimit:10" />
	<line
   y2="491.478"
   x2="510.10001"
   y1="468.06699"
   x1="542.42102"
   stroke-miterlimit="10"
   id="line8350"
   style="fill:none;stroke:#000000;stroke-miterlimit:10" />
	<line
   y2="494.22299"
   x2="512.57098"
   y1="472.603"
   x1="542.42102"
   stroke-miterlimit="10"
   id="line8352"
   style="fill:none;stroke:#000000;stroke-miterlimit:10" />
	<line
   y2="496.81"
   x2="515.25598"
   y1="477.13501"
   x1="542.42102"
   stroke-miterlimit="10"
   id="line8354"
   style="fill:none;stroke:#000000;stroke-miterlimit:10" />
	<line
   y2="499.20599"
   x2="517.33398"
   y1="481.66901"
   x1="542.42102"
   stroke-miterlimit="10"
   id="line8356"
   style="fill:none;stroke:#000000;stroke-miterlimit:10" />
	<line
   y2="500.62601"
   x2="521.69202"
   y1="486.202"
   x1="542.42102"
   stroke-miterlimit="10"
   id="line8358"
   style="fill:none;stroke:#000000;stroke-miterlimit:10" />
	<line
   y2="502.439"
   x2="526.26099"
   y1="490.737"
   x1="542.42102"
   stroke-miterlimit="10"
   id="line8360"
   style="fill:none;stroke:#000000;stroke-miterlimit:10" />
	<line
   y2="502.672"
   x2="531.56"
   y1="495.26999"
   x1="542.42102"
   stroke-miterlimit="10"
   id="line8362"
   style="fill:none;stroke:#000000;stroke-miterlimit:10" />
	<path
   d="m 486.452,51.455 c 2.812,26.3 -33.853,47.603 -52.105,61.903 -19.314,15.131 -34.182,38.845 -52.402,54.357 -3.908,8.452 -4.087,14.98 -6.313,24.437 -1.916,8.128 -9.286,17.927 -13.292,25.366 -8.493,15.772 -26.67,35.927 -17.86,52.11 9.308,17.102 14.488,34.08 10.301,50.268 -2.028,7.845 -3.749,37.344 1.136,58.042 7.658,32.456 49.867,54.241 69.388,59.941 17.547,5.123 39.974,12.446 57.86,18.1 19.62,6.204 27.252,14.596 45.785,27.672 9.255,6.531 7.255,10.025 14.072,14.689"
   stroke-miterlimit="10"
   inkscape:connector-curvature="0"
   id="path8364"
   style="fill:none;stroke:#000000;stroke-width:1.20000005;stroke-miterlimit:10" />
	<line
   y2="282.245"
   x2="542.42102"
   y1="295.797"
   x1="520.34302"
   stroke-miterlimit="10"
   id="line8366"
   style="fill:none;stroke:#000000;stroke-miterlimit:10" />
</g><text
     font-size="9.3289"
     transform="matrix(0.231,-0.973,0.973,0.231,374.9182,187.2715)"
     id="text8368"
     style="font-size:9.32890034px;font-family:TimesNewRomanPSMT">River</text>
<text
     font-size="9.3282"
     transform="matrix(0.6547,-0.7559,0.7559,0.6547,382.8889,163.1831)"
     id="text8370"
     style="font-size:9.32820034px;font-family:TimesNewRomanPSMT">patu</text>
<g
     id="g7614">
	<rect
   id="rect7616"
   height="34.16"
   width="62.198002"
   y="378.45401"
   x="468.17401"
   style="fill:#ffffff" />
	<text
   id="text7618"
   transform="translate(474.3723,390.9199)"><tspan
     id="tspan7620"
     font-size="12"
     y="0"
     x="0"
     style="font-size:12px;font-family:MyriadPro-Regular">Maize</tspan><tspan
     id="tspan7622"
     font-size="12"
     y="14.4"
     x="0"
     style="font-size:12px;font-family:MyriadPro-Regular">Plantation</tspan></text>

</g></g></svg>