<?xml version="1.0" encoding="UTF-8" standalone="no"?>
<!-- Generator: Adobe Illustrator 16.0.0, SVG Export Plug-In . SVG Version: 6.00 Build 0)  -->

<svg
   xmlns:dc="http://purl.org/dc/elements/1.1/"
   xmlns:cc="http://creativecommons.org/ns#"
   xmlns:rdf="http://www.w3.org/1999/02/22-rdf-syntax-ns#"
   xmlns:svg="http://www.w3.org/2000/svg"
   xmlns="http://www.w3.org/2000/svg"
   xmlns:sodipodi="http://sodipodi.sourceforge.net/DTD/sodipodi-0.dtd"
   xmlns:inkscape="http://www.inkscape.org/namespaces/inkscape"
   version="1.0"
   id="Layer_1"
   x="0px"
   y="0px"
   viewBox="0 0 199.53125 112.03125"
   enable-background="new 0 0 437 54"
   xml:space="preserve"
   inkscape:version="0.48.4 r9939"
   width="100%"
   height="100%"
   sodipodi:docname="Qn19.svg"><metadata
   id="metadata3203"><rdf:RDF><cc:Work
       rdf:about=""><dc:format>image/svg+xml</dc:format><dc:type
         rdf:resource="http://purl.org/dc/dcmitype/StillImage" /><dc:title></dc:title></cc:Work></rdf:RDF></metadata><defs
   id="defs3201" /><sodipodi:namedview
   pagecolor="#ffffff"
   bordercolor="#666666"
   borderopacity="1"
   objecttolerance="10"
   gridtolerance="10"
   guidetolerance="10"
   inkscape:pageopacity="0"
   inkscape:pageshadow="2"
   inkscape:window-width="1280"
   inkscape:window-height="716"
   id="namedview3199"
   showgrid="false"
   inkscape:zoom="1.7803204"
   inkscape:cx="99.75775"
   inkscape:cy="56.017501"
   inkscape:window-x="-8"
   inkscape:window-y="-8"
   inkscape:window-maximized="1"
   inkscape:current-layer="Layer_1"
   inkscape:showpageshadow="false"
   showborder="false"
   fit-margin-top="0"
   fit-margin-left="0"
   fit-margin-right="0"
   fit-margin-bottom="0" />
<g
   id="Intel_Skoool_Logo"
   transform="translate(-118.74225,29.013749)">
	<g
   id="g3097">
		<g
   id="g3099">
			<g
   id="g3101">
				<g
   id="g3103">
					<path
   d="M 38.236,43.095 C 25.511,44.276 12.238,42.43 10.381,32.489 9.472,27.559 11.706,22.373 14.675,19.144 V 17.415 C 9.329,22.082 6.431,28.021 8.103,35.025 10.235,43.988 21.619,49.088 39,47.39 45.889,46.725 54.882,44.506 61.15,41.077 v -4.871 c -5.692,3.369 -15.076,6.169 -22.914,6.889 z M 71.771,17.297 C 68.758,2.539 40.137,1.619 21.676,12.86 v 1.238 C 40.11,4.616 66.251,4.674 68.63,18.25 c 0.808,4.493 -1.73,9.192 -6.241,11.873 v 3.517 c 5.434,-1.99 11.009,-8.445 9.382,-16.343 z"
   id="path3105"
   inkscape:connector-curvature="0"
   style="fill:#ffffff" />
					<path
   d="m 60.114,15.165 h -3.346 v 14.843 c 0,1.758 0.851,3.258 3.346,3.516 V 15.165 z"
   id="path3107"
   inkscape:connector-curvature="0"
   style="fill:#ffffff" />
					<path
   d="m 20.365,20.584 h -3.343 v 9.713 c 0,1.73 0.852,3.258 3.343,3.487 v -13.2 z"
   id="path3109"
   inkscape:connector-curvature="0"
   style="fill:#ffffff" />
					<rect
   x="17.021999"
   y="15.597"
   width="3.3310001"
   height="3.1700001"
   id="rect3111"
   style="fill:#ffffff" />
					<path
   d="m 40.354,33.64 c -2.694,0 -3.833,-1.874 -3.833,-3.718 V 17.009 h 3.3 v 3.575 h 2.494 v 2.681 h -2.494 v 6.456 c 0,0.748 0.346,1.151 1.138,1.151 h 1.356 v 2.768 h -1.961"
   id="path3113"
   inkscape:connector-curvature="0"
   style="fill:#ffffff" />
					<path
   d="m 46.45,28.136 c 0,1.7 1.066,2.941 2.926,2.941 1.469,0 2.192,-0.406 3.039,-1.241 l 2.049,1.959 c -1.312,1.268 -2.683,2.076 -5.118,2.076 -3.156,0 -6.196,-1.729 -6.196,-6.773 0,-4.295 2.666,-6.745 6.141,-6.745 3.531,0 5.563,2.852 5.563,6.6 v 1.183 H 46.45 m 2.679,-5.046 c -1.122,0 -2.001,0.579 -2.362,1.384 -0.215,0.463 -0.301,0.835 -0.316,1.412 h 5.101 C 51.48,24.474 50.845,23.09 49.129,23.09 z"
   id="path3115"
   inkscape:connector-curvature="0"
   style="fill:#ffffff" />
					<path
   d="m 29.359,23.265 c 0.966,0 1.367,0.459 1.367,1.239 v 9.165 h 3.315 v -9.195 c 0,-1.844 -0.993,-3.89 -3.904,-3.89 h -6.832 v 13.085 h 3.314 V 23.265 h 2.74 z"
   id="path3117"
   inkscape:connector-curvature="0"
   style="fill:#ffffff" />
				</g>
			</g>
			<g
   id="g3119">
				<path
   d="m 64.003,19.056 c -1.08,0 -1.944,-0.866 -1.944,-1.961 0,-1.066 0.864,-1.93 1.944,-1.93 1.082,0 1.96,0.864 1.96,1.93 0,1.095 -0.879,1.961 -1.96,1.961 z m 0,-3.574 c -0.894,0 -1.614,0.719 -1.614,1.612 0,0.925 0.72,1.645 1.614,1.645 0.894,0 1.643,-0.719 1.643,-1.645 0,-0.892 -0.75,-1.612 -1.643,-1.612 z m 0.865,2.794 h -0.36 c -0.043,0 -0.057,0 -0.073,-0.058 l -0.504,-0.834 c -0.014,0 -0.058,-0.028 -0.07,-0.028 0,0 -0.074,0 -0.144,0 -0.03,0 -0.06,0 -0.073,0 v 0.834 c 0,0.028 -0.028,0.085 -0.086,0.085 h -0.332 c -0.043,0 -0.086,-0.058 -0.086,-0.085 v -2.104 c 0,-0.144 0.043,-0.174 0.159,-0.201 0.114,-0.028 0.418,-0.028 0.59,-0.028 0.62,0 0.98,0.171 0.98,0.748 v 0.03 c 0,0.374 -0.187,0.547 -0.445,0.633 l 0.517,0.893 c 0,0 0.014,0.029 0.014,0.057 -0.001,0.032 -0.016,0.058 -0.087,0.058 z m -0.475,-1.671 c 0,-0.23 -0.144,-0.316 -0.462,-0.316 -0.042,0 -0.145,0 -0.214,0 -0.043,0 -0.073,0 -0.101,0 v 0.69 c 0.057,0 0.272,0 0.315,0 0.319,0 0.462,-0.115 0.462,-0.344 v -0.03 z"
   id="path3121"
   inkscape:connector-curvature="0"
   style="fill:#ffffff" />
			</g>
		</g>
		<path
   d="m 148.08,16.8 v 2.097 h -0.41 V 16.8 h -0.753 v -0.325 h 1.92 V 16.8 h -0.757 z m 3.509,2.097 v -2.015 h -0.017 l -0.791,2.015 h -0.252 l -0.796,-2.015 h -0.011 v 2.015 h -0.396 v -2.422 h 0.617 l 0.722,1.841 0.712,-1.841 h 0.611 v 2.422 h -0.399 z"
   id="path3123"
   inkscape:connector-curvature="0"
   style="fill:#ffffff" />
		<g
   id="g3125">
			<path
   d="m 84.086,31.344 c 0.709,0 1.178,-0.1 1.414,-0.275 0.236,-0.186 0.352,-0.43 0.352,-0.746 0,-0.267 -0.076,-0.488 -0.228,-0.663 -0.151,-0.181 -0.418,-0.385 -0.802,-0.618 l -3.167,-1.949 c -0.601,-0.369 -1.069,-0.826 -1.43,-1.38 -0.351,-0.551 -0.523,-1.153 -0.523,-1.809 0,-2.317 1.471,-3.477 4.407,-3.477 1.522,0 2.874,0.254 4.053,0.759 0.173,0.069 0.299,0.145 0.373,0.23 0.074,0.088 0.113,0.211 0.113,0.37 v 1.415 c 0,0.34 -0.163,0.463 -0.486,0.374 -1.353,-0.432 -2.595,-0.645 -3.724,-0.645 -0.591,0 -1.016,0.063 -1.282,0.191 -0.266,0.129 -0.395,0.352 -0.395,0.668 0,0.176 0.036,0.314 0.104,0.427 0.074,0.109 0.174,0.207 0.291,0.299 0.12,0.091 0.299,0.202 0.535,0.34 l 3.035,1.856 c 0.878,0.535 1.473,1.072 1.775,1.613 0.302,0.536 0.451,1.121 0.451,1.75 0,0.729 -0.166,1.383 -0.507,1.961 -0.339,0.566 -0.857,1.018 -1.549,1.335 -0.688,0.315 -1.514,0.471 -2.482,0.471 -1.534,0 -2.895,-0.251 -4.083,-0.753 -0.2,-0.104 -0.329,-0.194 -0.391,-0.282 -0.073,-0.083 -0.106,-0.198 -0.106,-0.323 v -1.412 c 0,-0.34 0.168,-0.468 0.497,-0.373 1.364,0.425 2.615,0.646 3.755,0.646 z"
   id="path3127"
   inkscape:connector-curvature="0"
   style="fill:#ffffff" />
			<path
   d="m 101.676,33.38 c 0,0.075 -0.032,0.146 -0.091,0.2 -0.058,0.047 -0.134,0.073 -0.225,0.073 h -2.829 c -0.113,0 -0.235,-0.044 -0.362,-0.144 -0.13,-0.092 -0.23,-0.207 -0.307,-0.315 l -3.644,-5.286 v 5.262 c 0,0.133 -0.045,0.258 -0.132,0.346 -0.087,0.098 -0.198,0.138 -0.336,0.138 h -2.125 c -0.135,0 -0.247,-0.046 -0.334,-0.149 -0.086,-0.096 -0.127,-0.217 -0.127,-0.334 V 16.475 c 0,-0.111 0.043,-0.218 0.132,-0.317 0.091,-0.097 0.203,-0.146 0.33,-0.146 h 2.125 c 0.13,0 0.238,0.046 0.331,0.135 0.091,0.091 0.137,0.201 0.137,0.329 v 9.666 l 3.96,-5.272 c 0.151,-0.188 0.331,-0.284 0.534,-0.284 h 2.602 c 0.227,0 0.337,0.083 0.337,0.249 0,0.077 -0.028,0.155 -0.088,0.238 l -4.652,5.725 4.696,6.398 c 0.043,0.068 0.068,0.13 0.068,0.184 z"
   id="path3129"
   inkscape:connector-curvature="0"
   style="fill:#ffffff" />
			<path
   d="m 113.632,28.067 c 0,1.1 -0.216,2.095 -0.641,2.979 -0.425,0.877 -1.053,1.561 -1.883,2.061 -0.83,0.488 -1.838,0.731 -3.023,0.731 -1.168,0 -2.173,-0.243 -3.012,-0.731 -0.837,-0.5 -1.468,-1.184 -1.889,-2.061 -0.423,-0.885 -0.634,-1.88 -0.634,-2.979 v -1.869 c 0,-1.102 0.211,-2.095 0.634,-2.976 0.421,-0.883 1.052,-1.57 1.889,-2.06 0.839,-0.491 1.844,-0.737 3.012,-0.737 1.185,0 2.193,0.246 3.023,0.737 0.831,0.49 1.458,1.177 1.883,2.06 0.425,0.88 0.641,1.874 0.641,2.976 v 1.869 z m -3.058,0 v -1.869 c 0,-0.964 -0.211,-1.73 -0.64,-2.29 -0.426,-0.563 -1.043,-0.846 -1.85,-0.846 -0.801,0 -1.416,0.282 -1.838,0.846 -0.429,0.56 -0.641,1.326 -0.641,2.29 v 1.869 c 0,0.968 0.214,1.731 0.646,2.294 0.426,0.558 1.039,0.841 1.833,0.841 0.8,0 1.413,-0.283 1.844,-0.841 0.433,-0.562 0.646,-1.326 0.646,-2.294 z"
   id="path3131"
   inkscape:connector-curvature="0"
   style="fill:#ffffff" />
			<path
   d="m 126.617,28.067 c 0,1.1 -0.215,2.095 -0.643,2.979 -0.425,0.877 -1.055,1.561 -1.881,2.061 -0.833,0.488 -1.839,0.731 -3.027,0.731 -1.167,0 -2.172,-0.243 -3.009,-0.731 -0.838,-0.5 -1.468,-1.184 -1.889,-2.061 -0.423,-0.885 -0.635,-1.88 -0.635,-2.979 v -1.869 c 0,-1.102 0.211,-2.095 0.635,-2.976 0.421,-0.883 1.051,-1.57 1.889,-2.06 0.837,-0.491 1.842,-0.737 3.009,-0.737 1.188,0 2.193,0.246 3.027,0.737 0.827,0.49 1.456,1.177 1.881,2.06 0.428,0.88 0.643,1.874 0.643,2.976 v 1.869 z m -3.058,0 v -1.869 c 0,-0.964 -0.213,-1.73 -0.64,-2.29 -0.428,-0.563 -1.044,-0.846 -1.853,-0.846 -0.797,0 -1.41,0.282 -1.838,0.846 -0.427,0.56 -0.64,1.326 -0.64,2.29 v 1.869 c 0,0.968 0.218,1.731 0.647,2.294 0.43,0.558 1.042,0.841 1.832,0.841 0.803,0 1.417,-0.283 1.848,-0.841 0.428,-0.562 0.644,-1.326 0.644,-2.294 z"
   id="path3133"
   inkscape:connector-curvature="0"
   style="fill:#ffffff" />
			<path
   d="m 139.599,28.067 c 0,1.1 -0.213,2.095 -0.64,2.979 -0.424,0.877 -1.054,1.561 -1.884,2.061 -0.83,0.488 -1.838,0.731 -3.024,0.731 -1.167,0 -2.172,-0.243 -3.009,-0.731 -0.839,-0.5 -1.469,-1.184 -1.892,-2.061 -0.422,-0.885 -0.634,-1.88 -0.634,-2.979 v -1.869 c 0,-1.102 0.212,-2.095 0.634,-2.976 0.423,-0.883 1.053,-1.57 1.892,-2.06 0.837,-0.491 1.842,-0.737 3.009,-0.737 1.186,0 2.194,0.246 3.024,0.737 0.83,0.49 1.46,1.177 1.884,2.06 0.426,0.88 0.64,1.874 0.64,2.976 v 1.869 z m -3.056,0 v -1.869 c 0,-0.964 -0.211,-1.73 -0.638,-2.29 -0.428,-0.563 -1.044,-0.846 -1.854,-0.846 -0.798,0 -1.411,0.282 -1.838,0.846 -0.429,0.56 -0.642,1.326 -0.642,2.29 v 1.869 c 0,0.968 0.216,1.731 0.649,2.294 0.428,0.558 1.039,0.841 1.831,0.841 0.801,0 1.416,-0.283 1.846,-0.841 0.432,-0.562 0.646,-1.326 0.646,-2.294 z"
   id="path3135"
   inkscape:connector-curvature="0"
   style="fill:#ffffff" />
			<path
   d="m 144.999,33.17 c 0,0.124 -0.039,0.248 -0.123,0.34 -0.083,0.1 -0.188,0.144 -0.318,0.144 h -2.151 c -0.135,0 -0.244,-0.046 -0.333,-0.149 -0.086,-0.096 -0.13,-0.217 -0.13,-0.334 V 16.475 c 0,-0.111 0.045,-0.218 0.135,-0.317 0.093,-0.097 0.202,-0.146 0.329,-0.146 h 2.151 c 0.12,0 0.223,0.048 0.313,0.141 0.085,0.096 0.128,0.205 0.128,0.323 V 33.17 z"
   id="path3137"
   inkscape:connector-curvature="0"
   style="fill:#ffffff" />
		</g>
	</g>
	<g
   id="g3139">
		<g
   id="g3141">
			<path
   d="m 171.54,32.131 c 0,0.342 -0.17,0.51 -0.51,0.51 h -6.269 c -0.342,0 -0.513,-0.168 -0.513,-0.51 V 18.784 c 0,-0.341 0.171,-0.511 0.513,-0.511 h 1.238 c 0.34,0 0.51,0.17 0.51,0.511 v 11.812 h 4.521 c 0.34,0 0.51,0.17 0.51,0.51 v 1.025 z"
   id="path3143"
   inkscape:connector-curvature="0"
   style="fill:#ffffff" />
			<path
   d="m 180.389,27.523 c 0,0.342 -0.164,0.513 -0.489,0.513 h -5.16 c 0.041,0.954 0.233,1.641 0.575,2.069 0.382,0.499 1.015,0.746 1.897,0.746 0.538,0 1.215,-0.129 2.025,-0.385 0.056,-0.014 0.114,-0.021 0.17,-0.021 0.185,0 0.319,0.113 0.407,0.341 l 0.297,0.854 c 0.102,0.269 0,0.469 -0.297,0.598 -0.81,0.354 -1.758,0.531 -2.837,0.531 -1.451,0 -2.568,-0.451 -3.349,-1.354 -0.781,-0.901 -1.17,-2.228 -1.17,-3.975 0,-1.58 0.361,-2.847 1.087,-3.807 0.726,-0.96 1.697,-1.439 2.919,-1.439 2.617,0 3.925,1.778 3.925,5.329 z m -2.217,-1.043 c -0.058,-1.706 -0.612,-2.56 -1.663,-2.56 -1.024,0 -1.614,0.854 -1.77,2.56 h 3.433 z"
   id="path3145"
   inkscape:connector-curvature="0"
   style="fill:#ffffff" />
			<path
   d="m 189.793,32.15 c 0.069,0.329 -0.075,0.49 -0.428,0.49 h -1.11 c -0.298,0 -0.474,-0.161 -0.531,-0.49 l -0.129,-0.788 c -0.611,0.937 -1.578,1.407 -2.901,1.407 -0.88,0 -1.563,-0.277 -2.045,-0.832 -0.484,-0.554 -0.726,-1.327 -0.726,-2.323 0,-2.047 1.108,-3.147 3.326,-3.306 l 2.131,-0.148 c 0,-0.299 -0.014,-0.455 -0.042,-0.47 -0.028,-0.583 -0.156,-0.993 -0.382,-1.236 -0.225,-0.241 -0.659,-0.362 -1.295,-0.362 -0.551,0 -1.239,0.121 -2.057,0.362 -0.34,0.1 -0.544,-0.008 -0.616,-0.319 l -0.213,-0.94 c -0.069,-0.299 0.036,-0.489 0.321,-0.575 0.966,-0.284 1.862,-0.426 2.685,-0.426 1.578,0 2.653,0.447 3.22,1.343 0.372,0.583 0.555,1.479 0.555,2.687 v 3.584 c 0,0.779 0.035,1.348 0.107,1.704 l 0.13,0.638 z m -2.412,-2.962 v -1.492 l -1.214,0.044 c -1.351,0.041 -2.026,0.667 -2.026,1.875 0,0.909 0.396,1.364 1.194,1.364 0.567,0 1.059,-0.206 1.472,-0.617 0.384,-0.372 0.574,-0.761 0.574,-1.174 z"
   id="path3147"
   inkscape:connector-curvature="0"
   style="fill:#ffffff" />
			<path
   d="m 198.147,23.068 -0.319,1.195 c -0.084,0.325 -0.295,0.46 -0.635,0.404 -0.127,-0.015 -0.335,-0.08 -0.625,-0.192 -0.291,-0.113 -0.512,-0.171 -0.667,-0.171 -0.381,0 -0.692,0.221 -0.932,0.661 -0.284,0.499 -0.424,1.224 -0.424,2.177 v 5.008 c 0,0.329 -0.172,0.49 -0.518,0.49 h -1.183 c -0.345,0 -0.519,-0.161 -0.519,-0.49 v -9.338 c 0,-0.325 0.174,-0.489 0.513,-0.489 h 0.788 c 0.314,0 0.508,0.142 0.576,0.425 l 0.237,0.918 c 0.625,-0.98 1.419,-1.472 2.387,-1.472 1.038,0 1.478,0.293 1.321,0.874 z"
   id="path3149"
   inkscape:connector-curvature="0"
   style="fill:#ffffff" />
			<path
   d="m 207.081,32.15 c 0,0.329 -0.174,0.49 -0.519,0.49 h -1.203 c -0.331,0 -0.498,-0.161 -0.498,-0.49 v -6.843 c 0,-0.837 -0.365,-1.258 -1.092,-1.258 -0.576,0 -1.059,0.227 -1.451,0.683 -0.393,0.454 -0.59,1.023 -0.59,1.706 v 5.713 c 0,0.329 -0.165,0.49 -0.497,0.49 h -1.202 c -0.344,0 -0.518,-0.161 -0.518,-0.49 v -9.338 c 0,-0.325 0.168,-0.489 0.51,-0.489 h 0.833 c 0.297,0 0.474,0.136 0.533,0.405 l 0.192,0.875 c 0.839,-0.939 1.795,-1.408 2.876,-1.408 0.797,0 1.432,0.245 1.908,0.737 0.476,0.489 0.715,1.132 0.715,1.928 v 7.289 z"
   id="path3151"
   inkscape:connector-curvature="0"
   style="fill:#ffffff" />
			<path
   d="m 212.56,18.825 c 0,0.398 -0.138,0.736 -0.405,1.013 -0.27,0.277 -0.606,0.417 -1.001,0.417 -0.4,0 -0.729,-0.139 -0.993,-0.417 -0.263,-0.277 -0.394,-0.615 -0.394,-1.013 0,-0.397 0.13,-0.735 0.394,-1.01 0.264,-0.278 0.593,-0.417 0.993,-0.417 0.395,0 0.731,0.139 1.001,0.417 0.267,0.275 0.405,0.613 0.405,1.01 z m -0.254,13.325 c 0,0.329 -0.174,0.49 -0.517,0.49 h -1.185 c -0.346,0 -0.517,-0.161 -0.517,-0.49 v -9.338 c 0,-0.325 0.171,-0.489 0.517,-0.489 h 1.185 c 0.343,0 0.517,0.164 0.517,0.489 v 9.338 z"
   id="path3153"
   inkscape:connector-curvature="0"
   style="fill:#ffffff" />
			<path
   d="m 222.859,32.15 c 0,0.329 -0.174,0.49 -0.518,0.49 h -1.207 c -0.331,0 -0.494,-0.161 -0.494,-0.49 v -6.843 c 0,-0.837 -0.365,-1.258 -1.094,-1.258 -0.575,0 -1.061,0.227 -1.454,0.683 -0.391,0.454 -0.586,1.023 -0.586,1.706 v 5.713 c 0,0.329 -0.166,0.49 -0.496,0.49 h -1.205 c -0.344,0 -0.517,-0.161 -0.517,-0.49 v -9.338 c 0,-0.325 0.172,-0.489 0.513,-0.489 h 0.829 c 0.301,0 0.479,0.136 0.534,0.405 l 0.191,0.875 c 0.84,-0.939 1.798,-1.408 2.88,-1.408 0.794,0 1.43,0.245 1.908,0.737 0.475,0.489 0.715,1.132 0.715,1.928 v 7.289 z"
   id="path3155"
   inkscape:connector-curvature="0"
   style="fill:#ffffff" />
			<path
   d="m 233.561,33.558 c 0,1.165 -0.477,2.054 -1.43,2.665 -0.781,0.498 -1.748,0.747 -2.898,0.747 -1.222,0 -2.203,-0.212 -2.941,-0.64 -0.91,-0.527 -1.373,-1.33 -1.388,-2.41 0,-0.143 0.052,-0.262 0.149,-0.362 0.098,-0.099 0.221,-0.149 0.363,-0.149 l 1.193,0.044 c 0.271,0.014 0.435,0.17 0.49,0.468 0.142,0.84 0.875,1.259 2.196,1.259 0.669,0 1.204,-0.127 1.609,-0.384 0.406,-0.256 0.608,-0.598 0.608,-1.023 0,-0.825 -0.505,-1.236 -1.514,-1.236 h -2.111 c -1.605,0 -2.409,-0.582 -2.409,-1.749 0,-0.569 0.306,-1.143 0.917,-1.726 -0.994,-0.699 -1.493,-1.72 -1.493,-3.071 0,-1.18 0.356,-2.103 1.068,-2.771 0.71,-0.668 1.662,-1.003 2.854,-1.003 0.158,0 0.377,0.02 0.662,0.053 0.284,0.037 0.496,0.055 0.641,0.055 h 2.471 c 0.355,0 0.534,0.17 0.534,0.512 v 0.596 c 0,0.313 -0.137,0.482 -0.404,0.51 l -0.663,0.086 c 0.469,0.695 0.706,1.35 0.706,1.961 0,1.167 -0.356,2.085 -1.058,2.761 -0.702,0.678 -1.66,1.015 -2.867,1.015 -0.428,0 -0.771,-0.036 -1.043,-0.106 -0.199,0.195 -0.299,0.389 -0.299,0.574 0,0.355 0.318,0.533 0.957,0.533 h 1.834 c 1.01,0 1.807,0.24 2.389,0.723 0.584,0.484 0.877,1.172 0.877,2.068 z m -2.965,-7.61 c 0,-1.394 -0.583,-2.092 -1.748,-2.092 -0.553,0 -0.959,0.122 -1.214,0.364 -0.343,0.327 -0.513,0.903 -0.513,1.728 0,0.851 0.17,1.44 0.513,1.769 0.255,0.256 0.661,0.385 1.214,0.385 1.165,0 1.748,-0.719 1.748,-2.154 z"
   id="path3157"
   inkscape:connector-curvature="0"
   style="fill:#ffffff" />
			<path
   d="m 246.607,32.15 c 0.071,0.329 -0.071,0.49 -0.428,0.49 h -1.107 c -0.297,0 -0.475,-0.161 -0.533,-0.49 l -0.129,-0.788 c -0.609,0.937 -1.574,1.407 -2.898,1.407 -0.881,0 -1.564,-0.277 -2.045,-0.832 -0.484,-0.554 -0.727,-1.327 -0.727,-2.323 0,-2.047 1.108,-3.147 3.327,-3.306 l 2.132,-0.148 c 0,-0.299 -0.014,-0.455 -0.044,-0.47 -0.028,-0.583 -0.153,-0.993 -0.382,-1.236 -0.228,-0.241 -0.657,-0.362 -1.293,-0.362 -0.552,0 -1.238,0.121 -2.061,0.362 -0.338,0.1 -0.545,-0.008 -0.615,-0.319 l -0.211,-0.94 c -0.072,-0.299 0.035,-0.489 0.319,-0.575 0.968,-0.284 1.863,-0.426 2.687,-0.426 1.579,0 2.651,0.447 3.22,1.343 0.366,0.583 0.554,1.479 0.554,2.687 v 3.584 c 0,0.779 0.036,1.348 0.105,1.704 l 0.129,0.638 z m -2.408,-2.962 v -1.492 l -1.215,0.044 c -1.352,0.041 -2.027,0.667 -2.027,1.875 0,0.909 0.397,1.364 1.194,1.364 0.568,0 1.06,-0.206 1.472,-0.617 0.384,-0.372 0.576,-0.761 0.576,-1.174 z"
   id="path3159"
   inkscape:connector-curvature="0"
   style="fill:#ffffff" />
			<path
   d="m 256.712,32.15 c 0,0.329 -0.172,0.49 -0.517,0.49 h -1.205 c -0.328,0 -0.496,-0.161 -0.496,-0.49 v -6.843 c 0,-0.837 -0.364,-1.258 -1.093,-1.258 -0.575,0 -1.06,0.227 -1.451,0.683 -0.394,0.454 -0.59,1.023 -0.59,1.706 v 5.713 c 0,0.329 -0.165,0.49 -0.495,0.49 h -1.205 c -0.343,0 -0.517,-0.161 -0.517,-0.49 v -9.338 c 0,-0.325 0.17,-0.489 0.513,-0.489 h 0.83 c 0.299,0 0.476,0.136 0.533,0.405 l 0.191,0.875 c 0.84,-0.939 1.799,-1.408 2.879,-1.408 0.798,0 1.433,0.245 1.908,0.737 0.477,0.489 0.714,1.132 0.714,1.928 v 7.289 z"
   id="path3161"
   inkscape:connector-curvature="0"
   style="fill:#ffffff" />
			<path
   d="m 266.883,32.15 c 0,0.329 -0.17,0.49 -0.513,0.49 h -0.745 c -0.356,0 -0.568,-0.161 -0.641,-0.49 l -0.17,-0.852 c -0.525,0.98 -1.344,1.471 -2.45,1.471 -2.29,0 -3.435,-1.775 -3.435,-5.329 0,-1.906 0.385,-3.305 1.151,-4.201 0.599,-0.697 1.35,-1.045 2.26,-1.045 1.022,0 1.813,0.435 2.366,1.3 v -5.479 c 0,-0.327 0.164,-0.49 0.49,-0.49 h 1.173 c 0.343,0 0.513,0.163 0.513,0.49 V 32.15 z m -2.111,-4.627 c 0,-2.315 -0.583,-3.474 -1.748,-3.474 -0.583,0 -1.018,0.242 -1.302,0.726 -0.313,0.539 -0.467,1.45 -0.467,2.729 0,1.221 0.142,2.086 0.424,2.591 0.286,0.502 0.734,0.757 1.345,0.757 1.165,0 1.748,-1.11 1.748,-3.329 z"
   id="path3163"
   inkscape:connector-curvature="0"
   style="fill:#ffffff" />
			<path
   d="m 282.105,19.829 c 0,0.325 -0.164,0.49 -0.49,0.49 h -3.027 v 11.812 c 0,0.342 -0.171,0.51 -0.514,0.51 h -1.235 c -0.341,0 -0.511,-0.168 -0.511,-0.51 V 20.319 h -3.029 c -0.354,0 -0.531,-0.165 -0.531,-0.49 v -1.045 c 0,-0.341 0.177,-0.511 0.531,-0.511 h 8.316 c 0.326,0 0.49,0.17 0.49,0.511 v 1.045 z"
   id="path3165"
   inkscape:connector-curvature="0"
   style="fill:#ffffff" />
			<path
   d="m 290.803,27.523 c 0,0.342 -0.164,0.513 -0.49,0.513 h -5.16 c 0.045,0.954 0.236,1.641 0.576,2.069 0.385,0.499 1.016,0.746 1.898,0.746 0.541,0 1.215,-0.129 2.025,-0.385 0.057,-0.014 0.114,-0.021 0.171,-0.021 0.183,0 0.319,0.113 0.404,0.341 l 0.299,0.854 c 0.099,0.269 0,0.469 -0.299,0.598 -0.81,0.354 -1.755,0.531 -2.837,0.531 -1.447,0 -2.564,-0.451 -3.346,-1.354 -0.781,-0.901 -1.172,-2.228 -1.172,-3.975 0,-1.58 0.362,-2.847 1.086,-3.807 0.726,-0.959 1.7,-1.439 2.923,-1.439 2.613,0 3.922,1.778 3.922,5.329 z m -2.216,-1.043 c -0.058,-1.706 -0.613,-2.56 -1.665,-2.56 -1.021,0 -1.614,0.854 -1.77,2.56 h 3.435 z"
   id="path3167"
   inkscape:connector-curvature="0"
   style="fill:#ffffff" />
			<path
   d="m 300.206,32.15 c 0.068,0.329 -0.073,0.49 -0.428,0.49 h -1.108 c -0.299,0 -0.477,-0.161 -0.533,-0.49 l -0.128,-0.788 c -0.61,0.937 -1.577,1.407 -2.899,1.407 -0.883,0 -1.563,-0.277 -2.045,-0.832 -0.486,-0.554 -0.726,-1.327 -0.726,-2.323 0,-2.047 1.105,-3.147 3.323,-3.306 l 2.134,-0.148 c 0,-0.299 -0.015,-0.455 -0.045,-0.47 -0.026,-0.583 -0.153,-0.993 -0.381,-1.236 -0.226,-0.241 -0.658,-0.362 -1.294,-0.362 -0.551,0 -1.237,0.121 -2.059,0.362 -0.34,0.1 -0.545,-0.008 -0.615,-0.319 l -0.213,-0.94 c -0.07,-0.299 0.038,-0.489 0.322,-0.575 0.965,-0.284 1.859,-0.426 2.686,-0.426 1.577,0 2.65,0.447 3.219,1.343 0.369,0.583 0.553,1.479 0.553,2.687 v 3.584 c 0,0.779 0.037,1.348 0.107,1.704 l 0.13,0.638 z m -2.41,-2.962 v -1.492 l -1.216,0.044 c -1.352,0.041 -2.025,0.667 -2.025,1.875 0,0.909 0.396,1.364 1.195,1.364 0.567,0 1.059,-0.206 1.471,-0.617 0.382,-0.372 0.575,-0.761 0.575,-1.174 z"
   id="path3169"
   inkscape:connector-curvature="0"
   style="fill:#ffffff" />
			<path
   d="m 308.796,31.874 c 0.057,0.3 -0.056,0.498 -0.342,0.599 -0.583,0.196 -1.278,0.297 -2.089,0.297 -1.352,0 -2.402,-0.447 -3.155,-1.344 -0.796,-0.938 -1.192,-2.286 -1.192,-4.05 0,-1.507 0.398,-2.747 1.204,-3.719 0.804,-0.975 1.878,-1.462 3.229,-1.462 0.44,0 0.895,0.065 1.363,0.192 0.683,0.172 0.969,0.426 0.854,0.768 l -0.299,0.895 c -0.071,0.227 -0.198,0.343 -0.386,0.343 -0.142,0 -0.371,-0.052 -0.69,-0.149 -0.32,-0.103 -0.581,-0.15 -0.779,-0.15 -0.683,0 -1.22,0.284 -1.609,0.856 -0.392,0.568 -0.587,1.383 -0.587,2.436 0,2.282 0.773,3.424 2.325,3.424 0.452,0 0.923,-0.072 1.405,-0.213 0.329,-0.086 0.52,0.028 0.577,0.34 l 0.171,0.937 z"
   id="path3171"
   inkscape:connector-curvature="0"
   style="fill:#ffffff" />
			<path
   d="m 318.369,32.15 c 0,0.329 -0.173,0.49 -0.512,0.49 h -1.172 c -0.329,0 -0.492,-0.161 -0.492,-0.49 v -6.843 c 0,-0.837 -0.384,-1.258 -1.15,-1.258 -0.584,0 -1.074,0.227 -1.473,0.683 -0.398,0.454 -0.596,1.023 -0.596,1.706 v 5.713 c 0,0.329 -0.173,0.49 -0.513,0.49 h -1.151 c -0.338,0 -0.512,-0.161 -0.512,-0.49 V 18.015 c 0,-0.327 0.174,-0.49 0.512,-0.49 h 1.151 c 0.34,0 0.513,0.163 0.513,0.49 v 5.479 c 0.781,-0.866 1.707,-1.3 2.772,-1.3 0.796,0 1.431,0.245 1.908,0.737 0.474,0.489 0.714,1.132 0.714,1.928 v 7.291 z"
   id="path3173"
   inkscape:connector-curvature="0"
   style="fill:#ffffff" />
			<path
   d="m 323.849,18.825 c 0,0.398 -0.135,0.736 -0.405,1.013 -0.27,0.277 -0.604,0.417 -1.002,0.417 -0.396,0 -0.729,-0.139 -0.991,-0.417 -0.262,-0.278 -0.394,-0.615 -0.394,-1.013 0,-0.397 0.131,-0.735 0.394,-1.01 0.263,-0.278 0.595,-0.417 0.991,-0.417 0.398,0 0.732,0.139 1.002,0.417 0.27,0.275 0.405,0.613 0.405,1.01 z m -0.256,13.325 c 0,0.329 -0.172,0.49 -0.516,0.49 h -1.187 c -0.344,0 -0.516,-0.161 -0.516,-0.49 v -9.338 c 0,-0.325 0.172,-0.489 0.516,-0.489 h 1.187 c 0.344,0 0.516,0.164 0.516,0.489 v 9.338 z"
   id="path3175"
   inkscape:connector-curvature="0"
   style="fill:#ffffff" />
			<path
   d="m 334.145,32.15 c 0,0.329 -0.17,0.49 -0.516,0.49 h -1.207 c -0.329,0 -0.494,-0.161 -0.494,-0.49 v -6.843 c 0,-0.837 -0.363,-1.258 -1.093,-1.258 -0.576,0 -1.061,0.227 -1.452,0.683 -0.393,0.454 -0.588,1.023 -0.588,1.706 v 5.713 c 0,0.329 -0.168,0.49 -0.495,0.49 h -1.207 c -0.343,0 -0.517,-0.161 -0.517,-0.49 v -9.338 c 0,-0.325 0.172,-0.489 0.511,-0.489 h 0.833 c 0.299,0 0.476,0.136 0.533,0.405 l 0.193,0.875 c 0.838,-0.939 1.797,-1.408 2.877,-1.408 0.795,0 1.432,0.245 1.905,0.737 0.479,0.489 0.716,1.132 0.716,1.928 v 7.289 z"
   id="path3177"
   inkscape:connector-curvature="0"
   style="fill:#ffffff" />
			<path
   d="m 344.85,33.558 c 0,1.165 -0.478,2.054 -1.43,2.665 -0.781,0.498 -1.748,0.747 -2.9,0.747 -1.224,0 -2.203,-0.212 -2.941,-0.64 -0.91,-0.527 -1.371,-1.33 -1.385,-2.41 0,-0.143 0.049,-0.262 0.148,-0.362 0.1,-0.099 0.22,-0.149 0.363,-0.149 l 1.193,0.044 c 0.27,0.014 0.432,0.17 0.488,0.468 0.144,0.84 0.875,1.259 2.197,1.259 0.667,0 1.204,-0.127 1.609,-0.384 0.405,-0.256 0.609,-0.598 0.609,-1.023 0,-0.825 -0.508,-1.236 -1.516,-1.236 h -2.109 c -1.607,0 -2.411,-0.582 -2.411,-1.749 0,-0.569 0.306,-1.143 0.919,-1.726 -0.996,-0.699 -1.492,-1.72 -1.492,-3.071 0,-1.18 0.354,-2.103 1.065,-2.771 0.711,-0.668 1.663,-1.003 2.857,-1.003 0.155,0 0.376,0.02 0.661,0.053 0.281,0.037 0.496,0.055 0.637,0.055 h 2.475 c 0.354,0 0.535,0.17 0.535,0.512 v 0.596 c 0,0.313 -0.138,0.482 -0.408,0.51 l -0.662,0.086 c 0.472,0.695 0.706,1.35 0.706,1.961 0,1.167 -0.352,2.085 -1.056,2.761 -0.703,0.678 -1.66,1.015 -2.868,1.015 -0.426,0 -0.774,-0.036 -1.044,-0.106 -0.2,0.195 -0.298,0.389 -0.298,0.574 0,0.355 0.319,0.533 0.958,0.533 h 1.834 c 1.01,0 1.807,0.24 2.389,0.723 0.584,0.484 0.877,1.172 0.877,2.068 z m -2.965,-7.61 c 0,-1.394 -0.583,-2.092 -1.749,-2.092 -0.556,0 -0.958,0.122 -1.214,0.364 -0.341,0.327 -0.511,0.903 -0.511,1.728 0,0.851 0.17,1.44 0.511,1.769 0.256,0.256 0.658,0.385 1.214,0.385 1.166,0 1.749,-0.719 1.749,-2.154 z"
   id="path3179"
   inkscape:connector-curvature="0"
   style="fill:#ffffff" />
			<path
   d="m 360.667,31.98 c 0.043,0.129 0.064,0.234 0.064,0.318 0,0.23 -0.144,0.342 -0.429,0.342 h -1.555 c -0.326,0 -0.539,-0.148 -0.639,-0.446 -0.227,-0.726 -0.455,-1.458 -0.683,-2.196 -0.269,-0.811 -0.526,-1.447 -0.768,-1.921 -0.627,-1.192 -1.428,-1.789 -2.409,-1.789 h -0.874 v 5.862 c 0,0.329 -0.171,0.49 -0.513,0.49 h -1.235 c -0.343,0 -0.512,-0.161 -0.512,-0.49 V 18.784 c 0,-0.341 0.169,-0.511 0.512,-0.511 h 3.754 c 1.604,0 2.776,0.426 3.516,1.278 0.556,0.641 0.833,1.427 0.833,2.366 0,0.896 -0.242,1.651 -0.727,2.262 -0.523,0.667 -1.271,1.079 -2.238,1.234 -0.043,0.017 -0.1,0.023 -0.172,0.023 0.967,0.199 1.729,0.883 2.282,2.046 0.415,0.867 1.011,2.367 1.793,4.498 z m -3.24,-9.773 c 0,-0.559 -0.17,-1.017 -0.512,-1.374 -0.384,-0.399 -0.919,-0.602 -1.599,-0.602 h -1.94 v 4.223 h 1.705 c 0.726,0 1.296,-0.203 1.717,-0.612 0.418,-0.405 0.629,-0.952 0.629,-1.635 z"
   id="path3181"
   inkscape:connector-curvature="0"
   style="fill:#ffffff" />
			<path
   d="m 369.878,27.523 c 0,0.342 -0.163,0.513 -0.491,0.513 h -5.159 c 0.043,0.954 0.234,1.641 0.577,2.069 0.383,0.499 1.016,0.746 1.896,0.746 0.539,0 1.215,-0.129 2.023,-0.385 0.059,-0.014 0.114,-0.021 0.172,-0.021 0.186,0 0.322,0.113 0.404,0.341 l 0.301,0.854 c 0.098,0.269 0,0.469 -0.301,0.598 -0.808,0.354 -1.754,0.531 -2.834,0.531 -1.45,0 -2.564,-0.451 -3.348,-1.354 -0.78,-0.901 -1.176,-2.228 -1.176,-3.975 0,-1.58 0.364,-2.847 1.09,-3.807 0.725,-0.959 1.7,-1.439 2.922,-1.439 2.615,0 3.924,1.778 3.924,5.329 z M 367.66,26.48 c -0.058,-1.706 -0.612,-2.56 -1.664,-2.56 -1.021,0 -1.611,0.854 -1.769,2.56 h 3.433 z"
   id="path3183"
   inkscape:connector-curvature="0"
   style="fill:#ffffff" />
			<path
   d="m 378.152,29.699 c 0,0.867 -0.286,1.578 -0.854,2.133 -0.627,0.625 -1.492,0.938 -2.602,0.938 -1.11,0 -2.112,-0.207 -3.007,-0.619 -0.285,-0.125 -0.377,-0.34 -0.275,-0.638 l 0.275,-0.896 c 0.086,-0.255 0.227,-0.384 0.427,-0.384 0.071,0 0.136,0.017 0.194,0.043 0.935,0.396 1.717,0.598 2.342,0.598 0.854,0 1.28,-0.363 1.28,-1.089 0,-0.469 -0.364,-0.923 -1.089,-1.364 -1.348,-0.809 -2.031,-1.221 -2.045,-1.238 -0.725,-0.581 -1.088,-1.276 -1.088,-2.087 0,-0.868 0.292,-1.566 0.873,-2.1 0.583,-0.534 1.395,-0.8 2.432,-0.8 0.896,0 1.691,0.15 2.386,0.447 0.315,0.129 0.415,0.343 0.301,0.642 l -0.276,0.724 c -0.113,0.313 -0.306,0.419 -0.571,0.32 -0.722,-0.27 -1.302,-0.406 -1.737,-0.406 -0.792,0 -1.189,0.342 -1.189,1.024 0,0.383 0.367,0.796 1.104,1.235 1.131,0.669 1.803,1.097 2.016,1.279 0.734,0.627 1.103,1.373 1.103,2.238 z"
   id="path3185"
   inkscape:connector-curvature="0"
   style="fill:#ffffff" />
			<path
   d="m 387.976,27.46 c 0,1.649 -0.365,2.947 -1.097,3.892 -0.734,0.944 -1.758,1.418 -3.08,1.418 -1.324,0 -2.357,-0.471 -3.104,-1.407 -0.746,-0.938 -1.117,-2.239 -1.117,-3.902 0,-1.634 0.371,-2.919 1.117,-3.857 0.746,-0.939 1.779,-1.408 3.104,-1.408 1.307,0 2.33,0.469 3.068,1.408 0.738,0.937 1.109,2.222 1.109,3.856 z m -2.259,0 c 0,-2.288 -0.658,-3.432 -1.973,-3.432 -1.299,0 -1.949,1.144 -1.949,3.432 0,2.29 0.65,3.433 1.949,3.433 1.315,0 1.973,-1.143 1.973,-3.433 z"
   id="path3187"
   inkscape:connector-curvature="0"
   style="fill:#ffffff" />
			<path
   d="m 397.74,32.15 c 0,0.329 -0.162,0.49 -0.489,0.49 h -0.853 c -0.271,0 -0.441,-0.142 -0.513,-0.426 l -0.213,-0.896 c -0.91,0.967 -1.92,1.451 -3.028,1.451 -0.796,0 -1.431,-0.237 -1.905,-0.713 -0.478,-0.477 -0.716,-1.134 -0.716,-1.975 v -7.27 c 0,-0.325 0.17,-0.489 0.513,-0.489 h 1.193 c 0.342,0 0.512,0.164 0.512,0.489 v 6.887 c 0,0.811 0.38,1.217 1.144,1.217 0.634,0 1.149,-0.248 1.545,-0.736 0.396,-0.492 0.593,-1.17 0.593,-2.036 v -5.332 c 0,-0.325 0.173,-0.489 0.518,-0.489 h 1.206 c 0.33,0 0.494,0.164 0.494,0.489 v 9.339 z"
   id="path3189"
   inkscape:connector-curvature="0"
   style="fill:#ffffff" />
			<path
   d="m 406.332,23.068 -0.316,1.195 c -0.086,0.325 -0.297,0.46 -0.635,0.404 -0.129,-0.015 -0.337,-0.08 -0.627,-0.192 -0.291,-0.113 -0.512,-0.171 -0.668,-0.171 -0.383,0 -0.692,0.221 -0.932,0.661 -0.283,0.499 -0.426,1.224 -0.426,2.177 v 5.008 c 0,0.329 -0.174,0.49 -0.515,0.49 h -1.187 c -0.342,0 -0.514,-0.161 -0.514,-0.49 v -9.338 c 0,-0.325 0.17,-0.489 0.509,-0.489 h 0.79 c 0.312,0 0.506,0.142 0.576,0.425 l 0.234,0.918 c 0.624,-0.98 1.421,-1.472 2.388,-1.472 1.04,0 1.479,0.293 1.323,0.874 z"
   id="path3191"
   inkscape:connector-curvature="0"
   style="fill:#ffffff" />
			<path
   d="m 413.752,31.874 c 0.057,0.3 -0.056,0.498 -0.342,0.599 -0.582,0.196 -1.279,0.297 -2.088,0.297 -1.353,0 -2.404,-0.447 -3.156,-1.344 -0.795,-0.938 -1.193,-2.286 -1.193,-4.05 0,-1.507 0.4,-2.747 1.203,-3.719 0.803,-0.975 1.881,-1.462 3.23,-1.462 0.442,0 0.895,0.065 1.365,0.192 0.682,0.172 0.965,0.426 0.854,0.768 l -0.299,0.895 c -0.072,0.227 -0.2,0.343 -0.385,0.343 -0.143,0 -0.374,-0.052 -0.692,-0.149 -0.319,-0.103 -0.58,-0.15 -0.778,-0.15 -0.682,0 -1.221,0.284 -1.609,0.856 -0.392,0.568 -0.586,1.383 -0.586,2.436 0,2.282 0.772,3.424 2.323,3.424 0.452,0 0.925,-0.072 1.407,-0.213 0.328,-0.086 0.519,0.028 0.577,0.34 l 0.169,0.937 z"
   id="path3193"
   inkscape:connector-curvature="0"
   style="fill:#ffffff" />
			<path
   d="m 423.027,27.523 c 0,0.342 -0.167,0.513 -0.491,0.513 h -5.161 c 0.045,0.954 0.235,1.641 0.576,2.069 0.384,0.499 1.018,0.746 1.898,0.746 0.54,0 1.215,-0.129 2.025,-0.385 0.057,-0.014 0.111,-0.021 0.172,-0.021 0.182,0 0.318,0.113 0.404,0.341 l 0.297,0.854 c 0.102,0.269 0,0.469 -0.297,0.598 -0.812,0.354 -1.757,0.531 -2.837,0.531 -1.45,0 -2.563,-0.451 -3.348,-1.354 -0.781,-0.901 -1.173,-2.228 -1.173,-3.975 0,-1.58 0.361,-2.847 1.088,-3.807 0.727,-0.96 1.699,-1.439 2.922,-1.439 2.615,0 3.925,1.778 3.925,5.329 z m -2.218,-1.043 c -0.056,-1.706 -0.612,-2.56 -1.664,-2.56 -1.022,0 -1.612,0.854 -1.77,2.56 h 3.434 z"
   id="path3195"
   inkscape:connector-curvature="0"
   style="fill:#ffffff" />
			<path
   d="m 431.299,29.699 c 0,0.867 -0.285,1.578 -0.854,2.133 -0.627,0.625 -1.492,0.938 -2.6,0.938 -1.109,0 -2.112,-0.207 -3.007,-0.619 -0.285,-0.125 -0.378,-0.34 -0.276,-0.638 l 0.276,-0.896 c 0.085,-0.255 0.228,-0.384 0.425,-0.384 0.074,0 0.137,0.017 0.193,0.043 0.938,0.396 1.719,0.598 2.345,0.598 0.853,0 1.281,-0.363 1.281,-1.089 0,-0.469 -0.364,-0.923 -1.089,-1.364 -1.351,-0.809 -2.035,-1.221 -2.047,-1.238 -0.727,-0.581 -1.086,-1.276 -1.086,-2.087 0,-0.868 0.289,-1.566 0.872,-2.1 0.582,-0.534 1.394,-0.8 2.431,-0.8 0.895,0 1.691,0.15 2.387,0.447 0.314,0.129 0.413,0.343 0.3,0.642 l -0.276,0.724 c -0.113,0.313 -0.305,0.419 -0.57,0.32 -0.723,-0.27 -1.303,-0.406 -1.739,-0.406 -0.791,0 -1.188,0.342 -1.188,1.024 0,0.383 0.367,0.796 1.102,1.235 1.132,0.669 1.805,1.097 2.017,1.279 0.736,0.627 1.103,1.373 1.103,2.238 z"
   id="path3197"
   inkscape:connector-curvature="0"
   style="fill:#ffffff" />
		</g>
	</g>
</g>


<g
   id="g13165"
   transform="translate(0.59375,-14.15625)"><g
     id="g12642">
	<g
   id="g12644">
		
			<rect
   id="rect12646"
   height="4.902"
   width="12.439"
   stroke-miterlimit="10"
   transform="matrix(-0.9804,-0.1971,0.1971,-0.9804,36.9881,81.9875)"
   y="36.702999"
   x="16.353001"
   style="fill:#ffffff;stroke:#000000;stroke-width:0.5;stroke-miterlimit:10" />
		<line
   id="line12648"
   y2="36.811001"
   x2="16.698999"
   y1="35.726002"
   x1="17.959999"
   stroke-miterlimit="10"
   style="fill:none;stroke:#000000;stroke-width:0.5;stroke-miterlimit:10" />
		<line
   id="line12650"
   y2="38.063"
   x2="16.448"
   y1="35.91"
   x1="18.875"
   stroke-miterlimit="10"
   style="fill:none;stroke:#000000;stroke-width:0.5;stroke-miterlimit:10" />
		<line
   id="line12652"
   y2="39.332001"
   x2="16.191999"
   y1="36.134998"
   x1="19.993999"
   stroke-miterlimit="10"
   style="fill:none;stroke:#000000;stroke-width:0.5;stroke-miterlimit:10" />
		<line
   id="line12654"
   y2="36.375"
   x2="21.188999"
   y1="40.07"
   x1="16.212999"
   stroke-miterlimit="10"
   style="fill:none;stroke:#000000;stroke-width:0.5;stroke-miterlimit:10" />
		<line
   id="line12656"
   y2="40.530998"
   x2="16.993999"
   y1="36.57"
   x1="22.156"
   stroke-miterlimit="10"
   style="fill:none;stroke:#000000;stroke-width:0.5;stroke-miterlimit:10" />
		<line
   id="line12658"
   y2="40.715"
   x2="17.91"
   y1="36.73"
   x1="22.954"
   stroke-miterlimit="10"
   style="fill:none;stroke:#000000;stroke-width:0.5;stroke-miterlimit:10" />
		<line
   id="line12660"
   y2="40.904999"
   x2="18.85"
   y1="36.918999"
   x1="23.895"
   stroke-miterlimit="10"
   style="fill:none;stroke:#000000;stroke-width:0.5;stroke-miterlimit:10" />
		<line
   id="line12662"
   y2="41.094002"
   x2="19.791"
   y1="37.108002"
   x1="24.834999"
   stroke-miterlimit="10"
   style="fill:none;stroke:#000000;stroke-width:0.5;stroke-miterlimit:10" />
		<line
   id="line12664"
   y2="41.282001"
   x2="20.731001"
   y1="37.298"
   x1="25.775999"
   stroke-miterlimit="10"
   style="fill:none;stroke:#000000;stroke-width:0.5;stroke-miterlimit:10" />
		<line
   id="line12666"
   y2="41.471001"
   x2="21.672001"
   y1="37.487"
   x1="26.716999"
   stroke-miterlimit="10"
   style="fill:none;stroke:#000000;stroke-width:0.5;stroke-miterlimit:10" />
		<line
   id="line12668"
   y2="41.660999"
   x2="22.612"
   y1="37.675999"
   x1="27.657"
   stroke-miterlimit="10"
   style="fill:none;stroke:#000000;stroke-width:0.5;stroke-miterlimit:10" />
		<line
   id="line12670"
   y2="41.849998"
   x2="23.552999"
   y1="37.865002"
   x1="28.598"
   stroke-miterlimit="10"
   style="fill:none;stroke:#000000;stroke-width:0.5;stroke-miterlimit:10" />
		<line
   id="line12672"
   y2="42.039001"
   x2="24.493999"
   y1="38.433998"
   x1="29.061001"
   stroke-miterlimit="10"
   style="fill:none;stroke:#000000;stroke-width:0.5;stroke-miterlimit:10" />
		<line
   id="line12674"
   y2="42.228001"
   x2="25.434"
   y1="39.539001"
   x1="28.839001"
   stroke-miterlimit="10"
   style="fill:none;stroke:#000000;stroke-width:0.5;stroke-miterlimit:10" />
	</g>
	<line
   id="line12676"
   y2="42.417"
   x2="26.375"
   y1="40.646999"
   x1="28.615999"
   stroke-miterlimit="10"
   style="fill:none;stroke:#000000;stroke-width:0.5;stroke-miterlimit:10" />
	<line
   id="line12678"
   y2="42.605999"
   x2="27.315001"
   y1="41.721001"
   x1="28.436001"
   stroke-miterlimit="10"
   style="fill:none;stroke:#000000;stroke-width:0.5;stroke-miterlimit:10" />
</g><g
     id="g12680">
	<g
   id="g12682">
		
			<rect
   id="rect12684"
   height="3.1889999"
   width="8.092"
   stroke-miterlimit="10"
   transform="matrix(-0.9932,0.1168,-0.1168,-0.9932,102.0587,78.0828)"
   y="40.438"
   x="44.695"
   style="fill:#ffffff;stroke:#000000;stroke-width:0.40000001;stroke-miterlimit:10" />
		<line
   id="line12686"
   y2="41.769001"
   x2="44.632999"
   y1="40.844002"
   x1="45.194"
   stroke-miterlimit="10"
   style="fill:none;stroke:#000000;stroke-width:0.40000001;stroke-miterlimit:10" />
		<line
   id="line12688"
   y2="42.594002"
   x2="44.73"
   y1="40.772999"
   x1="45.797001"
   stroke-miterlimit="10"
   style="fill:none;stroke:#000000;stroke-width:0.40000001;stroke-miterlimit:10" />
		<line
   id="line12690"
   y2="43.43"
   x2="44.828999"
   y1="40.686001"
   x1="46.535"
   stroke-miterlimit="10"
   style="fill:none;stroke:#000000;stroke-width:0.40000001;stroke-miterlimit:10" />
		<line
   id="line12692"
   y2="40.594002"
   x2="47.321999"
   y1="43.882"
   x1="44.990002"
   stroke-miterlimit="10"
   style="fill:none;stroke:#000000;stroke-width:0.40000001;stroke-miterlimit:10" />
		<line
   id="line12694"
   y2="44.009998"
   x2="45.566002"
   y1="40.519001"
   x1="47.959"
   stroke-miterlimit="10"
   style="fill:none;stroke:#000000;stroke-width:0.40000001;stroke-miterlimit:10" />
		<line
   id="line12696"
   y2="43.938999"
   x2="46.168999"
   y1="40.457001"
   x1="48.485001"
   stroke-miterlimit="10"
   style="fill:none;stroke:#000000;stroke-width:0.40000001;stroke-miterlimit:10" />
		<line
   id="line12698"
   y2="43.866001"
   x2="46.790001"
   y1="40.383999"
   x1="49.105"
   stroke-miterlimit="10"
   style="fill:none;stroke:#000000;stroke-width:0.40000001;stroke-miterlimit:10" />
		<line
   id="line12700"
   y2="43.793999"
   x2="47.409"
   y1="40.311001"
   x1="49.724998"
   stroke-miterlimit="10"
   style="fill:none;stroke:#000000;stroke-width:0.40000001;stroke-miterlimit:10" />
		<line
   id="line12702"
   y2="43.721001"
   x2="48.028999"
   y1="40.238998"
   x1="50.345001"
   stroke-miterlimit="10"
   style="fill:none;stroke:#000000;stroke-width:0.40000001;stroke-miterlimit:10" />
		<line
   id="line12704"
   y2="43.647999"
   x2="48.648998"
   y1="40.166"
   x1="50.964001"
   stroke-miterlimit="10"
   style="fill:none;stroke:#000000;stroke-width:0.40000001;stroke-miterlimit:10" />
		<line
   id="line12706"
   y2="43.575001"
   x2="49.269001"
   y1="40.092999"
   x1="51.584"
   stroke-miterlimit="10"
   style="fill:none;stroke:#000000;stroke-width:0.40000001;stroke-miterlimit:10" />
		<line
   id="line12708"
   y2="43.501999"
   x2="49.888"
   y1="40.02"
   x1="52.205002"
   stroke-miterlimit="10"
   style="fill:none;stroke:#000000;stroke-width:0.40000001;stroke-miterlimit:10" />
		<line
   id="line12710"
   y2="43.429001"
   x2="50.507999"
   y1="40.278999"
   x1="52.605"
   stroke-miterlimit="10"
   style="fill:none;stroke:#000000;stroke-width:0.40000001;stroke-miterlimit:10" />
		<line
   id="line12712"
   y2="43.356998"
   x2="51.127998"
   y1="41.007"
   x1="52.691002"
   stroke-miterlimit="10"
   style="fill:none;stroke:#000000;stroke-width:0.40000001;stroke-miterlimit:10" />
	</g>
	<line
   id="line12714"
   y2="43.284"
   x2="51.748001"
   y1="41.737"
   x1="52.777"
   stroke-miterlimit="10"
   style="fill:none;stroke:#000000;stroke-width:0.40000001;stroke-miterlimit:10" />
	<line
   id="line12716"
   y2="43.210999"
   x2="52.368"
   y1="42.437"
   x1="52.882"
   stroke-miterlimit="10"
   style="fill:none;stroke:#000000;stroke-width:0.40000001;stroke-miterlimit:10" />
</g><rect
     id="rect12719"
     height="111.058"
     width="198.342"
     stroke-miterlimit="10"
     y="14.641"
     x="0.086999997"
     style="fill:none;stroke:#000000;stroke-miterlimit:10" /><g
     id="g12721">
	<g
   id="g12723">
		<line
   id="line12725"
   y2="48.124001"
   x2="16.306"
   y1="48.124001"
   x1="4.6009998"
   stroke-miterlimit="10"
   style="fill:none;stroke:#000000;stroke-width:0.75;stroke-miterlimit:10" />
		<line
   id="line12727"
   y2="48.659"
   x2="33.66"
   y1="48.659"
   x1="24.462999"
   stroke-miterlimit="10"
   style="fill:none;stroke:#000000;stroke-width:0.75;stroke-miterlimit:10" />
		
			<line
   id="line12729"
   y2="48.124001"
   x2="54.681"
   y1="48.124001"
   x1="42.976002"
   stroke-miterlimit="10"
   style="fill:none;stroke:#000000;stroke-width:0.75;stroke-miterlimit:10" />
		
			<line
   id="line12731"
   y2="48.659"
   x2="72.035004"
   y1="48.659"
   x1="62.838001"
   stroke-miterlimit="10"
   style="fill:none;stroke:#000000;stroke-width:0.75;stroke-miterlimit:10" />
		
			<line
   id="line12733"
   y2="48.124001"
   x2="93.056"
   y1="48.124001"
   x1="81.350998"
   stroke-miterlimit="10"
   style="fill:none;stroke:#000000;stroke-width:0.75;stroke-miterlimit:10" />
		
			<line
   id="line12735"
   y2="48.659"
   x2="110.41"
   y1="48.659"
   x1="101.213"
   stroke-miterlimit="10"
   style="fill:none;stroke:#000000;stroke-width:0.75;stroke-miterlimit:10" />
		
			<line
   id="line12737"
   y2="48.124001"
   x2="131.43201"
   y1="48.124001"
   x1="119.727"
   stroke-miterlimit="10"
   style="fill:none;stroke:#000000;stroke-width:0.75;stroke-miterlimit:10" />
		
			<line
   id="line12739"
   y2="48.659"
   x2="148.785"
   y1="48.659"
   x1="139.588"
   stroke-miterlimit="10"
   style="fill:none;stroke:#000000;stroke-width:0.75;stroke-miterlimit:10" />
		
			<line
   id="line12741"
   y2="48.124001"
   x2="169.80701"
   y1="48.124001"
   x1="158.10201"
   stroke-miterlimit="10"
   style="fill:none;stroke:#000000;stroke-width:0.75;stroke-miterlimit:10" />
		
			<line
   id="line12743"
   y2="48.659"
   x2="187.16"
   y1="48.659"
   x1="177.963"
   stroke-miterlimit="10"
   style="fill:none;stroke:#000000;stroke-width:0.75;stroke-miterlimit:10" />
	</g>
	<g
   id="g12745">
		
			<line
   id="line12747"
   y2="54.884998"
   x2="25.306999"
   y1="54.884998"
   x1="13.601"
   stroke-miterlimit="10"
   style="fill:none;stroke:#000000;stroke-width:0.75;stroke-miterlimit:10" />
		
			<line
   id="line12749"
   y2="55.422001"
   x2="42.660999"
   y1="55.422001"
   x1="33.464001"
   stroke-miterlimit="10"
   style="fill:none;stroke:#000000;stroke-width:0.75;stroke-miterlimit:10" />
		
			<line
   id="line12751"
   y2="54.884998"
   x2="63.681999"
   y1="54.884998"
   x1="51.976002"
   stroke-miterlimit="10"
   style="fill:none;stroke:#000000;stroke-width:0.75;stroke-miterlimit:10" />
		
			<line
   id="line12753"
   y2="55.422001"
   x2="81.036003"
   y1="55.422001"
   x1="71.838997"
   stroke-miterlimit="10"
   style="fill:none;stroke:#000000;stroke-width:0.75;stroke-miterlimit:10" />
		
			<line
   id="line12755"
   y2="54.884998"
   x2="102.057"
   y1="54.884998"
   x1="90.350998"
   stroke-miterlimit="10"
   style="fill:none;stroke:#000000;stroke-width:0.75;stroke-miterlimit:10" />
		
			<line
   id="line12757"
   y2="55.422001"
   x2="119.41"
   y1="55.422001"
   x1="110.215"
   stroke-miterlimit="10"
   style="fill:none;stroke:#000000;stroke-width:0.75;stroke-miterlimit:10" />
		
			<line
   id="line12759"
   y2="54.884998"
   x2="140.43201"
   y1="54.884998"
   x1="128.72701"
   stroke-miterlimit="10"
   style="fill:none;stroke:#000000;stroke-width:0.75;stroke-miterlimit:10" />
		
			<line
   id="line12761"
   y2="55.422001"
   x2="157.785"
   y1="55.422001"
   x1="148.59"
   stroke-miterlimit="10"
   style="fill:none;stroke:#000000;stroke-width:0.75;stroke-miterlimit:10" />
		
			<line
   id="line12763"
   y2="54.884998"
   x2="178.80701"
   y1="54.884998"
   x1="167.10201"
   stroke-miterlimit="10"
   style="fill:none;stroke:#000000;stroke-width:0.75;stroke-miterlimit:10" />
		
			<line
   id="line12765"
   y2="55.422001"
   x2="196.16"
   y1="55.422001"
   x1="186.965"
   stroke-miterlimit="10"
   style="fill:none;stroke:#000000;stroke-width:0.75;stroke-miterlimit:10" />
	</g>
	<g
   id="g12767">
		<line
   id="line12769"
   y2="61.917999"
   x2="13.482"
   y1="61.917999"
   x1="1.777"
   stroke-miterlimit="10"
   style="fill:none;stroke:#000000;stroke-width:0.75;stroke-miterlimit:10" />
		<line
   id="line12771"
   y2="62.452999"
   x2="30.836"
   y1="62.452999"
   x1="21.639999"
   stroke-miterlimit="10"
   style="fill:none;stroke:#000000;stroke-width:0.75;stroke-miterlimit:10" />
		
			<line
   id="line12773"
   y2="61.917999"
   x2="51.856998"
   y1="61.917999"
   x1="40.152"
   stroke-miterlimit="10"
   style="fill:none;stroke:#000000;stroke-width:0.75;stroke-miterlimit:10" />
		
			<line
   id="line12775"
   y2="62.452999"
   x2="69.210999"
   y1="62.452999"
   x1="60.014999"
   stroke-miterlimit="10"
   style="fill:none;stroke:#000000;stroke-width:0.75;stroke-miterlimit:10" />
		
			<line
   id="line12777"
   y2="61.917999"
   x2="90.231003"
   y1="61.917999"
   x1="78.526001"
   stroke-miterlimit="10"
   style="fill:none;stroke:#000000;stroke-width:0.75;stroke-miterlimit:10" />
		
			<line
   id="line12779"
   y2="62.452999"
   x2="107.586"
   y1="62.452999"
   x1="98.389999"
   stroke-miterlimit="10"
   style="fill:none;stroke:#000000;stroke-width:0.75;stroke-miterlimit:10" />
		
			<line
   id="line12781"
   y2="61.917999"
   x2="128.60699"
   y1="61.917999"
   x1="116.902"
   stroke-miterlimit="10"
   style="fill:none;stroke:#000000;stroke-width:0.75;stroke-miterlimit:10" />
		
			<line
   id="line12783"
   y2="62.452999"
   x2="145.961"
   y1="62.452999"
   x1="136.76601"
   stroke-miterlimit="10"
   style="fill:none;stroke:#000000;stroke-width:0.75;stroke-miterlimit:10" />
		
			<line
   id="line12785"
   y2="61.917999"
   x2="166.98199"
   y1="61.917999"
   x1="155.27699"
   stroke-miterlimit="10"
   style="fill:none;stroke:#000000;stroke-width:0.75;stroke-miterlimit:10" />
		
			<line
   id="line12787"
   y2="62.452999"
   x2="184.336"
   y1="62.452999"
   x1="175.14101"
   stroke-miterlimit="10"
   style="fill:none;stroke:#000000;stroke-width:0.75;stroke-miterlimit:10" />
	</g>
	<g
   id="g12789">
		<line
   id="line12791"
   y2="68.414001"
   x2="22.186001"
   y1="68.414001"
   x1="10.48"
   stroke-miterlimit="10"
   style="fill:none;stroke:#000000;stroke-width:0.75;stroke-miterlimit:10" />
		<line
   id="line12793"
   y2="68.948997"
   x2="39.540001"
   y1="68.948997"
   x1="30.343"
   stroke-miterlimit="10"
   style="fill:none;stroke:#000000;stroke-width:0.75;stroke-miterlimit:10" />
		
			<line
   id="line12795"
   y2="68.414001"
   x2="60.561001"
   y1="68.414001"
   x1="48.855"
   stroke-miterlimit="10"
   style="fill:none;stroke:#000000;stroke-width:0.75;stroke-miterlimit:10" />
		
			<line
   id="line12797"
   y2="68.948997"
   x2="77.915001"
   y1="68.948997"
   x1="68.718002"
   stroke-miterlimit="10"
   style="fill:none;stroke:#000000;stroke-width:0.75;stroke-miterlimit:10" />
		
			<line
   id="line12799"
   y2="68.414001"
   x2="98.934998"
   y1="68.414001"
   x1="87.228996"
   stroke-miterlimit="10"
   style="fill:none;stroke:#000000;stroke-width:0.75;stroke-miterlimit:10" />
		
			<line
   id="line12801"
   y2="68.948997"
   x2="116.289"
   y1="68.948997"
   x1="107.094"
   stroke-miterlimit="10"
   style="fill:none;stroke:#000000;stroke-width:0.75;stroke-miterlimit:10" />
		
			<line
   id="line12803"
   y2="68.414001"
   x2="137.311"
   y1="68.414001"
   x1="125.605"
   stroke-miterlimit="10"
   style="fill:none;stroke:#000000;stroke-width:0.75;stroke-miterlimit:10" />
		
			<line
   id="line12805"
   y2="68.948997"
   x2="154.664"
   y1="68.948997"
   x1="145.46899"
   stroke-miterlimit="10"
   style="fill:none;stroke:#000000;stroke-width:0.75;stroke-miterlimit:10" />
		
			<line
   id="line12807"
   y2="68.414001"
   x2="175.686"
   y1="68.414001"
   x1="163.98"
   stroke-miterlimit="10"
   style="fill:none;stroke:#000000;stroke-width:0.75;stroke-miterlimit:10" />
		
			<line
   id="line12809"
   y2="68.948997"
   x2="193.039"
   y1="68.948997"
   x1="183.84399"
   stroke-miterlimit="10"
   style="fill:none;stroke:#000000;stroke-width:0.75;stroke-miterlimit:10" />
	</g>
	<g
   id="g12811">
		<line
   id="line12813"
   y2="75.177002"
   x2="11.885"
   y1="75.177002"
   x1="0.17900001"
   stroke-miterlimit="10"
   style="fill:none;stroke:#000000;stroke-width:0.75;stroke-miterlimit:10" />
		<line
   id="line12815"
   y2="75.712997"
   x2="29.24"
   y1="75.712997"
   x1="20.042"
   stroke-miterlimit="10"
   style="fill:none;stroke:#000000;stroke-width:0.75;stroke-miterlimit:10" />
		<line
   id="line12817"
   y2="75.177002"
   x2="50.259998"
   y1="75.177002"
   x1="38.554001"
   stroke-miterlimit="10"
   style="fill:none;stroke:#000000;stroke-width:0.75;stroke-miterlimit:10" />
		
			<line
   id="line12819"
   y2="75.712997"
   x2="67.612999"
   y1="75.712997"
   x1="58.417"
   stroke-miterlimit="10"
   style="fill:none;stroke:#000000;stroke-width:0.75;stroke-miterlimit:10" />
		
			<line
   id="line12821"
   y2="75.177002"
   x2="88.633003"
   y1="75.177002"
   x1="76.928001"
   stroke-miterlimit="10"
   style="fill:none;stroke:#000000;stroke-width:0.75;stroke-miterlimit:10" />
		
			<line
   id="line12823"
   y2="75.712997"
   x2="105.986"
   y1="75.712997"
   x1="96.791"
   stroke-miterlimit="10"
   style="fill:none;stroke:#000000;stroke-width:0.75;stroke-miterlimit:10" />
		
			<line
   id="line12825"
   y2="75.177002"
   x2="127.008"
   y1="75.177002"
   x1="115.303"
   stroke-miterlimit="10"
   style="fill:none;stroke:#000000;stroke-width:0.75;stroke-miterlimit:10" />
		
			<line
   id="line12827"
   y2="75.712997"
   x2="144.36099"
   y1="75.712997"
   x1="135.166"
   stroke-miterlimit="10"
   style="fill:none;stroke:#000000;stroke-width:0.75;stroke-miterlimit:10" />
		
			<line
   id="line12829"
   y2="75.177002"
   x2="165.383"
   y1="75.177002"
   x1="153.67799"
   stroke-miterlimit="10"
   style="fill:none;stroke:#000000;stroke-width:0.75;stroke-miterlimit:10" />
		
			<line
   id="line12831"
   y2="75.712997"
   x2="182.73599"
   y1="75.712997"
   x1="173.541"
   stroke-miterlimit="10"
   style="fill:none;stroke:#000000;stroke-width:0.75;stroke-miterlimit:10" />
	</g>
	<g
   id="g12833">
		<line
   id="line12835"
   y2="79.941002"
   x2="19.003"
   y1="79.941002"
   x1="7.2969999"
   stroke-miterlimit="10"
   style="fill:none;stroke:#000000;stroke-width:0.5;stroke-miterlimit:10" />
		<line
   id="line12837"
   y2="80.475998"
   x2="36.356998"
   y1="80.475998"
   x1="27.16"
   stroke-miterlimit="10"
   style="fill:none;stroke:#000000;stroke-width:0.5;stroke-miterlimit:10" />
		<line
   id="line12839"
   y2="79.941002"
   x2="57.376999"
   y1="79.941002"
   x1="45.672001"
   stroke-miterlimit="10"
   style="fill:none;stroke:#000000;stroke-width:0.5;stroke-miterlimit:10" />
		<line
   id="line12841"
   y2="80.475998"
   x2="74.731003"
   y1="80.475998"
   x1="65.536003"
   stroke-miterlimit="10"
   style="fill:none;stroke:#000000;stroke-width:0.5;stroke-miterlimit:10" />
		<line
   id="line12843"
   y2="79.941002"
   x2="95.75"
   y1="79.941002"
   x1="84.044998"
   stroke-miterlimit="10"
   style="fill:none;stroke:#000000;stroke-width:0.5;stroke-miterlimit:10" />
		
			<line
   id="line12845"
   y2="80.475998"
   x2="113.104"
   y1="80.475998"
   x1="103.908"
   stroke-miterlimit="10"
   style="fill:none;stroke:#000000;stroke-width:0.5;stroke-miterlimit:10" />
		
			<line
   id="line12847"
   y2="79.941002"
   x2="134.125"
   y1="79.941002"
   x1="122.42"
   stroke-miterlimit="10"
   style="fill:none;stroke:#000000;stroke-width:0.5;stroke-miterlimit:10" />
		
			<line
   id="line12849"
   y2="80.475998"
   x2="151.479"
   y1="80.475998"
   x1="142.283"
   stroke-miterlimit="10"
   style="fill:none;stroke:#000000;stroke-width:0.5;stroke-miterlimit:10" />
		<line
   id="line12851"
   y2="79.941002"
   x2="172.5"
   y1="79.941002"
   x1="160.795"
   stroke-miterlimit="10"
   style="fill:none;stroke:#000000;stroke-width:0.5;stroke-miterlimit:10" />
		
			<line
   id="line12853"
   y2="80.475998"
   x2="189.854"
   y1="80.475998"
   x1="180.658"
   stroke-miterlimit="10"
   style="fill:none;stroke:#000000;stroke-width:0.5;stroke-miterlimit:10" />
	</g>
	<g
   id="g12855">
		
			<line
   id="line12857"
   y2="89.972"
   x2="22.483"
   y1="89.972"
   x1="10.778"
   stroke-miterlimit="10"
   style="fill:none;stroke:#000000;stroke-width:0.75;stroke-miterlimit:10" />
		
			<line
   id="line12859"
   y2="90.508003"
   x2="39.837002"
   y1="90.508003"
   x1="30.641001"
   stroke-miterlimit="10"
   style="fill:none;stroke:#000000;stroke-width:0.75;stroke-miterlimit:10" />
		
			<line
   id="line12861"
   y2="89.972"
   x2="60.856998"
   y1="89.972"
   x1="49.153"
   stroke-miterlimit="10"
   style="fill:none;stroke:#000000;stroke-width:0.75;stroke-miterlimit:10" />
		
			<line
   id="line12863"
   y2="90.508003"
   x2="78.210999"
   y1="90.508003"
   x1="69.015999"
   stroke-miterlimit="10"
   style="fill:none;stroke:#000000;stroke-width:0.75;stroke-miterlimit:10" />
		<line
   id="line12865"
   y2="89.972"
   x2="99.230003"
   y1="89.972"
   x1="87.525002"
   stroke-miterlimit="10"
   style="fill:none;stroke:#000000;stroke-width:0.75;stroke-miterlimit:10" />
		
			<line
   id="line12867"
   y2="90.508003"
   x2="116.584"
   y1="90.508003"
   x1="107.389"
   stroke-miterlimit="10"
   style="fill:none;stroke:#000000;stroke-width:0.75;stroke-miterlimit:10" />
		
			<line
   id="line12869"
   y2="89.972"
   x2="137.605"
   y1="89.972"
   x1="125.9"
   stroke-miterlimit="10"
   style="fill:none;stroke:#000000;stroke-width:0.75;stroke-miterlimit:10" />
		
			<line
   id="line12871"
   y2="90.508003"
   x2="154.959"
   y1="90.508003"
   x1="145.76401"
   stroke-miterlimit="10"
   style="fill:none;stroke:#000000;stroke-width:0.75;stroke-miterlimit:10" />
		
			<line
   id="line12873"
   y2="89.972"
   x2="175.98"
   y1="89.972"
   x1="164.27499"
   stroke-miterlimit="10"
   style="fill:none;stroke:#000000;stroke-width:0.75;stroke-miterlimit:10" />
		
			<line
   id="line12875"
   y2="90.508003"
   x2="193.334"
   y1="90.508003"
   x1="184.13901"
   stroke-miterlimit="10"
   style="fill:none;stroke:#000000;stroke-width:0.75;stroke-miterlimit:10" />
	</g>
	<g
   id="g12877">
		
			<line
   id="line12879"
   y2="102.273"
   x2="11.365"
   y1="102.273"
   x1="-0.34"
   stroke-miterlimit="10"
   style="fill:none;stroke:#000000;stroke-width:0.75;stroke-miterlimit:10" />
		
			<line
   id="line12881"
   y2="102.808"
   x2="28.719"
   y1="102.808"
   x1="19.521999"
   stroke-miterlimit="10"
   style="fill:none;stroke:#000000;stroke-width:0.75;stroke-miterlimit:10" />
		
			<line
   id="line12883"
   y2="102.273"
   x2="49.737999"
   y1="102.273"
   x1="38.035"
   stroke-miterlimit="10"
   style="fill:none;stroke:#000000;stroke-width:0.75;stroke-miterlimit:10" />
		
			<line
   id="line12885"
   y2="102.808"
   x2="67.092003"
   y1="102.808"
   x1="57.896"
   stroke-miterlimit="10"
   style="fill:none;stroke:#000000;stroke-width:0.75;stroke-miterlimit:10" />
		
			<line
   id="line12887"
   y2="102.273"
   x2="88.111"
   y1="102.273"
   x1="76.405998"
   stroke-miterlimit="10"
   style="fill:none;stroke:#000000;stroke-width:0.75;stroke-miterlimit:10" />
		
			<line
   id="line12889"
   y2="102.808"
   x2="105.465"
   y1="102.808"
   x1="96.269997"
   stroke-miterlimit="10"
   style="fill:none;stroke:#000000;stroke-width:0.75;stroke-miterlimit:10" />
		
			<line
   id="line12891"
   y2="102.273"
   x2="126.486"
   y1="102.273"
   x1="114.781"
   stroke-miterlimit="10"
   style="fill:none;stroke:#000000;stroke-width:0.75;stroke-miterlimit:10" />
		
			<line
   id="line12893"
   y2="102.808"
   x2="143.84"
   y1="102.808"
   x1="134.645"
   stroke-miterlimit="10"
   style="fill:none;stroke:#000000;stroke-width:0.75;stroke-miterlimit:10" />
		
			<line
   id="line12895"
   y2="102.273"
   x2="164.86099"
   y1="102.273"
   x1="153.15601"
   stroke-miterlimit="10"
   style="fill:none;stroke:#000000;stroke-width:0.75;stroke-miterlimit:10" />
		
			<line
   id="line12897"
   y2="102.808"
   x2="182.215"
   y1="102.808"
   x1="173.02"
   stroke-miterlimit="10"
   style="fill:none;stroke:#000000;stroke-width:0.75;stroke-miterlimit:10" />
	</g>
	<g
   id="g12899">
		
			<line
   id="line12901"
   y2="115.492"
   x2="11.886"
   y1="115.492"
   x1="0.18000001"
   stroke-miterlimit="10"
   style="fill:none;stroke:#000000;stroke-width:0.75;stroke-miterlimit:10" />
		
			<line
   id="line12903"
   y2="116.027"
   x2="29.24"
   y1="116.027"
   x1="20.042999"
   stroke-miterlimit="10"
   style="fill:none;stroke:#000000;stroke-width:0.75;stroke-miterlimit:10" />
		
			<line
   id="line12905"
   y2="115.492"
   x2="50.257999"
   y1="115.492"
   x1="38.555"
   stroke-miterlimit="10"
   style="fill:none;stroke:#000000;stroke-width:0.75;stroke-miterlimit:10" />
		
			<line
   id="line12907"
   y2="116.027"
   x2="67.612"
   y1="116.027"
   x1="58.417"
   stroke-miterlimit="10"
   style="fill:none;stroke:#000000;stroke-width:0.75;stroke-miterlimit:10" />
		
			<line
   id="line12909"
   y2="115.492"
   x2="88.630997"
   y1="115.492"
   x1="76.926003"
   stroke-miterlimit="10"
   style="fill:none;stroke:#000000;stroke-width:0.75;stroke-miterlimit:10" />
		
			<line
   id="line12911"
   y2="116.027"
   x2="105.984"
   y1="116.027"
   x1="96.790001"
   stroke-miterlimit="10"
   style="fill:none;stroke:#000000;stroke-width:0.75;stroke-miterlimit:10" />
		
			<line
   id="line12913"
   y2="115.492"
   x2="127.006"
   y1="115.492"
   x1="115.301"
   stroke-miterlimit="10"
   style="fill:none;stroke:#000000;stroke-width:0.75;stroke-miterlimit:10" />
		
			<line
   id="line12915"
   y2="116.027"
   x2="144.35899"
   y1="116.027"
   x1="135.164"
   stroke-miterlimit="10"
   style="fill:none;stroke:#000000;stroke-width:0.75;stroke-miterlimit:10" />
		
			<line
   id="line12917"
   y2="115.492"
   x2="165.381"
   y1="115.492"
   x1="153.67599"
   stroke-miterlimit="10"
   style="fill:none;stroke:#000000;stroke-width:0.75;stroke-miterlimit:10" />
		
			<line
   id="line12919"
   y2="116.027"
   x2="182.73399"
   y1="116.027"
   x1="173.539"
   stroke-miterlimit="10"
   style="fill:none;stroke:#000000;stroke-width:0.75;stroke-miterlimit:10" />
	</g>
	<g
   id="g12921">
		
			<line
   id="line12923"
   y2="122.423"
   x2="16.179001"
   y1="122.423"
   x1="4.474"
   stroke-miterlimit="10"
   style="fill:none;stroke:#000000;stroke-width:0.75;stroke-miterlimit:10" />
		
			<line
   id="line12925"
   y2="122.958"
   x2="33.532001"
   y1="122.958"
   x1="24.336"
   stroke-miterlimit="10"
   style="fill:none;stroke:#000000;stroke-width:0.75;stroke-miterlimit:10" />
		
			<line
   id="line12927"
   y2="122.423"
   x2="54.550999"
   y1="122.423"
   x1="42.848"
   stroke-miterlimit="10"
   style="fill:none;stroke:#000000;stroke-width:0.75;stroke-miterlimit:10" />
		
			<line
   id="line12929"
   y2="122.958"
   x2="71.904999"
   y1="122.958"
   x1="62.709"
   stroke-miterlimit="10"
   style="fill:none;stroke:#000000;stroke-width:0.75;stroke-miterlimit:10" />
		
			<line
   id="line12931"
   y2="122.423"
   x2="92.924004"
   y1="122.423"
   x1="81.219002"
   stroke-miterlimit="10"
   style="fill:none;stroke:#000000;stroke-width:0.75;stroke-miterlimit:10" />
		
			<line
   id="line12933"
   y2="122.958"
   x2="110.277"
   y1="122.958"
   x1="101.082"
   stroke-miterlimit="10"
   style="fill:none;stroke:#000000;stroke-width:0.75;stroke-miterlimit:10" />
		
			<line
   id="line12935"
   y2="122.423"
   x2="131.299"
   y1="122.423"
   x1="119.594"
   stroke-miterlimit="10"
   style="fill:none;stroke:#000000;stroke-width:0.75;stroke-miterlimit:10" />
		
			<line
   id="line12937"
   y2="122.958"
   x2="148.65199"
   y1="122.958"
   x1="139.457"
   stroke-miterlimit="10"
   style="fill:none;stroke:#000000;stroke-width:0.75;stroke-miterlimit:10" />
		
			<line
   id="line12939"
   y2="122.423"
   x2="169.674"
   y1="122.423"
   x1="157.96899"
   stroke-miterlimit="10"
   style="fill:none;stroke:#000000;stroke-width:0.75;stroke-miterlimit:10" />
		
			<line
   id="line12941"
   y2="122.958"
   x2="187.02699"
   y1="122.958"
   x1="177.832"
   stroke-miterlimit="10"
   style="fill:none;stroke:#000000;stroke-width:0.75;stroke-miterlimit:10" />
	</g>
	<g
   id="g12943">
		<line
   id="line12945"
   y2="85.237999"
   x2="16.177"
   y1="85.237999"
   x1="4.4710002"
   stroke-miterlimit="10"
   style="fill:none;stroke:#000000;stroke-width:0.75;stroke-miterlimit:10" />
		
			<line
   id="line12947"
   y2="85.773003"
   x2="33.530998"
   y1="85.773003"
   x1="24.334"
   stroke-miterlimit="10"
   style="fill:none;stroke:#000000;stroke-width:0.75;stroke-miterlimit:10" />
		
			<line
   id="line12949"
   y2="85.237999"
   x2="54.551998"
   y1="85.237999"
   x1="42.846001"
   stroke-miterlimit="10"
   style="fill:none;stroke:#000000;stroke-width:0.75;stroke-miterlimit:10" />
		
			<line
   id="line12951"
   y2="85.773003"
   x2="71.905998"
   y1="85.773003"
   x1="62.709"
   stroke-miterlimit="10"
   style="fill:none;stroke:#000000;stroke-width:0.75;stroke-miterlimit:10" />
		
			<line
   id="line12953"
   y2="85.237999"
   x2="92.927002"
   y1="85.237999"
   x1="81.221001"
   stroke-miterlimit="10"
   style="fill:none;stroke:#000000;stroke-width:0.75;stroke-miterlimit:10" />
		
			<line
   id="line12955"
   y2="85.773003"
   x2="110.281"
   y1="85.773003"
   x1="101.084"
   stroke-miterlimit="10"
   style="fill:none;stroke:#000000;stroke-width:0.75;stroke-miterlimit:10" />
		
			<line
   id="line12957"
   y2="85.237999"
   x2="131.30299"
   y1="85.237999"
   x1="119.598"
   stroke-miterlimit="10"
   style="fill:none;stroke:#000000;stroke-width:0.75;stroke-miterlimit:10" />
		
			<line
   id="line12959"
   y2="85.773003"
   x2="148.65601"
   y1="85.773003"
   x1="139.459"
   stroke-miterlimit="10"
   style="fill:none;stroke:#000000;stroke-width:0.75;stroke-miterlimit:10" />
		
			<line
   id="line12961"
   y2="85.237999"
   x2="169.67799"
   y1="85.237999"
   x1="157.97301"
   stroke-miterlimit="10"
   style="fill:none;stroke:#000000;stroke-width:0.75;stroke-miterlimit:10" />
		
			<line
   id="line12963"
   y2="85.773003"
   x2="187.03101"
   y1="85.773003"
   x1="177.834"
   stroke-miterlimit="10"
   style="fill:none;stroke:#000000;stroke-width:0.75;stroke-miterlimit:10" />
	</g>
	<g
   id="g12965">
		<line
   id="line12967"
   y2="96.651001"
   x2="16.306"
   y1="96.651001"
   x1="4.6009998"
   stroke-miterlimit="10"
   style="fill:none;stroke:#000000;stroke-width:0.75;stroke-miterlimit:10" />
		<line
   id="line12969"
   y2="97.185997"
   x2="33.66"
   y1="97.185997"
   x1="24.462999"
   stroke-miterlimit="10"
   style="fill:none;stroke:#000000;stroke-width:0.75;stroke-miterlimit:10" />
		
			<line
   id="line12971"
   y2="96.651001"
   x2="54.681"
   y1="96.651001"
   x1="42.976002"
   stroke-miterlimit="10"
   style="fill:none;stroke:#000000;stroke-width:0.75;stroke-miterlimit:10" />
		
			<line
   id="line12973"
   y2="97.185997"
   x2="72.035004"
   y1="97.185997"
   x1="62.838001"
   stroke-miterlimit="10"
   style="fill:none;stroke:#000000;stroke-width:0.75;stroke-miterlimit:10" />
		
			<line
   id="line12975"
   y2="96.651001"
   x2="93.056"
   y1="96.651001"
   x1="81.350998"
   stroke-miterlimit="10"
   style="fill:none;stroke:#000000;stroke-width:0.75;stroke-miterlimit:10" />
		
			<line
   id="line12977"
   y2="97.185997"
   x2="110.41"
   y1="97.185997"
   x1="101.213"
   stroke-miterlimit="10"
   style="fill:none;stroke:#000000;stroke-width:0.75;stroke-miterlimit:10" />
		
			<line
   id="line12979"
   y2="96.651001"
   x2="131.43201"
   y1="96.651001"
   x1="119.727"
   stroke-miterlimit="10"
   style="fill:none;stroke:#000000;stroke-width:0.75;stroke-miterlimit:10" />
		
			<line
   id="line12981"
   y2="97.185997"
   x2="148.785"
   y1="97.185997"
   x1="139.588"
   stroke-miterlimit="10"
   style="fill:none;stroke:#000000;stroke-width:0.75;stroke-miterlimit:10" />
		
			<line
   id="line12983"
   y2="96.651001"
   x2="169.80701"
   y1="96.651001"
   x1="158.10201"
   stroke-miterlimit="10"
   style="fill:none;stroke:#000000;stroke-width:0.75;stroke-miterlimit:10" />
		
			<line
   id="line12985"
   y2="97.185997"
   x2="187.16"
   y1="97.185997"
   x1="177.963"
   stroke-miterlimit="10"
   style="fill:none;stroke:#000000;stroke-width:0.75;stroke-miterlimit:10" />
	</g>
	<g
   id="g12987">
		
			<line
   id="line12989"
   y2="108.783"
   x2="16.306"
   y1="108.783"
   x1="4.6009998"
   stroke-miterlimit="10"
   style="fill:none;stroke:#000000;stroke-width:0.75;stroke-miterlimit:10" />
		
			<line
   id="line12991"
   y2="109.318"
   x2="33.66"
   y1="109.318"
   x1="24.462999"
   stroke-miterlimit="10"
   style="fill:none;stroke:#000000;stroke-width:0.75;stroke-miterlimit:10" />
		
			<line
   id="line12993"
   y2="108.783"
   x2="54.681"
   y1="108.783"
   x1="42.976002"
   stroke-miterlimit="10"
   style="fill:none;stroke:#000000;stroke-width:0.75;stroke-miterlimit:10" />
		
			<line
   id="line12995"
   y2="109.318"
   x2="72.035004"
   y1="109.318"
   x1="62.838001"
   stroke-miterlimit="10"
   style="fill:none;stroke:#000000;stroke-width:0.75;stroke-miterlimit:10" />
		
			<line
   id="line12997"
   y2="108.783"
   x2="93.056"
   y1="108.783"
   x1="81.350998"
   stroke-miterlimit="10"
   style="fill:none;stroke:#000000;stroke-width:0.75;stroke-miterlimit:10" />
		
			<line
   id="line12999"
   y2="109.318"
   x2="110.41"
   y1="109.318"
   x1="101.213"
   stroke-miterlimit="10"
   style="fill:none;stroke:#000000;stroke-width:0.75;stroke-miterlimit:10" />
		
			<line
   id="line13001"
   y2="108.783"
   x2="131.43201"
   y1="108.783"
   x1="119.727"
   stroke-miterlimit="10"
   style="fill:none;stroke:#000000;stroke-width:0.75;stroke-miterlimit:10" />
		
			<line
   id="line13003"
   y2="109.318"
   x2="148.785"
   y1="109.318"
   x1="139.588"
   stroke-miterlimit="10"
   style="fill:none;stroke:#000000;stroke-width:0.75;stroke-miterlimit:10" />
		
			<line
   id="line13005"
   y2="108.783"
   x2="169.80701"
   y1="108.783"
   x1="158.10201"
   stroke-miterlimit="10"
   style="fill:none;stroke:#000000;stroke-width:0.75;stroke-miterlimit:10" />
		
			<line
   id="line13007"
   y2="109.318"
   x2="187.16"
   y1="109.318"
   x1="177.963"
   stroke-miterlimit="10"
   style="fill:none;stroke:#000000;stroke-width:0.75;stroke-miterlimit:10" />
	</g>
</g><path
     id="path13009"
     d="m 9.095,36.706 c 0.828,1.163 5.067,5.154 5.593,7.164 0.526,2.01 1.402,3.496 1.402,3.496 0,0 5.875,0.75 14.688,0.75 8.813,0 24.57,-0.75 24.57,-0.75 0,0 -0.458,-1.119 0,-1.86 0.458,-0.74 1.726,-3.602 1.155,-3.469 -4.006,0.931 -14.421,2.31 -18.406,2.133 -6.882,-0.304 -20.773,-5.712 -23.632,-6.304 -2.356,-0.489 -5.37,-1.16 -5.37,-1.16 z"
     stroke-miterlimit="10"
     inkscape:connector-curvature="0"
     style="fill:#ffffff;stroke:#000000;stroke-width:0.75;stroke-miterlimit:10" /><path
     id="path13011"
     d="m 14.465,42.99 c 0.969,-0.25 7.506,1.578 11.48,1.813 2.884,0.17 5.346,0.623 7.895,0.5 1.771,-0.088 6.164,-0.327 7.917,-0.555 0.867,-0.111 13.302,-1.078 14.208,-1.134"
     stroke-miterlimit="10"
     inkscape:connector-curvature="0"
     style="fill:none;stroke:#000000;stroke-width:1.5;stroke-miterlimit:10" /><path
     id="path13013"
     d="m 28.436,41.98 c 0.237,-0.031 5.329,-3.757 6.779,-4.872 4.776,-3.671 12.375,-8.89 12.5,-8.785 0.125,0.104 -9.125,9.163 -10.167,10.588 -1.525,2.087 -2.959,4.81 -2.959,4.81"
     stroke-miterlimit="10"
     inkscape:connector-curvature="0"
     style="fill:none;stroke:#000000;stroke-miterlimit:10" /><path
     id="path13015"
     d="m 48.01,28.054 c 0.045,0.534 -0.539,2.699 -0.607,3.217 -0.051,0.386 -0.064,0.719 -0.104,1.108 -0.078,0.789 -0.188,1.68 0.245,2.359 0.471,0.74 0.074,1.267 0.608,2.031 0.205,0.292 1.478,3.206 1.736,3.467"
     stroke-miterlimit="10"
     inkscape:connector-curvature="0"
     style="fill:none;stroke:#000000;stroke-width:0.75;stroke-miterlimit:10" /><path
     id="path13017"
     d="m 44.534,40.844 c 0.098,-0.401 0.659,-1.104 0.929,-1.519 0.212,-0.328 0.232,-0.742 0.335,-1.119 0.143,-0.531 0.306,-1.116 0.49,-1.642 0.34,-0.974 0.913,-2.352 0.938,-3.388"
     stroke-miterlimit="10"
     inkscape:connector-curvature="0"
     style="fill:none;stroke:#000000;stroke-width:0.75;stroke-miterlimit:10" /><path
     id="path13019"
     d="m 48.01,28.054 c 0.328,0.112 0.537,1.338 0.67,1.799 0.16,0.552 0.287,1.13 0.417,1.69 0.103,0.439 0.372,0.955 0.444,1.378 0.092,0.539 0.021,0.933 0.372,1.401 0.241,0.324 0.406,0.683 0.667,0.999 0.393,0.479 0.892,0.861 1.188,1.416 0.291,0.543 0.352,1.047 0.492,1.417 0.136,0.357 0.162,1.199 0.267,1.678"
     stroke-miterlimit="10"
     inkscape:connector-curvature="0"
     style="fill:none;stroke:#000000;stroke-width:0.75;stroke-miterlimit:10" /><path
     id="path13021"
     d="m 51.368,36.177 c 0.042,0.016 -0.24,0.11 -0.653,0.174 -0.184,0.027 -1.495,0.085 -1.446,0.297 0.074,0.325 0.487,1.378 0.538,1.719 0.043,0.289 0.188,1.471 0.269,1.762"
     stroke-miterlimit="10"
     inkscape:connector-curvature="0"
     style="fill:none;stroke:#000000;stroke-width:0.75;stroke-miterlimit:10" /><g
     id="g13023">
	<path
   id="path13025"
   d="m 66.514,106.895 v 5.617 l -2.962,-1.926 c 0,0 -3.999,2.628 -6.516,2.11 -2.519,-0.52 -4.294,-3.295 -4.888,-3.962 -0.592,-0.666 -0.852,-1.332 -0.852,-1.332 0,0 0.813,-0.313 1,-0.509 0.186,-0.196 -0.555,-0.861 -0.592,-0.974 -0.037,-0.109 3.442,-2.101 5.96,-1.92 2.517,0.182 6.367,4.376 6.367,4.376 l 2.483,-1.48 z"
   stroke-miterlimit="10"
   inkscape:connector-curvature="0"
   style="fill:none;stroke:#000000;stroke-miterlimit:10" />
	<path
   id="path13027"
   d="m 91.673,96.331 v 4.748 l 2.503,-1.627 c 0,0 3.38,2.221 5.507,1.783 2.127,-0.438 3.629,-2.784 4.13,-3.35 0.5,-0.563 0.721,-1.126 0.721,-1.126 0,0 -0.688,-0.265 -0.847,-0.43 -0.154,-0.165 0.471,-0.728 0.501,-0.822 0.031,-0.093 -2.91,-1.774 -5.038,-1.622 -2.127,0.152 -5.381,3.698 -5.381,3.698 l -2.096,-1.252 z"
   stroke-miterlimit="10"
   inkscape:connector-curvature="0"
   style="fill:none;stroke:#000000;stroke-miterlimit:10" />
	<path
   id="path13029"
   d="m 83.185,102.284 0.808,3.048 -1.885,-0.619 c 0,0 -1.792,2 -3.232,2.08 -1.441,0.08 -2.804,-1.17 -3.221,-1.447 -0.417,-0.276 -0.652,-0.601 -0.652,-0.601 0,0 0.396,-0.287 0.469,-0.42 0.072,-0.133 -0.425,-0.388 -0.461,-0.442 -0.036,-0.054 1.567,-1.634 2.959,-1.896 1.392,-0.262 4.083,1.46 4.083,1.46 l 1.132,-1.163 z"
   stroke-miterlimit="10"
   inkscape:connector-curvature="0"
   style="fill:none;stroke:#000000;stroke-miterlimit:10" />
	<path
   id="path13031"
   d="m 97.55,110.788 0.566,3.103 -2.541,-0.636 c 0,0 -2.904,2.028 -4.95,2.105 -2.047,0.078 -3.733,-1.198 -4.271,-1.481 -0.537,-0.282 -0.809,-0.611 -0.809,-0.611 0,0 0.613,-0.29 0.74,-0.427 0.128,-0.134 -0.526,-0.396 -0.567,-0.45 -0.04,-0.057 2.517,-1.657 4.529,-1.92 2.012,-0.266 5.484,1.495 5.484,1.495 l 1.819,-1.178 z"
   stroke-miterlimit="10"
   inkscape:connector-curvature="0"
   style="fill:none;stroke:#000000;stroke-miterlimit:10" />
</g><g
     id="g13033">
	<path
   id="path13035"
   d="m 105.882,89.032 c 2.659,0.107 5.67,-3.154 8.167,-4.171 3.572,-1.455 8.271,-0.663 12.125,-0.663 8.343,0 14.911,4.25 22.704,6.176 3.979,0.983 8.813,-0.12 12.804,-0.338 4.725,-0.257 10.08,-1.896 14.898,-1.18 4.841,0.72 9.25,3.111 13.181,5.634 1.878,1.205 6.372,1.854 7.124,4.209 1.127,3.523 -1.285,4.955 -3.457,6.753 -2.536,2.098 -6.076,3.885 -9.381,4.418 -4.049,0.652 -7.746,-0.124 -11.669,1.37 -1.746,0.665 -3.428,2.017 -5.196,2.421 -1.633,0.372 -3.813,0.093 -5.504,0.037 -3.944,-0.131 -7.992,-0.823 -11.947,-0.999 -4.43,-0.197 -7.929,1.665 -12.224,1.666 -4.194,0.001 -8.181,-0.57 -12.218,-1.333 -2.103,-0.397 -4.021,-0.386 -6.225,-0.5 -1.96,-0.102 -3.729,-0.704 -5.69,-0.963 -4.021,-0.529 -9.109,-0.159 -10.977,-4.504 2.061,-0.061 3.311,-0.303 5.238,-0.903 1.879,-0.585 3.881,-0.539 5.791,-1.01 3.86,-0.953 7.761,-1.045 11.656,-1.625 3.063,-0.455 6.642,-1.58 9.134,-3.202 2.507,-1.632 5.428,-4.55 1.206,-6.301 -1.535,-0.637 -3.25,-0.608 -4.745,-1.326 -1.03,-0.495 -1.695,-1.216 -2.581,-1.871 -2.402,-1.776 -4.122,-2.96 -7.339,-3.07 -1.711,-0.059 -2.241,0.112 -3.877,-0.328 -1.118,-0.303 -2.349,-1.003 -3.563,-1.188 -1.105,-0.17 -2.573,0.817 -3.563,1.146 -0.951,0.316 -1.964,0.96 -2.85,1.215"
   stroke-miterlimit="10"
   inkscape:connector-curvature="0"
   style="fill:none;stroke:#000000;stroke-miterlimit:10" />
	<path
   id="path13037"
   d="m 55.348,47.365 c 2.464,2.473 4.706,5.392 4.854,8.501 0.07,1.505 -0.101,3.042 0.259,4.436 0.367,1.425 1.443,2.78 1.81,4.259 0.731,2.959 2.102,5.739 2.944,8.816 1.032,3.767 2.979,7.703 5.043,9.944 2.063,2.241 8.631,10.879 14.725,14.495 2.729,1.62 5.792,3.423 8.522,5.049 3.45,2.054 5.154,4.413 9.46,4.257"
   stroke-miterlimit="10"
   inkscape:connector-curvature="0"
   style="fill:none;stroke:#000000;stroke-miterlimit:10" />
	<path
   id="path13039"
   d="M 107.048,88.532 C 102.882,90.615 96.854,88.004 93.283,86.873 88.645,85.405 85.45,82.123 82.763,78.141 80.117,74.212 75.867,71.754 73.277,67.984 70.965,64.619 68.611,61.344 66.535,57.547 64.212,53.3 60.376,48.16 55.28,47.169"
   stroke-miterlimit="10"
   inkscape:connector-curvature="0"
   style="fill:none;stroke:#000000;stroke-miterlimit:10" />
	<path
   id="path13041"
   d="m 105.882,89.032 c 2.209,0 4.25,-0.804 6.708,-0.354 2.933,0.535 6.279,2.397 8.75,3.25 1.499,0.517 6.5,1.875 6.188,5.563 -0.265,3.117 -3.813,2.313 -6.625,3.688 -6.125,4.063 -14.13,3.795 -18.882,5.937"
   stroke-miterlimit="10"
   inkscape:connector-curvature="0"
   style="fill:none;stroke:#000000;stroke-miterlimit:10" />
	<g
   id="g13043">
		<path
   id="path13045"
   d="m 76.527,89.599 c 1.063,-0.095 1.495,0.424 2.631,0.735 1.446,0.396 2.78,1.02 3.596,2.02 0.591,0.725 1.141,1.439 1.365,2.25 0.2,0.72 0.481,1.938 0.826,2.607 0.812,1.578 -1.669,-0.103 -2.877,-0.422 -2.097,-0.554 -4.512,-1.875 -5.445,-3.18 -0.269,-0.375 -0.466,-0.718 -0.661,-1.086 -0.188,-0.352 -0.493,-0.599 -0.693,-0.938 -0.242,-0.406 -0.663,-1.728 -0.554,-2.131 0.115,-0.434 0.435,-0.462 0.938,-0.312 0.067,0.025 0.819,0.486 0.874,0.457"
   stroke-miterlimit="10"
   inkscape:connector-curvature="0"
   style="fill:#ffffff;stroke:#000000;stroke-width:0.75;stroke-miterlimit:10" />
		<path
   id="path13047"
   d="m 78.298,89.991 c 0.054,0.652 -0.445,1.352 -0.861,1.8 -0.255,0.275 -0.802,0.882 -1.223,0.866"
   stroke-miterlimit="10"
   inkscape:connector-curvature="0"
   style="fill:none;stroke:#000000;stroke-width:0.75;stroke-miterlimit:10" />
		<path
   id="path13049"
   d="m 80.965,90.824 c 0.033,1.021 -0.459,2.115 -1.051,2.892 -0.317,0.416 -1.049,1.182 -1.616,1.275"
   stroke-miterlimit="10"
   inkscape:connector-curvature="0"
   style="fill:none;stroke:#000000;stroke-width:0.75;stroke-miterlimit:10" />
		<path
   id="path13051"
   d="m 83.631,93.282 c 0.128,0.749 -0.455,1.78 -0.866,2.357 -0.441,0.619 -1.099,0.925 -1.759,1.268"
   stroke-miterlimit="10"
   inkscape:connector-curvature="0"
   style="fill:none;stroke:#000000;stroke-width:0.75;stroke-miterlimit:10" />
	</g>
	<g
   id="g13053">
		<path
   id="path13055"
   d="m 88.236,82.794 c 0.053,-1.064 -0.481,-1.478 -0.84,-2.6 -0.454,-1.43 -1.128,-2.738 -2.159,-3.513 -0.747,-0.563 -1.483,-1.083 -2.302,-1.275 -0.727,-0.172 -1.956,-0.405 -2.639,-0.723 -1.609,-0.748 0.168,1.663 0.535,2.856 0.637,2.074 2.052,4.436 3.393,5.316 0.385,0.253 0.735,0.438 1.111,0.617 0.356,0.173 0.617,0.47 0.963,0.654 0.417,0.227 1.752,0.595 2.151,0.47 0.429,-0.133 0.443,-0.452 0.273,-0.949 C 88.7,83.583 88.21,82.85 88.236,82.794"
   stroke-miterlimit="10"
   inkscape:connector-curvature="0"
   style="fill:#ffffff;stroke:#000000;stroke-width:0.75;stroke-miterlimit:10" />
		<path
   id="path13057"
   d="m 87.774,81.039 c -0.653,-0.028 -1.333,0.498 -1.764,0.933 -0.265,0.267 -0.85,0.836 -0.817,1.256"
   stroke-miterlimit="10"
   inkscape:connector-curvature="0"
   style="fill:none;stroke:#000000;stroke-width:0.75;stroke-miterlimit:10" />
		<path
   id="path13059"
   d="m 86.836,78.408 c -1.022,0.007 -2.095,0.542 -2.849,1.164 -0.402,0.334 -1.138,1.095 -1.21,1.665"
   stroke-miterlimit="10"
   inkscape:connector-curvature="0"
   style="fill:none;stroke:#000000;stroke-width:0.75;stroke-miterlimit:10" />
		<path
   id="path13061"
   d="m 84.275,75.841 c -0.753,-0.099 -1.761,0.524 -2.32,0.959 -0.603,0.467 -0.88,1.135 -1.197,1.809"
   stroke-miterlimit="10"
   inkscape:connector-curvature="0"
   style="fill:none;stroke:#000000;stroke-width:0.75;stroke-miterlimit:10" />
	</g>
	<path
   id="path13063"
   d="m 112.465,105.615 c -0.074,1.018 -0.773,1.83 -0.875,2.875 -0.104,1.058 -0.024,1.981 0.625,2.75"
   stroke-miterlimit="10"
   inkscape:connector-curvature="0"
   style="fill:none;stroke:#000000;stroke-miterlimit:10" />
	<path
   id="path13065"
   d="m 114.152,86.177 c 0.449,0.273 0.666,2.283 0.468,2.887"
   stroke-miterlimit="10"
   inkscape:connector-curvature="0"
   style="fill:none;stroke:#000000;stroke-miterlimit:10" />
	<line
   id="line13067"
   y2="90.111"
   x2="160.649"
   y1="114.347"
   x1="136.285"
   stroke-miterlimit="10"
   style="fill:none;stroke:#000000;stroke-miterlimit:10" />
	<line
   id="line13069"
   y2="89.127998"
   x2="166.3"
   y1="113.903"
   x1="141.524"
   stroke-miterlimit="10"
   style="fill:none;stroke:#000000;stroke-miterlimit:10" />
	<line
   id="line13071"
   y2="88.672997"
   x2="172.151"
   y1="112.714"
   x1="148.10899"
   stroke-miterlimit="10"
   style="fill:none;stroke:#000000;stroke-miterlimit:10" />
	<line
   id="line13073"
   y2="89.141998"
   x2="175.91"
   y1="112.714"
   x1="152.34"
   stroke-miterlimit="10"
   style="fill:none;stroke:#000000;stroke-miterlimit:10" />
	<line
   id="line13075"
   y2="89.824997"
   x2="179.19"
   y1="113.177"
   x1="155.839"
   stroke-miterlimit="10"
   style="fill:none;stroke:#000000;stroke-miterlimit:10" />
	<line
   id="line13077"
   y2="90.396004"
   x2="182.246"
   y1="113.177"
   x1="159.465"
   stroke-miterlimit="10"
   style="fill:none;stroke:#000000;stroke-miterlimit:10" />
	<line
   id="line13079"
   y2="91.763"
   x2="184.70599"
   y1="113.74"
   x1="162.729"
   stroke-miterlimit="10"
   style="fill:none;stroke:#000000;stroke-miterlimit:10" />
	<line
   id="line13081"
   y2="92.962997"
   x2="187.879"
   y1="113.661"
   x1="167.18201"
   stroke-miterlimit="10"
   style="fill:none;stroke:#000000;stroke-miterlimit:10" />
	<line
   id="line13083"
   y2="94.885002"
   x2="189.72701"
   y1="111.24"
   x1="173.37"
   stroke-miterlimit="10"
   style="fill:none;stroke:#000000;stroke-miterlimit:10" />
	<line
   id="line13085"
   y2="96.029999"
   x2="192.63"
   y1="110.271"
   x1="178.39"
   stroke-miterlimit="10"
   style="fill:none;stroke:#000000;stroke-miterlimit:10" />
	<line
   id="line13087"
   y2="97.108002"
   x2="195.66"
   y1="110.035"
   x1="182.73199"
   stroke-miterlimit="10"
   style="fill:none;stroke:#000000;stroke-miterlimit:10" />
	<line
   id="line13089"
   y2="99.100998"
   x2="197.287"
   y1="108.427"
   x1="187.961"
   stroke-miterlimit="10"
   style="fill:none;stroke:#000000;stroke-miterlimit:10" />
	<line
   id="line13091"
   y2="89.901001"
   x2="156.10001"
   y1="113.661"
   x1="132.34"
   stroke-miterlimit="10"
   style="fill:none;stroke:#000000;stroke-miterlimit:10" />
	<line
   id="line13093"
   y2="90.491997"
   x2="150.93201"
   y1="113.177"
   x1="128.246"
   stroke-miterlimit="10"
   style="fill:none;stroke:#000000;stroke-miterlimit:10" />
	<line
   id="line13095"
   y2="90.580002"
   x2="147.228"
   y1="113.032"
   x1="124.775"
   stroke-miterlimit="10"
   style="fill:none;stroke:#000000;stroke-miterlimit:10" />
	<line
   id="line13097"
   y2="101.683"
   x2="131.271"
   y1="111.99"
   x1="120.965"
   stroke-miterlimit="10"
   style="fill:none;stroke:#000000;stroke-miterlimit:10" />
	<line
   id="line13099"
   y2="103.455"
   x2="124.957"
   y1="111.99"
   x1="116.422"
   stroke-miterlimit="10"
   style="fill:none;stroke:#000000;stroke-miterlimit:10" />
	<line
   id="line13101"
   y2="104.424"
   x2="120.52"
   y1="111.569"
   x1="113.374"
   stroke-miterlimit="10"
   style="fill:none;stroke:#000000;stroke-miterlimit:10" />
	<line
   id="line13103"
   y2="87.086998"
   x2="115.839"
   y1="83.996002"
   x1="118.93"
   stroke-miterlimit="10"
   style="fill:none;stroke:#000000;stroke-miterlimit:10" />
	<line
   id="line13105"
   y2="87.385002"
   x2="119.545"
   y1="84.082001"
   x1="122.848"
   stroke-miterlimit="10"
   style="fill:none;stroke:#000000;stroke-miterlimit:10" />
	<line
   id="line13107"
   y2="87.969002"
   x2="124.313"
   y1="84.739998"
   x1="127.541"
   stroke-miterlimit="10"
   style="fill:none;stroke:#000000;stroke-miterlimit:10" />
	<line
   id="line13109"
   y2="84.484001"
   x2="132.229"
   y1="89.901001"
   x1="126.811"
   stroke-miterlimit="10"
   style="fill:none;stroke:#000000;stroke-miterlimit:10" />
	<line
   id="line13111"
   y2="86.073997"
   x2="134.561"
   y1="91.114998"
   x1="129.52"
   stroke-miterlimit="10"
   style="fill:none;stroke:#000000;stroke-miterlimit:10" />
	<line
   id="line13113"
   y2="87.518997"
   x2="138.658"
   y1="92.962997"
   x1="133.215"
   stroke-miterlimit="10"
   style="fill:none;stroke:#000000;stroke-miterlimit:10" />
	<line
   id="line13115"
   y2="88.375"
   x2="143.31"
   y1="94.852997"
   x1="136.83"
   stroke-miterlimit="10"
   style="fill:none;stroke:#000000;stroke-miterlimit:10" />
	<line
   id="line13117"
   y2="90.472"
   x2="183.537"
   y1="103.062"
   x1="196.127"
   stroke-miterlimit="10"
   style="fill:none;stroke:#000000;stroke-miterlimit:10" />
	<line
   id="line13119"
   y2="88.643997"
   x2="177.967"
   y1="105.129"
   x1="194.451"
   stroke-miterlimit="10"
   style="fill:none;stroke:#000000;stroke-miterlimit:10" />
	<line
   id="line13121"
   y2="89"
   x2="174.349"
   y1="106.837"
   x1="192.185"
   stroke-miterlimit="10"
   style="fill:none;stroke:#000000;stroke-miterlimit:10" />
	<line
   id="line13123"
   y2="88.711998"
   x2="170.116"
   y1="108.427"
   x1="189.832"
   stroke-miterlimit="10"
   style="fill:none;stroke:#000000;stroke-miterlimit:10" />
	<line
   id="line13125"
   y2="88.830002"
   x2="166.306"
   y1="109.204"
   x1="186.67999"
   stroke-miterlimit="10"
   style="fill:none;stroke:#000000;stroke-miterlimit:10" />
	<line
   id="line13127"
   y2="89.984001"
   x2="163.59599"
   y1="109.87"
   x1="183.481"
   stroke-miterlimit="10"
   style="fill:none;stroke:#000000;stroke-miterlimit:10" />
	<line
   id="line13129"
   y2="90.032997"
   x2="159.422"
   y1="109.87"
   x1="179.258"
   stroke-miterlimit="10"
   style="fill:none;stroke:#000000;stroke-miterlimit:10" />
	<line
   id="line13131"
   y2="90.651001"
   x2="156.09801"
   y1="110.91"
   x1="176.355"
   stroke-miterlimit="10"
   style="fill:none;stroke:#000000;stroke-miterlimit:10" />
	<line
   id="line13133"
   y2="90.514999"
   x2="151.65401"
   y1="111.24"
   x1="172.37801"
   stroke-miterlimit="10"
   style="fill:none;stroke:#000000;stroke-miterlimit:10" />
	<line
   id="line13135"
   y2="89.234001"
   x2="145.383"
   y1="113.177"
   x1="169.326"
   stroke-miterlimit="10"
   style="fill:none;stroke:#000000;stroke-miterlimit:10" />
	<line
   id="line13137"
   y2="88.023003"
   x2="140.588"
   y1="113.661"
   x1="166.22701"
   stroke-miterlimit="10"
   style="fill:none;stroke:#000000;stroke-miterlimit:10" />
	<line
   id="line13139"
   y2="85.237999"
   x2="133.217"
   y1="113.698"
   x1="161.67799"
   stroke-miterlimit="10"
   style="fill:none;stroke:#000000;stroke-miterlimit:10" />
	<line
   id="line13141"
   y2="83.802002"
   x2="127.39"
   y1="112.714"
   x1="156.30299"
   stroke-miterlimit="10"
   style="fill:none;stroke:#000000;stroke-miterlimit:10" />
	<line
   id="line13143"
   y2="98.369003"
   x2="137.563"
   y1="113.282"
   x1="152.47701"
   stroke-miterlimit="10"
   style="fill:none;stroke:#000000;stroke-miterlimit:10" />
	<line
   id="line13145"
   y2="100.432"
   x2="134.43401"
   y1="112.714"
   x1="146.715"
   stroke-miterlimit="10"
   style="fill:none;stroke:#000000;stroke-miterlimit:10" />
	<line
   id="line13147"
   y2="102.426"
   x2="130.047"
   y1="113.903"
   x1="141.524"
   stroke-miterlimit="10"
   style="fill:none;stroke:#000000;stroke-miterlimit:10" />
	<line
   id="line13149"
   y2="103.274"
   x2="126.416"
   y1="114.365"
   x1="137.507"
   stroke-miterlimit="10"
   style="fill:none;stroke:#000000;stroke-miterlimit:10" />
	<line
   id="line13151"
   y2="104.186"
   x2="122.865"
   y1="113.661"
   x1="132.34"
   stroke-miterlimit="10"
   style="fill:none;stroke:#000000;stroke-miterlimit:10" />
	<line
   id="line13153"
   y2="104.212"
   x2="117.596"
   y1="113.032"
   x1="126.416"
   stroke-miterlimit="10"
   style="fill:none;stroke:#000000;stroke-miterlimit:10" />
	<line
   id="line13155"
   y2="106.075"
   x2="113.065"
   y1="112.554"
   x1="119.545"
   stroke-miterlimit="10"
   style="fill:none;stroke:#000000;stroke-miterlimit:10" />
	<line
   id="line13157"
   y2="83.446999"
   x2="121.154"
   y1="92.339996"
   x1="130.047"
   stroke-miterlimit="10"
   style="fill:none;stroke:#000000;stroke-miterlimit:10" />
</g><path
     id="path13159"
     d="m -0.105,48.31 c 1.631,-0.898 3.036,-2.558 5.15,-2.256 1.989,0.283 3.221,1.645 5.672,1.755 2.959,0.134 5.624,0.082 8.354,-0.042 1.248,-0.058 2.434,-0.257 3.232,-0.2 1.201,0.083 2.238,0.757 3.882,-0.305 2.708,3.209 6.642,3.023 9.759,0.767 1.342,1.114 1.808,-0.607 2.961,-0.417 1.311,0.215 1.49,1.035 2.453,1.985 3.206,-4.662 7.156,0.113 11.562,-2.588 0.714,0.469 1.223,1.457 1.572,1.969 0.349,0.511 2.338,-0.67 3.32,-0.345 1.654,0.549 4.28,-0.001 5.918,0.037 2.758,0.064 4.185,-1.185 6.983,-0.974 1.156,0.087 1.174,-0.31 2.5,0.057 1.229,0.339 1.976,1.23 3.368,1.065 0.902,-0.107 2.378,-0.872 3.259,-1.061 1.032,-0.22 1.648,-0.212 2.648,-0.219 0.246,-0.002 0.926,0.661 1.514,0.668 0.634,0.007 1.867,-0.782 2.469,-0.85 1.5,-0.169 2.156,0.348 3.293,0.448 1.915,0.17 3.334,0.299 5.123,0.488 3.615,0.383 6.604,1.668 6.965,2.243 0.362,0.575 2.11,-2.463 3.509,-2.69 1.508,-0.246 1.739,0.507 3.015,0.667 1.975,0.248 3.824,-0.639 5.869,-1.243 0.726,1.224 1.813,0.633 3.085,0.773 0.433,0.048 0.953,0.796 1.263,0.78 0.888,-0.047 1.614,-1.021 2.349,-1.028 1.356,-0.014 1.748,0.992 3.177,1.099 1.086,0.081 2.841,-1.188 3.998,-1.226 0.848,-0.027 2.216,0.482 2.735,0.457 0.854,-0.041 0.732,0.146 1.974,-0.369 0.784,-0.325 1.617,-2.223 2.666,-2.06 1.018,0.159 1.714,2.368 2.687,2.928 2.025,1.166 9.59,1.002 11.713,-0.298 2.304,3.92 3.245,-1.526 7.146,-0.593 0.944,0.226 0.946,1.441 2.255,1.339 1.323,-0.104 2.048,-2.654 3.607,-2.478 1.118,0.126 1.111,1.385 1.986,1.773 1.512,0.671 1.56,0.319 3.223,0.188 1.727,-0.137 5.643,-1.385 6.161,0.219 2.727,0.469 5.508,-2.514 8.155,-0.466 1.347,-1.152 2.897,-2.859 4.97,-2.522 1.058,0.172 1.605,1.301 2.545,1.536 1.586,0.397 2.901,-0.893 4.295,0.596 0.684,-0.988 0.877,-0.76 1.844,-0.522 0.048,0.304 0.087,0.604 0.132,0.877 0.911,-0.086 1.466,0.165 2.222,0.531"
     stroke-miterlimit="10"
     inkscape:connector-curvature="0"
     style="fill:none;stroke:#000000;stroke-width:2;stroke-miterlimit:10" /></g></svg>