<?xml version="1.0" encoding="UTF-8" standalone="no"?>
<!-- Generator: Adobe Illustrator 16.0.0, SVG Export Plug-In . SVG Version: 6.00 Build 0)  -->

<svg
   xmlns:dc="http://purl.org/dc/elements/1.1/"
   xmlns:cc="http://creativecommons.org/ns#"
   xmlns:rdf="http://www.w3.org/1999/02/22-rdf-syntax-ns#"
   xmlns:svg="http://www.w3.org/2000/svg"
   xmlns="http://www.w3.org/2000/svg"
   xmlns:sodipodi="http://sodipodi.sourceforge.net/DTD/sodipodi-0.dtd"
   xmlns:inkscape="http://www.inkscape.org/namespaces/inkscape"
   version="1.0"
   id="Layer_1"
   x="0px"
   y="0px"
   viewBox="0 0 553.25 807.75338"
   enable-background="new 0 0 437 54"
   xml:space="preserve"
   inkscape:version="0.48.4 r9939"
   width="100%"
   height="100%"
   sodipodi:docname="Qn01.svg"><metadata
   id="metadata3203"><rdf:RDF><cc:Work
       rdf:about=""><dc:format>image/svg+xml</dc:format><dc:type
         rdf:resource="http://purl.org/dc/dcmitype/StillImage" /><dc:title></dc:title></cc:Work></rdf:RDF></metadata><defs
   id="defs3201" /><sodipodi:namedview
   pagecolor="#ffffff"
   bordercolor="#666666"
   borderopacity="1"
   objecttolerance="10"
   gridtolerance="10"
   guidetolerance="10"
   inkscape:pageopacity="0"
   inkscape:pageshadow="2"
   inkscape:window-width="1280"
   inkscape:window-height="716"
   id="namedview3199"
   showgrid="false"
   inkscape:zoom="1.7803204"
   inkscape:cx="276.48975"
   inkscape:cy="156.73016"
   inkscape:window-x="-8"
   inkscape:window-y="-8"
   inkscape:window-maximized="1"
   inkscape:current-layer="Layer_1"
   showborder="false"
   inkscape:showpageshadow="false"
   fit-margin-top="0"
   fit-margin-left="0"
   fit-margin-right="0"
   fit-margin-bottom="0" />
<g
   id="Intel_Skoool_Logo"
   transform="translate(57.989754,376.87669)">
	<g
   id="g3097">
		<g
   id="g3099">
			<g
   id="g3101">
				<g
   id="g3103">
					<path
   d="M 38.236,43.095 C 25.511,44.276 12.238,42.43 10.381,32.489 9.472,27.559 11.706,22.373 14.675,19.144 V 17.415 C 9.329,22.082 6.431,28.021 8.103,35.025 10.235,43.988 21.619,49.088 39,47.39 45.889,46.725 54.882,44.506 61.15,41.077 v -4.871 c -5.692,3.369 -15.076,6.169 -22.914,6.889 z M 71.771,17.297 C 68.758,2.539 40.137,1.619 21.676,12.86 v 1.238 C 40.11,4.616 66.251,4.674 68.63,18.25 c 0.808,4.493 -1.73,9.192 -6.241,11.873 v 3.517 c 5.434,-1.99 11.009,-8.445 9.382,-16.343 z"
   id="path3105"
   inkscape:connector-curvature="0"
   style="fill:#ffffff" />
					<path
   d="m 60.114,15.165 h -3.346 v 14.843 c 0,1.758 0.851,3.258 3.346,3.516 V 15.165 z"
   id="path3107"
   inkscape:connector-curvature="0"
   style="fill:#ffffff" />
					<path
   d="m 20.365,20.584 h -3.343 v 9.713 c 0,1.73 0.852,3.258 3.343,3.487 v -13.2 z"
   id="path3109"
   inkscape:connector-curvature="0"
   style="fill:#ffffff" />
					<rect
   x="17.021999"
   y="15.597"
   width="3.3310001"
   height="3.1700001"
   id="rect3111"
   style="fill:#ffffff" />
					<path
   d="m 40.354,33.64 c -2.694,0 -3.833,-1.874 -3.833,-3.718 V 17.009 h 3.3 v 3.575 h 2.494 v 2.681 h -2.494 v 6.456 c 0,0.748 0.346,1.151 1.138,1.151 h 1.356 v 2.768 h -1.961"
   id="path3113"
   inkscape:connector-curvature="0"
   style="fill:#ffffff" />
					<path
   d="m 46.45,28.136 c 0,1.7 1.066,2.941 2.926,2.941 1.469,0 2.192,-0.406 3.039,-1.241 l 2.049,1.959 c -1.312,1.268 -2.683,2.076 -5.118,2.076 -3.156,0 -6.196,-1.729 -6.196,-6.773 0,-4.295 2.666,-6.745 6.141,-6.745 3.531,0 5.563,2.852 5.563,6.6 v 1.183 H 46.45 m 2.679,-5.046 c -1.122,0 -2.001,0.579 -2.362,1.384 -0.215,0.463 -0.301,0.835 -0.316,1.412 h 5.101 C 51.48,24.474 50.845,23.09 49.129,23.09 z"
   id="path3115"
   inkscape:connector-curvature="0"
   style="fill:#ffffff" />
					<path
   d="m 29.359,23.265 c 0.966,0 1.367,0.459 1.367,1.239 v 9.165 h 3.315 v -9.195 c 0,-1.844 -0.993,-3.89 -3.904,-3.89 h -6.832 v 13.085 h 3.314 V 23.265 h 2.74 z"
   id="path3117"
   inkscape:connector-curvature="0"
   style="fill:#ffffff" />
				</g>
			</g>
			<g
   id="g3119">
				<path
   d="m 64.003,19.056 c -1.08,0 -1.944,-0.866 -1.944,-1.961 0,-1.066 0.864,-1.93 1.944,-1.93 1.082,0 1.96,0.864 1.96,1.93 0,1.095 -0.879,1.961 -1.96,1.961 z m 0,-3.574 c -0.894,0 -1.614,0.719 -1.614,1.612 0,0.925 0.72,1.645 1.614,1.645 0.894,0 1.643,-0.719 1.643,-1.645 0,-0.892 -0.75,-1.612 -1.643,-1.612 z m 0.865,2.794 h -0.36 c -0.043,0 -0.057,0 -0.073,-0.058 l -0.504,-0.834 c -0.014,0 -0.058,-0.028 -0.07,-0.028 0,0 -0.074,0 -0.144,0 -0.03,0 -0.06,0 -0.073,0 v 0.834 c 0,0.028 -0.028,0.085 -0.086,0.085 h -0.332 c -0.043,0 -0.086,-0.058 -0.086,-0.085 v -2.104 c 0,-0.144 0.043,-0.174 0.159,-0.201 0.114,-0.028 0.418,-0.028 0.59,-0.028 0.62,0 0.98,0.171 0.98,0.748 v 0.03 c 0,0.374 -0.187,0.547 -0.445,0.633 l 0.517,0.893 c 0,0 0.014,0.029 0.014,0.057 -0.001,0.032 -0.016,0.058 -0.087,0.058 z m -0.475,-1.671 c 0,-0.23 -0.144,-0.316 -0.462,-0.316 -0.042,0 -0.145,0 -0.214,0 -0.043,0 -0.073,0 -0.101,0 v 0.69 c 0.057,0 0.272,0 0.315,0 0.319,0 0.462,-0.115 0.462,-0.344 v -0.03 z"
   id="path3121"
   inkscape:connector-curvature="0"
   style="fill:#ffffff" />
			</g>
		</g>
		<path
   d="m 148.08,16.8 v 2.097 h -0.41 V 16.8 h -0.753 v -0.325 h 1.92 V 16.8 h -0.757 z m 3.509,2.097 v -2.015 h -0.017 l -0.791,2.015 h -0.252 l -0.796,-2.015 h -0.011 v 2.015 h -0.396 v -2.422 h 0.617 l 0.722,1.841 0.712,-1.841 h 0.611 v 2.422 h -0.399 z"
   id="path3123"
   inkscape:connector-curvature="0"
   style="fill:#ffffff" />
		<g
   id="g3125">
			<path
   d="m 84.086,31.344 c 0.709,0 1.178,-0.1 1.414,-0.275 0.236,-0.186 0.352,-0.43 0.352,-0.746 0,-0.267 -0.076,-0.488 -0.228,-0.663 -0.151,-0.181 -0.418,-0.385 -0.802,-0.618 l -3.167,-1.949 c -0.601,-0.369 -1.069,-0.826 -1.43,-1.38 -0.351,-0.551 -0.523,-1.153 -0.523,-1.809 0,-2.317 1.471,-3.477 4.407,-3.477 1.522,0 2.874,0.254 4.053,0.759 0.173,0.069 0.299,0.145 0.373,0.23 0.074,0.088 0.113,0.211 0.113,0.37 v 1.415 c 0,0.34 -0.163,0.463 -0.486,0.374 -1.353,-0.432 -2.595,-0.645 -3.724,-0.645 -0.591,0 -1.016,0.063 -1.282,0.191 -0.266,0.129 -0.395,0.352 -0.395,0.668 0,0.176 0.036,0.314 0.104,0.427 0.074,0.109 0.174,0.207 0.291,0.299 0.12,0.091 0.299,0.202 0.535,0.34 l 3.035,1.856 c 0.878,0.535 1.473,1.072 1.775,1.613 0.302,0.536 0.451,1.121 0.451,1.75 0,0.729 -0.166,1.383 -0.507,1.961 -0.339,0.566 -0.857,1.018 -1.549,1.335 -0.688,0.315 -1.514,0.471 -2.482,0.471 -1.534,0 -2.895,-0.251 -4.083,-0.753 -0.2,-0.104 -0.329,-0.194 -0.391,-0.282 -0.073,-0.083 -0.106,-0.198 -0.106,-0.323 v -1.412 c 0,-0.34 0.168,-0.468 0.497,-0.373 1.364,0.425 2.615,0.646 3.755,0.646 z"
   id="path3127"
   inkscape:connector-curvature="0"
   style="fill:#ffffff" />
			<path
   d="m 101.676,33.38 c 0,0.075 -0.032,0.146 -0.091,0.2 -0.058,0.047 -0.134,0.073 -0.225,0.073 h -2.829 c -0.113,0 -0.235,-0.044 -0.362,-0.144 -0.13,-0.092 -0.23,-0.207 -0.307,-0.315 l -3.644,-5.286 v 5.262 c 0,0.133 -0.045,0.258 -0.132,0.346 -0.087,0.098 -0.198,0.138 -0.336,0.138 h -2.125 c -0.135,0 -0.247,-0.046 -0.334,-0.149 -0.086,-0.096 -0.127,-0.217 -0.127,-0.334 V 16.475 c 0,-0.111 0.043,-0.218 0.132,-0.317 0.091,-0.097 0.203,-0.146 0.33,-0.146 h 2.125 c 0.13,0 0.238,0.046 0.331,0.135 0.091,0.091 0.137,0.201 0.137,0.329 v 9.666 l 3.96,-5.272 c 0.151,-0.188 0.331,-0.284 0.534,-0.284 h 2.602 c 0.227,0 0.337,0.083 0.337,0.249 0,0.077 -0.028,0.155 -0.088,0.238 l -4.652,5.725 4.696,6.398 c 0.043,0.068 0.068,0.13 0.068,0.184 z"
   id="path3129"
   inkscape:connector-curvature="0"
   style="fill:#ffffff" />
			<path
   d="m 113.632,28.067 c 0,1.1 -0.216,2.095 -0.641,2.979 -0.425,0.877 -1.053,1.561 -1.883,2.061 -0.83,0.488 -1.838,0.731 -3.023,0.731 -1.168,0 -2.173,-0.243 -3.012,-0.731 -0.837,-0.5 -1.468,-1.184 -1.889,-2.061 -0.423,-0.885 -0.634,-1.88 -0.634,-2.979 v -1.869 c 0,-1.102 0.211,-2.095 0.634,-2.976 0.421,-0.883 1.052,-1.57 1.889,-2.06 0.839,-0.491 1.844,-0.737 3.012,-0.737 1.185,0 2.193,0.246 3.023,0.737 0.831,0.49 1.458,1.177 1.883,2.06 0.425,0.88 0.641,1.874 0.641,2.976 v 1.869 z m -3.058,0 v -1.869 c 0,-0.964 -0.211,-1.73 -0.64,-2.29 -0.426,-0.563 -1.043,-0.846 -1.85,-0.846 -0.801,0 -1.416,0.282 -1.838,0.846 -0.429,0.56 -0.641,1.326 -0.641,2.29 v 1.869 c 0,0.968 0.214,1.731 0.646,2.294 0.426,0.558 1.039,0.841 1.833,0.841 0.8,0 1.413,-0.283 1.844,-0.841 0.433,-0.562 0.646,-1.326 0.646,-2.294 z"
   id="path3131"
   inkscape:connector-curvature="0"
   style="fill:#ffffff" />
			<path
   d="m 126.617,28.067 c 0,1.1 -0.215,2.095 -0.643,2.979 -0.425,0.877 -1.055,1.561 -1.881,2.061 -0.833,0.488 -1.839,0.731 -3.027,0.731 -1.167,0 -2.172,-0.243 -3.009,-0.731 -0.838,-0.5 -1.468,-1.184 -1.889,-2.061 -0.423,-0.885 -0.635,-1.88 -0.635,-2.979 v -1.869 c 0,-1.102 0.211,-2.095 0.635,-2.976 0.421,-0.883 1.051,-1.57 1.889,-2.06 0.837,-0.491 1.842,-0.737 3.009,-0.737 1.188,0 2.193,0.246 3.027,0.737 0.827,0.49 1.456,1.177 1.881,2.06 0.428,0.88 0.643,1.874 0.643,2.976 v 1.869 z m -3.058,0 v -1.869 c 0,-0.964 -0.213,-1.73 -0.64,-2.29 -0.428,-0.563 -1.044,-0.846 -1.853,-0.846 -0.797,0 -1.41,0.282 -1.838,0.846 -0.427,0.56 -0.64,1.326 -0.64,2.29 v 1.869 c 0,0.968 0.218,1.731 0.647,2.294 0.43,0.558 1.042,0.841 1.832,0.841 0.803,0 1.417,-0.283 1.848,-0.841 0.428,-0.562 0.644,-1.326 0.644,-2.294 z"
   id="path3133"
   inkscape:connector-curvature="0"
   style="fill:#ffffff" />
			<path
   d="m 139.599,28.067 c 0,1.1 -0.213,2.095 -0.64,2.979 -0.424,0.877 -1.054,1.561 -1.884,2.061 -0.83,0.488 -1.838,0.731 -3.024,0.731 -1.167,0 -2.172,-0.243 -3.009,-0.731 -0.839,-0.5 -1.469,-1.184 -1.892,-2.061 -0.422,-0.885 -0.634,-1.88 -0.634,-2.979 v -1.869 c 0,-1.102 0.212,-2.095 0.634,-2.976 0.423,-0.883 1.053,-1.57 1.892,-2.06 0.837,-0.491 1.842,-0.737 3.009,-0.737 1.186,0 2.194,0.246 3.024,0.737 0.83,0.49 1.46,1.177 1.884,2.06 0.426,0.88 0.64,1.874 0.64,2.976 v 1.869 z m -3.056,0 v -1.869 c 0,-0.964 -0.211,-1.73 -0.638,-2.29 -0.428,-0.563 -1.044,-0.846 -1.854,-0.846 -0.798,0 -1.411,0.282 -1.838,0.846 -0.429,0.56 -0.642,1.326 -0.642,2.29 v 1.869 c 0,0.968 0.216,1.731 0.649,2.294 0.428,0.558 1.039,0.841 1.831,0.841 0.801,0 1.416,-0.283 1.846,-0.841 0.432,-0.562 0.646,-1.326 0.646,-2.294 z"
   id="path3135"
   inkscape:connector-curvature="0"
   style="fill:#ffffff" />
			<path
   d="m 144.999,33.17 c 0,0.124 -0.039,0.248 -0.123,0.34 -0.083,0.1 -0.188,0.144 -0.318,0.144 h -2.151 c -0.135,0 -0.244,-0.046 -0.333,-0.149 -0.086,-0.096 -0.13,-0.217 -0.13,-0.334 V 16.475 c 0,-0.111 0.045,-0.218 0.135,-0.317 0.093,-0.097 0.202,-0.146 0.329,-0.146 h 2.151 c 0.12,0 0.223,0.048 0.313,0.141 0.085,0.096 0.128,0.205 0.128,0.323 V 33.17 z"
   id="path3137"
   inkscape:connector-curvature="0"
   style="fill:#ffffff" />
		</g>
	</g>
	<g
   id="g3139">
		<g
   id="g3141">
			<path
   d="m 171.54,32.131 c 0,0.342 -0.17,0.51 -0.51,0.51 h -6.269 c -0.342,0 -0.513,-0.168 -0.513,-0.51 V 18.784 c 0,-0.341 0.171,-0.511 0.513,-0.511 h 1.238 c 0.34,0 0.51,0.17 0.51,0.511 v 11.812 h 4.521 c 0.34,0 0.51,0.17 0.51,0.51 v 1.025 z"
   id="path3143"
   inkscape:connector-curvature="0"
   style="fill:#ffffff" />
			<path
   d="m 180.389,27.523 c 0,0.342 -0.164,0.513 -0.489,0.513 h -5.16 c 0.041,0.954 0.233,1.641 0.575,2.069 0.382,0.499 1.015,0.746 1.897,0.746 0.538,0 1.215,-0.129 2.025,-0.385 0.056,-0.014 0.114,-0.021 0.17,-0.021 0.185,0 0.319,0.113 0.407,0.341 l 0.297,0.854 c 0.102,0.269 0,0.469 -0.297,0.598 -0.81,0.354 -1.758,0.531 -2.837,0.531 -1.451,0 -2.568,-0.451 -3.349,-1.354 -0.781,-0.901 -1.17,-2.228 -1.17,-3.975 0,-1.58 0.361,-2.847 1.087,-3.807 0.726,-0.96 1.697,-1.439 2.919,-1.439 2.617,0 3.925,1.778 3.925,5.329 z m -2.217,-1.043 c -0.058,-1.706 -0.612,-2.56 -1.663,-2.56 -1.024,0 -1.614,0.854 -1.77,2.56 h 3.433 z"
   id="path3145"
   inkscape:connector-curvature="0"
   style="fill:#ffffff" />
			<path
   d="m 189.793,32.15 c 0.069,0.329 -0.075,0.49 -0.428,0.49 h -1.11 c -0.298,0 -0.474,-0.161 -0.531,-0.49 l -0.129,-0.788 c -0.611,0.937 -1.578,1.407 -2.901,1.407 -0.88,0 -1.563,-0.277 -2.045,-0.832 -0.484,-0.554 -0.726,-1.327 -0.726,-2.323 0,-2.047 1.108,-3.147 3.326,-3.306 l 2.131,-0.148 c 0,-0.299 -0.014,-0.455 -0.042,-0.47 -0.028,-0.583 -0.156,-0.993 -0.382,-1.236 -0.225,-0.241 -0.659,-0.362 -1.295,-0.362 -0.551,0 -1.239,0.121 -2.057,0.362 -0.34,0.1 -0.544,-0.008 -0.616,-0.319 l -0.213,-0.94 c -0.069,-0.299 0.036,-0.489 0.321,-0.575 0.966,-0.284 1.862,-0.426 2.685,-0.426 1.578,0 2.653,0.447 3.22,1.343 0.372,0.583 0.555,1.479 0.555,2.687 v 3.584 c 0,0.779 0.035,1.348 0.107,1.704 l 0.13,0.638 z m -2.412,-2.962 v -1.492 l -1.214,0.044 c -1.351,0.041 -2.026,0.667 -2.026,1.875 0,0.909 0.396,1.364 1.194,1.364 0.567,0 1.059,-0.206 1.472,-0.617 0.384,-0.372 0.574,-0.761 0.574,-1.174 z"
   id="path3147"
   inkscape:connector-curvature="0"
   style="fill:#ffffff" />
			<path
   d="m 198.147,23.068 -0.319,1.195 c -0.084,0.325 -0.295,0.46 -0.635,0.404 -0.127,-0.015 -0.335,-0.08 -0.625,-0.192 -0.291,-0.113 -0.512,-0.171 -0.667,-0.171 -0.381,0 -0.692,0.221 -0.932,0.661 -0.284,0.499 -0.424,1.224 -0.424,2.177 v 5.008 c 0,0.329 -0.172,0.49 -0.518,0.49 h -1.183 c -0.345,0 -0.519,-0.161 -0.519,-0.49 v -9.338 c 0,-0.325 0.174,-0.489 0.513,-0.489 h 0.788 c 0.314,0 0.508,0.142 0.576,0.425 l 0.237,0.918 c 0.625,-0.98 1.419,-1.472 2.387,-1.472 1.038,0 1.478,0.293 1.321,0.874 z"
   id="path3149"
   inkscape:connector-curvature="0"
   style="fill:#ffffff" />
			<path
   d="m 207.081,32.15 c 0,0.329 -0.174,0.49 -0.519,0.49 h -1.203 c -0.331,0 -0.498,-0.161 -0.498,-0.49 v -6.843 c 0,-0.837 -0.365,-1.258 -1.092,-1.258 -0.576,0 -1.059,0.227 -1.451,0.683 -0.393,0.454 -0.59,1.023 -0.59,1.706 v 5.713 c 0,0.329 -0.165,0.49 -0.497,0.49 h -1.202 c -0.344,0 -0.518,-0.161 -0.518,-0.49 v -9.338 c 0,-0.325 0.168,-0.489 0.51,-0.489 h 0.833 c 0.297,0 0.474,0.136 0.533,0.405 l 0.192,0.875 c 0.839,-0.939 1.795,-1.408 2.876,-1.408 0.797,0 1.432,0.245 1.908,0.737 0.476,0.489 0.715,1.132 0.715,1.928 v 7.289 z"
   id="path3151"
   inkscape:connector-curvature="0"
   style="fill:#ffffff" />
			<path
   d="m 212.56,18.825 c 0,0.398 -0.138,0.736 -0.405,1.013 -0.27,0.277 -0.606,0.417 -1.001,0.417 -0.4,0 -0.729,-0.139 -0.993,-0.417 -0.263,-0.277 -0.394,-0.615 -0.394,-1.013 0,-0.397 0.13,-0.735 0.394,-1.01 0.264,-0.278 0.593,-0.417 0.993,-0.417 0.395,0 0.731,0.139 1.001,0.417 0.267,0.275 0.405,0.613 0.405,1.01 z m -0.254,13.325 c 0,0.329 -0.174,0.49 -0.517,0.49 h -1.185 c -0.346,0 -0.517,-0.161 -0.517,-0.49 v -9.338 c 0,-0.325 0.171,-0.489 0.517,-0.489 h 1.185 c 0.343,0 0.517,0.164 0.517,0.489 v 9.338 z"
   id="path3153"
   inkscape:connector-curvature="0"
   style="fill:#ffffff" />
			<path
   d="m 222.859,32.15 c 0,0.329 -0.174,0.49 -0.518,0.49 h -1.207 c -0.331,0 -0.494,-0.161 -0.494,-0.49 v -6.843 c 0,-0.837 -0.365,-1.258 -1.094,-1.258 -0.575,0 -1.061,0.227 -1.454,0.683 -0.391,0.454 -0.586,1.023 -0.586,1.706 v 5.713 c 0,0.329 -0.166,0.49 -0.496,0.49 h -1.205 c -0.344,0 -0.517,-0.161 -0.517,-0.49 v -9.338 c 0,-0.325 0.172,-0.489 0.513,-0.489 h 0.829 c 0.301,0 0.479,0.136 0.534,0.405 l 0.191,0.875 c 0.84,-0.939 1.798,-1.408 2.88,-1.408 0.794,0 1.43,0.245 1.908,0.737 0.475,0.489 0.715,1.132 0.715,1.928 v 7.289 z"
   id="path3155"
   inkscape:connector-curvature="0"
   style="fill:#ffffff" />
			<path
   d="m 233.561,33.558 c 0,1.165 -0.477,2.054 -1.43,2.665 -0.781,0.498 -1.748,0.747 -2.898,0.747 -1.222,0 -2.203,-0.212 -2.941,-0.64 -0.91,-0.527 -1.373,-1.33 -1.388,-2.41 0,-0.143 0.052,-0.262 0.149,-0.362 0.098,-0.099 0.221,-0.149 0.363,-0.149 l 1.193,0.044 c 0.271,0.014 0.435,0.17 0.49,0.468 0.142,0.84 0.875,1.259 2.196,1.259 0.669,0 1.204,-0.127 1.609,-0.384 0.406,-0.256 0.608,-0.598 0.608,-1.023 0,-0.825 -0.505,-1.236 -1.514,-1.236 h -2.111 c -1.605,0 -2.409,-0.582 -2.409,-1.749 0,-0.569 0.306,-1.143 0.917,-1.726 -0.994,-0.699 -1.493,-1.72 -1.493,-3.071 0,-1.18 0.356,-2.103 1.068,-2.771 0.71,-0.668 1.662,-1.003 2.854,-1.003 0.158,0 0.377,0.02 0.662,0.053 0.284,0.037 0.496,0.055 0.641,0.055 h 2.471 c 0.355,0 0.534,0.17 0.534,0.512 v 0.596 c 0,0.313 -0.137,0.482 -0.404,0.51 l -0.663,0.086 c 0.469,0.695 0.706,1.35 0.706,1.961 0,1.167 -0.356,2.085 -1.058,2.761 -0.702,0.678 -1.66,1.015 -2.867,1.015 -0.428,0 -0.771,-0.036 -1.043,-0.106 -0.199,0.195 -0.299,0.389 -0.299,0.574 0,0.355 0.318,0.533 0.957,0.533 h 1.834 c 1.01,0 1.807,0.24 2.389,0.723 0.584,0.484 0.877,1.172 0.877,2.068 z m -2.965,-7.61 c 0,-1.394 -0.583,-2.092 -1.748,-2.092 -0.553,0 -0.959,0.122 -1.214,0.364 -0.343,0.327 -0.513,0.903 -0.513,1.728 0,0.851 0.17,1.44 0.513,1.769 0.255,0.256 0.661,0.385 1.214,0.385 1.165,0 1.748,-0.719 1.748,-2.154 z"
   id="path3157"
   inkscape:connector-curvature="0"
   style="fill:#ffffff" />
			<path
   d="m 246.607,32.15 c 0.071,0.329 -0.071,0.49 -0.428,0.49 h -1.107 c -0.297,0 -0.475,-0.161 -0.533,-0.49 l -0.129,-0.788 c -0.609,0.937 -1.574,1.407 -2.898,1.407 -0.881,0 -1.564,-0.277 -2.045,-0.832 -0.484,-0.554 -0.727,-1.327 -0.727,-2.323 0,-2.047 1.108,-3.147 3.327,-3.306 l 2.132,-0.148 c 0,-0.299 -0.014,-0.455 -0.044,-0.47 -0.028,-0.583 -0.153,-0.993 -0.382,-1.236 -0.228,-0.241 -0.657,-0.362 -1.293,-0.362 -0.552,0 -1.238,0.121 -2.061,0.362 -0.338,0.1 -0.545,-0.008 -0.615,-0.319 l -0.211,-0.94 c -0.072,-0.299 0.035,-0.489 0.319,-0.575 0.968,-0.284 1.863,-0.426 2.687,-0.426 1.579,0 2.651,0.447 3.22,1.343 0.366,0.583 0.554,1.479 0.554,2.687 v 3.584 c 0,0.779 0.036,1.348 0.105,1.704 l 0.129,0.638 z m -2.408,-2.962 v -1.492 l -1.215,0.044 c -1.352,0.041 -2.027,0.667 -2.027,1.875 0,0.909 0.397,1.364 1.194,1.364 0.568,0 1.06,-0.206 1.472,-0.617 0.384,-0.372 0.576,-0.761 0.576,-1.174 z"
   id="path3159"
   inkscape:connector-curvature="0"
   style="fill:#ffffff" />
			<path
   d="m 256.712,32.15 c 0,0.329 -0.172,0.49 -0.517,0.49 h -1.205 c -0.328,0 -0.496,-0.161 -0.496,-0.49 v -6.843 c 0,-0.837 -0.364,-1.258 -1.093,-1.258 -0.575,0 -1.06,0.227 -1.451,0.683 -0.394,0.454 -0.59,1.023 -0.59,1.706 v 5.713 c 0,0.329 -0.165,0.49 -0.495,0.49 h -1.205 c -0.343,0 -0.517,-0.161 -0.517,-0.49 v -9.338 c 0,-0.325 0.17,-0.489 0.513,-0.489 h 0.83 c 0.299,0 0.476,0.136 0.533,0.405 l 0.191,0.875 c 0.84,-0.939 1.799,-1.408 2.879,-1.408 0.798,0 1.433,0.245 1.908,0.737 0.477,0.489 0.714,1.132 0.714,1.928 v 7.289 z"
   id="path3161"
   inkscape:connector-curvature="0"
   style="fill:#ffffff" />
			<path
   d="m 266.883,32.15 c 0,0.329 -0.17,0.49 -0.513,0.49 h -0.745 c -0.356,0 -0.568,-0.161 -0.641,-0.49 l -0.17,-0.852 c -0.525,0.98 -1.344,1.471 -2.45,1.471 -2.29,0 -3.435,-1.775 -3.435,-5.329 0,-1.906 0.385,-3.305 1.151,-4.201 0.599,-0.697 1.35,-1.045 2.26,-1.045 1.022,0 1.813,0.435 2.366,1.3 v -5.479 c 0,-0.327 0.164,-0.49 0.49,-0.49 h 1.173 c 0.343,0 0.513,0.163 0.513,0.49 V 32.15 z m -2.111,-4.627 c 0,-2.315 -0.583,-3.474 -1.748,-3.474 -0.583,0 -1.018,0.242 -1.302,0.726 -0.313,0.539 -0.467,1.45 -0.467,2.729 0,1.221 0.142,2.086 0.424,2.591 0.286,0.502 0.734,0.757 1.345,0.757 1.165,0 1.748,-1.11 1.748,-3.329 z"
   id="path3163"
   inkscape:connector-curvature="0"
   style="fill:#ffffff" />
			<path
   d="m 282.105,19.829 c 0,0.325 -0.164,0.49 -0.49,0.49 h -3.027 v 11.812 c 0,0.342 -0.171,0.51 -0.514,0.51 h -1.235 c -0.341,0 -0.511,-0.168 -0.511,-0.51 V 20.319 h -3.029 c -0.354,0 -0.531,-0.165 -0.531,-0.49 v -1.045 c 0,-0.341 0.177,-0.511 0.531,-0.511 h 8.316 c 0.326,0 0.49,0.17 0.49,0.511 v 1.045 z"
   id="path3165"
   inkscape:connector-curvature="0"
   style="fill:#ffffff" />
			<path
   d="m 290.803,27.523 c 0,0.342 -0.164,0.513 -0.49,0.513 h -5.16 c 0.045,0.954 0.236,1.641 0.576,2.069 0.385,0.499 1.016,0.746 1.898,0.746 0.541,0 1.215,-0.129 2.025,-0.385 0.057,-0.014 0.114,-0.021 0.171,-0.021 0.183,0 0.319,0.113 0.404,0.341 l 0.299,0.854 c 0.099,0.269 0,0.469 -0.299,0.598 -0.81,0.354 -1.755,0.531 -2.837,0.531 -1.447,0 -2.564,-0.451 -3.346,-1.354 -0.781,-0.901 -1.172,-2.228 -1.172,-3.975 0,-1.58 0.362,-2.847 1.086,-3.807 0.726,-0.959 1.7,-1.439 2.923,-1.439 2.613,0 3.922,1.778 3.922,5.329 z m -2.216,-1.043 c -0.058,-1.706 -0.613,-2.56 -1.665,-2.56 -1.021,0 -1.614,0.854 -1.77,2.56 h 3.435 z"
   id="path3167"
   inkscape:connector-curvature="0"
   style="fill:#ffffff" />
			<path
   d="m 300.206,32.15 c 0.068,0.329 -0.073,0.49 -0.428,0.49 h -1.108 c -0.299,0 -0.477,-0.161 -0.533,-0.49 l -0.128,-0.788 c -0.61,0.937 -1.577,1.407 -2.899,1.407 -0.883,0 -1.563,-0.277 -2.045,-0.832 -0.486,-0.554 -0.726,-1.327 -0.726,-2.323 0,-2.047 1.105,-3.147 3.323,-3.306 l 2.134,-0.148 c 0,-0.299 -0.015,-0.455 -0.045,-0.47 -0.026,-0.583 -0.153,-0.993 -0.381,-1.236 -0.226,-0.241 -0.658,-0.362 -1.294,-0.362 -0.551,0 -1.237,0.121 -2.059,0.362 -0.34,0.1 -0.545,-0.008 -0.615,-0.319 l -0.213,-0.94 c -0.07,-0.299 0.038,-0.489 0.322,-0.575 0.965,-0.284 1.859,-0.426 2.686,-0.426 1.577,0 2.65,0.447 3.219,1.343 0.369,0.583 0.553,1.479 0.553,2.687 v 3.584 c 0,0.779 0.037,1.348 0.107,1.704 l 0.13,0.638 z m -2.41,-2.962 v -1.492 l -1.216,0.044 c -1.352,0.041 -2.025,0.667 -2.025,1.875 0,0.909 0.396,1.364 1.195,1.364 0.567,0 1.059,-0.206 1.471,-0.617 0.382,-0.372 0.575,-0.761 0.575,-1.174 z"
   id="path3169"
   inkscape:connector-curvature="0"
   style="fill:#ffffff" />
			<path
   d="m 308.796,31.874 c 0.057,0.3 -0.056,0.498 -0.342,0.599 -0.583,0.196 -1.278,0.297 -2.089,0.297 -1.352,0 -2.402,-0.447 -3.155,-1.344 -0.796,-0.938 -1.192,-2.286 -1.192,-4.05 0,-1.507 0.398,-2.747 1.204,-3.719 0.804,-0.975 1.878,-1.462 3.229,-1.462 0.44,0 0.895,0.065 1.363,0.192 0.683,0.172 0.969,0.426 0.854,0.768 l -0.299,0.895 c -0.071,0.227 -0.198,0.343 -0.386,0.343 -0.142,0 -0.371,-0.052 -0.69,-0.149 -0.32,-0.103 -0.581,-0.15 -0.779,-0.15 -0.683,0 -1.22,0.284 -1.609,0.856 -0.392,0.568 -0.587,1.383 -0.587,2.436 0,2.282 0.773,3.424 2.325,3.424 0.452,0 0.923,-0.072 1.405,-0.213 0.329,-0.086 0.52,0.028 0.577,0.34 l 0.171,0.937 z"
   id="path3171"
   inkscape:connector-curvature="0"
   style="fill:#ffffff" />
			<path
   d="m 318.369,32.15 c 0,0.329 -0.173,0.49 -0.512,0.49 h -1.172 c -0.329,0 -0.492,-0.161 -0.492,-0.49 v -6.843 c 0,-0.837 -0.384,-1.258 -1.15,-1.258 -0.584,0 -1.074,0.227 -1.473,0.683 -0.398,0.454 -0.596,1.023 -0.596,1.706 v 5.713 c 0,0.329 -0.173,0.49 -0.513,0.49 h -1.151 c -0.338,0 -0.512,-0.161 -0.512,-0.49 V 18.015 c 0,-0.327 0.174,-0.49 0.512,-0.49 h 1.151 c 0.34,0 0.513,0.163 0.513,0.49 v 5.479 c 0.781,-0.866 1.707,-1.3 2.772,-1.3 0.796,0 1.431,0.245 1.908,0.737 0.474,0.489 0.714,1.132 0.714,1.928 v 7.291 z"
   id="path3173"
   inkscape:connector-curvature="0"
   style="fill:#ffffff" />
			<path
   d="m 323.849,18.825 c 0,0.398 -0.135,0.736 -0.405,1.013 -0.27,0.277 -0.604,0.417 -1.002,0.417 -0.396,0 -0.729,-0.139 -0.991,-0.417 -0.262,-0.278 -0.394,-0.615 -0.394,-1.013 0,-0.397 0.131,-0.735 0.394,-1.01 0.263,-0.278 0.595,-0.417 0.991,-0.417 0.398,0 0.732,0.139 1.002,0.417 0.27,0.275 0.405,0.613 0.405,1.01 z m -0.256,13.325 c 0,0.329 -0.172,0.49 -0.516,0.49 h -1.187 c -0.344,0 -0.516,-0.161 -0.516,-0.49 v -9.338 c 0,-0.325 0.172,-0.489 0.516,-0.489 h 1.187 c 0.344,0 0.516,0.164 0.516,0.489 v 9.338 z"
   id="path3175"
   inkscape:connector-curvature="0"
   style="fill:#ffffff" />
			<path
   d="m 334.145,32.15 c 0,0.329 -0.17,0.49 -0.516,0.49 h -1.207 c -0.329,0 -0.494,-0.161 -0.494,-0.49 v -6.843 c 0,-0.837 -0.363,-1.258 -1.093,-1.258 -0.576,0 -1.061,0.227 -1.452,0.683 -0.393,0.454 -0.588,1.023 -0.588,1.706 v 5.713 c 0,0.329 -0.168,0.49 -0.495,0.49 h -1.207 c -0.343,0 -0.517,-0.161 -0.517,-0.49 v -9.338 c 0,-0.325 0.172,-0.489 0.511,-0.489 h 0.833 c 0.299,0 0.476,0.136 0.533,0.405 l 0.193,0.875 c 0.838,-0.939 1.797,-1.408 2.877,-1.408 0.795,0 1.432,0.245 1.905,0.737 0.479,0.489 0.716,1.132 0.716,1.928 v 7.289 z"
   id="path3177"
   inkscape:connector-curvature="0"
   style="fill:#ffffff" />
			<path
   d="m 344.85,33.558 c 0,1.165 -0.478,2.054 -1.43,2.665 -0.781,0.498 -1.748,0.747 -2.9,0.747 -1.224,0 -2.203,-0.212 -2.941,-0.64 -0.91,-0.527 -1.371,-1.33 -1.385,-2.41 0,-0.143 0.049,-0.262 0.148,-0.362 0.1,-0.099 0.22,-0.149 0.363,-0.149 l 1.193,0.044 c 0.27,0.014 0.432,0.17 0.488,0.468 0.144,0.84 0.875,1.259 2.197,1.259 0.667,0 1.204,-0.127 1.609,-0.384 0.405,-0.256 0.609,-0.598 0.609,-1.023 0,-0.825 -0.508,-1.236 -1.516,-1.236 h -2.109 c -1.607,0 -2.411,-0.582 -2.411,-1.749 0,-0.569 0.306,-1.143 0.919,-1.726 -0.996,-0.699 -1.492,-1.72 -1.492,-3.071 0,-1.18 0.354,-2.103 1.065,-2.771 0.711,-0.668 1.663,-1.003 2.857,-1.003 0.155,0 0.376,0.02 0.661,0.053 0.281,0.037 0.496,0.055 0.637,0.055 h 2.475 c 0.354,0 0.535,0.17 0.535,0.512 v 0.596 c 0,0.313 -0.138,0.482 -0.408,0.51 l -0.662,0.086 c 0.472,0.695 0.706,1.35 0.706,1.961 0,1.167 -0.352,2.085 -1.056,2.761 -0.703,0.678 -1.66,1.015 -2.868,1.015 -0.426,0 -0.774,-0.036 -1.044,-0.106 -0.2,0.195 -0.298,0.389 -0.298,0.574 0,0.355 0.319,0.533 0.958,0.533 h 1.834 c 1.01,0 1.807,0.24 2.389,0.723 0.584,0.484 0.877,1.172 0.877,2.068 z m -2.965,-7.61 c 0,-1.394 -0.583,-2.092 -1.749,-2.092 -0.556,0 -0.958,0.122 -1.214,0.364 -0.341,0.327 -0.511,0.903 -0.511,1.728 0,0.851 0.17,1.44 0.511,1.769 0.256,0.256 0.658,0.385 1.214,0.385 1.166,0 1.749,-0.719 1.749,-2.154 z"
   id="path3179"
   inkscape:connector-curvature="0"
   style="fill:#ffffff" />
			<path
   d="m 360.667,31.98 c 0.043,0.129 0.064,0.234 0.064,0.318 0,0.23 -0.144,0.342 -0.429,0.342 h -1.555 c -0.326,0 -0.539,-0.148 -0.639,-0.446 -0.227,-0.726 -0.455,-1.458 -0.683,-2.196 -0.269,-0.811 -0.526,-1.447 -0.768,-1.921 -0.627,-1.192 -1.428,-1.789 -2.409,-1.789 h -0.874 v 5.862 c 0,0.329 -0.171,0.49 -0.513,0.49 h -1.235 c -0.343,0 -0.512,-0.161 -0.512,-0.49 V 18.784 c 0,-0.341 0.169,-0.511 0.512,-0.511 h 3.754 c 1.604,0 2.776,0.426 3.516,1.278 0.556,0.641 0.833,1.427 0.833,2.366 0,0.896 -0.242,1.651 -0.727,2.262 -0.523,0.667 -1.271,1.079 -2.238,1.234 -0.043,0.017 -0.1,0.023 -0.172,0.023 0.967,0.199 1.729,0.883 2.282,2.046 0.415,0.867 1.011,2.367 1.793,4.498 z m -3.24,-9.773 c 0,-0.559 -0.17,-1.017 -0.512,-1.374 -0.384,-0.399 -0.919,-0.602 -1.599,-0.602 h -1.94 v 4.223 h 1.705 c 0.726,0 1.296,-0.203 1.717,-0.612 0.418,-0.405 0.629,-0.952 0.629,-1.635 z"
   id="path3181"
   inkscape:connector-curvature="0"
   style="fill:#ffffff" />
			<path
   d="m 369.878,27.523 c 0,0.342 -0.163,0.513 -0.491,0.513 h -5.159 c 0.043,0.954 0.234,1.641 0.577,2.069 0.383,0.499 1.016,0.746 1.896,0.746 0.539,0 1.215,-0.129 2.023,-0.385 0.059,-0.014 0.114,-0.021 0.172,-0.021 0.186,0 0.322,0.113 0.404,0.341 l 0.301,0.854 c 0.098,0.269 0,0.469 -0.301,0.598 -0.808,0.354 -1.754,0.531 -2.834,0.531 -1.45,0 -2.564,-0.451 -3.348,-1.354 -0.78,-0.901 -1.176,-2.228 -1.176,-3.975 0,-1.58 0.364,-2.847 1.09,-3.807 0.725,-0.959 1.7,-1.439 2.922,-1.439 2.615,0 3.924,1.778 3.924,5.329 z M 367.66,26.48 c -0.058,-1.706 -0.612,-2.56 -1.664,-2.56 -1.021,0 -1.611,0.854 -1.769,2.56 h 3.433 z"
   id="path3183"
   inkscape:connector-curvature="0"
   style="fill:#ffffff" />
			<path
   d="m 378.152,29.699 c 0,0.867 -0.286,1.578 -0.854,2.133 -0.627,0.625 -1.492,0.938 -2.602,0.938 -1.11,0 -2.112,-0.207 -3.007,-0.619 -0.285,-0.125 -0.377,-0.34 -0.275,-0.638 l 0.275,-0.896 c 0.086,-0.255 0.227,-0.384 0.427,-0.384 0.071,0 0.136,0.017 0.194,0.043 0.935,0.396 1.717,0.598 2.342,0.598 0.854,0 1.28,-0.363 1.28,-1.089 0,-0.469 -0.364,-0.923 -1.089,-1.364 -1.348,-0.809 -2.031,-1.221 -2.045,-1.238 -0.725,-0.581 -1.088,-1.276 -1.088,-2.087 0,-0.868 0.292,-1.566 0.873,-2.1 0.583,-0.534 1.395,-0.8 2.432,-0.8 0.896,0 1.691,0.15 2.386,0.447 0.315,0.129 0.415,0.343 0.301,0.642 l -0.276,0.724 c -0.113,0.313 -0.306,0.419 -0.571,0.32 -0.722,-0.27 -1.302,-0.406 -1.737,-0.406 -0.792,0 -1.189,0.342 -1.189,1.024 0,0.383 0.367,0.796 1.104,1.235 1.131,0.669 1.803,1.097 2.016,1.279 0.734,0.627 1.103,1.373 1.103,2.238 z"
   id="path3185"
   inkscape:connector-curvature="0"
   style="fill:#ffffff" />
			<path
   d="m 387.976,27.46 c 0,1.649 -0.365,2.947 -1.097,3.892 -0.734,0.944 -1.758,1.418 -3.08,1.418 -1.324,0 -2.357,-0.471 -3.104,-1.407 -0.746,-0.938 -1.117,-2.239 -1.117,-3.902 0,-1.634 0.371,-2.919 1.117,-3.857 0.746,-0.939 1.779,-1.408 3.104,-1.408 1.307,0 2.33,0.469 3.068,1.408 0.738,0.937 1.109,2.222 1.109,3.856 z m -2.259,0 c 0,-2.288 -0.658,-3.432 -1.973,-3.432 -1.299,0 -1.949,1.144 -1.949,3.432 0,2.29 0.65,3.433 1.949,3.433 1.315,0 1.973,-1.143 1.973,-3.433 z"
   id="path3187"
   inkscape:connector-curvature="0"
   style="fill:#ffffff" />
			<path
   d="m 397.74,32.15 c 0,0.329 -0.162,0.49 -0.489,0.49 h -0.853 c -0.271,0 -0.441,-0.142 -0.513,-0.426 l -0.213,-0.896 c -0.91,0.967 -1.92,1.451 -3.028,1.451 -0.796,0 -1.431,-0.237 -1.905,-0.713 -0.478,-0.477 -0.716,-1.134 -0.716,-1.975 v -7.27 c 0,-0.325 0.17,-0.489 0.513,-0.489 h 1.193 c 0.342,0 0.512,0.164 0.512,0.489 v 6.887 c 0,0.811 0.38,1.217 1.144,1.217 0.634,0 1.149,-0.248 1.545,-0.736 0.396,-0.492 0.593,-1.17 0.593,-2.036 v -5.332 c 0,-0.325 0.173,-0.489 0.518,-0.489 h 1.206 c 0.33,0 0.494,0.164 0.494,0.489 v 9.339 z"
   id="path3189"
   inkscape:connector-curvature="0"
   style="fill:#ffffff" />
			<path
   d="m 406.332,23.068 -0.316,1.195 c -0.086,0.325 -0.297,0.46 -0.635,0.404 -0.129,-0.015 -0.337,-0.08 -0.627,-0.192 -0.291,-0.113 -0.512,-0.171 -0.668,-0.171 -0.383,0 -0.692,0.221 -0.932,0.661 -0.283,0.499 -0.426,1.224 -0.426,2.177 v 5.008 c 0,0.329 -0.174,0.49 -0.515,0.49 h -1.187 c -0.342,0 -0.514,-0.161 -0.514,-0.49 v -9.338 c 0,-0.325 0.17,-0.489 0.509,-0.489 h 0.79 c 0.312,0 0.506,0.142 0.576,0.425 l 0.234,0.918 c 0.624,-0.98 1.421,-1.472 2.388,-1.472 1.04,0 1.479,0.293 1.323,0.874 z"
   id="path3191"
   inkscape:connector-curvature="0"
   style="fill:#ffffff" />
			<path
   d="m 413.752,31.874 c 0.057,0.3 -0.056,0.498 -0.342,0.599 -0.582,0.196 -1.279,0.297 -2.088,0.297 -1.353,0 -2.404,-0.447 -3.156,-1.344 -0.795,-0.938 -1.193,-2.286 -1.193,-4.05 0,-1.507 0.4,-2.747 1.203,-3.719 0.803,-0.975 1.881,-1.462 3.23,-1.462 0.442,0 0.895,0.065 1.365,0.192 0.682,0.172 0.965,0.426 0.854,0.768 l -0.299,0.895 c -0.072,0.227 -0.2,0.343 -0.385,0.343 -0.143,0 -0.374,-0.052 -0.692,-0.149 -0.319,-0.103 -0.58,-0.15 -0.778,-0.15 -0.682,0 -1.221,0.284 -1.609,0.856 -0.392,0.568 -0.586,1.383 -0.586,2.436 0,2.282 0.772,3.424 2.323,3.424 0.452,0 0.925,-0.072 1.407,-0.213 0.328,-0.086 0.519,0.028 0.577,0.34 l 0.169,0.937 z"
   id="path3193"
   inkscape:connector-curvature="0"
   style="fill:#ffffff" />
			<path
   d="m 423.027,27.523 c 0,0.342 -0.167,0.513 -0.491,0.513 h -5.161 c 0.045,0.954 0.235,1.641 0.576,2.069 0.384,0.499 1.018,0.746 1.898,0.746 0.54,0 1.215,-0.129 2.025,-0.385 0.057,-0.014 0.111,-0.021 0.172,-0.021 0.182,0 0.318,0.113 0.404,0.341 l 0.297,0.854 c 0.102,0.269 0,0.469 -0.297,0.598 -0.812,0.354 -1.757,0.531 -2.837,0.531 -1.45,0 -2.563,-0.451 -3.348,-1.354 -0.781,-0.901 -1.173,-2.228 -1.173,-3.975 0,-1.58 0.361,-2.847 1.088,-3.807 0.727,-0.96 1.699,-1.439 2.922,-1.439 2.615,0 3.925,1.778 3.925,5.329 z m -2.218,-1.043 c -0.056,-1.706 -0.612,-2.56 -1.664,-2.56 -1.022,0 -1.612,0.854 -1.77,2.56 h 3.434 z"
   id="path3195"
   inkscape:connector-curvature="0"
   style="fill:#ffffff" />
			<path
   d="m 431.299,29.699 c 0,0.867 -0.285,1.578 -0.854,2.133 -0.627,0.625 -1.492,0.938 -2.6,0.938 -1.109,0 -2.112,-0.207 -3.007,-0.619 -0.285,-0.125 -0.378,-0.34 -0.276,-0.638 l 0.276,-0.896 c 0.085,-0.255 0.228,-0.384 0.425,-0.384 0.074,0 0.137,0.017 0.193,0.043 0.938,0.396 1.719,0.598 2.345,0.598 0.853,0 1.281,-0.363 1.281,-1.089 0,-0.469 -0.364,-0.923 -1.089,-1.364 -1.351,-0.809 -2.035,-1.221 -2.047,-1.238 -0.727,-0.581 -1.086,-1.276 -1.086,-2.087 0,-0.868 0.289,-1.566 0.872,-2.1 0.582,-0.534 1.394,-0.8 2.431,-0.8 0.895,0 1.691,0.15 2.387,0.447 0.314,0.129 0.413,0.343 0.3,0.642 l -0.276,0.724 c -0.113,0.313 -0.305,0.419 -0.57,0.32 -0.723,-0.27 -1.303,-0.406 -1.739,-0.406 -0.791,0 -1.188,0.342 -1.188,1.024 0,0.383 0.367,0.796 1.102,1.235 1.132,0.669 1.805,1.097 2.017,1.279 0.736,0.627 1.103,1.373 1.103,2.238 z"
   id="path3197"
   inkscape:connector-curvature="0"
   style="fill:#ffffff" />
		</g>
	</g>
</g>


<g
   id="g13902"
   transform="translate(-28.09375,-23.246616)"><g
     id="g3">
	
		<line
   y2="541.19702"
   x2="111.382"
   y1="526.19702"
   x1="111.382"
   stroke-miterlimit="10"
   id="line5"
   style="fill:none;stroke:#010101;stroke-width:2;stroke-miterlimit:10" />
	
		<line
   y2="541.19702"
   x2="152.33"
   y1="526.19702"
   x1="152.33"
   stroke-miterlimit="10"
   id="line7"
   style="fill:none;stroke:#010101;stroke-width:2;stroke-miterlimit:10" />
	
		<line
   y2="541.19702"
   x2="193.278"
   y1="526.19702"
   x1="193.278"
   stroke-miterlimit="10"
   id="line9"
   style="fill:none;stroke:#010101;stroke-width:2;stroke-miterlimit:10" />
	
		<line
   y2="541.19702"
   x2="234.22701"
   y1="526.19702"
   x1="234.22701"
   stroke-miterlimit="10"
   id="line11"
   style="fill:none;stroke:#010101;stroke-width:2;stroke-miterlimit:10" />
	
		<line
   y2="541.19702"
   x2="275.17401"
   y1="526.19702"
   x1="275.17401"
   stroke-miterlimit="10"
   id="line13"
   style="fill:none;stroke:#010101;stroke-width:2;stroke-miterlimit:10" />
	
		<line
   y2="541.19702"
   x2="316.12299"
   y1="526.19702"
   x1="316.12299"
   stroke-miterlimit="10"
   id="line15"
   style="fill:none;stroke:#010101;stroke-width:2;stroke-miterlimit:10" />
	
		<line
   y2="541.19702"
   x2="357.07001"
   y1="526.19702"
   x1="357.07001"
   stroke-miterlimit="10"
   id="line17"
   style="fill:none;stroke:#010101;stroke-width:2;stroke-miterlimit:10" />
	
		<line
   y2="541.19702"
   x2="398.01901"
   y1="526.19702"
   x1="398.01901"
   stroke-miterlimit="10"
   id="line19"
   style="fill:none;stroke:#010101;stroke-width:2;stroke-miterlimit:10" />
	
		<line
   y2="541.19702"
   x2="438.96799"
   y1="526.19702"
   x1="438.96799"
   stroke-miterlimit="10"
   id="line21"
   style="fill:none;stroke:#010101;stroke-width:2;stroke-miterlimit:10" />
	
		<line
   y2="541.19702"
   x2="479.91599"
   y1="526.19702"
   x1="479.91599"
   stroke-miterlimit="10"
   id="line23"
   style="fill:none;stroke:#010101;stroke-width:2;stroke-miterlimit:10" />
	
		<line
   y2="541.19702"
   x2="520.86499"
   y1="526.19702"
   x1="520.86499"
   stroke-miterlimit="10"
   id="line25"
   style="fill:none;stroke:#010101;stroke-width:2;stroke-miterlimit:10" />
	
		<line
   y2="540.19702"
   x2="521.88202"
   y1="540.19702"
   x1="110.382"
   stroke-miterlimit="10"
   id="line27"
   style="fill:none;stroke:#010101;stroke-width:3;stroke-miterlimit:10" />
</g><text
     font-size="12"
     transform="translate(149.3818,524.1948)"
     id="text29"
     style="font-size:12px;fill:#010101;font-family:TimesNewRomanPSMT">1</text>
<text
     font-size="12"
     transform="translate(190.3311,524.1948)"
     id="text31"
     style="font-size:12px;fill:#010101;font-family:TimesNewRomanPSMT">2</text>
<text
     font-size="12"
     transform="translate(231.2788,524.1948)"
     id="text33"
     style="font-size:12px;fill:#010101;font-family:TimesNewRomanPSMT">3</text>
<text
     font-size="12"
     transform="translate(272.2271,524.1948)"
     id="text35"
     style="font-size:12px;fill:#010101;font-family:TimesNewRomanPSMT">4</text>
<text
     font-size="12"
     transform="translate(313.1753,524.1948)"
     id="text37"
     style="font-size:12px;fill:#010101;font-family:TimesNewRomanPSMT">5</text>
<text
     font-size="12"
     transform="translate(354.1245,524.1948)"
     id="text39"
     style="font-size:12px;fill:#010101;font-family:TimesNewRomanPSMT">6</text>
<text
     font-size="12"
     transform="translate(395.0718,524.1948)"
     id="text41"
     style="font-size:12px;fill:#010101;font-family:TimesNewRomanPSMT">7</text>
<text
     font-size="12"
     transform="translate(436.021,524.1948)"
     id="text43"
     style="font-size:12px;fill:#010101;font-family:TimesNewRomanPSMT">8</text>
<text
     font-size="12"
     transform="translate(476.9683,524.1948)"
     id="text45"
     style="font-size:12px;fill:#010101;font-family:TimesNewRomanPSMT">9</text>
<text
     font-size="12"
     transform="translate(514.9175,524.1948)"
     id="text47"
     style="font-size:12px;fill:#010101;font-family:TimesNewRomanPSMT">10</text>
<text
     font-size="12"
     transform="translate(108.3818,524.1948)"
     id="text49"
     style="font-size:12px;fill:#010101;font-family:TimesNewRomanPSMT">0</text>
<text
     font-size="12"
     transform="translate(530.0503,524.1948)"
     id="text51"
     style="font-size:12px;fill:#010101;font-family:TimesNewRomanPSMT">km</text>
<text
     font-size="16.0026"
     transform="translate(47.4854,538.4878)"
     id="text53"
     style="font-size:16.00259972px;fill:#010101;font-family:TimesNewRomanPSMT">SCALE</text>
<rect
     height="443.664"
     width="514.08398"
     stroke-miterlimit="10"
     y="61.324001"
     x="30.253"
     id="rect55"
     style="fill:none;stroke:#000000;stroke-width:3;stroke-miterlimit:10" /><text
     font-size="31"
     transform="translate(190.3311,45.8306)"
     id="text57"
     style="font-size:31px;font-family:TimesNewRomanPS-BoldMT">GOSA AREA</text>
<g
     id="g59">
	<g
   id="g61">
		
			<line
   y2="493.71399"
   x2="567.75"
   y1="338.983"
   x1="567.75"
   stroke-miterlimit="10"
   id="line63"
   style="fill:none;stroke:#010101;stroke-width:2;stroke-miterlimit:10" />
		
			<line
   y2="402.16901"
   x2="581.33301"
   y1="402.16901"
   x1="554.16699"
   stroke-miterlimit="10"
   id="line65"
   style="fill:none;stroke:#010101;stroke-width:2;stroke-miterlimit:10" />
	</g>
	<polyline
   points="562.625,351.183    567.75,337.808 573.625,350.558  "
   stroke-miterlimit="10"
   id="polyline67"
   style="fill:none;stroke:#010101;stroke-width:2;stroke-miterlimit:10" />
</g><text
     font-size="14"
     transform="translate(562.6245,330.4712)"
     id="text69"
     style="font-size:14px;fill:#010101;font-family:TimesNewRomanPS-BoldMT">N</text>
<path
     d="m 62.202,792.71 c 0,-1.289 1.167,-1.6 2.185,-0.582 1.071,1.072 2.666,-0.012 2.488,-1.689 -0.136,-1.281 0.163,-1.619 1.824,-2.063 1.586,-0.422 1.913,-0.76 1.623,-1.676 -0.237,-0.746 0.115,-1.625 1.013,-2.521 1.223,-1.223 1.259,-1.398 0.331,-1.578 -0.574,-0.109 -1.045,-0.689 -1.045,-1.287 0,-0.602 -0.541,-1.23 -1.203,-1.404 -0.875,-0.23 -1.202,-0.814 -1.202,-2.174 0,-2.105 -0.424,-2.332 -1.543,-0.811 -0.71,0.967 -0.824,0.914 -1.418,-0.639 -0.354,-0.93 -0.921,-1.52 -1.258,-1.311 -0.336,0.207 -0.468,0.611 -0.292,0.895 0.177,0.285 0.016,0.707 -0.356,0.939 -0.373,0.23 -0.89,0.078 -1.146,-0.336 -0.621,-1.006 -1.846,-0.207 -1.413,0.92 0.253,0.66 -0.134,0.883 -1.529,0.883 -1.026,0 -1.867,-0.27 -1.867,-0.602 0,-0.998 -4.637,-0.727 -5.028,0.301 -0.19,0.496 -0.084,0.902 0.236,0.902 1.173,0 0.54,1.631 -0.885,2.273 -0.807,0.369 -1.782,1.266 -2.17,1.982 -0.652,1.221 -0.59,1.293 0.879,1.014 1.977,-0.377 2.576,0.479 1.313,1.877 -1.451,1.604 -1.262,3.691 0.32,3.52 0.857,-0.102 1.341,0.23 1.463,0.996 0.101,0.629 0.599,1.561 1.105,2.064 0.806,0.807 1.129,0.814 2.499,0.082 1.4,-0.748 1.641,-0.729 2.152,0.188 0.821,1.474 2.924,1.351 2.924,-0.163 l 0,0 z"
     stroke-miterlimit="10"
     id="path71"
     inkscape:connector-curvature="0"
     style="fill:#ffffff;stroke:#010101;stroke-width:2;stroke-miterlimit:10" /><path
     d="m 294.158,198.386 c 0,-2.031 1.838,-2.52 3.441,-0.917 1.688,1.689 4.199,-0.019 3.919,-2.665 -0.214,-2.018 0.258,-2.551 2.874,-3.246 2.498,-0.665 3.014,-1.197 2.557,-2.64 -0.373,-1.175 0.182,-2.56 1.596,-3.972 1.927,-1.926 1.983,-2.206 0.521,-2.486 -0.904,-0.175 -1.646,-1.089 -1.646,-2.03 0,-0.945 -0.852,-1.936 -1.895,-2.212 -1.379,-0.36 -1.895,-1.283 -1.895,-3.424 0,-3.317 -0.668,-3.674 -2.432,-1.274 -1.117,1.523 -1.298,1.44 -2.232,-1.006 -0.557,-1.464 -1.451,-2.394 -1.981,-2.064 -0.529,0.326 -0.737,0.963 -0.46,1.409 0.278,0.449 0.024,1.114 -0.562,1.48 -0.588,0.363 -1.401,0.123 -1.806,-0.529 -0.979,-1.584 -2.908,-0.326 -2.226,1.449 0.398,1.04 -0.211,1.391 -2.409,1.391 -1.617,0 -2.941,-0.424 -2.941,-0.947 0,-1.572 -7.304,-1.145 -7.921,0.474 -0.3,0.781 -0.132,1.421 0.372,1.421 1.848,0 0.851,2.569 -1.394,3.582 -1.271,0.582 -2.807,1.994 -3.418,3.126 -1.028,1.92 -0.929,2.037 1.384,1.594 3.114,-0.594 4.059,0.757 2.069,2.957 -2.286,2.529 -1.988,5.818 0.504,5.547 1.351,-0.16 2.112,0.36 2.305,1.569 0.159,0.991 0.943,2.456 1.742,3.25 1.269,1.271 1.778,1.286 3.937,0.129 2.206,-1.178 2.584,-1.145 3.391,0.298 1.292,2.314 4.606,2.121 4.606,-0.264 l 0,0 z"
     stroke-miterlimit="10"
     id="path73"
     inkscape:connector-curvature="0"
     style="fill:#ffffff;stroke:#010101;stroke-miterlimit:10" /><line
     y2="617.95801"
     x2="82.231003"
     y1="617.95801"
     x1="39.230999"
     stroke-miterlimit="10"
     id="line75"
     style="fill:none;stroke:#010101;stroke-width:7;stroke-miterlimit:10" /><g
     id="g77">
	<line
   y2="596.17499"
   x2="82.231003"
   y1="596.17499"
   x1="39.230999"
   stroke-miterlimit="10"
   id="line79"
   style="fill:none;stroke:#010101;stroke-miterlimit:10" />
	<line
   y2="602.17499"
   x2="82.231003"
   y1="602.17499"
   x1="39.230999"
   stroke-miterlimit="10"
   id="line81"
   style="fill:none;stroke:#010101;stroke-miterlimit:10" />
</g><polygon
     points="60.732,803.644 66.748,814.062 54.715,814.062 "
     id="polygon97"
     style="fill:#010101" /><polygon
     points="523.687,121.313 534.369,139.813 513.003,139.813 "
     id="polygon99"
     style="fill:#010101" /><text
     font-size="14"
     transform="translate(100.5479,621.1079)"
     id="text101"
     style="font-size:14px;fill:#010101;font-family:TimesNewRomanPSMT">Tarmac road</text>
<text
     font-size="14"
     transform="translate(362.0698,596.1753)"
     id="text103"
     style="font-size:14px;fill:#010101;font-family:TimesNewRomanPSMT">District Office</text>
<text
     font-size="14"
     transform="translate(362.0698,632.9907)"
     id="text105"
     style="font-size:14px;fill:#010101;font-family:TimesNewRomanPSMT">Hospital</text>
<text
     font-size="14"
     transform="translate(362.0698,661.8726)"
     id="text107"
     style="font-size:14px;fill:#010101;font-family:TimesNewRomanPSMT">Market</text>
<text
     font-size="14"
     transform="translate(362.0698,693.5913)"
     id="text109"
     style="font-size:14px;fill:#010101;font-family:TimesNewRomanPSMT">Post Office</text>
<text
     font-size="14"
     transform="translate(362.0698,722.2583)"
     id="text111"
     style="font-size:14px;fill:#010101;font-family:TimesNewRomanPSMT">Police Station</text>
<text
     font-size="14"
     transform="translate(362.0698,750.9253)"
     id="text113"
     style="font-size:14px;fill:#010101;font-family:TimesNewRomanPSMT">School</text>
<text
     font-size="14"
     transform="translate(362.0698,784.4243)"
     id="text115"
     style="font-size:14px;fill:#010101;font-family:TimesNewRomanPSMT">Church</text>
<text
     font-size="14"
     transform="translate(362.0698,812.0015)"
     id="text117"
     style="font-size:14px;fill:#010101;font-family:TimesNewRomanPSMT">Mosque</text>
<text
     font-size="14"
     transform="translate(100.5479,665.0679)"
     id="text119"
     style="font-size:14px;fill:#010101;font-family:TimesNewRomanPSMT">Town boundary</text>
<text
     font-size="14"
     transform="translate(100.5479,812.0015)"
     id="text121"
     style="font-size:14px;fill:#010101;font-family:TimesNewRomanPSMT">Hill</text>
<text
     font-size="14"
     transform="translate(100.5479,787.5737)"
     id="text123"
     style="font-size:14px;fill:#010101;font-family:TimesNewRomanPSMT">Quarry</text>
<text
     font-size="14"
     transform="translate(100.5479,760.0737)"
     id="text125"
     style="font-size:14px;fill:#010101;font-family:TimesNewRomanPSMT">Scrub</text>
<text
     font-size="14"
     transform="translate(100.5479,732.1714)"
     id="text127"
     style="font-size:14px;fill:#010101;font-family:TimesNewRomanPSMT">Forest</text>
<text
     font-size="12"
     transform="translate(41.7754,576.7573)"
     id="text129"
     style="font-size:12px;fill:#010101;font-family:TimesNewRomanPS-BoldMT">KEY</text>
<line
     y2="578.42499"
     x2="67.914001"
     y1="578.42499"
     x1="41.509998"
     stroke-miterlimit="10"
     id="line131"
     style="fill:none;stroke:#010101;stroke-miterlimit:10" /><g
     id="g133">
	<polyline
   points="48.545,629.25    56.661,632.609 56.661,647.054 46.545,650.75  "
   stroke-miterlimit="10"
   id="polyline135"
   style="fill:none;stroke:#010101;stroke-width:2;stroke-miterlimit:10" />
	
		<line
   y2="640"
   x2="56.469002"
   y1="640"
   x1="33.469002"
   stroke-miterlimit="10"
   id="line137"
   style="fill:none;stroke:#010101;stroke-width:3;stroke-miterlimit:10" />
	<polyline
   points="72.775,629.25    64.661,632.609 64.661,647.054 72.775,650.75  "
   stroke-miterlimit="10"
   id="polyline139"
   style="fill:none;stroke:#010101;stroke-width:2;stroke-miterlimit:10" />
	
		<line
   y2="640"
   x2="64.852997"
   y1="640"
   x1="87.994003"
   stroke-miterlimit="10"
   id="line141"
   style="fill:none;stroke:#010101;stroke-width:3;stroke-miterlimit:10" />
</g><text
     font-size="14"
     transform="translate(100.5479,643.1489)"
     id="text143"
     style="font-size:14px;fill:#020202;font-family:TimesNewRomanPSMT">Bridge</text>
<g
     id="g145">
	<rect
   height="7.1659999"
   width="7.165"
   y="675.13202"
   x="44.09"
   id="rect147" />
	<rect
   height="7.1659999"
   width="7.165"
   y="675.13202"
   x="56.507999"
   id="rect149" />
	<rect
   height="7.1659999"
   width="7.165"
   y="675.13202"
   x="70.207001"
   id="rect151" />
</g><text
     font-size="14"
     transform="translate(100.5479,681.8628)"
     id="text153"
     style="font-size:14px;fill:#010101;font-family:TimesNewRomanPSMT">Permanent houses</text>
<g
     id="g155">
	<ellipse
   ry="5.29"
   rx="5.2810001"
   cy="698.88098"
   cx="59.821999"
   id="ellipse4849_1_"
   sodipodi:cx="59.821999"
   sodipodi:cy="698.88098"
   sodipodi:rx="5.2810001"
   sodipodi:ry="5.29"
   d="m 65.102999,698.88098 c 0,2.92159 -2.364385,5.29 -5.281,5.29 -2.916616,0 -5.281001,-2.36841 -5.281001,-5.29 0,-2.92158 2.364385,-5.29 5.281001,-5.29 2.916615,0 5.281,2.36842 5.281,5.29 z" />
	<g
   id="g158">
		<ellipse
   ry="5.29"
   rx="5.2810001"
   cy="701.50403"
   cx="41.944"
   id="ellipse4849"
   sodipodi:cx="41.944"
   sodipodi:cy="701.50403"
   sodipodi:rx="5.2810001"
   sodipodi:ry="5.29"
   d="m 47.225,701.50403 c 0,2.92158 -2.364384,5.29 -5.281,5.29 -2.916616,0 -5.281,-2.36842 -5.281,-5.29 0,-2.92159 2.364384,-5.29 5.281,-5.29 2.916616,0 5.281,2.36841 5.281,5.29 z" />
		<ellipse
   ry="5.29"
   rx="5.2810001"
   cy="698.88098"
   cx="79.519997"
   id="ellipse4849_3_"
   sodipodi:cx="79.519997"
   sodipodi:cy="698.88098"
   sodipodi:rx="5.2810001"
   sodipodi:ry="5.29"
   d="m 84.800997,698.88098 c 0,2.92159 -2.364385,5.29 -5.281,5.29 -2.916616,0 -5.281,-2.36841 -5.281,-5.29 0,-2.92158 2.364384,-5.29 5.281,-5.29 2.916615,0 5.281,2.36842 5.281,5.29 z" />
	</g>
</g><text
     font-size="14"
     transform="translate(100.5479,703.3413)"
     id="text162"
     style="font-size:14px;fill:#020202;font-family:TimesNewRomanPSMT">Houses</text>
<g
     id="g164">
	
		<line
   y2="762.92499"
   x2="73.148003"
   y1="762.92499"
   x1="48.314999"
   stroke-miterlimit="10"
   id="line166"
   style="fill:none;stroke:#010101;stroke-width:2;stroke-miterlimit:10" />
	<polyline
   points="53.148,750.925    60.598,762.259 69.798,755.259  "
   stroke-miterlimit="10"
   id="polyline168"
   style="fill:none;stroke:#010101;stroke-width:2;stroke-miterlimit:10" />
</g><g
     id="g170">
	
		<line
   y2="488.16699"
   x2="120.799"
   y1="488.16699"
   x1="95.966003"
   stroke-miterlimit="10"
   id="line172"
   style="fill:none;stroke:#010101;stroke-width:2;stroke-miterlimit:10" />
	<polyline
   points="100.799,476.167    108.249,487.5 117.449,480.5  "
   stroke-miterlimit="10"
   id="polyline174"
   style="fill:none;stroke:#010101;stroke-width:2;stroke-miterlimit:10" />
</g><g
     id="g176">
	
		<line
   y2="433.33301"
   x2="60.089001"
   y1="433.33301"
   x1="35.256001"
   stroke-miterlimit="10"
   id="line178"
   style="fill:none;stroke:#010101;stroke-width:2;stroke-miterlimit:10" />
	<polyline
   points="40.089,421.333    47.54,432.666 56.739,425.666  "
   stroke-miterlimit="10"
   id="polyline180"
   style="fill:none;stroke:#010101;stroke-width:2;stroke-miterlimit:10" />
</g><g
     id="g182">
	
		<line
   y2="429.871"
   x2="154.894"
   y1="429.871"
   x1="130.061"
   stroke-miterlimit="10"
   id="line184"
   style="fill:none;stroke:#010101;stroke-width:2;stroke-miterlimit:10" />
	<polyline
   points="134.894,417.87    142.344,429.203 151.544,422.203  "
   stroke-miterlimit="10"
   id="polyline186"
   style="fill:none;stroke:#010101;stroke-width:2;stroke-miterlimit:10" />
</g><g
     id="g188">
	
		<line
   y2="391.33301"
   x2="105.904"
   y1="391.33301"
   x1="81.070999"
   stroke-miterlimit="10"
   id="line190"
   style="fill:none;stroke:#010101;stroke-width:2;stroke-miterlimit:10" />
	<polyline
   points="85.904,379.333    93.354,390.667 102.554,383.667  "
   stroke-miterlimit="10"
   id="polyline192"
   style="fill:none;stroke:#010101;stroke-width:2;stroke-miterlimit:10" />
</g><g
     id="g194">
	
		<line
   y2="443.16699"
   x2="236.73199"
   y1="443.16699"
   x1="211.899"
   stroke-miterlimit="10"
   id="line196"
   style="fill:none;stroke:#010101;stroke-width:2;stroke-miterlimit:10" />
	<polyline
   points="216.732,431.167    224.183,442.5 233.382,435.5  "
   stroke-miterlimit="10"
   id="polyline198"
   style="fill:none;stroke:#010101;stroke-width:2;stroke-miterlimit:10" />
</g><g
     id="g200">
	
		<line
   y2="382.936"
   x2="243.69501"
   y1="382.936"
   x1="218.862"
   stroke-miterlimit="10"
   id="line202"
   style="fill:none;stroke:#010101;stroke-width:2;stroke-miterlimit:10" />
	<polyline
   points="223.695,370.936    231.146,382.269 240.345,375.269  "
   stroke-miterlimit="10"
   id="polyline204"
   style="fill:none;stroke:#010101;stroke-width:2;stroke-miterlimit:10" />
</g><path
     d="m 51.13,733.851 c -3.9,-1.027 -5.485,-5.234 -4.827,-7.979 1.453,-6.059 8.349,-4.285 8.349,-4.434 0,-0.346 -0.595,-7.822 6.527,-7.832 6.92,-0.01 6.106,7.379 6.33,7.314 4.531,-1.281 8.57,2.512 7.669,6.943 -0.87,4.277 -4.256,5.24 -6.856,4.951 -1.663,-0.186 -3.546,-1.553 -3.546,-1.553 v 13.178 h -7.487 v -13.102 c -0.001,0.002 -2.981,3.352 -6.159,2.514 z"
     stroke-miterlimit="10"
     id="path206"
     inkscape:connector-curvature="0"
     style="fill:none;stroke:#010101;stroke-miterlimit:10" /><path
     d="m 370.898,95.659 c -3.9,-1.028 -5.486,-5.235 -4.828,-7.979 1.453,-6.058 8.35,-4.284 8.35,-4.433 0,-0.345 -0.596,-7.823 6.526,-7.832 6.921,-0.009 6.106,7.378 6.329,7.314 4.531,-1.28 8.57,2.513 7.67,6.943 -0.871,4.278 -4.256,5.241 -6.857,4.952 -1.661,-0.185 -3.545,-1.552 -3.545,-1.552 v 13.177 h -7.487 V 93.148 c -10e-4,0 -2.98,3.35 -6.158,2.511 z"
     stroke-miterlimit="10"
     id="path208"
     inkscape:connector-curvature="0"
     style="fill:none;stroke:#010101;stroke-miterlimit:10" /><path
     d="m 329.951,155.12 c -3.9,-1.028 -5.486,-5.235 -4.828,-7.979 1.453,-6.058 8.351,-4.284 8.351,-4.433 0,-0.345 -0.597,-7.823 6.526,-7.832 6.92,-0.009 6.105,7.378 6.328,7.314 4.531,-1.28 8.57,2.513 7.67,6.943 -0.871,4.278 -4.256,5.241 -6.856,4.952 -1.662,-0.185 -3.546,-1.552 -3.546,-1.552 v 13.177 h -7.487 v -13.102 c -0.002,0.001 -2.981,3.35 -6.158,2.512 z"
     stroke-miterlimit="10"
     id="path210"
     inkscape:connector-curvature="0"
     style="fill:none;stroke:#010101;stroke-miterlimit:10" /><path
     d="m 426.421,92.93 c -3.9,-1.028 -5.486,-5.235 -4.828,-7.979 1.453,-6.058 8.35,-4.284 8.35,-4.433 0,-0.345 -0.596,-7.823 6.525,-7.832 6.922,-0.009 6.107,7.378 6.33,7.314 4.531,-1.28 8.57,2.513 7.67,6.943 -0.871,4.278 -4.256,5.241 -6.857,4.952 -1.662,-0.185 -3.545,-1.552 -3.545,-1.552 v 13.177 h -7.488 V 90.419 c 0,0 -2.981,3.35 -6.157,2.511 z"
     stroke-miterlimit="10"
     id="path212"
     inkscape:connector-curvature="0"
     style="fill:#ffffff;stroke:#010101;stroke-miterlimit:10" /><path
     d="m 460.634,86.263 c -3.9,-1.028 -5.486,-5.235 -4.828,-7.979 1.453,-6.058 8.35,-4.284 8.35,-4.433 0,-0.345 -0.596,-7.823 6.525,-7.832 6.922,-0.009 6.107,7.378 6.33,7.314 4.531,-1.28 8.57,2.513 7.67,6.943 -0.871,4.278 -4.256,5.241 -6.857,4.952 -1.662,-0.185 -3.545,-1.552 -3.545,-1.552 v 13.177 h -7.488 V 83.752 c 0,0 -2.981,3.35 -6.157,2.511 z"
     stroke-miterlimit="10"
     id="path214"
     inkscape:connector-curvature="0"
     style="fill:#ffffff;stroke:#010101;stroke-miterlimit:10" /><path
     d="m 440.994,117.098 c -3.9,-1.028 -5.486,-5.235 -4.828,-7.979 1.453,-6.058 8.35,-4.284 8.35,-4.433 0,-0.345 -0.596,-7.823 6.527,-7.832 6.92,-0.009 6.105,7.378 6.328,7.314 4.531,-1.28 8.57,2.513 7.67,6.943 -0.871,4.278 -4.256,5.241 -6.857,4.952 -1.66,-0.185 -3.545,-1.552 -3.545,-1.552 v 13.177 h -7.486 v -13.102 c -0.003,0.001 -2.982,3.351 -6.159,2.512 z"
     stroke-miterlimit="10"
     id="path216"
     inkscape:connector-curvature="0"
     style="fill:#ffffff;stroke:#010101;stroke-miterlimit:10" /><path
     d="m 471.775,136.827 c -3.9,-1.028 -5.486,-5.235 -4.828,-7.979 1.453,-6.058 8.35,-4.284 8.35,-4.433 0,-0.345 -0.596,-7.823 6.525,-7.832 6.922,-0.009 6.105,7.378 6.33,7.314 4.529,-1.28 8.568,2.513 7.67,6.943 -0.871,4.278 -4.256,5.241 -6.857,4.952 -1.662,-0.185 -3.547,-1.552 -3.547,-1.552 v 13.177 h -7.486 v -13.102 c -0.001,0.001 -2.981,3.351 -6.157,2.512 z"
     stroke-miterlimit="10"
     id="path218"
     inkscape:connector-curvature="0"
     style="fill:#ffffff;stroke:#010101;stroke-miterlimit:10" /><path
     d="m 498.275,86.263 c -3.9,-1.028 -5.486,-5.235 -4.828,-7.979 1.453,-6.058 8.35,-4.284 8.35,-4.433 0,-0.345 -0.596,-7.823 6.525,-7.832 6.922,-0.009 6.105,7.378 6.33,7.314 4.529,-1.28 8.568,2.513 7.67,6.943 -0.871,4.278 -4.256,5.241 -6.857,4.952 -1.662,-0.185 -3.547,-1.552 -3.547,-1.552 v 13.177 h -7.486 V 83.752 c -0.001,0 -2.981,3.35 -6.157,2.511 z"
     stroke-miterlimit="10"
     id="path220"
     inkscape:connector-curvature="0"
     style="fill:#ffffff;stroke:#010101;stroke-miterlimit:10" /><text
     font-size="14"
     transform="translate(291.8403,602.3237)"
     id="text222"
     style="font-size:14px;font-family:TimesNewRomanPS-BoldMT">DO</text>
<text
     font-size="14"
     transform="translate(291.8403,632.9907)"
     id="text224"
     style="font-size:14px;font-family:TimesNewRomanPS-BoldMT">HOSP</text>
<text
     font-size="14"
     transform="translate(291.8403,663.6577)"
     id="text226"
     style="font-size:14px;font-family:TimesNewRomanPS-BoldMT">MKT</text>
<text
     font-size="14"
     transform="translate(291.8403,694.3247)"
     id="text228"
     style="font-size:14px;font-family:TimesNewRomanPS-BoldMT">PO</text>
<text
     font-size="14"
     transform="translate(291.8403,724.9917)"
     id="text230"
     style="font-size:14px;font-family:TimesNewRomanPS-BoldMT">PS</text>
<text
     font-size="14"
     transform="translate(291.8403,755.6587)"
     id="text232"
     style="font-size:14px;font-family:TimesNewRomanPS-BoldMT">SCH</text>
<text
     font-size="14"
     transform="translate(291.8403,816.9927)"
     id="text234"
     style="font-size:14px;font-family:TimesNewRomanPS-BoldMT">MSQ</text>
<text
     font-size="14"
     transform="translate(376.4995,369.6021)"
     id="text236"
     style="font-size:14px;font-family:TimesNewRomanPSMT">DO</text>
<text
     font-size="14"
     transform="translate(411.8335,379.9995)"
     id="text238"
     style="font-size:14px;font-family:TimesNewRomanPSMT">HOSP</text>
<text
     font-size="14"
     transform="translate(380.8335,432.9888)"
     id="text240"
     style="font-size:14px;font-family:TimesNewRomanPSMT">PO</text>
<text
     font-size="14"
     transform="translate(344.4956,405.0806)"
     id="text242"
     style="font-size:14px;font-family:TimesNewRomanPSMT">PS</text>
<text
     font-size="14"
     transform="translate(450.5015,440.7974)"
     id="text244"
     style="font-size:14px;font-family:TimesNewRomanPSMT">SCH</text>
<text
     font-size="14"
     transform="translate(484.8081,344.4937)"
     id="text246"
     style="font-size:14px;font-family:TimesNewRomanPSMT">MSQ</text>
<text
     id="text13791"
     font-size="14"
     transform="translate(484.8081,374.9351)"
     style="font-size:14px;font-family:TimesNewRomanPSMT">GOSA</text>
<text
     id="text13793"
     font-size="14"
     transform="translate(484.8081,391.7349)"
     style="font-size:14px;font-family:TimesNewRomanPSMT">TOWN</text>
<g
     id="g254">
	<rect
   height="15.75"
   width="23.333"
   stroke-miterlimit="10"
   y="777.62799"
   x="295.48599"
   id="rect256"
   style="fill:none;stroke:#010101;stroke-miterlimit:10" />
	<g
   id="g258">
		<path
   d="m 301.13,770.001 h 4.229 v -4.252 h 3.565 v 4.252 h 4.25 v 3.566 h -4.25 v 4.229 h -3.565 v -4.229 h -4.229 v -3.566 z"
   id="path260"
   inkscape:connector-curvature="0" />
	</g>
</g><g
     id="g262">
	<rect
   height="8.0209999"
   width="11.883"
   stroke-miterlimit="10"
   y="446.849"
   x="501.90601"
   id="rect264"
   style="fill:none;stroke:#010101;stroke-miterlimit:10" />
	<g
   id="g266">
		<path
   d="m 504.781,442.962 h 2.152 v -2.164 h 1.816 v 2.164 h 2.164 v 1.816 h -2.164 v 2.154 h -1.816 v -2.154 h -2.152 v -1.816 z"
   id="path268"
   inkscape:connector-curvature="0" />
	</g>
</g><rect
     height="269"
     width="509.74701"
     stroke-miterlimit="10"
     y="561"
     x="30.253"
     id="rect270"
     style="fill:none;stroke:#000000;stroke-width:2;stroke-miterlimit:10" /><path
     d="m 30.334,195.833 c 8.079,6.661 57.699,49.532 66.96,54.356 14.795,7.707 25.765,10.608 40.706,17.811 17.729,8.546 39.686,19.487 57.885,27.28 25.781,11.04 89.402,52.588 98.321,57.535 18.969,10.52 68.481,29.227 83.047,32.727 11.4,2.739 19.24,8.22 31.08,13.459 5.395,2.386 119.666,24.667 136.004,28.333"
     stroke-miterlimit="10"
     id="path272"
     inkscape:connector-curvature="0"
     style="fill:none;stroke:#000000;stroke-width:7;stroke-miterlimit:10" /><path
     d="m 242,60 c 7.179,17.205 10,31.678 10,50.876 0,20.791 5.04,39.499 -1.064,59.771 -6.451,21.426 -17.184,39.014 -30.765,56.809 -7.901,10.352 -15.497,20.52 -22.151,31.274 -5.834,9.428 -8.977,12.736 -18.306,18.955 -2.855,1.903 -5.719,3.467 -7.713,6.481"
     stroke-miterlimit="10"
     id="path274"
     inkscape:connector-curvature="0"
     style="fill:none;stroke:#000000;stroke-width:2;stroke-miterlimit:10" /><path
     d="m 250,61.324 c 7.179,17.205 8.781,31.678 8.781,50.876 0,20.791 5.04,39.499 -1.064,59.771 -6.451,21.426 -17.184,39.014 -30.765,56.809 -7.901,10.352 -15.497,20.52 -22.151,31.274 -5.834,9.428 -8.689,12.533 -17.633,19.945 -2.642,2.189 -7.339,4.586 -9.333,7.601"
     stroke-miterlimit="10"
     id="path276"
     inkscape:connector-curvature="0"
     style="fill:none;stroke:#000000;stroke-width:2;stroke-miterlimit:10" /><g
     id="g278">
	<path
   d="m 303,358 c 0.08,7.385 -12.165,38.511 -16,46 -8.076,15.773 -19.184,36.216 -30.778,49.019 -8.983,9.922 -23.85,23.041 -36.251,29.107 -7.519,3.678 -18.392,6.383 -26.991,11.877 -6.68,4.268 -11.953,9.383 -19.98,10.996"
   stroke-miterlimit="10"
   id="path280"
   inkscape:connector-curvature="0"
   style="fill:none;stroke:#000000;stroke-width:2;stroke-miterlimit:10" />
	<path
   d="m 308.996,360.311 c -1.343,7.188 -12.165,38.512 -15.999,46 -8.076,15.773 -19.184,36.218 -30.778,49.021 -8.983,9.92 -23.485,24.604 -35.886,30.67 -7.519,3.678 -15.146,5.16 -22.5,8.834 -7.091,3.541 -9.417,6.334 -16.417,10.834"
   stroke-miterlimit="10"
   id="path282"
   inkscape:connector-curvature="0"
   style="fill:none;stroke:#000000;stroke-width:2;stroke-miterlimit:10" />
</g><g
     id="g284">
	<path
   d="m 31,412 c 21.488,2.985 26.667,8.722 41.333,5.667 12.194,-2.54 24.682,-6.882 36.049,-11.333 13.618,-5.333 40.58,-8.17 50.951,-12 11,-4.063 52.423,-36.188 65.683,-41.358 4.766,-1.858 6.568,-0.117 10.484,-2.809 4.58,-3.147 12.707,-6 18.455,-14.833"
   stroke-miterlimit="10"
   id="path286"
   inkscape:connector-curvature="0"
   style="fill:none;stroke:#000000;stroke-miterlimit:10" />
	<path
   d="m 265,323 c 7.227,-21.25 8.309,-30.222 20.5,-47 4.414,-6.075 13.742,-9.237 18,-14.75 6.209,-8.037 22.479,-21.132 30,-28 14.236,-13 38.065,-20.078 51.754,-35.223 5.869,-6.497 12.205,-10.167 19.246,-15.277 7.367,-5.347 15.563,-15.146 21.25,-22.5 2.373,-3.069 4.928,-3.661 4.688,-7.236 C 430.022,146.802 419.961,123.865 419.008,112 418.147,101.272 415.932,68.875 423,62"
   stroke-miterlimit="10"
   id="path288"
   inkscape:connector-curvature="0"
   style="fill:none;stroke:#000000;stroke-miterlimit:10" />
	<path
   d="m 429.949,150.293 c 2.652,-5.518 3.18,-10.329 6.072,-13.918 5.855,-7.262 0,0 18.982,-6.133 4.857,-1.569 6.156,-5.331 9.121,-7.992 5.51,-4.949 10.041,-7.417 18.875,-11.417"
   stroke-miterlimit="10"
   id="path290"
   inkscape:connector-curvature="0"
   style="fill:none;stroke:#000000;stroke-miterlimit:10" />
	<path
   d="m 448.845,132 c 8.631,4.27 19.598,16.601 28.988,18.833 11.25,2.675 19.17,-4.458 30.041,-4.458"
   stroke-miterlimit="10"
   id="path292"
   inkscape:connector-curvature="0"
   style="fill:none;stroke:#000000;stroke-miterlimit:10" />
</g><path
     d="m 407,397.333 c 5.332,-1.458 10.906,-4.145 15.666,-5.969 5.336,-2.046 10.568,-3.486 16.15,-5.514 4.736,-1.72 11.643,-4.343 14.736,-8.814 3.1,-4.479 2.789,-12.013 4.814,-17.103 -0.188,-0.317 -0.16,0.238 -0.063,0.184 5.232,-9.491 11.186,-18.91 17.213,-28.6 7.24,-11.634 14.354,-27.563 24.648,-36.499 8.557,-7.426 12.943,-11.025 16.152,-23.055 2.297,-8.611 7.281,-8.397 11.865,-14.796 1.605,-2.239 2.238,-5.392 3.621,-7.301 2.414,-3.328 8.277,-7.201 12.531,-8.534"
     stroke-miterlimit="10"
     id="path294"
     inkscape:connector-curvature="0"
     style="fill:none;stroke:#000000;stroke-width:2;stroke-miterlimit:10" /><path
     d="m 411.833,400.667 c 5.332,-1.458 10.904,-4.145 15.664,-5.969 5.338,-2.046 10.568,-3.486 16.15,-5.514 4.738,-1.72 11.643,-4.343 14.736,-8.814 3.102,-4.479 2.789,-12.013 4.816,-17.103 -0.189,-0.317 -0.16,0.238 -0.064,0.184 5.232,-9.491 11.186,-18.91 17.215,-28.6 7.238,-11.634 14.354,-27.563 24.648,-36.499 8.557,-7.426 12.941,-11.025 16.15,-23.055 2.299,-8.611 7.281,-8.397 11.867,-14.796 1.604,-2.239 2.236,-5.392 3.621,-7.301 2.414,-3.328 3.342,-4.609 7.697,-6.487"
     stroke-miterlimit="10"
     id="path296"
     inkscape:connector-curvature="0"
     style="fill:none;stroke:#000000;stroke-width:2;stroke-miterlimit:10" /><path
     d="m 330.022,408.923 c 0.003,-4.407 0.565,-11.406 0.978,-17.899 0.608,-9.614 3.662,-18.335 6.996,-26.026 8.965,-20.679 27.039,-36.146 49.357,-46.247 6.023,-2.727 17.271,-3.501 27.479,-7.167 9.006,-3.234 26.742,-9.716 36.168,-10.083 33,-1.284 45.941,11.829 62.789,27.352 11.936,11 12.482,39.199 16.262,54.315 1.625,6.507 3.408,16.448 5.281,22.832 3.131,10.666 6.313,21.668 2.777,31.168 -3.348,8.996 -8.635,13.521 -16.262,18.828 -10.902,7.586 -25.793,0.566 -36.016,-2.832 -26.596,-8.842 -56.258,-9.271 -84.611,-11.164 -13.092,-0.873 -28.129,-4.563 -40.729,-8.246 -13.337,-3.898 -23.063,-5.463 -29.159,-15.753 -0.254,-0.431 -1.311,-7.325 -1.31,-9.078 z"
     stroke-miterlimit="10"
     id="path298"
     inkscape:connector-curvature="0"
     style="fill:none;stroke:#000000;stroke-width:0.5;stroke-miterlimit:10;stroke-dasharray:6" /><polyline
     points="256.088,313.654   255.655,319.993 268.324,328.852 274.346,324.822 "
     stroke-miterlimit="10"
     id="polyline300"
     style="fill:none;stroke:#000000;stroke-width:2;stroke-miterlimit:10" /><polyline
     points="260.428,345.559   260.763,339.215 247.958,330.553 242,334.675 "
     stroke-miterlimit="10"
     id="polyline302"
     style="fill:none;stroke:#000000;stroke-width:2;stroke-miterlimit:10" /><rect
     height="14.334"
     width="14.334"
     y="159.68401"
     x="454"
     id="rect304"
     style="fill:#010101" /><rect
     height="14.334"
     width="14.334"
     y="80.935997"
     x="224.112"
     id="rect306"
     style="fill:#010101" /><rect
     height="14.334"
     width="14.334"
     y="116.27"
     x="227.112"
     id="rect308"
     style="fill:#010101" /><rect
     height="14.334"
     width="14.334"
     y="178.166"
     x="40.318001"
     id="rect310"
     style="fill:#010101" /><rect
     height="14.334"
     width="14.334"
     y="255.166"
     x="165.83299"
     id="rect312"
     style="fill:#010101" /><rect
     height="14.334"
     width="14.334"
     y="275.98801"
     x="202.83299"
     id="rect314"
     style="fill:#010101" /><rect
     height="14.334"
     width="14.334"
     y="283.155"
     x="128.144"
     id="rect316"
     style="fill:#010101" /><rect
     height="14.334"
     width="14.334"
     y="297.48901"
     x="155.33299"
     id="rect318"
     style="fill:#010101" /><rect
     height="14.334"
     width="14.334"
     y="311.58301"
     x="185.33299"
     id="rect320"
     style="fill:#010101" /><rect
     height="14.334"
     width="14.334"
     y="447.83301"
     x="54.333"
     id="rect322"
     style="fill:#010101" /><rect
     height="14.334"
     width="14.334"
     y="478.33301"
     x="164.83299"
     id="rect324"
     style="fill:#010101" /><rect
     height="14.334"
     width="14.334"
     y="462.16699"
     x="195.666"
     id="rect326"
     style="fill:#010101" /><rect
     height="14.334"
     width="14.334"
     y="485.5"
     x="241.03999"
     id="rect328"
     style="fill:#010101" /><rect
     height="10.665"
     width="10.666"
     transform="matrix(-0.9323,-0.3618,0.3618,-0.9323,651.4088,895.2848)"
     y="381.332"
     x="404.17801"
     id="rect330"
     style="fill:#010101" /><rect
     height="10.666"
     width="10.666"
     transform="matrix(-0.9559,-0.2938,0.2938,-0.9559,764.4421,909.5032)"
     y="392.00101"
     x="445.20099"
     id="rect332"
     style="fill:#010101" /><rect
     height="10.666"
     width="10.666"
     transform="matrix(-0.9214,-0.3886,0.3886,-0.9214,760.9022,903.7387)"
     y="369.599"
     x="466.49799"
     id="rect334"
     style="fill:#010101" /><rect
     height="10.666"
     width="10.666"
     y="345.849"
     x="499.44699"
     id="rect336"
     style="fill:#010101" /><rect
     height="10.666"
     width="10.666"
     y="242"
     x="516.71802"
     id="rect338"
     style="fill:#010101" /><rect
     height="10.666"
     width="10.666"
     y="257.75"
     x="503.78101"
     id="rect340"
     style="fill:#010101" /><rect
     height="10.666"
     width="10.666"
     y="266.5"
     x="527.79797"
     id="rect342"
     style="fill:#010101" /><rect
     height="10.666"
     width="10.666"
     y="285.66699"
     x="522.052"
     id="rect344"
     style="fill:#010101" /><rect
     height="10.667"
     width="10.665"
     transform="matrix(-0.9045,-0.4265,0.4265,-0.9045,595.1026,959.69)"
     y="407.875"
     x="399.681"
     id="rect346"
     style="fill:#010101" /><rect
     height="10.668"
     width="10.668"
     transform="matrix(-0.9498,-0.3129,0.3129,-0.9498,771.1583,971.4805)"
     y="418.534"
     x="458.19"
     id="rect348"
     style="fill:#010101" /><rect
     height="10.668"
     width="10.667"
     transform="matrix(-0.9228,-0.3852,0.3852,-0.9228,776.58,956.9465)"
     y="395.345"
     x="478.819"
     id="rect350"
     style="fill:#010101" /><rect
     height="10.665"
     width="10.667"
     transform="matrix(-0.968,-0.2508,0.2508,-0.968,881.0494,924.2639)"
     y="400.651"
     x="494.09399"
     id="rect352"
     style="fill:#010101" /><rect
     height="10.666"
     width="10.666"
     transform="matrix(-0.9817,-0.1906,0.1906,-0.9817,966.6974,915.7012)"
     y="406.02301"
     x="522.05701"
     id="rect354"
     style="fill:#010101" /><rect
     height="10.666"
     width="10.666"
     y="437.16699"
     x="484.16699"
     id="rect356"
     style="fill:#010101" /><rect
     height="10.667"
     width="10.666"
     y="411.01599"
     x="370.16699"
     id="rect358"
     style="fill:#010101" /><rect
     height="10.666"
     width="10.665"
     transform="matrix(-0.8685,-0.4957,0.4957,-0.8685,447.1128,895.6406)"
     y="383.17599"
     x="337.034"
     id="rect360"
     style="fill:#010101" /><rect
     height="10.667"
     width="10.667"
     transform="matrix(-0.9021,-0.4315,0.4315,-0.9021,544.632,862.7906)"
     y="364.27899"
     x="364.85699"
     id="rect362"
     style="fill:#010101" /><rect
     height="10.667"
     width="10.666"
     y="339.16199"
     x="382.021"
     id="rect364"
     style="fill:#010101" /><rect
     height="10.667"
     width="10.666"
     y="317.66699"
     x="404.16699"
     id="rect366"
     style="fill:#010101" /><rect
     height="10.667"
     width="10.666"
     y="356.51501"
     x="430.68701"
     id="rect368"
     style="fill:#010101" /><rect
     height="10.665"
     width="10.666"
     transform="matrix(-0.9048,-0.4258,0.4258,-0.9048,754.0952,800.389)"
     y="310.56699"
     x="461.18399"
     id="rect370"
     style="fill:#010101" /><rect
     height="14.334"
     width="14.334"
     y="74.268997"
     x="265.06"
     id="rect372"
     style="fill:#010101" /><rect
     height="14.334"
     width="14.334"
     y="112.271"
     x="268.72699"
     id="rect374"
     style="fill:#010101" /><ellipse
     ry="7.2909999"
     rx="4.4229999"
     cy="395.33301"
     cx="51.908001"
     id="ellipse376"
     sodipodi:cx="51.908001"
     sodipodi:cy="395.33301"
     sodipodi:rx="4.4229999"
     sodipodi:ry="7.2909999"
     d="m 56.331001,395.33301 c 0,4.02671 -1.980245,7.291 -4.423,7.291 -2.442755,0 -4.423,-3.26429 -4.423,-7.291 0,-4.02671 1.980245,-7.291 4.423,-7.291 2.442755,0 4.423,3.26429 4.423,7.291 z" /><ellipse
     ry="7.2909999"
     rx="4.4229999"
     cy="370.936"
     cx="152.33"
     id="ellipse378"
     sodipodi:cx="152.33"
     sodipodi:cy="370.936"
     sodipodi:rx="4.4229999"
     sodipodi:ry="7.2909999"
     d="m 156.753,370.936 c 0,4.02671 -1.98024,7.291 -4.423,7.291 -2.44275,0 -4.423,-3.26429 -4.423,-7.291 0,-4.0267 1.98025,-7.291 4.423,-7.291 2.44276,0 4.423,3.2643 4.423,7.291 z" /><ellipse
     ry="7.2909999"
     rx="4.4229999"
     cy="454.86899"
     cx="330.01999"
     id="ellipse380"
     sodipodi:cx="330.01999"
     sodipodi:cy="454.86899"
     sodipodi:rx="4.4229999"
     sodipodi:ry="7.2909999"
     d="m 334.44299,454.86899 c 0,4.02671 -1.98025,7.291 -4.423,7.291 -2.44276,0 -4.423,-3.26429 -4.423,-7.291 0,-4.02671 1.98024,-7.291 4.423,-7.291 2.44275,0 4.423,3.26429 4.423,7.291 z" /><ellipse
     ry="7.2909999"
     rx="4.4239998"
     cy="493.71399"
     cx="308.996"
     id="ellipse382"
     sodipodi:cx="308.996"
     sodipodi:cy="493.71399"
     sodipodi:rx="4.4239998"
     sodipodi:ry="7.2909999"
     d="m 313.42,493.71399 c 0,4.02671 -1.98069,7.291 -4.424,7.291 -2.44331,0 -4.424,-3.26429 -4.424,-7.291 0,-4.02671 1.98069,-7.291 4.424,-7.291 2.44331,0 4.424,3.26429 4.424,7.291 z" /><ellipse
     ry="7.2909999"
     rx="4.4219999"
     cy="492.66599"
     cx="450.595"
     id="ellipse384"
     sodipodi:cx="450.595"
     sodipodi:cy="492.66599"
     sodipodi:rx="4.4219999"
     sodipodi:ry="7.2909999"
     d="m 455.017,492.66599 c 0,4.0267 -1.9798,7.29099 -4.422,7.29099 -2.4422,0 -4.422,-3.26429 -4.422,-7.29099 0,-4.02671 1.9798,-7.291 4.422,-7.291 2.4422,0 4.422,3.26429 4.422,7.291 z" /><ellipse
     ry="7.2909999"
     rx="4.4229999"
     cy="330.55301"
     cx="128.144"
     id="ellipse386"
     sodipodi:cx="128.144"
     sodipodi:cy="330.55301"
     sodipodi:rx="4.4229999"
     sodipodi:ry="7.2909999"
     d="m 132.567,330.55301 c 0,4.02671 -1.98025,7.291 -4.423,7.291 -2.44276,0 -4.423,-3.26429 -4.423,-7.291 0,-4.02671 1.98024,-7.291 4.423,-7.291 2.44275,0 4.423,3.26429 4.423,7.291 z" /><ellipse
     ry="7.2909999"
     rx="4.4229999"
     cy="245.33299"
     cx="48.414001"
     id="ellipse388"
     sodipodi:cx="48.414001"
     sodipodi:cy="245.33299"
     sodipodi:rx="4.4229999"
     sodipodi:ry="7.2909999"
     d="m 52.837001,245.33299 c 0,4.02671 -1.980244,7.291 -4.423,7.291 -2.442755,0 -4.422999,-3.26429 -4.422999,-7.291 0,-4.02671 1.980244,-7.291 4.422999,-7.291 2.442756,0 4.423,3.26429 4.423,7.291 z" /><ellipse
     ry="7.2909999"
     rx="4.4229999"
     cy="90.833"
     cx="65"
     id="ellipse390"
     sodipodi:cx="65"
     sodipodi:cy="90.833"
     sodipodi:rx="4.4229999"
     sodipodi:ry="7.2909999"
     d="m 69.423,90.833 c 0,4.026708 -1.980245,7.291 -4.423,7.291 -2.442755,0 -4.423,-3.264292 -4.423,-7.291 0,-4.026708 1.980245,-7.291 4.423,-7.291 2.442755,0 4.423,3.264292 4.423,7.291 z" /><ellipse
     ry="7.2909999"
     rx="4.4229999"
     cy="123.313"
     cx="116.089"
     id="ellipse392"
     sodipodi:cx="116.089"
     sodipodi:cy="123.313"
     sodipodi:rx="4.4229999"
     sodipodi:ry="7.2909999"
     d="m 120.512,123.313 c 0,4.02671 -1.98025,7.291 -4.423,7.291 -2.44276,0 -4.423,-3.26429 -4.423,-7.291 0,-4.0267 1.98024,-7.291 4.423,-7.291 2.44275,0 4.423,3.2643 4.423,7.291 z" /><ellipse
     ry="7.2909999"
     rx="4.4229999"
     cy="95.269997"
     cx="173"
     id="ellipse394"
     sodipodi:cx="173"
     sodipodi:cy="95.269997"
     sodipodi:rx="4.4229999"
     sodipodi:ry="7.2909999"
     d="m 177.423,95.269997 c 0,4.026708 -1.98024,7.291003 -4.423,7.291003 -2.44276,0 -4.423,-3.264295 -4.423,-7.291003 0,-4.026708 1.98024,-7.291 4.423,-7.291 2.44276,0 4.423,3.264292 4.423,7.291 z" /><text
     font-size="14"
     transform="translate(90.332,95.269)"
     id="text396"
     style="font-size:14px;font-family:TimesNewRomanPSMT">COTTON</text>
<text
     font-size="14"
     transform="matrix(0.7925,-0.6099,0.6099,0.7925,301.1265,253.3042)"
     id="text398"
     style="font-size:14px;font-family:TimesNewRomanPSMT">RIVER GOSA</text>
<text
     font-size="14"
     transform="translate(60.5,192.4995)"
     id="text400"
     style="font-size:14px;font-family:TimesNewRomanPSMT">GINNERY</text>
<text
     id="text13869"
     font-size="14"
     transform="translate(154.1143,235.3325)"
     style="font-size:14px;font-family:TimesNewRomanPSMT">TIMA</text>
<text
     id="text13871"
     font-size="14"
     transform="translate(156.4443,252.1323)"
     style="font-size:14px;font-family:TimesNewRomanPSMT">MKT</text>
<text
     id="text13873"
     font-size="14"
     transform="translate(285.5005,87.979)"
     style="font-size:14px;font-family:TimesNewRomanPSMT">PETA</text>
<text
     id="text13875"
     font-size="14"
     transform="translate(287.4453,104.7788)"
     style="font-size:14px;font-family:TimesNewRomanPSMT">MKT</text>
<text
     id="text13877"
     font-size="14"
     transform="translate(255.7324,478.3335)"
     style="font-size:14px;font-family:TimesNewRomanPSMT">KUTA</text>
<text
     id="text13879"
     font-size="14"
     transform="translate(259.6182,495.1323)"
     style="font-size:14px;font-family:TimesNewRomanPSMT">MKT</text>
<text
     id="text13881"
     font-size="14"
     transform="translate(474.9741,238.4155)"
     style="font-size:14px;font-family:TimesNewRomanPSMT">NAMA</text>
<text
     id="text13883"
     font-size="14"
     transform="translate(480.8081,255.2163)"
     style="font-size:14px;font-family:TimesNewRomanPSMT">MKT</text>
<text
     id="text13885"
     font-size="14"
     transform="translate(74.1543,459.3892)"
     style="font-size:14px;font-family:TimesNewRomanPSMT">CATTLE</text>
<text
     id="text13887"
     font-size="14"
     transform="translate(74.1543,476.189)"
     style="font-size:14px;font-family:TimesNewRomanPSMT">DIP</text>
<text
     font-size="14"
     transform="translate(47.6729,319.6655)"
     id="text432"
     style="font-size:14px;font-family:TimesNewRomanPSMT">COTTON</text>
<text
     font-size="14"
     transform="translate(471.7847,179.1655)"
     id="text434"
     style="font-size:14px;font-family:TimesNewRomanPSMT">SAW MILL</text>
<text
     font-size="14"
     transform="translate(466.8022,109.9995)"
     id="text436"
     style="font-size:14px;font-family:TimesNewRomanPSMT">FUTO HILL</text>
<text
     font-size="14"
     transform="translate(342.394,485.3745)"
     id="text438"
     style="font-size:14px;font-family:TimesNewRomanPSMT">MAIZE</text>
<path
     d="m 495.179,156.26 c -3.898,-1.028 -5.484,-5.235 -4.828,-7.979 1.453,-6.058 8.352,-4.284 8.352,-4.433 0,-0.345 -0.596,-7.823 6.525,-7.832 6.922,-0.009 6.105,7.378 6.328,7.314 4.531,-1.28 8.57,2.513 7.67,6.943 -0.869,4.278 -4.256,5.241 -6.855,4.952 -1.662,-0.185 -3.547,-1.552 -3.547,-1.552 v 13.177 h -7.486 v -13.1 c -0.003,0 -2.981,3.349 -6.159,2.51 z"
     stroke-miterlimit="10"
     id="path440"
     inkscape:connector-curvature="0"
     style="fill:#ffffff;stroke:#010101;stroke-miterlimit:10" /><text
     font-size="14"
     transform="translate(482.9995,206.9995)"
     id="text442"
     style="font-size:14px;font-family:TimesNewRomanPSMT">TEA</text>
<text
     font-size="14"
     transform="translate(427.4995,230.9995)"
     id="text444"
     style="font-size:14px;font-family:TimesNewRomanPSMT">TEA</text>
<line
     id="line13896"
     y2="663.65802"
     x2="92.306999"
     y1="663.65802"
     x1="41.775002"
     stroke-miterlimit="10"
     style="fill:none;stroke:#000000;stroke-width:2;stroke-miterlimit:10;stroke-dasharray:6" /></g></svg>